<?xml version="1.0" encoding="UTF-8" standalone="no"?>
<!-- Created with Inkscape (http://www.inkscape.org/) -->

<svg
   version="1.1"
   id="svg9759"
   width="847.06799"
   height="135.86273"
   viewBox="0 0 847.06799 135.86273"
   sodipodi:docname="ControlLoop1.svg"
   inkscape:version="1.2.2 (732a01da63, 2022-12-09, custom)"
   xmlns:inkscape="http://www.inkscape.org/namespaces/inkscape"
   xmlns:sodipodi="http://sodipodi.sourceforge.net/DTD/sodipodi-0.dtd"
   xmlns="http://www.w3.org/2000/svg"
   xmlns:svg="http://www.w3.org/2000/svg">
  <defs
     id="defs9763">
    <clipPath
       clipPathUnits="userSpaceOnUse"
       id="clipPath11539">
      <g
         id="g11543">
        <path
           d="M 0,0.028 H 793.672 V 446.456 H 0 Z"
           clip-rule="evenodd"
           id="path11541" />
      </g>
    </clipPath>
    <clipPath
       clipPathUnits="userSpaceOnUse"
       id="clipPath11545">
      <g
         id="g11549">
        <path
           d="M 0,0.028 H 793.672 V 446.456 H 0 Z"
           clip-rule="evenodd"
           id="path11547" />
      </g>
    </clipPath>
    <clipPath
       clipPathUnits="userSpaceOnUse"
       id="clipPath11551">
      <g
         id="g11555">
        <path
           d="M 0,0.028 H 793.672 V 446.456 H 0 Z"
           clip-rule="evenodd"
           id="path11553" />
      </g>
    </clipPath>
    <clipPath
       clipPathUnits="userSpaceOnUse"
       id="clipPath11557">
      <g
         id="g11561">
        <path
           d="M 0,0.028 H 793.672 V 446.456 H 0 Z"
           clip-rule="evenodd"
           id="path11559" />
      </g>
    </clipPath>
    <clipPath
       clipPathUnits="userSpaceOnUse"
       id="clipPath11563">
      <g
         id="g11567">
        <path
           d="M 0,0.028 H 793.672 V 446.456 H 0 Z"
           clip-rule="evenodd"
           id="path11565" />
      </g>
    </clipPath>
    <clipPath
       clipPathUnits="userSpaceOnUse"
       id="clipPath11569">
      <g
         id="g11573">
        <path
           d="M 0,0.028 H 793.672 V 446.456 H 0 Z"
           clip-rule="evenodd"
           id="path11571" />
      </g>
    </clipPath>
    <clipPath
       clipPathUnits="userSpaceOnUse"
       id="clipPath11575">
      <g
         id="g11579">
        <path
           d="M 0,0.028 H 793.672 V 446.456 H 0 Z"
           clip-rule="evenodd"
           id="path11577" />
      </g>
    </clipPath>
    <clipPath
       clipPathUnits="userSpaceOnUse"
       id="clipPath11581">
      <g
         id="g11585">
        <path
           d="M 0,0.028 H 793.672 V 446.456 H 0 Z"
           clip-rule="evenodd"
           id="path11583" />
      </g>
    </clipPath>
    <clipPath
       clipPathUnits="userSpaceOnUse"
       id="clipPath11587">
      <g
         id="g11591">
        <path
           d="M 0,0.028 H 793.672 V 446.456 H 0 Z"
           clip-rule="evenodd"
           id="path11589" />
      </g>
    </clipPath>
    <clipPath
       clipPathUnits="userSpaceOnUse"
       id="clipPath11593">
      <g
         id="g11597">
        <path
           d="M 0,0.028 H 793.672 V 446.456 H 0 Z"
           clip-rule="evenodd"
           id="path11595" />
      </g>
    </clipPath>
    <clipPath
       clipPathUnits="userSpaceOnUse"
       id="clipPath11599">
      <g
         id="g11603">
        <path
           d="M 0,0.028 H 793.672 V 446.456 H 0 Z"
           clip-rule="evenodd"
           id="path11601" />
      </g>
    </clipPath>
    <clipPath
       clipPathUnits="userSpaceOnUse"
       id="clipPath11605">
      <g
         id="g11609">
        <path
           d="M 0,0.028 H 793.672 V 446.456 H 0 Z"
           clip-rule="evenodd"
           id="path11607" />
      </g>
    </clipPath>
    <clipPath
       clipPathUnits="userSpaceOnUse"
       id="clipPath11611">
      <g
         id="g11615">
        <path
           d="M 0,0.028 H 793.672 V 446.456 H 0 Z"
           clip-rule="evenodd"
           id="path11613" />
      </g>
    </clipPath>
    <clipPath
       clipPathUnits="userSpaceOnUse"
       id="clipPath11617">
      <g
         id="g11621">
        <path
           d="M 0,0.028 H 793.672 V 446.456 H 0 Z"
           clip-rule="evenodd"
           id="path11619" />
      </g>
    </clipPath>
    <clipPath
       clipPathUnits="userSpaceOnUse"
       id="clipPath11623">
      <g
         id="g11627">
        <path
           d="M 0,0.028 H 793.672 V 446.456 H 0 Z"
           clip-rule="evenodd"
           id="path11625" />
      </g>
    </clipPath>
    <clipPath
       clipPathUnits="userSpaceOnUse"
       id="clipPath11629">
      <g
         id="g11633">
        <path
           d="M 0,0.028 H 793.672 V 446.456 H 0 Z"
           clip-rule="evenodd"
           id="path11631" />
      </g>
    </clipPath>
    <clipPath
       clipPathUnits="userSpaceOnUse"
       id="clipPath11635">
      <g
         id="g11639">
        <path
           d="M 0,0.028 H 793.672 V 446.456 H 0 Z"
           clip-rule="evenodd"
           id="path11637" />
      </g>
    </clipPath>
    <clipPath
       clipPathUnits="userSpaceOnUse"
       id="clipPath11641">
      <g
         id="g11645">
        <path
           d="M 0,0.028 H 793.672 V 446.456 H 0 Z"
           clip-rule="evenodd"
           id="path11643" />
      </g>
    </clipPath>
    <clipPath
       clipPathUnits="userSpaceOnUse"
       id="clipPath11647">
      <g
         id="g11651">
        <path
           d="M 0,0.028 H 793.672 V 446.456 H 0 Z"
           clip-rule="evenodd"
           id="path11649" />
      </g>
    </clipPath>
  </defs>
  <sodipodi:namedview
     id="namedview9761"
     pagecolor="#505050"
     bordercolor="#ffffff"
     borderopacity="1"
     inkscape:showpageshadow="0"
     inkscape:pageopacity="0"
     inkscape:pagecheckerboard="1"
     inkscape:deskcolor="#505050"
     showgrid="false"
     inkscape:zoom="1.2884033"
     inkscape:cx="367.89723"
     inkscape:cy="48.509655"
     inkscape:window-width="1920"
     inkscape:window-height="1016"
     inkscape:window-x="0"
     inkscape:window-y="0"
     inkscape:window-maximized="1"
     inkscape:current-layer="g9767">
    <inkscape:page
       x="0"
       y="0"
       id="page9765"
       width="847.06799"
       height="135.86273" />
  </sodipodi:namedview>
  <g
     id="g9767"
     inkscape:groupmode="layer"
     inkscape:label="Page 1"
     transform="matrix(1.3333333,0,0,-1.3333333,-170.72133,384.66006)">
    <g
       id="g9779" />
    <g
       id="g9781" />
    <path
       d="m 356.91,244.799 h -84.897 v 43.2 H 441.78 v -43.2 z"
       style="fill:#5983b0;fill-opacity:1;fill-rule:evenodd;stroke:none"
       id="path9783"
       clip-path="url(#clipPath11641)" />
    <g
       id="g9785"
       clip-path="url(#clipPath11635)">
      <path
         d="m 356.91,244.799 h -84.897 v 43.2 H 441.78 v -43.2 z"
         style="fill:none;stroke:#b4c7dc;stroke-width:0.99211;stroke-linecap:butt;stroke-linejoin:round;stroke-miterlimit:10;stroke-dasharray:none;stroke-opacity:1"
         id="path9787" />
    </g>
    <g
       id="g9789">
      <text
         xml:space="preserve"
         transform="matrix(1,0,0,-1,287.802,258.746)"
         style="font-variant:normal;font-weight:normal;font-size:21.997px;font-family:'Liberation Sans';-inkscape-font-specification:LiberationSans;writing-mode:lr-tb;fill:#dee6ef;fill-opacity:1;fill-rule:nonzero;stroke:none"
         id="text9793"><tspan
           x="0 14.606008 20.699177 36.581013 42.674179 58.468025 70.742355 82.950684 89.043854 96.346863 108.62119 113.50452 118.38786 130.59619"
           y="0"
           sodipodi:role="line"
           id="tspan9791">PID Controller</tspan></text>
    </g>
    <path
       d="m 616.677,244.573 h -68.4 v 43.2 h 136.8 v -43.2 z"
       style="fill:#5983b0;fill-opacity:1;fill-rule:evenodd;stroke:none"
       id="path9795"
       clip-path="url(#clipPath11629)" />
    <g
       id="g9797"
       clip-path="url(#clipPath11623)">
      <path
         d="m 616.677,244.573 h -68.4 v 43.2 h 136.8 v -43.2 z"
         style="fill:none;stroke:#b4c7dc;stroke-width:0.99211;stroke-linecap:butt;stroke-linejoin:round;stroke-miterlimit:10;stroke-dasharray:none;stroke-opacity:1"
         id="path9799" />
    </g>
    <g
       id="g9801">
      <text
         xml:space="preserve"
         transform="matrix(1,0,0,-1,552.898,259.965)"
         style="font-variant:normal;font-weight:normal;font-size:18px;font-family:'Liberation Sans';-inkscape-font-specification:LiberationSans;writing-mode:lr-tb;fill:#dee6ef;fill-opacity:1;fill-rule:nonzero;stroke:none"
         id="text9805"><tspan
           x="0 14.994 24.893999 29.969999 39.869999 45.863998 50.939999 55.548 60.624001 72.612 82.620003 91.512001 101.52 111.528 121.428"
           y="0"
           sodipodi:role="line"
           id="tspan9803">Motor | Encoder</tspan></text>
    </g>
    <path
       d="m 244.602,266.399 h 19.304"
       style="fill:none;stroke:#3465a4;stroke-width:0.75;stroke-linecap:butt;stroke-linejoin:miter;stroke-miterlimit:10;stroke-dasharray:none;stroke-opacity:1"
       id="path9807"
       clip-path="url(#clipPath11617)" />
    <path
       d="m 272.041,266.399 -8.504,2.835 v -5.669 z"
       style="fill:#3465a4;fill-opacity:1;fill-rule:evenodd;stroke:none"
       id="path9809"
       clip-path="url(#clipPath11611)" />
    <path
       d="m 685.077,266.456 70.129,-0.057"
       style="fill:none;stroke:#3465a4;stroke-width:0.75;stroke-linecap:butt;stroke-linejoin:miter;stroke-miterlimit:10;stroke-dasharray:none;stroke-opacity:1"
       id="path9811"
       clip-path="url(#clipPath11605)" />
    <path
       d="m 763.342,266.399 -8.504,2.835 v -5.669 z"
       style="fill:#3465a4;fill-opacity:1;fill-rule:evenodd;stroke:none"
       id="path9813"
       clip-path="url(#clipPath11599)" />
    <g
       id="g9815"
       clip-path="url(#clipPath11593)">
      <path
         d="m 715.776,266.399 0.199,-79.426"
         style="fill:none;stroke:#3465a4;stroke-width:0.75;stroke-linecap:butt;stroke-linejoin:round;stroke-miterlimit:10;stroke-dasharray:none;stroke-opacity:1"
         id="path9817" />
    </g>
    <path
       d="M 243.241,251.064 V 187.199"
       style="fill:none;stroke:#3465a4;stroke-width:0.75;stroke-linecap:butt;stroke-linejoin:miter;stroke-miterlimit:10;stroke-dasharray:none;stroke-opacity:1"
       id="path9819"
       clip-path="url(#clipPath11587)" />
    <path
       d="m 243.241,259.199 -2.835,-8.504 h 5.67 z"
       style="fill:#3465a4;fill-opacity:1;fill-rule:evenodd;stroke:none"
       id="path9821"
       clip-path="url(#clipPath11581)" />
    <g
       id="g9823"
       clip-path="url(#clipPath11575)">
      <path
         d="m 243.241,187.199 472.734,-0.226"
         style="fill:none;stroke:#3465a4;stroke-width:0.75;stroke-linecap:butt;stroke-linejoin:round;stroke-miterlimit:10;stroke-dasharray:none;stroke-opacity:1"
         id="path9825" />
    </g>
    <g
       id="g9827">
      <text
         xml:space="preserve"
         transform="matrix(1,0,0,-1,251.688,239.357)"
         style="font-variant:normal;font-weight:normal;font-size:25.994px;font-family:'Liberation Sans';-inkscape-font-specification:LiberationSans;writing-mode:lr-tb;fill:#5983b0;fill-opacity:1;fill-rule:nonzero;stroke:none"
         id="text9831"><tspan
           x="0"
           y="0"
           id="tspan9829">-</tspan></text>
    </g>
    <path
       d="m 250.469,266.399 c 0,-1.275 -0.34,-2.523 -0.963,-3.628 -0.624,-1.077 -1.56,-2.013 -2.637,-2.636 -1.105,-0.624 -2.352,-0.964 -3.6,-0.964 -1.275,0 -2.523,0.34 -3.628,0.964 -1.077,0.623 -2.013,1.559 -2.636,2.636 -0.624,1.105 -0.964,2.353 -0.964,3.628 0,1.248 0.34,2.495 0.964,3.6 0.623,1.077 1.559,2.013 2.636,2.637 1.105,0.623 2.353,0.963 3.628,0.963 1.248,0 2.495,-0.34 3.6,-0.963 1.077,-0.624 2.013,-1.56 2.637,-2.637 0.623,-1.105 0.963,-2.352 0.963,-3.6 z"
       style="fill:#729fcf;fill-opacity:1;fill-rule:evenodd;stroke:none"
       id="path9833"
       clip-path="url(#clipPath11569)" />
    <g
       id="g9835"
       clip-path="url(#clipPath11563)">
      <path
         d="m 250.469,266.399 c 0,-1.275 -0.34,-2.523 -0.963,-3.628 -0.624,-1.077 -1.56,-2.013 -2.637,-2.636 -1.105,-0.624 -2.352,-0.964 -3.6,-0.964 -1.275,0 -2.523,0.34 -3.628,0.964 -1.077,0.623 -2.013,1.559 -2.636,2.636 -0.624,1.105 -0.964,2.353 -0.964,3.628 0,1.248 0.34,2.495 0.964,3.6 0.623,1.077 1.559,2.013 2.636,2.637 1.105,0.623 2.353,0.963 3.628,0.963 1.248,0 2.495,-0.34 3.6,-0.963 1.077,-0.624 2.013,-1.56 2.637,-2.637 0.623,-1.105 0.963,-2.352 0.963,-3.6 z"
         style="fill:none;stroke:#3465a4;stroke-width:0.75;stroke-linecap:butt;stroke-linejoin:round;stroke-miterlimit:10;stroke-dasharray:none;stroke-opacity:1"
         id="path9837" />
    </g>
    <g
       id="g9839">
      <text
         xml:space="preserve"
         transform="matrix(1,0,0,-1,236.806,258.746)"
         style="font-variant:normal;font-weight:normal;font-size:21.997px;font-family:'Liberation Sans';-inkscape-font-specification:LiberationSans;writing-mode:lr-tb;fill:#dee6ef;fill-opacity:1;fill-rule:nonzero;stroke:none"
         id="text9843"><tspan
           x="0"
           y="0"
           id="tspan9841">+</tspan></text>
    </g>
    <path
       d="M 227.906,266.399 H 128.041"
       style="fill:none;stroke:#3465a4;stroke-width:0.75;stroke-linecap:butt;stroke-linejoin:miter;stroke-miterlimit:10;stroke-dasharray:none;stroke-opacity:1"
       id="path9845"
       clip-path="url(#clipPath11557)" />
    <path
       d="m 236.041,266.399 -8.504,2.835 v -5.669 z"
       style="fill:#3465a4;fill-opacity:1;fill-rule:evenodd;stroke:none"
       id="path9847"
       clip-path="url(#clipPath11551)" />
    <g
       id="g9849">
      <text
         xml:space="preserve"
         transform="matrix(1,0,0,-1,127.899,270.651)"
         style="font-variant:normal;font-weight:normal;font-size:11.991px;font-family:'Liberation Sans';-inkscape-font-specification:LiberationSans;writing-mode:lr-tb;fill:#5983b0;fill-opacity:1;fill-rule:nonzero;stroke:none"
         id="text9853"><tspan
           x="0 8.5975466 15.276534 18.657995 25.336983 29.234058 36.020966 42.699951 48.69545 55.374439 58.755901 65.434891 72.113876 78.109375 80.795357 84.09288 86.694931 93.481834"
           y="0"
           sodipodi:role="line"
           id="tspan9851">Reference position</tspan></text>
    </g>
    <g
       id="g9855">
      <text
         xml:space="preserve"
         transform="matrix(1,0,0,-1,707.896,271.162)"
         style="font-variant:normal;font-weight:normal;font-size:11.991px;font-family:'Liberation Sans';-inkscape-font-specification:LiberationSans;writing-mode:lr-tb;fill:#5983b0;fill-opacity:1;fill-rule:nonzero;stroke:none"
         id="text9859"><tspan
           x="0 7.9860058 14.664993 20.660494 23.346478 26.644003 29.329987 36.008972"
           y="0"
           sodipodi:role="line"
           id="tspan9857">Position</tspan></text>
    </g>
    <path
       d="M 539.717,266.399 H 439.852"
       style="fill:none;stroke:#3465a4;stroke-width:0.75;stroke-linecap:butt;stroke-linejoin:miter;stroke-miterlimit:10;stroke-dasharray:none;stroke-opacity:1"
       id="path9861"
       clip-path="url(#clipPath11545)" />
    <path
       d="m 547.852,266.399 -8.504,2.835 v -5.669 z"
       style="fill:#3465a4;fill-opacity:1;fill-rule:evenodd;stroke:none"
       id="path9863"
       clip-path="url(#clipPath11539)" />
    <g
       id="g9865">
      <text
         xml:space="preserve"
         transform="matrix(1,0,0,-1,456.803,270.651)"
         style="font-variant:normal;font-weight:normal;font-size:11.991px;font-family:'Liberation Sans';-inkscape-font-specification:LiberationSans;writing-mode:lr-tb;fill:#5983b0;fill-opacity:1;fill-rule:nonzero;stroke:none"
         id="text9869"><tspan
           x="0 8.5975466 15.384453 22.06344 25.360966 29.353968 36.032955 38.635002 42.016464 48.011963 50.697948 57.376934 64.055923 70.734909"
           y="0"
           sodipodi:role="line"
           id="tspan9867">Control signal</tspan></text>
    </g>
  </g>
</svg>
