%TF.GenerationSoftware,KiCad,Pcbnew,7.0.6-7.0.6~ubuntu22.04.1*%
%TF.CreationDate,2023-07-08T17:10:22+02:00*%
%TF.ProjectId,combined,636f6d62-696e-4656-942e-6b696361645f,rev?*%
%TF.SameCoordinates,Original*%
%TF.FileFunction,Drillmap*%
%TF.FilePolarity,Positive*%
%FSLAX45Y45*%
G04 Gerber Fmt 4.5, Leading zero omitted, Abs format (unit mm)*
G04 Created by KiCad (PCBNEW 7.0.6-7.0.6~ubuntu22.04.1) date 2023-07-08 17:10:22*
%MOMM*%
%LPD*%
G01*
G04 APERTURE LIST*
%ADD10C,0.050000*%
%ADD11C,0.200000*%
%ADD12C,0.040000*%
%ADD13C,0.055000*%
%ADD14C,0.070000*%
%ADD15C,0.080000*%
%ADD16C,0.250000*%
G04 APERTURE END LIST*
D10*
X11000000Y-2375000D02*
X11000000Y-2495000D01*
X8100000Y-4375000D02*
X8100000Y-4250000D01*
X11350000Y-3900000D02*
X11350000Y-2850000D01*
X11000000Y-4250000D02*
X11000000Y-4375000D01*
X11350000Y-3900000D02*
G75*
G03*
X11000000Y-4250000I0J-350000D01*
G01*
X7750000Y-2850000D02*
G75*
G03*
X8099964Y-2495001I0J350000D01*
G01*
X8100000Y-2375000D02*
X11000000Y-2375000D01*
X8100000Y-4250000D02*
G75*
G03*
X7750000Y-3900000I-350000J0D01*
G01*
X10999996Y-2494964D02*
G75*
G03*
X11350000Y-2850000I350004J-4996D01*
G01*
X8099964Y-2495001D02*
X8100000Y-2375000D01*
X7750000Y-2850000D02*
X7750000Y-3900000D01*
X11000000Y-4375000D02*
X8100000Y-4375000D01*
D11*
D12*
X8278490Y-3244816D02*
X8318490Y-3284816D01*
X8318490Y-3244816D02*
X8278490Y-3284816D01*
X8306338Y-3140345D02*
X8346338Y-3180345D01*
X8346338Y-3140345D02*
X8306338Y-3180345D01*
X8621080Y-3500440D02*
X8661080Y-3540440D01*
X8661080Y-3500440D02*
X8621080Y-3540440D01*
X8705000Y-3230000D02*
X8745000Y-3270000D01*
X8745000Y-3230000D02*
X8705000Y-3270000D01*
X8755000Y-3330000D02*
X8795000Y-3370000D01*
X8795000Y-3330000D02*
X8755000Y-3370000D01*
X8780000Y-2855000D02*
X8820000Y-2895000D01*
X8820000Y-2855000D02*
X8780000Y-2895000D01*
X8793800Y-3688400D02*
X8833800Y-3728400D01*
X8833800Y-3688400D02*
X8793800Y-3728400D01*
X8855003Y-3330000D02*
X8895003Y-3370000D01*
X8895003Y-3330000D02*
X8855003Y-3370000D01*
X8905000Y-2855000D02*
X8945000Y-2895000D01*
X8945000Y-2855000D02*
X8905000Y-2895000D01*
X9005002Y-3055000D02*
X9045002Y-3095000D01*
X9045002Y-3055000D02*
X9005002Y-3095000D01*
X9080000Y-3780003D02*
X9120000Y-3820003D01*
X9120000Y-3780003D02*
X9080000Y-3820003D01*
X9152500Y-3707500D02*
X9192500Y-3747500D01*
X9192500Y-3707500D02*
X9152500Y-3747500D01*
X9205000Y-2912500D02*
X9245000Y-2952500D01*
X9245000Y-2912500D02*
X9205000Y-2952500D01*
X9230000Y-3255000D02*
X9270000Y-3295000D01*
X9270000Y-3255000D02*
X9230000Y-3295000D01*
X9331489Y-3617985D02*
X9371489Y-3657985D01*
X9371489Y-3617985D02*
X9331489Y-3657985D01*
X9423720Y-4138760D02*
X9463720Y-4178760D01*
X9463720Y-4138760D02*
X9423720Y-4178760D01*
X9429674Y-3503911D02*
X9469674Y-3543911D01*
X9469674Y-3503911D02*
X9429674Y-3543911D01*
X9458372Y-3599706D02*
X9498372Y-3639706D01*
X9498372Y-3599706D02*
X9458372Y-3639706D01*
X9574950Y-2920287D02*
X9614950Y-2960287D01*
X9614950Y-2920287D02*
X9574950Y-2960287D01*
X9680526Y-3477048D02*
X9720526Y-3517048D01*
X9720526Y-3477048D02*
X9680526Y-3517048D01*
X10267000Y-3358200D02*
X10307000Y-3398200D01*
X10307000Y-3358200D02*
X10267000Y-3398200D01*
D10*
X7920000Y-3025000D02*
G75*
G03*
X7920000Y-3025000I-25000J0D01*
G01*
D11*
X7927500Y-3000000D02*
X7862500Y-3000000D01*
X7862500Y-3000000D02*
G75*
G03*
X7862500Y-3050000I0J-25000D01*
G01*
X7862500Y-3050000D02*
X7927500Y-3050000D01*
X7927500Y-3050000D02*
G75*
G03*
X7927500Y-3000000I0J25000D01*
G01*
D10*
X7920000Y-3725000D02*
G75*
G03*
X7920000Y-3725000I-25000J0D01*
G01*
D11*
X7927500Y-3700000D02*
X7862500Y-3700000D01*
X7862500Y-3700000D02*
G75*
G03*
X7862500Y-3750000I0J-25000D01*
G01*
X7862500Y-3750000D02*
X7927500Y-3750000D01*
X7927500Y-3750000D02*
G75*
G03*
X7927500Y-3700000I0J25000D01*
G01*
D13*
X8165000Y-3097500D02*
X8165000Y-3152500D01*
X8137500Y-3125000D02*
X8192500Y-3125000D01*
D11*
X8137500Y-3110000D02*
X8137500Y-3140000D01*
X8137500Y-3140000D02*
G75*
G03*
X8192500Y-3140000I27500J0D01*
G01*
X8192500Y-3140000D02*
X8192500Y-3110000D01*
X8192500Y-3110000D02*
G75*
G03*
X8137500Y-3110000I-27500J0D01*
G01*
D13*
X8165000Y-3597500D02*
X8165000Y-3652500D01*
X8137500Y-3625000D02*
X8192500Y-3625000D01*
D11*
X8137500Y-3610000D02*
X8137500Y-3640000D01*
X8137500Y-3640000D02*
G75*
G03*
X8192500Y-3640000I27500J0D01*
G01*
X8192500Y-3640000D02*
X8192500Y-3610000D01*
X8192500Y-3610000D02*
G75*
G03*
X8137500Y-3610000I-27500J0D01*
G01*
D14*
X9847470Y-3947470D02*
X9847470Y-3897972D01*
X9797972Y-3897972D01*
X9797972Y-3947470D01*
X9847470Y-3947470D01*
X9849749Y-2849749D02*
X9849749Y-2800251D01*
X9800251Y-2800251D01*
X9800251Y-2849749D01*
X9849749Y-2849749D01*
X9956149Y-3364849D02*
X9956149Y-3315351D01*
X9906651Y-3315351D01*
X9906651Y-3364849D01*
X9956149Y-3364849D01*
X9974749Y-4074749D02*
X9974749Y-4025251D01*
X9925251Y-4025251D01*
X9925251Y-4074749D01*
X9974749Y-4074749D01*
X9977028Y-2722470D02*
X9977028Y-2672972D01*
X9927530Y-2672972D01*
X9927530Y-2722470D01*
X9977028Y-2722470D01*
X10130313Y-3664627D02*
X10130313Y-3615129D01*
X10080815Y-3615129D01*
X10080815Y-3664627D01*
X10130313Y-3664627D01*
X10132592Y-3132592D02*
X10132592Y-3083094D01*
X10083094Y-3083094D01*
X10083094Y-3132592D01*
X10132592Y-3132592D01*
X10257592Y-3791906D02*
X10257592Y-3742408D01*
X10208094Y-3742408D01*
X10208094Y-3791906D01*
X10257592Y-3791906D01*
X10259871Y-3005312D02*
X10259871Y-2955814D01*
X10210373Y-2955814D01*
X10210373Y-3005312D01*
X10259871Y-3005312D01*
D15*
X8355977Y-4136514D02*
X8395977Y-4096514D01*
X8355977Y-4056514D01*
X8315977Y-4096514D01*
X8355977Y-4136514D01*
X10800080Y-3723000D02*
X10840080Y-3683000D01*
X10800080Y-3643000D01*
X10760080Y-3683000D01*
X10800080Y-3723000D01*
X10947400Y-3916040D02*
X10987400Y-3876040D01*
X10947400Y-3836040D01*
X10907400Y-3876040D01*
X10947400Y-3916040D01*
X10950000Y-3215000D02*
X10990000Y-3175000D01*
X10950000Y-3135000D01*
X10910000Y-3175000D01*
X10950000Y-3215000D01*
D16*
X10375000Y-2600000D02*
X10625000Y-2850000D01*
X10625000Y-2600000D02*
X10375000Y-2850000D01*
X10625000Y-2725000D02*
G75*
G03*
X10625000Y-2725000I-125000J0D01*
G01*
X10375000Y-3900000D02*
X10625000Y-4150000D01*
X10625000Y-3900000D02*
X10375000Y-4150000D01*
X10625000Y-4025000D02*
G75*
G03*
X10625000Y-4025000I-125000J0D01*
G01*
D11*
X8008277Y-4688984D02*
X8008277Y-4488984D01*
X8008277Y-4488984D02*
X8055896Y-4488984D01*
X8055896Y-4488984D02*
X8084467Y-4498508D01*
X8084467Y-4498508D02*
X8103515Y-4517555D01*
X8103515Y-4517555D02*
X8113039Y-4536603D01*
X8113039Y-4536603D02*
X8122562Y-4574698D01*
X8122562Y-4574698D02*
X8122562Y-4603270D01*
X8122562Y-4603270D02*
X8113039Y-4641365D01*
X8113039Y-4641365D02*
X8103515Y-4660412D01*
X8103515Y-4660412D02*
X8084467Y-4679460D01*
X8084467Y-4679460D02*
X8055896Y-4688984D01*
X8055896Y-4688984D02*
X8008277Y-4688984D01*
X8208277Y-4688984D02*
X8208277Y-4555650D01*
X8208277Y-4593746D02*
X8217801Y-4574698D01*
X8217801Y-4574698D02*
X8227324Y-4565174D01*
X8227324Y-4565174D02*
X8246372Y-4555650D01*
X8246372Y-4555650D02*
X8265420Y-4555650D01*
X8332086Y-4688984D02*
X8332086Y-4555650D01*
X8332086Y-4488984D02*
X8322562Y-4498508D01*
X8322562Y-4498508D02*
X8332086Y-4508031D01*
X8332086Y-4508031D02*
X8341610Y-4498508D01*
X8341610Y-4498508D02*
X8332086Y-4488984D01*
X8332086Y-4488984D02*
X8332086Y-4508031D01*
X8455896Y-4688984D02*
X8436848Y-4679460D01*
X8436848Y-4679460D02*
X8427324Y-4660412D01*
X8427324Y-4660412D02*
X8427324Y-4488984D01*
X8560658Y-4688984D02*
X8541610Y-4679460D01*
X8541610Y-4679460D02*
X8532086Y-4660412D01*
X8532086Y-4660412D02*
X8532086Y-4488984D01*
X8789229Y-4688984D02*
X8789229Y-4488984D01*
X8789229Y-4488984D02*
X8855896Y-4631841D01*
X8855896Y-4631841D02*
X8922563Y-4488984D01*
X8922563Y-4488984D02*
X8922563Y-4688984D01*
X9103515Y-4688984D02*
X9103515Y-4584222D01*
X9103515Y-4584222D02*
X9093991Y-4565174D01*
X9093991Y-4565174D02*
X9074944Y-4555650D01*
X9074944Y-4555650D02*
X9036848Y-4555650D01*
X9036848Y-4555650D02*
X9017801Y-4565174D01*
X9103515Y-4679460D02*
X9084467Y-4688984D01*
X9084467Y-4688984D02*
X9036848Y-4688984D01*
X9036848Y-4688984D02*
X9017801Y-4679460D01*
X9017801Y-4679460D02*
X9008277Y-4660412D01*
X9008277Y-4660412D02*
X9008277Y-4641365D01*
X9008277Y-4641365D02*
X9017801Y-4622317D01*
X9017801Y-4622317D02*
X9036848Y-4612793D01*
X9036848Y-4612793D02*
X9084467Y-4612793D01*
X9084467Y-4612793D02*
X9103515Y-4603270D01*
X9198753Y-4555650D02*
X9198753Y-4755650D01*
X9198753Y-4565174D02*
X9217801Y-4555650D01*
X9217801Y-4555650D02*
X9255896Y-4555650D01*
X9255896Y-4555650D02*
X9274944Y-4565174D01*
X9274944Y-4565174D02*
X9284467Y-4574698D01*
X9284467Y-4574698D02*
X9293991Y-4593746D01*
X9293991Y-4593746D02*
X9293991Y-4650889D01*
X9293991Y-4650889D02*
X9284467Y-4669936D01*
X9284467Y-4669936D02*
X9274944Y-4679460D01*
X9274944Y-4679460D02*
X9255896Y-4688984D01*
X9255896Y-4688984D02*
X9217801Y-4688984D01*
X9217801Y-4688984D02*
X9198753Y-4679460D01*
X9379705Y-4669936D02*
X9389229Y-4679460D01*
X9389229Y-4679460D02*
X9379705Y-4688984D01*
X9379705Y-4688984D02*
X9370182Y-4679460D01*
X9370182Y-4679460D02*
X9379705Y-4669936D01*
X9379705Y-4669936D02*
X9379705Y-4688984D01*
X9379705Y-4565174D02*
X9389229Y-4574698D01*
X9389229Y-4574698D02*
X9379705Y-4584222D01*
X9379705Y-4584222D02*
X9370182Y-4574698D01*
X9370182Y-4574698D02*
X9379705Y-4565174D01*
X9379705Y-4565174D02*
X9379705Y-4584222D01*
D12*
X7707500Y-4997500D02*
X7747500Y-5037500D01*
X7747500Y-4997500D02*
X7707500Y-5037500D01*
D11*
X8046372Y-4908984D02*
X8065420Y-4908984D01*
X8065420Y-4908984D02*
X8084467Y-4918508D01*
X8084467Y-4918508D02*
X8093991Y-4928031D01*
X8093991Y-4928031D02*
X8103515Y-4947079D01*
X8103515Y-4947079D02*
X8113039Y-4985174D01*
X8113039Y-4985174D02*
X8113039Y-5032793D01*
X8113039Y-5032793D02*
X8103515Y-5070889D01*
X8103515Y-5070889D02*
X8093991Y-5089936D01*
X8093991Y-5089936D02*
X8084467Y-5099460D01*
X8084467Y-5099460D02*
X8065420Y-5108984D01*
X8065420Y-5108984D02*
X8046372Y-5108984D01*
X8046372Y-5108984D02*
X8027324Y-5099460D01*
X8027324Y-5099460D02*
X8017801Y-5089936D01*
X8017801Y-5089936D02*
X8008277Y-5070889D01*
X8008277Y-5070889D02*
X7998753Y-5032793D01*
X7998753Y-5032793D02*
X7998753Y-4985174D01*
X7998753Y-4985174D02*
X8008277Y-4947079D01*
X8008277Y-4947079D02*
X8017801Y-4928031D01*
X8017801Y-4928031D02*
X8027324Y-4918508D01*
X8027324Y-4918508D02*
X8046372Y-4908984D01*
X8198753Y-5089936D02*
X8208277Y-5099460D01*
X8208277Y-5099460D02*
X8198753Y-5108984D01*
X8198753Y-5108984D02*
X8189229Y-5099460D01*
X8189229Y-5099460D02*
X8198753Y-5089936D01*
X8198753Y-5089936D02*
X8198753Y-5108984D01*
X8379705Y-4975650D02*
X8379705Y-5108984D01*
X8332086Y-4899460D02*
X8284467Y-5042317D01*
X8284467Y-5042317D02*
X8408277Y-5042317D01*
X8522563Y-4908984D02*
X8541610Y-4908984D01*
X8541610Y-4908984D02*
X8560658Y-4918508D01*
X8560658Y-4918508D02*
X8570182Y-4928031D01*
X8570182Y-4928031D02*
X8579705Y-4947079D01*
X8579705Y-4947079D02*
X8589229Y-4985174D01*
X8589229Y-4985174D02*
X8589229Y-5032793D01*
X8589229Y-5032793D02*
X8579705Y-5070889D01*
X8579705Y-5070889D02*
X8570182Y-5089936D01*
X8570182Y-5089936D02*
X8560658Y-5099460D01*
X8560658Y-5099460D02*
X8541610Y-5108984D01*
X8541610Y-5108984D02*
X8522563Y-5108984D01*
X8522563Y-5108984D02*
X8503515Y-5099460D01*
X8503515Y-5099460D02*
X8493991Y-5089936D01*
X8493991Y-5089936D02*
X8484467Y-5070889D01*
X8484467Y-5070889D02*
X8474944Y-5032793D01*
X8474944Y-5032793D02*
X8474944Y-4985174D01*
X8474944Y-4985174D02*
X8484467Y-4947079D01*
X8484467Y-4947079D02*
X8493991Y-4928031D01*
X8493991Y-4928031D02*
X8503515Y-4918508D01*
X8503515Y-4918508D02*
X8522563Y-4908984D01*
X8713039Y-4908984D02*
X8732086Y-4908984D01*
X8732086Y-4908984D02*
X8751134Y-4918508D01*
X8751134Y-4918508D02*
X8760658Y-4928031D01*
X8760658Y-4928031D02*
X8770182Y-4947079D01*
X8770182Y-4947079D02*
X8779705Y-4985174D01*
X8779705Y-4985174D02*
X8779705Y-5032793D01*
X8779705Y-5032793D02*
X8770182Y-5070889D01*
X8770182Y-5070889D02*
X8760658Y-5089936D01*
X8760658Y-5089936D02*
X8751134Y-5099460D01*
X8751134Y-5099460D02*
X8732086Y-5108984D01*
X8732086Y-5108984D02*
X8713039Y-5108984D01*
X8713039Y-5108984D02*
X8693991Y-5099460D01*
X8693991Y-5099460D02*
X8684467Y-5089936D01*
X8684467Y-5089936D02*
X8674944Y-5070889D01*
X8674944Y-5070889D02*
X8665420Y-5032793D01*
X8665420Y-5032793D02*
X8665420Y-4985174D01*
X8665420Y-4985174D02*
X8674944Y-4947079D01*
X8674944Y-4947079D02*
X8684467Y-4928031D01*
X8684467Y-4928031D02*
X8693991Y-4918508D01*
X8693991Y-4918508D02*
X8713039Y-4908984D01*
X8865420Y-5108984D02*
X8865420Y-4975650D01*
X8865420Y-4994698D02*
X8874944Y-4985174D01*
X8874944Y-4985174D02*
X8893991Y-4975650D01*
X8893991Y-4975650D02*
X8922563Y-4975650D01*
X8922563Y-4975650D02*
X8941610Y-4985174D01*
X8941610Y-4985174D02*
X8951134Y-5004222D01*
X8951134Y-5004222D02*
X8951134Y-5108984D01*
X8951134Y-5004222D02*
X8960658Y-4985174D01*
X8960658Y-4985174D02*
X8979705Y-4975650D01*
X8979705Y-4975650D02*
X9008277Y-4975650D01*
X9008277Y-4975650D02*
X9027325Y-4985174D01*
X9027325Y-4985174D02*
X9036848Y-5004222D01*
X9036848Y-5004222D02*
X9036848Y-5108984D01*
X9132086Y-5108984D02*
X9132086Y-4975650D01*
X9132086Y-4994698D02*
X9141610Y-4985174D01*
X9141610Y-4985174D02*
X9160658Y-4975650D01*
X9160658Y-4975650D02*
X9189229Y-4975650D01*
X9189229Y-4975650D02*
X9208277Y-4985174D01*
X9208277Y-4985174D02*
X9217801Y-5004222D01*
X9217801Y-5004222D02*
X9217801Y-5108984D01*
X9217801Y-5004222D02*
X9227325Y-4985174D01*
X9227325Y-4985174D02*
X9246372Y-4975650D01*
X9246372Y-4975650D02*
X9274944Y-4975650D01*
X9274944Y-4975650D02*
X9293991Y-4985174D01*
X9293991Y-4985174D02*
X9303515Y-5004222D01*
X9303515Y-5004222D02*
X9303515Y-5108984D01*
X9693991Y-4899460D02*
X9522563Y-5156603D01*
X9951134Y-4908984D02*
X9970182Y-4908984D01*
X9970182Y-4908984D02*
X9989229Y-4918508D01*
X9989229Y-4918508D02*
X9998753Y-4928031D01*
X9998753Y-4928031D02*
X10008277Y-4947079D01*
X10008277Y-4947079D02*
X10017801Y-4985174D01*
X10017801Y-4985174D02*
X10017801Y-5032793D01*
X10017801Y-5032793D02*
X10008277Y-5070889D01*
X10008277Y-5070889D02*
X9998753Y-5089936D01*
X9998753Y-5089936D02*
X9989229Y-5099460D01*
X9989229Y-5099460D02*
X9970182Y-5108984D01*
X9970182Y-5108984D02*
X9951134Y-5108984D01*
X9951134Y-5108984D02*
X9932087Y-5099460D01*
X9932087Y-5099460D02*
X9922563Y-5089936D01*
X9922563Y-5089936D02*
X9913039Y-5070889D01*
X9913039Y-5070889D02*
X9903515Y-5032793D01*
X9903515Y-5032793D02*
X9903515Y-4985174D01*
X9903515Y-4985174D02*
X9913039Y-4947079D01*
X9913039Y-4947079D02*
X9922563Y-4928031D01*
X9922563Y-4928031D02*
X9932087Y-4918508D01*
X9932087Y-4918508D02*
X9951134Y-4908984D01*
X10103515Y-5089936D02*
X10113039Y-5099460D01*
X10113039Y-5099460D02*
X10103515Y-5108984D01*
X10103515Y-5108984D02*
X10093991Y-5099460D01*
X10093991Y-5099460D02*
X10103515Y-5089936D01*
X10103515Y-5089936D02*
X10103515Y-5108984D01*
X10236848Y-4908984D02*
X10255896Y-4908984D01*
X10255896Y-4908984D02*
X10274944Y-4918508D01*
X10274944Y-4918508D02*
X10284468Y-4928031D01*
X10284468Y-4928031D02*
X10293991Y-4947079D01*
X10293991Y-4947079D02*
X10303515Y-4985174D01*
X10303515Y-4985174D02*
X10303515Y-5032793D01*
X10303515Y-5032793D02*
X10293991Y-5070889D01*
X10293991Y-5070889D02*
X10284468Y-5089936D01*
X10284468Y-5089936D02*
X10274944Y-5099460D01*
X10274944Y-5099460D02*
X10255896Y-5108984D01*
X10255896Y-5108984D02*
X10236848Y-5108984D01*
X10236848Y-5108984D02*
X10217801Y-5099460D01*
X10217801Y-5099460D02*
X10208277Y-5089936D01*
X10208277Y-5089936D02*
X10198753Y-5070889D01*
X10198753Y-5070889D02*
X10189229Y-5032793D01*
X10189229Y-5032793D02*
X10189229Y-4985174D01*
X10189229Y-4985174D02*
X10198753Y-4947079D01*
X10198753Y-4947079D02*
X10208277Y-4928031D01*
X10208277Y-4928031D02*
X10217801Y-4918508D01*
X10217801Y-4918508D02*
X10236848Y-4908984D01*
X10493991Y-5108984D02*
X10379706Y-5108984D01*
X10436848Y-5108984D02*
X10436848Y-4908984D01*
X10436848Y-4908984D02*
X10417801Y-4937555D01*
X10417801Y-4937555D02*
X10398753Y-4956603D01*
X10398753Y-4956603D02*
X10379706Y-4966127D01*
X10674944Y-4908984D02*
X10579706Y-4908984D01*
X10579706Y-4908984D02*
X10570182Y-5004222D01*
X10570182Y-5004222D02*
X10579706Y-4994698D01*
X10579706Y-4994698D02*
X10598753Y-4985174D01*
X10598753Y-4985174D02*
X10646372Y-4985174D01*
X10646372Y-4985174D02*
X10665420Y-4994698D01*
X10665420Y-4994698D02*
X10674944Y-5004222D01*
X10674944Y-5004222D02*
X10684468Y-5023270D01*
X10684468Y-5023270D02*
X10684468Y-5070889D01*
X10684468Y-5070889D02*
X10674944Y-5089936D01*
X10674944Y-5089936D02*
X10665420Y-5099460D01*
X10665420Y-5099460D02*
X10646372Y-5108984D01*
X10646372Y-5108984D02*
X10598753Y-5108984D01*
X10598753Y-5108984D02*
X10579706Y-5099460D01*
X10579706Y-5099460D02*
X10570182Y-5089936D01*
X10751134Y-4908984D02*
X10884468Y-4908984D01*
X10884468Y-4908984D02*
X10798753Y-5108984D01*
X10951134Y-4908984D02*
X10951134Y-4947079D01*
X11027325Y-4908984D02*
X11027325Y-4947079D01*
X11322563Y-5185174D02*
X11313039Y-5175650D01*
X11313039Y-5175650D02*
X11293991Y-5147079D01*
X11293991Y-5147079D02*
X11284468Y-5128031D01*
X11284468Y-5128031D02*
X11274944Y-5099460D01*
X11274944Y-5099460D02*
X11265420Y-5051841D01*
X11265420Y-5051841D02*
X11265420Y-5013746D01*
X11265420Y-5013746D02*
X11274944Y-4966127D01*
X11274944Y-4966127D02*
X11284468Y-4937555D01*
X11284468Y-4937555D02*
X11293991Y-4918508D01*
X11293991Y-4918508D02*
X11313039Y-4889936D01*
X11313039Y-4889936D02*
X11322563Y-4880412D01*
X11389229Y-4928031D02*
X11398753Y-4918508D01*
X11398753Y-4918508D02*
X11417801Y-4908984D01*
X11417801Y-4908984D02*
X11465420Y-4908984D01*
X11465420Y-4908984D02*
X11484468Y-4918508D01*
X11484468Y-4918508D02*
X11493991Y-4928031D01*
X11493991Y-4928031D02*
X11503515Y-4947079D01*
X11503515Y-4947079D02*
X11503515Y-4966127D01*
X11503515Y-4966127D02*
X11493991Y-4994698D01*
X11493991Y-4994698D02*
X11379706Y-5108984D01*
X11379706Y-5108984D02*
X11503515Y-5108984D01*
X11693991Y-5108984D02*
X11579706Y-5108984D01*
X11636848Y-5108984D02*
X11636848Y-4908984D01*
X11636848Y-4908984D02*
X11617801Y-4937555D01*
X11617801Y-4937555D02*
X11598753Y-4956603D01*
X11598753Y-4956603D02*
X11579706Y-4966127D01*
X11932087Y-5108984D02*
X11932087Y-4908984D01*
X12017801Y-5108984D02*
X12017801Y-5004222D01*
X12017801Y-5004222D02*
X12008277Y-4985174D01*
X12008277Y-4985174D02*
X11989230Y-4975650D01*
X11989230Y-4975650D02*
X11960658Y-4975650D01*
X11960658Y-4975650D02*
X11941610Y-4985174D01*
X11941610Y-4985174D02*
X11932087Y-4994698D01*
X12141610Y-5108984D02*
X12122563Y-5099460D01*
X12122563Y-5099460D02*
X12113039Y-5089936D01*
X12113039Y-5089936D02*
X12103515Y-5070889D01*
X12103515Y-5070889D02*
X12103515Y-5013746D01*
X12103515Y-5013746D02*
X12113039Y-4994698D01*
X12113039Y-4994698D02*
X12122563Y-4985174D01*
X12122563Y-4985174D02*
X12141610Y-4975650D01*
X12141610Y-4975650D02*
X12170182Y-4975650D01*
X12170182Y-4975650D02*
X12189230Y-4985174D01*
X12189230Y-4985174D02*
X12198753Y-4994698D01*
X12198753Y-4994698D02*
X12208277Y-5013746D01*
X12208277Y-5013746D02*
X12208277Y-5070889D01*
X12208277Y-5070889D02*
X12198753Y-5089936D01*
X12198753Y-5089936D02*
X12189230Y-5099460D01*
X12189230Y-5099460D02*
X12170182Y-5108984D01*
X12170182Y-5108984D02*
X12141610Y-5108984D01*
X12322563Y-5108984D02*
X12303515Y-5099460D01*
X12303515Y-5099460D02*
X12293991Y-5080412D01*
X12293991Y-5080412D02*
X12293991Y-4908984D01*
X12474944Y-5099460D02*
X12455896Y-5108984D01*
X12455896Y-5108984D02*
X12417801Y-5108984D01*
X12417801Y-5108984D02*
X12398753Y-5099460D01*
X12398753Y-5099460D02*
X12389230Y-5080412D01*
X12389230Y-5080412D02*
X12389230Y-5004222D01*
X12389230Y-5004222D02*
X12398753Y-4985174D01*
X12398753Y-4985174D02*
X12417801Y-4975650D01*
X12417801Y-4975650D02*
X12455896Y-4975650D01*
X12455896Y-4975650D02*
X12474944Y-4985174D01*
X12474944Y-4985174D02*
X12484468Y-5004222D01*
X12484468Y-5004222D02*
X12484468Y-5023270D01*
X12484468Y-5023270D02*
X12389230Y-5042317D01*
X12560658Y-5099460D02*
X12579706Y-5108984D01*
X12579706Y-5108984D02*
X12617801Y-5108984D01*
X12617801Y-5108984D02*
X12636849Y-5099460D01*
X12636849Y-5099460D02*
X12646372Y-5080412D01*
X12646372Y-5080412D02*
X12646372Y-5070889D01*
X12646372Y-5070889D02*
X12636849Y-5051841D01*
X12636849Y-5051841D02*
X12617801Y-5042317D01*
X12617801Y-5042317D02*
X12589230Y-5042317D01*
X12589230Y-5042317D02*
X12570182Y-5032793D01*
X12570182Y-5032793D02*
X12560658Y-5013746D01*
X12560658Y-5013746D02*
X12560658Y-5004222D01*
X12560658Y-5004222D02*
X12570182Y-4985174D01*
X12570182Y-4985174D02*
X12589230Y-4975650D01*
X12589230Y-4975650D02*
X12617801Y-4975650D01*
X12617801Y-4975650D02*
X12636849Y-4985174D01*
X12713039Y-5185174D02*
X12722563Y-5175650D01*
X12722563Y-5175650D02*
X12741611Y-5147079D01*
X12741611Y-5147079D02*
X12751134Y-5128031D01*
X12751134Y-5128031D02*
X12760658Y-5099460D01*
X12760658Y-5099460D02*
X12770182Y-5051841D01*
X12770182Y-5051841D02*
X12770182Y-5013746D01*
X12770182Y-5013746D02*
X12760658Y-4966127D01*
X12760658Y-4966127D02*
X12751134Y-4937555D01*
X12751134Y-4937555D02*
X12741611Y-4918508D01*
X12741611Y-4918508D02*
X12722563Y-4889936D01*
X12722563Y-4889936D02*
X12713039Y-4880412D01*
D10*
X7747500Y-5281500D02*
G75*
G03*
X7747500Y-5281500I-25000J0D01*
G01*
D11*
X8046372Y-5172984D02*
X8065420Y-5172984D01*
X8065420Y-5172984D02*
X8084467Y-5182508D01*
X8084467Y-5182508D02*
X8093991Y-5192031D01*
X8093991Y-5192031D02*
X8103515Y-5211079D01*
X8103515Y-5211079D02*
X8113039Y-5249174D01*
X8113039Y-5249174D02*
X8113039Y-5296793D01*
X8113039Y-5296793D02*
X8103515Y-5334889D01*
X8103515Y-5334889D02*
X8093991Y-5353936D01*
X8093991Y-5353936D02*
X8084467Y-5363460D01*
X8084467Y-5363460D02*
X8065420Y-5372984D01*
X8065420Y-5372984D02*
X8046372Y-5372984D01*
X8046372Y-5372984D02*
X8027324Y-5363460D01*
X8027324Y-5363460D02*
X8017801Y-5353936D01*
X8017801Y-5353936D02*
X8008277Y-5334889D01*
X8008277Y-5334889D02*
X7998753Y-5296793D01*
X7998753Y-5296793D02*
X7998753Y-5249174D01*
X7998753Y-5249174D02*
X8008277Y-5211079D01*
X8008277Y-5211079D02*
X8017801Y-5192031D01*
X8017801Y-5192031D02*
X8027324Y-5182508D01*
X8027324Y-5182508D02*
X8046372Y-5172984D01*
X8198753Y-5353936D02*
X8208277Y-5363460D01*
X8208277Y-5363460D02*
X8198753Y-5372984D01*
X8198753Y-5372984D02*
X8189229Y-5363460D01*
X8189229Y-5363460D02*
X8198753Y-5353936D01*
X8198753Y-5353936D02*
X8198753Y-5372984D01*
X8389229Y-5172984D02*
X8293991Y-5172984D01*
X8293991Y-5172984D02*
X8284467Y-5268222D01*
X8284467Y-5268222D02*
X8293991Y-5258698D01*
X8293991Y-5258698D02*
X8313039Y-5249174D01*
X8313039Y-5249174D02*
X8360658Y-5249174D01*
X8360658Y-5249174D02*
X8379705Y-5258698D01*
X8379705Y-5258698D02*
X8389229Y-5268222D01*
X8389229Y-5268222D02*
X8398753Y-5287270D01*
X8398753Y-5287270D02*
X8398753Y-5334889D01*
X8398753Y-5334889D02*
X8389229Y-5353936D01*
X8389229Y-5353936D02*
X8379705Y-5363460D01*
X8379705Y-5363460D02*
X8360658Y-5372984D01*
X8360658Y-5372984D02*
X8313039Y-5372984D01*
X8313039Y-5372984D02*
X8293991Y-5363460D01*
X8293991Y-5363460D02*
X8284467Y-5353936D01*
X8522563Y-5172984D02*
X8541610Y-5172984D01*
X8541610Y-5172984D02*
X8560658Y-5182508D01*
X8560658Y-5182508D02*
X8570182Y-5192031D01*
X8570182Y-5192031D02*
X8579705Y-5211079D01*
X8579705Y-5211079D02*
X8589229Y-5249174D01*
X8589229Y-5249174D02*
X8589229Y-5296793D01*
X8589229Y-5296793D02*
X8579705Y-5334889D01*
X8579705Y-5334889D02*
X8570182Y-5353936D01*
X8570182Y-5353936D02*
X8560658Y-5363460D01*
X8560658Y-5363460D02*
X8541610Y-5372984D01*
X8541610Y-5372984D02*
X8522563Y-5372984D01*
X8522563Y-5372984D02*
X8503515Y-5363460D01*
X8503515Y-5363460D02*
X8493991Y-5353936D01*
X8493991Y-5353936D02*
X8484467Y-5334889D01*
X8484467Y-5334889D02*
X8474944Y-5296793D01*
X8474944Y-5296793D02*
X8474944Y-5249174D01*
X8474944Y-5249174D02*
X8484467Y-5211079D01*
X8484467Y-5211079D02*
X8493991Y-5192031D01*
X8493991Y-5192031D02*
X8503515Y-5182508D01*
X8503515Y-5182508D02*
X8522563Y-5172984D01*
X8713039Y-5172984D02*
X8732086Y-5172984D01*
X8732086Y-5172984D02*
X8751134Y-5182508D01*
X8751134Y-5182508D02*
X8760658Y-5192031D01*
X8760658Y-5192031D02*
X8770182Y-5211079D01*
X8770182Y-5211079D02*
X8779705Y-5249174D01*
X8779705Y-5249174D02*
X8779705Y-5296793D01*
X8779705Y-5296793D02*
X8770182Y-5334889D01*
X8770182Y-5334889D02*
X8760658Y-5353936D01*
X8760658Y-5353936D02*
X8751134Y-5363460D01*
X8751134Y-5363460D02*
X8732086Y-5372984D01*
X8732086Y-5372984D02*
X8713039Y-5372984D01*
X8713039Y-5372984D02*
X8693991Y-5363460D01*
X8693991Y-5363460D02*
X8684467Y-5353936D01*
X8684467Y-5353936D02*
X8674944Y-5334889D01*
X8674944Y-5334889D02*
X8665420Y-5296793D01*
X8665420Y-5296793D02*
X8665420Y-5249174D01*
X8665420Y-5249174D02*
X8674944Y-5211079D01*
X8674944Y-5211079D02*
X8684467Y-5192031D01*
X8684467Y-5192031D02*
X8693991Y-5182508D01*
X8693991Y-5182508D02*
X8713039Y-5172984D01*
X8865420Y-5372984D02*
X8865420Y-5239650D01*
X8865420Y-5258698D02*
X8874944Y-5249174D01*
X8874944Y-5249174D02*
X8893991Y-5239650D01*
X8893991Y-5239650D02*
X8922563Y-5239650D01*
X8922563Y-5239650D02*
X8941610Y-5249174D01*
X8941610Y-5249174D02*
X8951134Y-5268222D01*
X8951134Y-5268222D02*
X8951134Y-5372984D01*
X8951134Y-5268222D02*
X8960658Y-5249174D01*
X8960658Y-5249174D02*
X8979705Y-5239650D01*
X8979705Y-5239650D02*
X9008277Y-5239650D01*
X9008277Y-5239650D02*
X9027325Y-5249174D01*
X9027325Y-5249174D02*
X9036848Y-5268222D01*
X9036848Y-5268222D02*
X9036848Y-5372984D01*
X9132086Y-5372984D02*
X9132086Y-5239650D01*
X9132086Y-5258698D02*
X9141610Y-5249174D01*
X9141610Y-5249174D02*
X9160658Y-5239650D01*
X9160658Y-5239650D02*
X9189229Y-5239650D01*
X9189229Y-5239650D02*
X9208277Y-5249174D01*
X9208277Y-5249174D02*
X9217801Y-5268222D01*
X9217801Y-5268222D02*
X9217801Y-5372984D01*
X9217801Y-5268222D02*
X9227325Y-5249174D01*
X9227325Y-5249174D02*
X9246372Y-5239650D01*
X9246372Y-5239650D02*
X9274944Y-5239650D01*
X9274944Y-5239650D02*
X9293991Y-5249174D01*
X9293991Y-5249174D02*
X9303515Y-5268222D01*
X9303515Y-5268222D02*
X9303515Y-5372984D01*
X9693991Y-5163460D02*
X9522563Y-5420603D01*
X9951134Y-5172984D02*
X9970182Y-5172984D01*
X9970182Y-5172984D02*
X9989229Y-5182508D01*
X9989229Y-5182508D02*
X9998753Y-5192031D01*
X9998753Y-5192031D02*
X10008277Y-5211079D01*
X10008277Y-5211079D02*
X10017801Y-5249174D01*
X10017801Y-5249174D02*
X10017801Y-5296793D01*
X10017801Y-5296793D02*
X10008277Y-5334889D01*
X10008277Y-5334889D02*
X9998753Y-5353936D01*
X9998753Y-5353936D02*
X9989229Y-5363460D01*
X9989229Y-5363460D02*
X9970182Y-5372984D01*
X9970182Y-5372984D02*
X9951134Y-5372984D01*
X9951134Y-5372984D02*
X9932087Y-5363460D01*
X9932087Y-5363460D02*
X9922563Y-5353936D01*
X9922563Y-5353936D02*
X9913039Y-5334889D01*
X9913039Y-5334889D02*
X9903515Y-5296793D01*
X9903515Y-5296793D02*
X9903515Y-5249174D01*
X9903515Y-5249174D02*
X9913039Y-5211079D01*
X9913039Y-5211079D02*
X9922563Y-5192031D01*
X9922563Y-5192031D02*
X9932087Y-5182508D01*
X9932087Y-5182508D02*
X9951134Y-5172984D01*
X10103515Y-5353936D02*
X10113039Y-5363460D01*
X10113039Y-5363460D02*
X10103515Y-5372984D01*
X10103515Y-5372984D02*
X10093991Y-5363460D01*
X10093991Y-5363460D02*
X10103515Y-5353936D01*
X10103515Y-5353936D02*
X10103515Y-5372984D01*
X10236848Y-5172984D02*
X10255896Y-5172984D01*
X10255896Y-5172984D02*
X10274944Y-5182508D01*
X10274944Y-5182508D02*
X10284468Y-5192031D01*
X10284468Y-5192031D02*
X10293991Y-5211079D01*
X10293991Y-5211079D02*
X10303515Y-5249174D01*
X10303515Y-5249174D02*
X10303515Y-5296793D01*
X10303515Y-5296793D02*
X10293991Y-5334889D01*
X10293991Y-5334889D02*
X10284468Y-5353936D01*
X10284468Y-5353936D02*
X10274944Y-5363460D01*
X10274944Y-5363460D02*
X10255896Y-5372984D01*
X10255896Y-5372984D02*
X10236848Y-5372984D01*
X10236848Y-5372984D02*
X10217801Y-5363460D01*
X10217801Y-5363460D02*
X10208277Y-5353936D01*
X10208277Y-5353936D02*
X10198753Y-5334889D01*
X10198753Y-5334889D02*
X10189229Y-5296793D01*
X10189229Y-5296793D02*
X10189229Y-5249174D01*
X10189229Y-5249174D02*
X10198753Y-5211079D01*
X10198753Y-5211079D02*
X10208277Y-5192031D01*
X10208277Y-5192031D02*
X10217801Y-5182508D01*
X10217801Y-5182508D02*
X10236848Y-5172984D01*
X10493991Y-5372984D02*
X10379706Y-5372984D01*
X10436848Y-5372984D02*
X10436848Y-5172984D01*
X10436848Y-5172984D02*
X10417801Y-5201555D01*
X10417801Y-5201555D02*
X10398753Y-5220603D01*
X10398753Y-5220603D02*
X10379706Y-5230127D01*
X10589229Y-5372984D02*
X10627325Y-5372984D01*
X10627325Y-5372984D02*
X10646372Y-5363460D01*
X10646372Y-5363460D02*
X10655896Y-5353936D01*
X10655896Y-5353936D02*
X10674944Y-5325365D01*
X10674944Y-5325365D02*
X10684468Y-5287270D01*
X10684468Y-5287270D02*
X10684468Y-5211079D01*
X10684468Y-5211079D02*
X10674944Y-5192031D01*
X10674944Y-5192031D02*
X10665420Y-5182508D01*
X10665420Y-5182508D02*
X10646372Y-5172984D01*
X10646372Y-5172984D02*
X10608277Y-5172984D01*
X10608277Y-5172984D02*
X10589229Y-5182508D01*
X10589229Y-5182508D02*
X10579706Y-5192031D01*
X10579706Y-5192031D02*
X10570182Y-5211079D01*
X10570182Y-5211079D02*
X10570182Y-5258698D01*
X10570182Y-5258698D02*
X10579706Y-5277746D01*
X10579706Y-5277746D02*
X10589229Y-5287270D01*
X10589229Y-5287270D02*
X10608277Y-5296793D01*
X10608277Y-5296793D02*
X10646372Y-5296793D01*
X10646372Y-5296793D02*
X10665420Y-5287270D01*
X10665420Y-5287270D02*
X10674944Y-5277746D01*
X10674944Y-5277746D02*
X10684468Y-5258698D01*
X10751134Y-5172984D02*
X10884468Y-5172984D01*
X10884468Y-5172984D02*
X10798753Y-5372984D01*
X10951134Y-5172984D02*
X10951134Y-5211079D01*
X11027325Y-5172984D02*
X11027325Y-5211079D01*
X11322563Y-5449174D02*
X11313039Y-5439650D01*
X11313039Y-5439650D02*
X11293991Y-5411079D01*
X11293991Y-5411079D02*
X11284468Y-5392031D01*
X11284468Y-5392031D02*
X11274944Y-5363460D01*
X11274944Y-5363460D02*
X11265420Y-5315841D01*
X11265420Y-5315841D02*
X11265420Y-5277746D01*
X11265420Y-5277746D02*
X11274944Y-5230127D01*
X11274944Y-5230127D02*
X11284468Y-5201555D01*
X11284468Y-5201555D02*
X11293991Y-5182508D01*
X11293991Y-5182508D02*
X11313039Y-5153936D01*
X11313039Y-5153936D02*
X11322563Y-5144412D01*
X11436848Y-5172984D02*
X11455896Y-5172984D01*
X11455896Y-5172984D02*
X11474944Y-5182508D01*
X11474944Y-5182508D02*
X11484468Y-5192031D01*
X11484468Y-5192031D02*
X11493991Y-5211079D01*
X11493991Y-5211079D02*
X11503515Y-5249174D01*
X11503515Y-5249174D02*
X11503515Y-5296793D01*
X11503515Y-5296793D02*
X11493991Y-5334889D01*
X11493991Y-5334889D02*
X11484468Y-5353936D01*
X11484468Y-5353936D02*
X11474944Y-5363460D01*
X11474944Y-5363460D02*
X11455896Y-5372984D01*
X11455896Y-5372984D02*
X11436848Y-5372984D01*
X11436848Y-5372984D02*
X11417801Y-5363460D01*
X11417801Y-5363460D02*
X11408277Y-5353936D01*
X11408277Y-5353936D02*
X11398753Y-5334889D01*
X11398753Y-5334889D02*
X11389229Y-5296793D01*
X11389229Y-5296793D02*
X11389229Y-5249174D01*
X11389229Y-5249174D02*
X11398753Y-5211079D01*
X11398753Y-5211079D02*
X11408277Y-5192031D01*
X11408277Y-5192031D02*
X11417801Y-5182508D01*
X11417801Y-5182508D02*
X11436848Y-5172984D01*
X11741610Y-5372984D02*
X11741610Y-5172984D01*
X11827325Y-5372984D02*
X11827325Y-5268222D01*
X11827325Y-5268222D02*
X11817801Y-5249174D01*
X11817801Y-5249174D02*
X11798753Y-5239650D01*
X11798753Y-5239650D02*
X11770182Y-5239650D01*
X11770182Y-5239650D02*
X11751134Y-5249174D01*
X11751134Y-5249174D02*
X11741610Y-5258698D01*
X11951134Y-5372984D02*
X11932087Y-5363460D01*
X11932087Y-5363460D02*
X11922563Y-5353936D01*
X11922563Y-5353936D02*
X11913039Y-5334889D01*
X11913039Y-5334889D02*
X11913039Y-5277746D01*
X11913039Y-5277746D02*
X11922563Y-5258698D01*
X11922563Y-5258698D02*
X11932087Y-5249174D01*
X11932087Y-5249174D02*
X11951134Y-5239650D01*
X11951134Y-5239650D02*
X11979706Y-5239650D01*
X11979706Y-5239650D02*
X11998753Y-5249174D01*
X11998753Y-5249174D02*
X12008277Y-5258698D01*
X12008277Y-5258698D02*
X12017801Y-5277746D01*
X12017801Y-5277746D02*
X12017801Y-5334889D01*
X12017801Y-5334889D02*
X12008277Y-5353936D01*
X12008277Y-5353936D02*
X11998753Y-5363460D01*
X11998753Y-5363460D02*
X11979706Y-5372984D01*
X11979706Y-5372984D02*
X11951134Y-5372984D01*
X12132087Y-5372984D02*
X12113039Y-5363460D01*
X12113039Y-5363460D02*
X12103515Y-5344412D01*
X12103515Y-5344412D02*
X12103515Y-5172984D01*
X12284468Y-5363460D02*
X12265420Y-5372984D01*
X12265420Y-5372984D02*
X12227325Y-5372984D01*
X12227325Y-5372984D02*
X12208277Y-5363460D01*
X12208277Y-5363460D02*
X12198753Y-5344412D01*
X12198753Y-5344412D02*
X12198753Y-5268222D01*
X12198753Y-5268222D02*
X12208277Y-5249174D01*
X12208277Y-5249174D02*
X12227325Y-5239650D01*
X12227325Y-5239650D02*
X12265420Y-5239650D01*
X12265420Y-5239650D02*
X12284468Y-5249174D01*
X12284468Y-5249174D02*
X12293991Y-5268222D01*
X12293991Y-5268222D02*
X12293991Y-5287270D01*
X12293991Y-5287270D02*
X12198753Y-5306317D01*
X12370182Y-5363460D02*
X12389230Y-5372984D01*
X12389230Y-5372984D02*
X12427325Y-5372984D01*
X12427325Y-5372984D02*
X12446372Y-5363460D01*
X12446372Y-5363460D02*
X12455896Y-5344412D01*
X12455896Y-5344412D02*
X12455896Y-5334889D01*
X12455896Y-5334889D02*
X12446372Y-5315841D01*
X12446372Y-5315841D02*
X12427325Y-5306317D01*
X12427325Y-5306317D02*
X12398753Y-5306317D01*
X12398753Y-5306317D02*
X12379706Y-5296793D01*
X12379706Y-5296793D02*
X12370182Y-5277746D01*
X12370182Y-5277746D02*
X12370182Y-5268222D01*
X12370182Y-5268222D02*
X12379706Y-5249174D01*
X12379706Y-5249174D02*
X12398753Y-5239650D01*
X12398753Y-5239650D02*
X12427325Y-5239650D01*
X12427325Y-5239650D02*
X12446372Y-5249174D01*
X12693992Y-5296793D02*
X12846373Y-5296793D01*
X12770182Y-5372984D02*
X12770182Y-5220603D01*
X13084468Y-5192031D02*
X13093992Y-5182508D01*
X13093992Y-5182508D02*
X13113039Y-5172984D01*
X13113039Y-5172984D02*
X13160658Y-5172984D01*
X13160658Y-5172984D02*
X13179706Y-5182508D01*
X13179706Y-5182508D02*
X13189230Y-5192031D01*
X13189230Y-5192031D02*
X13198753Y-5211079D01*
X13198753Y-5211079D02*
X13198753Y-5230127D01*
X13198753Y-5230127D02*
X13189230Y-5258698D01*
X13189230Y-5258698D02*
X13074944Y-5372984D01*
X13074944Y-5372984D02*
X13198753Y-5372984D01*
X13427325Y-5363460D02*
X13446373Y-5372984D01*
X13446373Y-5372984D02*
X13484468Y-5372984D01*
X13484468Y-5372984D02*
X13503515Y-5363460D01*
X13503515Y-5363460D02*
X13513039Y-5344412D01*
X13513039Y-5344412D02*
X13513039Y-5334889D01*
X13513039Y-5334889D02*
X13503515Y-5315841D01*
X13503515Y-5315841D02*
X13484468Y-5306317D01*
X13484468Y-5306317D02*
X13455896Y-5306317D01*
X13455896Y-5306317D02*
X13436849Y-5296793D01*
X13436849Y-5296793D02*
X13427325Y-5277746D01*
X13427325Y-5277746D02*
X13427325Y-5268222D01*
X13427325Y-5268222D02*
X13436849Y-5249174D01*
X13436849Y-5249174D02*
X13455896Y-5239650D01*
X13455896Y-5239650D02*
X13484468Y-5239650D01*
X13484468Y-5239650D02*
X13503515Y-5249174D01*
X13627325Y-5372984D02*
X13608277Y-5363460D01*
X13608277Y-5363460D02*
X13598754Y-5344412D01*
X13598754Y-5344412D02*
X13598754Y-5172984D01*
X13732087Y-5372984D02*
X13713039Y-5363460D01*
X13713039Y-5363460D02*
X13703515Y-5353936D01*
X13703515Y-5353936D02*
X13693992Y-5334889D01*
X13693992Y-5334889D02*
X13693992Y-5277746D01*
X13693992Y-5277746D02*
X13703515Y-5258698D01*
X13703515Y-5258698D02*
X13713039Y-5249174D01*
X13713039Y-5249174D02*
X13732087Y-5239650D01*
X13732087Y-5239650D02*
X13760658Y-5239650D01*
X13760658Y-5239650D02*
X13779706Y-5249174D01*
X13779706Y-5249174D02*
X13789230Y-5258698D01*
X13789230Y-5258698D02*
X13798754Y-5277746D01*
X13798754Y-5277746D02*
X13798754Y-5334889D01*
X13798754Y-5334889D02*
X13789230Y-5353936D01*
X13789230Y-5353936D02*
X13779706Y-5363460D01*
X13779706Y-5363460D02*
X13760658Y-5372984D01*
X13760658Y-5372984D02*
X13732087Y-5372984D01*
X13855896Y-5239650D02*
X13932087Y-5239650D01*
X13884468Y-5172984D02*
X13884468Y-5344412D01*
X13884468Y-5344412D02*
X13893992Y-5363460D01*
X13893992Y-5363460D02*
X13913039Y-5372984D01*
X13913039Y-5372984D02*
X13932087Y-5372984D01*
X13989230Y-5363460D02*
X14008277Y-5372984D01*
X14008277Y-5372984D02*
X14046373Y-5372984D01*
X14046373Y-5372984D02*
X14065420Y-5363460D01*
X14065420Y-5363460D02*
X14074944Y-5344412D01*
X14074944Y-5344412D02*
X14074944Y-5334889D01*
X14074944Y-5334889D02*
X14065420Y-5315841D01*
X14065420Y-5315841D02*
X14046373Y-5306317D01*
X14046373Y-5306317D02*
X14017801Y-5306317D01*
X14017801Y-5306317D02*
X13998754Y-5296793D01*
X13998754Y-5296793D02*
X13989230Y-5277746D01*
X13989230Y-5277746D02*
X13989230Y-5268222D01*
X13989230Y-5268222D02*
X13998754Y-5249174D01*
X13998754Y-5249174D02*
X14017801Y-5239650D01*
X14017801Y-5239650D02*
X14046373Y-5239650D01*
X14046373Y-5239650D02*
X14065420Y-5249174D01*
X14141611Y-5449174D02*
X14151135Y-5439650D01*
X14151135Y-5439650D02*
X14170182Y-5411079D01*
X14170182Y-5411079D02*
X14179706Y-5392031D01*
X14179706Y-5392031D02*
X14189230Y-5363460D01*
X14189230Y-5363460D02*
X14198754Y-5315841D01*
X14198754Y-5315841D02*
X14198754Y-5277746D01*
X14198754Y-5277746D02*
X14189230Y-5230127D01*
X14189230Y-5230127D02*
X14179706Y-5201555D01*
X14179706Y-5201555D02*
X14170182Y-5182508D01*
X14170182Y-5182508D02*
X14151135Y-5153936D01*
X14151135Y-5153936D02*
X14141611Y-5144412D01*
D13*
X7720000Y-5518000D02*
X7720000Y-5573000D01*
X7692500Y-5545500D02*
X7747500Y-5545500D01*
D11*
X8046372Y-5436984D02*
X8065420Y-5436984D01*
X8065420Y-5436984D02*
X8084467Y-5446508D01*
X8084467Y-5446508D02*
X8093991Y-5456031D01*
X8093991Y-5456031D02*
X8103515Y-5475079D01*
X8103515Y-5475079D02*
X8113039Y-5513174D01*
X8113039Y-5513174D02*
X8113039Y-5560793D01*
X8113039Y-5560793D02*
X8103515Y-5598888D01*
X8103515Y-5598888D02*
X8093991Y-5617936D01*
X8093991Y-5617936D02*
X8084467Y-5627460D01*
X8084467Y-5627460D02*
X8065420Y-5636984D01*
X8065420Y-5636984D02*
X8046372Y-5636984D01*
X8046372Y-5636984D02*
X8027324Y-5627460D01*
X8027324Y-5627460D02*
X8017801Y-5617936D01*
X8017801Y-5617936D02*
X8008277Y-5598888D01*
X8008277Y-5598888D02*
X7998753Y-5560793D01*
X7998753Y-5560793D02*
X7998753Y-5513174D01*
X7998753Y-5513174D02*
X8008277Y-5475079D01*
X8008277Y-5475079D02*
X8017801Y-5456031D01*
X8017801Y-5456031D02*
X8027324Y-5446508D01*
X8027324Y-5446508D02*
X8046372Y-5436984D01*
X8198753Y-5617936D02*
X8208277Y-5627460D01*
X8208277Y-5627460D02*
X8198753Y-5636984D01*
X8198753Y-5636984D02*
X8189229Y-5627460D01*
X8189229Y-5627460D02*
X8198753Y-5617936D01*
X8198753Y-5617936D02*
X8198753Y-5636984D01*
X8389229Y-5436984D02*
X8293991Y-5436984D01*
X8293991Y-5436984D02*
X8284467Y-5532222D01*
X8284467Y-5532222D02*
X8293991Y-5522698D01*
X8293991Y-5522698D02*
X8313039Y-5513174D01*
X8313039Y-5513174D02*
X8360658Y-5513174D01*
X8360658Y-5513174D02*
X8379705Y-5522698D01*
X8379705Y-5522698D02*
X8389229Y-5532222D01*
X8389229Y-5532222D02*
X8398753Y-5551270D01*
X8398753Y-5551270D02*
X8398753Y-5598888D01*
X8398753Y-5598888D02*
X8389229Y-5617936D01*
X8389229Y-5617936D02*
X8379705Y-5627460D01*
X8379705Y-5627460D02*
X8360658Y-5636984D01*
X8360658Y-5636984D02*
X8313039Y-5636984D01*
X8313039Y-5636984D02*
X8293991Y-5627460D01*
X8293991Y-5627460D02*
X8284467Y-5617936D01*
X8579705Y-5436984D02*
X8484467Y-5436984D01*
X8484467Y-5436984D02*
X8474944Y-5532222D01*
X8474944Y-5532222D02*
X8484467Y-5522698D01*
X8484467Y-5522698D02*
X8503515Y-5513174D01*
X8503515Y-5513174D02*
X8551134Y-5513174D01*
X8551134Y-5513174D02*
X8570182Y-5522698D01*
X8570182Y-5522698D02*
X8579705Y-5532222D01*
X8579705Y-5532222D02*
X8589229Y-5551270D01*
X8589229Y-5551270D02*
X8589229Y-5598888D01*
X8589229Y-5598888D02*
X8579705Y-5617936D01*
X8579705Y-5617936D02*
X8570182Y-5627460D01*
X8570182Y-5627460D02*
X8551134Y-5636984D01*
X8551134Y-5636984D02*
X8503515Y-5636984D01*
X8503515Y-5636984D02*
X8484467Y-5627460D01*
X8484467Y-5627460D02*
X8474944Y-5617936D01*
X8713039Y-5436984D02*
X8732086Y-5436984D01*
X8732086Y-5436984D02*
X8751134Y-5446508D01*
X8751134Y-5446508D02*
X8760658Y-5456031D01*
X8760658Y-5456031D02*
X8770182Y-5475079D01*
X8770182Y-5475079D02*
X8779705Y-5513174D01*
X8779705Y-5513174D02*
X8779705Y-5560793D01*
X8779705Y-5560793D02*
X8770182Y-5598888D01*
X8770182Y-5598888D02*
X8760658Y-5617936D01*
X8760658Y-5617936D02*
X8751134Y-5627460D01*
X8751134Y-5627460D02*
X8732086Y-5636984D01*
X8732086Y-5636984D02*
X8713039Y-5636984D01*
X8713039Y-5636984D02*
X8693991Y-5627460D01*
X8693991Y-5627460D02*
X8684467Y-5617936D01*
X8684467Y-5617936D02*
X8674944Y-5598888D01*
X8674944Y-5598888D02*
X8665420Y-5560793D01*
X8665420Y-5560793D02*
X8665420Y-5513174D01*
X8665420Y-5513174D02*
X8674944Y-5475079D01*
X8674944Y-5475079D02*
X8684467Y-5456031D01*
X8684467Y-5456031D02*
X8693991Y-5446508D01*
X8693991Y-5446508D02*
X8713039Y-5436984D01*
X8865420Y-5636984D02*
X8865420Y-5503650D01*
X8865420Y-5522698D02*
X8874944Y-5513174D01*
X8874944Y-5513174D02*
X8893991Y-5503650D01*
X8893991Y-5503650D02*
X8922563Y-5503650D01*
X8922563Y-5503650D02*
X8941610Y-5513174D01*
X8941610Y-5513174D02*
X8951134Y-5532222D01*
X8951134Y-5532222D02*
X8951134Y-5636984D01*
X8951134Y-5532222D02*
X8960658Y-5513174D01*
X8960658Y-5513174D02*
X8979705Y-5503650D01*
X8979705Y-5503650D02*
X9008277Y-5503650D01*
X9008277Y-5503650D02*
X9027325Y-5513174D01*
X9027325Y-5513174D02*
X9036848Y-5532222D01*
X9036848Y-5532222D02*
X9036848Y-5636984D01*
X9132086Y-5636984D02*
X9132086Y-5503650D01*
X9132086Y-5522698D02*
X9141610Y-5513174D01*
X9141610Y-5513174D02*
X9160658Y-5503650D01*
X9160658Y-5503650D02*
X9189229Y-5503650D01*
X9189229Y-5503650D02*
X9208277Y-5513174D01*
X9208277Y-5513174D02*
X9217801Y-5532222D01*
X9217801Y-5532222D02*
X9217801Y-5636984D01*
X9217801Y-5532222D02*
X9227325Y-5513174D01*
X9227325Y-5513174D02*
X9246372Y-5503650D01*
X9246372Y-5503650D02*
X9274944Y-5503650D01*
X9274944Y-5503650D02*
X9293991Y-5513174D01*
X9293991Y-5513174D02*
X9303515Y-5532222D01*
X9303515Y-5532222D02*
X9303515Y-5636984D01*
X9693991Y-5427460D02*
X9522563Y-5684603D01*
X9951134Y-5436984D02*
X9970182Y-5436984D01*
X9970182Y-5436984D02*
X9989229Y-5446508D01*
X9989229Y-5446508D02*
X9998753Y-5456031D01*
X9998753Y-5456031D02*
X10008277Y-5475079D01*
X10008277Y-5475079D02*
X10017801Y-5513174D01*
X10017801Y-5513174D02*
X10017801Y-5560793D01*
X10017801Y-5560793D02*
X10008277Y-5598888D01*
X10008277Y-5598888D02*
X9998753Y-5617936D01*
X9998753Y-5617936D02*
X9989229Y-5627460D01*
X9989229Y-5627460D02*
X9970182Y-5636984D01*
X9970182Y-5636984D02*
X9951134Y-5636984D01*
X9951134Y-5636984D02*
X9932087Y-5627460D01*
X9932087Y-5627460D02*
X9922563Y-5617936D01*
X9922563Y-5617936D02*
X9913039Y-5598888D01*
X9913039Y-5598888D02*
X9903515Y-5560793D01*
X9903515Y-5560793D02*
X9903515Y-5513174D01*
X9903515Y-5513174D02*
X9913039Y-5475079D01*
X9913039Y-5475079D02*
X9922563Y-5456031D01*
X9922563Y-5456031D02*
X9932087Y-5446508D01*
X9932087Y-5446508D02*
X9951134Y-5436984D01*
X10103515Y-5617936D02*
X10113039Y-5627460D01*
X10113039Y-5627460D02*
X10103515Y-5636984D01*
X10103515Y-5636984D02*
X10093991Y-5627460D01*
X10093991Y-5627460D02*
X10103515Y-5617936D01*
X10103515Y-5617936D02*
X10103515Y-5636984D01*
X10236848Y-5436984D02*
X10255896Y-5436984D01*
X10255896Y-5436984D02*
X10274944Y-5446508D01*
X10274944Y-5446508D02*
X10284468Y-5456031D01*
X10284468Y-5456031D02*
X10293991Y-5475079D01*
X10293991Y-5475079D02*
X10303515Y-5513174D01*
X10303515Y-5513174D02*
X10303515Y-5560793D01*
X10303515Y-5560793D02*
X10293991Y-5598888D01*
X10293991Y-5598888D02*
X10284468Y-5617936D01*
X10284468Y-5617936D02*
X10274944Y-5627460D01*
X10274944Y-5627460D02*
X10255896Y-5636984D01*
X10255896Y-5636984D02*
X10236848Y-5636984D01*
X10236848Y-5636984D02*
X10217801Y-5627460D01*
X10217801Y-5627460D02*
X10208277Y-5617936D01*
X10208277Y-5617936D02*
X10198753Y-5598888D01*
X10198753Y-5598888D02*
X10189229Y-5560793D01*
X10189229Y-5560793D02*
X10189229Y-5513174D01*
X10189229Y-5513174D02*
X10198753Y-5475079D01*
X10198753Y-5475079D02*
X10208277Y-5456031D01*
X10208277Y-5456031D02*
X10217801Y-5446508D01*
X10217801Y-5446508D02*
X10236848Y-5436984D01*
X10379706Y-5456031D02*
X10389229Y-5446508D01*
X10389229Y-5446508D02*
X10408277Y-5436984D01*
X10408277Y-5436984D02*
X10455896Y-5436984D01*
X10455896Y-5436984D02*
X10474944Y-5446508D01*
X10474944Y-5446508D02*
X10484468Y-5456031D01*
X10484468Y-5456031D02*
X10493991Y-5475079D01*
X10493991Y-5475079D02*
X10493991Y-5494127D01*
X10493991Y-5494127D02*
X10484468Y-5522698D01*
X10484468Y-5522698D02*
X10370182Y-5636984D01*
X10370182Y-5636984D02*
X10493991Y-5636984D01*
X10684468Y-5636984D02*
X10570182Y-5636984D01*
X10627325Y-5636984D02*
X10627325Y-5436984D01*
X10627325Y-5436984D02*
X10608277Y-5465555D01*
X10608277Y-5465555D02*
X10589229Y-5484603D01*
X10589229Y-5484603D02*
X10570182Y-5494127D01*
X10751134Y-5436984D02*
X10884468Y-5436984D01*
X10884468Y-5436984D02*
X10798753Y-5636984D01*
X10951134Y-5436984D02*
X10951134Y-5475079D01*
X11027325Y-5436984D02*
X11027325Y-5475079D01*
X11322563Y-5713174D02*
X11313039Y-5703650D01*
X11313039Y-5703650D02*
X11293991Y-5675079D01*
X11293991Y-5675079D02*
X11284468Y-5656031D01*
X11284468Y-5656031D02*
X11274944Y-5627460D01*
X11274944Y-5627460D02*
X11265420Y-5579841D01*
X11265420Y-5579841D02*
X11265420Y-5541746D01*
X11265420Y-5541746D02*
X11274944Y-5494127D01*
X11274944Y-5494127D02*
X11284468Y-5465555D01*
X11284468Y-5465555D02*
X11293991Y-5446508D01*
X11293991Y-5446508D02*
X11313039Y-5417936D01*
X11313039Y-5417936D02*
X11322563Y-5408412D01*
X11436848Y-5436984D02*
X11455896Y-5436984D01*
X11455896Y-5436984D02*
X11474944Y-5446508D01*
X11474944Y-5446508D02*
X11484468Y-5456031D01*
X11484468Y-5456031D02*
X11493991Y-5475079D01*
X11493991Y-5475079D02*
X11503515Y-5513174D01*
X11503515Y-5513174D02*
X11503515Y-5560793D01*
X11503515Y-5560793D02*
X11493991Y-5598888D01*
X11493991Y-5598888D02*
X11484468Y-5617936D01*
X11484468Y-5617936D02*
X11474944Y-5627460D01*
X11474944Y-5627460D02*
X11455896Y-5636984D01*
X11455896Y-5636984D02*
X11436848Y-5636984D01*
X11436848Y-5636984D02*
X11417801Y-5627460D01*
X11417801Y-5627460D02*
X11408277Y-5617936D01*
X11408277Y-5617936D02*
X11398753Y-5598888D01*
X11398753Y-5598888D02*
X11389229Y-5560793D01*
X11389229Y-5560793D02*
X11389229Y-5513174D01*
X11389229Y-5513174D02*
X11398753Y-5475079D01*
X11398753Y-5475079D02*
X11408277Y-5456031D01*
X11408277Y-5456031D02*
X11417801Y-5446508D01*
X11417801Y-5446508D02*
X11436848Y-5436984D01*
X11741610Y-5636984D02*
X11741610Y-5436984D01*
X11827325Y-5636984D02*
X11827325Y-5532222D01*
X11827325Y-5532222D02*
X11817801Y-5513174D01*
X11817801Y-5513174D02*
X11798753Y-5503650D01*
X11798753Y-5503650D02*
X11770182Y-5503650D01*
X11770182Y-5503650D02*
X11751134Y-5513174D01*
X11751134Y-5513174D02*
X11741610Y-5522698D01*
X11951134Y-5636984D02*
X11932087Y-5627460D01*
X11932087Y-5627460D02*
X11922563Y-5617936D01*
X11922563Y-5617936D02*
X11913039Y-5598888D01*
X11913039Y-5598888D02*
X11913039Y-5541746D01*
X11913039Y-5541746D02*
X11922563Y-5522698D01*
X11922563Y-5522698D02*
X11932087Y-5513174D01*
X11932087Y-5513174D02*
X11951134Y-5503650D01*
X11951134Y-5503650D02*
X11979706Y-5503650D01*
X11979706Y-5503650D02*
X11998753Y-5513174D01*
X11998753Y-5513174D02*
X12008277Y-5522698D01*
X12008277Y-5522698D02*
X12017801Y-5541746D01*
X12017801Y-5541746D02*
X12017801Y-5598888D01*
X12017801Y-5598888D02*
X12008277Y-5617936D01*
X12008277Y-5617936D02*
X11998753Y-5627460D01*
X11998753Y-5627460D02*
X11979706Y-5636984D01*
X11979706Y-5636984D02*
X11951134Y-5636984D01*
X12132087Y-5636984D02*
X12113039Y-5627460D01*
X12113039Y-5627460D02*
X12103515Y-5608412D01*
X12103515Y-5608412D02*
X12103515Y-5436984D01*
X12284468Y-5627460D02*
X12265420Y-5636984D01*
X12265420Y-5636984D02*
X12227325Y-5636984D01*
X12227325Y-5636984D02*
X12208277Y-5627460D01*
X12208277Y-5627460D02*
X12198753Y-5608412D01*
X12198753Y-5608412D02*
X12198753Y-5532222D01*
X12198753Y-5532222D02*
X12208277Y-5513174D01*
X12208277Y-5513174D02*
X12227325Y-5503650D01*
X12227325Y-5503650D02*
X12265420Y-5503650D01*
X12265420Y-5503650D02*
X12284468Y-5513174D01*
X12284468Y-5513174D02*
X12293991Y-5532222D01*
X12293991Y-5532222D02*
X12293991Y-5551270D01*
X12293991Y-5551270D02*
X12198753Y-5570317D01*
X12370182Y-5627460D02*
X12389230Y-5636984D01*
X12389230Y-5636984D02*
X12427325Y-5636984D01*
X12427325Y-5636984D02*
X12446372Y-5627460D01*
X12446372Y-5627460D02*
X12455896Y-5608412D01*
X12455896Y-5608412D02*
X12455896Y-5598888D01*
X12455896Y-5598888D02*
X12446372Y-5579841D01*
X12446372Y-5579841D02*
X12427325Y-5570317D01*
X12427325Y-5570317D02*
X12398753Y-5570317D01*
X12398753Y-5570317D02*
X12379706Y-5560793D01*
X12379706Y-5560793D02*
X12370182Y-5541746D01*
X12370182Y-5541746D02*
X12370182Y-5532222D01*
X12370182Y-5532222D02*
X12379706Y-5513174D01*
X12379706Y-5513174D02*
X12398753Y-5503650D01*
X12398753Y-5503650D02*
X12427325Y-5503650D01*
X12427325Y-5503650D02*
X12446372Y-5513174D01*
X12693992Y-5560793D02*
X12846373Y-5560793D01*
X12770182Y-5636984D02*
X12770182Y-5484603D01*
X13084468Y-5456031D02*
X13093992Y-5446508D01*
X13093992Y-5446508D02*
X13113039Y-5436984D01*
X13113039Y-5436984D02*
X13160658Y-5436984D01*
X13160658Y-5436984D02*
X13179706Y-5446508D01*
X13179706Y-5446508D02*
X13189230Y-5456031D01*
X13189230Y-5456031D02*
X13198753Y-5475079D01*
X13198753Y-5475079D02*
X13198753Y-5494127D01*
X13198753Y-5494127D02*
X13189230Y-5522698D01*
X13189230Y-5522698D02*
X13074944Y-5636984D01*
X13074944Y-5636984D02*
X13198753Y-5636984D01*
X13427325Y-5627460D02*
X13446373Y-5636984D01*
X13446373Y-5636984D02*
X13484468Y-5636984D01*
X13484468Y-5636984D02*
X13503515Y-5627460D01*
X13503515Y-5627460D02*
X13513039Y-5608412D01*
X13513039Y-5608412D02*
X13513039Y-5598888D01*
X13513039Y-5598888D02*
X13503515Y-5579841D01*
X13503515Y-5579841D02*
X13484468Y-5570317D01*
X13484468Y-5570317D02*
X13455896Y-5570317D01*
X13455896Y-5570317D02*
X13436849Y-5560793D01*
X13436849Y-5560793D02*
X13427325Y-5541746D01*
X13427325Y-5541746D02*
X13427325Y-5532222D01*
X13427325Y-5532222D02*
X13436849Y-5513174D01*
X13436849Y-5513174D02*
X13455896Y-5503650D01*
X13455896Y-5503650D02*
X13484468Y-5503650D01*
X13484468Y-5503650D02*
X13503515Y-5513174D01*
X13627325Y-5636984D02*
X13608277Y-5627460D01*
X13608277Y-5627460D02*
X13598754Y-5608412D01*
X13598754Y-5608412D02*
X13598754Y-5436984D01*
X13732087Y-5636984D02*
X13713039Y-5627460D01*
X13713039Y-5627460D02*
X13703515Y-5617936D01*
X13703515Y-5617936D02*
X13693992Y-5598888D01*
X13693992Y-5598888D02*
X13693992Y-5541746D01*
X13693992Y-5541746D02*
X13703515Y-5522698D01*
X13703515Y-5522698D02*
X13713039Y-5513174D01*
X13713039Y-5513174D02*
X13732087Y-5503650D01*
X13732087Y-5503650D02*
X13760658Y-5503650D01*
X13760658Y-5503650D02*
X13779706Y-5513174D01*
X13779706Y-5513174D02*
X13789230Y-5522698D01*
X13789230Y-5522698D02*
X13798754Y-5541746D01*
X13798754Y-5541746D02*
X13798754Y-5598888D01*
X13798754Y-5598888D02*
X13789230Y-5617936D01*
X13789230Y-5617936D02*
X13779706Y-5627460D01*
X13779706Y-5627460D02*
X13760658Y-5636984D01*
X13760658Y-5636984D02*
X13732087Y-5636984D01*
X13855896Y-5503650D02*
X13932087Y-5503650D01*
X13884468Y-5436984D02*
X13884468Y-5608412D01*
X13884468Y-5608412D02*
X13893992Y-5627460D01*
X13893992Y-5627460D02*
X13913039Y-5636984D01*
X13913039Y-5636984D02*
X13932087Y-5636984D01*
X13989230Y-5627460D02*
X14008277Y-5636984D01*
X14008277Y-5636984D02*
X14046373Y-5636984D01*
X14046373Y-5636984D02*
X14065420Y-5627460D01*
X14065420Y-5627460D02*
X14074944Y-5608412D01*
X14074944Y-5608412D02*
X14074944Y-5598888D01*
X14074944Y-5598888D02*
X14065420Y-5579841D01*
X14065420Y-5579841D02*
X14046373Y-5570317D01*
X14046373Y-5570317D02*
X14017801Y-5570317D01*
X14017801Y-5570317D02*
X13998754Y-5560793D01*
X13998754Y-5560793D02*
X13989230Y-5541746D01*
X13989230Y-5541746D02*
X13989230Y-5532222D01*
X13989230Y-5532222D02*
X13998754Y-5513174D01*
X13998754Y-5513174D02*
X14017801Y-5503650D01*
X14017801Y-5503650D02*
X14046373Y-5503650D01*
X14046373Y-5503650D02*
X14065420Y-5513174D01*
X14141611Y-5713174D02*
X14151135Y-5703650D01*
X14151135Y-5703650D02*
X14170182Y-5675079D01*
X14170182Y-5675079D02*
X14179706Y-5656031D01*
X14179706Y-5656031D02*
X14189230Y-5627460D01*
X14189230Y-5627460D02*
X14198754Y-5579841D01*
X14198754Y-5579841D02*
X14198754Y-5541746D01*
X14198754Y-5541746D02*
X14189230Y-5494127D01*
X14189230Y-5494127D02*
X14179706Y-5465555D01*
X14179706Y-5465555D02*
X14170182Y-5446508D01*
X14170182Y-5446508D02*
X14151135Y-5417936D01*
X14151135Y-5417936D02*
X14141611Y-5408412D01*
D14*
X7737249Y-5834249D02*
X7737249Y-5784751D01*
X7687751Y-5784751D01*
X7687751Y-5834249D01*
X7737249Y-5834249D01*
D11*
X8046372Y-5700984D02*
X8065420Y-5700984D01*
X8065420Y-5700984D02*
X8084467Y-5710508D01*
X8084467Y-5710508D02*
X8093991Y-5720031D01*
X8093991Y-5720031D02*
X8103515Y-5739079D01*
X8103515Y-5739079D02*
X8113039Y-5777174D01*
X8113039Y-5777174D02*
X8113039Y-5824793D01*
X8113039Y-5824793D02*
X8103515Y-5862888D01*
X8103515Y-5862888D02*
X8093991Y-5881936D01*
X8093991Y-5881936D02*
X8084467Y-5891460D01*
X8084467Y-5891460D02*
X8065420Y-5900984D01*
X8065420Y-5900984D02*
X8046372Y-5900984D01*
X8046372Y-5900984D02*
X8027324Y-5891460D01*
X8027324Y-5891460D02*
X8017801Y-5881936D01*
X8017801Y-5881936D02*
X8008277Y-5862888D01*
X8008277Y-5862888D02*
X7998753Y-5824793D01*
X7998753Y-5824793D02*
X7998753Y-5777174D01*
X7998753Y-5777174D02*
X8008277Y-5739079D01*
X8008277Y-5739079D02*
X8017801Y-5720031D01*
X8017801Y-5720031D02*
X8027324Y-5710508D01*
X8027324Y-5710508D02*
X8046372Y-5700984D01*
X8198753Y-5881936D02*
X8208277Y-5891460D01*
X8208277Y-5891460D02*
X8198753Y-5900984D01*
X8198753Y-5900984D02*
X8189229Y-5891460D01*
X8189229Y-5891460D02*
X8198753Y-5881936D01*
X8198753Y-5881936D02*
X8198753Y-5900984D01*
X8274943Y-5700984D02*
X8408277Y-5700984D01*
X8408277Y-5700984D02*
X8322562Y-5900984D01*
X8522563Y-5700984D02*
X8541610Y-5700984D01*
X8541610Y-5700984D02*
X8560658Y-5710508D01*
X8560658Y-5710508D02*
X8570182Y-5720031D01*
X8570182Y-5720031D02*
X8579705Y-5739079D01*
X8579705Y-5739079D02*
X8589229Y-5777174D01*
X8589229Y-5777174D02*
X8589229Y-5824793D01*
X8589229Y-5824793D02*
X8579705Y-5862888D01*
X8579705Y-5862888D02*
X8570182Y-5881936D01*
X8570182Y-5881936D02*
X8560658Y-5891460D01*
X8560658Y-5891460D02*
X8541610Y-5900984D01*
X8541610Y-5900984D02*
X8522563Y-5900984D01*
X8522563Y-5900984D02*
X8503515Y-5891460D01*
X8503515Y-5891460D02*
X8493991Y-5881936D01*
X8493991Y-5881936D02*
X8484467Y-5862888D01*
X8484467Y-5862888D02*
X8474944Y-5824793D01*
X8474944Y-5824793D02*
X8474944Y-5777174D01*
X8474944Y-5777174D02*
X8484467Y-5739079D01*
X8484467Y-5739079D02*
X8493991Y-5720031D01*
X8493991Y-5720031D02*
X8503515Y-5710508D01*
X8503515Y-5710508D02*
X8522563Y-5700984D01*
X8713039Y-5700984D02*
X8732086Y-5700984D01*
X8732086Y-5700984D02*
X8751134Y-5710508D01*
X8751134Y-5710508D02*
X8760658Y-5720031D01*
X8760658Y-5720031D02*
X8770182Y-5739079D01*
X8770182Y-5739079D02*
X8779705Y-5777174D01*
X8779705Y-5777174D02*
X8779705Y-5824793D01*
X8779705Y-5824793D02*
X8770182Y-5862888D01*
X8770182Y-5862888D02*
X8760658Y-5881936D01*
X8760658Y-5881936D02*
X8751134Y-5891460D01*
X8751134Y-5891460D02*
X8732086Y-5900984D01*
X8732086Y-5900984D02*
X8713039Y-5900984D01*
X8713039Y-5900984D02*
X8693991Y-5891460D01*
X8693991Y-5891460D02*
X8684467Y-5881936D01*
X8684467Y-5881936D02*
X8674944Y-5862888D01*
X8674944Y-5862888D02*
X8665420Y-5824793D01*
X8665420Y-5824793D02*
X8665420Y-5777174D01*
X8665420Y-5777174D02*
X8674944Y-5739079D01*
X8674944Y-5739079D02*
X8684467Y-5720031D01*
X8684467Y-5720031D02*
X8693991Y-5710508D01*
X8693991Y-5710508D02*
X8713039Y-5700984D01*
X8865420Y-5900984D02*
X8865420Y-5767650D01*
X8865420Y-5786698D02*
X8874944Y-5777174D01*
X8874944Y-5777174D02*
X8893991Y-5767650D01*
X8893991Y-5767650D02*
X8922563Y-5767650D01*
X8922563Y-5767650D02*
X8941610Y-5777174D01*
X8941610Y-5777174D02*
X8951134Y-5796222D01*
X8951134Y-5796222D02*
X8951134Y-5900984D01*
X8951134Y-5796222D02*
X8960658Y-5777174D01*
X8960658Y-5777174D02*
X8979705Y-5767650D01*
X8979705Y-5767650D02*
X9008277Y-5767650D01*
X9008277Y-5767650D02*
X9027325Y-5777174D01*
X9027325Y-5777174D02*
X9036848Y-5796222D01*
X9036848Y-5796222D02*
X9036848Y-5900984D01*
X9132086Y-5900984D02*
X9132086Y-5767650D01*
X9132086Y-5786698D02*
X9141610Y-5777174D01*
X9141610Y-5777174D02*
X9160658Y-5767650D01*
X9160658Y-5767650D02*
X9189229Y-5767650D01*
X9189229Y-5767650D02*
X9208277Y-5777174D01*
X9208277Y-5777174D02*
X9217801Y-5796222D01*
X9217801Y-5796222D02*
X9217801Y-5900984D01*
X9217801Y-5796222D02*
X9227325Y-5777174D01*
X9227325Y-5777174D02*
X9246372Y-5767650D01*
X9246372Y-5767650D02*
X9274944Y-5767650D01*
X9274944Y-5767650D02*
X9293991Y-5777174D01*
X9293991Y-5777174D02*
X9303515Y-5796222D01*
X9303515Y-5796222D02*
X9303515Y-5900984D01*
X9693991Y-5691460D02*
X9522563Y-5948603D01*
X9951134Y-5700984D02*
X9970182Y-5700984D01*
X9970182Y-5700984D02*
X9989229Y-5710508D01*
X9989229Y-5710508D02*
X9998753Y-5720031D01*
X9998753Y-5720031D02*
X10008277Y-5739079D01*
X10008277Y-5739079D02*
X10017801Y-5777174D01*
X10017801Y-5777174D02*
X10017801Y-5824793D01*
X10017801Y-5824793D02*
X10008277Y-5862888D01*
X10008277Y-5862888D02*
X9998753Y-5881936D01*
X9998753Y-5881936D02*
X9989229Y-5891460D01*
X9989229Y-5891460D02*
X9970182Y-5900984D01*
X9970182Y-5900984D02*
X9951134Y-5900984D01*
X9951134Y-5900984D02*
X9932087Y-5891460D01*
X9932087Y-5891460D02*
X9922563Y-5881936D01*
X9922563Y-5881936D02*
X9913039Y-5862888D01*
X9913039Y-5862888D02*
X9903515Y-5824793D01*
X9903515Y-5824793D02*
X9903515Y-5777174D01*
X9903515Y-5777174D02*
X9913039Y-5739079D01*
X9913039Y-5739079D02*
X9922563Y-5720031D01*
X9922563Y-5720031D02*
X9932087Y-5710508D01*
X9932087Y-5710508D02*
X9951134Y-5700984D01*
X10103515Y-5881936D02*
X10113039Y-5891460D01*
X10113039Y-5891460D02*
X10103515Y-5900984D01*
X10103515Y-5900984D02*
X10093991Y-5891460D01*
X10093991Y-5891460D02*
X10103515Y-5881936D01*
X10103515Y-5881936D02*
X10103515Y-5900984D01*
X10236848Y-5700984D02*
X10255896Y-5700984D01*
X10255896Y-5700984D02*
X10274944Y-5710508D01*
X10274944Y-5710508D02*
X10284468Y-5720031D01*
X10284468Y-5720031D02*
X10293991Y-5739079D01*
X10293991Y-5739079D02*
X10303515Y-5777174D01*
X10303515Y-5777174D02*
X10303515Y-5824793D01*
X10303515Y-5824793D02*
X10293991Y-5862888D01*
X10293991Y-5862888D02*
X10284468Y-5881936D01*
X10284468Y-5881936D02*
X10274944Y-5891460D01*
X10274944Y-5891460D02*
X10255896Y-5900984D01*
X10255896Y-5900984D02*
X10236848Y-5900984D01*
X10236848Y-5900984D02*
X10217801Y-5891460D01*
X10217801Y-5891460D02*
X10208277Y-5881936D01*
X10208277Y-5881936D02*
X10198753Y-5862888D01*
X10198753Y-5862888D02*
X10189229Y-5824793D01*
X10189229Y-5824793D02*
X10189229Y-5777174D01*
X10189229Y-5777174D02*
X10198753Y-5739079D01*
X10198753Y-5739079D02*
X10208277Y-5720031D01*
X10208277Y-5720031D02*
X10217801Y-5710508D01*
X10217801Y-5710508D02*
X10236848Y-5700984D01*
X10379706Y-5720031D02*
X10389229Y-5710508D01*
X10389229Y-5710508D02*
X10408277Y-5700984D01*
X10408277Y-5700984D02*
X10455896Y-5700984D01*
X10455896Y-5700984D02*
X10474944Y-5710508D01*
X10474944Y-5710508D02*
X10484468Y-5720031D01*
X10484468Y-5720031D02*
X10493991Y-5739079D01*
X10493991Y-5739079D02*
X10493991Y-5758127D01*
X10493991Y-5758127D02*
X10484468Y-5786698D01*
X10484468Y-5786698D02*
X10370182Y-5900984D01*
X10370182Y-5900984D02*
X10493991Y-5900984D01*
X10560658Y-5700984D02*
X10693991Y-5700984D01*
X10693991Y-5700984D02*
X10608277Y-5900984D01*
X10855896Y-5700984D02*
X10817801Y-5700984D01*
X10817801Y-5700984D02*
X10798753Y-5710508D01*
X10798753Y-5710508D02*
X10789229Y-5720031D01*
X10789229Y-5720031D02*
X10770182Y-5748603D01*
X10770182Y-5748603D02*
X10760658Y-5786698D01*
X10760658Y-5786698D02*
X10760658Y-5862888D01*
X10760658Y-5862888D02*
X10770182Y-5881936D01*
X10770182Y-5881936D02*
X10779706Y-5891460D01*
X10779706Y-5891460D02*
X10798753Y-5900984D01*
X10798753Y-5900984D02*
X10836849Y-5900984D01*
X10836849Y-5900984D02*
X10855896Y-5891460D01*
X10855896Y-5891460D02*
X10865420Y-5881936D01*
X10865420Y-5881936D02*
X10874944Y-5862888D01*
X10874944Y-5862888D02*
X10874944Y-5815269D01*
X10874944Y-5815269D02*
X10865420Y-5796222D01*
X10865420Y-5796222D02*
X10855896Y-5786698D01*
X10855896Y-5786698D02*
X10836849Y-5777174D01*
X10836849Y-5777174D02*
X10798753Y-5777174D01*
X10798753Y-5777174D02*
X10779706Y-5786698D01*
X10779706Y-5786698D02*
X10770182Y-5796222D01*
X10770182Y-5796222D02*
X10760658Y-5815269D01*
X10951134Y-5700984D02*
X10951134Y-5739079D01*
X11027325Y-5700984D02*
X11027325Y-5739079D01*
X11322563Y-5977174D02*
X11313039Y-5967650D01*
X11313039Y-5967650D02*
X11293991Y-5939079D01*
X11293991Y-5939079D02*
X11284468Y-5920031D01*
X11284468Y-5920031D02*
X11274944Y-5891460D01*
X11274944Y-5891460D02*
X11265420Y-5843841D01*
X11265420Y-5843841D02*
X11265420Y-5805746D01*
X11265420Y-5805746D02*
X11274944Y-5758127D01*
X11274944Y-5758127D02*
X11284468Y-5729555D01*
X11284468Y-5729555D02*
X11293991Y-5710508D01*
X11293991Y-5710508D02*
X11313039Y-5681936D01*
X11313039Y-5681936D02*
X11322563Y-5672412D01*
X11408277Y-5900984D02*
X11446372Y-5900984D01*
X11446372Y-5900984D02*
X11465420Y-5891460D01*
X11465420Y-5891460D02*
X11474944Y-5881936D01*
X11474944Y-5881936D02*
X11493991Y-5853365D01*
X11493991Y-5853365D02*
X11503515Y-5815269D01*
X11503515Y-5815269D02*
X11503515Y-5739079D01*
X11503515Y-5739079D02*
X11493991Y-5720031D01*
X11493991Y-5720031D02*
X11484468Y-5710508D01*
X11484468Y-5710508D02*
X11465420Y-5700984D01*
X11465420Y-5700984D02*
X11427325Y-5700984D01*
X11427325Y-5700984D02*
X11408277Y-5710508D01*
X11408277Y-5710508D02*
X11398753Y-5720031D01*
X11398753Y-5720031D02*
X11389229Y-5739079D01*
X11389229Y-5739079D02*
X11389229Y-5786698D01*
X11389229Y-5786698D02*
X11398753Y-5805746D01*
X11398753Y-5805746D02*
X11408277Y-5815269D01*
X11408277Y-5815269D02*
X11427325Y-5824793D01*
X11427325Y-5824793D02*
X11465420Y-5824793D01*
X11465420Y-5824793D02*
X11484468Y-5815269D01*
X11484468Y-5815269D02*
X11493991Y-5805746D01*
X11493991Y-5805746D02*
X11503515Y-5786698D01*
X11741610Y-5900984D02*
X11741610Y-5700984D01*
X11827325Y-5900984D02*
X11827325Y-5796222D01*
X11827325Y-5796222D02*
X11817801Y-5777174D01*
X11817801Y-5777174D02*
X11798753Y-5767650D01*
X11798753Y-5767650D02*
X11770182Y-5767650D01*
X11770182Y-5767650D02*
X11751134Y-5777174D01*
X11751134Y-5777174D02*
X11741610Y-5786698D01*
X11951134Y-5900984D02*
X11932087Y-5891460D01*
X11932087Y-5891460D02*
X11922563Y-5881936D01*
X11922563Y-5881936D02*
X11913039Y-5862888D01*
X11913039Y-5862888D02*
X11913039Y-5805746D01*
X11913039Y-5805746D02*
X11922563Y-5786698D01*
X11922563Y-5786698D02*
X11932087Y-5777174D01*
X11932087Y-5777174D02*
X11951134Y-5767650D01*
X11951134Y-5767650D02*
X11979706Y-5767650D01*
X11979706Y-5767650D02*
X11998753Y-5777174D01*
X11998753Y-5777174D02*
X12008277Y-5786698D01*
X12008277Y-5786698D02*
X12017801Y-5805746D01*
X12017801Y-5805746D02*
X12017801Y-5862888D01*
X12017801Y-5862888D02*
X12008277Y-5881936D01*
X12008277Y-5881936D02*
X11998753Y-5891460D01*
X11998753Y-5891460D02*
X11979706Y-5900984D01*
X11979706Y-5900984D02*
X11951134Y-5900984D01*
X12132087Y-5900984D02*
X12113039Y-5891460D01*
X12113039Y-5891460D02*
X12103515Y-5872412D01*
X12103515Y-5872412D02*
X12103515Y-5700984D01*
X12284468Y-5891460D02*
X12265420Y-5900984D01*
X12265420Y-5900984D02*
X12227325Y-5900984D01*
X12227325Y-5900984D02*
X12208277Y-5891460D01*
X12208277Y-5891460D02*
X12198753Y-5872412D01*
X12198753Y-5872412D02*
X12198753Y-5796222D01*
X12198753Y-5796222D02*
X12208277Y-5777174D01*
X12208277Y-5777174D02*
X12227325Y-5767650D01*
X12227325Y-5767650D02*
X12265420Y-5767650D01*
X12265420Y-5767650D02*
X12284468Y-5777174D01*
X12284468Y-5777174D02*
X12293991Y-5796222D01*
X12293991Y-5796222D02*
X12293991Y-5815269D01*
X12293991Y-5815269D02*
X12198753Y-5834317D01*
X12370182Y-5891460D02*
X12389230Y-5900984D01*
X12389230Y-5900984D02*
X12427325Y-5900984D01*
X12427325Y-5900984D02*
X12446372Y-5891460D01*
X12446372Y-5891460D02*
X12455896Y-5872412D01*
X12455896Y-5872412D02*
X12455896Y-5862888D01*
X12455896Y-5862888D02*
X12446372Y-5843841D01*
X12446372Y-5843841D02*
X12427325Y-5834317D01*
X12427325Y-5834317D02*
X12398753Y-5834317D01*
X12398753Y-5834317D02*
X12379706Y-5824793D01*
X12379706Y-5824793D02*
X12370182Y-5805746D01*
X12370182Y-5805746D02*
X12370182Y-5796222D01*
X12370182Y-5796222D02*
X12379706Y-5777174D01*
X12379706Y-5777174D02*
X12398753Y-5767650D01*
X12398753Y-5767650D02*
X12427325Y-5767650D01*
X12427325Y-5767650D02*
X12446372Y-5777174D01*
X12522563Y-5977174D02*
X12532087Y-5967650D01*
X12532087Y-5967650D02*
X12551134Y-5939079D01*
X12551134Y-5939079D02*
X12560658Y-5920031D01*
X12560658Y-5920031D02*
X12570182Y-5891460D01*
X12570182Y-5891460D02*
X12579706Y-5843841D01*
X12579706Y-5843841D02*
X12579706Y-5805746D01*
X12579706Y-5805746D02*
X12570182Y-5758127D01*
X12570182Y-5758127D02*
X12560658Y-5729555D01*
X12560658Y-5729555D02*
X12551134Y-5710508D01*
X12551134Y-5710508D02*
X12532087Y-5681936D01*
X12532087Y-5681936D02*
X12522563Y-5672412D01*
D15*
X7707500Y-6113500D02*
X7747500Y-6073500D01*
X7707500Y-6033500D01*
X7667500Y-6073500D01*
X7707500Y-6113500D01*
D11*
X8046372Y-5964984D02*
X8065420Y-5964984D01*
X8065420Y-5964984D02*
X8084467Y-5974508D01*
X8084467Y-5974508D02*
X8093991Y-5984031D01*
X8093991Y-5984031D02*
X8103515Y-6003079D01*
X8103515Y-6003079D02*
X8113039Y-6041174D01*
X8113039Y-6041174D02*
X8113039Y-6088793D01*
X8113039Y-6088793D02*
X8103515Y-6126888D01*
X8103515Y-6126888D02*
X8093991Y-6145936D01*
X8093991Y-6145936D02*
X8084467Y-6155460D01*
X8084467Y-6155460D02*
X8065420Y-6164984D01*
X8065420Y-6164984D02*
X8046372Y-6164984D01*
X8046372Y-6164984D02*
X8027324Y-6155460D01*
X8027324Y-6155460D02*
X8017801Y-6145936D01*
X8017801Y-6145936D02*
X8008277Y-6126888D01*
X8008277Y-6126888D02*
X7998753Y-6088793D01*
X7998753Y-6088793D02*
X7998753Y-6041174D01*
X7998753Y-6041174D02*
X8008277Y-6003079D01*
X8008277Y-6003079D02*
X8017801Y-5984031D01*
X8017801Y-5984031D02*
X8027324Y-5974508D01*
X8027324Y-5974508D02*
X8046372Y-5964984D01*
X8198753Y-6145936D02*
X8208277Y-6155460D01*
X8208277Y-6155460D02*
X8198753Y-6164984D01*
X8198753Y-6164984D02*
X8189229Y-6155460D01*
X8189229Y-6155460D02*
X8198753Y-6145936D01*
X8198753Y-6145936D02*
X8198753Y-6164984D01*
X8322562Y-6050698D02*
X8303515Y-6041174D01*
X8303515Y-6041174D02*
X8293991Y-6031650D01*
X8293991Y-6031650D02*
X8284467Y-6012603D01*
X8284467Y-6012603D02*
X8284467Y-6003079D01*
X8284467Y-6003079D02*
X8293991Y-5984031D01*
X8293991Y-5984031D02*
X8303515Y-5974508D01*
X8303515Y-5974508D02*
X8322562Y-5964984D01*
X8322562Y-5964984D02*
X8360658Y-5964984D01*
X8360658Y-5964984D02*
X8379705Y-5974508D01*
X8379705Y-5974508D02*
X8389229Y-5984031D01*
X8389229Y-5984031D02*
X8398753Y-6003079D01*
X8398753Y-6003079D02*
X8398753Y-6012603D01*
X8398753Y-6012603D02*
X8389229Y-6031650D01*
X8389229Y-6031650D02*
X8379705Y-6041174D01*
X8379705Y-6041174D02*
X8360658Y-6050698D01*
X8360658Y-6050698D02*
X8322562Y-6050698D01*
X8322562Y-6050698D02*
X8303515Y-6060222D01*
X8303515Y-6060222D02*
X8293991Y-6069746D01*
X8293991Y-6069746D02*
X8284467Y-6088793D01*
X8284467Y-6088793D02*
X8284467Y-6126888D01*
X8284467Y-6126888D02*
X8293991Y-6145936D01*
X8293991Y-6145936D02*
X8303515Y-6155460D01*
X8303515Y-6155460D02*
X8322562Y-6164984D01*
X8322562Y-6164984D02*
X8360658Y-6164984D01*
X8360658Y-6164984D02*
X8379705Y-6155460D01*
X8379705Y-6155460D02*
X8389229Y-6145936D01*
X8389229Y-6145936D02*
X8398753Y-6126888D01*
X8398753Y-6126888D02*
X8398753Y-6088793D01*
X8398753Y-6088793D02*
X8389229Y-6069746D01*
X8389229Y-6069746D02*
X8379705Y-6060222D01*
X8379705Y-6060222D02*
X8360658Y-6050698D01*
X8522563Y-5964984D02*
X8541610Y-5964984D01*
X8541610Y-5964984D02*
X8560658Y-5974508D01*
X8560658Y-5974508D02*
X8570182Y-5984031D01*
X8570182Y-5984031D02*
X8579705Y-6003079D01*
X8579705Y-6003079D02*
X8589229Y-6041174D01*
X8589229Y-6041174D02*
X8589229Y-6088793D01*
X8589229Y-6088793D02*
X8579705Y-6126888D01*
X8579705Y-6126888D02*
X8570182Y-6145936D01*
X8570182Y-6145936D02*
X8560658Y-6155460D01*
X8560658Y-6155460D02*
X8541610Y-6164984D01*
X8541610Y-6164984D02*
X8522563Y-6164984D01*
X8522563Y-6164984D02*
X8503515Y-6155460D01*
X8503515Y-6155460D02*
X8493991Y-6145936D01*
X8493991Y-6145936D02*
X8484467Y-6126888D01*
X8484467Y-6126888D02*
X8474944Y-6088793D01*
X8474944Y-6088793D02*
X8474944Y-6041174D01*
X8474944Y-6041174D02*
X8484467Y-6003079D01*
X8484467Y-6003079D02*
X8493991Y-5984031D01*
X8493991Y-5984031D02*
X8503515Y-5974508D01*
X8503515Y-5974508D02*
X8522563Y-5964984D01*
X8713039Y-5964984D02*
X8732086Y-5964984D01*
X8732086Y-5964984D02*
X8751134Y-5974508D01*
X8751134Y-5974508D02*
X8760658Y-5984031D01*
X8760658Y-5984031D02*
X8770182Y-6003079D01*
X8770182Y-6003079D02*
X8779705Y-6041174D01*
X8779705Y-6041174D02*
X8779705Y-6088793D01*
X8779705Y-6088793D02*
X8770182Y-6126888D01*
X8770182Y-6126888D02*
X8760658Y-6145936D01*
X8760658Y-6145936D02*
X8751134Y-6155460D01*
X8751134Y-6155460D02*
X8732086Y-6164984D01*
X8732086Y-6164984D02*
X8713039Y-6164984D01*
X8713039Y-6164984D02*
X8693991Y-6155460D01*
X8693991Y-6155460D02*
X8684467Y-6145936D01*
X8684467Y-6145936D02*
X8674944Y-6126888D01*
X8674944Y-6126888D02*
X8665420Y-6088793D01*
X8665420Y-6088793D02*
X8665420Y-6041174D01*
X8665420Y-6041174D02*
X8674944Y-6003079D01*
X8674944Y-6003079D02*
X8684467Y-5984031D01*
X8684467Y-5984031D02*
X8693991Y-5974508D01*
X8693991Y-5974508D02*
X8713039Y-5964984D01*
X8865420Y-6164984D02*
X8865420Y-6031650D01*
X8865420Y-6050698D02*
X8874944Y-6041174D01*
X8874944Y-6041174D02*
X8893991Y-6031650D01*
X8893991Y-6031650D02*
X8922563Y-6031650D01*
X8922563Y-6031650D02*
X8941610Y-6041174D01*
X8941610Y-6041174D02*
X8951134Y-6060222D01*
X8951134Y-6060222D02*
X8951134Y-6164984D01*
X8951134Y-6060222D02*
X8960658Y-6041174D01*
X8960658Y-6041174D02*
X8979705Y-6031650D01*
X8979705Y-6031650D02*
X9008277Y-6031650D01*
X9008277Y-6031650D02*
X9027325Y-6041174D01*
X9027325Y-6041174D02*
X9036848Y-6060222D01*
X9036848Y-6060222D02*
X9036848Y-6164984D01*
X9132086Y-6164984D02*
X9132086Y-6031650D01*
X9132086Y-6050698D02*
X9141610Y-6041174D01*
X9141610Y-6041174D02*
X9160658Y-6031650D01*
X9160658Y-6031650D02*
X9189229Y-6031650D01*
X9189229Y-6031650D02*
X9208277Y-6041174D01*
X9208277Y-6041174D02*
X9217801Y-6060222D01*
X9217801Y-6060222D02*
X9217801Y-6164984D01*
X9217801Y-6060222D02*
X9227325Y-6041174D01*
X9227325Y-6041174D02*
X9246372Y-6031650D01*
X9246372Y-6031650D02*
X9274944Y-6031650D01*
X9274944Y-6031650D02*
X9293991Y-6041174D01*
X9293991Y-6041174D02*
X9303515Y-6060222D01*
X9303515Y-6060222D02*
X9303515Y-6164984D01*
X9693991Y-5955460D02*
X9522563Y-6212603D01*
X9951134Y-5964984D02*
X9970182Y-5964984D01*
X9970182Y-5964984D02*
X9989229Y-5974508D01*
X9989229Y-5974508D02*
X9998753Y-5984031D01*
X9998753Y-5984031D02*
X10008277Y-6003079D01*
X10008277Y-6003079D02*
X10017801Y-6041174D01*
X10017801Y-6041174D02*
X10017801Y-6088793D01*
X10017801Y-6088793D02*
X10008277Y-6126888D01*
X10008277Y-6126888D02*
X9998753Y-6145936D01*
X9998753Y-6145936D02*
X9989229Y-6155460D01*
X9989229Y-6155460D02*
X9970182Y-6164984D01*
X9970182Y-6164984D02*
X9951134Y-6164984D01*
X9951134Y-6164984D02*
X9932087Y-6155460D01*
X9932087Y-6155460D02*
X9922563Y-6145936D01*
X9922563Y-6145936D02*
X9913039Y-6126888D01*
X9913039Y-6126888D02*
X9903515Y-6088793D01*
X9903515Y-6088793D02*
X9903515Y-6041174D01*
X9903515Y-6041174D02*
X9913039Y-6003079D01*
X9913039Y-6003079D02*
X9922563Y-5984031D01*
X9922563Y-5984031D02*
X9932087Y-5974508D01*
X9932087Y-5974508D02*
X9951134Y-5964984D01*
X10103515Y-6145936D02*
X10113039Y-6155460D01*
X10113039Y-6155460D02*
X10103515Y-6164984D01*
X10103515Y-6164984D02*
X10093991Y-6155460D01*
X10093991Y-6155460D02*
X10103515Y-6145936D01*
X10103515Y-6145936D02*
X10103515Y-6164984D01*
X10236848Y-5964984D02*
X10255896Y-5964984D01*
X10255896Y-5964984D02*
X10274944Y-5974508D01*
X10274944Y-5974508D02*
X10284468Y-5984031D01*
X10284468Y-5984031D02*
X10293991Y-6003079D01*
X10293991Y-6003079D02*
X10303515Y-6041174D01*
X10303515Y-6041174D02*
X10303515Y-6088793D01*
X10303515Y-6088793D02*
X10293991Y-6126888D01*
X10293991Y-6126888D02*
X10284468Y-6145936D01*
X10284468Y-6145936D02*
X10274944Y-6155460D01*
X10274944Y-6155460D02*
X10255896Y-6164984D01*
X10255896Y-6164984D02*
X10236848Y-6164984D01*
X10236848Y-6164984D02*
X10217801Y-6155460D01*
X10217801Y-6155460D02*
X10208277Y-6145936D01*
X10208277Y-6145936D02*
X10198753Y-6126888D01*
X10198753Y-6126888D02*
X10189229Y-6088793D01*
X10189229Y-6088793D02*
X10189229Y-6041174D01*
X10189229Y-6041174D02*
X10198753Y-6003079D01*
X10198753Y-6003079D02*
X10208277Y-5984031D01*
X10208277Y-5984031D02*
X10217801Y-5974508D01*
X10217801Y-5974508D02*
X10236848Y-5964984D01*
X10370182Y-5964984D02*
X10493991Y-5964984D01*
X10493991Y-5964984D02*
X10427325Y-6041174D01*
X10427325Y-6041174D02*
X10455896Y-6041174D01*
X10455896Y-6041174D02*
X10474944Y-6050698D01*
X10474944Y-6050698D02*
X10484468Y-6060222D01*
X10484468Y-6060222D02*
X10493991Y-6079269D01*
X10493991Y-6079269D02*
X10493991Y-6126888D01*
X10493991Y-6126888D02*
X10484468Y-6145936D01*
X10484468Y-6145936D02*
X10474944Y-6155460D01*
X10474944Y-6155460D02*
X10455896Y-6164984D01*
X10455896Y-6164984D02*
X10398753Y-6164984D01*
X10398753Y-6164984D02*
X10379706Y-6155460D01*
X10379706Y-6155460D02*
X10370182Y-6145936D01*
X10684468Y-6164984D02*
X10570182Y-6164984D01*
X10627325Y-6164984D02*
X10627325Y-5964984D01*
X10627325Y-5964984D02*
X10608277Y-5993555D01*
X10608277Y-5993555D02*
X10589229Y-6012603D01*
X10589229Y-6012603D02*
X10570182Y-6022127D01*
X10865420Y-5964984D02*
X10770182Y-5964984D01*
X10770182Y-5964984D02*
X10760658Y-6060222D01*
X10760658Y-6060222D02*
X10770182Y-6050698D01*
X10770182Y-6050698D02*
X10789229Y-6041174D01*
X10789229Y-6041174D02*
X10836849Y-6041174D01*
X10836849Y-6041174D02*
X10855896Y-6050698D01*
X10855896Y-6050698D02*
X10865420Y-6060222D01*
X10865420Y-6060222D02*
X10874944Y-6079269D01*
X10874944Y-6079269D02*
X10874944Y-6126888D01*
X10874944Y-6126888D02*
X10865420Y-6145936D01*
X10865420Y-6145936D02*
X10855896Y-6155460D01*
X10855896Y-6155460D02*
X10836849Y-6164984D01*
X10836849Y-6164984D02*
X10789229Y-6164984D01*
X10789229Y-6164984D02*
X10770182Y-6155460D01*
X10770182Y-6155460D02*
X10760658Y-6145936D01*
X10951134Y-5964984D02*
X10951134Y-6003079D01*
X11027325Y-5964984D02*
X11027325Y-6003079D01*
X11322563Y-6241174D02*
X11313039Y-6231650D01*
X11313039Y-6231650D02*
X11293991Y-6203079D01*
X11293991Y-6203079D02*
X11284468Y-6184031D01*
X11284468Y-6184031D02*
X11274944Y-6155460D01*
X11274944Y-6155460D02*
X11265420Y-6107841D01*
X11265420Y-6107841D02*
X11265420Y-6069746D01*
X11265420Y-6069746D02*
X11274944Y-6022127D01*
X11274944Y-6022127D02*
X11284468Y-5993555D01*
X11284468Y-5993555D02*
X11293991Y-5974508D01*
X11293991Y-5974508D02*
X11313039Y-5945936D01*
X11313039Y-5945936D02*
X11322563Y-5936412D01*
X11484468Y-6031650D02*
X11484468Y-6164984D01*
X11436848Y-5955460D02*
X11389229Y-6098317D01*
X11389229Y-6098317D02*
X11513039Y-6098317D01*
X11741610Y-6164984D02*
X11741610Y-5964984D01*
X11827325Y-6164984D02*
X11827325Y-6060222D01*
X11827325Y-6060222D02*
X11817801Y-6041174D01*
X11817801Y-6041174D02*
X11798753Y-6031650D01*
X11798753Y-6031650D02*
X11770182Y-6031650D01*
X11770182Y-6031650D02*
X11751134Y-6041174D01*
X11751134Y-6041174D02*
X11741610Y-6050698D01*
X11951134Y-6164984D02*
X11932087Y-6155460D01*
X11932087Y-6155460D02*
X11922563Y-6145936D01*
X11922563Y-6145936D02*
X11913039Y-6126888D01*
X11913039Y-6126888D02*
X11913039Y-6069746D01*
X11913039Y-6069746D02*
X11922563Y-6050698D01*
X11922563Y-6050698D02*
X11932087Y-6041174D01*
X11932087Y-6041174D02*
X11951134Y-6031650D01*
X11951134Y-6031650D02*
X11979706Y-6031650D01*
X11979706Y-6031650D02*
X11998753Y-6041174D01*
X11998753Y-6041174D02*
X12008277Y-6050698D01*
X12008277Y-6050698D02*
X12017801Y-6069746D01*
X12017801Y-6069746D02*
X12017801Y-6126888D01*
X12017801Y-6126888D02*
X12008277Y-6145936D01*
X12008277Y-6145936D02*
X11998753Y-6155460D01*
X11998753Y-6155460D02*
X11979706Y-6164984D01*
X11979706Y-6164984D02*
X11951134Y-6164984D01*
X12132087Y-6164984D02*
X12113039Y-6155460D01*
X12113039Y-6155460D02*
X12103515Y-6136412D01*
X12103515Y-6136412D02*
X12103515Y-5964984D01*
X12284468Y-6155460D02*
X12265420Y-6164984D01*
X12265420Y-6164984D02*
X12227325Y-6164984D01*
X12227325Y-6164984D02*
X12208277Y-6155460D01*
X12208277Y-6155460D02*
X12198753Y-6136412D01*
X12198753Y-6136412D02*
X12198753Y-6060222D01*
X12198753Y-6060222D02*
X12208277Y-6041174D01*
X12208277Y-6041174D02*
X12227325Y-6031650D01*
X12227325Y-6031650D02*
X12265420Y-6031650D01*
X12265420Y-6031650D02*
X12284468Y-6041174D01*
X12284468Y-6041174D02*
X12293991Y-6060222D01*
X12293991Y-6060222D02*
X12293991Y-6079269D01*
X12293991Y-6079269D02*
X12198753Y-6098317D01*
X12370182Y-6155460D02*
X12389230Y-6164984D01*
X12389230Y-6164984D02*
X12427325Y-6164984D01*
X12427325Y-6164984D02*
X12446372Y-6155460D01*
X12446372Y-6155460D02*
X12455896Y-6136412D01*
X12455896Y-6136412D02*
X12455896Y-6126888D01*
X12455896Y-6126888D02*
X12446372Y-6107841D01*
X12446372Y-6107841D02*
X12427325Y-6098317D01*
X12427325Y-6098317D02*
X12398753Y-6098317D01*
X12398753Y-6098317D02*
X12379706Y-6088793D01*
X12379706Y-6088793D02*
X12370182Y-6069746D01*
X12370182Y-6069746D02*
X12370182Y-6060222D01*
X12370182Y-6060222D02*
X12379706Y-6041174D01*
X12379706Y-6041174D02*
X12398753Y-6031650D01*
X12398753Y-6031650D02*
X12427325Y-6031650D01*
X12427325Y-6031650D02*
X12446372Y-6041174D01*
X12522563Y-6241174D02*
X12532087Y-6231650D01*
X12532087Y-6231650D02*
X12551134Y-6203079D01*
X12551134Y-6203079D02*
X12560658Y-6184031D01*
X12560658Y-6184031D02*
X12570182Y-6155460D01*
X12570182Y-6155460D02*
X12579706Y-6107841D01*
X12579706Y-6107841D02*
X12579706Y-6069746D01*
X12579706Y-6069746D02*
X12570182Y-6022127D01*
X12570182Y-6022127D02*
X12560658Y-5993555D01*
X12560658Y-5993555D02*
X12551134Y-5974508D01*
X12551134Y-5974508D02*
X12532087Y-5945936D01*
X12532087Y-5945936D02*
X12522563Y-5936412D01*
X7547500Y-6237500D02*
X7747500Y-6437500D01*
X7747500Y-6237500D02*
X7547500Y-6437500D01*
X7747500Y-6337500D02*
G75*
G03*
X7747500Y-6337500I-100000J0D01*
G01*
X7998753Y-6248031D02*
X8008277Y-6238508D01*
X8008277Y-6238508D02*
X8027324Y-6228984D01*
X8027324Y-6228984D02*
X8074943Y-6228984D01*
X8074943Y-6228984D02*
X8093991Y-6238508D01*
X8093991Y-6238508D02*
X8103515Y-6248031D01*
X8103515Y-6248031D02*
X8113039Y-6267079D01*
X8113039Y-6267079D02*
X8113039Y-6286127D01*
X8113039Y-6286127D02*
X8103515Y-6314698D01*
X8103515Y-6314698D02*
X7989229Y-6428984D01*
X7989229Y-6428984D02*
X8113039Y-6428984D01*
X8198753Y-6409936D02*
X8208277Y-6419460D01*
X8208277Y-6419460D02*
X8198753Y-6428984D01*
X8198753Y-6428984D02*
X8189229Y-6419460D01*
X8189229Y-6419460D02*
X8198753Y-6409936D01*
X8198753Y-6409936D02*
X8198753Y-6428984D01*
X8389229Y-6228984D02*
X8293991Y-6228984D01*
X8293991Y-6228984D02*
X8284467Y-6324222D01*
X8284467Y-6324222D02*
X8293991Y-6314698D01*
X8293991Y-6314698D02*
X8313039Y-6305174D01*
X8313039Y-6305174D02*
X8360658Y-6305174D01*
X8360658Y-6305174D02*
X8379705Y-6314698D01*
X8379705Y-6314698D02*
X8389229Y-6324222D01*
X8389229Y-6324222D02*
X8398753Y-6343269D01*
X8398753Y-6343269D02*
X8398753Y-6390888D01*
X8398753Y-6390888D02*
X8389229Y-6409936D01*
X8389229Y-6409936D02*
X8379705Y-6419460D01*
X8379705Y-6419460D02*
X8360658Y-6428984D01*
X8360658Y-6428984D02*
X8313039Y-6428984D01*
X8313039Y-6428984D02*
X8293991Y-6419460D01*
X8293991Y-6419460D02*
X8284467Y-6409936D01*
X8522563Y-6228984D02*
X8541610Y-6228984D01*
X8541610Y-6228984D02*
X8560658Y-6238508D01*
X8560658Y-6238508D02*
X8570182Y-6248031D01*
X8570182Y-6248031D02*
X8579705Y-6267079D01*
X8579705Y-6267079D02*
X8589229Y-6305174D01*
X8589229Y-6305174D02*
X8589229Y-6352793D01*
X8589229Y-6352793D02*
X8579705Y-6390888D01*
X8579705Y-6390888D02*
X8570182Y-6409936D01*
X8570182Y-6409936D02*
X8560658Y-6419460D01*
X8560658Y-6419460D02*
X8541610Y-6428984D01*
X8541610Y-6428984D02*
X8522563Y-6428984D01*
X8522563Y-6428984D02*
X8503515Y-6419460D01*
X8503515Y-6419460D02*
X8493991Y-6409936D01*
X8493991Y-6409936D02*
X8484467Y-6390888D01*
X8484467Y-6390888D02*
X8474944Y-6352793D01*
X8474944Y-6352793D02*
X8474944Y-6305174D01*
X8474944Y-6305174D02*
X8484467Y-6267079D01*
X8484467Y-6267079D02*
X8493991Y-6248031D01*
X8493991Y-6248031D02*
X8503515Y-6238508D01*
X8503515Y-6238508D02*
X8522563Y-6228984D01*
X8713039Y-6228984D02*
X8732086Y-6228984D01*
X8732086Y-6228984D02*
X8751134Y-6238508D01*
X8751134Y-6238508D02*
X8760658Y-6248031D01*
X8760658Y-6248031D02*
X8770182Y-6267079D01*
X8770182Y-6267079D02*
X8779705Y-6305174D01*
X8779705Y-6305174D02*
X8779705Y-6352793D01*
X8779705Y-6352793D02*
X8770182Y-6390888D01*
X8770182Y-6390888D02*
X8760658Y-6409936D01*
X8760658Y-6409936D02*
X8751134Y-6419460D01*
X8751134Y-6419460D02*
X8732086Y-6428984D01*
X8732086Y-6428984D02*
X8713039Y-6428984D01*
X8713039Y-6428984D02*
X8693991Y-6419460D01*
X8693991Y-6419460D02*
X8684467Y-6409936D01*
X8684467Y-6409936D02*
X8674944Y-6390888D01*
X8674944Y-6390888D02*
X8665420Y-6352793D01*
X8665420Y-6352793D02*
X8665420Y-6305174D01*
X8665420Y-6305174D02*
X8674944Y-6267079D01*
X8674944Y-6267079D02*
X8684467Y-6248031D01*
X8684467Y-6248031D02*
X8693991Y-6238508D01*
X8693991Y-6238508D02*
X8713039Y-6228984D01*
X8865420Y-6428984D02*
X8865420Y-6295650D01*
X8865420Y-6314698D02*
X8874944Y-6305174D01*
X8874944Y-6305174D02*
X8893991Y-6295650D01*
X8893991Y-6295650D02*
X8922563Y-6295650D01*
X8922563Y-6295650D02*
X8941610Y-6305174D01*
X8941610Y-6305174D02*
X8951134Y-6324222D01*
X8951134Y-6324222D02*
X8951134Y-6428984D01*
X8951134Y-6324222D02*
X8960658Y-6305174D01*
X8960658Y-6305174D02*
X8979705Y-6295650D01*
X8979705Y-6295650D02*
X9008277Y-6295650D01*
X9008277Y-6295650D02*
X9027325Y-6305174D01*
X9027325Y-6305174D02*
X9036848Y-6324222D01*
X9036848Y-6324222D02*
X9036848Y-6428984D01*
X9132086Y-6428984D02*
X9132086Y-6295650D01*
X9132086Y-6314698D02*
X9141610Y-6305174D01*
X9141610Y-6305174D02*
X9160658Y-6295650D01*
X9160658Y-6295650D02*
X9189229Y-6295650D01*
X9189229Y-6295650D02*
X9208277Y-6305174D01*
X9208277Y-6305174D02*
X9217801Y-6324222D01*
X9217801Y-6324222D02*
X9217801Y-6428984D01*
X9217801Y-6324222D02*
X9227325Y-6305174D01*
X9227325Y-6305174D02*
X9246372Y-6295650D01*
X9246372Y-6295650D02*
X9274944Y-6295650D01*
X9274944Y-6295650D02*
X9293991Y-6305174D01*
X9293991Y-6305174D02*
X9303515Y-6324222D01*
X9303515Y-6324222D02*
X9303515Y-6428984D01*
X9693991Y-6219460D02*
X9522563Y-6476603D01*
X9951134Y-6228984D02*
X9970182Y-6228984D01*
X9970182Y-6228984D02*
X9989229Y-6238508D01*
X9989229Y-6238508D02*
X9998753Y-6248031D01*
X9998753Y-6248031D02*
X10008277Y-6267079D01*
X10008277Y-6267079D02*
X10017801Y-6305174D01*
X10017801Y-6305174D02*
X10017801Y-6352793D01*
X10017801Y-6352793D02*
X10008277Y-6390888D01*
X10008277Y-6390888D02*
X9998753Y-6409936D01*
X9998753Y-6409936D02*
X9989229Y-6419460D01*
X9989229Y-6419460D02*
X9970182Y-6428984D01*
X9970182Y-6428984D02*
X9951134Y-6428984D01*
X9951134Y-6428984D02*
X9932087Y-6419460D01*
X9932087Y-6419460D02*
X9922563Y-6409936D01*
X9922563Y-6409936D02*
X9913039Y-6390888D01*
X9913039Y-6390888D02*
X9903515Y-6352793D01*
X9903515Y-6352793D02*
X9903515Y-6305174D01*
X9903515Y-6305174D02*
X9913039Y-6267079D01*
X9913039Y-6267079D02*
X9922563Y-6248031D01*
X9922563Y-6248031D02*
X9932087Y-6238508D01*
X9932087Y-6238508D02*
X9951134Y-6228984D01*
X10103515Y-6409936D02*
X10113039Y-6419460D01*
X10113039Y-6419460D02*
X10103515Y-6428984D01*
X10103515Y-6428984D02*
X10093991Y-6419460D01*
X10093991Y-6419460D02*
X10103515Y-6409936D01*
X10103515Y-6409936D02*
X10103515Y-6428984D01*
X10236848Y-6228984D02*
X10255896Y-6228984D01*
X10255896Y-6228984D02*
X10274944Y-6238508D01*
X10274944Y-6238508D02*
X10284468Y-6248031D01*
X10284468Y-6248031D02*
X10293991Y-6267079D01*
X10293991Y-6267079D02*
X10303515Y-6305174D01*
X10303515Y-6305174D02*
X10303515Y-6352793D01*
X10303515Y-6352793D02*
X10293991Y-6390888D01*
X10293991Y-6390888D02*
X10284468Y-6409936D01*
X10284468Y-6409936D02*
X10274944Y-6419460D01*
X10274944Y-6419460D02*
X10255896Y-6428984D01*
X10255896Y-6428984D02*
X10236848Y-6428984D01*
X10236848Y-6428984D02*
X10217801Y-6419460D01*
X10217801Y-6419460D02*
X10208277Y-6409936D01*
X10208277Y-6409936D02*
X10198753Y-6390888D01*
X10198753Y-6390888D02*
X10189229Y-6352793D01*
X10189229Y-6352793D02*
X10189229Y-6305174D01*
X10189229Y-6305174D02*
X10198753Y-6267079D01*
X10198753Y-6267079D02*
X10208277Y-6248031D01*
X10208277Y-6248031D02*
X10217801Y-6238508D01*
X10217801Y-6238508D02*
X10236848Y-6228984D01*
X10398753Y-6428984D02*
X10436848Y-6428984D01*
X10436848Y-6428984D02*
X10455896Y-6419460D01*
X10455896Y-6419460D02*
X10465420Y-6409936D01*
X10465420Y-6409936D02*
X10484468Y-6381365D01*
X10484468Y-6381365D02*
X10493991Y-6343269D01*
X10493991Y-6343269D02*
X10493991Y-6267079D01*
X10493991Y-6267079D02*
X10484468Y-6248031D01*
X10484468Y-6248031D02*
X10474944Y-6238508D01*
X10474944Y-6238508D02*
X10455896Y-6228984D01*
X10455896Y-6228984D02*
X10417801Y-6228984D01*
X10417801Y-6228984D02*
X10398753Y-6238508D01*
X10398753Y-6238508D02*
X10389229Y-6248031D01*
X10389229Y-6248031D02*
X10379706Y-6267079D01*
X10379706Y-6267079D02*
X10379706Y-6314698D01*
X10379706Y-6314698D02*
X10389229Y-6333746D01*
X10389229Y-6333746D02*
X10398753Y-6343269D01*
X10398753Y-6343269D02*
X10417801Y-6352793D01*
X10417801Y-6352793D02*
X10455896Y-6352793D01*
X10455896Y-6352793D02*
X10474944Y-6343269D01*
X10474944Y-6343269D02*
X10484468Y-6333746D01*
X10484468Y-6333746D02*
X10493991Y-6314698D01*
X10608277Y-6314698D02*
X10589229Y-6305174D01*
X10589229Y-6305174D02*
X10579706Y-6295650D01*
X10579706Y-6295650D02*
X10570182Y-6276603D01*
X10570182Y-6276603D02*
X10570182Y-6267079D01*
X10570182Y-6267079D02*
X10579706Y-6248031D01*
X10579706Y-6248031D02*
X10589229Y-6238508D01*
X10589229Y-6238508D02*
X10608277Y-6228984D01*
X10608277Y-6228984D02*
X10646372Y-6228984D01*
X10646372Y-6228984D02*
X10665420Y-6238508D01*
X10665420Y-6238508D02*
X10674944Y-6248031D01*
X10674944Y-6248031D02*
X10684468Y-6267079D01*
X10684468Y-6267079D02*
X10684468Y-6276603D01*
X10684468Y-6276603D02*
X10674944Y-6295650D01*
X10674944Y-6295650D02*
X10665420Y-6305174D01*
X10665420Y-6305174D02*
X10646372Y-6314698D01*
X10646372Y-6314698D02*
X10608277Y-6314698D01*
X10608277Y-6314698D02*
X10589229Y-6324222D01*
X10589229Y-6324222D02*
X10579706Y-6333746D01*
X10579706Y-6333746D02*
X10570182Y-6352793D01*
X10570182Y-6352793D02*
X10570182Y-6390888D01*
X10570182Y-6390888D02*
X10579706Y-6409936D01*
X10579706Y-6409936D02*
X10589229Y-6419460D01*
X10589229Y-6419460D02*
X10608277Y-6428984D01*
X10608277Y-6428984D02*
X10646372Y-6428984D01*
X10646372Y-6428984D02*
X10665420Y-6419460D01*
X10665420Y-6419460D02*
X10674944Y-6409936D01*
X10674944Y-6409936D02*
X10684468Y-6390888D01*
X10684468Y-6390888D02*
X10684468Y-6352793D01*
X10684468Y-6352793D02*
X10674944Y-6333746D01*
X10674944Y-6333746D02*
X10665420Y-6324222D01*
X10665420Y-6324222D02*
X10646372Y-6314698D01*
X10855896Y-6295650D02*
X10855896Y-6428984D01*
X10808277Y-6219460D02*
X10760658Y-6362317D01*
X10760658Y-6362317D02*
X10884468Y-6362317D01*
X10951134Y-6228984D02*
X10951134Y-6267079D01*
X11027325Y-6228984D02*
X11027325Y-6267079D01*
X11322563Y-6505174D02*
X11313039Y-6495650D01*
X11313039Y-6495650D02*
X11293991Y-6467079D01*
X11293991Y-6467079D02*
X11284468Y-6448031D01*
X11284468Y-6448031D02*
X11274944Y-6419460D01*
X11274944Y-6419460D02*
X11265420Y-6371841D01*
X11265420Y-6371841D02*
X11265420Y-6333746D01*
X11265420Y-6333746D02*
X11274944Y-6286127D01*
X11274944Y-6286127D02*
X11284468Y-6257555D01*
X11284468Y-6257555D02*
X11293991Y-6238508D01*
X11293991Y-6238508D02*
X11313039Y-6209936D01*
X11313039Y-6209936D02*
X11322563Y-6200412D01*
X11389229Y-6248031D02*
X11398753Y-6238508D01*
X11398753Y-6238508D02*
X11417801Y-6228984D01*
X11417801Y-6228984D02*
X11465420Y-6228984D01*
X11465420Y-6228984D02*
X11484468Y-6238508D01*
X11484468Y-6238508D02*
X11493991Y-6248031D01*
X11493991Y-6248031D02*
X11503515Y-6267079D01*
X11503515Y-6267079D02*
X11503515Y-6286127D01*
X11503515Y-6286127D02*
X11493991Y-6314698D01*
X11493991Y-6314698D02*
X11379706Y-6428984D01*
X11379706Y-6428984D02*
X11503515Y-6428984D01*
X11741610Y-6428984D02*
X11741610Y-6228984D01*
X11827325Y-6428984D02*
X11827325Y-6324222D01*
X11827325Y-6324222D02*
X11817801Y-6305174D01*
X11817801Y-6305174D02*
X11798753Y-6295650D01*
X11798753Y-6295650D02*
X11770182Y-6295650D01*
X11770182Y-6295650D02*
X11751134Y-6305174D01*
X11751134Y-6305174D02*
X11741610Y-6314698D01*
X11951134Y-6428984D02*
X11932087Y-6419460D01*
X11932087Y-6419460D02*
X11922563Y-6409936D01*
X11922563Y-6409936D02*
X11913039Y-6390888D01*
X11913039Y-6390888D02*
X11913039Y-6333746D01*
X11913039Y-6333746D02*
X11922563Y-6314698D01*
X11922563Y-6314698D02*
X11932087Y-6305174D01*
X11932087Y-6305174D02*
X11951134Y-6295650D01*
X11951134Y-6295650D02*
X11979706Y-6295650D01*
X11979706Y-6295650D02*
X11998753Y-6305174D01*
X11998753Y-6305174D02*
X12008277Y-6314698D01*
X12008277Y-6314698D02*
X12017801Y-6333746D01*
X12017801Y-6333746D02*
X12017801Y-6390888D01*
X12017801Y-6390888D02*
X12008277Y-6409936D01*
X12008277Y-6409936D02*
X11998753Y-6419460D01*
X11998753Y-6419460D02*
X11979706Y-6428984D01*
X11979706Y-6428984D02*
X11951134Y-6428984D01*
X12132087Y-6428984D02*
X12113039Y-6419460D01*
X12113039Y-6419460D02*
X12103515Y-6400412D01*
X12103515Y-6400412D02*
X12103515Y-6228984D01*
X12284468Y-6419460D02*
X12265420Y-6428984D01*
X12265420Y-6428984D02*
X12227325Y-6428984D01*
X12227325Y-6428984D02*
X12208277Y-6419460D01*
X12208277Y-6419460D02*
X12198753Y-6400412D01*
X12198753Y-6400412D02*
X12198753Y-6324222D01*
X12198753Y-6324222D02*
X12208277Y-6305174D01*
X12208277Y-6305174D02*
X12227325Y-6295650D01*
X12227325Y-6295650D02*
X12265420Y-6295650D01*
X12265420Y-6295650D02*
X12284468Y-6305174D01*
X12284468Y-6305174D02*
X12293991Y-6324222D01*
X12293991Y-6324222D02*
X12293991Y-6343269D01*
X12293991Y-6343269D02*
X12198753Y-6362317D01*
X12370182Y-6419460D02*
X12389230Y-6428984D01*
X12389230Y-6428984D02*
X12427325Y-6428984D01*
X12427325Y-6428984D02*
X12446372Y-6419460D01*
X12446372Y-6419460D02*
X12455896Y-6400412D01*
X12455896Y-6400412D02*
X12455896Y-6390888D01*
X12455896Y-6390888D02*
X12446372Y-6371841D01*
X12446372Y-6371841D02*
X12427325Y-6362317D01*
X12427325Y-6362317D02*
X12398753Y-6362317D01*
X12398753Y-6362317D02*
X12379706Y-6352793D01*
X12379706Y-6352793D02*
X12370182Y-6333746D01*
X12370182Y-6333746D02*
X12370182Y-6324222D01*
X12370182Y-6324222D02*
X12379706Y-6305174D01*
X12379706Y-6305174D02*
X12398753Y-6295650D01*
X12398753Y-6295650D02*
X12427325Y-6295650D01*
X12427325Y-6295650D02*
X12446372Y-6305174D01*
X12522563Y-6505174D02*
X12532087Y-6495650D01*
X12532087Y-6495650D02*
X12551134Y-6467079D01*
X12551134Y-6467079D02*
X12560658Y-6448031D01*
X12560658Y-6448031D02*
X12570182Y-6419460D01*
X12570182Y-6419460D02*
X12579706Y-6371841D01*
X12579706Y-6371841D02*
X12579706Y-6333746D01*
X12579706Y-6333746D02*
X12570182Y-6286127D01*
X12570182Y-6286127D02*
X12560658Y-6257555D01*
X12560658Y-6257555D02*
X12551134Y-6238508D01*
X12551134Y-6238508D02*
X12532087Y-6209936D01*
X12532087Y-6209936D02*
X12522563Y-6200412D01*
M02*
