G04 #@! TF.GenerationSoftware,KiCad,Pcbnew,7.0.6-7.0.6~ubuntu22.04.1*
G04 #@! TF.CreationDate,2023-07-08T17:09:40+02:00*
G04 #@! TF.ProjectId,combined,636f6d62-696e-4656-942e-6b696361645f,rev?*
G04 #@! TF.SameCoordinates,Original*
G04 #@! TF.FileFunction,Copper,L2,Bot*
G04 #@! TF.FilePolarity,Positive*
%FSLAX46Y46*%
G04 Gerber Fmt 4.6, Leading zero omitted, Abs format (unit mm)*
G04 Created by KiCad (PCBNEW 7.0.6-7.0.6~ubuntu22.04.1) date 2023-07-08 17:09:40*
%MOMM*%
%LPD*%
G01*
G04 APERTURE LIST*
G04 Aperture macros list*
%AMRoundRect*
0 Rectangle with rounded corners*
0 $1 Rounding radius*
0 $2 $3 $4 $5 $6 $7 $8 $9 X,Y pos of 4 corners*
0 Add a 4 corners polygon primitive as box body*
4,1,4,$2,$3,$4,$5,$6,$7,$8,$9,$2,$3,0*
0 Add four circle primitives for the rounded corners*
1,1,$1+$1,$2,$3*
1,1,$1+$1,$4,$5*
1,1,$1+$1,$6,$7*
1,1,$1+$1,$8,$9*
0 Add four rect primitives between the rounded corners*
20,1,$1+$1,$2,$3,$4,$5,0*
20,1,$1+$1,$4,$5,$6,$7,0*
20,1,$1+$1,$6,$7,$8,$9,0*
20,1,$1+$1,$8,$9,$2,$3,0*%
%AMHorizOval*
0 Thick line with rounded ends*
0 $1 width*
0 $2 $3 position (X,Y) of the first rounded end (center of the circle)*
0 $4 $5 position (X,Y) of the second rounded end (center of the circle)*
0 Add line between two ends*
20,1,$1,$2,$3,$4,$5,0*
0 Add two circle primitives to create the rounded ends*
1,1,$1,$2,$3*
1,1,$1,$4,$5*%
G04 Aperture macros list end*
G04 #@! TA.AperFunction,ComponentPad*
%ADD10C,1.400000*%
G04 #@! TD*
G04 #@! TA.AperFunction,ComponentPad*
%ADD11O,1.550000X0.890000*%
G04 #@! TD*
G04 #@! TA.AperFunction,ComponentPad*
%ADD12O,0.950000X1.250000*%
G04 #@! TD*
G04 #@! TA.AperFunction,SMDPad,CuDef*
%ADD13R,1.750000X0.600000*%
G04 #@! TD*
G04 #@! TA.AperFunction,SMDPad,CuDef*
%ADD14R,0.600000X1.750000*%
G04 #@! TD*
G04 #@! TA.AperFunction,ComponentPad*
%ADD15C,3.500000*%
G04 #@! TD*
G04 #@! TA.AperFunction,ComponentPad*
%ADD16RoundRect,0.249700X0.566110X0.141421X0.141421X0.566110X-0.566110X-0.141421X-0.141421X-0.566110X0*%
G04 #@! TD*
G04 #@! TA.AperFunction,ComponentPad*
%ADD17HorizOval,1.100000X0.141421X0.141421X-0.141421X-0.141421X0*%
G04 #@! TD*
G04 #@! TA.AperFunction,ComponentPad*
%ADD18RoundRect,0.249700X0.141421X-0.566110X0.566110X-0.141421X-0.141421X0.566110X-0.566110X0.141421X0*%
G04 #@! TD*
G04 #@! TA.AperFunction,ComponentPad*
%ADD19HorizOval,1.100000X-0.141421X0.141421X0.141421X-0.141421X0*%
G04 #@! TD*
G04 #@! TA.AperFunction,ViaPad*
%ADD20C,0.800000*%
G04 #@! TD*
G04 #@! TA.AperFunction,ViaPad*
%ADD21C,1.600000*%
G04 #@! TD*
G04 #@! TA.AperFunction,Conductor*
%ADD22C,0.250000*%
G04 #@! TD*
G04 #@! TA.AperFunction,Conductor*
%ADD23C,0.500000*%
G04 #@! TD*
G04 APERTURE END LIST*
D10*
X99314000Y-33401000D03*
D11*
X78950000Y-30250000D03*
D12*
X81650000Y-31250000D03*
X81650000Y-36250000D03*
D11*
X78950000Y-37250000D03*
D13*
X80750000Y-32500000D03*
X79000000Y-33500000D03*
X80750000Y-34500000D03*
X79000000Y-35500000D03*
D14*
X95750000Y-39500000D03*
X94750000Y-37750000D03*
X93750000Y-39500000D03*
X92750000Y-37750000D03*
X91750000Y-39500000D03*
X91250000Y-29000000D03*
X92250000Y-27250000D03*
X93250000Y-29000000D03*
X94250000Y-27250000D03*
X95250000Y-29000000D03*
D15*
X105000000Y-40250000D03*
X105000000Y-27250000D03*
D16*
X99500000Y-40500000D03*
D17*
X102328427Y-37671573D03*
X98227208Y-39227208D03*
X101055635Y-36398781D03*
D18*
X98250000Y-28250000D03*
D19*
X101078427Y-31078427D03*
X99522792Y-26977208D03*
X102351219Y-29805635D03*
D20*
X95949500Y-29402875D03*
D21*
X109474000Y-38760400D03*
D20*
X94437200Y-41587600D03*
X102870000Y-33781998D03*
D21*
X109500000Y-31750000D03*
D20*
X90250020Y-30750000D03*
X92500000Y-32750000D03*
D21*
X83559771Y-40965139D03*
D20*
X91000000Y-38000028D03*
X82984905Y-32648163D03*
X83263377Y-31603446D03*
X92250000Y-29325000D03*
X89250000Y-28750000D03*
X88000000Y-28750000D03*
D21*
X108000800Y-36830000D03*
D20*
X88137997Y-37084000D03*
X93514889Y-36379848D03*
X91725000Y-37275000D03*
X97005261Y-34970479D03*
X87750000Y-33500000D03*
X86410800Y-35204400D03*
X94783718Y-36197058D03*
X88750026Y-33500000D03*
X94496738Y-35239109D03*
X87250000Y-32500000D03*
D22*
X95949500Y-29402875D02*
X95546625Y-29000000D01*
X95546625Y-29000000D02*
X95250000Y-29000000D01*
D23*
X109500000Y-31750000D02*
X109500000Y-28638730D01*
X84297000Y-25050000D02*
X81650000Y-27697000D01*
X109500000Y-28638730D02*
X105911270Y-25050000D01*
X105911270Y-25050000D02*
X84297000Y-25050000D01*
X81650000Y-27697000D02*
X81650000Y-31250000D01*
X94437200Y-42468800D02*
X106896970Y-42468800D01*
X106896970Y-42468800D02*
X109474000Y-39891770D01*
X109474000Y-39891770D02*
X109474000Y-38760400D01*
D22*
X97005261Y-34970479D02*
X98227208Y-36192426D01*
X98227208Y-36192426D02*
X98227208Y-39227208D01*
D23*
X81650000Y-31100000D02*
X81996555Y-30753445D01*
X81650000Y-36250000D02*
X82625000Y-36250000D01*
X90033056Y-42468800D02*
X94437200Y-42468800D01*
X80750000Y-32500000D02*
X80750000Y-32150000D01*
X83671378Y-30753445D02*
X84284928Y-31366995D01*
X109500000Y-38734400D02*
X109474000Y-38760400D01*
X84284928Y-31366995D02*
X84284928Y-36720672D01*
X83095672Y-36720672D02*
X84284928Y-36720672D01*
X81996555Y-30753445D02*
X83671378Y-30753445D01*
X84284928Y-36720672D02*
X90033056Y-42468800D01*
X80750000Y-32150000D02*
X81650000Y-31250000D01*
X82625000Y-36250000D02*
X83095672Y-36720672D01*
X80375000Y-37780368D02*
X83559771Y-40965139D01*
X79575000Y-35500000D02*
X80375000Y-36300000D01*
X80375000Y-36300000D02*
X80375000Y-37780368D01*
D22*
X91750000Y-39500000D02*
X91200000Y-39500000D01*
X91000000Y-39300000D02*
X91000000Y-38000028D01*
X91200000Y-39500000D02*
X91000000Y-39300000D01*
X82133068Y-33500000D02*
X82984905Y-32648163D01*
X79000000Y-33500000D02*
X82133068Y-33500000D01*
X83709918Y-32968263D02*
X83709918Y-32049987D01*
X83663376Y-32003445D02*
X83263377Y-31603446D01*
X80750000Y-34500000D02*
X82178181Y-34500000D01*
X82178181Y-34500000D02*
X83709918Y-32968263D01*
X83709918Y-32049987D02*
X83663376Y-32003445D01*
X93250000Y-28875000D02*
X92700000Y-28875000D01*
X92700000Y-28875000D02*
X92250000Y-29325000D01*
X90875000Y-27125000D02*
X92250000Y-27125000D01*
X90875000Y-27125000D02*
X89250000Y-28750000D01*
X88000000Y-28750000D02*
X88750000Y-29500000D01*
X91250000Y-29000000D02*
X90750000Y-29500000D01*
X90750000Y-29500000D02*
X88750000Y-29500000D01*
D23*
X108000800Y-37249200D02*
X108000800Y-36830000D01*
X105000000Y-40250000D02*
X108000800Y-37249200D01*
D22*
X95674999Y-40700001D02*
X91188313Y-40700001D01*
X91188313Y-40700001D02*
X88137997Y-37649685D01*
X95750000Y-39500000D02*
X95750000Y-40625000D01*
X88137997Y-37649685D02*
X88137997Y-37084000D01*
X95750000Y-40625000D02*
X95674999Y-40700001D01*
X93750000Y-36614959D02*
X93514889Y-36379848D01*
X93750000Y-39500000D02*
X93750000Y-36614959D01*
X92750000Y-37750000D02*
X92200000Y-37750000D01*
X92200000Y-37750000D02*
X91725000Y-37275000D01*
X86410800Y-34839200D02*
X86410800Y-35204400D01*
X87750000Y-33500000D02*
X86410800Y-34839200D01*
X93774998Y-35598002D02*
X94374054Y-36197058D01*
X94374054Y-36197058D02*
X94783718Y-36197058D01*
X88750026Y-33500000D02*
X90848028Y-35598002D01*
X90848028Y-35598002D02*
X93774998Y-35598002D01*
X94496738Y-35239109D02*
X94096739Y-34839110D01*
X91404795Y-34839110D02*
X89065685Y-32500000D01*
X94096739Y-34839110D02*
X91404795Y-34839110D01*
X87250000Y-32500000D02*
X89065685Y-32500000D01*
G04 #@! TA.AperFunction,Conductor*
G36*
X99367450Y-25520943D02*
G01*
X99374407Y-25522995D01*
X99395996Y-25520980D01*
X103230042Y-25525979D01*
X103298133Y-25546069D01*
X103344556Y-25599785D01*
X103354568Y-25670072D01*
X103324991Y-25734615D01*
X103324606Y-25735055D01*
X103204363Y-25872166D01*
X103204360Y-25872170D01*
X103039883Y-26118329D01*
X102908944Y-26383848D01*
X102908938Y-26383862D01*
X102813778Y-26664194D01*
X102813776Y-26664204D01*
X102756018Y-26954564D01*
X102756016Y-26954578D01*
X102736654Y-27249996D01*
X102736654Y-27250003D01*
X102756016Y-27545421D01*
X102756018Y-27545435D01*
X102783979Y-27685998D01*
X102807569Y-27804595D01*
X102813776Y-27835795D01*
X102813778Y-27835805D01*
X102908938Y-28116137D01*
X102908944Y-28116151D01*
X103039883Y-28381670D01*
X103204359Y-28627827D01*
X103204361Y-28627830D01*
X103204367Y-28627838D01*
X103399573Y-28850427D01*
X103622162Y-29045633D01*
X103868327Y-29210115D01*
X103942729Y-29246806D01*
X103994977Y-29294873D01*
X104013000Y-29359811D01*
X104013000Y-38140188D01*
X103992998Y-38208309D01*
X103942728Y-38253194D01*
X103868329Y-38289883D01*
X103622172Y-38454359D01*
X103622165Y-38454364D01*
X103622162Y-38454367D01*
X103399573Y-38649573D01*
X103204367Y-38872162D01*
X103204364Y-38872165D01*
X103204359Y-38872172D01*
X103039883Y-39118329D01*
X102908944Y-39383848D01*
X102908938Y-39383862D01*
X102813778Y-39664194D01*
X102813776Y-39664201D01*
X102813776Y-39664203D01*
X102804105Y-39712818D01*
X102756018Y-39954564D01*
X102756016Y-39954578D01*
X102736654Y-40249996D01*
X102736654Y-40250003D01*
X102756016Y-40545421D01*
X102756018Y-40545435D01*
X102775334Y-40642538D01*
X102796465Y-40748772D01*
X102813776Y-40835795D01*
X102813778Y-40835805D01*
X102908938Y-41116137D01*
X102908944Y-41116151D01*
X103039883Y-41381670D01*
X103204359Y-41627827D01*
X103204361Y-41627830D01*
X103204367Y-41627838D01*
X103313013Y-41751725D01*
X103342889Y-41816126D01*
X103333203Y-41886459D01*
X103287030Y-41940391D01*
X103219030Y-41960798D01*
X103218280Y-41960800D01*
X99797021Y-41960800D01*
X99728900Y-41940798D01*
X99682407Y-41887142D01*
X99672303Y-41816868D01*
X99701797Y-41752288D01*
X99740472Y-41722202D01*
X99777777Y-41703466D01*
X99777778Y-41703465D01*
X99858649Y-41637588D01*
X100068512Y-41427724D01*
X100068513Y-41427723D01*
X99500000Y-40859210D01*
X98790064Y-41569145D01*
X98858502Y-41637584D01*
X98939378Y-41703465D01*
X98939379Y-41703466D01*
X98976685Y-41722202D01*
X99028583Y-41770649D01*
X99046050Y-41839464D01*
X99023540Y-41906798D01*
X98968200Y-41951273D01*
X98920136Y-41960800D01*
X90323790Y-41960800D01*
X90255669Y-41940798D01*
X90234695Y-41923895D01*
X84886801Y-36576000D01*
X84886800Y-36576000D01*
X84455000Y-36576000D01*
X90423237Y-42504674D01*
X90457469Y-42566872D01*
X90452639Y-42637705D01*
X90410282Y-42694682D01*
X90343845Y-42719713D01*
X90334465Y-42720065D01*
X81151527Y-42722032D01*
X81083402Y-42702045D01*
X81036898Y-42648399D01*
X81025500Y-42596032D01*
X81025500Y-42326812D01*
X81025500Y-42326803D01*
X80991548Y-41982078D01*
X80923970Y-41642340D01*
X80823417Y-41310862D01*
X80690858Y-40990837D01*
X80527569Y-40685345D01*
X80434075Y-40545421D01*
X80335122Y-40397327D01*
X80115382Y-40129573D01*
X80115374Y-40129563D01*
X80115365Y-40129554D01*
X80115357Y-40129545D01*
X79870454Y-39884642D01*
X79870444Y-39884633D01*
X79870437Y-39884626D01*
X79784592Y-39814175D01*
X79602672Y-39664877D01*
X79314657Y-39472432D01*
X79009163Y-39309142D01*
X78689136Y-39176582D01*
X78689133Y-39176581D01*
X78445025Y-39102532D01*
X78357660Y-39076030D01*
X78357657Y-39076029D01*
X78357646Y-39076026D01*
X78017927Y-39008453D01*
X78017922Y-39008452D01*
X78017915Y-39008451D01*
X78017906Y-39008450D01*
X77678421Y-38975014D01*
X77612589Y-38948432D01*
X77571579Y-38890477D01*
X77564771Y-38849843D01*
X77562913Y-37796264D01*
X77582795Y-37728111D01*
X77636369Y-37681524D01*
X77706625Y-37671296D01*
X77771257Y-37700675D01*
X77795842Y-37729396D01*
X77862500Y-37836341D01*
X77862510Y-37836354D01*
X77996042Y-37976827D01*
X77996041Y-37976827D01*
X78155121Y-38087550D01*
X78333232Y-38163982D01*
X78523087Y-38202999D01*
X78523093Y-38203000D01*
X78696000Y-38203000D01*
X78696000Y-37500000D01*
X79204000Y-37500000D01*
X79204000Y-38203000D01*
X79328331Y-38203000D01*
X79328350Y-38202999D01*
X79472819Y-38188307D01*
X79472830Y-38188305D01*
X79599345Y-38148610D01*
X79670329Y-38147301D01*
X79730753Y-38184578D01*
X79744306Y-38202684D01*
X79775970Y-38254019D01*
X79780522Y-38259776D01*
X79780468Y-38259818D01*
X79785228Y-38265660D01*
X79785279Y-38265618D01*
X79789993Y-38271236D01*
X79789998Y-38271241D01*
X79789999Y-38271242D01*
X79832746Y-38311572D01*
X79846482Y-38324531D01*
X82224099Y-40702148D01*
X82258124Y-40764460D01*
X82260525Y-40802223D01*
X82251620Y-40904016D01*
X82246273Y-40965139D01*
X82266228Y-41193226D01*
X82294841Y-41300011D01*
X82325486Y-41414379D01*
X82325488Y-41414385D01*
X82397654Y-41569145D01*
X82422248Y-41621888D01*
X82553573Y-41809439D01*
X82715471Y-41971337D01*
X82903022Y-42102662D01*
X83110528Y-42199423D01*
X83331684Y-42258682D01*
X83559771Y-42278637D01*
X83787858Y-42258682D01*
X84009014Y-42199423D01*
X84216520Y-42102662D01*
X84404071Y-41971337D01*
X84565969Y-41809439D01*
X84697294Y-41621888D01*
X84794055Y-41414382D01*
X84853314Y-41193226D01*
X84873269Y-40965139D01*
X84853314Y-40737052D01*
X84794055Y-40515896D01*
X84697294Y-40308390D01*
X84565969Y-40120839D01*
X84404071Y-39958941D01*
X84397834Y-39954574D01*
X84216520Y-39827616D01*
X84009017Y-39730856D01*
X84009011Y-39730854D01*
X83915542Y-39705809D01*
X83787858Y-39671596D01*
X83559771Y-39651641D01*
X83559769Y-39651641D01*
X83396855Y-39665893D01*
X83327251Y-39651903D01*
X83296780Y-39629467D01*
X81211515Y-37544201D01*
X81177489Y-37481889D01*
X81182554Y-37411073D01*
X81225101Y-37354238D01*
X81291621Y-37329427D01*
X81332191Y-37333128D01*
X81396000Y-37349648D01*
X81396000Y-36514850D01*
X81451736Y-36598264D01*
X81542700Y-36659045D01*
X81650000Y-36680388D01*
X81757300Y-36659045D01*
X81848264Y-36598264D01*
X81904000Y-36514850D01*
X81904000Y-37354178D01*
X82085138Y-37287093D01*
X82254802Y-37181341D01*
X82254805Y-37181338D01*
X82399708Y-37043596D01*
X82513915Y-36879512D01*
X82592753Y-36695794D01*
X82632169Y-36504000D01*
X81909701Y-36504000D01*
X81925000Y-36427088D01*
X81925000Y-36072912D01*
X81909701Y-35996000D01*
X82627492Y-35996000D01*
X82627492Y-35995999D01*
X82617842Y-35901100D01*
X82557993Y-35710347D01*
X82460970Y-35535548D01*
X82460966Y-35535542D01*
X82330751Y-35383859D01*
X82330749Y-35383858D01*
X82277770Y-35342849D01*
X82236146Y-35285334D01*
X82232223Y-35214446D01*
X82237921Y-35204399D01*
X85497296Y-35204399D01*
X85517257Y-35394327D01*
X85542234Y-35471197D01*
X85576273Y-35575956D01*
X85576276Y-35575961D01*
X85671758Y-35741341D01*
X85671765Y-35741351D01*
X85799544Y-35883264D01*
X85821177Y-35898981D01*
X85954048Y-35995518D01*
X86128512Y-36073194D01*
X86315313Y-36112900D01*
X86506287Y-36112900D01*
X86693088Y-36073194D01*
X86867552Y-35995518D01*
X87022053Y-35883266D01*
X87060150Y-35840955D01*
X87149834Y-35741351D01*
X87149835Y-35741349D01*
X87149840Y-35741344D01*
X87245327Y-35575956D01*
X87304342Y-35394328D01*
X87324304Y-35204400D01*
X87304342Y-35014472D01*
X87292288Y-34977374D01*
X87285798Y-34957400D01*
X87283770Y-34886433D01*
X87316536Y-34829367D01*
X87396792Y-34749112D01*
X87585661Y-34560243D01*
X87700501Y-34445404D01*
X87762813Y-34411379D01*
X87789596Y-34408500D01*
X87845487Y-34408500D01*
X88032288Y-34368794D01*
X88198765Y-34294673D01*
X88269130Y-34285240D01*
X88301260Y-34294673D01*
X88467738Y-34368794D01*
X88654539Y-34408500D01*
X88710432Y-34408500D01*
X88778553Y-34428502D01*
X88799526Y-34445404D01*
X89593229Y-35239108D01*
X90340783Y-35986662D01*
X90350748Y-35999099D01*
X90350975Y-35998912D01*
X90356027Y-36005019D01*
X90407107Y-36052986D01*
X90428251Y-36074131D01*
X90428255Y-36074134D01*
X90428258Y-36074137D01*
X90433810Y-36078444D01*
X90438297Y-36082275D01*
X90460987Y-36103583D01*
X90472705Y-36114587D01*
X90472707Y-36114588D01*
X90490456Y-36124345D01*
X90506982Y-36135201D01*
X90520354Y-36145574D01*
X90522987Y-36147616D01*
X90559112Y-36163248D01*
X90566290Y-36166354D01*
X90571611Y-36168960D01*
X90612968Y-36191697D01*
X90612976Y-36191699D01*
X90632586Y-36196734D01*
X90651295Y-36203139D01*
X90669883Y-36211183D01*
X90716505Y-36218566D01*
X90722290Y-36219765D01*
X90767998Y-36231502D01*
X90788252Y-36231502D01*
X90807962Y-36233053D01*
X90810169Y-36233402D01*
X90827971Y-36236222D01*
X90861898Y-36233014D01*
X90874945Y-36231782D01*
X90880878Y-36231502D01*
X91242319Y-36231502D01*
X91310440Y-36251504D01*
X91356933Y-36305160D01*
X91367037Y-36375434D01*
X91337543Y-36440014D01*
X91293568Y-36472608D01*
X91268254Y-36483878D01*
X91268248Y-36483882D01*
X91113744Y-36596135D01*
X90985965Y-36738048D01*
X90985958Y-36738058D01*
X90890476Y-36903438D01*
X90890473Y-36903444D01*
X90846265Y-37039502D01*
X90806191Y-37098107D01*
X90752632Y-37123811D01*
X90717710Y-37131234D01*
X90543247Y-37208910D01*
X90388744Y-37321163D01*
X90260965Y-37463076D01*
X90260958Y-37463086D01*
X90165476Y-37628466D01*
X90165473Y-37628472D01*
X90151559Y-37671296D01*
X90106457Y-37810100D01*
X90086496Y-38000028D01*
X90106457Y-38189955D01*
X90129782Y-38261739D01*
X90165473Y-38371584D01*
X90170155Y-38379693D01*
X90246564Y-38512038D01*
X90263302Y-38581033D01*
X90240082Y-38648125D01*
X90184274Y-38692012D01*
X90113599Y-38698761D01*
X90050495Y-38666228D01*
X90048350Y-38664133D01*
X88992298Y-37608081D01*
X88958272Y-37545769D01*
X88963337Y-37474954D01*
X88972277Y-37455983D01*
X88972524Y-37455556D01*
X89031539Y-37273928D01*
X89051501Y-37084000D01*
X89031539Y-36894072D01*
X88972524Y-36712444D01*
X88877037Y-36547056D01*
X88877035Y-36547054D01*
X88877031Y-36547048D01*
X88749252Y-36405135D01*
X88594749Y-36292882D01*
X88420285Y-36215206D01*
X88233484Y-36175500D01*
X88042510Y-36175500D01*
X87855708Y-36215206D01*
X87681244Y-36292882D01*
X87526741Y-36405135D01*
X87398962Y-36547048D01*
X87398955Y-36547058D01*
X87303473Y-36712438D01*
X87303470Y-36712444D01*
X87293445Y-36743299D01*
X87244454Y-36894072D01*
X87224493Y-37084000D01*
X87244454Y-37273927D01*
X87274523Y-37366470D01*
X87303470Y-37455556D01*
X87318673Y-37481889D01*
X87391530Y-37608081D01*
X87398957Y-37620944D01*
X87484465Y-37715911D01*
X87511830Y-37765083D01*
X87512979Y-37769040D01*
X87516983Y-37788382D01*
X87519522Y-37808478D01*
X87519523Y-37808484D01*
X87536890Y-37852347D01*
X87538813Y-37857964D01*
X87551979Y-37903278D01*
X87562291Y-37920716D01*
X87570985Y-37938464D01*
X87578441Y-37957294D01*
X87578447Y-37957305D01*
X87606174Y-37995468D01*
X87609434Y-38000431D01*
X87633457Y-38041050D01*
X87647776Y-38055369D01*
X87660614Y-38070399D01*
X87670153Y-38083528D01*
X87672525Y-38086792D01*
X87684258Y-38096498D01*
X87708883Y-38116870D01*
X87713264Y-38120856D01*
X89203467Y-39611059D01*
X90681066Y-41088658D01*
X90691033Y-41101098D01*
X90691260Y-41100911D01*
X90696312Y-41107018D01*
X90747408Y-41155000D01*
X90768538Y-41176131D01*
X90774081Y-41180431D01*
X90778594Y-41184286D01*
X90797983Y-41202493D01*
X90812992Y-41216587D01*
X90812993Y-41216587D01*
X90812995Y-41216589D01*
X90830742Y-41226345D01*
X90847272Y-41237203D01*
X90863272Y-41249614D01*
X90886238Y-41259552D01*
X90906564Y-41268348D01*
X90911898Y-41270960D01*
X90953253Y-41293696D01*
X90972875Y-41298734D01*
X90991576Y-41305136D01*
X91004127Y-41310568D01*
X91010165Y-41313181D01*
X91010166Y-41313181D01*
X91010168Y-41313182D01*
X91056790Y-41320565D01*
X91062575Y-41321764D01*
X91108283Y-41333501D01*
X91128537Y-41333501D01*
X91148247Y-41335052D01*
X91150454Y-41335401D01*
X91168256Y-41338221D01*
X91202785Y-41334957D01*
X91215230Y-41333781D01*
X91221163Y-41333501D01*
X95591146Y-41333501D01*
X95606987Y-41335250D01*
X95607015Y-41334957D01*
X95614901Y-41335701D01*
X95614908Y-41335703D01*
X95684957Y-41333501D01*
X95714855Y-41333501D01*
X95721817Y-41332620D01*
X95727718Y-41332155D01*
X95774888Y-41330674D01*
X95794346Y-41325020D01*
X95813693Y-41321014D01*
X95833796Y-41318475D01*
X95877678Y-41301100D01*
X95883273Y-41299184D01*
X95911815Y-41290892D01*
X95928590Y-41286020D01*
X95928594Y-41286018D01*
X95946025Y-41275709D01*
X95963779Y-41267010D01*
X95982616Y-41259553D01*
X96020785Y-41231819D01*
X96025743Y-41228563D01*
X96066361Y-41204543D01*
X96080684Y-41190219D01*
X96095723Y-41177375D01*
X96097430Y-41176135D01*
X96112106Y-41165473D01*
X96134181Y-41138787D01*
X96150952Y-41122018D01*
X96157016Y-41117001D01*
X96157015Y-41117001D01*
X96157018Y-41117000D01*
X96204999Y-41065904D01*
X96226134Y-41044770D01*
X96230429Y-41039232D01*
X96234271Y-41034731D01*
X96266586Y-41000321D01*
X96276345Y-40982567D01*
X96287197Y-40966046D01*
X96299613Y-40950041D01*
X96318347Y-40906748D01*
X96320961Y-40901412D01*
X96331374Y-40882470D01*
X96343695Y-40860060D01*
X96348733Y-40840435D01*
X96355138Y-40821730D01*
X96366330Y-40795868D01*
X96368993Y-40797020D01*
X96399799Y-40748772D01*
X96407075Y-40742891D01*
X96413261Y-40738261D01*
X96500889Y-40621204D01*
X96551989Y-40484201D01*
X96554963Y-40456543D01*
X96558499Y-40423649D01*
X96558500Y-40423632D01*
X96558500Y-38576367D01*
X96558499Y-38576350D01*
X96551990Y-38515803D01*
X96551988Y-38515795D01*
X96522924Y-38437875D01*
X96500889Y-38378796D01*
X96500888Y-38378794D01*
X96500887Y-38378792D01*
X96413261Y-38261738D01*
X96296207Y-38174112D01*
X96296202Y-38174110D01*
X96159204Y-38123011D01*
X96159196Y-38123009D01*
X96098649Y-38116500D01*
X96098638Y-38116500D01*
X95684000Y-38116500D01*
X95615879Y-38096498D01*
X95569386Y-38042842D01*
X95561752Y-38007751D01*
X95558001Y-38004000D01*
X95004000Y-38004000D01*
X95004000Y-38342955D01*
X94996056Y-38386985D01*
X94948011Y-38515799D01*
X94948010Y-38515802D01*
X94948009Y-38515803D01*
X94941500Y-38576350D01*
X94941500Y-39940501D01*
X94921498Y-40008622D01*
X94867842Y-40055115D01*
X94815500Y-40066501D01*
X94684500Y-40066501D01*
X94616379Y-40046499D01*
X94569886Y-39992843D01*
X94558500Y-39940501D01*
X94558500Y-39259500D01*
X94558500Y-38576362D01*
X94557288Y-38565087D01*
X94551990Y-38515803D01*
X94551989Y-38515802D01*
X94551989Y-38515799D01*
X94503943Y-38386985D01*
X94496000Y-38342955D01*
X94496000Y-37622000D01*
X94516002Y-37553879D01*
X94569658Y-37507386D01*
X94622000Y-37496000D01*
X95558000Y-37496000D01*
X95558000Y-36826414D01*
X95557999Y-36826402D01*
X95551494Y-36765903D01*
X95549682Y-36758234D01*
X95552704Y-36757519D01*
X95548667Y-36701094D01*
X95562670Y-36664872D01*
X95566035Y-36659045D01*
X95618245Y-36568614D01*
X95677260Y-36386986D01*
X95697222Y-36197058D01*
X95677260Y-36007130D01*
X95618245Y-35825502D01*
X95522758Y-35660114D01*
X95522756Y-35660112D01*
X95522752Y-35660106D01*
X95418802Y-35544658D01*
X95388084Y-35480651D01*
X95389194Y-35434140D01*
X95390276Y-35429047D01*
X95390280Y-35429037D01*
X95410242Y-35239109D01*
X95390280Y-35049181D01*
X95364708Y-34970478D01*
X96091757Y-34970478D01*
X96111718Y-35160406D01*
X96112646Y-35163261D01*
X96170734Y-35342035D01*
X96170737Y-35342040D01*
X96266219Y-35507420D01*
X96266226Y-35507430D01*
X96394005Y-35649343D01*
X96394008Y-35649345D01*
X96548509Y-35761597D01*
X96722973Y-35839273D01*
X96909774Y-35878979D01*
X96965667Y-35878979D01*
X97033788Y-35898981D01*
X97054762Y-35915884D01*
X97556803Y-36417925D01*
X97590829Y-36480237D01*
X97593708Y-36507020D01*
X97593708Y-38311572D01*
X97573706Y-38379693D01*
X97556803Y-38400667D01*
X97300557Y-38656912D01*
X97300540Y-38656931D01*
X97201418Y-38777711D01*
X97103128Y-38961598D01*
X97042600Y-39161133D01*
X97022165Y-39368625D01*
X97022165Y-39368632D01*
X97042600Y-39576124D01*
X97042601Y-39576130D01*
X97042602Y-39576131D01*
X97103128Y-39775659D01*
X97201418Y-39959546D01*
X97333693Y-40120723D01*
X97494870Y-40252998D01*
X97678757Y-40351288D01*
X97878285Y-40411814D01*
X97878290Y-40411814D01*
X97878292Y-40411815D01*
X97973548Y-40421196D01*
X98062539Y-40429961D01*
X98128372Y-40456543D01*
X98169382Y-40514497D01*
X98176190Y-40555354D01*
X98176190Y-40729982D01*
X98217038Y-40902333D01*
X98296533Y-41060620D01*
X98296534Y-41060621D01*
X98362415Y-41141497D01*
X98430853Y-41209935D01*
X98430855Y-41209935D01*
X99149523Y-40491266D01*
X99146372Y-40529302D01*
X99175047Y-40642538D01*
X99238936Y-40740327D01*
X99331115Y-40812072D01*
X99441595Y-40850000D01*
X99529005Y-40850000D01*
X99615216Y-40835614D01*
X99717947Y-40780019D01*
X99797060Y-40694079D01*
X99843982Y-40587108D01*
X99851200Y-40500001D01*
X99859210Y-40500001D01*
X100427723Y-41068514D01*
X100427725Y-41068514D01*
X100637584Y-40858654D01*
X100703465Y-40777778D01*
X100703466Y-40777777D01*
X100782961Y-40619490D01*
X100823810Y-40447139D01*
X100823810Y-40270017D01*
X100782961Y-40097666D01*
X100703466Y-39939379D01*
X100703465Y-39939378D01*
X100637584Y-39858502D01*
X100569146Y-39790064D01*
X100569145Y-39790064D01*
X99859210Y-40499999D01*
X99859210Y-40500001D01*
X99851200Y-40500001D01*
X99853628Y-40470698D01*
X99824953Y-40357462D01*
X99761064Y-40259673D01*
X99668885Y-40187928D01*
X99558405Y-40150000D01*
X99490790Y-40150000D01*
X100209935Y-39430855D01*
X100209935Y-39430852D01*
X100141497Y-39362415D01*
X100060621Y-39296534D01*
X100060620Y-39296533D01*
X99902333Y-39217038D01*
X99729982Y-39176190D01*
X99555355Y-39176190D01*
X99487234Y-39156188D01*
X99440741Y-39102532D01*
X99429962Y-39062540D01*
X99411815Y-38878291D01*
X99411814Y-38878289D01*
X99411814Y-38878285D01*
X99351288Y-38678757D01*
X99252998Y-38494870D01*
X99120723Y-38333693D01*
X98959546Y-38201418D01*
X98935018Y-38188307D01*
X98927309Y-38184186D01*
X98876662Y-38134432D01*
X98860708Y-38073065D01*
X98860708Y-37447105D01*
X100366519Y-37447105D01*
X100507375Y-37522395D01*
X100706816Y-37582894D01*
X100914211Y-37603321D01*
X100914214Y-37603321D01*
X100993491Y-37595512D01*
X101063245Y-37608740D01*
X101114774Y-37657579D01*
X101131718Y-37726524D01*
X101131236Y-37733253D01*
X101123384Y-37812988D01*
X101123384Y-37812997D01*
X101143819Y-38020489D01*
X101143820Y-38020495D01*
X101143821Y-38020496D01*
X101204347Y-38220024D01*
X101302637Y-38403911D01*
X101434912Y-38565088D01*
X101596089Y-38697363D01*
X101779976Y-38795653D01*
X101979504Y-38856179D01*
X101979508Y-38856179D01*
X101979510Y-38856180D01*
X102187003Y-38876616D01*
X102187006Y-38876616D01*
X102187009Y-38876616D01*
X102394501Y-38856180D01*
X102394502Y-38856179D01*
X102394508Y-38856179D01*
X102594036Y-38795653D01*
X102777923Y-38697363D01*
X102898705Y-38598240D01*
X103255094Y-38241851D01*
X103354217Y-38121069D01*
X103452507Y-37937182D01*
X103513033Y-37737654D01*
X103513467Y-37733253D01*
X103533470Y-37530155D01*
X103533470Y-37530148D01*
X103513034Y-37322656D01*
X103513033Y-37322654D01*
X103513033Y-37322650D01*
X103452507Y-37123122D01*
X103354217Y-36939235D01*
X103221942Y-36778058D01*
X103060765Y-36645783D01*
X102876878Y-36547493D01*
X102677350Y-36486967D01*
X102677349Y-36486966D01*
X102677343Y-36486965D01*
X102469851Y-36466530D01*
X102469842Y-36466530D01*
X102390107Y-36474382D01*
X102320354Y-36461153D01*
X102268827Y-36412312D01*
X102251885Y-36343366D01*
X102252366Y-36336637D01*
X102260175Y-36257360D01*
X102260175Y-36257357D01*
X102239748Y-36049962D01*
X102179249Y-35850521D01*
X102103959Y-35709665D01*
X101406111Y-36407513D01*
X101409263Y-36369479D01*
X101380588Y-36256243D01*
X101316699Y-36158454D01*
X101224520Y-36086709D01*
X101114040Y-36048781D01*
X101026630Y-36048781D01*
X100940419Y-36063167D01*
X100837688Y-36118762D01*
X100758575Y-36204702D01*
X100711653Y-36311673D01*
X100702007Y-36428083D01*
X100730682Y-36541319D01*
X100794571Y-36639108D01*
X100886750Y-36710853D01*
X100997230Y-36748781D01*
X101064845Y-36748781D01*
X101055635Y-36757991D01*
X100366519Y-37447105D01*
X98860708Y-37447105D01*
X98860708Y-37181338D01*
X98860707Y-36540204D01*
X99851095Y-36540204D01*
X99871521Y-36747599D01*
X99932020Y-36947040D01*
X100007308Y-37087895D01*
X100007309Y-37087896D01*
X100696425Y-36398781D01*
X100696425Y-36398780D01*
X100128051Y-35830407D01*
X100030261Y-35949567D01*
X99932020Y-36133363D01*
X99871521Y-36332804D01*
X99851095Y-36540199D01*
X99851095Y-36540204D01*
X98860707Y-36540204D01*
X98860707Y-36276271D01*
X98862457Y-36260440D01*
X98862164Y-36260413D01*
X98862909Y-36252520D01*
X98862910Y-36252517D01*
X98860708Y-36182468D01*
X98860708Y-36152570D01*
X98859827Y-36145604D01*
X98859363Y-36139708D01*
X98857881Y-36092537D01*
X98852230Y-36073090D01*
X98848220Y-36053726D01*
X98848127Y-36052986D01*
X98845682Y-36033629D01*
X98828305Y-35989740D01*
X98826391Y-35984149D01*
X98813226Y-35938833D01*
X98802914Y-35921396D01*
X98794218Y-35903647D01*
X98786760Y-35884809D01*
X98759020Y-35846629D01*
X98755772Y-35841684D01*
X98731750Y-35801064D01*
X98717422Y-35786736D01*
X98704592Y-35771715D01*
X98692680Y-35755319D01*
X98692677Y-35755317D01*
X98692677Y-35755316D01*
X98656321Y-35725239D01*
X98651929Y-35721243D01*
X98401884Y-35471198D01*
X100487262Y-35471198D01*
X101055634Y-36039570D01*
X101055636Y-36039570D01*
X101744750Y-35350455D01*
X101744749Y-35350454D01*
X101603894Y-35275166D01*
X101404453Y-35214667D01*
X101197059Y-35194241D01*
X101197053Y-35194241D01*
X100989658Y-35214667D01*
X100790217Y-35275166D01*
X100606419Y-35373408D01*
X100606417Y-35373410D01*
X100487262Y-35471197D01*
X100487262Y-35471198D01*
X98401884Y-35471198D01*
X97952381Y-35021694D01*
X97918356Y-34959382D01*
X97916169Y-34945785D01*
X97898803Y-34780551D01*
X97839788Y-34598923D01*
X97744301Y-34433535D01*
X97744299Y-34433533D01*
X97744295Y-34433527D01*
X97616516Y-34291614D01*
X97462013Y-34179361D01*
X97287549Y-34101685D01*
X97100748Y-34061979D01*
X96909774Y-34061979D01*
X96722972Y-34101685D01*
X96548508Y-34179361D01*
X96394005Y-34291614D01*
X96266226Y-34433527D01*
X96266219Y-34433537D01*
X96170737Y-34598917D01*
X96170734Y-34598923D01*
X96159460Y-34633621D01*
X96111718Y-34780551D01*
X96091757Y-34970478D01*
X95364708Y-34970478D01*
X95331265Y-34867553D01*
X95235778Y-34702165D01*
X95235776Y-34702163D01*
X95235772Y-34702157D01*
X95107993Y-34560244D01*
X94953490Y-34447991D01*
X94779026Y-34370315D01*
X94592225Y-34330609D01*
X94519118Y-34330609D01*
X94458398Y-34315013D01*
X94457030Y-34314261D01*
X94454286Y-34312752D01*
X94437786Y-34301912D01*
X94421780Y-34289496D01*
X94391028Y-34276188D01*
X94378479Y-34270758D01*
X94373147Y-34268146D01*
X94331800Y-34245415D01*
X94312175Y-34240376D01*
X94293475Y-34233974D01*
X94274884Y-34225929D01*
X94274882Y-34225928D01*
X94274881Y-34225928D01*
X94228281Y-34218547D01*
X94222468Y-34217343D01*
X94176769Y-34205610D01*
X94156515Y-34205610D01*
X94136805Y-34204059D01*
X94116796Y-34200890D01*
X94116795Y-34200890D01*
X94069822Y-34205330D01*
X94063889Y-34205610D01*
X91719389Y-34205610D01*
X91651268Y-34185608D01*
X91630294Y-34168705D01*
X90862589Y-33401000D01*
X98100884Y-33401000D01*
X98119314Y-33611655D01*
X98148643Y-33721113D01*
X98174043Y-33815908D01*
X98174045Y-33815912D01*
X98263412Y-34007561D01*
X98384692Y-34180767D01*
X98384696Y-34180772D01*
X98384699Y-34180776D01*
X98534224Y-34330301D01*
X98534228Y-34330304D01*
X98534232Y-34330307D01*
X98707438Y-34451587D01*
X98707441Y-34451588D01*
X98707442Y-34451589D01*
X98899090Y-34540956D01*
X99103345Y-34595686D01*
X99314000Y-34614116D01*
X99524655Y-34595686D01*
X99728910Y-34540956D01*
X99920558Y-34451589D01*
X99925033Y-34448456D01*
X100069640Y-34347201D01*
X100093776Y-34330301D01*
X100243301Y-34180776D01*
X100364589Y-34007558D01*
X100453956Y-33815910D01*
X100508686Y-33611655D01*
X100527116Y-33401000D01*
X100508686Y-33190345D01*
X100453956Y-32986090D01*
X100364589Y-32794442D01*
X100364588Y-32794441D01*
X100364587Y-32794438D01*
X100243307Y-32621232D01*
X100243304Y-32621228D01*
X100243301Y-32621224D01*
X100093776Y-32471699D01*
X100093772Y-32471696D01*
X100093767Y-32471692D01*
X99920561Y-32350412D01*
X99739542Y-32266002D01*
X99728910Y-32261044D01*
X99728908Y-32261043D01*
X99634113Y-32235643D01*
X99524655Y-32206314D01*
X99314000Y-32187884D01*
X99103345Y-32206314D01*
X99048615Y-32220978D01*
X98899091Y-32261043D01*
X98899087Y-32261045D01*
X98707438Y-32350412D01*
X98534232Y-32471692D01*
X98534221Y-32471701D01*
X98384701Y-32621221D01*
X98384692Y-32621232D01*
X98263412Y-32794438D01*
X98174045Y-32986087D01*
X98174043Y-32986091D01*
X98157376Y-33048294D01*
X98119314Y-33190345D01*
X98100884Y-33401000D01*
X90862589Y-33401000D01*
X90612951Y-33151362D01*
X89572929Y-32111339D01*
X89562964Y-32098901D01*
X89562737Y-32099090D01*
X89557686Y-32092984D01*
X89557685Y-32092982D01*
X89506606Y-32045016D01*
X89501636Y-32040046D01*
X89485462Y-32023871D01*
X89485457Y-32023866D01*
X89479910Y-32019563D01*
X89475402Y-32015712D01*
X89441010Y-31983417D01*
X89441004Y-31983413D01*
X89423248Y-31973651D01*
X89406732Y-31962802D01*
X89390726Y-31950386D01*
X89359974Y-31937078D01*
X89347425Y-31931648D01*
X89342093Y-31929036D01*
X89300746Y-31906305D01*
X89281121Y-31901266D01*
X89262421Y-31894864D01*
X89243830Y-31886819D01*
X89243828Y-31886818D01*
X89243827Y-31886818D01*
X89197227Y-31879437D01*
X89191414Y-31878233D01*
X89145715Y-31866500D01*
X89125461Y-31866500D01*
X89105751Y-31864949D01*
X89085742Y-31861780D01*
X89085741Y-31861780D01*
X89038768Y-31866220D01*
X89032835Y-31866500D01*
X87958200Y-31866500D01*
X87890079Y-31846498D01*
X87864563Y-31824810D01*
X87861252Y-31821133D01*
X87706752Y-31708882D01*
X87532288Y-31631206D01*
X87345487Y-31591500D01*
X87154513Y-31591500D01*
X86967711Y-31631206D01*
X86793247Y-31708882D01*
X86638744Y-31821135D01*
X86510965Y-31963048D01*
X86510958Y-31963058D01*
X86421519Y-32117972D01*
X86415473Y-32128444D01*
X86400999Y-32172986D01*
X86356457Y-32310072D01*
X86336496Y-32500000D01*
X86356457Y-32689927D01*
X86375688Y-32749111D01*
X86415473Y-32871556D01*
X86415476Y-32871561D01*
X86510958Y-33036941D01*
X86510965Y-33036951D01*
X86638744Y-33178864D01*
X86654546Y-33190345D01*
X86793248Y-33291118D01*
X86793250Y-33291119D01*
X86794971Y-33292369D01*
X86838325Y-33348591D01*
X86846220Y-33407476D01*
X86839092Y-33475292D01*
X86812078Y-33540949D01*
X86802877Y-33551216D01*
X86022136Y-34331957D01*
X86009701Y-34341921D01*
X86009889Y-34342148D01*
X86003780Y-34347201D01*
X85955815Y-34398279D01*
X85934669Y-34419424D01*
X85930366Y-34424971D01*
X85926514Y-34429480D01*
X85923422Y-34432773D01*
X85905633Y-34448456D01*
X85799550Y-34525531D01*
X85799548Y-34525532D01*
X85671762Y-34667453D01*
X85671758Y-34667458D01*
X85578280Y-34829367D01*
X85576273Y-34832844D01*
X85574349Y-34838766D01*
X85517257Y-35014472D01*
X85497296Y-35204399D01*
X82237921Y-35204399D01*
X82267249Y-35152691D01*
X82330101Y-35119675D01*
X82336141Y-35118689D01*
X82336978Y-35118474D01*
X82336977Y-35118473D01*
X82380860Y-35101099D01*
X82386455Y-35099183D01*
X82415317Y-35090799D01*
X82431772Y-35086019D01*
X82431776Y-35086017D01*
X82449207Y-35075708D01*
X82466961Y-35067009D01*
X82485798Y-35059552D01*
X82523967Y-35031818D01*
X82528925Y-35028562D01*
X82569543Y-35004542D01*
X82583866Y-34990218D01*
X82598905Y-34977374D01*
X82615288Y-34965472D01*
X82645374Y-34929103D01*
X82649342Y-34924741D01*
X84098575Y-33475508D01*
X84111010Y-33465547D01*
X84110823Y-33465320D01*
X84116927Y-33460268D01*
X84116936Y-33460263D01*
X84164917Y-33409167D01*
X84186052Y-33388033D01*
X84190347Y-33382495D01*
X84194189Y-33377994D01*
X84226504Y-33343584D01*
X84236263Y-33325830D01*
X84247115Y-33309309D01*
X84259531Y-33293304D01*
X84278265Y-33250011D01*
X84280879Y-33244675D01*
X84303612Y-33203324D01*
X84303613Y-33203323D01*
X84308651Y-33183698D01*
X84315056Y-33164993D01*
X84323099Y-33146408D01*
X84330479Y-33099810D01*
X84331680Y-33094003D01*
X84343418Y-33048293D01*
X84343418Y-33028037D01*
X84344969Y-33008326D01*
X84348138Y-32988320D01*
X84344875Y-32953796D01*
X84343698Y-32941343D01*
X84343418Y-32935411D01*
X84343418Y-32133836D01*
X84345167Y-32117999D01*
X84344873Y-32117972D01*
X84345619Y-32110079D01*
X84343418Y-32040046D01*
X84343418Y-32010138D01*
X84343418Y-32010131D01*
X84342538Y-32003172D01*
X84342073Y-31997267D01*
X84340591Y-31950097D01*
X84334940Y-31930650D01*
X84330930Y-31911287D01*
X84330301Y-31906305D01*
X84328392Y-31891190D01*
X84311017Y-31847307D01*
X84309097Y-31841698D01*
X84304191Y-31824810D01*
X84295936Y-31796394D01*
X84285623Y-31778956D01*
X84276928Y-31761209D01*
X84269470Y-31742370D01*
X84241739Y-31704202D01*
X84238480Y-31699242D01*
X84214460Y-31658624D01*
X84210500Y-31654664D01*
X84176474Y-31592357D01*
X84174285Y-31578752D01*
X84156919Y-31413518D01*
X84097904Y-31231890D01*
X84002417Y-31066502D01*
X84002415Y-31066500D01*
X84002411Y-31066494D01*
X83885822Y-30937009D01*
X99873384Y-30937009D01*
X99893819Y-31144501D01*
X99893820Y-31144507D01*
X99893821Y-31144508D01*
X99954347Y-31344036D01*
X100052637Y-31527923D01*
X100151760Y-31648705D01*
X100151767Y-31648712D01*
X100151776Y-31648722D01*
X100508131Y-32005077D01*
X100508140Y-32005085D01*
X100508149Y-32005094D01*
X100628931Y-32104217D01*
X100812818Y-32202507D01*
X101012346Y-32263033D01*
X101012350Y-32263033D01*
X101012352Y-32263034D01*
X101219845Y-32283470D01*
X101219848Y-32283470D01*
X101219851Y-32283470D01*
X101427343Y-32263034D01*
X101427344Y-32263033D01*
X101427350Y-32263033D01*
X101626878Y-32202507D01*
X101810765Y-32104217D01*
X101971942Y-31971942D01*
X102104217Y-31810765D01*
X102202507Y-31626878D01*
X102263033Y-31427350D01*
X102264396Y-31413519D01*
X102283470Y-31219851D01*
X102283470Y-31219846D01*
X102281413Y-31198964D01*
X102275616Y-31140108D01*
X102288844Y-31070357D01*
X102337684Y-31018828D01*
X102406629Y-31001884D01*
X102413360Y-31002366D01*
X102492639Y-31010175D01*
X102492643Y-31010175D01*
X102700037Y-30989748D01*
X102899476Y-30929250D01*
X103040333Y-30853959D01*
X102342009Y-30155635D01*
X102380224Y-30155635D01*
X102466435Y-30141249D01*
X102569166Y-30085654D01*
X102648279Y-29999714D01*
X102695201Y-29892743D01*
X102703031Y-29798238D01*
X103399543Y-30494750D01*
X103474834Y-30353892D01*
X103535332Y-30154453D01*
X103555759Y-29947058D01*
X103555759Y-29947053D01*
X103535332Y-29739658D01*
X103474833Y-29540217D01*
X103376589Y-29356415D01*
X103277522Y-29235702D01*
X103277496Y-29235673D01*
X102921180Y-28879357D01*
X102921151Y-28879331D01*
X102800438Y-28780265D01*
X102800438Y-28780264D01*
X102616636Y-28682020D01*
X102417195Y-28621521D01*
X102209801Y-28601095D01*
X102209795Y-28601095D01*
X102002400Y-28621521D01*
X101802959Y-28682020D01*
X101662102Y-28757308D01*
X102351219Y-29446425D01*
X102360429Y-29455635D01*
X102322214Y-29455635D01*
X102236003Y-29470021D01*
X102133272Y-29525616D01*
X102054159Y-29611556D01*
X102007237Y-29718527D01*
X101999406Y-29813032D01*
X101302892Y-29116518D01*
X101227604Y-29257375D01*
X101167105Y-29456816D01*
X101146679Y-29664211D01*
X101146679Y-29664217D01*
X101154487Y-29743494D01*
X101141258Y-29813247D01*
X101092418Y-29864775D01*
X101023473Y-29881719D01*
X101016744Y-29881237D01*
X100937009Y-29873384D01*
X100937003Y-29873384D01*
X100729510Y-29893819D01*
X100529975Y-29954347D01*
X100346088Y-30052637D01*
X100184912Y-30184912D01*
X100052637Y-30346088D01*
X99954347Y-30529975D01*
X99893819Y-30729510D01*
X99873384Y-30937002D01*
X99873384Y-30937009D01*
X83885822Y-30937009D01*
X83874632Y-30924581D01*
X83720129Y-30812328D01*
X83545665Y-30734652D01*
X83358864Y-30694946D01*
X83167890Y-30694946D01*
X82981088Y-30734652D01*
X82806625Y-30812328D01*
X82772013Y-30837475D01*
X82705145Y-30861333D01*
X82635994Y-30845251D01*
X82586514Y-30794337D01*
X82577731Y-30773257D01*
X82557994Y-30710349D01*
X82557993Y-30710347D01*
X82460970Y-30535548D01*
X82460966Y-30535542D01*
X82330747Y-30383856D01*
X82330743Y-30383851D01*
X82243274Y-30316144D01*
X82201649Y-30258629D01*
X82194400Y-30216507D01*
X82194400Y-28749999D01*
X87086496Y-28749999D01*
X87106457Y-28939927D01*
X87136151Y-29031313D01*
X87165473Y-29121556D01*
X87165476Y-29121561D01*
X87260958Y-29286941D01*
X87260965Y-29286951D01*
X87388744Y-29428864D01*
X87388747Y-29428866D01*
X87543248Y-29541118D01*
X87717712Y-29618794D01*
X87904513Y-29658500D01*
X87960406Y-29658500D01*
X88028527Y-29678502D01*
X88049501Y-29695405D01*
X88242753Y-29888657D01*
X88252720Y-29901097D01*
X88252947Y-29900910D01*
X88257999Y-29907017D01*
X88309095Y-29954999D01*
X88330225Y-29976130D01*
X88335768Y-29980430D01*
X88340281Y-29984285D01*
X88374679Y-30016586D01*
X88374680Y-30016586D01*
X88374682Y-30016588D01*
X88392429Y-30026344D01*
X88408959Y-30037202D01*
X88424959Y-30049613D01*
X88456136Y-30063104D01*
X88468251Y-30068347D01*
X88473585Y-30070959D01*
X88514940Y-30093695D01*
X88534562Y-30098733D01*
X88553263Y-30105135D01*
X88565814Y-30110567D01*
X88571852Y-30113180D01*
X88571853Y-30113180D01*
X88571855Y-30113181D01*
X88618477Y-30120564D01*
X88624262Y-30121763D01*
X88669970Y-30133500D01*
X88690224Y-30133500D01*
X88709934Y-30135051D01*
X88712141Y-30135400D01*
X88729943Y-30138220D01*
X88763870Y-30135012D01*
X88776917Y-30133780D01*
X88782850Y-30133500D01*
X90445245Y-30133500D01*
X90513366Y-30153502D01*
X90546113Y-30183991D01*
X90586738Y-30238261D01*
X90703792Y-30325887D01*
X90703794Y-30325888D01*
X90703796Y-30325889D01*
X90757951Y-30346088D01*
X90840795Y-30376988D01*
X90840803Y-30376990D01*
X90901350Y-30383499D01*
X90901355Y-30383499D01*
X90901362Y-30383500D01*
X90901368Y-30383500D01*
X91598632Y-30383500D01*
X91598638Y-30383500D01*
X91598645Y-30383499D01*
X91598649Y-30383499D01*
X91659196Y-30376990D01*
X91659199Y-30376989D01*
X91659201Y-30376989D01*
X91796204Y-30325889D01*
X91805860Y-30318661D01*
X91920476Y-30232860D01*
X91921774Y-30234594D01*
X91973400Y-30206397D01*
X92026396Y-30206268D01*
X92154509Y-30233500D01*
X92154513Y-30233500D01*
X92345491Y-30233500D01*
X92473603Y-30206268D01*
X92544394Y-30211669D01*
X92578766Y-30233874D01*
X92579525Y-30232861D01*
X92703792Y-30325887D01*
X92703794Y-30325888D01*
X92703796Y-30325889D01*
X92757951Y-30346088D01*
X92840795Y-30376988D01*
X92840803Y-30376990D01*
X92901350Y-30383499D01*
X92901355Y-30383499D01*
X92901362Y-30383500D01*
X92901368Y-30383500D01*
X93598632Y-30383500D01*
X93598638Y-30383500D01*
X93598645Y-30383499D01*
X93598649Y-30383499D01*
X93659196Y-30376990D01*
X93659199Y-30376989D01*
X93659201Y-30376989D01*
X93796204Y-30325889D01*
X93805860Y-30318661D01*
X93913261Y-30238261D01*
X94000887Y-30121207D01*
X94000887Y-30121206D01*
X94000889Y-30121204D01*
X94051989Y-29984201D01*
X94052395Y-29980430D01*
X94058499Y-29923649D01*
X94441500Y-29923649D01*
X94448009Y-29984196D01*
X94448011Y-29984204D01*
X94499110Y-30121202D01*
X94499112Y-30121207D01*
X94586738Y-30238261D01*
X94703792Y-30325887D01*
X94703794Y-30325888D01*
X94703796Y-30325889D01*
X94757951Y-30346088D01*
X94840795Y-30376988D01*
X94840803Y-30376990D01*
X94901350Y-30383499D01*
X94901355Y-30383499D01*
X94901362Y-30383500D01*
X94901368Y-30383500D01*
X95598632Y-30383500D01*
X95598638Y-30383500D01*
X95598645Y-30383499D01*
X95598649Y-30383499D01*
X95659196Y-30376990D01*
X95659197Y-30376989D01*
X95659201Y-30376989D01*
X95796204Y-30325889D01*
X95796205Y-30325887D01*
X95804648Y-30322739D01*
X95805150Y-30324085D01*
X95854944Y-30311375D01*
X96044987Y-30311375D01*
X96231788Y-30271669D01*
X96406252Y-30193993D01*
X96560753Y-30081741D01*
X96572813Y-30068347D01*
X96688534Y-29939826D01*
X96688535Y-29939824D01*
X96688540Y-29939819D01*
X96784027Y-29774431D01*
X96843042Y-29592803D01*
X96863004Y-29402875D01*
X96843042Y-29212947D01*
X96831597Y-29177724D01*
X97681486Y-29177724D01*
X97891345Y-29387584D01*
X97972221Y-29453465D01*
X97972222Y-29453466D01*
X98130509Y-29532961D01*
X98302861Y-29573810D01*
X98479982Y-29573810D01*
X98652333Y-29532961D01*
X98810618Y-29453467D01*
X98891501Y-29387579D01*
X98959935Y-29319144D01*
X98250001Y-28609210D01*
X98249999Y-28609210D01*
X97681486Y-29177723D01*
X97681486Y-29177724D01*
X96831597Y-29177724D01*
X96784027Y-29031319D01*
X96688540Y-28865931D01*
X96688538Y-28865929D01*
X96688534Y-28865923D01*
X96560755Y-28724010D01*
X96406252Y-28611757D01*
X96400531Y-28609210D01*
X96231788Y-28534081D01*
X96231787Y-28534080D01*
X96231783Y-28534079D01*
X96158303Y-28518460D01*
X96095829Y-28484732D01*
X96061508Y-28422582D01*
X96058500Y-28395214D01*
X96058500Y-28197139D01*
X96926190Y-28197139D01*
X96967038Y-28369490D01*
X97046533Y-28527777D01*
X97046534Y-28527778D01*
X97112415Y-28608654D01*
X97322275Y-28818514D01*
X97322277Y-28818514D01*
X97890790Y-28250000D01*
X97890790Y-28249999D01*
X97180855Y-27540064D01*
X97180854Y-27540064D01*
X97112417Y-27608501D01*
X97112414Y-27608505D01*
X97046534Y-27689378D01*
X97046533Y-27689379D01*
X96967038Y-27847666D01*
X96926190Y-28020017D01*
X96926190Y-28197139D01*
X96058500Y-28197139D01*
X96058500Y-28076367D01*
X96058499Y-28076350D01*
X96051990Y-28015803D01*
X96051988Y-28015795D01*
X96022924Y-27937875D01*
X96000889Y-27878796D01*
X96000888Y-27878794D01*
X96000887Y-27878792D01*
X95913261Y-27761738D01*
X95796207Y-27674112D01*
X95796202Y-27674110D01*
X95659204Y-27623011D01*
X95659196Y-27623009D01*
X95598649Y-27616500D01*
X95598638Y-27616500D01*
X95184000Y-27616500D01*
X95115879Y-27596498D01*
X95069386Y-27542842D01*
X95061752Y-27507751D01*
X95058001Y-27504000D01*
X94504000Y-27504000D01*
X94504000Y-27842955D01*
X94496056Y-27886985D01*
X94448011Y-28015799D01*
X94448010Y-28015802D01*
X94448009Y-28015803D01*
X94441500Y-28076350D01*
X94441500Y-29923649D01*
X94058499Y-29923649D01*
X94058500Y-29923632D01*
X94058500Y-28076367D01*
X94058499Y-28076350D01*
X94051990Y-28015803D01*
X94051989Y-28015802D01*
X94051989Y-28015799D01*
X94003943Y-27886985D01*
X93996000Y-27842955D01*
X93996000Y-27504000D01*
X93441999Y-27504000D01*
X93436388Y-27509610D01*
X93421998Y-27558621D01*
X93368342Y-27605114D01*
X93316000Y-27616500D01*
X93184500Y-27616500D01*
X93116379Y-27596498D01*
X93069886Y-27542842D01*
X93058500Y-27490500D01*
X93058500Y-27180854D01*
X97540064Y-27180854D01*
X98250000Y-27890790D01*
X98259210Y-27900000D01*
X98220995Y-27900000D01*
X98134784Y-27914386D01*
X98032053Y-27969981D01*
X97952940Y-28055921D01*
X97906018Y-28162892D01*
X97896372Y-28279302D01*
X97925047Y-28392538D01*
X97988936Y-28490327D01*
X98081115Y-28562072D01*
X98191595Y-28600000D01*
X98279005Y-28600000D01*
X98365216Y-28585614D01*
X98467947Y-28530019D01*
X98547060Y-28444079D01*
X98593982Y-28337108D01*
X98601812Y-28242603D01*
X99319144Y-28959935D01*
X99319145Y-28959935D01*
X99387579Y-28891501D01*
X99453467Y-28810618D01*
X99532961Y-28652333D01*
X99573810Y-28479982D01*
X99573810Y-28305354D01*
X99593812Y-28237233D01*
X99647468Y-28190740D01*
X99687459Y-28179961D01*
X99793903Y-28169477D01*
X99871707Y-28161815D01*
X99871708Y-28161814D01*
X99871715Y-28161814D01*
X100071243Y-28101288D01*
X100255130Y-28002998D01*
X100416307Y-27870723D01*
X100548582Y-27709546D01*
X100646872Y-27525659D01*
X100707398Y-27326131D01*
X100721707Y-27180854D01*
X100727835Y-27118632D01*
X100727835Y-27118625D01*
X100707399Y-26911133D01*
X100707398Y-26911131D01*
X100707398Y-26911127D01*
X100646872Y-26711599D01*
X100548582Y-26527712D01*
X100449459Y-26406930D01*
X100449450Y-26406921D01*
X100449442Y-26406912D01*
X100093087Y-26050557D01*
X100093077Y-26050548D01*
X100093070Y-26050541D01*
X99972288Y-25951418D01*
X99788401Y-25853128D01*
X99588873Y-25792602D01*
X99588872Y-25792601D01*
X99588866Y-25792600D01*
X99383487Y-25772373D01*
X99382174Y-25771842D01*
X99379632Y-25772335D01*
X99173875Y-25792600D01*
X98974340Y-25853128D01*
X98790453Y-25951418D01*
X98629277Y-26083693D01*
X98497002Y-26244869D01*
X98398712Y-26428756D01*
X98338184Y-26628291D01*
X98320038Y-26812540D01*
X98293456Y-26878372D01*
X98235501Y-26919382D01*
X98194645Y-26926190D01*
X98020018Y-26926190D01*
X97847666Y-26967038D01*
X97689379Y-27046533D01*
X97689378Y-27046534D01*
X97608505Y-27112414D01*
X97608501Y-27112417D01*
X97540064Y-27180853D01*
X97540064Y-27180854D01*
X93058500Y-27180854D01*
X93058500Y-26996000D01*
X93442000Y-26996000D01*
X93996000Y-26996000D01*
X93996000Y-25867000D01*
X94504000Y-25867000D01*
X94504000Y-26996000D01*
X95058000Y-26996000D01*
X95058000Y-26326414D01*
X95057999Y-26326402D01*
X95051494Y-26265906D01*
X95000444Y-26129035D01*
X95000444Y-26129034D01*
X94912904Y-26012095D01*
X94795965Y-25924555D01*
X94659093Y-25873505D01*
X94598597Y-25867000D01*
X94504000Y-25867000D01*
X93996000Y-25867000D01*
X93901402Y-25867000D01*
X93840906Y-25873505D01*
X93704035Y-25924555D01*
X93704034Y-25924555D01*
X93587095Y-26012095D01*
X93499555Y-26129034D01*
X93499555Y-26129035D01*
X93448505Y-26265906D01*
X93442000Y-26326402D01*
X93442000Y-26996000D01*
X93058500Y-26996000D01*
X93058500Y-26326367D01*
X93058499Y-26326350D01*
X93051990Y-26265803D01*
X93051988Y-26265795D01*
X93009551Y-26152019D01*
X93000889Y-26128796D01*
X93000888Y-26128794D01*
X93000887Y-26128792D01*
X92913261Y-26011738D01*
X92796207Y-25924112D01*
X92796202Y-25924110D01*
X92659204Y-25873011D01*
X92659196Y-25873009D01*
X92598649Y-25866500D01*
X92598638Y-25866500D01*
X91901362Y-25866500D01*
X91901350Y-25866500D01*
X91840803Y-25873009D01*
X91840795Y-25873011D01*
X91703797Y-25924110D01*
X91703792Y-25924112D01*
X91586738Y-26011738D01*
X91499112Y-26128792D01*
X91499110Y-26128797D01*
X91448011Y-26265795D01*
X91448009Y-26265803D01*
X91441500Y-26326350D01*
X91441500Y-26365500D01*
X91421498Y-26433621D01*
X91367842Y-26480114D01*
X91315500Y-26491500D01*
X90958853Y-26491500D01*
X90943011Y-26489750D01*
X90942984Y-26490044D01*
X90935092Y-26489298D01*
X90935091Y-26489298D01*
X90865042Y-26491500D01*
X90835144Y-26491500D01*
X90835140Y-26491500D01*
X90835130Y-26491501D01*
X90828179Y-26492379D01*
X90822267Y-26492844D01*
X90775113Y-26494326D01*
X90775111Y-26494327D01*
X90755656Y-26499978D01*
X90736303Y-26503986D01*
X90716211Y-26506524D01*
X90716204Y-26506525D01*
X90716203Y-26506526D01*
X90716201Y-26506526D01*
X90716200Y-26506527D01*
X90672339Y-26523892D01*
X90666724Y-26525815D01*
X90621407Y-26538982D01*
X90603964Y-26549297D01*
X90586218Y-26557990D01*
X90567382Y-26565448D01*
X90529209Y-26593181D01*
X90524248Y-26596440D01*
X90483638Y-26620458D01*
X90469311Y-26634784D01*
X90454285Y-26647617D01*
X90437895Y-26659525D01*
X90437893Y-26659527D01*
X90407808Y-26695892D01*
X90403812Y-26700283D01*
X89299500Y-27804595D01*
X89237188Y-27838620D01*
X89210405Y-27841500D01*
X89154513Y-27841500D01*
X88967711Y-27881206D01*
X88793247Y-27958882D01*
X88699061Y-28027313D01*
X88632193Y-28051172D01*
X88563042Y-28035091D01*
X88550939Y-28027313D01*
X88456752Y-27958882D01*
X88282288Y-27881206D01*
X88095487Y-27841500D01*
X87904513Y-27841500D01*
X87717711Y-27881206D01*
X87543247Y-27958882D01*
X87388744Y-28071135D01*
X87260965Y-28213048D01*
X87260958Y-28213058D01*
X87165476Y-28378438D01*
X87165473Y-28378445D01*
X87106457Y-28560072D01*
X87086496Y-28749999D01*
X82194400Y-28749999D01*
X82194400Y-27890589D01*
X82214402Y-27822468D01*
X82231300Y-27801499D01*
X84494228Y-25538571D01*
X84556538Y-25504547D01*
X84583483Y-25501668D01*
X99367450Y-25520943D01*
G37*
G04 #@! TD.AperFunction*
G04 #@! TA.AperFunction,Conductor*
G36*
X79091623Y-37000000D02*
G01*
X78803612Y-37000000D01*
X78822000Y-36996000D01*
X79078000Y-36996000D01*
X79091623Y-37000000D01*
G37*
G04 #@! TD.AperFunction*
G04 #@! TA.AperFunction,Conductor*
G36*
X84473708Y-24820002D02*
G01*
X84520201Y-24873658D01*
X84530305Y-24943932D01*
X84522968Y-24971800D01*
X84464601Y-25121389D01*
X84436315Y-25164684D01*
X81915000Y-27685998D01*
X81915000Y-30080026D01*
X81904000Y-30117488D01*
X81904000Y-30985149D01*
X81848264Y-30901736D01*
X81757300Y-30840955D01*
X81650000Y-30819612D01*
X81542700Y-30840955D01*
X81451736Y-30901736D01*
X81396000Y-30985149D01*
X81396000Y-30145820D01*
X81214859Y-30212907D01*
X81045197Y-30318658D01*
X81045194Y-30318661D01*
X80900291Y-30456403D01*
X80786084Y-30620487D01*
X80707246Y-30804205D01*
X80667831Y-30996000D01*
X81390299Y-30996000D01*
X81375000Y-31072912D01*
X81375000Y-31427088D01*
X81390299Y-31504000D01*
X80672507Y-31504000D01*
X80677516Y-31553253D01*
X80664508Y-31623048D01*
X80615831Y-31674730D01*
X80552162Y-31692000D01*
X79826402Y-31692000D01*
X79765906Y-31698505D01*
X79629035Y-31749555D01*
X79629034Y-31749555D01*
X79512095Y-31837095D01*
X79424555Y-31954034D01*
X79424555Y-31954035D01*
X79373505Y-32090906D01*
X79367000Y-32151402D01*
X79367000Y-32246000D01*
X80878000Y-32246000D01*
X80946121Y-32266002D01*
X80992614Y-32319658D01*
X81004000Y-32372000D01*
X81004000Y-32628000D01*
X80983998Y-32696121D01*
X80930342Y-32742614D01*
X80878000Y-32754000D01*
X80157044Y-32754000D01*
X80113011Y-32746055D01*
X79984204Y-32698011D01*
X79984196Y-32698009D01*
X79923649Y-32691500D01*
X79923638Y-32691500D01*
X78076362Y-32691500D01*
X78076350Y-32691500D01*
X78015803Y-32698009D01*
X78015795Y-32698011D01*
X77878797Y-32749110D01*
X77878792Y-32749112D01*
X77755509Y-32841402D01*
X77688989Y-32866213D01*
X77619615Y-32851122D01*
X77569412Y-32800919D01*
X77554000Y-32740756D01*
X77553925Y-32698009D01*
X77550536Y-30776406D01*
X77570418Y-30708254D01*
X77623992Y-30661667D01*
X77694248Y-30651439D01*
X77758880Y-30680818D01*
X77783465Y-30709539D01*
X77862500Y-30836341D01*
X77862510Y-30836354D01*
X77996042Y-30976827D01*
X77996041Y-30976827D01*
X78155121Y-31087550D01*
X78333232Y-31163982D01*
X78523087Y-31202999D01*
X78523093Y-31203000D01*
X78696000Y-31203000D01*
X78696000Y-30504000D01*
X79204000Y-30504000D01*
X79204000Y-31203000D01*
X79328331Y-31203000D01*
X79328350Y-31202999D01*
X79472819Y-31188307D01*
X79472824Y-31188306D01*
X79657757Y-31130283D01*
X79827226Y-31036221D01*
X79827227Y-31036221D01*
X79974285Y-30909976D01*
X79974290Y-30909970D01*
X80092929Y-30756701D01*
X80178285Y-30582691D01*
X80178286Y-30582690D01*
X80198661Y-30504000D01*
X79204000Y-30504000D01*
X78696000Y-30504000D01*
X78696000Y-30500000D01*
X79299624Y-30500000D01*
X79372545Y-30485495D01*
X79455240Y-30430240D01*
X79510495Y-30347545D01*
X79529898Y-30250000D01*
X79510495Y-30152455D01*
X79455240Y-30069760D01*
X79372545Y-30014505D01*
X79299624Y-30000000D01*
X78696000Y-30000000D01*
X78696000Y-29297000D01*
X79204000Y-29297000D01*
X79204000Y-29996000D01*
X80202188Y-29996000D01*
X80140019Y-29828141D01*
X80037493Y-29663652D01*
X80037489Y-29663645D01*
X79903957Y-29523172D01*
X79903958Y-29523172D01*
X79744878Y-29412449D01*
X79566767Y-29336017D01*
X79376912Y-29297000D01*
X79204000Y-29297000D01*
X78696000Y-29297000D01*
X78571649Y-29297000D01*
X78427180Y-29311692D01*
X78427175Y-29311693D01*
X78242242Y-29369716D01*
X78072773Y-29463778D01*
X78072772Y-29463778D01*
X77925714Y-29590023D01*
X77925709Y-29590029D01*
X77807069Y-29743299D01*
X77787808Y-29782565D01*
X77739850Y-29834914D01*
X77671202Y-29853025D01*
X77603660Y-29831147D01*
X77558669Y-29776226D01*
X77548687Y-29727300D01*
X77546790Y-28651775D01*
X77566672Y-28583623D01*
X77620246Y-28537036D01*
X77671655Y-28525815D01*
X77671650Y-28525712D01*
X77672270Y-28525681D01*
X77672838Y-28525557D01*
X77674777Y-28525558D01*
X78022618Y-28490986D01*
X78365333Y-28422179D01*
X78699563Y-28319813D01*
X79022029Y-28184892D01*
X79329570Y-28018738D01*
X79619170Y-27822982D01*
X79887988Y-27599543D01*
X80133388Y-27350612D01*
X80352965Y-27078629D01*
X80544565Y-26786263D01*
X80706308Y-26476380D01*
X80836609Y-26152019D01*
X80934190Y-25816362D01*
X80998095Y-25472698D01*
X81000086Y-25449261D01*
X81027694Y-25124414D01*
X81027693Y-25124411D01*
X81027695Y-25124399D01*
X81025142Y-24949816D01*
X81025149Y-24925961D01*
X81045172Y-24857847D01*
X81098842Y-24811370D01*
X81151149Y-24800000D01*
X84405587Y-24800000D01*
X84473708Y-24820002D01*
G37*
G04 #@! TD.AperFunction*
G04 #@! TA.AperFunction,Conductor*
G36*
X109916621Y-24820002D02*
G01*
X109963114Y-24873658D01*
X109974500Y-24926000D01*
X109974500Y-24946483D01*
X109974459Y-24949278D01*
X109972787Y-25063778D01*
X109971906Y-25124070D01*
X110001513Y-25472390D01*
X110001514Y-25472393D01*
X110065428Y-25816089D01*
X110163024Y-26151784D01*
X110293339Y-26476172D01*
X110293342Y-26476178D01*
X110391485Y-26664204D01*
X110455105Y-26786090D01*
X110646727Y-27078486D01*
X110866329Y-27350495D01*
X111111757Y-27599451D01*
X111380604Y-27822913D01*
X111670235Y-28018688D01*
X111977809Y-28184858D01*
X112122397Y-28245353D01*
X112300299Y-28319788D01*
X112300316Y-28319794D01*
X112368721Y-28340744D01*
X112634575Y-28422168D01*
X112977327Y-28490982D01*
X113325204Y-28525558D01*
X113348457Y-28525550D01*
X113416585Y-28545529D01*
X113463096Y-28599169D01*
X113474500Y-28651550D01*
X113474500Y-38848500D01*
X113454498Y-38916621D01*
X113400842Y-38963114D01*
X113348500Y-38974500D01*
X113326796Y-38974500D01*
X112982092Y-39008450D01*
X112982079Y-39008451D01*
X112982078Y-39008452D01*
X112982075Y-39008452D01*
X112982072Y-39008453D01*
X112642353Y-39076026D01*
X112310866Y-39176581D01*
X112310863Y-39176582D01*
X111990836Y-39309142D01*
X111685342Y-39472432D01*
X111397327Y-39664877D01*
X111129573Y-39884617D01*
X111129545Y-39884642D01*
X110884642Y-40129545D01*
X110884617Y-40129573D01*
X110664877Y-40397327D01*
X110472432Y-40685342D01*
X110309142Y-40990836D01*
X110176582Y-41310863D01*
X110176581Y-41310866D01*
X110076026Y-41642353D01*
X110008453Y-41982072D01*
X110008450Y-41982092D01*
X109974500Y-42326796D01*
X109974500Y-42596800D01*
X109954498Y-42664921D01*
X109900842Y-42711414D01*
X109848500Y-42722800D01*
X105424384Y-42722800D01*
X105356263Y-42702798D01*
X105309770Y-42649142D01*
X105299666Y-42578868D01*
X105329160Y-42514288D01*
X105388886Y-42475904D01*
X105399799Y-42473221D01*
X105585797Y-42436224D01*
X105866145Y-42341059D01*
X106131673Y-42210115D01*
X106377838Y-42045633D01*
X106600427Y-41850427D01*
X106795633Y-41627838D01*
X106960115Y-41381673D01*
X107091059Y-41116145D01*
X107186224Y-40835797D01*
X107243983Y-40545426D01*
X107263346Y-40250000D01*
X107243983Y-39954574D01*
X107186224Y-39664203D01*
X107091059Y-39383855D01*
X107080712Y-39362875D01*
X107068524Y-39292934D01*
X107096084Y-39227504D01*
X107104615Y-39218064D01*
X108164677Y-38158002D01*
X108223776Y-38125731D01*
X108223572Y-38124967D01*
X108226721Y-38124123D01*
X108226987Y-38123978D01*
X108228025Y-38123773D01*
X108228881Y-38123543D01*
X108228887Y-38123543D01*
X108450043Y-38064284D01*
X108657549Y-37967523D01*
X108845100Y-37836198D01*
X109006998Y-37674300D01*
X109138323Y-37486749D01*
X109235084Y-37279243D01*
X109294343Y-37058087D01*
X109314298Y-36830000D01*
X109294343Y-36601913D01*
X109235084Y-36380757D01*
X109138323Y-36173251D01*
X109006998Y-35985700D01*
X108845100Y-35823802D01*
X108657549Y-35692477D01*
X108657548Y-35692476D01*
X108450046Y-35595717D01*
X108450040Y-35595715D01*
X108356571Y-35570670D01*
X108228887Y-35536457D01*
X108000800Y-35516502D01*
X107772713Y-35536457D01*
X107551559Y-35595715D01*
X107551553Y-35595717D01*
X107344050Y-35692477D01*
X107156503Y-35823799D01*
X107156497Y-35823804D01*
X106994604Y-35985697D01*
X106994599Y-35985703D01*
X106863277Y-36173250D01*
X106766517Y-36380753D01*
X106766515Y-36380759D01*
X106707257Y-36601913D01*
X106687302Y-36829999D01*
X106707257Y-37058086D01*
X106766516Y-37279243D01*
X106771068Y-37289005D01*
X106781729Y-37359196D01*
X106752749Y-37424009D01*
X106745968Y-37431349D01*
X106031943Y-38145374D01*
X105969631Y-38179400D01*
X105898816Y-38174335D01*
X105887132Y-38169290D01*
X105866145Y-38158941D01*
X105866137Y-38158938D01*
X105585805Y-38063778D01*
X105585799Y-38063776D01*
X105585797Y-38063776D01*
X105488566Y-38044435D01*
X105295435Y-38006018D01*
X105295421Y-38006016D01*
X105000003Y-37986654D01*
X104999996Y-37986654D01*
X104782241Y-38000926D01*
X104712957Y-37985422D01*
X104663055Y-37934922D01*
X104648000Y-37875196D01*
X104648000Y-29624803D01*
X104668002Y-29556682D01*
X104721658Y-29510189D01*
X104782238Y-29499073D01*
X104938554Y-29509318D01*
X104999997Y-29513346D01*
X105000000Y-29513346D01*
X105000003Y-29513346D01*
X105110784Y-29506084D01*
X105295426Y-29493983D01*
X105585797Y-29436224D01*
X105866145Y-29341059D01*
X106131673Y-29210115D01*
X106377838Y-29045633D01*
X106600427Y-28850427D01*
X106795633Y-28627838D01*
X106960115Y-28381673D01*
X107091059Y-28116145D01*
X107186224Y-27835797D01*
X107243983Y-27545426D01*
X107263346Y-27250000D01*
X107258916Y-27182417D01*
X107253664Y-27102287D01*
X107243983Y-26954574D01*
X107186224Y-26664203D01*
X107091059Y-26383855D01*
X106960115Y-26118327D01*
X106795633Y-25872162D01*
X106600427Y-25649573D01*
X106377838Y-25454367D01*
X106377830Y-25454361D01*
X106377827Y-25454359D01*
X106131670Y-25289883D01*
X105866151Y-25158944D01*
X105866145Y-25158941D01*
X105866140Y-25158939D01*
X105866137Y-25158938D01*
X105585805Y-25063778D01*
X105585799Y-25063776D01*
X105585797Y-25063776D01*
X105514422Y-25049578D01*
X105451514Y-25016671D01*
X105416382Y-24954976D01*
X105420182Y-24884081D01*
X105461708Y-24826495D01*
X105527775Y-24800501D01*
X105539005Y-24800000D01*
X109848500Y-24800000D01*
X109916621Y-24820002D01*
G37*
G04 #@! TD.AperFunction*
M02*
