G04 #@! TF.GenerationSoftware,KiCad,Pcbnew,7.0.6-7.0.6~ubuntu22.04.1*
G04 #@! TF.CreationDate,2023-07-08T17:09:49+02:00*
G04 #@! TF.ProjectId,combined,636f6d62-696e-4656-942e-6b696361645f,rev?*
G04 #@! TF.SameCoordinates,Original*
G04 #@! TF.FileFunction,Legend,Top*
G04 #@! TF.FilePolarity,Positive*
%FSLAX46Y46*%
G04 Gerber Fmt 4.6, Leading zero omitted, Abs format (unit mm)*
G04 Created by KiCad (PCBNEW 7.0.6-7.0.6~ubuntu22.04.1) date 2023-07-08 17:09:49*
%MOMM*%
%LPD*%
G01*
G04 APERTURE LIST*
G04 Aperture macros list*
%AMRoundRect*
0 Rectangle with rounded corners*
0 $1 Rounding radius*
0 $2 $3 $4 $5 $6 $7 $8 $9 X,Y pos of 4 corners*
0 Add a 4 corners polygon primitive as box body*
4,1,4,$2,$3,$4,$5,$6,$7,$8,$9,$2,$3,0*
0 Add four circle primitives for the rounded corners*
1,1,$1+$1,$2,$3*
1,1,$1+$1,$4,$5*
1,1,$1+$1,$6,$7*
1,1,$1+$1,$8,$9*
0 Add four rect primitives between the rounded corners*
20,1,$1+$1,$2,$3,$4,$5,0*
20,1,$1+$1,$4,$5,$6,$7,0*
20,1,$1+$1,$6,$7,$8,$9,0*
20,1,$1+$1,$8,$9,$2,$3,0*%
%AMHorizOval*
0 Thick line with rounded ends*
0 $1 width*
0 $2 $3 position (X,Y) of the first rounded end (center of the circle)*
0 $4 $5 position (X,Y) of the second rounded end (center of the circle)*
0 Add line between two ends*
20,1,$1,$2,$3,$4,$5,0*
0 Add two circle primitives to create the rounded ends*
1,1,$1,$2,$3*
1,1,$1,$4,$5*%
G04 Aperture macros list end*
%ADD10C,0.120000*%
%ADD11C,0.150000*%
%ADD12C,1.400000*%
%ADD13RoundRect,0.140000X0.170000X-0.140000X0.170000X0.140000X-0.170000X0.140000X-0.170000X-0.140000X0*%
%ADD14RoundRect,0.140000X-0.170000X0.140000X-0.170000X-0.140000X0.170000X-0.140000X0.170000X0.140000X0*%
%ADD15RoundRect,0.140000X0.140000X0.170000X-0.140000X0.170000X-0.140000X-0.170000X0.140000X-0.170000X0*%
%ADD16RoundRect,0.250000X0.300000X0.300000X-0.300000X0.300000X-0.300000X-0.300000X0.300000X-0.300000X0*%
%ADD17R,1.350000X0.400000*%
%ADD18O,1.550000X0.890000*%
%ADD19R,1.550000X1.200000*%
%ADD20O,0.950000X1.250000*%
%ADD21R,1.550000X1.500000*%
%ADD22RoundRect,0.135000X0.135000X0.185000X-0.135000X0.185000X-0.135000X-0.185000X0.135000X-0.185000X0*%
%ADD23RoundRect,0.135000X0.185000X-0.135000X0.185000X0.135000X-0.185000X0.135000X-0.185000X-0.135000X0*%
%ADD24RoundRect,0.135000X-0.135000X-0.185000X0.135000X-0.185000X0.135000X0.185000X-0.135000X0.185000X0*%
%ADD25RoundRect,0.150000X0.150000X-0.512500X0.150000X0.512500X-0.150000X0.512500X-0.150000X-0.512500X0*%
%ADD26RoundRect,0.075000X0.662500X0.075000X-0.662500X0.075000X-0.662500X-0.075000X0.662500X-0.075000X0*%
%ADD27RoundRect,0.075000X0.075000X0.662500X-0.075000X0.662500X-0.075000X-0.662500X0.075000X-0.662500X0*%
%ADD28R,1.750000X0.450000*%
%ADD29RoundRect,0.243750X-0.456250X0.243750X-0.456250X-0.243750X0.456250X-0.243750X0.456250X0.243750X0*%
%ADD30C,3.500000*%
%ADD31RoundRect,0.249700X0.566110X0.141421X0.141421X0.566110X-0.566110X-0.141421X-0.141421X-0.566110X0*%
%ADD32HorizOval,1.100000X0.141421X0.141421X-0.141421X-0.141421X0*%
%ADD33RoundRect,0.249700X0.141421X-0.566110X0.566110X-0.141421X-0.141421X0.566110X-0.566110X0.141421X0*%
%ADD34HorizOval,1.100000X-0.141421X0.141421X0.141421X-0.141421X0*%
G04 APERTURE END LIST*
D10*
X99289000Y-34351000D02*
X99187000Y-35306000D01*
X98933000Y-35306000D02*
X99441000Y-35306000D01*
X99441000Y-37211000D01*
X98933000Y-37211000D01*
X98933000Y-35306000D01*
X99187000Y-37211000D02*
X98933000Y-38608000D01*
X99441000Y-29146500D02*
X99695000Y-27940000D01*
X99441000Y-31051500D02*
X99289000Y-32451000D01*
X99187000Y-29146500D02*
X99695000Y-29146500D01*
X99695000Y-31051500D01*
X99187000Y-31051500D01*
X99187000Y-29146500D01*
D11*
X96745588Y-29692438D02*
X96650350Y-29644819D01*
X96650350Y-29644819D02*
X96507493Y-29644819D01*
X96507493Y-29644819D02*
X96364636Y-29692438D01*
X96364636Y-29692438D02*
X96269398Y-29787676D01*
X96269398Y-29787676D02*
X96221779Y-29882914D01*
X96221779Y-29882914D02*
X96174160Y-30073390D01*
X96174160Y-30073390D02*
X96174160Y-30216247D01*
X96174160Y-30216247D02*
X96221779Y-30406723D01*
X96221779Y-30406723D02*
X96269398Y-30501961D01*
X96269398Y-30501961D02*
X96364636Y-30597200D01*
X96364636Y-30597200D02*
X96507493Y-30644819D01*
X96507493Y-30644819D02*
X96602731Y-30644819D01*
X96602731Y-30644819D02*
X96745588Y-30597200D01*
X96745588Y-30597200D02*
X96793207Y-30549580D01*
X96793207Y-30549580D02*
X96793207Y-30216247D01*
X96793207Y-30216247D02*
X96602731Y-30216247D01*
X97650350Y-30644819D02*
X97650350Y-30121009D01*
X97650350Y-30121009D02*
X97602731Y-30025771D01*
X97602731Y-30025771D02*
X97507493Y-29978152D01*
X97507493Y-29978152D02*
X97317017Y-29978152D01*
X97317017Y-29978152D02*
X97221779Y-30025771D01*
X97650350Y-30597200D02*
X97555112Y-30644819D01*
X97555112Y-30644819D02*
X97317017Y-30644819D01*
X97317017Y-30644819D02*
X97221779Y-30597200D01*
X97221779Y-30597200D02*
X97174160Y-30501961D01*
X97174160Y-30501961D02*
X97174160Y-30406723D01*
X97174160Y-30406723D02*
X97221779Y-30311485D01*
X97221779Y-30311485D02*
X97317017Y-30263866D01*
X97317017Y-30263866D02*
X97555112Y-30263866D01*
X97555112Y-30263866D02*
X97650350Y-30216247D01*
X98126541Y-30644819D02*
X98126541Y-29978152D01*
X98126541Y-29644819D02*
X98078922Y-29692438D01*
X98078922Y-29692438D02*
X98126541Y-29740057D01*
X98126541Y-29740057D02*
X98174160Y-29692438D01*
X98174160Y-29692438D02*
X98126541Y-29644819D01*
X98126541Y-29644819D02*
X98126541Y-29740057D01*
X98602731Y-29978152D02*
X98602731Y-30644819D01*
X98602731Y-30073390D02*
X98650350Y-30025771D01*
X98650350Y-30025771D02*
X98745588Y-29978152D01*
X98745588Y-29978152D02*
X98888445Y-29978152D01*
X98888445Y-29978152D02*
X98983683Y-30025771D01*
X98983683Y-30025771D02*
X99031302Y-30121009D01*
X99031302Y-30121009D02*
X99031302Y-30644819D01*
X96221779Y-32254819D02*
X96221779Y-31254819D01*
X96221779Y-31254819D02*
X96555112Y-31969104D01*
X96555112Y-31969104D02*
X96888445Y-31254819D01*
X96888445Y-31254819D02*
X96888445Y-32254819D01*
X97507493Y-32254819D02*
X97412255Y-32207200D01*
X97412255Y-32207200D02*
X97364636Y-32159580D01*
X97364636Y-32159580D02*
X97317017Y-32064342D01*
X97317017Y-32064342D02*
X97317017Y-31778628D01*
X97317017Y-31778628D02*
X97364636Y-31683390D01*
X97364636Y-31683390D02*
X97412255Y-31635771D01*
X97412255Y-31635771D02*
X97507493Y-31588152D01*
X97507493Y-31588152D02*
X97650350Y-31588152D01*
X97650350Y-31588152D02*
X97745588Y-31635771D01*
X97745588Y-31635771D02*
X97793207Y-31683390D01*
X97793207Y-31683390D02*
X97840826Y-31778628D01*
X97840826Y-31778628D02*
X97840826Y-32064342D01*
X97840826Y-32064342D02*
X97793207Y-32159580D01*
X97793207Y-32159580D02*
X97745588Y-32207200D01*
X97745588Y-32207200D02*
X97650350Y-32254819D01*
X97650350Y-32254819D02*
X97507493Y-32254819D01*
X98697969Y-32254819D02*
X98697969Y-31254819D01*
X98697969Y-32207200D02*
X98602731Y-32254819D01*
X98602731Y-32254819D02*
X98412255Y-32254819D01*
X98412255Y-32254819D02*
X98317017Y-32207200D01*
X98317017Y-32207200D02*
X98269398Y-32159580D01*
X98269398Y-32159580D02*
X98221779Y-32064342D01*
X98221779Y-32064342D02*
X98221779Y-31778628D01*
X98221779Y-31778628D02*
X98269398Y-31683390D01*
X98269398Y-31683390D02*
X98317017Y-31635771D01*
X98317017Y-31635771D02*
X98412255Y-31588152D01*
X98412255Y-31588152D02*
X98602731Y-31588152D01*
X98602731Y-31588152D02*
X98697969Y-31635771D01*
X90663733Y-41659980D02*
X90616114Y-41707600D01*
X90616114Y-41707600D02*
X90473257Y-41755219D01*
X90473257Y-41755219D02*
X90378019Y-41755219D01*
X90378019Y-41755219D02*
X90235162Y-41707600D01*
X90235162Y-41707600D02*
X90139924Y-41612361D01*
X90139924Y-41612361D02*
X90092305Y-41517123D01*
X90092305Y-41517123D02*
X90044686Y-41326647D01*
X90044686Y-41326647D02*
X90044686Y-41183790D01*
X90044686Y-41183790D02*
X90092305Y-40993314D01*
X90092305Y-40993314D02*
X90139924Y-40898076D01*
X90139924Y-40898076D02*
X90235162Y-40802838D01*
X90235162Y-40802838D02*
X90378019Y-40755219D01*
X90378019Y-40755219D02*
X90473257Y-40755219D01*
X90473257Y-40755219D02*
X90616114Y-40802838D01*
X90616114Y-40802838D02*
X90663733Y-40850457D01*
X91616114Y-41755219D02*
X91044686Y-41755219D01*
X91330400Y-41755219D02*
X91330400Y-40755219D01*
X91330400Y-40755219D02*
X91235162Y-40898076D01*
X91235162Y-40898076D02*
X91139924Y-40993314D01*
X91139924Y-40993314D02*
X91044686Y-41040933D01*
X89139733Y-40237580D02*
X89092114Y-40285200D01*
X89092114Y-40285200D02*
X88949257Y-40332819D01*
X88949257Y-40332819D02*
X88854019Y-40332819D01*
X88854019Y-40332819D02*
X88711162Y-40285200D01*
X88711162Y-40285200D02*
X88615924Y-40189961D01*
X88615924Y-40189961D02*
X88568305Y-40094723D01*
X88568305Y-40094723D02*
X88520686Y-39904247D01*
X88520686Y-39904247D02*
X88520686Y-39761390D01*
X88520686Y-39761390D02*
X88568305Y-39570914D01*
X88568305Y-39570914D02*
X88615924Y-39475676D01*
X88615924Y-39475676D02*
X88711162Y-39380438D01*
X88711162Y-39380438D02*
X88854019Y-39332819D01*
X88854019Y-39332819D02*
X88949257Y-39332819D01*
X88949257Y-39332819D02*
X89092114Y-39380438D01*
X89092114Y-39380438D02*
X89139733Y-39428057D01*
X89473067Y-39332819D02*
X90092114Y-39332819D01*
X90092114Y-39332819D02*
X89758781Y-39713771D01*
X89758781Y-39713771D02*
X89901638Y-39713771D01*
X89901638Y-39713771D02*
X89996876Y-39761390D01*
X89996876Y-39761390D02*
X90044495Y-39809009D01*
X90044495Y-39809009D02*
X90092114Y-39904247D01*
X90092114Y-39904247D02*
X90092114Y-40142342D01*
X90092114Y-40142342D02*
X90044495Y-40237580D01*
X90044495Y-40237580D02*
X89996876Y-40285200D01*
X89996876Y-40285200D02*
X89901638Y-40332819D01*
X89901638Y-40332819D02*
X89615924Y-40332819D01*
X89615924Y-40332819D02*
X89520686Y-40285200D01*
X89520686Y-40285200D02*
X89473067Y-40237580D01*
X89139733Y-38662780D02*
X89092114Y-38710400D01*
X89092114Y-38710400D02*
X88949257Y-38758019D01*
X88949257Y-38758019D02*
X88854019Y-38758019D01*
X88854019Y-38758019D02*
X88711162Y-38710400D01*
X88711162Y-38710400D02*
X88615924Y-38615161D01*
X88615924Y-38615161D02*
X88568305Y-38519923D01*
X88568305Y-38519923D02*
X88520686Y-38329447D01*
X88520686Y-38329447D02*
X88520686Y-38186590D01*
X88520686Y-38186590D02*
X88568305Y-37996114D01*
X88568305Y-37996114D02*
X88615924Y-37900876D01*
X88615924Y-37900876D02*
X88711162Y-37805638D01*
X88711162Y-37805638D02*
X88854019Y-37758019D01*
X88854019Y-37758019D02*
X88949257Y-37758019D01*
X88949257Y-37758019D02*
X89092114Y-37805638D01*
X89092114Y-37805638D02*
X89139733Y-37853257D01*
X89996876Y-38091352D02*
X89996876Y-38758019D01*
X89758781Y-37710400D02*
X89520686Y-38424685D01*
X89520686Y-38424685D02*
X90139733Y-38424685D01*
X97387580Y-34964666D02*
X97435200Y-35012285D01*
X97435200Y-35012285D02*
X97482819Y-35155142D01*
X97482819Y-35155142D02*
X97482819Y-35250380D01*
X97482819Y-35250380D02*
X97435200Y-35393237D01*
X97435200Y-35393237D02*
X97339961Y-35488475D01*
X97339961Y-35488475D02*
X97244723Y-35536094D01*
X97244723Y-35536094D02*
X97054247Y-35583713D01*
X97054247Y-35583713D02*
X96911390Y-35583713D01*
X96911390Y-35583713D02*
X96720914Y-35536094D01*
X96720914Y-35536094D02*
X96625676Y-35488475D01*
X96625676Y-35488475D02*
X96530438Y-35393237D01*
X96530438Y-35393237D02*
X96482819Y-35250380D01*
X96482819Y-35250380D02*
X96482819Y-35155142D01*
X96482819Y-35155142D02*
X96530438Y-35012285D01*
X96530438Y-35012285D02*
X96578057Y-34964666D01*
X96482819Y-34059904D02*
X96482819Y-34536094D01*
X96482819Y-34536094D02*
X96959009Y-34583713D01*
X96959009Y-34583713D02*
X96911390Y-34536094D01*
X96911390Y-34536094D02*
X96863771Y-34440856D01*
X96863771Y-34440856D02*
X96863771Y-34202761D01*
X96863771Y-34202761D02*
X96911390Y-34107523D01*
X96911390Y-34107523D02*
X96959009Y-34059904D01*
X96959009Y-34059904D02*
X97054247Y-34012285D01*
X97054247Y-34012285D02*
X97292342Y-34012285D01*
X97292342Y-34012285D02*
X97387580Y-34059904D01*
X97387580Y-34059904D02*
X97435200Y-34107523D01*
X97435200Y-34107523D02*
X97482819Y-34202761D01*
X97482819Y-34202761D02*
X97482819Y-34440856D01*
X97482819Y-34440856D02*
X97435200Y-34536094D01*
X97435200Y-34536094D02*
X97387580Y-34583713D01*
X83138905Y-29359819D02*
X83138905Y-28359819D01*
X83138905Y-28359819D02*
X83377000Y-28359819D01*
X83377000Y-28359819D02*
X83519857Y-28407438D01*
X83519857Y-28407438D02*
X83615095Y-28502676D01*
X83615095Y-28502676D02*
X83662714Y-28597914D01*
X83662714Y-28597914D02*
X83710333Y-28788390D01*
X83710333Y-28788390D02*
X83710333Y-28931247D01*
X83710333Y-28931247D02*
X83662714Y-29121723D01*
X83662714Y-29121723D02*
X83615095Y-29216961D01*
X83615095Y-29216961D02*
X83519857Y-29312200D01*
X83519857Y-29312200D02*
X83377000Y-29359819D01*
X83377000Y-29359819D02*
X83138905Y-29359819D01*
X84091286Y-28455057D02*
X84138905Y-28407438D01*
X84138905Y-28407438D02*
X84234143Y-28359819D01*
X84234143Y-28359819D02*
X84472238Y-28359819D01*
X84472238Y-28359819D02*
X84567476Y-28407438D01*
X84567476Y-28407438D02*
X84615095Y-28455057D01*
X84615095Y-28455057D02*
X84662714Y-28550295D01*
X84662714Y-28550295D02*
X84662714Y-28645533D01*
X84662714Y-28645533D02*
X84615095Y-28788390D01*
X84615095Y-28788390D02*
X84043667Y-29359819D01*
X84043667Y-29359819D02*
X84662714Y-29359819D01*
X82888905Y-42254819D02*
X82888905Y-41254819D01*
X82888905Y-41254819D02*
X83127000Y-41254819D01*
X83127000Y-41254819D02*
X83269857Y-41302438D01*
X83269857Y-41302438D02*
X83365095Y-41397676D01*
X83365095Y-41397676D02*
X83412714Y-41492914D01*
X83412714Y-41492914D02*
X83460333Y-41683390D01*
X83460333Y-41683390D02*
X83460333Y-41826247D01*
X83460333Y-41826247D02*
X83412714Y-42016723D01*
X83412714Y-42016723D02*
X83365095Y-42111961D01*
X83365095Y-42111961D02*
X83269857Y-42207200D01*
X83269857Y-42207200D02*
X83127000Y-42254819D01*
X83127000Y-42254819D02*
X82888905Y-42254819D01*
X83793667Y-41254819D02*
X84412714Y-41254819D01*
X84412714Y-41254819D02*
X84079381Y-41635771D01*
X84079381Y-41635771D02*
X84222238Y-41635771D01*
X84222238Y-41635771D02*
X84317476Y-41683390D01*
X84317476Y-41683390D02*
X84365095Y-41731009D01*
X84365095Y-41731009D02*
X84412714Y-41826247D01*
X84412714Y-41826247D02*
X84412714Y-42064342D01*
X84412714Y-42064342D02*
X84365095Y-42159580D01*
X84365095Y-42159580D02*
X84317476Y-42207200D01*
X84317476Y-42207200D02*
X84222238Y-42254819D01*
X84222238Y-42254819D02*
X83936524Y-42254819D01*
X83936524Y-42254819D02*
X83841286Y-42207200D01*
X83841286Y-42207200D02*
X83793667Y-42159580D01*
X83204819Y-34238094D02*
X84014342Y-34238094D01*
X84014342Y-34238094D02*
X84109580Y-34190475D01*
X84109580Y-34190475D02*
X84157200Y-34142856D01*
X84157200Y-34142856D02*
X84204819Y-34047618D01*
X84204819Y-34047618D02*
X84204819Y-33857142D01*
X84204819Y-33857142D02*
X84157200Y-33761904D01*
X84157200Y-33761904D02*
X84109580Y-33714285D01*
X84109580Y-33714285D02*
X84014342Y-33666666D01*
X84014342Y-33666666D02*
X83204819Y-33666666D01*
X84157200Y-33238094D02*
X84204819Y-33095237D01*
X84204819Y-33095237D02*
X84204819Y-32857142D01*
X84204819Y-32857142D02*
X84157200Y-32761904D01*
X84157200Y-32761904D02*
X84109580Y-32714285D01*
X84109580Y-32714285D02*
X84014342Y-32666666D01*
X84014342Y-32666666D02*
X83919104Y-32666666D01*
X83919104Y-32666666D02*
X83823866Y-32714285D01*
X83823866Y-32714285D02*
X83776247Y-32761904D01*
X83776247Y-32761904D02*
X83728628Y-32857142D01*
X83728628Y-32857142D02*
X83681009Y-33047618D01*
X83681009Y-33047618D02*
X83633390Y-33142856D01*
X83633390Y-33142856D02*
X83585771Y-33190475D01*
X83585771Y-33190475D02*
X83490533Y-33238094D01*
X83490533Y-33238094D02*
X83395295Y-33238094D01*
X83395295Y-33238094D02*
X83300057Y-33190475D01*
X83300057Y-33190475D02*
X83252438Y-33142856D01*
X83252438Y-33142856D02*
X83204819Y-33047618D01*
X83204819Y-33047618D02*
X83204819Y-32809523D01*
X83204819Y-32809523D02*
X83252438Y-32666666D01*
X83681009Y-31904761D02*
X83728628Y-31761904D01*
X83728628Y-31761904D02*
X83776247Y-31714285D01*
X83776247Y-31714285D02*
X83871485Y-31666666D01*
X83871485Y-31666666D02*
X84014342Y-31666666D01*
X84014342Y-31666666D02*
X84109580Y-31714285D01*
X84109580Y-31714285D02*
X84157200Y-31761904D01*
X84157200Y-31761904D02*
X84204819Y-31857142D01*
X84204819Y-31857142D02*
X84204819Y-32238094D01*
X84204819Y-32238094D02*
X83204819Y-32238094D01*
X83204819Y-32238094D02*
X83204819Y-31904761D01*
X83204819Y-31904761D02*
X83252438Y-31809523D01*
X83252438Y-31809523D02*
X83300057Y-31761904D01*
X83300057Y-31761904D02*
X83395295Y-31714285D01*
X83395295Y-31714285D02*
X83490533Y-31714285D01*
X83490533Y-31714285D02*
X83585771Y-31761904D01*
X83585771Y-31761904D02*
X83633390Y-31809523D01*
X83633390Y-31809523D02*
X83681009Y-31904761D01*
X83681009Y-31904761D02*
X83681009Y-32238094D01*
X84204819Y-30714285D02*
X84204819Y-31285713D01*
X84204819Y-30999999D02*
X83204819Y-30999999D01*
X83204819Y-30999999D02*
X83347676Y-31095237D01*
X83347676Y-31095237D02*
X83442914Y-31190475D01*
X83442914Y-31190475D02*
X83490533Y-31285713D01*
X101433333Y-40637619D02*
X101100000Y-40161428D01*
X100861905Y-40637619D02*
X100861905Y-39637619D01*
X100861905Y-39637619D02*
X101242857Y-39637619D01*
X101242857Y-39637619D02*
X101338095Y-39685238D01*
X101338095Y-39685238D02*
X101385714Y-39732857D01*
X101385714Y-39732857D02*
X101433333Y-39828095D01*
X101433333Y-39828095D02*
X101433333Y-39970952D01*
X101433333Y-39970952D02*
X101385714Y-40066190D01*
X101385714Y-40066190D02*
X101338095Y-40113809D01*
X101338095Y-40113809D02*
X101242857Y-40161428D01*
X101242857Y-40161428D02*
X100861905Y-40161428D01*
X102385714Y-40637619D02*
X101814286Y-40637619D01*
X102100000Y-40637619D02*
X102100000Y-39637619D01*
X102100000Y-39637619D02*
X102004762Y-39780476D01*
X102004762Y-39780476D02*
X101909524Y-39875714D01*
X101909524Y-39875714D02*
X101814286Y-39923333D01*
X101814333Y-28902819D02*
X101481000Y-28426628D01*
X101242905Y-28902819D02*
X101242905Y-27902819D01*
X101242905Y-27902819D02*
X101623857Y-27902819D01*
X101623857Y-27902819D02*
X101719095Y-27950438D01*
X101719095Y-27950438D02*
X101766714Y-27998057D01*
X101766714Y-27998057D02*
X101814333Y-28093295D01*
X101814333Y-28093295D02*
X101814333Y-28236152D01*
X101814333Y-28236152D02*
X101766714Y-28331390D01*
X101766714Y-28331390D02*
X101719095Y-28379009D01*
X101719095Y-28379009D02*
X101623857Y-28426628D01*
X101623857Y-28426628D02*
X101242905Y-28426628D01*
X102195286Y-27998057D02*
X102242905Y-27950438D01*
X102242905Y-27950438D02*
X102338143Y-27902819D01*
X102338143Y-27902819D02*
X102576238Y-27902819D01*
X102576238Y-27902819D02*
X102671476Y-27950438D01*
X102671476Y-27950438D02*
X102719095Y-27998057D01*
X102719095Y-27998057D02*
X102766714Y-28093295D01*
X102766714Y-28093295D02*
X102766714Y-28188533D01*
X102766714Y-28188533D02*
X102719095Y-28331390D01*
X102719095Y-28331390D02*
X102147667Y-28902819D01*
X102147667Y-28902819D02*
X102766714Y-28902819D01*
X96226333Y-37030819D02*
X95893000Y-36554628D01*
X95654905Y-37030819D02*
X95654905Y-36030819D01*
X95654905Y-36030819D02*
X96035857Y-36030819D01*
X96035857Y-36030819D02*
X96131095Y-36078438D01*
X96131095Y-36078438D02*
X96178714Y-36126057D01*
X96178714Y-36126057D02*
X96226333Y-36221295D01*
X96226333Y-36221295D02*
X96226333Y-36364152D01*
X96226333Y-36364152D02*
X96178714Y-36459390D01*
X96178714Y-36459390D02*
X96131095Y-36507009D01*
X96131095Y-36507009D02*
X96035857Y-36554628D01*
X96035857Y-36554628D02*
X95654905Y-36554628D01*
X96559667Y-36030819D02*
X97178714Y-36030819D01*
X97178714Y-36030819D02*
X96845381Y-36411771D01*
X96845381Y-36411771D02*
X96988238Y-36411771D01*
X96988238Y-36411771D02*
X97083476Y-36459390D01*
X97083476Y-36459390D02*
X97131095Y-36507009D01*
X97131095Y-36507009D02*
X97178714Y-36602247D01*
X97178714Y-36602247D02*
X97178714Y-36840342D01*
X97178714Y-36840342D02*
X97131095Y-36935580D01*
X97131095Y-36935580D02*
X97083476Y-36983200D01*
X97083476Y-36983200D02*
X96988238Y-37030819D01*
X96988238Y-37030819D02*
X96702524Y-37030819D01*
X96702524Y-37030819D02*
X96607286Y-36983200D01*
X96607286Y-36983200D02*
X96559667Y-36935580D01*
X97978933Y-42415619D02*
X97645600Y-41939428D01*
X97407505Y-42415619D02*
X97407505Y-41415619D01*
X97407505Y-41415619D02*
X97788457Y-41415619D01*
X97788457Y-41415619D02*
X97883695Y-41463238D01*
X97883695Y-41463238D02*
X97931314Y-41510857D01*
X97931314Y-41510857D02*
X97978933Y-41606095D01*
X97978933Y-41606095D02*
X97978933Y-41748952D01*
X97978933Y-41748952D02*
X97931314Y-41844190D01*
X97931314Y-41844190D02*
X97883695Y-41891809D01*
X97883695Y-41891809D02*
X97788457Y-41939428D01*
X97788457Y-41939428D02*
X97407505Y-41939428D01*
X98836076Y-41748952D02*
X98836076Y-42415619D01*
X98597981Y-41368000D02*
X98359886Y-42082285D01*
X98359886Y-42082285D02*
X98978933Y-42082285D01*
X101333333Y-26362819D02*
X101000000Y-25886628D01*
X100761905Y-26362819D02*
X100761905Y-25362819D01*
X100761905Y-25362819D02*
X101142857Y-25362819D01*
X101142857Y-25362819D02*
X101238095Y-25410438D01*
X101238095Y-25410438D02*
X101285714Y-25458057D01*
X101285714Y-25458057D02*
X101333333Y-25553295D01*
X101333333Y-25553295D02*
X101333333Y-25696152D01*
X101333333Y-25696152D02*
X101285714Y-25791390D01*
X101285714Y-25791390D02*
X101238095Y-25839009D01*
X101238095Y-25839009D02*
X101142857Y-25886628D01*
X101142857Y-25886628D02*
X100761905Y-25886628D01*
X102238095Y-25362819D02*
X101761905Y-25362819D01*
X101761905Y-25362819D02*
X101714286Y-25839009D01*
X101714286Y-25839009D02*
X101761905Y-25791390D01*
X101761905Y-25791390D02*
X101857143Y-25743771D01*
X101857143Y-25743771D02*
X102095238Y-25743771D01*
X102095238Y-25743771D02*
X102190476Y-25791390D01*
X102190476Y-25791390D02*
X102238095Y-25839009D01*
X102238095Y-25839009D02*
X102285714Y-25934247D01*
X102285714Y-25934247D02*
X102285714Y-26172342D01*
X102285714Y-26172342D02*
X102238095Y-26267580D01*
X102238095Y-26267580D02*
X102190476Y-26315200D01*
X102190476Y-26315200D02*
X102095238Y-26362819D01*
X102095238Y-26362819D02*
X101857143Y-26362819D01*
X101857143Y-26362819D02*
X101761905Y-26315200D01*
X101761905Y-26315200D02*
X101714286Y-26267580D01*
X91707619Y-39166704D02*
X92517142Y-39166704D01*
X92517142Y-39166704D02*
X92612380Y-39119085D01*
X92612380Y-39119085D02*
X92660000Y-39071466D01*
X92660000Y-39071466D02*
X92707619Y-38976228D01*
X92707619Y-38976228D02*
X92707619Y-38785752D01*
X92707619Y-38785752D02*
X92660000Y-38690514D01*
X92660000Y-38690514D02*
X92612380Y-38642895D01*
X92612380Y-38642895D02*
X92517142Y-38595276D01*
X92517142Y-38595276D02*
X91707619Y-38595276D01*
X91707619Y-38214323D02*
X91707619Y-37595276D01*
X91707619Y-37595276D02*
X92088571Y-37928609D01*
X92088571Y-37928609D02*
X92088571Y-37785752D01*
X92088571Y-37785752D02*
X92136190Y-37690514D01*
X92136190Y-37690514D02*
X92183809Y-37642895D01*
X92183809Y-37642895D02*
X92279047Y-37595276D01*
X92279047Y-37595276D02*
X92517142Y-37595276D01*
X92517142Y-37595276D02*
X92612380Y-37642895D01*
X92612380Y-37642895D02*
X92660000Y-37690514D01*
X92660000Y-37690514D02*
X92707619Y-37785752D01*
X92707619Y-37785752D02*
X92707619Y-38071466D01*
X92707619Y-38071466D02*
X92660000Y-38166704D01*
X92660000Y-38166704D02*
X92612380Y-38214323D01*
X93488095Y-26454819D02*
X93488095Y-27264342D01*
X93488095Y-27264342D02*
X93535714Y-27359580D01*
X93535714Y-27359580D02*
X93583333Y-27407200D01*
X93583333Y-27407200D02*
X93678571Y-27454819D01*
X93678571Y-27454819D02*
X93869047Y-27454819D01*
X93869047Y-27454819D02*
X93964285Y-27407200D01*
X93964285Y-27407200D02*
X94011904Y-27359580D01*
X94011904Y-27359580D02*
X94059523Y-27264342D01*
X94059523Y-27264342D02*
X94059523Y-26454819D01*
X94964285Y-26788152D02*
X94964285Y-27454819D01*
X94726190Y-26407200D02*
X94488095Y-27121485D01*
X94488095Y-27121485D02*
X95107142Y-27121485D01*
X108988095Y-27954819D02*
X108988095Y-28764342D01*
X108988095Y-28764342D02*
X109035714Y-28859580D01*
X109035714Y-28859580D02*
X109083333Y-28907200D01*
X109083333Y-28907200D02*
X109178571Y-28954819D01*
X109178571Y-28954819D02*
X109369047Y-28954819D01*
X109369047Y-28954819D02*
X109464285Y-28907200D01*
X109464285Y-28907200D02*
X109511904Y-28859580D01*
X109511904Y-28859580D02*
X109559523Y-28764342D01*
X109559523Y-28764342D02*
X109559523Y-27954819D01*
X110511904Y-27954819D02*
X110035714Y-27954819D01*
X110035714Y-27954819D02*
X109988095Y-28431009D01*
X109988095Y-28431009D02*
X110035714Y-28383390D01*
X110035714Y-28383390D02*
X110130952Y-28335771D01*
X110130952Y-28335771D02*
X110369047Y-28335771D01*
X110369047Y-28335771D02*
X110464285Y-28383390D01*
X110464285Y-28383390D02*
X110511904Y-28431009D01*
X110511904Y-28431009D02*
X110559523Y-28526247D01*
X110559523Y-28526247D02*
X110559523Y-28764342D01*
X110559523Y-28764342D02*
X110511904Y-28859580D01*
X110511904Y-28859580D02*
X110464285Y-28907200D01*
X110464285Y-28907200D02*
X110369047Y-28954819D01*
X110369047Y-28954819D02*
X110130952Y-28954819D01*
X110130952Y-28954819D02*
X110035714Y-28907200D01*
X110035714Y-28907200D02*
X109988095Y-28859580D01*
X85975619Y-37618894D02*
X84975619Y-37618894D01*
X84975619Y-37618894D02*
X84975619Y-37380799D01*
X84975619Y-37380799D02*
X85023238Y-37237942D01*
X85023238Y-37237942D02*
X85118476Y-37142704D01*
X85118476Y-37142704D02*
X85213714Y-37095085D01*
X85213714Y-37095085D02*
X85404190Y-37047466D01*
X85404190Y-37047466D02*
X85547047Y-37047466D01*
X85547047Y-37047466D02*
X85737523Y-37095085D01*
X85737523Y-37095085D02*
X85832761Y-37142704D01*
X85832761Y-37142704D02*
X85928000Y-37237942D01*
X85928000Y-37237942D02*
X85975619Y-37380799D01*
X85975619Y-37380799D02*
X85975619Y-37618894D01*
X85975619Y-36095085D02*
X85975619Y-36666513D01*
X85975619Y-36380799D02*
X84975619Y-36380799D01*
X84975619Y-36380799D02*
X85118476Y-36476037D01*
X85118476Y-36476037D02*
X85213714Y-36571275D01*
X85213714Y-36571275D02*
X85261333Y-36666513D01*
X86752133Y-39824819D02*
X86418800Y-39348628D01*
X86180705Y-39824819D02*
X86180705Y-38824819D01*
X86180705Y-38824819D02*
X86561657Y-38824819D01*
X86561657Y-38824819D02*
X86656895Y-38872438D01*
X86656895Y-38872438D02*
X86704514Y-38920057D01*
X86704514Y-38920057D02*
X86752133Y-39015295D01*
X86752133Y-39015295D02*
X86752133Y-39158152D01*
X86752133Y-39158152D02*
X86704514Y-39253390D01*
X86704514Y-39253390D02*
X86656895Y-39301009D01*
X86656895Y-39301009D02*
X86561657Y-39348628D01*
X86561657Y-39348628D02*
X86180705Y-39348628D01*
X87609276Y-38824819D02*
X87418800Y-38824819D01*
X87418800Y-38824819D02*
X87323562Y-38872438D01*
X87323562Y-38872438D02*
X87275943Y-38920057D01*
X87275943Y-38920057D02*
X87180705Y-39062914D01*
X87180705Y-39062914D02*
X87133086Y-39253390D01*
X87133086Y-39253390D02*
X87133086Y-39634342D01*
X87133086Y-39634342D02*
X87180705Y-39729580D01*
X87180705Y-39729580D02*
X87228324Y-39777200D01*
X87228324Y-39777200D02*
X87323562Y-39824819D01*
X87323562Y-39824819D02*
X87514038Y-39824819D01*
X87514038Y-39824819D02*
X87609276Y-39777200D01*
X87609276Y-39777200D02*
X87656895Y-39729580D01*
X87656895Y-39729580D02*
X87704514Y-39634342D01*
X87704514Y-39634342D02*
X87704514Y-39396247D01*
X87704514Y-39396247D02*
X87656895Y-39301009D01*
X87656895Y-39301009D02*
X87609276Y-39253390D01*
X87609276Y-39253390D02*
X87514038Y-39205771D01*
X87514038Y-39205771D02*
X87323562Y-39205771D01*
X87323562Y-39205771D02*
X87228324Y-39253390D01*
X87228324Y-39253390D02*
X87180705Y-39301009D01*
X87180705Y-39301009D02*
X87133086Y-39396247D01*
D10*
X98364000Y-32451000D02*
X98364000Y-34351000D01*
X98364000Y-34351000D02*
X100214000Y-34351000D01*
X100214000Y-34351000D02*
X100214000Y-32501000D01*
X100214000Y-32451000D02*
X98364000Y-32451000D01*
X100214000Y-32501000D02*
X100214000Y-32451000D01*
X91537200Y-40415036D02*
X91537200Y-40199364D01*
X92257200Y-40415036D02*
X92257200Y-40199364D01*
X90987200Y-39335764D02*
X90987200Y-39551436D01*
X90267200Y-39335764D02*
X90267200Y-39551436D01*
X89837836Y-37610000D02*
X89622164Y-37610000D01*
X89837836Y-36890000D02*
X89622164Y-36890000D01*
X96245000Y-34055164D02*
X96245000Y-34270836D01*
X95525000Y-34055164D02*
X95525000Y-34270836D01*
X85960000Y-28000000D02*
X85960000Y-26000000D01*
X85960000Y-28000000D02*
X82100000Y-28000000D01*
X85960000Y-26000000D02*
X82100000Y-26000000D01*
X85710000Y-41000000D02*
X85710000Y-39000000D01*
X85710000Y-41000000D02*
X81850000Y-41000000D01*
X85710000Y-39000000D02*
X81850000Y-39000000D01*
X81910000Y-29990000D02*
X81910000Y-30410000D01*
X79930000Y-29990000D02*
X81910000Y-29990000D01*
X77560000Y-29990000D02*
X77960000Y-29990000D01*
X82140000Y-31990000D02*
X82590000Y-31990000D01*
X82590000Y-32440000D02*
X82590000Y-31990000D01*
X81910000Y-37510000D02*
X81910000Y-37090000D01*
X79930000Y-37510000D02*
X81910000Y-37510000D01*
X77960000Y-37510000D02*
X77560000Y-37510000D01*
X100583241Y-39343600D02*
X100275959Y-39343600D01*
X100583241Y-38583600D02*
X100275959Y-38583600D01*
X100370000Y-29403641D02*
X100370000Y-29096359D01*
X101130000Y-29403641D02*
X101130000Y-29096359D01*
X96648000Y-38126641D02*
X96648000Y-37819359D01*
X97408000Y-38126641D02*
X97408000Y-37819359D01*
X96370000Y-41403641D02*
X96370000Y-41096359D01*
X97130000Y-41403641D02*
X97130000Y-41096359D01*
X101346359Y-26544000D02*
X101653641Y-26544000D01*
X101346359Y-27304000D02*
X101653641Y-27304000D01*
X92890000Y-39112500D02*
X92890000Y-40912500D01*
X92890000Y-39112500D02*
X92890000Y-38312500D01*
X96010000Y-39112500D02*
X96010000Y-39912500D01*
X96010000Y-39112500D02*
X96010000Y-38312500D01*
X93610000Y-35110000D02*
X93610000Y-34660000D01*
X93610000Y-34660000D02*
X94900000Y-34660000D01*
X93610000Y-27890000D02*
X93610000Y-28340000D01*
X93160000Y-35110000D02*
X93610000Y-35110000D01*
X93160000Y-27890000D02*
X93610000Y-27890000D01*
X86840000Y-35110000D02*
X86390000Y-35110000D01*
X86840000Y-27890000D02*
X86390000Y-27890000D01*
X86390000Y-35110000D02*
X86390000Y-34660000D01*
X86390000Y-27890000D02*
X86390000Y-28340000D01*
D11*
X110875000Y-38075000D02*
X110875000Y-37850000D01*
X110875000Y-38075000D02*
X105125000Y-38075000D01*
X110875000Y-37850000D02*
X112475000Y-37850000D01*
X110875000Y-29425000D02*
X110875000Y-29725000D01*
X110875000Y-29425000D02*
X105125000Y-29425000D01*
X105125000Y-38075000D02*
X105125000Y-37775000D01*
X105125000Y-29425000D02*
X105125000Y-29725000D01*
D10*
X84830800Y-35195800D02*
X82910800Y-35195800D01*
X82910800Y-35195800D02*
X82910800Y-37880800D01*
X84830800Y-37880800D02*
X84830800Y-35195800D01*
X86107241Y-38632400D02*
X85799959Y-38632400D01*
X86107241Y-37872400D02*
X85799959Y-37872400D01*
%LPC*%
D12*
X99314000Y-33401000D03*
D13*
X91897200Y-40787200D03*
X91897200Y-39827200D03*
D14*
X90627200Y-38963600D03*
X90627200Y-39923600D03*
D15*
X90210000Y-37250000D03*
X89250000Y-37250000D03*
D14*
X95885000Y-33683000D03*
X95885000Y-34643000D03*
D16*
X85150000Y-27000000D03*
X82350000Y-27000000D03*
X84900000Y-40000000D03*
X82100000Y-40000000D03*
D17*
X81650000Y-32450000D03*
X81650000Y-33100000D03*
X81650000Y-33750000D03*
X81650000Y-34400000D03*
X81650000Y-35050000D03*
D18*
X78950000Y-30250000D03*
D19*
X78950000Y-30850000D03*
D20*
X81650000Y-31250000D03*
D21*
X78950000Y-32750000D03*
X78950000Y-34750000D03*
D20*
X81650000Y-36250000D03*
D19*
X78950000Y-36650000D03*
D18*
X78950000Y-37250000D03*
D22*
X100939600Y-38963600D03*
X99919600Y-38963600D03*
D23*
X100750000Y-29760000D03*
X100750000Y-28740000D03*
X97028000Y-38483000D03*
X97028000Y-37463000D03*
X96750000Y-41760000D03*
X96750000Y-40740000D03*
D24*
X100990000Y-26924000D03*
X102010000Y-26924000D03*
D25*
X93500000Y-40250000D03*
X94450000Y-40250000D03*
X95400000Y-40250000D03*
X95400000Y-37975000D03*
X93500000Y-37975000D03*
D26*
X94162500Y-34250000D03*
X94162500Y-33750000D03*
X94162500Y-33250000D03*
X94162500Y-32750000D03*
X94162500Y-32250000D03*
X94162500Y-31750000D03*
X94162500Y-31250000D03*
X94162500Y-30750000D03*
X94162500Y-30250000D03*
X94162500Y-29750000D03*
X94162500Y-29250000D03*
X94162500Y-28750000D03*
D27*
X92750000Y-27337500D03*
X92250000Y-27337500D03*
X91750000Y-27337500D03*
X91250000Y-27337500D03*
X90750000Y-27337500D03*
X90250000Y-27337500D03*
X89750000Y-27337500D03*
X89250000Y-27337500D03*
X88750000Y-27337500D03*
X88250000Y-27337500D03*
X87750000Y-27337500D03*
X87250000Y-27337500D03*
D26*
X85837500Y-28750000D03*
X85837500Y-29250000D03*
X85837500Y-29750000D03*
X85837500Y-30250000D03*
X85837500Y-30750000D03*
X85837500Y-31250000D03*
X85837500Y-31750000D03*
X85837500Y-32250000D03*
X85837500Y-32750000D03*
X85837500Y-33250000D03*
X85837500Y-33750000D03*
X85837500Y-34250000D03*
D27*
X87250000Y-35662500D03*
X87750000Y-35662500D03*
X88250000Y-35662500D03*
X88750000Y-35662500D03*
X89250000Y-35662500D03*
X89750000Y-35662500D03*
X90250000Y-35662500D03*
X90750000Y-35662500D03*
X91250000Y-35662500D03*
X91750000Y-35662500D03*
X92250000Y-35662500D03*
X92750000Y-35662500D03*
D28*
X111600000Y-37325000D03*
X111600000Y-36675000D03*
X111600000Y-36025000D03*
X111600000Y-35375000D03*
X111600000Y-34725000D03*
X111600000Y-34075000D03*
X111600000Y-33425000D03*
X111600000Y-32775000D03*
X111600000Y-32125000D03*
X111600000Y-31475000D03*
X111600000Y-30825000D03*
X111600000Y-30175000D03*
X104400000Y-30175000D03*
X104400000Y-30825000D03*
X104400000Y-31475000D03*
X104400000Y-32125000D03*
X104400000Y-32775000D03*
X104400000Y-33425000D03*
X104400000Y-34075000D03*
X104400000Y-34725000D03*
X104400000Y-35375000D03*
X104400000Y-36025000D03*
X104400000Y-36675000D03*
X104400000Y-37325000D03*
D29*
X83870800Y-35943300D03*
X83870800Y-37818300D03*
D22*
X86463600Y-38252400D03*
X85443600Y-38252400D03*
D30*
X105000000Y-40250000D03*
X105000000Y-27250000D03*
D31*
X99500000Y-40500000D03*
D32*
X102328427Y-37671573D03*
X98227208Y-39227208D03*
X101055635Y-36398781D03*
D33*
X98250000Y-28250000D03*
D34*
X101078427Y-31078427D03*
X99522792Y-26977208D03*
X102351219Y-29805635D03*
%LPD*%
M02*
