G04 #@! TF.GenerationSoftware,KiCad,Pcbnew,5.1.5+dfsg1-2build2*
G04 #@! TF.CreationDate,2021-12-26T17:25:33+01:00*
G04 #@! TF.ProjectId,combined,636f6d62-696e-4656-942e-6b696361645f,rev?*
G04 #@! TF.SameCoordinates,Original*
G04 #@! TF.FileFunction,Legend,Bot*
G04 #@! TF.FilePolarity,Positive*
%FSLAX46Y46*%
G04 Gerber Fmt 4.6, Leading zero omitted, Abs format (unit mm)*
G04 Created by KiCad (PCBNEW 5.1.5+dfsg1-2build2) date 2021-12-26 17:25:33*
%MOMM*%
%LPD*%
G04 APERTURE LIST*
%ADD10C,0.150000*%
%ADD11C,0.120000*%
%ADD12C,1.202000*%
%ADD13C,0.100000*%
%ADD14C,3.602000*%
%ADD15R,0.702000X1.852000*%
%ADD16R,1.852000X0.702000*%
%ADD17O,1.652000X0.992000*%
%ADD18O,1.052000X1.352000*%
G04 APERTURE END LIST*
D10*
X81000000Y-33511904D02*
X80952380Y-33416666D01*
X80952380Y-33273809D01*
X81000000Y-33130952D01*
X81095238Y-33035714D01*
X81190476Y-32988095D01*
X81380952Y-32940476D01*
X81523809Y-32940476D01*
X81714285Y-32988095D01*
X81809523Y-33035714D01*
X81904761Y-33130952D01*
X81952380Y-33273809D01*
X81952380Y-33369047D01*
X81904761Y-33511904D01*
X81857142Y-33559523D01*
X81523809Y-33559523D01*
X81523809Y-33369047D01*
X81952380Y-35559523D02*
X81476190Y-35226190D01*
X81952380Y-34988095D02*
X80952380Y-34988095D01*
X80952380Y-35369047D01*
X81000000Y-35464285D01*
X81047619Y-35511904D01*
X81142857Y-35559523D01*
X81285714Y-35559523D01*
X81380952Y-35511904D01*
X81428571Y-35464285D01*
X81476190Y-35369047D01*
X81476190Y-34988095D01*
X77952380Y-33964285D02*
X77952380Y-34535714D01*
X78952380Y-34250000D02*
X77952380Y-34250000D01*
X78428571Y-36321428D02*
X78476190Y-36464285D01*
X78523809Y-36511904D01*
X78619047Y-36559523D01*
X78761904Y-36559523D01*
X78857142Y-36511904D01*
X78904761Y-36464285D01*
X78952380Y-36369047D01*
X78952380Y-35988095D01*
X77952380Y-35988095D01*
X77952380Y-36321428D01*
X78000000Y-36416666D01*
X78047619Y-36464285D01*
X78142857Y-36511904D01*
X78238095Y-36511904D01*
X78333333Y-36464285D01*
X78380952Y-36416666D01*
X78428571Y-36321428D01*
X78428571Y-35988095D01*
X90761904Y-30202380D02*
X90761904Y-29202380D01*
X90523809Y-29202380D01*
X90380952Y-29250000D01*
X90285714Y-29345238D01*
X90238095Y-29440476D01*
X90190476Y-29630952D01*
X90190476Y-29773809D01*
X90238095Y-29964285D01*
X90285714Y-30059523D01*
X90380952Y-30154761D01*
X90523809Y-30202380D01*
X90761904Y-30202380D01*
X91190476Y-27107142D02*
X91238095Y-27154761D01*
X91380952Y-27202380D01*
X91476190Y-27202380D01*
X91619047Y-27154761D01*
X91714285Y-27059523D01*
X91761904Y-26964285D01*
X91809523Y-26773809D01*
X91809523Y-26630952D01*
X91761904Y-26440476D01*
X91714285Y-26345238D01*
X91619047Y-26250000D01*
X91476190Y-26202380D01*
X91380952Y-26202380D01*
X91238095Y-26250000D01*
X91190476Y-26297619D01*
X92785714Y-30154761D02*
X92642857Y-30202380D01*
X92404761Y-30202380D01*
X92309523Y-30154761D01*
X92261904Y-30107142D01*
X92214285Y-30011904D01*
X92214285Y-29916666D01*
X92261904Y-29821428D01*
X92309523Y-29773809D01*
X92404761Y-29726190D01*
X92595238Y-29678571D01*
X92690476Y-29630952D01*
X92738095Y-29583333D01*
X92785714Y-29488095D01*
X92785714Y-29392857D01*
X92738095Y-29297619D01*
X92690476Y-29250000D01*
X92595238Y-29202380D01*
X92357142Y-29202380D01*
X92214285Y-29250000D01*
X93238095Y-26250000D02*
X93333333Y-26202380D01*
X93476190Y-26202380D01*
X93619047Y-26250000D01*
X93714285Y-26345238D01*
X93761904Y-26440476D01*
X93809523Y-26630952D01*
X93809523Y-26773809D01*
X93761904Y-26964285D01*
X93714285Y-27059523D01*
X93619047Y-27154761D01*
X93476190Y-27202380D01*
X93380952Y-27202380D01*
X93238095Y-27154761D01*
X93190476Y-27107142D01*
X93190476Y-26773809D01*
X93380952Y-26773809D01*
X94833333Y-29202380D02*
X94500000Y-30202380D01*
X94166666Y-29202380D01*
X91690476Y-37607142D02*
X91738095Y-37654761D01*
X91880952Y-37702380D01*
X91976190Y-37702380D01*
X92119047Y-37654761D01*
X92214285Y-37559523D01*
X92261904Y-37464285D01*
X92309523Y-37273809D01*
X92309523Y-37130952D01*
X92261904Y-36940476D01*
X92214285Y-36845238D01*
X92119047Y-36750000D01*
X91976190Y-36702380D01*
X91880952Y-36702380D01*
X91738095Y-36750000D01*
X91690476Y-36797619D01*
X93261904Y-40702380D02*
X93261904Y-39702380D01*
X93023809Y-39702380D01*
X92880952Y-39750000D01*
X92785714Y-39845238D01*
X92738095Y-39940476D01*
X92690476Y-40130952D01*
X92690476Y-40273809D01*
X92738095Y-40464285D01*
X92785714Y-40559523D01*
X92880952Y-40654761D01*
X93023809Y-40702380D01*
X93261904Y-40702380D01*
X96988095Y-41702380D02*
X97321428Y-41226190D01*
X97559523Y-41702380D02*
X97559523Y-40702380D01*
X97178571Y-40702380D01*
X97083333Y-40750000D01*
X97035714Y-40797619D01*
X96988095Y-40892857D01*
X96988095Y-41035714D01*
X97035714Y-41130952D01*
X97083333Y-41178571D01*
X97178571Y-41226190D01*
X97559523Y-41226190D01*
X96178571Y-41654761D02*
X96273809Y-41702380D01*
X96464285Y-41702380D01*
X96559523Y-41654761D01*
X96607142Y-41559523D01*
X96607142Y-41178571D01*
X96559523Y-41083333D01*
X96464285Y-41035714D01*
X96273809Y-41035714D01*
X96178571Y-41083333D01*
X96130952Y-41178571D01*
X96130952Y-41273809D01*
X96607142Y-41369047D01*
X95750000Y-41654761D02*
X95654761Y-41702380D01*
X95464285Y-41702380D01*
X95369047Y-41654761D01*
X95321428Y-41559523D01*
X95321428Y-41511904D01*
X95369047Y-41416666D01*
X95464285Y-41369047D01*
X95607142Y-41369047D01*
X95702380Y-41321428D01*
X95750000Y-41226190D01*
X95750000Y-41178571D01*
X95702380Y-41083333D01*
X95607142Y-41035714D01*
X95464285Y-41035714D01*
X95369047Y-41083333D01*
X94511904Y-41654761D02*
X94607142Y-41702380D01*
X94797619Y-41702380D01*
X94892857Y-41654761D01*
X94940476Y-41559523D01*
X94940476Y-41178571D01*
X94892857Y-41083333D01*
X94797619Y-41035714D01*
X94607142Y-41035714D01*
X94511904Y-41083333D01*
X94464285Y-41178571D01*
X94464285Y-41273809D01*
X94940476Y-41369047D01*
X94178571Y-41035714D02*
X93797619Y-41035714D01*
X94035714Y-40702380D02*
X94035714Y-41559523D01*
X93988095Y-41654761D01*
X93892857Y-41702380D01*
X93797619Y-41702380D01*
X93738095Y-36750000D02*
X93833333Y-36702380D01*
X93976190Y-36702380D01*
X94119047Y-36750000D01*
X94214285Y-36845238D01*
X94261904Y-36940476D01*
X94309523Y-37130952D01*
X94309523Y-37273809D01*
X94261904Y-37464285D01*
X94214285Y-37559523D01*
X94119047Y-37654761D01*
X93976190Y-37702380D01*
X93880952Y-37702380D01*
X93738095Y-37654761D01*
X93690476Y-37607142D01*
X93690476Y-37273809D01*
X93880952Y-37273809D01*
X91333333Y-39702380D02*
X91000000Y-40702380D01*
X90666666Y-39702380D01*
X98193904Y-25191980D02*
X98193904Y-24191980D01*
X98193904Y-24572933D02*
X98098666Y-24525314D01*
X97908190Y-24525314D01*
X97812952Y-24572933D01*
X97765333Y-24620552D01*
X97717714Y-24715790D01*
X97717714Y-25001504D01*
X97765333Y-25096742D01*
X97812952Y-25144361D01*
X97908190Y-25191980D01*
X98098666Y-25191980D01*
X98193904Y-25144361D01*
X97384380Y-24525314D02*
X97146285Y-25191980D01*
X96908190Y-24525314D02*
X97146285Y-25191980D01*
X97241523Y-25430076D01*
X97289142Y-25477695D01*
X97384380Y-25525314D01*
X95812952Y-24906266D02*
X95336761Y-24906266D01*
X95908190Y-25191980D02*
X95574857Y-24191980D01*
X95241523Y-25191980D01*
X94479619Y-25191980D02*
X94479619Y-24191980D01*
X94479619Y-25144361D02*
X94574857Y-25191980D01*
X94765333Y-25191980D01*
X94860571Y-25144361D01*
X94908190Y-25096742D01*
X94955809Y-25001504D01*
X94955809Y-24715790D01*
X94908190Y-24620552D01*
X94860571Y-24572933D01*
X94765333Y-24525314D01*
X94574857Y-24525314D01*
X94479619Y-24572933D01*
X93574857Y-25191980D02*
X93574857Y-24668171D01*
X93622476Y-24572933D01*
X93717714Y-24525314D01*
X93908190Y-24525314D01*
X94003428Y-24572933D01*
X93574857Y-25144361D02*
X93670095Y-25191980D01*
X93908190Y-25191980D01*
X94003428Y-25144361D01*
X94051047Y-25049123D01*
X94051047Y-24953885D01*
X94003428Y-24858647D01*
X93908190Y-24811028D01*
X93670095Y-24811028D01*
X93574857Y-24763409D01*
X93098666Y-25191980D02*
X93098666Y-24525314D01*
X93098666Y-24620552D02*
X93051047Y-24572933D01*
X92955809Y-24525314D01*
X92812952Y-24525314D01*
X92717714Y-24572933D01*
X92670095Y-24668171D01*
X92670095Y-25191980D01*
X92670095Y-24668171D02*
X92622476Y-24572933D01*
X92527238Y-24525314D01*
X92384380Y-24525314D01*
X92289142Y-24572933D01*
X92241523Y-24668171D01*
X92241523Y-25191980D01*
X90670095Y-24668171D02*
X90527238Y-24715790D01*
X90479619Y-24763409D01*
X90432000Y-24858647D01*
X90432000Y-25001504D01*
X90479619Y-25096742D01*
X90527238Y-25144361D01*
X90622476Y-25191980D01*
X91003428Y-25191980D01*
X91003428Y-24191980D01*
X90670095Y-24191980D01*
X90574857Y-24239600D01*
X90527238Y-24287219D01*
X90479619Y-24382457D01*
X90479619Y-24477695D01*
X90527238Y-24572933D01*
X90574857Y-24620552D01*
X90670095Y-24668171D01*
X91003428Y-24668171D01*
X89574857Y-25191980D02*
X89574857Y-24668171D01*
X89622476Y-24572933D01*
X89717714Y-24525314D01*
X89908190Y-24525314D01*
X90003428Y-24572933D01*
X89574857Y-25144361D02*
X89670095Y-25191980D01*
X89908190Y-25191980D01*
X90003428Y-25144361D01*
X90051047Y-25049123D01*
X90051047Y-24953885D01*
X90003428Y-24858647D01*
X89908190Y-24811028D01*
X89670095Y-24811028D01*
X89574857Y-24763409D01*
X90003428Y-24191980D02*
X89955809Y-24239600D01*
X90003428Y-24287219D01*
X90051047Y-24239600D01*
X90003428Y-24191980D01*
X90003428Y-24287219D01*
X89622476Y-24191980D02*
X89574857Y-24239600D01*
X89622476Y-24287219D01*
X89670095Y-24239600D01*
X89622476Y-24191980D01*
X89622476Y-24287219D01*
X88670095Y-25144361D02*
X88765333Y-25191980D01*
X88955809Y-25191980D01*
X89051047Y-25144361D01*
X89098666Y-25096742D01*
X89146285Y-25001504D01*
X89146285Y-24715790D01*
X89098666Y-24620552D01*
X89051047Y-24572933D01*
X88955809Y-24525314D01*
X88765333Y-24525314D01*
X88670095Y-24572933D01*
X88241523Y-25191980D02*
X88241523Y-24191980D01*
X88146285Y-24811028D02*
X87860571Y-25191980D01*
X87860571Y-24525314D02*
X88241523Y-24906266D01*
X87479619Y-25144361D02*
X87384380Y-25191980D01*
X87193904Y-25191980D01*
X87098666Y-25144361D01*
X87051047Y-25049123D01*
X87051047Y-25001504D01*
X87098666Y-24906266D01*
X87193904Y-24858647D01*
X87336761Y-24858647D01*
X87432000Y-24811028D01*
X87479619Y-24715790D01*
X87479619Y-24668171D01*
X87432000Y-24572933D01*
X87336761Y-24525314D01*
X87193904Y-24525314D01*
X87098666Y-24572933D01*
X86765333Y-24525314D02*
X86384380Y-24525314D01*
X86622476Y-24191980D02*
X86622476Y-25049123D01*
X86574857Y-25144361D01*
X86479619Y-25191980D01*
X86384380Y-25191980D01*
X86051047Y-25191980D02*
X86051047Y-24525314D01*
X86051047Y-24715790D02*
X86003428Y-24620552D01*
X85955809Y-24572933D01*
X85860571Y-24525314D01*
X85765333Y-24525314D01*
X85289142Y-25191980D02*
X85384380Y-25144361D01*
X85432000Y-25096742D01*
X85479619Y-25001504D01*
X85479619Y-24715790D01*
X85432000Y-24620552D01*
X85384380Y-24572933D01*
X85289142Y-24525314D01*
X85146285Y-24525314D01*
X85051047Y-24572933D01*
X85003428Y-24620552D01*
X84955809Y-24715790D01*
X84955809Y-25001504D01*
X85003428Y-25096742D01*
X85051047Y-25144361D01*
X85146285Y-25191980D01*
X85289142Y-25191980D01*
X85384380Y-24191980D02*
X85336761Y-24239600D01*
X85384380Y-24287219D01*
X85432000Y-24239600D01*
X85384380Y-24191980D01*
X85384380Y-24287219D01*
X85003428Y-24191980D02*
X84955809Y-24239600D01*
X85003428Y-24287219D01*
X85051047Y-24239600D01*
X85003428Y-24191980D01*
X85003428Y-24287219D01*
X84527238Y-25191980D02*
X84527238Y-24525314D01*
X84527238Y-24620552D02*
X84479619Y-24572933D01*
X84384380Y-24525314D01*
X84241523Y-24525314D01*
X84146285Y-24572933D01*
X84098666Y-24668171D01*
X84098666Y-25191980D01*
X84098666Y-24668171D02*
X84051047Y-24572933D01*
X83955809Y-24525314D01*
X83812952Y-24525314D01*
X83717714Y-24572933D01*
X83670095Y-24668171D01*
X83670095Y-25191980D01*
D11*
X100152117Y-30845082D02*
X99685427Y-30845082D01*
X99685427Y-30845082D02*
X97153984Y-28313640D01*
X100597595Y-26892355D02*
X102436072Y-28730833D01*
X102095082Y-38597883D02*
X102095082Y-39064573D01*
X102095082Y-39064573D02*
X99563640Y-41596016D01*
X98142355Y-38152405D02*
X99980833Y-36313928D01*
D10*
X113636934Y-33750000D02*
G75*
G03X113636934Y-33750000I-8636934J0D01*
G01*
D11*
X95810000Y-28820000D02*
X95810000Y-27430000D01*
X90690000Y-28820000D02*
X90690000Y-27430000D01*
X95810000Y-28820000D02*
X95810000Y-29815000D01*
X95810000Y-28820000D02*
X95810000Y-28820000D01*
X90690000Y-27430000D02*
X90690000Y-27430000D01*
X95810000Y-27430000D02*
X94810000Y-27430000D01*
X93690000Y-27430000D02*
X92810000Y-27430000D01*
X91690000Y-27430000D02*
X90690000Y-27430000D01*
X94690000Y-28820000D02*
X93810000Y-28820000D01*
X92690000Y-28820000D02*
X91810000Y-28820000D01*
X93190000Y-39320000D02*
X92310000Y-39320000D01*
X95190000Y-39320000D02*
X94310000Y-39320000D01*
X92190000Y-37930000D02*
X91190000Y-37930000D01*
X94190000Y-37930000D02*
X93310000Y-37930000D01*
X96310000Y-37930000D02*
X95310000Y-37930000D01*
X91190000Y-37930000D02*
X91190000Y-37930000D01*
X96310000Y-39320000D02*
X96310000Y-39320000D01*
X96310000Y-39320000D02*
X96310000Y-40315000D01*
X91190000Y-39320000D02*
X91190000Y-37930000D01*
X96310000Y-39320000D02*
X96310000Y-37930000D01*
X80570000Y-35060000D02*
X80570000Y-36060000D01*
X80570000Y-33060000D02*
X80570000Y-33940000D01*
X79180000Y-34060000D02*
X79180000Y-34940000D01*
X79180000Y-31940000D02*
X79180000Y-32940000D01*
X79180000Y-36060000D02*
X79180000Y-36060000D01*
X80570000Y-31940000D02*
X80570000Y-31940000D01*
X80570000Y-31940000D02*
X81565000Y-31940000D01*
X80570000Y-36060000D02*
X79180000Y-36060000D01*
X80570000Y-31940000D02*
X79180000Y-31940000D01*
D10*
X99529526Y-30876396D02*
X98957106Y-31448816D01*
X98856091Y-31482488D01*
X98788747Y-31482488D01*
X98687732Y-31448816D01*
X98553045Y-31314129D01*
X98519373Y-31213114D01*
X98519373Y-31145770D01*
X98553045Y-31044755D01*
X99125465Y-30472335D01*
X98755075Y-30236633D02*
X98755075Y-30169290D01*
X98721404Y-30068274D01*
X98553045Y-29899916D01*
X98452030Y-29866244D01*
X98384686Y-29866244D01*
X98283671Y-29899916D01*
X98216327Y-29967259D01*
X98148984Y-30101946D01*
X98148984Y-30910068D01*
X97711251Y-30472335D01*
X98651522Y-35574026D02*
X99223942Y-36146446D01*
X99257614Y-36247461D01*
X99257614Y-36314805D01*
X99223942Y-36415820D01*
X99089255Y-36550507D01*
X98988240Y-36584179D01*
X98920896Y-36584179D01*
X98819881Y-36550507D01*
X98247461Y-35978087D01*
X98247461Y-37392301D02*
X98651522Y-36988240D01*
X98449492Y-37190270D02*
X97742385Y-36483164D01*
X97910744Y-36516835D01*
X98045431Y-36516835D01*
X98146446Y-36483164D01*
X112452380Y-33440476D02*
X111452380Y-33440476D01*
X112166666Y-33773809D01*
X111452380Y-34107142D01*
X112452380Y-34107142D01*
X112452380Y-35107142D02*
X112452380Y-34535714D01*
X112452380Y-34821428D02*
X111452380Y-34821428D01*
X111595238Y-34726190D01*
X111690476Y-34630952D01*
X111738095Y-34535714D01*
X90071428Y-26678571D02*
X89738095Y-26678571D01*
X89595238Y-27202380D02*
X90071428Y-27202380D01*
X90071428Y-26202380D01*
X89595238Y-26202380D01*
X89166666Y-26535714D02*
X89166666Y-27202380D01*
X89166666Y-26630952D02*
X89119047Y-26583333D01*
X89023809Y-26535714D01*
X88880952Y-26535714D01*
X88785714Y-26583333D01*
X88738095Y-26678571D01*
X88738095Y-27202380D01*
X87833333Y-27154761D02*
X87928571Y-27202380D01*
X88119047Y-27202380D01*
X88214285Y-27154761D01*
X88261904Y-27107142D01*
X88309523Y-27011904D01*
X88309523Y-26726190D01*
X88261904Y-26630952D01*
X88214285Y-26583333D01*
X88119047Y-26535714D01*
X87928571Y-26535714D01*
X87833333Y-26583333D01*
X86880952Y-27202380D02*
X87452380Y-27202380D01*
X87166666Y-27202380D02*
X87166666Y-26202380D01*
X87261904Y-26345238D01*
X87357142Y-26440476D01*
X87452380Y-26488095D01*
X90702380Y-37702380D02*
X90702380Y-36702380D01*
X90321428Y-36702380D01*
X90226190Y-36750000D01*
X90178571Y-36797619D01*
X90130952Y-36892857D01*
X90130952Y-37035714D01*
X90178571Y-37130952D01*
X90226190Y-37178571D01*
X90321428Y-37226190D01*
X90702380Y-37226190D01*
X89702380Y-37702380D02*
X89702380Y-37035714D01*
X89702380Y-37226190D02*
X89654761Y-37130952D01*
X89607142Y-37083333D01*
X89511904Y-37035714D01*
X89416666Y-37035714D01*
X88940476Y-37702380D02*
X89035714Y-37654761D01*
X89083333Y-37607142D01*
X89130952Y-37511904D01*
X89130952Y-37226190D01*
X89083333Y-37130952D01*
X89035714Y-37083333D01*
X88940476Y-37035714D01*
X88797619Y-37035714D01*
X88702380Y-37083333D01*
X88654761Y-37130952D01*
X88607142Y-37226190D01*
X88607142Y-37511904D01*
X88654761Y-37607142D01*
X88702380Y-37654761D01*
X88797619Y-37702380D01*
X88940476Y-37702380D01*
X87750000Y-37035714D02*
X87750000Y-37845238D01*
X87797619Y-37940476D01*
X87845238Y-37988095D01*
X87940476Y-38035714D01*
X88083333Y-38035714D01*
X88178571Y-37988095D01*
X87750000Y-37654761D02*
X87845238Y-37702380D01*
X88035714Y-37702380D01*
X88130952Y-37654761D01*
X88178571Y-37607142D01*
X88226190Y-37511904D01*
X88226190Y-37226190D01*
X88178571Y-37130952D01*
X88130952Y-37083333D01*
X88035714Y-37035714D01*
X87845238Y-37035714D01*
X87750000Y-37083333D01*
X86750000Y-37702380D02*
X87321428Y-37702380D01*
X87035714Y-37702380D02*
X87035714Y-36702380D01*
X87130952Y-36845238D01*
X87226190Y-36940476D01*
X87321428Y-36988095D01*
X83607142Y-32738095D02*
X83654761Y-32690476D01*
X83702380Y-32547619D01*
X83702380Y-32452380D01*
X83654761Y-32309523D01*
X83559523Y-32214285D01*
X83464285Y-32166666D01*
X83273809Y-32119047D01*
X83130952Y-32119047D01*
X82940476Y-32166666D01*
X82845238Y-32214285D01*
X82750000Y-32309523D01*
X82702380Y-32452380D01*
X82702380Y-32547619D01*
X82750000Y-32690476D01*
X82797619Y-32738095D01*
X82702380Y-33357142D02*
X82702380Y-33547619D01*
X82750000Y-33642857D01*
X82845238Y-33738095D01*
X83035714Y-33785714D01*
X83369047Y-33785714D01*
X83559523Y-33738095D01*
X83654761Y-33642857D01*
X83702380Y-33547619D01*
X83702380Y-33357142D01*
X83654761Y-33261904D01*
X83559523Y-33166666D01*
X83369047Y-33119047D01*
X83035714Y-33119047D01*
X82845238Y-33166666D01*
X82750000Y-33261904D01*
X82702380Y-33357142D01*
X83702380Y-34214285D02*
X82702380Y-34214285D01*
X83416666Y-34547619D01*
X82702380Y-34880952D01*
X83702380Y-34880952D01*
X83702380Y-35880952D02*
X83702380Y-35309523D01*
X83702380Y-35595238D02*
X82702380Y-35595238D01*
X82845238Y-35500000D01*
X82940476Y-35404761D01*
X82988095Y-35309523D01*
%LPC*%
D12*
X102209798Y-29664214D02*
X102492640Y-29947056D01*
X100937006Y-30937006D02*
X101219848Y-31219848D01*
D13*
G36*
X98135323Y-27372970D02*
G01*
X98161810Y-27376899D01*
X98187784Y-27383405D01*
X98212996Y-27392426D01*
X98237201Y-27403874D01*
X98260169Y-27417640D01*
X98281676Y-27433591D01*
X98301516Y-27451573D01*
X99048427Y-28198484D01*
X99066409Y-28218324D01*
X99082360Y-28239831D01*
X99096126Y-28262799D01*
X99107574Y-28287004D01*
X99116595Y-28312216D01*
X99123101Y-28338190D01*
X99127030Y-28364677D01*
X99128344Y-28391421D01*
X99127030Y-28418165D01*
X99123101Y-28444652D01*
X99116595Y-28470626D01*
X99107574Y-28495838D01*
X99096126Y-28520043D01*
X99082360Y-28543011D01*
X99066409Y-28564518D01*
X99048427Y-28584358D01*
X98584358Y-29048427D01*
X98564518Y-29066409D01*
X98543011Y-29082360D01*
X98520043Y-29096126D01*
X98495838Y-29107574D01*
X98470626Y-29116595D01*
X98444652Y-29123101D01*
X98418165Y-29127030D01*
X98391421Y-29128344D01*
X98364677Y-29127030D01*
X98338190Y-29123101D01*
X98312216Y-29116595D01*
X98287004Y-29107574D01*
X98262799Y-29096126D01*
X98239831Y-29082360D01*
X98218324Y-29066409D01*
X98198484Y-29048427D01*
X97451573Y-28301516D01*
X97433591Y-28281676D01*
X97417640Y-28260169D01*
X97403874Y-28237201D01*
X97392426Y-28212996D01*
X97383405Y-28187784D01*
X97376899Y-28161810D01*
X97372970Y-28135323D01*
X97371656Y-28108579D01*
X97372970Y-28081835D01*
X97376899Y-28055348D01*
X97383405Y-28029374D01*
X97392426Y-28004162D01*
X97403874Y-27979957D01*
X97417640Y-27956989D01*
X97433591Y-27935482D01*
X97451573Y-27915642D01*
X97915642Y-27451573D01*
X97935482Y-27433591D01*
X97956989Y-27417640D01*
X97979957Y-27403874D01*
X98004162Y-27392426D01*
X98029374Y-27383405D01*
X98055348Y-27376899D01*
X98081835Y-27372970D01*
X98108579Y-27371656D01*
X98135323Y-27372970D01*
G37*
D12*
X99381371Y-26835787D02*
X99664213Y-27118629D01*
X100914214Y-36540202D02*
X101197056Y-36257360D01*
X102187006Y-37812994D02*
X102469848Y-37530152D01*
D13*
G36*
X99668165Y-39622970D02*
G01*
X99694652Y-39626899D01*
X99720626Y-39633405D01*
X99745838Y-39642426D01*
X99770043Y-39653874D01*
X99793011Y-39667640D01*
X99814518Y-39683591D01*
X99834358Y-39701573D01*
X100298427Y-40165642D01*
X100316409Y-40185482D01*
X100332360Y-40206989D01*
X100346126Y-40229957D01*
X100357574Y-40254162D01*
X100366595Y-40279374D01*
X100373101Y-40305348D01*
X100377030Y-40331835D01*
X100378344Y-40358579D01*
X100377030Y-40385323D01*
X100373101Y-40411810D01*
X100366595Y-40437784D01*
X100357574Y-40462996D01*
X100346126Y-40487201D01*
X100332360Y-40510169D01*
X100316409Y-40531676D01*
X100298427Y-40551516D01*
X99551516Y-41298427D01*
X99531676Y-41316409D01*
X99510169Y-41332360D01*
X99487201Y-41346126D01*
X99462996Y-41357574D01*
X99437784Y-41366595D01*
X99411810Y-41373101D01*
X99385323Y-41377030D01*
X99358579Y-41378344D01*
X99331835Y-41377030D01*
X99305348Y-41373101D01*
X99279374Y-41366595D01*
X99254162Y-41357574D01*
X99229957Y-41346126D01*
X99206989Y-41332360D01*
X99185482Y-41316409D01*
X99165642Y-41298427D01*
X98701573Y-40834358D01*
X98683591Y-40814518D01*
X98667640Y-40793011D01*
X98653874Y-40770043D01*
X98642426Y-40745838D01*
X98633405Y-40720626D01*
X98626899Y-40694652D01*
X98622970Y-40668165D01*
X98621656Y-40641421D01*
X98622970Y-40614677D01*
X98626899Y-40588190D01*
X98633405Y-40562216D01*
X98642426Y-40537004D01*
X98653874Y-40512799D01*
X98667640Y-40489831D01*
X98683591Y-40468324D01*
X98701573Y-40448484D01*
X99448484Y-39701573D01*
X99468324Y-39683591D01*
X99489831Y-39667640D01*
X99512799Y-39653874D01*
X99537004Y-39642426D01*
X99562216Y-39633405D01*
X99588190Y-39626899D01*
X99614677Y-39622970D01*
X99641421Y-39621656D01*
X99668165Y-39622970D01*
G37*
D12*
X98085787Y-39368629D02*
X98368629Y-39085787D01*
D14*
X105000000Y-40250000D03*
X105000000Y-27250000D03*
D15*
X95250000Y-29000000D03*
X93250000Y-29000000D03*
X91250000Y-29000000D03*
X94250000Y-27250000D03*
X92250000Y-27250000D03*
X92750000Y-37750000D03*
X94750000Y-37750000D03*
X91750000Y-39500000D03*
X93750000Y-39500000D03*
X95750000Y-39500000D03*
D16*
X79000000Y-35500000D03*
X79000000Y-33500000D03*
X80750000Y-34500000D03*
X80750000Y-32500000D03*
D17*
X78950000Y-37250000D03*
X78950000Y-30250000D03*
D18*
X81650000Y-36250000D03*
X81650000Y-31250000D03*
M02*
