G04 #@! TF.GenerationSoftware,KiCad,Pcbnew,7.0.5-7.0.5~ubuntu22.04.1*
G04 #@! TF.CreationDate,2023-07-07T16:24:56+02:00*
G04 #@! TF.ProjectId,combined,636f6d62-696e-4656-942e-6b696361645f,rev?*
G04 #@! TF.SameCoordinates,Original*
G04 #@! TF.FileFunction,Copper,L1,Top*
G04 #@! TF.FilePolarity,Positive*
%FSLAX46Y46*%
G04 Gerber Fmt 4.6, Leading zero omitted, Abs format (unit mm)*
G04 Created by KiCad (PCBNEW 7.0.5-7.0.5~ubuntu22.04.1) date 2023-07-07 16:24:56*
%MOMM*%
%LPD*%
G01*
G04 APERTURE LIST*
G04 Aperture macros list*
%AMRoundRect*
0 Rectangle with rounded corners*
0 $1 Rounding radius*
0 $2 $3 $4 $5 $6 $7 $8 $9 X,Y pos of 4 corners*
0 Add a 4 corners polygon primitive as box body*
4,1,4,$2,$3,$4,$5,$6,$7,$8,$9,$2,$3,0*
0 Add four circle primitives for the rounded corners*
1,1,$1+$1,$2,$3*
1,1,$1+$1,$4,$5*
1,1,$1+$1,$6,$7*
1,1,$1+$1,$8,$9*
0 Add four rect primitives between the rounded corners*
20,1,$1+$1,$2,$3,$4,$5,0*
20,1,$1+$1,$4,$5,$6,$7,0*
20,1,$1+$1,$6,$7,$8,$9,0*
20,1,$1+$1,$8,$9,$2,$3,0*%
%AMHorizOval*
0 Thick line with rounded ends*
0 $1 width*
0 $2 $3 position (X,Y) of the first rounded end (center of the circle)*
0 $4 $5 position (X,Y) of the second rounded end (center of the circle)*
0 Add line between two ends*
20,1,$1,$2,$3,$4,$5,0*
0 Add two circle primitives to create the rounded ends*
1,1,$1,$2,$3*
1,1,$1,$4,$5*%
G04 Aperture macros list end*
G04 #@! TA.AperFunction,SMDPad,CuDef*
%ADD10RoundRect,0.140000X0.170000X-0.140000X0.170000X0.140000X-0.170000X0.140000X-0.170000X-0.140000X0*%
G04 #@! TD*
G04 #@! TA.AperFunction,SMDPad,CuDef*
%ADD11RoundRect,0.140000X-0.170000X0.140000X-0.170000X-0.140000X0.170000X-0.140000X0.170000X0.140000X0*%
G04 #@! TD*
G04 #@! TA.AperFunction,SMDPad,CuDef*
%ADD12RoundRect,0.140000X0.140000X0.170000X-0.140000X0.170000X-0.140000X-0.170000X0.140000X-0.170000X0*%
G04 #@! TD*
G04 #@! TA.AperFunction,SMDPad,CuDef*
%ADD13RoundRect,0.140000X-0.140000X-0.170000X0.140000X-0.170000X0.140000X0.170000X-0.140000X0.170000X0*%
G04 #@! TD*
G04 #@! TA.AperFunction,SMDPad,CuDef*
%ADD14RoundRect,0.250000X0.300000X0.300000X-0.300000X0.300000X-0.300000X-0.300000X0.300000X-0.300000X0*%
G04 #@! TD*
G04 #@! TA.AperFunction,SMDPad,CuDef*
%ADD15R,1.350000X0.400000*%
G04 #@! TD*
G04 #@! TA.AperFunction,ComponentPad*
%ADD16O,1.550000X0.890000*%
G04 #@! TD*
G04 #@! TA.AperFunction,SMDPad,CuDef*
%ADD17R,1.550000X1.200000*%
G04 #@! TD*
G04 #@! TA.AperFunction,ComponentPad*
%ADD18O,0.950000X1.250000*%
G04 #@! TD*
G04 #@! TA.AperFunction,SMDPad,CuDef*
%ADD19R,1.550000X1.500000*%
G04 #@! TD*
G04 #@! TA.AperFunction,SMDPad,CuDef*
%ADD20RoundRect,0.135000X0.135000X0.185000X-0.135000X0.185000X-0.135000X-0.185000X0.135000X-0.185000X0*%
G04 #@! TD*
G04 #@! TA.AperFunction,SMDPad,CuDef*
%ADD21RoundRect,0.135000X0.185000X-0.135000X0.185000X0.135000X-0.185000X0.135000X-0.185000X-0.135000X0*%
G04 #@! TD*
G04 #@! TA.AperFunction,SMDPad,CuDef*
%ADD22RoundRect,0.135000X-0.135000X-0.185000X0.135000X-0.185000X0.135000X0.185000X-0.135000X0.185000X0*%
G04 #@! TD*
G04 #@! TA.AperFunction,SMDPad,CuDef*
%ADD23RoundRect,0.150000X0.150000X-0.512500X0.150000X0.512500X-0.150000X0.512500X-0.150000X-0.512500X0*%
G04 #@! TD*
G04 #@! TA.AperFunction,SMDPad,CuDef*
%ADD24RoundRect,0.075000X0.662500X0.075000X-0.662500X0.075000X-0.662500X-0.075000X0.662500X-0.075000X0*%
G04 #@! TD*
G04 #@! TA.AperFunction,SMDPad,CuDef*
%ADD25RoundRect,0.075000X0.075000X0.662500X-0.075000X0.662500X-0.075000X-0.662500X0.075000X-0.662500X0*%
G04 #@! TD*
G04 #@! TA.AperFunction,SMDPad,CuDef*
%ADD26R,1.750000X0.450000*%
G04 #@! TD*
G04 #@! TA.AperFunction,SMDPad,CuDef*
%ADD27RoundRect,0.243750X-0.456250X0.243750X-0.456250X-0.243750X0.456250X-0.243750X0.456250X0.243750X0*%
G04 #@! TD*
G04 #@! TA.AperFunction,ComponentPad*
%ADD28C,3.500000*%
G04 #@! TD*
G04 #@! TA.AperFunction,ComponentPad*
%ADD29RoundRect,0.249700X0.566110X0.141421X0.141421X0.566110X-0.566110X-0.141421X-0.141421X-0.566110X0*%
G04 #@! TD*
G04 #@! TA.AperFunction,ComponentPad*
%ADD30HorizOval,1.100000X0.141421X0.141421X-0.141421X-0.141421X0*%
G04 #@! TD*
G04 #@! TA.AperFunction,ComponentPad*
%ADD31RoundRect,0.249700X0.141421X-0.566110X0.566110X-0.141421X-0.141421X0.566110X-0.566110X0.141421X0*%
G04 #@! TD*
G04 #@! TA.AperFunction,ComponentPad*
%ADD32HorizOval,1.100000X-0.141421X0.141421X0.141421X-0.141421X0*%
G04 #@! TD*
G04 #@! TA.AperFunction,ViaPad*
%ADD33C,1.600000*%
G04 #@! TD*
G04 #@! TA.AperFunction,ViaPad*
%ADD34C,0.800000*%
G04 #@! TD*
G04 #@! TA.AperFunction,Conductor*
%ADD35C,0.250000*%
G04 #@! TD*
G04 #@! TA.AperFunction,Conductor*
%ADD36C,0.500000*%
G04 #@! TD*
G04 #@! TA.AperFunction,Conductor*
%ADD37C,0.200000*%
G04 #@! TD*
G04 APERTURE END LIST*
D10*
X91897200Y-40787200D03*
X91897200Y-39827200D03*
D11*
X90627200Y-38963600D03*
X90627200Y-39923600D03*
D12*
X90210000Y-37250000D03*
X89250000Y-37250000D03*
D13*
X95684400Y-31648400D03*
X96644400Y-31648400D03*
D14*
X85150000Y-27000000D03*
X82350000Y-27000000D03*
X84900000Y-40000000D03*
X82100000Y-40000000D03*
D15*
X81650000Y-32450000D03*
X81650000Y-33100000D03*
X81650000Y-33750000D03*
X81650000Y-34400000D03*
X81650000Y-35050000D03*
D16*
X78950000Y-30250000D03*
D17*
X78950000Y-30850000D03*
D18*
X81650000Y-31250000D03*
D19*
X78950000Y-32750000D03*
X78950000Y-34750000D03*
D18*
X81650000Y-36250000D03*
D17*
X78950000Y-36650000D03*
D16*
X78950000Y-37250000D03*
D20*
X100939600Y-38963600D03*
X99919600Y-38963600D03*
D21*
X100750000Y-29760000D03*
X100750000Y-28740000D03*
X98750000Y-37760000D03*
X98750000Y-36740000D03*
X96750000Y-41760000D03*
X96750000Y-40740000D03*
D22*
X100990000Y-27500000D03*
X102010000Y-27500000D03*
D23*
X93500000Y-40250000D03*
X94450000Y-40250000D03*
X95400000Y-40250000D03*
X95400000Y-37975000D03*
X93500000Y-37975000D03*
D24*
X94162500Y-34250000D03*
X94162500Y-33750000D03*
X94162500Y-33250000D03*
X94162500Y-32750000D03*
X94162500Y-32250000D03*
X94162500Y-31750000D03*
X94162500Y-31250000D03*
X94162500Y-30750000D03*
X94162500Y-30250000D03*
X94162500Y-29750000D03*
X94162500Y-29250000D03*
X94162500Y-28750000D03*
D25*
X92750000Y-27337500D03*
X92250000Y-27337500D03*
X91750000Y-27337500D03*
X91250000Y-27337500D03*
X90750000Y-27337500D03*
X90250000Y-27337500D03*
X89750000Y-27337500D03*
X89250000Y-27337500D03*
X88750000Y-27337500D03*
X88250000Y-27337500D03*
X87750000Y-27337500D03*
X87250000Y-27337500D03*
D24*
X85837500Y-28750000D03*
X85837500Y-29250000D03*
X85837500Y-29750000D03*
X85837500Y-30250000D03*
X85837500Y-30750000D03*
X85837500Y-31250000D03*
X85837500Y-31750000D03*
X85837500Y-32250000D03*
X85837500Y-32750000D03*
X85837500Y-33250000D03*
X85837500Y-33750000D03*
X85837500Y-34250000D03*
D25*
X87250000Y-35662500D03*
X87750000Y-35662500D03*
X88250000Y-35662500D03*
X88750000Y-35662500D03*
X89250000Y-35662500D03*
X89750000Y-35662500D03*
X90250000Y-35662500D03*
X90750000Y-35662500D03*
X91250000Y-35662500D03*
X91750000Y-35662500D03*
X92250000Y-35662500D03*
X92750000Y-35662500D03*
D26*
X111600000Y-37325000D03*
X111600000Y-36675000D03*
X111600000Y-36025000D03*
X111600000Y-35375000D03*
X111600000Y-34725000D03*
X111600000Y-34075000D03*
X111600000Y-33425000D03*
X111600000Y-32775000D03*
X111600000Y-32125000D03*
X111600000Y-31475000D03*
X111600000Y-30825000D03*
X111600000Y-30175000D03*
X104400000Y-30175000D03*
X104400000Y-30825000D03*
X104400000Y-31475000D03*
X104400000Y-32125000D03*
X104400000Y-32775000D03*
X104400000Y-33425000D03*
X104400000Y-34075000D03*
X104400000Y-34725000D03*
X104400000Y-35375000D03*
X104400000Y-36025000D03*
X104400000Y-36675000D03*
X104400000Y-37325000D03*
D13*
X95684400Y-33020000D03*
X96644400Y-33020000D03*
D27*
X83870800Y-35943300D03*
X83870800Y-37818300D03*
D20*
X86463600Y-38252400D03*
X85443600Y-38252400D03*
D28*
X105000000Y-40250000D03*
X105000000Y-27250000D03*
D29*
X99500000Y-40500000D03*
D30*
X102328427Y-37671573D03*
X98227208Y-39227208D03*
X101055635Y-36398781D03*
D31*
X98250000Y-28250000D03*
D32*
X101078427Y-31078427D03*
X99522792Y-26977208D03*
X102351219Y-29805635D03*
D33*
X109474000Y-38760400D03*
D34*
X94437200Y-41587600D03*
X102870000Y-33781998D03*
D33*
X109500000Y-31750000D03*
D34*
X90250020Y-30750000D03*
X92500000Y-32750000D03*
D33*
X83559771Y-40965139D03*
D34*
X96316800Y-29464000D03*
X91000000Y-38000028D03*
X82984905Y-32648163D03*
X83263377Y-31603446D03*
X92250000Y-29325000D03*
X89250000Y-28750000D03*
X88000000Y-28750000D03*
D33*
X108000800Y-36830000D03*
D34*
X88137997Y-37084000D03*
X93514889Y-36379848D03*
X91725000Y-37275000D03*
X98247194Y-34950400D03*
X87750000Y-33500000D03*
X86410800Y-35204400D03*
X94783718Y-36197058D03*
X88750026Y-33500000D03*
X94496738Y-35239109D03*
X87250000Y-32500000D03*
D35*
X78950000Y-30850000D02*
X78950000Y-32750000D01*
X96644400Y-31958400D02*
X96644400Y-31648400D01*
X90250000Y-30749980D02*
X90250020Y-30750000D01*
X90317200Y-39923600D02*
X89250000Y-38856400D01*
D36*
X109849999Y-32099999D02*
X111600000Y-32099999D01*
D35*
X89250000Y-37560000D02*
X89250000Y-37250000D01*
X95318374Y-32250000D02*
X95351784Y-32283410D01*
X89750000Y-36742374D02*
X89250000Y-37242374D01*
D36*
X109474000Y-36626800D02*
X109474000Y-38760400D01*
X110540800Y-31500001D02*
X111600000Y-31500001D01*
D35*
X95351784Y-32283410D02*
X96319390Y-32283410D01*
X83018225Y-35050000D02*
X84318225Y-33750000D01*
X94162500Y-32250000D02*
X95318374Y-32250000D01*
X92500000Y-32750000D02*
X93000000Y-32250000D01*
X96319390Y-32283410D02*
X96644400Y-31958400D01*
D36*
X110700791Y-35400009D02*
X109474000Y-36626800D01*
D35*
X104400000Y-33425000D02*
X103226998Y-33425000D01*
X89750000Y-35662500D02*
X89750000Y-36742374D01*
X91897200Y-39827200D02*
X92207200Y-39827200D01*
X78950000Y-36650000D02*
X78950000Y-34750000D01*
D36*
X110100801Y-35999999D02*
X111600000Y-35999999D01*
X110290801Y-31750000D02*
X110540800Y-31500001D01*
D35*
X92996910Y-39037490D02*
X93899990Y-39037490D01*
X81650000Y-35050000D02*
X83018225Y-35050000D01*
X81650000Y-35050000D02*
X81650000Y-36250000D01*
X103226998Y-33425000D02*
X102870000Y-33781998D01*
X92207200Y-39827200D02*
X92996910Y-39037490D01*
X78950000Y-32750000D02*
X78950000Y-34750000D01*
D36*
X111600000Y-35400009D02*
X110700791Y-35400009D01*
D35*
X96644400Y-32608420D02*
X96644400Y-33020000D01*
X90250000Y-27337500D02*
X90250000Y-30749980D01*
X89250000Y-38856400D02*
X89250000Y-37560000D01*
X94450000Y-39587500D02*
X94450000Y-40250000D01*
X96319390Y-32283410D02*
X96644400Y-32608420D01*
X84318225Y-33750000D02*
X85100000Y-33750000D01*
X81981700Y-35918300D02*
X81650000Y-36250000D01*
D36*
X109500000Y-31750000D02*
X109849999Y-32099999D01*
D35*
X83870800Y-35918300D02*
X81981700Y-35918300D01*
X90627200Y-39923600D02*
X90317200Y-39923600D01*
X94450000Y-40250000D02*
X94450000Y-41574800D01*
X90627200Y-39923600D02*
X91800800Y-39923600D01*
X94450000Y-41574800D02*
X94437200Y-41587600D01*
D36*
X109500000Y-31750000D02*
X110290801Y-31750000D01*
D35*
X93899990Y-39037490D02*
X94450000Y-39587500D01*
X93000000Y-32250000D02*
X94162500Y-32250000D01*
X85100000Y-33750000D02*
X85837500Y-33750000D01*
D36*
X105409800Y-30175000D02*
X108000800Y-32766000D01*
X99017229Y-42468800D02*
X106578400Y-42468800D01*
D35*
X91897200Y-40787200D02*
X92962800Y-40787200D01*
D36*
X106034799Y-30799999D02*
X104400000Y-30799999D01*
D35*
X96750000Y-42030000D02*
X97188800Y-42468800D01*
X96750000Y-41760000D02*
X96750000Y-42030000D01*
D36*
X108000000Y-33125000D02*
X108000800Y-33124200D01*
D35*
X92962800Y-40787200D02*
X93500000Y-40250000D01*
D36*
X99017229Y-42468800D02*
X87833200Y-42468800D01*
X107442000Y-41605200D02*
X107442000Y-39157000D01*
X83844232Y-41249600D02*
X83559771Y-40965139D01*
X83559771Y-40290229D02*
X83559771Y-40965139D01*
X84900000Y-40000000D02*
X83850000Y-40000000D01*
X106578400Y-42468800D02*
X107442000Y-41605200D01*
D35*
X97188800Y-42468800D02*
X99017229Y-42468800D01*
D36*
X87833200Y-42468800D02*
X86614000Y-41249600D01*
X105635001Y-37350001D02*
X108000000Y-34985002D01*
X104400000Y-30175000D02*
X105409800Y-30175000D01*
X108000800Y-32766000D02*
X108000800Y-32816800D01*
X86614000Y-41249600D02*
X83844232Y-41249600D01*
X108000000Y-34985002D02*
X108000000Y-33125000D01*
X83850000Y-40000000D02*
X83559771Y-40290229D01*
X104374999Y-37350001D02*
X105635001Y-37350001D01*
X108000800Y-33124200D02*
X108000800Y-32816800D01*
D35*
X90495600Y-42468800D02*
X87833200Y-42468800D01*
X91897200Y-41067200D02*
X90495600Y-42468800D01*
X91897200Y-40787200D02*
X91897200Y-41067200D01*
D36*
X107442000Y-39157000D02*
X105635001Y-37350001D01*
D35*
X95414400Y-32750000D02*
X94162500Y-32750000D01*
X95684400Y-33020000D02*
X95414400Y-32750000D01*
X101115800Y-34825000D02*
X103175000Y-34825000D01*
X90140702Y-33786296D02*
X92176998Y-31750000D01*
X90627200Y-38963600D02*
X90627200Y-38372828D01*
X105714800Y-34264800D02*
X105714800Y-34458792D01*
X92790703Y-28599999D02*
X91290703Y-28599999D01*
X95300732Y-36740000D02*
X94065732Y-37975000D01*
X90627200Y-38372828D02*
X91000000Y-38000028D01*
X90140702Y-34250000D02*
X90725010Y-34834308D01*
X98794400Y-36740000D02*
X98939400Y-36595000D01*
X90750000Y-37750028D02*
X91000000Y-38000028D01*
X90750000Y-37677626D02*
X90750000Y-37750028D01*
X98750000Y-36740000D02*
X99070000Y-36740000D01*
X107424990Y-34685012D02*
X107424990Y-33374990D01*
X100750000Y-28740000D02*
X100430000Y-28740000D01*
X90750000Y-36822374D02*
X90815010Y-36887384D01*
X98750000Y-36740000D02*
X95300732Y-36740000D01*
X96316800Y-29464000D02*
X99706000Y-29464000D01*
X94162500Y-31750000D02*
X93222888Y-31750000D01*
X93800000Y-37975000D02*
X93500000Y-37975000D01*
X100770000Y-28740000D02*
X102010000Y-27500000D01*
X102010000Y-27500000D02*
X102010000Y-27180000D01*
X105448592Y-34725000D02*
X104400000Y-34725000D01*
X105525000Y-34075000D02*
X105714800Y-34264800D01*
X99919600Y-37589600D02*
X99919600Y-38963600D01*
X103275000Y-34725000D02*
X103175000Y-34825000D01*
X104400000Y-34725000D02*
X103275000Y-34725000D01*
X104400000Y-34075000D02*
X105525000Y-34075000D01*
X103175000Y-34825000D02*
X103175000Y-36675000D01*
X99070000Y-36740000D02*
X99919600Y-37589600D01*
X90750000Y-29140702D02*
X90750000Y-29000000D01*
X90815010Y-36887384D02*
X90815010Y-37612616D01*
X93222888Y-31750000D02*
X90750000Y-29277112D01*
X85837500Y-34250000D02*
X90140702Y-34250000D01*
X98939400Y-36595000D02*
X99345800Y-36595000D01*
X91000000Y-38000028D02*
X93474972Y-38000028D01*
X103275000Y-36675000D02*
X104400000Y-36675000D01*
X90750000Y-29277112D02*
X90750000Y-29000000D01*
X95787502Y-25603200D02*
X92790703Y-28599999D01*
X90750000Y-35662500D02*
X90750000Y-36822374D01*
X94065732Y-37975000D02*
X93800000Y-37975000D01*
X102010000Y-27180000D02*
X100433200Y-25603200D01*
X105435002Y-36675000D02*
X107424990Y-34685012D01*
X100433200Y-25603200D02*
X95787502Y-25603200D01*
X104400000Y-36675000D02*
X105435002Y-36675000D01*
X92176998Y-31750000D02*
X94162500Y-31750000D01*
X107424990Y-33374990D02*
X105525000Y-31475000D01*
X95582800Y-31750000D02*
X94162500Y-31750000D01*
X91290703Y-28599999D02*
X90750000Y-29140702D01*
X90725010Y-34834308D02*
X90725010Y-35637510D01*
X90750000Y-27337500D02*
X90750000Y-29000000D01*
X99345800Y-36595000D02*
X101115800Y-34825000D01*
X105714800Y-34458792D02*
X105448592Y-34725000D01*
X103175000Y-36675000D02*
X103275000Y-36675000D01*
X90815010Y-37612616D02*
X90750000Y-37677626D01*
X90140702Y-34250000D02*
X90140702Y-33786296D01*
X105525000Y-31475000D02*
X104400000Y-31475000D01*
X100430000Y-28740000D02*
X99706000Y-29464000D01*
X90250000Y-35662500D02*
X90250000Y-37210000D01*
X82450010Y-30980185D02*
X82450010Y-31790008D01*
X82650001Y-32313259D02*
X82984905Y-32648163D01*
X82650001Y-31989999D02*
X82650001Y-32313259D01*
X82350000Y-27000000D02*
X83150000Y-27000000D01*
X82450010Y-31790008D02*
X82650001Y-31989999D01*
X83150000Y-27000000D02*
X83346525Y-27196525D01*
X83346525Y-27196525D02*
X83346525Y-30083671D01*
X83346525Y-30083671D02*
X82450010Y-30980185D01*
X83263377Y-31603446D02*
X83813599Y-31053224D01*
X85309314Y-27875001D02*
X83813599Y-29370716D01*
X91250000Y-27337500D02*
X91250000Y-26534298D01*
X86774990Y-26509308D02*
X86774990Y-27060012D01*
X85960001Y-27875001D02*
X85309314Y-27875001D01*
X90990692Y-26274990D02*
X87009308Y-26274990D01*
X83813599Y-29370716D02*
X83813599Y-31053224D01*
X91250000Y-26534298D02*
X90990692Y-26274990D01*
X87009308Y-26274990D02*
X86774990Y-26509308D01*
X86774990Y-27060012D02*
X85960001Y-27875001D01*
X84304900Y-38252400D02*
X83870800Y-37818300D01*
X85443600Y-38252400D02*
X84304900Y-38252400D01*
X85150000Y-26200000D02*
X85150000Y-27000000D01*
X91177092Y-25824980D02*
X85525020Y-25824980D01*
X85525020Y-25824980D02*
X85150000Y-26200000D01*
X91750000Y-27337500D02*
X91750000Y-26397888D01*
X91750000Y-26397888D02*
X91177092Y-25824980D01*
D36*
X80524999Y-32539999D02*
X80614998Y-32450000D01*
X80524999Y-37374999D02*
X80524999Y-32539999D01*
X80614998Y-32450000D02*
X81650000Y-32450000D01*
X82100000Y-40000000D02*
X82100000Y-38950000D01*
X82100000Y-38950000D02*
X80524999Y-37374999D01*
D35*
X92250000Y-30140702D02*
X92250000Y-29325000D01*
X93359298Y-31250000D02*
X92250000Y-30140702D01*
X94162500Y-31250000D02*
X93359298Y-31250000D01*
X89250000Y-27337500D02*
X89250000Y-28750000D01*
X88725010Y-28165692D02*
X88725010Y-27362490D01*
X88490692Y-28400010D02*
X88725010Y-28165692D01*
X88000000Y-28750000D02*
X88000000Y-28500000D01*
X88000000Y-28500000D02*
X88099990Y-28400010D01*
X88099990Y-28400010D02*
X88490692Y-28400010D01*
D36*
X110495398Y-33425000D02*
X110364999Y-33555399D01*
X108000800Y-36830000D02*
X110130801Y-34699999D01*
X110364999Y-33094201D02*
X110659191Y-32800009D01*
X110364999Y-34010001D02*
X110364999Y-33094201D01*
X110364999Y-34699999D02*
X111600000Y-34699999D01*
X110659191Y-32800009D02*
X111600000Y-32800009D01*
X110364999Y-34010001D02*
X110364999Y-34699999D01*
X111600000Y-34075000D02*
X110400200Y-34075000D01*
X111600000Y-33425000D02*
X110495398Y-33425000D01*
X110364999Y-34699999D02*
X110130801Y-34699999D01*
X112979200Y-30226000D02*
X112928200Y-30175000D01*
X112874999Y-30799999D02*
X111600000Y-30799999D01*
X112979200Y-30480000D02*
X112979200Y-30226000D01*
X112979200Y-29768800D02*
X112979200Y-30480000D01*
X112975000Y-30900000D02*
X112874999Y-30799999D01*
X112471200Y-29260800D02*
X107010800Y-29260800D01*
X112979200Y-30895800D02*
X112979200Y-30480000D01*
X112795999Y-36700001D02*
X111600000Y-36700001D01*
X112975000Y-30900000D02*
X112975000Y-36885000D01*
X112471200Y-29260800D02*
X112979200Y-29768800D01*
X112928200Y-30175000D02*
X111600000Y-30175000D01*
X112535000Y-37325000D02*
X111600000Y-37325000D01*
X112975000Y-36885000D02*
X112535000Y-37325000D01*
X112975000Y-30900000D02*
X112979200Y-30895800D01*
X107010800Y-29260800D02*
X105000000Y-27250000D01*
D35*
X88137997Y-37084000D02*
X88750000Y-36471997D01*
X88750000Y-35662500D02*
X88750000Y-36471997D01*
X92009308Y-34599990D02*
X92990692Y-34599990D01*
X91750000Y-35662500D02*
X91750000Y-34859298D01*
X92990692Y-34599990D02*
X93514889Y-35124187D01*
X91750000Y-34859298D02*
X92009308Y-34599990D01*
X93514889Y-35124187D02*
X93514889Y-36379848D01*
X91265020Y-36415020D02*
X91265020Y-36815020D01*
X91325001Y-36875001D02*
X91725000Y-37275000D01*
X91265020Y-36815020D02*
X91325001Y-36875001D01*
X91250000Y-36400000D02*
X91265020Y-36415020D01*
X91250000Y-35662500D02*
X91250000Y-36400000D01*
X101709243Y-38963600D02*
X102328427Y-38344416D01*
X100939600Y-38963600D02*
X101709243Y-38963600D01*
X102328427Y-38344416D02*
X102328427Y-37671573D01*
X100750000Y-29760000D02*
X100750000Y-30750000D01*
X96361396Y-30581600D02*
X97739200Y-30581600D01*
X97739200Y-30581600D02*
X98247194Y-31089594D01*
X98247194Y-31089594D02*
X98247194Y-34950400D01*
X98227208Y-38282792D02*
X98750000Y-37760000D01*
X98227208Y-39227208D02*
X98227208Y-38282792D01*
X94162500Y-30250000D02*
X96029796Y-30250000D01*
X96029796Y-30250000D02*
X96361396Y-30581600D01*
X96750000Y-40740000D02*
X95890000Y-40740000D01*
X95890000Y-40740000D02*
X95400000Y-40250000D01*
X95591798Y-29166798D02*
X95008596Y-29750000D01*
X99522792Y-26977208D02*
X97730588Y-26977208D01*
X100045584Y-27500000D02*
X99522792Y-26977208D01*
X95591798Y-29115998D02*
X95591798Y-29166798D01*
X95008596Y-29750000D02*
X94900000Y-29750000D01*
X100990000Y-27500000D02*
X100045584Y-27500000D01*
X94900000Y-29750000D02*
X94162500Y-29750000D01*
X97730588Y-26977208D02*
X95591798Y-29115998D01*
X87975041Y-33274959D02*
X87750000Y-33500000D01*
X87975041Y-30584339D02*
X87975041Y-33274959D01*
X85837500Y-29250000D02*
X86640702Y-29250000D01*
X86640702Y-29250000D02*
X87975041Y-30584339D01*
X86410800Y-38199600D02*
X86410800Y-35204400D01*
D37*
X81650000Y-33750000D02*
X81799999Y-33600001D01*
X83507298Y-33798155D02*
X84080453Y-33225000D01*
X81799999Y-33600001D02*
X82264358Y-33600001D01*
X82264358Y-33600001D02*
X82462512Y-33798155D01*
X82462512Y-33798155D02*
X83507298Y-33798155D01*
X84080453Y-33225000D02*
X85812500Y-33225000D01*
X82300750Y-33000010D02*
X82648904Y-33348164D01*
X83320906Y-33348164D02*
X83894070Y-32775000D01*
X83894070Y-32775000D02*
X85812500Y-32775000D01*
X82648904Y-33348164D02*
X83320906Y-33348164D01*
X81763593Y-33000010D02*
X82300750Y-33000010D01*
D35*
X104400000Y-32775000D02*
X103275000Y-32775000D01*
X106500000Y-33750000D02*
X106500000Y-34310002D01*
X103275000Y-32775000D02*
X103252198Y-32752198D01*
X98976806Y-36144990D02*
X95401471Y-36144990D01*
X105525000Y-32775000D02*
X106500000Y-33750000D01*
X105435002Y-35375000D02*
X104400000Y-35375000D01*
X95401471Y-36144990D02*
X95349403Y-36197058D01*
X88750026Y-30677024D02*
X88750026Y-33500000D01*
X106500000Y-34310002D02*
X105435002Y-35375000D01*
X102369598Y-32752198D02*
X98976806Y-36144990D01*
X95349403Y-36197058D02*
X94783718Y-36197058D01*
X85837500Y-28750000D02*
X86823002Y-28750000D01*
X86823002Y-28750000D02*
X88750026Y-30677024D01*
X104400000Y-32775000D02*
X105525000Y-32775000D01*
X103252198Y-32752198D02*
X102369598Y-32752198D01*
X104400000Y-32125000D02*
X105525000Y-32125000D01*
X95062423Y-35239109D02*
X94496738Y-35239109D01*
X101790209Y-32542776D02*
X101739409Y-32542776D01*
X106974980Y-33574980D02*
X106974980Y-34485022D01*
X105525000Y-32125000D02*
X106974980Y-33574980D01*
X106974980Y-34485022D02*
X105435002Y-36025000D01*
X105435002Y-36025000D02*
X104400000Y-36025000D01*
X86815685Y-30250000D02*
X87250000Y-30684315D01*
X87250000Y-30684315D02*
X87250000Y-32500000D01*
X95518293Y-35694979D02*
X95062423Y-35239109D01*
X102207985Y-32125000D02*
X101790209Y-32542776D01*
X101739409Y-32542776D02*
X98587206Y-35694979D01*
X85837500Y-30250000D02*
X86815685Y-30250000D01*
X98587206Y-35694979D02*
X95518293Y-35694979D01*
X104400000Y-32125000D02*
X102207985Y-32125000D01*
M02*
