G04 #@! TF.GenerationSoftware,KiCad,Pcbnew,7.0.6-7.0.6~ubuntu22.04.1*
G04 #@! TF.CreationDate,2023-07-08T17:09:55+02:00*
G04 #@! TF.ProjectId,combined,636f6d62-696e-4656-942e-6b696361645f,rev?*
G04 #@! TF.SameCoordinates,Original*
G04 #@! TF.FileFunction,Soldermask,Top*
G04 #@! TF.FilePolarity,Negative*
%FSLAX46Y46*%
G04 Gerber Fmt 4.6, Leading zero omitted, Abs format (unit mm)*
G04 Created by KiCad (PCBNEW 7.0.6-7.0.6~ubuntu22.04.1) date 2023-07-08 17:09:55*
%MOMM*%
%LPD*%
G01*
G04 APERTURE LIST*
G04 Aperture macros list*
%AMRoundRect*
0 Rectangle with rounded corners*
0 $1 Rounding radius*
0 $2 $3 $4 $5 $6 $7 $8 $9 X,Y pos of 4 corners*
0 Add a 4 corners polygon primitive as box body*
4,1,4,$2,$3,$4,$5,$6,$7,$8,$9,$2,$3,0*
0 Add four circle primitives for the rounded corners*
1,1,$1+$1,$2,$3*
1,1,$1+$1,$4,$5*
1,1,$1+$1,$6,$7*
1,1,$1+$1,$8,$9*
0 Add four rect primitives between the rounded corners*
20,1,$1+$1,$2,$3,$4,$5,0*
20,1,$1+$1,$4,$5,$6,$7,0*
20,1,$1+$1,$6,$7,$8,$9,0*
20,1,$1+$1,$8,$9,$2,$3,0*%
%AMHorizOval*
0 Thick line with rounded ends*
0 $1 width*
0 $2 $3 position (X,Y) of the first rounded end (center of the circle)*
0 $4 $5 position (X,Y) of the second rounded end (center of the circle)*
0 Add line between two ends*
20,1,$1,$2,$3,$4,$5,0*
0 Add two circle primitives to create the rounded ends*
1,1,$1,$2,$3*
1,1,$1,$4,$5*%
G04 Aperture macros list end*
%ADD10C,1.400000*%
%ADD11RoundRect,0.140000X0.170000X-0.140000X0.170000X0.140000X-0.170000X0.140000X-0.170000X-0.140000X0*%
%ADD12RoundRect,0.140000X-0.170000X0.140000X-0.170000X-0.140000X0.170000X-0.140000X0.170000X0.140000X0*%
%ADD13RoundRect,0.140000X0.140000X0.170000X-0.140000X0.170000X-0.140000X-0.170000X0.140000X-0.170000X0*%
%ADD14RoundRect,0.250000X0.300000X0.300000X-0.300000X0.300000X-0.300000X-0.300000X0.300000X-0.300000X0*%
%ADD15R,1.350000X0.400000*%
%ADD16O,1.550000X0.890000*%
%ADD17R,1.550000X1.200000*%
%ADD18O,0.950000X1.250000*%
%ADD19R,1.550000X1.500000*%
%ADD20RoundRect,0.135000X0.135000X0.185000X-0.135000X0.185000X-0.135000X-0.185000X0.135000X-0.185000X0*%
%ADD21RoundRect,0.135000X0.185000X-0.135000X0.185000X0.135000X-0.185000X0.135000X-0.185000X-0.135000X0*%
%ADD22RoundRect,0.135000X-0.135000X-0.185000X0.135000X-0.185000X0.135000X0.185000X-0.135000X0.185000X0*%
%ADD23RoundRect,0.150000X0.150000X-0.512500X0.150000X0.512500X-0.150000X0.512500X-0.150000X-0.512500X0*%
%ADD24RoundRect,0.075000X0.662500X0.075000X-0.662500X0.075000X-0.662500X-0.075000X0.662500X-0.075000X0*%
%ADD25RoundRect,0.075000X0.075000X0.662500X-0.075000X0.662500X-0.075000X-0.662500X0.075000X-0.662500X0*%
%ADD26R,1.750000X0.450000*%
%ADD27RoundRect,0.243750X-0.456250X0.243750X-0.456250X-0.243750X0.456250X-0.243750X0.456250X0.243750X0*%
%ADD28C,3.500000*%
%ADD29RoundRect,0.249700X0.566110X0.141421X0.141421X0.566110X-0.566110X-0.141421X-0.141421X-0.566110X0*%
%ADD30HorizOval,1.100000X0.141421X0.141421X-0.141421X-0.141421X0*%
%ADD31RoundRect,0.249700X0.141421X-0.566110X0.566110X-0.141421X-0.141421X0.566110X-0.566110X0.141421X0*%
%ADD32HorizOval,1.100000X-0.141421X0.141421X0.141421X-0.141421X0*%
G04 APERTURE END LIST*
D10*
X99314000Y-33401000D03*
D11*
X91897200Y-40787200D03*
X91897200Y-39827200D03*
D12*
X90627200Y-38963600D03*
X90627200Y-39923600D03*
D13*
X90210000Y-37250000D03*
X89250000Y-37250000D03*
D12*
X95885000Y-33683000D03*
X95885000Y-34643000D03*
D14*
X85150000Y-27000000D03*
X82350000Y-27000000D03*
X84900000Y-40000000D03*
X82100000Y-40000000D03*
D15*
X81650000Y-32450000D03*
X81650000Y-33100000D03*
X81650000Y-33750000D03*
X81650000Y-34400000D03*
X81650000Y-35050000D03*
D16*
X78950000Y-30250000D03*
D17*
X78950000Y-30850000D03*
D18*
X81650000Y-31250000D03*
D19*
X78950000Y-32750000D03*
X78950000Y-34750000D03*
D18*
X81650000Y-36250000D03*
D17*
X78950000Y-36650000D03*
D16*
X78950000Y-37250000D03*
D20*
X100939600Y-38963600D03*
X99919600Y-38963600D03*
D21*
X100750000Y-29760000D03*
X100750000Y-28740000D03*
X97028000Y-38483000D03*
X97028000Y-37463000D03*
X96750000Y-41760000D03*
X96750000Y-40740000D03*
D22*
X100990000Y-26924000D03*
X102010000Y-26924000D03*
D23*
X93500000Y-40250000D03*
X94450000Y-40250000D03*
X95400000Y-40250000D03*
X95400000Y-37975000D03*
X93500000Y-37975000D03*
D24*
X94162500Y-34250000D03*
X94162500Y-33750000D03*
X94162500Y-33250000D03*
X94162500Y-32750000D03*
X94162500Y-32250000D03*
X94162500Y-31750000D03*
X94162500Y-31250000D03*
X94162500Y-30750000D03*
X94162500Y-30250000D03*
X94162500Y-29750000D03*
X94162500Y-29250000D03*
X94162500Y-28750000D03*
D25*
X92750000Y-27337500D03*
X92250000Y-27337500D03*
X91750000Y-27337500D03*
X91250000Y-27337500D03*
X90750000Y-27337500D03*
X90250000Y-27337500D03*
X89750000Y-27337500D03*
X89250000Y-27337500D03*
X88750000Y-27337500D03*
X88250000Y-27337500D03*
X87750000Y-27337500D03*
X87250000Y-27337500D03*
D24*
X85837500Y-28750000D03*
X85837500Y-29250000D03*
X85837500Y-29750000D03*
X85837500Y-30250000D03*
X85837500Y-30750000D03*
X85837500Y-31250000D03*
X85837500Y-31750000D03*
X85837500Y-32250000D03*
X85837500Y-32750000D03*
X85837500Y-33250000D03*
X85837500Y-33750000D03*
X85837500Y-34250000D03*
D25*
X87250000Y-35662500D03*
X87750000Y-35662500D03*
X88250000Y-35662500D03*
X88750000Y-35662500D03*
X89250000Y-35662500D03*
X89750000Y-35662500D03*
X90250000Y-35662500D03*
X90750000Y-35662500D03*
X91250000Y-35662500D03*
X91750000Y-35662500D03*
X92250000Y-35662500D03*
X92750000Y-35662500D03*
D26*
X111600000Y-37325000D03*
X111600000Y-36675000D03*
X111600000Y-36025000D03*
X111600000Y-35375000D03*
X111600000Y-34725000D03*
X111600000Y-34075000D03*
X111600000Y-33425000D03*
X111600000Y-32775000D03*
X111600000Y-32125000D03*
X111600000Y-31475000D03*
X111600000Y-30825000D03*
X111600000Y-30175000D03*
X104400000Y-30175000D03*
X104400000Y-30825000D03*
X104400000Y-31475000D03*
X104400000Y-32125000D03*
X104400000Y-32775000D03*
X104400000Y-33425000D03*
X104400000Y-34075000D03*
X104400000Y-34725000D03*
X104400000Y-35375000D03*
X104400000Y-36025000D03*
X104400000Y-36675000D03*
X104400000Y-37325000D03*
D27*
X83870800Y-35943300D03*
X83870800Y-37818300D03*
D20*
X86463600Y-38252400D03*
X85443600Y-38252400D03*
D28*
X105000000Y-40250000D03*
X105000000Y-27250000D03*
D29*
X99500000Y-40500000D03*
D30*
X102328427Y-37671573D03*
X98227208Y-39227208D03*
X101055635Y-36398781D03*
D31*
X98250000Y-28250000D03*
D32*
X101078427Y-31078427D03*
X99522792Y-26977208D03*
X102351219Y-29805635D03*
M02*
