G04 #@! TF.GenerationSoftware,KiCad,Pcbnew,5.1.5+dfsg1-2build2*
G04 #@! TF.CreationDate,2021-12-26T17:25:33+01:00*
G04 #@! TF.ProjectId,combined,636f6d62-696e-4656-942e-6b696361645f,rev?*
G04 #@! TF.SameCoordinates,Original*
G04 #@! TF.FileFunction,Soldermask,Top*
G04 #@! TF.FilePolarity,Negative*
%FSLAX46Y46*%
G04 Gerber Fmt 4.6, Leading zero omitted, Abs format (unit mm)*
G04 Created by KiCad (PCBNEW 5.1.5+dfsg1-2build2) date 2021-12-26 17:25:33*
%MOMM*%
%LPD*%
G04 APERTURE LIST*
%ADD10C,0.100000*%
G04 APERTURE END LIST*
D10*
G36*
X97041997Y-41441476D02*
G01*
X97060274Y-41447020D01*
X97077108Y-41456018D01*
X97091868Y-41468132D01*
X97103982Y-41482892D01*
X97112980Y-41499726D01*
X97118524Y-41518003D01*
X97121000Y-41543140D01*
X97121000Y-41976860D01*
X97118524Y-42001997D01*
X97112980Y-42020274D01*
X97103982Y-42037108D01*
X97091868Y-42051868D01*
X97077108Y-42063982D01*
X97060274Y-42072980D01*
X97041997Y-42078524D01*
X97016860Y-42081000D01*
X96483140Y-42081000D01*
X96458003Y-42078524D01*
X96439726Y-42072980D01*
X96422892Y-42063982D01*
X96408132Y-42051868D01*
X96396018Y-42037108D01*
X96387020Y-42020274D01*
X96381476Y-42001997D01*
X96379000Y-41976860D01*
X96379000Y-41543140D01*
X96381476Y-41518003D01*
X96387020Y-41499726D01*
X96396018Y-41482892D01*
X96408132Y-41468132D01*
X96422892Y-41456018D01*
X96439726Y-41447020D01*
X96458003Y-41441476D01*
X96483140Y-41439000D01*
X97016860Y-41439000D01*
X97041997Y-41441476D01*
G37*
G36*
X105525331Y-38518211D02*
G01*
X105853092Y-38653974D01*
X106148070Y-38851072D01*
X106398928Y-39101930D01*
X106596026Y-39396908D01*
X106731789Y-39724669D01*
X106801000Y-40072616D01*
X106801000Y-40427384D01*
X106731789Y-40775331D01*
X106596026Y-41103092D01*
X106398928Y-41398070D01*
X106148070Y-41648928D01*
X105853092Y-41846026D01*
X105525331Y-41981789D01*
X105177384Y-42051000D01*
X104822616Y-42051000D01*
X104474669Y-41981789D01*
X104146908Y-41846026D01*
X103851930Y-41648928D01*
X103601072Y-41398070D01*
X103403974Y-41103092D01*
X103268211Y-40775331D01*
X103199000Y-40427384D01*
X103199000Y-40072616D01*
X103268211Y-39724669D01*
X103403974Y-39396908D01*
X103601072Y-39101930D01*
X103851930Y-38851072D01*
X104146908Y-38653974D01*
X104474669Y-38518211D01*
X104822616Y-38449000D01*
X105177384Y-38449000D01*
X105525331Y-38518211D01*
G37*
G36*
X99681220Y-39597910D02*
G01*
X99719486Y-39609519D01*
X99754758Y-39628372D01*
X99790437Y-39657652D01*
X100342348Y-40209563D01*
X100371628Y-40245242D01*
X100390481Y-40280514D01*
X100402090Y-40318780D01*
X100406009Y-40358579D01*
X100402090Y-40398378D01*
X100390481Y-40436644D01*
X100371628Y-40471916D01*
X100342348Y-40507595D01*
X99507595Y-41342348D01*
X99471916Y-41371628D01*
X99436644Y-41390481D01*
X99398378Y-41402090D01*
X99358579Y-41406009D01*
X99318780Y-41402090D01*
X99280514Y-41390481D01*
X99245242Y-41371628D01*
X99209563Y-41342348D01*
X98657652Y-40790437D01*
X98628372Y-40754758D01*
X98609519Y-40719486D01*
X98597910Y-40681220D01*
X98593991Y-40641421D01*
X98597910Y-40601622D01*
X98609519Y-40563356D01*
X98628372Y-40528084D01*
X98657652Y-40492405D01*
X99492405Y-39657652D01*
X99528084Y-39628372D01*
X99563356Y-39609519D01*
X99601622Y-39597910D01*
X99641421Y-39593991D01*
X99681220Y-39597910D01*
G37*
G36*
X92175176Y-40458772D02*
G01*
X92194381Y-40464598D01*
X92212093Y-40474065D01*
X92227605Y-40486795D01*
X92240335Y-40502307D01*
X92249802Y-40520019D01*
X92255628Y-40539224D01*
X92258200Y-40565340D01*
X92258200Y-41009060D01*
X92255628Y-41035176D01*
X92249802Y-41054381D01*
X92240335Y-41072093D01*
X92227605Y-41087605D01*
X92212093Y-41100335D01*
X92194381Y-41109802D01*
X92175176Y-41115628D01*
X92149060Y-41118200D01*
X91645340Y-41118200D01*
X91619224Y-41115628D01*
X91600019Y-41109802D01*
X91582307Y-41100335D01*
X91566795Y-41087605D01*
X91554065Y-41072093D01*
X91544598Y-41054381D01*
X91538772Y-41035176D01*
X91536200Y-41009060D01*
X91536200Y-40565340D01*
X91538772Y-40539224D01*
X91544598Y-40520019D01*
X91554065Y-40502307D01*
X91566795Y-40486795D01*
X91582307Y-40474065D01*
X91600019Y-40464598D01*
X91619224Y-40458772D01*
X91645340Y-40456200D01*
X92149060Y-40456200D01*
X92175176Y-40458772D01*
G37*
G36*
X97041997Y-40421476D02*
G01*
X97060274Y-40427020D01*
X97077108Y-40436018D01*
X97091868Y-40448132D01*
X97103982Y-40462892D01*
X97112980Y-40479726D01*
X97118524Y-40498003D01*
X97121000Y-40523140D01*
X97121000Y-40956860D01*
X97118524Y-40981997D01*
X97112980Y-41000274D01*
X97103982Y-41017108D01*
X97091868Y-41031868D01*
X97077108Y-41043982D01*
X97060274Y-41052980D01*
X97041997Y-41058524D01*
X97016860Y-41061000D01*
X96483140Y-41061000D01*
X96458003Y-41058524D01*
X96439726Y-41052980D01*
X96422892Y-41043982D01*
X96408132Y-41031868D01*
X96396018Y-41017108D01*
X96387020Y-41000274D01*
X96381476Y-40981997D01*
X96379000Y-40956860D01*
X96379000Y-40523140D01*
X96381476Y-40498003D01*
X96387020Y-40479726D01*
X96396018Y-40462892D01*
X96408132Y-40448132D01*
X96422892Y-40436018D01*
X96439726Y-40427020D01*
X96458003Y-40421476D01*
X96483140Y-40419000D01*
X97016860Y-40419000D01*
X97041997Y-40421476D01*
G37*
G36*
X93759928Y-39539264D02*
G01*
X93781009Y-39545660D01*
X93800445Y-39556048D01*
X93817476Y-39570024D01*
X93831452Y-39587055D01*
X93841840Y-39606491D01*
X93848236Y-39627572D01*
X93850603Y-39651609D01*
X93855383Y-39675642D01*
X93864761Y-39698281D01*
X93878374Y-39718655D01*
X93895701Y-39735982D01*
X93916076Y-39749596D01*
X93938715Y-39758974D01*
X93962748Y-39763754D01*
X93987252Y-39763754D01*
X94011285Y-39758974D01*
X94033924Y-39749596D01*
X94054298Y-39735983D01*
X94071625Y-39718656D01*
X94085239Y-39698281D01*
X94094617Y-39675642D01*
X94099397Y-39651609D01*
X94101764Y-39627572D01*
X94108160Y-39606491D01*
X94118548Y-39587055D01*
X94132524Y-39570024D01*
X94149555Y-39556048D01*
X94168991Y-39545660D01*
X94190072Y-39539264D01*
X94218140Y-39536500D01*
X94681860Y-39536500D01*
X94709928Y-39539264D01*
X94731009Y-39545660D01*
X94750445Y-39556048D01*
X94767476Y-39570024D01*
X94781452Y-39587055D01*
X94791840Y-39606491D01*
X94798236Y-39627572D01*
X94800603Y-39651609D01*
X94805383Y-39675642D01*
X94814761Y-39698281D01*
X94828374Y-39718655D01*
X94845701Y-39735982D01*
X94866076Y-39749596D01*
X94888715Y-39758974D01*
X94912748Y-39763754D01*
X94937252Y-39763754D01*
X94961285Y-39758974D01*
X94983924Y-39749596D01*
X95004298Y-39735983D01*
X95021625Y-39718656D01*
X95035239Y-39698281D01*
X95044617Y-39675642D01*
X95049397Y-39651609D01*
X95051764Y-39627572D01*
X95058160Y-39606491D01*
X95068548Y-39587055D01*
X95082524Y-39570024D01*
X95099555Y-39556048D01*
X95118991Y-39545660D01*
X95140072Y-39539264D01*
X95168140Y-39536500D01*
X95631860Y-39536500D01*
X95659928Y-39539264D01*
X95681009Y-39545660D01*
X95700445Y-39556048D01*
X95717476Y-39570024D01*
X95731452Y-39587055D01*
X95741840Y-39606491D01*
X95748236Y-39627572D01*
X95751000Y-39655640D01*
X95751000Y-40844360D01*
X95748236Y-40872428D01*
X95741840Y-40893509D01*
X95731452Y-40912945D01*
X95717476Y-40929976D01*
X95700445Y-40943952D01*
X95681009Y-40954340D01*
X95659928Y-40960736D01*
X95631860Y-40963500D01*
X95168140Y-40963500D01*
X95140072Y-40960736D01*
X95118991Y-40954340D01*
X95099555Y-40943952D01*
X95082524Y-40929976D01*
X95068548Y-40912945D01*
X95058160Y-40893509D01*
X95051764Y-40872428D01*
X95049397Y-40848391D01*
X95044617Y-40824358D01*
X95035239Y-40801719D01*
X95021626Y-40781345D01*
X95004299Y-40764018D01*
X94983924Y-40750404D01*
X94961285Y-40741026D01*
X94937252Y-40736246D01*
X94912748Y-40736246D01*
X94888715Y-40741026D01*
X94866076Y-40750404D01*
X94845702Y-40764017D01*
X94828375Y-40781344D01*
X94814761Y-40801719D01*
X94805383Y-40824358D01*
X94800603Y-40848391D01*
X94798236Y-40872428D01*
X94791840Y-40893509D01*
X94781452Y-40912945D01*
X94767476Y-40929976D01*
X94750445Y-40943952D01*
X94731009Y-40954340D01*
X94709928Y-40960736D01*
X94681860Y-40963500D01*
X94218140Y-40963500D01*
X94190072Y-40960736D01*
X94168991Y-40954340D01*
X94149555Y-40943952D01*
X94132524Y-40929976D01*
X94118548Y-40912945D01*
X94108160Y-40893509D01*
X94101764Y-40872428D01*
X94099397Y-40848391D01*
X94094617Y-40824358D01*
X94085239Y-40801719D01*
X94071626Y-40781345D01*
X94054299Y-40764018D01*
X94033924Y-40750404D01*
X94011285Y-40741026D01*
X93987252Y-40736246D01*
X93962748Y-40736246D01*
X93938715Y-40741026D01*
X93916076Y-40750404D01*
X93895702Y-40764017D01*
X93878375Y-40781344D01*
X93864761Y-40801719D01*
X93855383Y-40824358D01*
X93850603Y-40848391D01*
X93848236Y-40872428D01*
X93841840Y-40893509D01*
X93831452Y-40912945D01*
X93817476Y-40929976D01*
X93800445Y-40943952D01*
X93781009Y-40954340D01*
X93759928Y-40960736D01*
X93731860Y-40963500D01*
X93268140Y-40963500D01*
X93240072Y-40960736D01*
X93218991Y-40954340D01*
X93199555Y-40943952D01*
X93182524Y-40929976D01*
X93168548Y-40912945D01*
X93158160Y-40893509D01*
X93151764Y-40872428D01*
X93149000Y-40844360D01*
X93149000Y-39655640D01*
X93151764Y-39627572D01*
X93158160Y-39606491D01*
X93168548Y-39587055D01*
X93182524Y-39570024D01*
X93199555Y-39556048D01*
X93218991Y-39545660D01*
X93240072Y-39539264D01*
X93268140Y-39536500D01*
X93731860Y-39536500D01*
X93759928Y-39539264D01*
G37*
G36*
X85501000Y-40601000D02*
G01*
X84299000Y-40601000D01*
X84299000Y-39399000D01*
X85501000Y-39399000D01*
X85501000Y-40601000D01*
G37*
G36*
X82701000Y-40601000D02*
G01*
X81499000Y-40601000D01*
X81499000Y-39399000D01*
X82701000Y-39399000D01*
X82701000Y-40601000D01*
G37*
G36*
X90905176Y-39595172D02*
G01*
X90924381Y-39600998D01*
X90942093Y-39610465D01*
X90957605Y-39623195D01*
X90970335Y-39638707D01*
X90979802Y-39656419D01*
X90985628Y-39675624D01*
X90988200Y-39701740D01*
X90988200Y-40145460D01*
X90985628Y-40171576D01*
X90979802Y-40190781D01*
X90970335Y-40208493D01*
X90957605Y-40224005D01*
X90942093Y-40236735D01*
X90924381Y-40246202D01*
X90905176Y-40252028D01*
X90879060Y-40254600D01*
X90375340Y-40254600D01*
X90349224Y-40252028D01*
X90330019Y-40246202D01*
X90312307Y-40236735D01*
X90296795Y-40224005D01*
X90284065Y-40208493D01*
X90274598Y-40190781D01*
X90268772Y-40171576D01*
X90266200Y-40145460D01*
X90266200Y-39701740D01*
X90268772Y-39675624D01*
X90274598Y-39656419D01*
X90284065Y-39638707D01*
X90296795Y-39623195D01*
X90312307Y-39610465D01*
X90330019Y-39600998D01*
X90349224Y-39595172D01*
X90375340Y-39592600D01*
X90879060Y-39592600D01*
X90905176Y-39595172D01*
G37*
G36*
X92175176Y-39498772D02*
G01*
X92194381Y-39504598D01*
X92212093Y-39514065D01*
X92227605Y-39526795D01*
X92240335Y-39542307D01*
X92249802Y-39560019D01*
X92255628Y-39579224D01*
X92258200Y-39605340D01*
X92258200Y-40049060D01*
X92255628Y-40075176D01*
X92249802Y-40094381D01*
X92240335Y-40112093D01*
X92227605Y-40127605D01*
X92212093Y-40140335D01*
X92194381Y-40149802D01*
X92175176Y-40155628D01*
X92149060Y-40158200D01*
X91645340Y-40158200D01*
X91619224Y-40155628D01*
X91600019Y-40149802D01*
X91582307Y-40140335D01*
X91566795Y-40127605D01*
X91554065Y-40112093D01*
X91544598Y-40094381D01*
X91538772Y-40075176D01*
X91536200Y-40049060D01*
X91536200Y-39605340D01*
X91538772Y-39579224D01*
X91544598Y-39560019D01*
X91554065Y-39542307D01*
X91566795Y-39526795D01*
X91582307Y-39514065D01*
X91600019Y-39504598D01*
X91619224Y-39498772D01*
X91645340Y-39496200D01*
X92149060Y-39496200D01*
X92175176Y-39498772D01*
G37*
G36*
X98486445Y-38493484D02*
G01*
X98531761Y-38507231D01*
X98599737Y-38527851D01*
X98704140Y-38583656D01*
X98795656Y-38658760D01*
X98870760Y-38750276D01*
X98926565Y-38854679D01*
X98947185Y-38922655D01*
X98960932Y-38967971D01*
X98972536Y-39085787D01*
X98960932Y-39203604D01*
X98946611Y-39250813D01*
X98926565Y-39316895D01*
X98870760Y-39421298D01*
X98814475Y-39489882D01*
X98489882Y-39814475D01*
X98421298Y-39870760D01*
X98316895Y-39926565D01*
X98248919Y-39947185D01*
X98203603Y-39960932D01*
X98085787Y-39972536D01*
X97967971Y-39960932D01*
X97922655Y-39947185D01*
X97854679Y-39926565D01*
X97750276Y-39870760D01*
X97658760Y-39795656D01*
X97583656Y-39704140D01*
X97527851Y-39599737D01*
X97507231Y-39531761D01*
X97493484Y-39486445D01*
X97481880Y-39368629D01*
X97493484Y-39250813D01*
X97507806Y-39203602D01*
X97527851Y-39137521D01*
X97583656Y-39033118D01*
X97639941Y-38964534D01*
X97964534Y-38639941D01*
X98033118Y-38583656D01*
X98137521Y-38527851D01*
X98194167Y-38510668D01*
X98250812Y-38493484D01*
X98368629Y-38481880D01*
X98486445Y-38493484D01*
G37*
G36*
X100161597Y-38595076D02*
G01*
X100179874Y-38600620D01*
X100196708Y-38609618D01*
X100211468Y-38621732D01*
X100223582Y-38636492D01*
X100232580Y-38653326D01*
X100238124Y-38671603D01*
X100240600Y-38696740D01*
X100240600Y-39230460D01*
X100238124Y-39255597D01*
X100232580Y-39273874D01*
X100223582Y-39290708D01*
X100211468Y-39305468D01*
X100196708Y-39317582D01*
X100179874Y-39326580D01*
X100161597Y-39332124D01*
X100136460Y-39334600D01*
X99702740Y-39334600D01*
X99677603Y-39332124D01*
X99659326Y-39326580D01*
X99642492Y-39317582D01*
X99627732Y-39305468D01*
X99615618Y-39290708D01*
X99606620Y-39273874D01*
X99601076Y-39255597D01*
X99598600Y-39230460D01*
X99598600Y-38696740D01*
X99601076Y-38671603D01*
X99606620Y-38653326D01*
X99615618Y-38636492D01*
X99627732Y-38621732D01*
X99642492Y-38609618D01*
X99659326Y-38600620D01*
X99677603Y-38595076D01*
X99702740Y-38592600D01*
X100136460Y-38592600D01*
X100161597Y-38595076D01*
G37*
G36*
X101181597Y-38595076D02*
G01*
X101199874Y-38600620D01*
X101216708Y-38609618D01*
X101231468Y-38621732D01*
X101243582Y-38636492D01*
X101252580Y-38653326D01*
X101258124Y-38671603D01*
X101260600Y-38696740D01*
X101260600Y-39230460D01*
X101258124Y-39255597D01*
X101252580Y-39273874D01*
X101243582Y-39290708D01*
X101231468Y-39305468D01*
X101216708Y-39317582D01*
X101199874Y-39326580D01*
X101181597Y-39332124D01*
X101156460Y-39334600D01*
X100722740Y-39334600D01*
X100697603Y-39332124D01*
X100679326Y-39326580D01*
X100662492Y-39317582D01*
X100647732Y-39305468D01*
X100635618Y-39290708D01*
X100626620Y-39273874D01*
X100621076Y-39255597D01*
X100618600Y-39230460D01*
X100618600Y-38696740D01*
X100621076Y-38671603D01*
X100626620Y-38653326D01*
X100635618Y-38636492D01*
X100647732Y-38621732D01*
X100662492Y-38609618D01*
X100679326Y-38600620D01*
X100697603Y-38595076D01*
X100722740Y-38592600D01*
X101156460Y-38592600D01*
X101181597Y-38595076D01*
G37*
G36*
X90905176Y-38635172D02*
G01*
X90924381Y-38640998D01*
X90942093Y-38650465D01*
X90957605Y-38663195D01*
X90970335Y-38678707D01*
X90979802Y-38696419D01*
X90985628Y-38715624D01*
X90988200Y-38741740D01*
X90988200Y-39185460D01*
X90985628Y-39211576D01*
X90979802Y-39230781D01*
X90970335Y-39248493D01*
X90957605Y-39264005D01*
X90942093Y-39276735D01*
X90924381Y-39286202D01*
X90905176Y-39292028D01*
X90879060Y-39294600D01*
X90375340Y-39294600D01*
X90349224Y-39292028D01*
X90330019Y-39286202D01*
X90312307Y-39276735D01*
X90296795Y-39264005D01*
X90284065Y-39248493D01*
X90274598Y-39230781D01*
X90268772Y-39211576D01*
X90266200Y-39185460D01*
X90266200Y-38741740D01*
X90268772Y-38715624D01*
X90274598Y-38696419D01*
X90284065Y-38678707D01*
X90296795Y-38663195D01*
X90312307Y-38650465D01*
X90330019Y-38640998D01*
X90349224Y-38635172D01*
X90375340Y-38632600D01*
X90879060Y-38632600D01*
X90905176Y-38635172D01*
G37*
G36*
X95659928Y-37264264D02*
G01*
X95681009Y-37270660D01*
X95700445Y-37281048D01*
X95717476Y-37295024D01*
X95731452Y-37312055D01*
X95741840Y-37331491D01*
X95748236Y-37352572D01*
X95751000Y-37380640D01*
X95751000Y-38569360D01*
X95748236Y-38597428D01*
X95741840Y-38618509D01*
X95731452Y-38637945D01*
X95717476Y-38654976D01*
X95700445Y-38668952D01*
X95681009Y-38679340D01*
X95659928Y-38685736D01*
X95631860Y-38688500D01*
X95168140Y-38688500D01*
X95140072Y-38685736D01*
X95118991Y-38679340D01*
X95099555Y-38668952D01*
X95082524Y-38654976D01*
X95068548Y-38637945D01*
X95058160Y-38618509D01*
X95051764Y-38597428D01*
X95049000Y-38569360D01*
X95049000Y-37380640D01*
X95051764Y-37352572D01*
X95058160Y-37331491D01*
X95068548Y-37312055D01*
X95082524Y-37295024D01*
X95099555Y-37281048D01*
X95118991Y-37270660D01*
X95140072Y-37264264D01*
X95168140Y-37261500D01*
X95631860Y-37261500D01*
X95659928Y-37264264D01*
G37*
G36*
X93759928Y-37264264D02*
G01*
X93781009Y-37270660D01*
X93800445Y-37281048D01*
X93817476Y-37295024D01*
X93831452Y-37312055D01*
X93841840Y-37331491D01*
X93848236Y-37352572D01*
X93851000Y-37380640D01*
X93851000Y-38569360D01*
X93848236Y-38597428D01*
X93841840Y-38618509D01*
X93831452Y-38637945D01*
X93817476Y-38654976D01*
X93800445Y-38668952D01*
X93781009Y-38679340D01*
X93759928Y-38685736D01*
X93731860Y-38688500D01*
X93268140Y-38688500D01*
X93240072Y-38685736D01*
X93218991Y-38679340D01*
X93199555Y-38668952D01*
X93182524Y-38654976D01*
X93168548Y-38637945D01*
X93158160Y-38618509D01*
X93151764Y-38597428D01*
X93149000Y-38569360D01*
X93149000Y-37380640D01*
X93151764Y-37352572D01*
X93158160Y-37331491D01*
X93168548Y-37312055D01*
X93182524Y-37295024D01*
X93199555Y-37281048D01*
X93218991Y-37270660D01*
X93240072Y-37264264D01*
X93268140Y-37261500D01*
X93731860Y-37261500D01*
X93759928Y-37264264D01*
G37*
G36*
X85685597Y-37883876D02*
G01*
X85703874Y-37889420D01*
X85720708Y-37898418D01*
X85735468Y-37910532D01*
X85747582Y-37925292D01*
X85756580Y-37942126D01*
X85762124Y-37960403D01*
X85764600Y-37985540D01*
X85764600Y-38519260D01*
X85762124Y-38544397D01*
X85756580Y-38562674D01*
X85747582Y-38579508D01*
X85735468Y-38594268D01*
X85720708Y-38606382D01*
X85703874Y-38615380D01*
X85685597Y-38620924D01*
X85660460Y-38623400D01*
X85226740Y-38623400D01*
X85201603Y-38620924D01*
X85183326Y-38615380D01*
X85166492Y-38606382D01*
X85151732Y-38594268D01*
X85139618Y-38579508D01*
X85130620Y-38562674D01*
X85125076Y-38544397D01*
X85122600Y-38519260D01*
X85122600Y-37985540D01*
X85125076Y-37960403D01*
X85130620Y-37942126D01*
X85139618Y-37925292D01*
X85151732Y-37910532D01*
X85166492Y-37898418D01*
X85183326Y-37889420D01*
X85201603Y-37883876D01*
X85226740Y-37881400D01*
X85660460Y-37881400D01*
X85685597Y-37883876D01*
G37*
G36*
X86705597Y-37883876D02*
G01*
X86723874Y-37889420D01*
X86740708Y-37898418D01*
X86755468Y-37910532D01*
X86767582Y-37925292D01*
X86776580Y-37942126D01*
X86782124Y-37960403D01*
X86784600Y-37985540D01*
X86784600Y-38519260D01*
X86782124Y-38544397D01*
X86776580Y-38562674D01*
X86767582Y-38579508D01*
X86755468Y-38594268D01*
X86740708Y-38606382D01*
X86723874Y-38615380D01*
X86705597Y-38620924D01*
X86680460Y-38623400D01*
X86246740Y-38623400D01*
X86221603Y-38620924D01*
X86203326Y-38615380D01*
X86186492Y-38606382D01*
X86171732Y-38594268D01*
X86159618Y-38579508D01*
X86150620Y-38562674D01*
X86145076Y-38544397D01*
X86142600Y-38519260D01*
X86142600Y-37985540D01*
X86145076Y-37960403D01*
X86150620Y-37942126D01*
X86159618Y-37925292D01*
X86171732Y-37910532D01*
X86186492Y-37898418D01*
X86203326Y-37889420D01*
X86221603Y-37883876D01*
X86246740Y-37881400D01*
X86680460Y-37881400D01*
X86705597Y-37883876D01*
G37*
G36*
X84416581Y-37134095D02*
G01*
X84452616Y-37145027D01*
X84485824Y-37162777D01*
X84514934Y-37186666D01*
X84538823Y-37215776D01*
X84556573Y-37248984D01*
X84567505Y-37285019D01*
X84571800Y-37328631D01*
X84571800Y-38357969D01*
X84567505Y-38401581D01*
X84556573Y-38437616D01*
X84538823Y-38470824D01*
X84514934Y-38499934D01*
X84485824Y-38523823D01*
X84452616Y-38541573D01*
X84416581Y-38552505D01*
X84372969Y-38556800D01*
X83368631Y-38556800D01*
X83325019Y-38552505D01*
X83288984Y-38541573D01*
X83255776Y-38523823D01*
X83226666Y-38499934D01*
X83202777Y-38470824D01*
X83185027Y-38437616D01*
X83174095Y-38401581D01*
X83169800Y-38357969D01*
X83169800Y-37328631D01*
X83174095Y-37285019D01*
X83185027Y-37248984D01*
X83202777Y-37215776D01*
X83226666Y-37186666D01*
X83255776Y-37162777D01*
X83288984Y-37145027D01*
X83325019Y-37134095D01*
X83368631Y-37129800D01*
X84372969Y-37129800D01*
X84416581Y-37134095D01*
G37*
G36*
X102587664Y-36937849D02*
G01*
X102632980Y-36951596D01*
X102700956Y-36972216D01*
X102805359Y-37028021D01*
X102896875Y-37103125D01*
X102971979Y-37194641D01*
X103027784Y-37299044D01*
X103040055Y-37339497D01*
X103062151Y-37412336D01*
X103073755Y-37530152D01*
X103062151Y-37647969D01*
X103057165Y-37664404D01*
X103027784Y-37761260D01*
X102971979Y-37865663D01*
X102915694Y-37934247D01*
X102591101Y-38258840D01*
X102522517Y-38315125D01*
X102418114Y-38370930D01*
X102350138Y-38391550D01*
X102304822Y-38405297D01*
X102187006Y-38416901D01*
X102069190Y-38405297D01*
X102023874Y-38391550D01*
X101955898Y-38370930D01*
X101851495Y-38315125D01*
X101759979Y-38240021D01*
X101684875Y-38148505D01*
X101629070Y-38044102D01*
X101598136Y-37942126D01*
X101594703Y-37930810D01*
X101583099Y-37812994D01*
X101594703Y-37695178D01*
X101609025Y-37647967D01*
X101629070Y-37581886D01*
X101684875Y-37477483D01*
X101741160Y-37408899D01*
X102065753Y-37084306D01*
X102134337Y-37028021D01*
X102238740Y-36972216D01*
X102302683Y-36952819D01*
X102352031Y-36937849D01*
X102469848Y-36926245D01*
X102587664Y-36937849D01*
G37*
G36*
X99041997Y-37441476D02*
G01*
X99060274Y-37447020D01*
X99077108Y-37456018D01*
X99091868Y-37468132D01*
X99103982Y-37482892D01*
X99112980Y-37499726D01*
X99118524Y-37518003D01*
X99121000Y-37543140D01*
X99121000Y-37976860D01*
X99118524Y-38001997D01*
X99112980Y-38020274D01*
X99103982Y-38037108D01*
X99091868Y-38051868D01*
X99077108Y-38063982D01*
X99060274Y-38072980D01*
X99041997Y-38078524D01*
X99016860Y-38081000D01*
X98483140Y-38081000D01*
X98458003Y-38078524D01*
X98439726Y-38072980D01*
X98422892Y-38063982D01*
X98408132Y-38051868D01*
X98396018Y-38037108D01*
X98387020Y-38020274D01*
X98381476Y-38001997D01*
X98379000Y-37976860D01*
X98379000Y-37543140D01*
X98381476Y-37518003D01*
X98387020Y-37499726D01*
X98396018Y-37482892D01*
X98408132Y-37468132D01*
X98422892Y-37456018D01*
X98439726Y-37447020D01*
X98458003Y-37441476D01*
X98483140Y-37439000D01*
X99016860Y-37439000D01*
X99041997Y-37441476D01*
G37*
G36*
X79776000Y-37219500D02*
G01*
X79776602Y-37231752D01*
X79778399Y-37250000D01*
X79776602Y-37268248D01*
X79776000Y-37280500D01*
X79776000Y-37351216D01*
X79771620Y-37356553D01*
X79760069Y-37378164D01*
X79755936Y-37389714D01*
X79740460Y-37440732D01*
X79708927Y-37499726D01*
X79694404Y-37526896D01*
X79685745Y-37537447D01*
X79632422Y-37602422D01*
X79576924Y-37647967D01*
X79556896Y-37664404D01*
X79556894Y-37664405D01*
X79470732Y-37710460D01*
X79377231Y-37738823D01*
X79304360Y-37746000D01*
X78595640Y-37746000D01*
X78522769Y-37738823D01*
X78429268Y-37710460D01*
X78343106Y-37664405D01*
X78343104Y-37664404D01*
X78323076Y-37647967D01*
X78267578Y-37602422D01*
X78214255Y-37537447D01*
X78205596Y-37526896D01*
X78191073Y-37499726D01*
X78159540Y-37440732D01*
X78144064Y-37389714D01*
X78134687Y-37367075D01*
X78124000Y-37351081D01*
X78124000Y-37280500D01*
X78123398Y-37268248D01*
X78121601Y-37250000D01*
X78123398Y-37231752D01*
X78124000Y-37219500D01*
X78124000Y-35999000D01*
X79776000Y-35999000D01*
X79776000Y-37219500D01*
G37*
G36*
X89497976Y-36891572D02*
G01*
X89517181Y-36897398D01*
X89534893Y-36906865D01*
X89550405Y-36919595D01*
X89563135Y-36935107D01*
X89572602Y-36952819D01*
X89578428Y-36972024D01*
X89581000Y-36998140D01*
X89581000Y-37501860D01*
X89578428Y-37527976D01*
X89572602Y-37547181D01*
X89563135Y-37564893D01*
X89550405Y-37580405D01*
X89534893Y-37593135D01*
X89517181Y-37602602D01*
X89497976Y-37608428D01*
X89471860Y-37611000D01*
X89028140Y-37611000D01*
X89002024Y-37608428D01*
X88982819Y-37602602D01*
X88965107Y-37593135D01*
X88949595Y-37580405D01*
X88936865Y-37564893D01*
X88927398Y-37547181D01*
X88921572Y-37527976D01*
X88919000Y-37501860D01*
X88919000Y-36998140D01*
X88921572Y-36972024D01*
X88927398Y-36952819D01*
X88936865Y-36935107D01*
X88949595Y-36919595D01*
X88965107Y-36906865D01*
X88982819Y-36897398D01*
X89002024Y-36891572D01*
X89028140Y-36889000D01*
X89471860Y-36889000D01*
X89497976Y-36891572D01*
G37*
G36*
X90457976Y-36891572D02*
G01*
X90477181Y-36897398D01*
X90494893Y-36906865D01*
X90510405Y-36919595D01*
X90523135Y-36935107D01*
X90532602Y-36952819D01*
X90538428Y-36972024D01*
X90541000Y-36998140D01*
X90541000Y-37501860D01*
X90538428Y-37527976D01*
X90532602Y-37547181D01*
X90523135Y-37564893D01*
X90510405Y-37580405D01*
X90494893Y-37593135D01*
X90477181Y-37602602D01*
X90457976Y-37608428D01*
X90431860Y-37611000D01*
X89988140Y-37611000D01*
X89962024Y-37608428D01*
X89942819Y-37602602D01*
X89925107Y-37593135D01*
X89909595Y-37580405D01*
X89896865Y-37564893D01*
X89887398Y-37547181D01*
X89881572Y-37527976D01*
X89879000Y-37501860D01*
X89879000Y-36998140D01*
X89881572Y-36972024D01*
X89887398Y-36952819D01*
X89896865Y-36935107D01*
X89909595Y-36919595D01*
X89925107Y-36906865D01*
X89942819Y-36897398D01*
X89962024Y-36891572D01*
X89988140Y-36889000D01*
X90431860Y-36889000D01*
X90457976Y-36891572D01*
G37*
G36*
X112526000Y-37601000D02*
G01*
X110674000Y-37601000D01*
X110674000Y-29899000D01*
X112526000Y-29899000D01*
X112526000Y-37601000D01*
G37*
G36*
X105326000Y-37601000D02*
G01*
X103474000Y-37601000D01*
X103474000Y-29899000D01*
X105326000Y-29899000D01*
X105326000Y-37601000D01*
G37*
G36*
X101314872Y-35665057D02*
G01*
X101360188Y-35678804D01*
X101428164Y-35699424D01*
X101532567Y-35755229D01*
X101624083Y-35830333D01*
X101699187Y-35921849D01*
X101754992Y-36026252D01*
X101769527Y-36074168D01*
X101789359Y-36139544D01*
X101800963Y-36257360D01*
X101789359Y-36375177D01*
X101777344Y-36414784D01*
X101754992Y-36488468D01*
X101699187Y-36592871D01*
X101642902Y-36661455D01*
X101318309Y-36986048D01*
X101249725Y-37042333D01*
X101145322Y-37098138D01*
X101077346Y-37118758D01*
X101032030Y-37132505D01*
X100914214Y-37144109D01*
X100796398Y-37132505D01*
X100751082Y-37118758D01*
X100683106Y-37098138D01*
X100578703Y-37042333D01*
X100487187Y-36967229D01*
X100412083Y-36875713D01*
X100356278Y-36771310D01*
X100335658Y-36703334D01*
X100321911Y-36658018D01*
X100310307Y-36540202D01*
X100321911Y-36422386D01*
X100343718Y-36350500D01*
X100356278Y-36309094D01*
X100412083Y-36204691D01*
X100468368Y-36136107D01*
X100792961Y-35811514D01*
X100861545Y-35755229D01*
X100965948Y-35699424D01*
X101022595Y-35682240D01*
X101079239Y-35665057D01*
X101197056Y-35653453D01*
X101314872Y-35665057D01*
G37*
G36*
X99041997Y-36421476D02*
G01*
X99060274Y-36427020D01*
X99077108Y-36436018D01*
X99091868Y-36448132D01*
X99103982Y-36462892D01*
X99112980Y-36479726D01*
X99118524Y-36498003D01*
X99121000Y-36523140D01*
X99121000Y-36956860D01*
X99118524Y-36981997D01*
X99112980Y-37000274D01*
X99103982Y-37017108D01*
X99091868Y-37031868D01*
X99077108Y-37043982D01*
X99060274Y-37052980D01*
X99041997Y-37058524D01*
X99016860Y-37061000D01*
X98483140Y-37061000D01*
X98458003Y-37058524D01*
X98439726Y-37052980D01*
X98422892Y-37043982D01*
X98408132Y-37031868D01*
X98396018Y-37017108D01*
X98387020Y-37000274D01*
X98381476Y-36981997D01*
X98379000Y-36956860D01*
X98379000Y-36523140D01*
X98381476Y-36498003D01*
X98387020Y-36479726D01*
X98396018Y-36462892D01*
X98408132Y-36448132D01*
X98422892Y-36436018D01*
X98439726Y-36427020D01*
X98458003Y-36421476D01*
X98483140Y-36419000D01*
X99016860Y-36419000D01*
X99041997Y-36421476D01*
G37*
G36*
X81753114Y-35581611D02*
G01*
X81852265Y-35611688D01*
X81943644Y-35660531D01*
X82023738Y-35726262D01*
X82089469Y-35806356D01*
X82138312Y-35897736D01*
X82168389Y-35996887D01*
X82176000Y-36074162D01*
X82176000Y-36425839D01*
X82168389Y-36503114D01*
X82138312Y-36602265D01*
X82089469Y-36693644D01*
X82023738Y-36773738D01*
X81943644Y-36839469D01*
X81852264Y-36888312D01*
X81753113Y-36918389D01*
X81650000Y-36928545D01*
X81546886Y-36918389D01*
X81447735Y-36888312D01*
X81356356Y-36839469D01*
X81276262Y-36773738D01*
X81210531Y-36693644D01*
X81161688Y-36602264D01*
X81131611Y-36503113D01*
X81124000Y-36425838D01*
X81124000Y-36074161D01*
X81131611Y-35996886D01*
X81154374Y-35921848D01*
X81161689Y-35897734D01*
X81210532Y-35806356D01*
X81276263Y-35726262D01*
X81356357Y-35660531D01*
X81447736Y-35611688D01*
X81546887Y-35581611D01*
X81650000Y-35571455D01*
X81753114Y-35581611D01*
G37*
G36*
X84416581Y-35209095D02*
G01*
X84452616Y-35220027D01*
X84485824Y-35237777D01*
X84514934Y-35261666D01*
X84538823Y-35290776D01*
X84556573Y-35323984D01*
X84567505Y-35360019D01*
X84571800Y-35403631D01*
X84571800Y-36432969D01*
X84567505Y-36476581D01*
X84556573Y-36512616D01*
X84538823Y-36545824D01*
X84514934Y-36574934D01*
X84485824Y-36598823D01*
X84452616Y-36616573D01*
X84416581Y-36627505D01*
X84372969Y-36631800D01*
X83368631Y-36631800D01*
X83325019Y-36627505D01*
X83288984Y-36616573D01*
X83255776Y-36598823D01*
X83226666Y-36574934D01*
X83202777Y-36545824D01*
X83185027Y-36512616D01*
X83174095Y-36476581D01*
X83169800Y-36432969D01*
X83169800Y-35403631D01*
X83174095Y-35360019D01*
X83185027Y-35323984D01*
X83202777Y-35290776D01*
X83226666Y-35261666D01*
X83255776Y-35237777D01*
X83288984Y-35220027D01*
X83325019Y-35209095D01*
X83368631Y-35204800D01*
X84372969Y-35204800D01*
X84416581Y-35209095D01*
G37*
G36*
X87420295Y-34875323D02*
G01*
X87427309Y-34877451D01*
X87441077Y-34884810D01*
X87463716Y-34894187D01*
X87487749Y-34898967D01*
X87512253Y-34898967D01*
X87536286Y-34894186D01*
X87558923Y-34884810D01*
X87572691Y-34877451D01*
X87579705Y-34875323D01*
X87593140Y-34874000D01*
X87906860Y-34874000D01*
X87920295Y-34875323D01*
X87927309Y-34877451D01*
X87941077Y-34884810D01*
X87963716Y-34894187D01*
X87987749Y-34898967D01*
X88012253Y-34898967D01*
X88036286Y-34894186D01*
X88058923Y-34884810D01*
X88072691Y-34877451D01*
X88079705Y-34875323D01*
X88093140Y-34874000D01*
X88406860Y-34874000D01*
X88420295Y-34875323D01*
X88427309Y-34877451D01*
X88441077Y-34884810D01*
X88463716Y-34894187D01*
X88487749Y-34898967D01*
X88512253Y-34898967D01*
X88536286Y-34894186D01*
X88558923Y-34884810D01*
X88572691Y-34877451D01*
X88579705Y-34875323D01*
X88593140Y-34874000D01*
X88906860Y-34874000D01*
X88920295Y-34875323D01*
X88927309Y-34877451D01*
X88941077Y-34884810D01*
X88963716Y-34894187D01*
X88987749Y-34898967D01*
X89012253Y-34898967D01*
X89036286Y-34894186D01*
X89058923Y-34884810D01*
X89072691Y-34877451D01*
X89079705Y-34875323D01*
X89093140Y-34874000D01*
X89406860Y-34874000D01*
X89420295Y-34875323D01*
X89427309Y-34877451D01*
X89441077Y-34884810D01*
X89463716Y-34894187D01*
X89487749Y-34898967D01*
X89512253Y-34898967D01*
X89536286Y-34894186D01*
X89558923Y-34884810D01*
X89572691Y-34877451D01*
X89579705Y-34875323D01*
X89593140Y-34874000D01*
X89906860Y-34874000D01*
X89920295Y-34875323D01*
X89927309Y-34877451D01*
X89941077Y-34884810D01*
X89963716Y-34894187D01*
X89987749Y-34898967D01*
X90012253Y-34898967D01*
X90036286Y-34894186D01*
X90058923Y-34884810D01*
X90072691Y-34877451D01*
X90079705Y-34875323D01*
X90093140Y-34874000D01*
X90406860Y-34874000D01*
X90420295Y-34875323D01*
X90427309Y-34877451D01*
X90441077Y-34884810D01*
X90463716Y-34894187D01*
X90487749Y-34898967D01*
X90512253Y-34898967D01*
X90536286Y-34894186D01*
X90558923Y-34884810D01*
X90572691Y-34877451D01*
X90579705Y-34875323D01*
X90593140Y-34874000D01*
X90906860Y-34874000D01*
X90920295Y-34875323D01*
X90927309Y-34877451D01*
X90941077Y-34884810D01*
X90963716Y-34894187D01*
X90987749Y-34898967D01*
X91012253Y-34898967D01*
X91036286Y-34894186D01*
X91058923Y-34884810D01*
X91072691Y-34877451D01*
X91079705Y-34875323D01*
X91093140Y-34874000D01*
X91406860Y-34874000D01*
X91420295Y-34875323D01*
X91427309Y-34877451D01*
X91441077Y-34884810D01*
X91463716Y-34894187D01*
X91487749Y-34898967D01*
X91512253Y-34898967D01*
X91536286Y-34894186D01*
X91558923Y-34884810D01*
X91572691Y-34877451D01*
X91579705Y-34875323D01*
X91593140Y-34874000D01*
X91906860Y-34874000D01*
X91920295Y-34875323D01*
X91927309Y-34877451D01*
X91941077Y-34884810D01*
X91963716Y-34894187D01*
X91987749Y-34898967D01*
X92012253Y-34898967D01*
X92036286Y-34894186D01*
X92058923Y-34884810D01*
X92072691Y-34877451D01*
X92079705Y-34875323D01*
X92093140Y-34874000D01*
X92406860Y-34874000D01*
X92420295Y-34875323D01*
X92427309Y-34877451D01*
X92441077Y-34884810D01*
X92463716Y-34894187D01*
X92487749Y-34898967D01*
X92512253Y-34898967D01*
X92536286Y-34894186D01*
X92558923Y-34884810D01*
X92572691Y-34877451D01*
X92579705Y-34875323D01*
X92593140Y-34874000D01*
X92906860Y-34874000D01*
X92920295Y-34875323D01*
X92927310Y-34877451D01*
X92933776Y-34880908D01*
X92939442Y-34885558D01*
X92944092Y-34891224D01*
X92947549Y-34897690D01*
X92949677Y-34904705D01*
X92951000Y-34918140D01*
X92951000Y-36406860D01*
X92949677Y-36420295D01*
X92947549Y-36427310D01*
X92944092Y-36433776D01*
X92939442Y-36439442D01*
X92933776Y-36444092D01*
X92927310Y-36447549D01*
X92920295Y-36449677D01*
X92906860Y-36451000D01*
X92593140Y-36451000D01*
X92579705Y-36449677D01*
X92572691Y-36447549D01*
X92558923Y-36440190D01*
X92536284Y-36430813D01*
X92512251Y-36426033D01*
X92487747Y-36426033D01*
X92463714Y-36430814D01*
X92441077Y-36440190D01*
X92427309Y-36447549D01*
X92420295Y-36449677D01*
X92406860Y-36451000D01*
X92093140Y-36451000D01*
X92079705Y-36449677D01*
X92072691Y-36447549D01*
X92058923Y-36440190D01*
X92036284Y-36430813D01*
X92012251Y-36426033D01*
X91987747Y-36426033D01*
X91963714Y-36430814D01*
X91941077Y-36440190D01*
X91927309Y-36447549D01*
X91920295Y-36449677D01*
X91906860Y-36451000D01*
X91593140Y-36451000D01*
X91579705Y-36449677D01*
X91572691Y-36447549D01*
X91558923Y-36440190D01*
X91536284Y-36430813D01*
X91512251Y-36426033D01*
X91487747Y-36426033D01*
X91463714Y-36430814D01*
X91441077Y-36440190D01*
X91427309Y-36447549D01*
X91420295Y-36449677D01*
X91406860Y-36451000D01*
X91093140Y-36451000D01*
X91079705Y-36449677D01*
X91072691Y-36447549D01*
X91058923Y-36440190D01*
X91036284Y-36430813D01*
X91012251Y-36426033D01*
X90987747Y-36426033D01*
X90963714Y-36430814D01*
X90941077Y-36440190D01*
X90927309Y-36447549D01*
X90920295Y-36449677D01*
X90906860Y-36451000D01*
X90593140Y-36451000D01*
X90579705Y-36449677D01*
X90572691Y-36447549D01*
X90558923Y-36440190D01*
X90536284Y-36430813D01*
X90512251Y-36426033D01*
X90487747Y-36426033D01*
X90463714Y-36430814D01*
X90441077Y-36440190D01*
X90427309Y-36447549D01*
X90420295Y-36449677D01*
X90406860Y-36451000D01*
X90093140Y-36451000D01*
X90079705Y-36449677D01*
X90072691Y-36447549D01*
X90058923Y-36440190D01*
X90036284Y-36430813D01*
X90012251Y-36426033D01*
X89987747Y-36426033D01*
X89963714Y-36430814D01*
X89941077Y-36440190D01*
X89927309Y-36447549D01*
X89920295Y-36449677D01*
X89906860Y-36451000D01*
X89593140Y-36451000D01*
X89579705Y-36449677D01*
X89572691Y-36447549D01*
X89558923Y-36440190D01*
X89536284Y-36430813D01*
X89512251Y-36426033D01*
X89487747Y-36426033D01*
X89463714Y-36430814D01*
X89441077Y-36440190D01*
X89427309Y-36447549D01*
X89420295Y-36449677D01*
X89406860Y-36451000D01*
X89093140Y-36451000D01*
X89079705Y-36449677D01*
X89072691Y-36447549D01*
X89058923Y-36440190D01*
X89036284Y-36430813D01*
X89012251Y-36426033D01*
X88987747Y-36426033D01*
X88963714Y-36430814D01*
X88941077Y-36440190D01*
X88927309Y-36447549D01*
X88920295Y-36449677D01*
X88906860Y-36451000D01*
X88593140Y-36451000D01*
X88579705Y-36449677D01*
X88572691Y-36447549D01*
X88558923Y-36440190D01*
X88536284Y-36430813D01*
X88512251Y-36426033D01*
X88487747Y-36426033D01*
X88463714Y-36430814D01*
X88441077Y-36440190D01*
X88427309Y-36447549D01*
X88420295Y-36449677D01*
X88406860Y-36451000D01*
X88093140Y-36451000D01*
X88079705Y-36449677D01*
X88072691Y-36447549D01*
X88058923Y-36440190D01*
X88036284Y-36430813D01*
X88012251Y-36426033D01*
X87987747Y-36426033D01*
X87963714Y-36430814D01*
X87941077Y-36440190D01*
X87927309Y-36447549D01*
X87920295Y-36449677D01*
X87906860Y-36451000D01*
X87593140Y-36451000D01*
X87579705Y-36449677D01*
X87572691Y-36447549D01*
X87558923Y-36440190D01*
X87536284Y-36430813D01*
X87512251Y-36426033D01*
X87487747Y-36426033D01*
X87463714Y-36430814D01*
X87441077Y-36440190D01*
X87427309Y-36447549D01*
X87420295Y-36449677D01*
X87406860Y-36451000D01*
X87093140Y-36451000D01*
X87079705Y-36449677D01*
X87072690Y-36447549D01*
X87066224Y-36444092D01*
X87060558Y-36439442D01*
X87055908Y-36433776D01*
X87052451Y-36427310D01*
X87050323Y-36420295D01*
X87049000Y-36406860D01*
X87049000Y-34918140D01*
X87050323Y-34904705D01*
X87052451Y-34897690D01*
X87055908Y-34891224D01*
X87060558Y-34885558D01*
X87066224Y-34880908D01*
X87072690Y-34877451D01*
X87079705Y-34875323D01*
X87093140Y-34874000D01*
X87406860Y-34874000D01*
X87420295Y-34875323D01*
G37*
G36*
X79776000Y-35551000D02*
G01*
X78124000Y-35551000D01*
X78124000Y-33949000D01*
X79776000Y-33949000D01*
X79776000Y-35551000D01*
G37*
G36*
X82376000Y-35301000D02*
G01*
X80924000Y-35301000D01*
X80924000Y-32199000D01*
X82376000Y-32199000D01*
X82376000Y-35301000D01*
G37*
G36*
X94920295Y-28550323D02*
G01*
X94927310Y-28552451D01*
X94933776Y-28555908D01*
X94939442Y-28560558D01*
X94944092Y-28566224D01*
X94947549Y-28572690D01*
X94949677Y-28579705D01*
X94951000Y-28593140D01*
X94951000Y-28906860D01*
X94949677Y-28920295D01*
X94947549Y-28927309D01*
X94940190Y-28941077D01*
X94930813Y-28963716D01*
X94926033Y-28987749D01*
X94926033Y-29012253D01*
X94930814Y-29036286D01*
X94940190Y-29058923D01*
X94947549Y-29072691D01*
X94949677Y-29079705D01*
X94951000Y-29093140D01*
X94951000Y-29406860D01*
X94949677Y-29420295D01*
X94947549Y-29427309D01*
X94940190Y-29441077D01*
X94930813Y-29463716D01*
X94926033Y-29487749D01*
X94926033Y-29512253D01*
X94930814Y-29536286D01*
X94940190Y-29558923D01*
X94947549Y-29572691D01*
X94949677Y-29579705D01*
X94951000Y-29593140D01*
X94951000Y-29906860D01*
X94949677Y-29920295D01*
X94947549Y-29927309D01*
X94940190Y-29941077D01*
X94930813Y-29963716D01*
X94926033Y-29987749D01*
X94926033Y-30012253D01*
X94930814Y-30036286D01*
X94940190Y-30058923D01*
X94947549Y-30072691D01*
X94949677Y-30079705D01*
X94951000Y-30093140D01*
X94951000Y-30406860D01*
X94949677Y-30420295D01*
X94947549Y-30427309D01*
X94940190Y-30441077D01*
X94930813Y-30463716D01*
X94926033Y-30487749D01*
X94926033Y-30512253D01*
X94930814Y-30536286D01*
X94940190Y-30558923D01*
X94947549Y-30572691D01*
X94949677Y-30579705D01*
X94951000Y-30593140D01*
X94951000Y-30906860D01*
X94949677Y-30920295D01*
X94947549Y-30927309D01*
X94940190Y-30941077D01*
X94930813Y-30963716D01*
X94926033Y-30987749D01*
X94926033Y-31012253D01*
X94930814Y-31036286D01*
X94940190Y-31058923D01*
X94947549Y-31072691D01*
X94949677Y-31079705D01*
X94951000Y-31093140D01*
X94951000Y-31406860D01*
X94949677Y-31420295D01*
X94947549Y-31427309D01*
X94940190Y-31441077D01*
X94930813Y-31463716D01*
X94926033Y-31487749D01*
X94926033Y-31512253D01*
X94930814Y-31536286D01*
X94940190Y-31558923D01*
X94947549Y-31572691D01*
X94949677Y-31579705D01*
X94951000Y-31593140D01*
X94951000Y-31906860D01*
X94949677Y-31920295D01*
X94947549Y-31927309D01*
X94940190Y-31941077D01*
X94930813Y-31963716D01*
X94926033Y-31987749D01*
X94926033Y-32012253D01*
X94930814Y-32036286D01*
X94940190Y-32058923D01*
X94947549Y-32072691D01*
X94949677Y-32079705D01*
X94951000Y-32093140D01*
X94951000Y-32406860D01*
X94949677Y-32420295D01*
X94947549Y-32427309D01*
X94940190Y-32441077D01*
X94930813Y-32463716D01*
X94926033Y-32487749D01*
X94926033Y-32512253D01*
X94930814Y-32536286D01*
X94940190Y-32558923D01*
X94947549Y-32572691D01*
X94949677Y-32579705D01*
X94951000Y-32593140D01*
X94951000Y-32906860D01*
X94949677Y-32920295D01*
X94947549Y-32927309D01*
X94940190Y-32941077D01*
X94930813Y-32963716D01*
X94926033Y-32987749D01*
X94926033Y-33012253D01*
X94930814Y-33036286D01*
X94940190Y-33058923D01*
X94947549Y-33072691D01*
X94949677Y-33079705D01*
X94951000Y-33093140D01*
X94951000Y-33406860D01*
X94949677Y-33420295D01*
X94947549Y-33427309D01*
X94940190Y-33441077D01*
X94930813Y-33463716D01*
X94926033Y-33487749D01*
X94926033Y-33512253D01*
X94930814Y-33536286D01*
X94940190Y-33558923D01*
X94947549Y-33572691D01*
X94949677Y-33579705D01*
X94951000Y-33593140D01*
X94951000Y-33906860D01*
X94949677Y-33920295D01*
X94947549Y-33927309D01*
X94940190Y-33941077D01*
X94930813Y-33963716D01*
X94926033Y-33987749D01*
X94926033Y-34012253D01*
X94930814Y-34036286D01*
X94940190Y-34058923D01*
X94947549Y-34072691D01*
X94949677Y-34079705D01*
X94951000Y-34093140D01*
X94951000Y-34406860D01*
X94949677Y-34420295D01*
X94947549Y-34427310D01*
X94944092Y-34433776D01*
X94939442Y-34439442D01*
X94933776Y-34444092D01*
X94927310Y-34447549D01*
X94920295Y-34449677D01*
X94906860Y-34451000D01*
X93418140Y-34451000D01*
X93404705Y-34449677D01*
X93397690Y-34447549D01*
X93391224Y-34444092D01*
X93385558Y-34439442D01*
X93380908Y-34433776D01*
X93377451Y-34427310D01*
X93375323Y-34420295D01*
X93374000Y-34406860D01*
X93374000Y-34093140D01*
X93375323Y-34079705D01*
X93377451Y-34072691D01*
X93384810Y-34058923D01*
X93394187Y-34036284D01*
X93398967Y-34012251D01*
X93398967Y-33987747D01*
X93394186Y-33963714D01*
X93384810Y-33941077D01*
X93377451Y-33927309D01*
X93375323Y-33920295D01*
X93374000Y-33906860D01*
X93374000Y-33593140D01*
X93375323Y-33579705D01*
X93377451Y-33572691D01*
X93384810Y-33558923D01*
X93394187Y-33536284D01*
X93398967Y-33512251D01*
X93398967Y-33487747D01*
X93394186Y-33463714D01*
X93384810Y-33441077D01*
X93377451Y-33427309D01*
X93375323Y-33420295D01*
X93374000Y-33406860D01*
X93374000Y-33093140D01*
X93375323Y-33079705D01*
X93377451Y-33072691D01*
X93384810Y-33058923D01*
X93394187Y-33036284D01*
X93398967Y-33012251D01*
X93398967Y-32987747D01*
X93394186Y-32963714D01*
X93384810Y-32941077D01*
X93377451Y-32927309D01*
X93375323Y-32920295D01*
X93374000Y-32906860D01*
X93374000Y-32593140D01*
X93375323Y-32579705D01*
X93377451Y-32572691D01*
X93384810Y-32558923D01*
X93394187Y-32536284D01*
X93398967Y-32512251D01*
X93398967Y-32487747D01*
X93394186Y-32463714D01*
X93384810Y-32441077D01*
X93377451Y-32427309D01*
X93375323Y-32420295D01*
X93374000Y-32406860D01*
X93374000Y-32093140D01*
X93375323Y-32079705D01*
X93377451Y-32072691D01*
X93384810Y-32058923D01*
X93394187Y-32036284D01*
X93398967Y-32012251D01*
X93398967Y-31987747D01*
X93394186Y-31963714D01*
X93384810Y-31941077D01*
X93377451Y-31927309D01*
X93375323Y-31920295D01*
X93374000Y-31906860D01*
X93374000Y-31593140D01*
X93375323Y-31579705D01*
X93377451Y-31572691D01*
X93384810Y-31558923D01*
X93394187Y-31536284D01*
X93398967Y-31512251D01*
X93398967Y-31487747D01*
X93394186Y-31463714D01*
X93384810Y-31441077D01*
X93377451Y-31427309D01*
X93375323Y-31420295D01*
X93374000Y-31406860D01*
X93374000Y-31093140D01*
X93375323Y-31079705D01*
X93377451Y-31072691D01*
X93384810Y-31058923D01*
X93394187Y-31036284D01*
X93398967Y-31012251D01*
X93398967Y-30987747D01*
X93394186Y-30963714D01*
X93384810Y-30941077D01*
X93377451Y-30927309D01*
X93375323Y-30920295D01*
X93374000Y-30906860D01*
X93374000Y-30593140D01*
X93375323Y-30579705D01*
X93377451Y-30572691D01*
X93384810Y-30558923D01*
X93394187Y-30536284D01*
X93398967Y-30512251D01*
X93398967Y-30487747D01*
X93394186Y-30463714D01*
X93384810Y-30441077D01*
X93377451Y-30427309D01*
X93375323Y-30420295D01*
X93374000Y-30406860D01*
X93374000Y-30093140D01*
X93375323Y-30079705D01*
X93377451Y-30072691D01*
X93384810Y-30058923D01*
X93394187Y-30036284D01*
X93398967Y-30012251D01*
X93398967Y-29987747D01*
X93394186Y-29963714D01*
X93384810Y-29941077D01*
X93377451Y-29927309D01*
X93375323Y-29920295D01*
X93374000Y-29906860D01*
X93374000Y-29593140D01*
X93375323Y-29579705D01*
X93377451Y-29572691D01*
X93384810Y-29558923D01*
X93394187Y-29536284D01*
X93398967Y-29512251D01*
X93398967Y-29487747D01*
X93394186Y-29463714D01*
X93384810Y-29441077D01*
X93377451Y-29427309D01*
X93375323Y-29420295D01*
X93374000Y-29406860D01*
X93374000Y-29093140D01*
X93375323Y-29079705D01*
X93377451Y-29072691D01*
X93384810Y-29058923D01*
X93394187Y-29036284D01*
X93398967Y-29012251D01*
X93398967Y-28987747D01*
X93394186Y-28963714D01*
X93384810Y-28941077D01*
X93377451Y-28927309D01*
X93375323Y-28920295D01*
X93374000Y-28906860D01*
X93374000Y-28593140D01*
X93375323Y-28579705D01*
X93377451Y-28572690D01*
X93380908Y-28566224D01*
X93385558Y-28560558D01*
X93391224Y-28555908D01*
X93397690Y-28552451D01*
X93404705Y-28550323D01*
X93418140Y-28549000D01*
X94906860Y-28549000D01*
X94920295Y-28550323D01*
G37*
G36*
X86595295Y-28550323D02*
G01*
X86602310Y-28552451D01*
X86608776Y-28555908D01*
X86614442Y-28560558D01*
X86619092Y-28566224D01*
X86622549Y-28572690D01*
X86624677Y-28579705D01*
X86626000Y-28593140D01*
X86626000Y-28906860D01*
X86624677Y-28920295D01*
X86622549Y-28927309D01*
X86615190Y-28941077D01*
X86605813Y-28963716D01*
X86601033Y-28987749D01*
X86601033Y-29012253D01*
X86605814Y-29036286D01*
X86615190Y-29058923D01*
X86622549Y-29072691D01*
X86624677Y-29079705D01*
X86626000Y-29093140D01*
X86626000Y-29406860D01*
X86624677Y-29420295D01*
X86622549Y-29427309D01*
X86615190Y-29441077D01*
X86605813Y-29463716D01*
X86601033Y-29487749D01*
X86601033Y-29512253D01*
X86605814Y-29536286D01*
X86615190Y-29558923D01*
X86622549Y-29572691D01*
X86624677Y-29579705D01*
X86626000Y-29593140D01*
X86626000Y-29906860D01*
X86624677Y-29920295D01*
X86622549Y-29927309D01*
X86615190Y-29941077D01*
X86605813Y-29963716D01*
X86601033Y-29987749D01*
X86601033Y-30012253D01*
X86605814Y-30036286D01*
X86615190Y-30058923D01*
X86622549Y-30072691D01*
X86624677Y-30079705D01*
X86626000Y-30093140D01*
X86626000Y-30406860D01*
X86624677Y-30420295D01*
X86622549Y-30427309D01*
X86615190Y-30441077D01*
X86605813Y-30463716D01*
X86601033Y-30487749D01*
X86601033Y-30512253D01*
X86605814Y-30536286D01*
X86615190Y-30558923D01*
X86622549Y-30572691D01*
X86624677Y-30579705D01*
X86626000Y-30593140D01*
X86626000Y-30906860D01*
X86624677Y-30920295D01*
X86622549Y-30927309D01*
X86615190Y-30941077D01*
X86605813Y-30963716D01*
X86601033Y-30987749D01*
X86601033Y-31012253D01*
X86605814Y-31036286D01*
X86615190Y-31058923D01*
X86622549Y-31072691D01*
X86624677Y-31079705D01*
X86626000Y-31093140D01*
X86626000Y-31406860D01*
X86624677Y-31420295D01*
X86622549Y-31427309D01*
X86615190Y-31441077D01*
X86605813Y-31463716D01*
X86601033Y-31487749D01*
X86601033Y-31512253D01*
X86605814Y-31536286D01*
X86615190Y-31558923D01*
X86622549Y-31572691D01*
X86624677Y-31579705D01*
X86626000Y-31593140D01*
X86626000Y-31906860D01*
X86624677Y-31920295D01*
X86622549Y-31927309D01*
X86615190Y-31941077D01*
X86605813Y-31963716D01*
X86601033Y-31987749D01*
X86601033Y-32012253D01*
X86605814Y-32036286D01*
X86615190Y-32058923D01*
X86622549Y-32072691D01*
X86624677Y-32079705D01*
X86626000Y-32093140D01*
X86626000Y-32406860D01*
X86624677Y-32420295D01*
X86622549Y-32427309D01*
X86615190Y-32441077D01*
X86605813Y-32463716D01*
X86601033Y-32487749D01*
X86601033Y-32512253D01*
X86605814Y-32536286D01*
X86615190Y-32558923D01*
X86622549Y-32572691D01*
X86624677Y-32579705D01*
X86626000Y-32593140D01*
X86626000Y-32906860D01*
X86624677Y-32920295D01*
X86622549Y-32927309D01*
X86615190Y-32941077D01*
X86605813Y-32963716D01*
X86601033Y-32987749D01*
X86601033Y-33012253D01*
X86605814Y-33036286D01*
X86615190Y-33058923D01*
X86622549Y-33072691D01*
X86624677Y-33079705D01*
X86626000Y-33093140D01*
X86626000Y-33406860D01*
X86624677Y-33420295D01*
X86622549Y-33427309D01*
X86615190Y-33441077D01*
X86605813Y-33463716D01*
X86601033Y-33487749D01*
X86601033Y-33512253D01*
X86605814Y-33536286D01*
X86615190Y-33558923D01*
X86622549Y-33572691D01*
X86624677Y-33579705D01*
X86626000Y-33593140D01*
X86626000Y-33906860D01*
X86624677Y-33920295D01*
X86622549Y-33927309D01*
X86615190Y-33941077D01*
X86605813Y-33963716D01*
X86601033Y-33987749D01*
X86601033Y-34012253D01*
X86605814Y-34036286D01*
X86615190Y-34058923D01*
X86622549Y-34072691D01*
X86624677Y-34079705D01*
X86626000Y-34093140D01*
X86626000Y-34406860D01*
X86624677Y-34420295D01*
X86622549Y-34427310D01*
X86619092Y-34433776D01*
X86614442Y-34439442D01*
X86608776Y-34444092D01*
X86602310Y-34447549D01*
X86595295Y-34449677D01*
X86581860Y-34451000D01*
X85093140Y-34451000D01*
X85079705Y-34449677D01*
X85072690Y-34447549D01*
X85066224Y-34444092D01*
X85060558Y-34439442D01*
X85055908Y-34433776D01*
X85052451Y-34427310D01*
X85050323Y-34420295D01*
X85049000Y-34406860D01*
X85049000Y-34093140D01*
X85050323Y-34079705D01*
X85052451Y-34072691D01*
X85059810Y-34058923D01*
X85069187Y-34036284D01*
X85073967Y-34012251D01*
X85073967Y-33987747D01*
X85069186Y-33963714D01*
X85059810Y-33941077D01*
X85052451Y-33927309D01*
X85050323Y-33920295D01*
X85049000Y-33906860D01*
X85049000Y-33593140D01*
X85050323Y-33579705D01*
X85052451Y-33572691D01*
X85059810Y-33558923D01*
X85069187Y-33536284D01*
X85073967Y-33512251D01*
X85073967Y-33487747D01*
X85069186Y-33463714D01*
X85059810Y-33441077D01*
X85052451Y-33427309D01*
X85050323Y-33420295D01*
X85049000Y-33406860D01*
X85049000Y-33093140D01*
X85050323Y-33079705D01*
X85052451Y-33072691D01*
X85059810Y-33058923D01*
X85069187Y-33036284D01*
X85073967Y-33012251D01*
X85073967Y-32987747D01*
X85069186Y-32963714D01*
X85059810Y-32941077D01*
X85052451Y-32927309D01*
X85050323Y-32920295D01*
X85049000Y-32906860D01*
X85049000Y-32593140D01*
X85050323Y-32579705D01*
X85052451Y-32572691D01*
X85059810Y-32558923D01*
X85069187Y-32536284D01*
X85073967Y-32512251D01*
X85073967Y-32487747D01*
X85069186Y-32463714D01*
X85059810Y-32441077D01*
X85052451Y-32427309D01*
X85050323Y-32420295D01*
X85049000Y-32406860D01*
X85049000Y-32093140D01*
X85050323Y-32079705D01*
X85052451Y-32072691D01*
X85059810Y-32058923D01*
X85069187Y-32036284D01*
X85073967Y-32012251D01*
X85073967Y-31987747D01*
X85069186Y-31963714D01*
X85059810Y-31941077D01*
X85052451Y-31927309D01*
X85050323Y-31920295D01*
X85049000Y-31906860D01*
X85049000Y-31593140D01*
X85050323Y-31579705D01*
X85052451Y-31572691D01*
X85059810Y-31558923D01*
X85069187Y-31536284D01*
X85073967Y-31512251D01*
X85073967Y-31487747D01*
X85069186Y-31463714D01*
X85059810Y-31441077D01*
X85052451Y-31427309D01*
X85050323Y-31420295D01*
X85049000Y-31406860D01*
X85049000Y-31093140D01*
X85050323Y-31079705D01*
X85052451Y-31072691D01*
X85059810Y-31058923D01*
X85069187Y-31036284D01*
X85073967Y-31012251D01*
X85073967Y-30987747D01*
X85069186Y-30963714D01*
X85059810Y-30941077D01*
X85052451Y-30927309D01*
X85050323Y-30920295D01*
X85049000Y-30906860D01*
X85049000Y-30593140D01*
X85050323Y-30579705D01*
X85052451Y-30572691D01*
X85059810Y-30558923D01*
X85069187Y-30536284D01*
X85073967Y-30512251D01*
X85073967Y-30487747D01*
X85069186Y-30463714D01*
X85059810Y-30441077D01*
X85052451Y-30427309D01*
X85050323Y-30420295D01*
X85049000Y-30406860D01*
X85049000Y-30093140D01*
X85050323Y-30079705D01*
X85052451Y-30072691D01*
X85059810Y-30058923D01*
X85069187Y-30036284D01*
X85073967Y-30012251D01*
X85073967Y-29987747D01*
X85069186Y-29963714D01*
X85059810Y-29941077D01*
X85052451Y-29927309D01*
X85050323Y-29920295D01*
X85049000Y-29906860D01*
X85049000Y-29593140D01*
X85050323Y-29579705D01*
X85052451Y-29572691D01*
X85059810Y-29558923D01*
X85069187Y-29536284D01*
X85073967Y-29512251D01*
X85073967Y-29487747D01*
X85069186Y-29463714D01*
X85059810Y-29441077D01*
X85052451Y-29427309D01*
X85050323Y-29420295D01*
X85049000Y-29406860D01*
X85049000Y-29093140D01*
X85050323Y-29079705D01*
X85052451Y-29072691D01*
X85059810Y-29058923D01*
X85069187Y-29036284D01*
X85073967Y-29012251D01*
X85073967Y-28987747D01*
X85069186Y-28963714D01*
X85059810Y-28941077D01*
X85052451Y-28927309D01*
X85050323Y-28920295D01*
X85049000Y-28906860D01*
X85049000Y-28593140D01*
X85050323Y-28579705D01*
X85052451Y-28572690D01*
X85055908Y-28566224D01*
X85060558Y-28560558D01*
X85066224Y-28555908D01*
X85072690Y-28552451D01*
X85079705Y-28550323D01*
X85093140Y-28549000D01*
X86581860Y-28549000D01*
X86595295Y-28550323D01*
G37*
G36*
X79776000Y-33551000D02*
G01*
X78124000Y-33551000D01*
X78124000Y-31949000D01*
X79776000Y-31949000D01*
X79776000Y-33551000D01*
G37*
G36*
X95932376Y-32661572D02*
G01*
X95951581Y-32667398D01*
X95969293Y-32676865D01*
X95984805Y-32689595D01*
X95997535Y-32705107D01*
X96007002Y-32722819D01*
X96012828Y-32742024D01*
X96015400Y-32768140D01*
X96015400Y-33271860D01*
X96012828Y-33297976D01*
X96007002Y-33317181D01*
X95997535Y-33334893D01*
X95984805Y-33350405D01*
X95969293Y-33363135D01*
X95951581Y-33372602D01*
X95932376Y-33378428D01*
X95906260Y-33381000D01*
X95462540Y-33381000D01*
X95436424Y-33378428D01*
X95417219Y-33372602D01*
X95399507Y-33363135D01*
X95383995Y-33350405D01*
X95371265Y-33334893D01*
X95361798Y-33317181D01*
X95355972Y-33297976D01*
X95353400Y-33271860D01*
X95353400Y-32768140D01*
X95355972Y-32742024D01*
X95361798Y-32722819D01*
X95371265Y-32705107D01*
X95383995Y-32689595D01*
X95399507Y-32676865D01*
X95417219Y-32667398D01*
X95436424Y-32661572D01*
X95462540Y-32659000D01*
X95906260Y-32659000D01*
X95932376Y-32661572D01*
G37*
G36*
X96892376Y-32661572D02*
G01*
X96911581Y-32667398D01*
X96929293Y-32676865D01*
X96944805Y-32689595D01*
X96957535Y-32705107D01*
X96967002Y-32722819D01*
X96972828Y-32742024D01*
X96975400Y-32768140D01*
X96975400Y-33271860D01*
X96972828Y-33297976D01*
X96967002Y-33317181D01*
X96957535Y-33334893D01*
X96944805Y-33350405D01*
X96929293Y-33363135D01*
X96911581Y-33372602D01*
X96892376Y-33378428D01*
X96866260Y-33381000D01*
X96422540Y-33381000D01*
X96396424Y-33378428D01*
X96377219Y-33372602D01*
X96359507Y-33363135D01*
X96343995Y-33350405D01*
X96331265Y-33334893D01*
X96321798Y-33317181D01*
X96315972Y-33297976D01*
X96313400Y-33271860D01*
X96313400Y-32768140D01*
X96315972Y-32742024D01*
X96321798Y-32722819D01*
X96331265Y-32705107D01*
X96343995Y-32689595D01*
X96359507Y-32676865D01*
X96377219Y-32667398D01*
X96396424Y-32661572D01*
X96422540Y-32659000D01*
X96866260Y-32659000D01*
X96892376Y-32661572D01*
G37*
G36*
X95932376Y-31289972D02*
G01*
X95951581Y-31295798D01*
X95969293Y-31305265D01*
X95984805Y-31317995D01*
X95997535Y-31333507D01*
X96007002Y-31351219D01*
X96012828Y-31370424D01*
X96015400Y-31396540D01*
X96015400Y-31900260D01*
X96012828Y-31926376D01*
X96007002Y-31945581D01*
X95997535Y-31963293D01*
X95984805Y-31978805D01*
X95969293Y-31991535D01*
X95951581Y-32001002D01*
X95932376Y-32006828D01*
X95906260Y-32009400D01*
X95462540Y-32009400D01*
X95436424Y-32006828D01*
X95417219Y-32001002D01*
X95399507Y-31991535D01*
X95383995Y-31978805D01*
X95371265Y-31963293D01*
X95361798Y-31945581D01*
X95355972Y-31926376D01*
X95353400Y-31900260D01*
X95353400Y-31396540D01*
X95355972Y-31370424D01*
X95361798Y-31351219D01*
X95371265Y-31333507D01*
X95383995Y-31317995D01*
X95399507Y-31305265D01*
X95417219Y-31295798D01*
X95436424Y-31289972D01*
X95462540Y-31287400D01*
X95906260Y-31287400D01*
X95932376Y-31289972D01*
G37*
G36*
X96892376Y-31289972D02*
G01*
X96911581Y-31295798D01*
X96929293Y-31305265D01*
X96944805Y-31317995D01*
X96957535Y-31333507D01*
X96967002Y-31351219D01*
X96972828Y-31370424D01*
X96975400Y-31396540D01*
X96975400Y-31900260D01*
X96972828Y-31926376D01*
X96967002Y-31945581D01*
X96957535Y-31963293D01*
X96944805Y-31978805D01*
X96929293Y-31991535D01*
X96911581Y-32001002D01*
X96892376Y-32006828D01*
X96866260Y-32009400D01*
X96422540Y-32009400D01*
X96396424Y-32006828D01*
X96377219Y-32001002D01*
X96359507Y-31991535D01*
X96343995Y-31978805D01*
X96331265Y-31963293D01*
X96321798Y-31945581D01*
X96315972Y-31926376D01*
X96313400Y-31900260D01*
X96313400Y-31396540D01*
X96315972Y-31370424D01*
X96321798Y-31351219D01*
X96331265Y-31333507D01*
X96343995Y-31317995D01*
X96359507Y-31305265D01*
X96377219Y-31295798D01*
X96396424Y-31289972D01*
X96422540Y-31287400D01*
X96866260Y-31287400D01*
X96892376Y-31289972D01*
G37*
G36*
X81753114Y-30581611D02*
G01*
X81852265Y-30611688D01*
X81943644Y-30660531D01*
X82023738Y-30726262D01*
X82089469Y-30806356D01*
X82138312Y-30897736D01*
X82168389Y-30996887D01*
X82176000Y-31074162D01*
X82176000Y-31425839D01*
X82168389Y-31503114D01*
X82138312Y-31602265D01*
X82089469Y-31693644D01*
X82023738Y-31773738D01*
X81943644Y-31839469D01*
X81852264Y-31888312D01*
X81753113Y-31918389D01*
X81650000Y-31928545D01*
X81546886Y-31918389D01*
X81447735Y-31888312D01*
X81356356Y-31839469D01*
X81276262Y-31773738D01*
X81210531Y-31693644D01*
X81161688Y-31602264D01*
X81131611Y-31503113D01*
X81124000Y-31425838D01*
X81124000Y-31074161D01*
X81131611Y-30996886D01*
X81159080Y-30906335D01*
X81161689Y-30897734D01*
X81210532Y-30806356D01*
X81276263Y-30726262D01*
X81356357Y-30660531D01*
X81447736Y-30611688D01*
X81546887Y-30581611D01*
X81650000Y-30571455D01*
X81753114Y-30581611D01*
G37*
G36*
X101054822Y-30344703D02*
G01*
X101100138Y-30358450D01*
X101168114Y-30379070D01*
X101272517Y-30434875D01*
X101341101Y-30491160D01*
X101665694Y-30815753D01*
X101721979Y-30884337D01*
X101777784Y-30988740D01*
X101792206Y-31036284D01*
X101812151Y-31102031D01*
X101823755Y-31219848D01*
X101812151Y-31337664D01*
X101808257Y-31350500D01*
X101777784Y-31450956D01*
X101721979Y-31555359D01*
X101646875Y-31646875D01*
X101555359Y-31721979D01*
X101450956Y-31777784D01*
X101382980Y-31798404D01*
X101337664Y-31812151D01*
X101219848Y-31823755D01*
X101102031Y-31812151D01*
X101045386Y-31794967D01*
X100988740Y-31777784D01*
X100884337Y-31721979D01*
X100815753Y-31665694D01*
X100491160Y-31341101D01*
X100434875Y-31272517D01*
X100379070Y-31168114D01*
X100356327Y-31093140D01*
X100344703Y-31054822D01*
X100333099Y-30937006D01*
X100344703Y-30819190D01*
X100358450Y-30773874D01*
X100379070Y-30705898D01*
X100434875Y-30601495D01*
X100509979Y-30509979D01*
X100601495Y-30434875D01*
X100705898Y-30379070D01*
X100773874Y-30358450D01*
X100819190Y-30344703D01*
X100937006Y-30333099D01*
X101054822Y-30344703D01*
G37*
G36*
X79377231Y-29761177D02*
G01*
X79470732Y-29789540D01*
X79545003Y-29829239D01*
X79556896Y-29835596D01*
X79575056Y-29850500D01*
X79632422Y-29897578D01*
X79668120Y-29941077D01*
X79694404Y-29973104D01*
X79694405Y-29973106D01*
X79740460Y-30059268D01*
X79755936Y-30110286D01*
X79765313Y-30132925D01*
X79776000Y-30148919D01*
X79776000Y-30219500D01*
X79776602Y-30231752D01*
X79778399Y-30250000D01*
X79776602Y-30268248D01*
X79776000Y-30280500D01*
X79776000Y-31501000D01*
X78124000Y-31501000D01*
X78124000Y-30280500D01*
X78123398Y-30268248D01*
X78121601Y-30250000D01*
X78123398Y-30231752D01*
X78124000Y-30219500D01*
X78124000Y-30148784D01*
X78128380Y-30143447D01*
X78139931Y-30121836D01*
X78144064Y-30110286D01*
X78159540Y-30059268D01*
X78205595Y-29973106D01*
X78205596Y-29973104D01*
X78231880Y-29941077D01*
X78267578Y-29897578D01*
X78324944Y-29850500D01*
X78343104Y-29835596D01*
X78354997Y-29829239D01*
X78429268Y-29789540D01*
X78522769Y-29761177D01*
X78595640Y-29754000D01*
X79304360Y-29754000D01*
X79377231Y-29761177D01*
G37*
G36*
X102327614Y-29071911D02*
G01*
X102372930Y-29085658D01*
X102440906Y-29106278D01*
X102545309Y-29162083D01*
X102613893Y-29218368D01*
X102938486Y-29542961D01*
X102994771Y-29611545D01*
X103050576Y-29715948D01*
X103062119Y-29754000D01*
X103084943Y-29829239D01*
X103096547Y-29947056D01*
X103084943Y-30064872D01*
X103076208Y-30093665D01*
X103050576Y-30178164D01*
X102994771Y-30282567D01*
X102919667Y-30374083D01*
X102828151Y-30449187D01*
X102723748Y-30504992D01*
X102655772Y-30525612D01*
X102610456Y-30539359D01*
X102492640Y-30550963D01*
X102374823Y-30539359D01*
X102318179Y-30522176D01*
X102261532Y-30504992D01*
X102157129Y-30449187D01*
X102088545Y-30392902D01*
X101763952Y-30068309D01*
X101707667Y-29999725D01*
X101651862Y-29895322D01*
X101631242Y-29827346D01*
X101617495Y-29782030D01*
X101605891Y-29664214D01*
X101617495Y-29546398D01*
X101631653Y-29499726D01*
X101651862Y-29433106D01*
X101707667Y-29328703D01*
X101782771Y-29237187D01*
X101874287Y-29162083D01*
X101978690Y-29106278D01*
X102046666Y-29085658D01*
X102091982Y-29071911D01*
X102209798Y-29060307D01*
X102327614Y-29071911D01*
G37*
G36*
X101041997Y-29441476D02*
G01*
X101060274Y-29447020D01*
X101077108Y-29456018D01*
X101091868Y-29468132D01*
X101103982Y-29482892D01*
X101112980Y-29499726D01*
X101118524Y-29518003D01*
X101121000Y-29543140D01*
X101121000Y-29976860D01*
X101118524Y-30001997D01*
X101112980Y-30020274D01*
X101103982Y-30037108D01*
X101091868Y-30051868D01*
X101077108Y-30063982D01*
X101060274Y-30072980D01*
X101041997Y-30078524D01*
X101016860Y-30081000D01*
X100483140Y-30081000D01*
X100458003Y-30078524D01*
X100439726Y-30072980D01*
X100422892Y-30063982D01*
X100408132Y-30051868D01*
X100396018Y-30037108D01*
X100387020Y-30020274D01*
X100381476Y-30001997D01*
X100379000Y-29976860D01*
X100379000Y-29543140D01*
X100381476Y-29518003D01*
X100387020Y-29499726D01*
X100396018Y-29482892D01*
X100408132Y-29468132D01*
X100422892Y-29456018D01*
X100439726Y-29447020D01*
X100458003Y-29441476D01*
X100483140Y-29439000D01*
X101016860Y-29439000D01*
X101041997Y-29441476D01*
G37*
G36*
X98148378Y-27347910D02*
G01*
X98186644Y-27359519D01*
X98221916Y-27378372D01*
X98257595Y-27407652D01*
X99092348Y-28242405D01*
X99121628Y-28278084D01*
X99140481Y-28313356D01*
X99152090Y-28351622D01*
X99156009Y-28391421D01*
X99152090Y-28431220D01*
X99140481Y-28469486D01*
X99121628Y-28504758D01*
X99092348Y-28540437D01*
X98540437Y-29092348D01*
X98504758Y-29121628D01*
X98469486Y-29140481D01*
X98431220Y-29152090D01*
X98391421Y-29156009D01*
X98351622Y-29152090D01*
X98313356Y-29140481D01*
X98278084Y-29121628D01*
X98242405Y-29092348D01*
X97407652Y-28257595D01*
X97378372Y-28221916D01*
X97359519Y-28186644D01*
X97347910Y-28148378D01*
X97343991Y-28108579D01*
X97347910Y-28068780D01*
X97359519Y-28030514D01*
X97378372Y-27995242D01*
X97407652Y-27959563D01*
X97959563Y-27407652D01*
X97995242Y-27378372D01*
X98030514Y-27359519D01*
X98068780Y-27347910D01*
X98108579Y-27343991D01*
X98148378Y-27347910D01*
G37*
G36*
X101041997Y-28421476D02*
G01*
X101060274Y-28427020D01*
X101077108Y-28436018D01*
X101091868Y-28448132D01*
X101103982Y-28462892D01*
X101112980Y-28479726D01*
X101118524Y-28498003D01*
X101121000Y-28523140D01*
X101121000Y-28956860D01*
X101118524Y-28981997D01*
X101112980Y-29000274D01*
X101103982Y-29017108D01*
X101091868Y-29031868D01*
X101077108Y-29043982D01*
X101060274Y-29052980D01*
X101041997Y-29058524D01*
X101016860Y-29061000D01*
X100483140Y-29061000D01*
X100458003Y-29058524D01*
X100439726Y-29052980D01*
X100422892Y-29043982D01*
X100408132Y-29031868D01*
X100396018Y-29017108D01*
X100387020Y-29000274D01*
X100381476Y-28981997D01*
X100379000Y-28956860D01*
X100379000Y-28523140D01*
X100381476Y-28498003D01*
X100387020Y-28479726D01*
X100396018Y-28462892D01*
X100408132Y-28448132D01*
X100422892Y-28436018D01*
X100439726Y-28427020D01*
X100458003Y-28421476D01*
X100483140Y-28419000D01*
X101016860Y-28419000D01*
X101041997Y-28421476D01*
G37*
G36*
X105525331Y-25518211D02*
G01*
X105853092Y-25653974D01*
X106148070Y-25851072D01*
X106398928Y-26101930D01*
X106596026Y-26396908D01*
X106731789Y-26724669D01*
X106801000Y-27072616D01*
X106801000Y-27427384D01*
X106731789Y-27775331D01*
X106596026Y-28103092D01*
X106398928Y-28398070D01*
X106148070Y-28648928D01*
X105853092Y-28846026D01*
X105525331Y-28981789D01*
X105177384Y-29051000D01*
X104822616Y-29051000D01*
X104474669Y-28981789D01*
X104146908Y-28846026D01*
X103851930Y-28648928D01*
X103601072Y-28398070D01*
X103403974Y-28103092D01*
X103268211Y-27775331D01*
X103199000Y-27427384D01*
X103199000Y-27072616D01*
X103268211Y-26724669D01*
X103403974Y-26396908D01*
X103601072Y-26101930D01*
X103851930Y-25851072D01*
X104146908Y-25653974D01*
X104474669Y-25518211D01*
X104822616Y-25449000D01*
X105177384Y-25449000D01*
X105525331Y-25518211D01*
G37*
G36*
X87420295Y-26550323D02*
G01*
X87427309Y-26552451D01*
X87441077Y-26559810D01*
X87463716Y-26569187D01*
X87487749Y-26573967D01*
X87512253Y-26573967D01*
X87536286Y-26569186D01*
X87558923Y-26559810D01*
X87572691Y-26552451D01*
X87579705Y-26550323D01*
X87593140Y-26549000D01*
X87906860Y-26549000D01*
X87920295Y-26550323D01*
X87927309Y-26552451D01*
X87941077Y-26559810D01*
X87963716Y-26569187D01*
X87987749Y-26573967D01*
X88012253Y-26573967D01*
X88036286Y-26569186D01*
X88058923Y-26559810D01*
X88072691Y-26552451D01*
X88079705Y-26550323D01*
X88093140Y-26549000D01*
X88406860Y-26549000D01*
X88420295Y-26550323D01*
X88427309Y-26552451D01*
X88441077Y-26559810D01*
X88463716Y-26569187D01*
X88487749Y-26573967D01*
X88512253Y-26573967D01*
X88536286Y-26569186D01*
X88558923Y-26559810D01*
X88572691Y-26552451D01*
X88579705Y-26550323D01*
X88593140Y-26549000D01*
X88906860Y-26549000D01*
X88920295Y-26550323D01*
X88927309Y-26552451D01*
X88941077Y-26559810D01*
X88963716Y-26569187D01*
X88987749Y-26573967D01*
X89012253Y-26573967D01*
X89036286Y-26569186D01*
X89058923Y-26559810D01*
X89072691Y-26552451D01*
X89079705Y-26550323D01*
X89093140Y-26549000D01*
X89406860Y-26549000D01*
X89420295Y-26550323D01*
X89427309Y-26552451D01*
X89441077Y-26559810D01*
X89463716Y-26569187D01*
X89487749Y-26573967D01*
X89512253Y-26573967D01*
X89536286Y-26569186D01*
X89558923Y-26559810D01*
X89572691Y-26552451D01*
X89579705Y-26550323D01*
X89593140Y-26549000D01*
X89906860Y-26549000D01*
X89920295Y-26550323D01*
X89927309Y-26552451D01*
X89941077Y-26559810D01*
X89963716Y-26569187D01*
X89987749Y-26573967D01*
X90012253Y-26573967D01*
X90036286Y-26569186D01*
X90058923Y-26559810D01*
X90072691Y-26552451D01*
X90079705Y-26550323D01*
X90093140Y-26549000D01*
X90406860Y-26549000D01*
X90420295Y-26550323D01*
X90427309Y-26552451D01*
X90441077Y-26559810D01*
X90463716Y-26569187D01*
X90487749Y-26573967D01*
X90512253Y-26573967D01*
X90536286Y-26569186D01*
X90558923Y-26559810D01*
X90572691Y-26552451D01*
X90579705Y-26550323D01*
X90593140Y-26549000D01*
X90906860Y-26549000D01*
X90920295Y-26550323D01*
X90927309Y-26552451D01*
X90941077Y-26559810D01*
X90963716Y-26569187D01*
X90987749Y-26573967D01*
X91012253Y-26573967D01*
X91036286Y-26569186D01*
X91058923Y-26559810D01*
X91072691Y-26552451D01*
X91079705Y-26550323D01*
X91093140Y-26549000D01*
X91406860Y-26549000D01*
X91420295Y-26550323D01*
X91427309Y-26552451D01*
X91441077Y-26559810D01*
X91463716Y-26569187D01*
X91487749Y-26573967D01*
X91512253Y-26573967D01*
X91536286Y-26569186D01*
X91558923Y-26559810D01*
X91572691Y-26552451D01*
X91579705Y-26550323D01*
X91593140Y-26549000D01*
X91906860Y-26549000D01*
X91920295Y-26550323D01*
X91927309Y-26552451D01*
X91941077Y-26559810D01*
X91963716Y-26569187D01*
X91987749Y-26573967D01*
X92012253Y-26573967D01*
X92036286Y-26569186D01*
X92058923Y-26559810D01*
X92072691Y-26552451D01*
X92079705Y-26550323D01*
X92093140Y-26549000D01*
X92406860Y-26549000D01*
X92420295Y-26550323D01*
X92427309Y-26552451D01*
X92441077Y-26559810D01*
X92463716Y-26569187D01*
X92487749Y-26573967D01*
X92512253Y-26573967D01*
X92536286Y-26569186D01*
X92558923Y-26559810D01*
X92572691Y-26552451D01*
X92579705Y-26550323D01*
X92593140Y-26549000D01*
X92906860Y-26549000D01*
X92920295Y-26550323D01*
X92927310Y-26552451D01*
X92933776Y-26555908D01*
X92939442Y-26560558D01*
X92944092Y-26566224D01*
X92947549Y-26572690D01*
X92949677Y-26579705D01*
X92951000Y-26593140D01*
X92951000Y-28081860D01*
X92949677Y-28095295D01*
X92947549Y-28102310D01*
X92944092Y-28108776D01*
X92939442Y-28114442D01*
X92933776Y-28119092D01*
X92927310Y-28122549D01*
X92920295Y-28124677D01*
X92906860Y-28126000D01*
X92593140Y-28126000D01*
X92579705Y-28124677D01*
X92572691Y-28122549D01*
X92558923Y-28115190D01*
X92536284Y-28105813D01*
X92512251Y-28101033D01*
X92487747Y-28101033D01*
X92463714Y-28105814D01*
X92441077Y-28115190D01*
X92427309Y-28122549D01*
X92420295Y-28124677D01*
X92406860Y-28126000D01*
X92093140Y-28126000D01*
X92079705Y-28124677D01*
X92072691Y-28122549D01*
X92058923Y-28115190D01*
X92036284Y-28105813D01*
X92012251Y-28101033D01*
X91987747Y-28101033D01*
X91963714Y-28105814D01*
X91941077Y-28115190D01*
X91927309Y-28122549D01*
X91920295Y-28124677D01*
X91906860Y-28126000D01*
X91593140Y-28126000D01*
X91579705Y-28124677D01*
X91572691Y-28122549D01*
X91558923Y-28115190D01*
X91536284Y-28105813D01*
X91512251Y-28101033D01*
X91487747Y-28101033D01*
X91463714Y-28105814D01*
X91441077Y-28115190D01*
X91427309Y-28122549D01*
X91420295Y-28124677D01*
X91406860Y-28126000D01*
X91093140Y-28126000D01*
X91079705Y-28124677D01*
X91072691Y-28122549D01*
X91058923Y-28115190D01*
X91036284Y-28105813D01*
X91012251Y-28101033D01*
X90987747Y-28101033D01*
X90963714Y-28105814D01*
X90941077Y-28115190D01*
X90927309Y-28122549D01*
X90920295Y-28124677D01*
X90906860Y-28126000D01*
X90593140Y-28126000D01*
X90579705Y-28124677D01*
X90572691Y-28122549D01*
X90558923Y-28115190D01*
X90536284Y-28105813D01*
X90512251Y-28101033D01*
X90487747Y-28101033D01*
X90463714Y-28105814D01*
X90441077Y-28115190D01*
X90427309Y-28122549D01*
X90420295Y-28124677D01*
X90406860Y-28126000D01*
X90093140Y-28126000D01*
X90079705Y-28124677D01*
X90072691Y-28122549D01*
X90058923Y-28115190D01*
X90036284Y-28105813D01*
X90012251Y-28101033D01*
X89987747Y-28101033D01*
X89963714Y-28105814D01*
X89941077Y-28115190D01*
X89927309Y-28122549D01*
X89920295Y-28124677D01*
X89906860Y-28126000D01*
X89593140Y-28126000D01*
X89579705Y-28124677D01*
X89572691Y-28122549D01*
X89558923Y-28115190D01*
X89536284Y-28105813D01*
X89512251Y-28101033D01*
X89487747Y-28101033D01*
X89463714Y-28105814D01*
X89441077Y-28115190D01*
X89427309Y-28122549D01*
X89420295Y-28124677D01*
X89406860Y-28126000D01*
X89093140Y-28126000D01*
X89079705Y-28124677D01*
X89072691Y-28122549D01*
X89058923Y-28115190D01*
X89036284Y-28105813D01*
X89012251Y-28101033D01*
X88987747Y-28101033D01*
X88963714Y-28105814D01*
X88941077Y-28115190D01*
X88927309Y-28122549D01*
X88920295Y-28124677D01*
X88906860Y-28126000D01*
X88593140Y-28126000D01*
X88579705Y-28124677D01*
X88572691Y-28122549D01*
X88558923Y-28115190D01*
X88536284Y-28105813D01*
X88512251Y-28101033D01*
X88487747Y-28101033D01*
X88463714Y-28105814D01*
X88441077Y-28115190D01*
X88427309Y-28122549D01*
X88420295Y-28124677D01*
X88406860Y-28126000D01*
X88093140Y-28126000D01*
X88079705Y-28124677D01*
X88072691Y-28122549D01*
X88058923Y-28115190D01*
X88036284Y-28105813D01*
X88012251Y-28101033D01*
X87987747Y-28101033D01*
X87963714Y-28105814D01*
X87941077Y-28115190D01*
X87927309Y-28122549D01*
X87920295Y-28124677D01*
X87906860Y-28126000D01*
X87593140Y-28126000D01*
X87579705Y-28124677D01*
X87572691Y-28122549D01*
X87558923Y-28115190D01*
X87536284Y-28105813D01*
X87512251Y-28101033D01*
X87487747Y-28101033D01*
X87463714Y-28105814D01*
X87441077Y-28115190D01*
X87427309Y-28122549D01*
X87420295Y-28124677D01*
X87406860Y-28126000D01*
X87093140Y-28126000D01*
X87079705Y-28124677D01*
X87072690Y-28122549D01*
X87066224Y-28119092D01*
X87060558Y-28114442D01*
X87055908Y-28108776D01*
X87052451Y-28102310D01*
X87050323Y-28095295D01*
X87049000Y-28081860D01*
X87049000Y-26593140D01*
X87050323Y-26579705D01*
X87052451Y-26572690D01*
X87055908Y-26566224D01*
X87060558Y-26560558D01*
X87066224Y-26555908D01*
X87072690Y-26552451D01*
X87079705Y-26550323D01*
X87093140Y-26549000D01*
X87406860Y-26549000D01*
X87420295Y-26550323D01*
G37*
G36*
X102251997Y-27131476D02*
G01*
X102270274Y-27137020D01*
X102287108Y-27146018D01*
X102301868Y-27158132D01*
X102313982Y-27172892D01*
X102322980Y-27189726D01*
X102328524Y-27208003D01*
X102331000Y-27233140D01*
X102331000Y-27766860D01*
X102328524Y-27791997D01*
X102322980Y-27810274D01*
X102313982Y-27827108D01*
X102301868Y-27841868D01*
X102287108Y-27853982D01*
X102270274Y-27862980D01*
X102251997Y-27868524D01*
X102226860Y-27871000D01*
X101793140Y-27871000D01*
X101768003Y-27868524D01*
X101749726Y-27862980D01*
X101732892Y-27853982D01*
X101718132Y-27841868D01*
X101706018Y-27827108D01*
X101697020Y-27810274D01*
X101691476Y-27791997D01*
X101689000Y-27766860D01*
X101689000Y-27233140D01*
X101691476Y-27208003D01*
X101697020Y-27189726D01*
X101706018Y-27172892D01*
X101718132Y-27158132D01*
X101732892Y-27146018D01*
X101749726Y-27137020D01*
X101768003Y-27131476D01*
X101793140Y-27129000D01*
X102226860Y-27129000D01*
X102251997Y-27131476D01*
G37*
G36*
X101231997Y-27131476D02*
G01*
X101250274Y-27137020D01*
X101267108Y-27146018D01*
X101281868Y-27158132D01*
X101293982Y-27172892D01*
X101302980Y-27189726D01*
X101308524Y-27208003D01*
X101311000Y-27233140D01*
X101311000Y-27766860D01*
X101308524Y-27791997D01*
X101302980Y-27810274D01*
X101293982Y-27827108D01*
X101281868Y-27841868D01*
X101267108Y-27853982D01*
X101250274Y-27862980D01*
X101231997Y-27868524D01*
X101206860Y-27871000D01*
X100773140Y-27871000D01*
X100748003Y-27868524D01*
X100729726Y-27862980D01*
X100712892Y-27853982D01*
X100698132Y-27841868D01*
X100686018Y-27827108D01*
X100677020Y-27810274D01*
X100671476Y-27791997D01*
X100669000Y-27766860D01*
X100669000Y-27233140D01*
X100671476Y-27208003D01*
X100677020Y-27189726D01*
X100686018Y-27172892D01*
X100698132Y-27158132D01*
X100712892Y-27146018D01*
X100729726Y-27137020D01*
X100748003Y-27131476D01*
X100773140Y-27129000D01*
X101206860Y-27129000D01*
X101231997Y-27131476D01*
G37*
G36*
X99499187Y-26243484D02*
G01*
X99544503Y-26257231D01*
X99612479Y-26277851D01*
X99716882Y-26333656D01*
X99785466Y-26389941D01*
X100110059Y-26714534D01*
X100166344Y-26783118D01*
X100222149Y-26887521D01*
X100239333Y-26944168D01*
X100256516Y-27000812D01*
X100268120Y-27118629D01*
X100256516Y-27236445D01*
X100249920Y-27258188D01*
X100222149Y-27349737D01*
X100166344Y-27454140D01*
X100091240Y-27545656D01*
X99999724Y-27620760D01*
X99895321Y-27676565D01*
X99827345Y-27697185D01*
X99782029Y-27710932D01*
X99664213Y-27722536D01*
X99546396Y-27710932D01*
X99489752Y-27693749D01*
X99433105Y-27676565D01*
X99328702Y-27620760D01*
X99260118Y-27564475D01*
X98935525Y-27239882D01*
X98879240Y-27171298D01*
X98823435Y-27066895D01*
X98802815Y-26998919D01*
X98789068Y-26953603D01*
X98777464Y-26835787D01*
X98789068Y-26717971D01*
X98809839Y-26649500D01*
X98823435Y-26604679D01*
X98879240Y-26500276D01*
X98954344Y-26408760D01*
X99045860Y-26333656D01*
X99150263Y-26277851D01*
X99218239Y-26257231D01*
X99263555Y-26243484D01*
X99381371Y-26231880D01*
X99499187Y-26243484D01*
G37*
G36*
X85751000Y-27601000D02*
G01*
X84549000Y-27601000D01*
X84549000Y-26399000D01*
X85751000Y-26399000D01*
X85751000Y-27601000D01*
G37*
G36*
X82951000Y-27601000D02*
G01*
X81749000Y-27601000D01*
X81749000Y-26399000D01*
X82951000Y-26399000D01*
X82951000Y-27601000D01*
G37*
M02*
