G04 #@! TF.GenerationSoftware,KiCad,Pcbnew,5.1.5+dfsg1-2build2*
G04 #@! TF.CreationDate,2021-12-26T17:25:33+01:00*
G04 #@! TF.ProjectId,combined,636f6d62-696e-4656-942e-6b696361645f,rev?*
G04 #@! TF.SameCoordinates,Original*
G04 #@! TF.FileFunction,Paste,Top*
G04 #@! TF.FilePolarity,Positive*
%FSLAX46Y46*%
G04 Gerber Fmt 4.6, Leading zero omitted, Abs format (unit mm)*
G04 Created by KiCad (PCBNEW 5.1.5+dfsg1-2build2) date 2021-12-26 17:25:33*
%MOMM*%
%LPD*%
G04 APERTURE LIST*
%ADD10C,0.100000*%
%ADD11R,1.750000X0.450000*%
%ADD12O,0.950000X1.250000*%
%ADD13R,1.550000X1.200000*%
%ADD14O,1.550000X0.890000*%
%ADD15R,1.550000X1.500000*%
%ADD16R,1.350000X0.400000*%
%ADD17R,1.100000X1.100000*%
G04 APERTURE END LIST*
D10*
G36*
X84295304Y-37182004D02*
G01*
X84319573Y-37185604D01*
X84343371Y-37191565D01*
X84366471Y-37199830D01*
X84388649Y-37210320D01*
X84409693Y-37222933D01*
X84429398Y-37237547D01*
X84447577Y-37254023D01*
X84464053Y-37272202D01*
X84478667Y-37291907D01*
X84491280Y-37312951D01*
X84501770Y-37335129D01*
X84510035Y-37358229D01*
X84515996Y-37382027D01*
X84519596Y-37406296D01*
X84520800Y-37430800D01*
X84520800Y-38255800D01*
X84519596Y-38280304D01*
X84515996Y-38304573D01*
X84510035Y-38328371D01*
X84501770Y-38351471D01*
X84491280Y-38373649D01*
X84478667Y-38394693D01*
X84464053Y-38414398D01*
X84447577Y-38432577D01*
X84429398Y-38449053D01*
X84409693Y-38463667D01*
X84388649Y-38476280D01*
X84366471Y-38486770D01*
X84343371Y-38495035D01*
X84319573Y-38500996D01*
X84295304Y-38504596D01*
X84270800Y-38505800D01*
X83470800Y-38505800D01*
X83446296Y-38504596D01*
X83422027Y-38500996D01*
X83398229Y-38495035D01*
X83375129Y-38486770D01*
X83352951Y-38476280D01*
X83331907Y-38463667D01*
X83312202Y-38449053D01*
X83294023Y-38432577D01*
X83277547Y-38414398D01*
X83262933Y-38394693D01*
X83250320Y-38373649D01*
X83239830Y-38351471D01*
X83231565Y-38328371D01*
X83225604Y-38304573D01*
X83222004Y-38280304D01*
X83220800Y-38255800D01*
X83220800Y-37430800D01*
X83222004Y-37406296D01*
X83225604Y-37382027D01*
X83231565Y-37358229D01*
X83239830Y-37335129D01*
X83250320Y-37312951D01*
X83262933Y-37291907D01*
X83277547Y-37272202D01*
X83294023Y-37254023D01*
X83312202Y-37237547D01*
X83331907Y-37222933D01*
X83352951Y-37210320D01*
X83375129Y-37199830D01*
X83398229Y-37191565D01*
X83422027Y-37185604D01*
X83446296Y-37182004D01*
X83470800Y-37180800D01*
X84270800Y-37180800D01*
X84295304Y-37182004D01*
G37*
G36*
X84295304Y-35257004D02*
G01*
X84319573Y-35260604D01*
X84343371Y-35266565D01*
X84366471Y-35274830D01*
X84388649Y-35285320D01*
X84409693Y-35297933D01*
X84429398Y-35312547D01*
X84447577Y-35329023D01*
X84464053Y-35347202D01*
X84478667Y-35366907D01*
X84491280Y-35387951D01*
X84501770Y-35410129D01*
X84510035Y-35433229D01*
X84515996Y-35457027D01*
X84519596Y-35481296D01*
X84520800Y-35505800D01*
X84520800Y-36330800D01*
X84519596Y-36355304D01*
X84515996Y-36379573D01*
X84510035Y-36403371D01*
X84501770Y-36426471D01*
X84491280Y-36448649D01*
X84478667Y-36469693D01*
X84464053Y-36489398D01*
X84447577Y-36507577D01*
X84429398Y-36524053D01*
X84409693Y-36538667D01*
X84388649Y-36551280D01*
X84366471Y-36561770D01*
X84343371Y-36570035D01*
X84319573Y-36575996D01*
X84295304Y-36579596D01*
X84270800Y-36580800D01*
X83470800Y-36580800D01*
X83446296Y-36579596D01*
X83422027Y-36575996D01*
X83398229Y-36570035D01*
X83375129Y-36561770D01*
X83352951Y-36551280D01*
X83331907Y-36538667D01*
X83312202Y-36524053D01*
X83294023Y-36507577D01*
X83277547Y-36489398D01*
X83262933Y-36469693D01*
X83250320Y-36448649D01*
X83239830Y-36426471D01*
X83231565Y-36403371D01*
X83225604Y-36379573D01*
X83222004Y-36355304D01*
X83220800Y-36330800D01*
X83220800Y-35505800D01*
X83222004Y-35481296D01*
X83225604Y-35457027D01*
X83231565Y-35433229D01*
X83239830Y-35410129D01*
X83250320Y-35387951D01*
X83262933Y-35366907D01*
X83277547Y-35347202D01*
X83294023Y-35329023D01*
X83312202Y-35312547D01*
X83331907Y-35297933D01*
X83352951Y-35285320D01*
X83375129Y-35274830D01*
X83398229Y-35266565D01*
X83422027Y-35260604D01*
X83446296Y-35257004D01*
X83470800Y-35255800D01*
X84270800Y-35255800D01*
X84295304Y-35257004D01*
G37*
G36*
X85591832Y-37933050D02*
G01*
X85604937Y-37934994D01*
X85617788Y-37938213D01*
X85630262Y-37942676D01*
X85642239Y-37948341D01*
X85653602Y-37955152D01*
X85664243Y-37963044D01*
X85674059Y-37971941D01*
X85682956Y-37981757D01*
X85690848Y-37992398D01*
X85697659Y-38003761D01*
X85703324Y-38015738D01*
X85707787Y-38028212D01*
X85711006Y-38041063D01*
X85712950Y-38054168D01*
X85713600Y-38067400D01*
X85713600Y-38437400D01*
X85712950Y-38450632D01*
X85711006Y-38463737D01*
X85707787Y-38476588D01*
X85703324Y-38489062D01*
X85697659Y-38501039D01*
X85690848Y-38512402D01*
X85682956Y-38523043D01*
X85674059Y-38532859D01*
X85664243Y-38541756D01*
X85653602Y-38549648D01*
X85642239Y-38556459D01*
X85630262Y-38562124D01*
X85617788Y-38566587D01*
X85604937Y-38569806D01*
X85591832Y-38571750D01*
X85578600Y-38572400D01*
X85308600Y-38572400D01*
X85295368Y-38571750D01*
X85282263Y-38569806D01*
X85269412Y-38566587D01*
X85256938Y-38562124D01*
X85244961Y-38556459D01*
X85233598Y-38549648D01*
X85222957Y-38541756D01*
X85213141Y-38532859D01*
X85204244Y-38523043D01*
X85196352Y-38512402D01*
X85189541Y-38501039D01*
X85183876Y-38489062D01*
X85179413Y-38476588D01*
X85176194Y-38463737D01*
X85174250Y-38450632D01*
X85173600Y-38437400D01*
X85173600Y-38067400D01*
X85174250Y-38054168D01*
X85176194Y-38041063D01*
X85179413Y-38028212D01*
X85183876Y-38015738D01*
X85189541Y-38003761D01*
X85196352Y-37992398D01*
X85204244Y-37981757D01*
X85213141Y-37971941D01*
X85222957Y-37963044D01*
X85233598Y-37955152D01*
X85244961Y-37948341D01*
X85256938Y-37942676D01*
X85269412Y-37938213D01*
X85282263Y-37934994D01*
X85295368Y-37933050D01*
X85308600Y-37932400D01*
X85578600Y-37932400D01*
X85591832Y-37933050D01*
G37*
G36*
X86611832Y-37933050D02*
G01*
X86624937Y-37934994D01*
X86637788Y-37938213D01*
X86650262Y-37942676D01*
X86662239Y-37948341D01*
X86673602Y-37955152D01*
X86684243Y-37963044D01*
X86694059Y-37971941D01*
X86702956Y-37981757D01*
X86710848Y-37992398D01*
X86717659Y-38003761D01*
X86723324Y-38015738D01*
X86727787Y-38028212D01*
X86731006Y-38041063D01*
X86732950Y-38054168D01*
X86733600Y-38067400D01*
X86733600Y-38437400D01*
X86732950Y-38450632D01*
X86731006Y-38463737D01*
X86727787Y-38476588D01*
X86723324Y-38489062D01*
X86717659Y-38501039D01*
X86710848Y-38512402D01*
X86702956Y-38523043D01*
X86694059Y-38532859D01*
X86684243Y-38541756D01*
X86673602Y-38549648D01*
X86662239Y-38556459D01*
X86650262Y-38562124D01*
X86637788Y-38566587D01*
X86624937Y-38569806D01*
X86611832Y-38571750D01*
X86598600Y-38572400D01*
X86328600Y-38572400D01*
X86315368Y-38571750D01*
X86302263Y-38569806D01*
X86289412Y-38566587D01*
X86276938Y-38562124D01*
X86264961Y-38556459D01*
X86253598Y-38549648D01*
X86242957Y-38541756D01*
X86233141Y-38532859D01*
X86224244Y-38523043D01*
X86216352Y-38512402D01*
X86209541Y-38501039D01*
X86203876Y-38489062D01*
X86199413Y-38476588D01*
X86196194Y-38463737D01*
X86194250Y-38450632D01*
X86193600Y-38437400D01*
X86193600Y-38067400D01*
X86194250Y-38054168D01*
X86196194Y-38041063D01*
X86199413Y-38028212D01*
X86203876Y-38015738D01*
X86209541Y-38003761D01*
X86216352Y-37992398D01*
X86224244Y-37981757D01*
X86233141Y-37971941D01*
X86242957Y-37963044D01*
X86253598Y-37955152D01*
X86264961Y-37948341D01*
X86276938Y-37942676D01*
X86289412Y-37938213D01*
X86302263Y-37934994D01*
X86315368Y-37933050D01*
X86328600Y-37932400D01*
X86598600Y-37932400D01*
X86611832Y-37933050D01*
G37*
G36*
X93664703Y-37313222D02*
G01*
X93679264Y-37315382D01*
X93693543Y-37318959D01*
X93707403Y-37323918D01*
X93720710Y-37330212D01*
X93733336Y-37337780D01*
X93745159Y-37346548D01*
X93756066Y-37356434D01*
X93765952Y-37367341D01*
X93774720Y-37379164D01*
X93782288Y-37391790D01*
X93788582Y-37405097D01*
X93793541Y-37418957D01*
X93797118Y-37433236D01*
X93799278Y-37447797D01*
X93800000Y-37462500D01*
X93800000Y-38487500D01*
X93799278Y-38502203D01*
X93797118Y-38516764D01*
X93793541Y-38531043D01*
X93788582Y-38544903D01*
X93782288Y-38558210D01*
X93774720Y-38570836D01*
X93765952Y-38582659D01*
X93756066Y-38593566D01*
X93745159Y-38603452D01*
X93733336Y-38612220D01*
X93720710Y-38619788D01*
X93707403Y-38626082D01*
X93693543Y-38631041D01*
X93679264Y-38634618D01*
X93664703Y-38636778D01*
X93650000Y-38637500D01*
X93350000Y-38637500D01*
X93335297Y-38636778D01*
X93320736Y-38634618D01*
X93306457Y-38631041D01*
X93292597Y-38626082D01*
X93279290Y-38619788D01*
X93266664Y-38612220D01*
X93254841Y-38603452D01*
X93243934Y-38593566D01*
X93234048Y-38582659D01*
X93225280Y-38570836D01*
X93217712Y-38558210D01*
X93211418Y-38544903D01*
X93206459Y-38531043D01*
X93202882Y-38516764D01*
X93200722Y-38502203D01*
X93200000Y-38487500D01*
X93200000Y-37462500D01*
X93200722Y-37447797D01*
X93202882Y-37433236D01*
X93206459Y-37418957D01*
X93211418Y-37405097D01*
X93217712Y-37391790D01*
X93225280Y-37379164D01*
X93234048Y-37367341D01*
X93243934Y-37356434D01*
X93254841Y-37346548D01*
X93266664Y-37337780D01*
X93279290Y-37330212D01*
X93292597Y-37323918D01*
X93306457Y-37318959D01*
X93320736Y-37315382D01*
X93335297Y-37313222D01*
X93350000Y-37312500D01*
X93650000Y-37312500D01*
X93664703Y-37313222D01*
G37*
G36*
X95564703Y-37313222D02*
G01*
X95579264Y-37315382D01*
X95593543Y-37318959D01*
X95607403Y-37323918D01*
X95620710Y-37330212D01*
X95633336Y-37337780D01*
X95645159Y-37346548D01*
X95656066Y-37356434D01*
X95665952Y-37367341D01*
X95674720Y-37379164D01*
X95682288Y-37391790D01*
X95688582Y-37405097D01*
X95693541Y-37418957D01*
X95697118Y-37433236D01*
X95699278Y-37447797D01*
X95700000Y-37462500D01*
X95700000Y-38487500D01*
X95699278Y-38502203D01*
X95697118Y-38516764D01*
X95693541Y-38531043D01*
X95688582Y-38544903D01*
X95682288Y-38558210D01*
X95674720Y-38570836D01*
X95665952Y-38582659D01*
X95656066Y-38593566D01*
X95645159Y-38603452D01*
X95633336Y-38612220D01*
X95620710Y-38619788D01*
X95607403Y-38626082D01*
X95593543Y-38631041D01*
X95579264Y-38634618D01*
X95564703Y-38636778D01*
X95550000Y-38637500D01*
X95250000Y-38637500D01*
X95235297Y-38636778D01*
X95220736Y-38634618D01*
X95206457Y-38631041D01*
X95192597Y-38626082D01*
X95179290Y-38619788D01*
X95166664Y-38612220D01*
X95154841Y-38603452D01*
X95143934Y-38593566D01*
X95134048Y-38582659D01*
X95125280Y-38570836D01*
X95117712Y-38558210D01*
X95111418Y-38544903D01*
X95106459Y-38531043D01*
X95102882Y-38516764D01*
X95100722Y-38502203D01*
X95100000Y-38487500D01*
X95100000Y-37462500D01*
X95100722Y-37447797D01*
X95102882Y-37433236D01*
X95106459Y-37418957D01*
X95111418Y-37405097D01*
X95117712Y-37391790D01*
X95125280Y-37379164D01*
X95134048Y-37367341D01*
X95143934Y-37356434D01*
X95154841Y-37346548D01*
X95166664Y-37337780D01*
X95179290Y-37330212D01*
X95192597Y-37323918D01*
X95206457Y-37318959D01*
X95220736Y-37315382D01*
X95235297Y-37313222D01*
X95250000Y-37312500D01*
X95550000Y-37312500D01*
X95564703Y-37313222D01*
G37*
G36*
X95564703Y-39588222D02*
G01*
X95579264Y-39590382D01*
X95593543Y-39593959D01*
X95607403Y-39598918D01*
X95620710Y-39605212D01*
X95633336Y-39612780D01*
X95645159Y-39621548D01*
X95656066Y-39631434D01*
X95665952Y-39642341D01*
X95674720Y-39654164D01*
X95682288Y-39666790D01*
X95688582Y-39680097D01*
X95693541Y-39693957D01*
X95697118Y-39708236D01*
X95699278Y-39722797D01*
X95700000Y-39737500D01*
X95700000Y-40762500D01*
X95699278Y-40777203D01*
X95697118Y-40791764D01*
X95693541Y-40806043D01*
X95688582Y-40819903D01*
X95682288Y-40833210D01*
X95674720Y-40845836D01*
X95665952Y-40857659D01*
X95656066Y-40868566D01*
X95645159Y-40878452D01*
X95633336Y-40887220D01*
X95620710Y-40894788D01*
X95607403Y-40901082D01*
X95593543Y-40906041D01*
X95579264Y-40909618D01*
X95564703Y-40911778D01*
X95550000Y-40912500D01*
X95250000Y-40912500D01*
X95235297Y-40911778D01*
X95220736Y-40909618D01*
X95206457Y-40906041D01*
X95192597Y-40901082D01*
X95179290Y-40894788D01*
X95166664Y-40887220D01*
X95154841Y-40878452D01*
X95143934Y-40868566D01*
X95134048Y-40857659D01*
X95125280Y-40845836D01*
X95117712Y-40833210D01*
X95111418Y-40819903D01*
X95106459Y-40806043D01*
X95102882Y-40791764D01*
X95100722Y-40777203D01*
X95100000Y-40762500D01*
X95100000Y-39737500D01*
X95100722Y-39722797D01*
X95102882Y-39708236D01*
X95106459Y-39693957D01*
X95111418Y-39680097D01*
X95117712Y-39666790D01*
X95125280Y-39654164D01*
X95134048Y-39642341D01*
X95143934Y-39631434D01*
X95154841Y-39621548D01*
X95166664Y-39612780D01*
X95179290Y-39605212D01*
X95192597Y-39598918D01*
X95206457Y-39593959D01*
X95220736Y-39590382D01*
X95235297Y-39588222D01*
X95250000Y-39587500D01*
X95550000Y-39587500D01*
X95564703Y-39588222D01*
G37*
G36*
X94614703Y-39588222D02*
G01*
X94629264Y-39590382D01*
X94643543Y-39593959D01*
X94657403Y-39598918D01*
X94670710Y-39605212D01*
X94683336Y-39612780D01*
X94695159Y-39621548D01*
X94706066Y-39631434D01*
X94715952Y-39642341D01*
X94724720Y-39654164D01*
X94732288Y-39666790D01*
X94738582Y-39680097D01*
X94743541Y-39693957D01*
X94747118Y-39708236D01*
X94749278Y-39722797D01*
X94750000Y-39737500D01*
X94750000Y-40762500D01*
X94749278Y-40777203D01*
X94747118Y-40791764D01*
X94743541Y-40806043D01*
X94738582Y-40819903D01*
X94732288Y-40833210D01*
X94724720Y-40845836D01*
X94715952Y-40857659D01*
X94706066Y-40868566D01*
X94695159Y-40878452D01*
X94683336Y-40887220D01*
X94670710Y-40894788D01*
X94657403Y-40901082D01*
X94643543Y-40906041D01*
X94629264Y-40909618D01*
X94614703Y-40911778D01*
X94600000Y-40912500D01*
X94300000Y-40912500D01*
X94285297Y-40911778D01*
X94270736Y-40909618D01*
X94256457Y-40906041D01*
X94242597Y-40901082D01*
X94229290Y-40894788D01*
X94216664Y-40887220D01*
X94204841Y-40878452D01*
X94193934Y-40868566D01*
X94184048Y-40857659D01*
X94175280Y-40845836D01*
X94167712Y-40833210D01*
X94161418Y-40819903D01*
X94156459Y-40806043D01*
X94152882Y-40791764D01*
X94150722Y-40777203D01*
X94150000Y-40762500D01*
X94150000Y-39737500D01*
X94150722Y-39722797D01*
X94152882Y-39708236D01*
X94156459Y-39693957D01*
X94161418Y-39680097D01*
X94167712Y-39666790D01*
X94175280Y-39654164D01*
X94184048Y-39642341D01*
X94193934Y-39631434D01*
X94204841Y-39621548D01*
X94216664Y-39612780D01*
X94229290Y-39605212D01*
X94242597Y-39598918D01*
X94256457Y-39593959D01*
X94270736Y-39590382D01*
X94285297Y-39588222D01*
X94300000Y-39587500D01*
X94600000Y-39587500D01*
X94614703Y-39588222D01*
G37*
G36*
X93664703Y-39588222D02*
G01*
X93679264Y-39590382D01*
X93693543Y-39593959D01*
X93707403Y-39598918D01*
X93720710Y-39605212D01*
X93733336Y-39612780D01*
X93745159Y-39621548D01*
X93756066Y-39631434D01*
X93765952Y-39642341D01*
X93774720Y-39654164D01*
X93782288Y-39666790D01*
X93788582Y-39680097D01*
X93793541Y-39693957D01*
X93797118Y-39708236D01*
X93799278Y-39722797D01*
X93800000Y-39737500D01*
X93800000Y-40762500D01*
X93799278Y-40777203D01*
X93797118Y-40791764D01*
X93793541Y-40806043D01*
X93788582Y-40819903D01*
X93782288Y-40833210D01*
X93774720Y-40845836D01*
X93765952Y-40857659D01*
X93756066Y-40868566D01*
X93745159Y-40878452D01*
X93733336Y-40887220D01*
X93720710Y-40894788D01*
X93707403Y-40901082D01*
X93693543Y-40906041D01*
X93679264Y-40909618D01*
X93664703Y-40911778D01*
X93650000Y-40912500D01*
X93350000Y-40912500D01*
X93335297Y-40911778D01*
X93320736Y-40909618D01*
X93306457Y-40906041D01*
X93292597Y-40901082D01*
X93279290Y-40894788D01*
X93266664Y-40887220D01*
X93254841Y-40878452D01*
X93243934Y-40868566D01*
X93234048Y-40857659D01*
X93225280Y-40845836D01*
X93217712Y-40833210D01*
X93211418Y-40819903D01*
X93206459Y-40806043D01*
X93202882Y-40791764D01*
X93200722Y-40777203D01*
X93200000Y-40762500D01*
X93200000Y-39737500D01*
X93200722Y-39722797D01*
X93202882Y-39708236D01*
X93206459Y-39693957D01*
X93211418Y-39680097D01*
X93217712Y-39666790D01*
X93225280Y-39654164D01*
X93234048Y-39642341D01*
X93243934Y-39631434D01*
X93254841Y-39621548D01*
X93266664Y-39612780D01*
X93279290Y-39605212D01*
X93292597Y-39598918D01*
X93306457Y-39593959D01*
X93320736Y-39590382D01*
X93335297Y-39588222D01*
X93350000Y-39587500D01*
X93650000Y-39587500D01*
X93664703Y-39588222D01*
G37*
D11*
X104400000Y-37325000D03*
X104400000Y-36675000D03*
X104400000Y-36025000D03*
X104400000Y-35375000D03*
X104400000Y-34725000D03*
X104400000Y-34075000D03*
X104400000Y-33425000D03*
X104400000Y-32775000D03*
X104400000Y-32125000D03*
X104400000Y-31475000D03*
X104400000Y-30825000D03*
X104400000Y-30175000D03*
X111600000Y-30175000D03*
X111600000Y-30825000D03*
X111600000Y-31475000D03*
X111600000Y-32125000D03*
X111600000Y-32775000D03*
X111600000Y-33425000D03*
X111600000Y-34075000D03*
X111600000Y-34725000D03*
X111600000Y-35375000D03*
X111600000Y-36025000D03*
X111600000Y-36675000D03*
X111600000Y-37325000D03*
D10*
G36*
X92832351Y-34925361D02*
G01*
X92839632Y-34926441D01*
X92846771Y-34928229D01*
X92853701Y-34930709D01*
X92860355Y-34933856D01*
X92866668Y-34937640D01*
X92872579Y-34942024D01*
X92878033Y-34946967D01*
X92882976Y-34952421D01*
X92887360Y-34958332D01*
X92891144Y-34964645D01*
X92894291Y-34971299D01*
X92896771Y-34978229D01*
X92898559Y-34985368D01*
X92899639Y-34992649D01*
X92900000Y-35000000D01*
X92900000Y-36325000D01*
X92899639Y-36332351D01*
X92898559Y-36339632D01*
X92896771Y-36346771D01*
X92894291Y-36353701D01*
X92891144Y-36360355D01*
X92887360Y-36366668D01*
X92882976Y-36372579D01*
X92878033Y-36378033D01*
X92872579Y-36382976D01*
X92866668Y-36387360D01*
X92860355Y-36391144D01*
X92853701Y-36394291D01*
X92846771Y-36396771D01*
X92839632Y-36398559D01*
X92832351Y-36399639D01*
X92825000Y-36400000D01*
X92675000Y-36400000D01*
X92667649Y-36399639D01*
X92660368Y-36398559D01*
X92653229Y-36396771D01*
X92646299Y-36394291D01*
X92639645Y-36391144D01*
X92633332Y-36387360D01*
X92627421Y-36382976D01*
X92621967Y-36378033D01*
X92617024Y-36372579D01*
X92612640Y-36366668D01*
X92608856Y-36360355D01*
X92605709Y-36353701D01*
X92603229Y-36346771D01*
X92601441Y-36339632D01*
X92600361Y-36332351D01*
X92600000Y-36325000D01*
X92600000Y-35000000D01*
X92600361Y-34992649D01*
X92601441Y-34985368D01*
X92603229Y-34978229D01*
X92605709Y-34971299D01*
X92608856Y-34964645D01*
X92612640Y-34958332D01*
X92617024Y-34952421D01*
X92621967Y-34946967D01*
X92627421Y-34942024D01*
X92633332Y-34937640D01*
X92639645Y-34933856D01*
X92646299Y-34930709D01*
X92653229Y-34928229D01*
X92660368Y-34926441D01*
X92667649Y-34925361D01*
X92675000Y-34925000D01*
X92825000Y-34925000D01*
X92832351Y-34925361D01*
G37*
G36*
X92332351Y-34925361D02*
G01*
X92339632Y-34926441D01*
X92346771Y-34928229D01*
X92353701Y-34930709D01*
X92360355Y-34933856D01*
X92366668Y-34937640D01*
X92372579Y-34942024D01*
X92378033Y-34946967D01*
X92382976Y-34952421D01*
X92387360Y-34958332D01*
X92391144Y-34964645D01*
X92394291Y-34971299D01*
X92396771Y-34978229D01*
X92398559Y-34985368D01*
X92399639Y-34992649D01*
X92400000Y-35000000D01*
X92400000Y-36325000D01*
X92399639Y-36332351D01*
X92398559Y-36339632D01*
X92396771Y-36346771D01*
X92394291Y-36353701D01*
X92391144Y-36360355D01*
X92387360Y-36366668D01*
X92382976Y-36372579D01*
X92378033Y-36378033D01*
X92372579Y-36382976D01*
X92366668Y-36387360D01*
X92360355Y-36391144D01*
X92353701Y-36394291D01*
X92346771Y-36396771D01*
X92339632Y-36398559D01*
X92332351Y-36399639D01*
X92325000Y-36400000D01*
X92175000Y-36400000D01*
X92167649Y-36399639D01*
X92160368Y-36398559D01*
X92153229Y-36396771D01*
X92146299Y-36394291D01*
X92139645Y-36391144D01*
X92133332Y-36387360D01*
X92127421Y-36382976D01*
X92121967Y-36378033D01*
X92117024Y-36372579D01*
X92112640Y-36366668D01*
X92108856Y-36360355D01*
X92105709Y-36353701D01*
X92103229Y-36346771D01*
X92101441Y-36339632D01*
X92100361Y-36332351D01*
X92100000Y-36325000D01*
X92100000Y-35000000D01*
X92100361Y-34992649D01*
X92101441Y-34985368D01*
X92103229Y-34978229D01*
X92105709Y-34971299D01*
X92108856Y-34964645D01*
X92112640Y-34958332D01*
X92117024Y-34952421D01*
X92121967Y-34946967D01*
X92127421Y-34942024D01*
X92133332Y-34937640D01*
X92139645Y-34933856D01*
X92146299Y-34930709D01*
X92153229Y-34928229D01*
X92160368Y-34926441D01*
X92167649Y-34925361D01*
X92175000Y-34925000D01*
X92325000Y-34925000D01*
X92332351Y-34925361D01*
G37*
G36*
X91832351Y-34925361D02*
G01*
X91839632Y-34926441D01*
X91846771Y-34928229D01*
X91853701Y-34930709D01*
X91860355Y-34933856D01*
X91866668Y-34937640D01*
X91872579Y-34942024D01*
X91878033Y-34946967D01*
X91882976Y-34952421D01*
X91887360Y-34958332D01*
X91891144Y-34964645D01*
X91894291Y-34971299D01*
X91896771Y-34978229D01*
X91898559Y-34985368D01*
X91899639Y-34992649D01*
X91900000Y-35000000D01*
X91900000Y-36325000D01*
X91899639Y-36332351D01*
X91898559Y-36339632D01*
X91896771Y-36346771D01*
X91894291Y-36353701D01*
X91891144Y-36360355D01*
X91887360Y-36366668D01*
X91882976Y-36372579D01*
X91878033Y-36378033D01*
X91872579Y-36382976D01*
X91866668Y-36387360D01*
X91860355Y-36391144D01*
X91853701Y-36394291D01*
X91846771Y-36396771D01*
X91839632Y-36398559D01*
X91832351Y-36399639D01*
X91825000Y-36400000D01*
X91675000Y-36400000D01*
X91667649Y-36399639D01*
X91660368Y-36398559D01*
X91653229Y-36396771D01*
X91646299Y-36394291D01*
X91639645Y-36391144D01*
X91633332Y-36387360D01*
X91627421Y-36382976D01*
X91621967Y-36378033D01*
X91617024Y-36372579D01*
X91612640Y-36366668D01*
X91608856Y-36360355D01*
X91605709Y-36353701D01*
X91603229Y-36346771D01*
X91601441Y-36339632D01*
X91600361Y-36332351D01*
X91600000Y-36325000D01*
X91600000Y-35000000D01*
X91600361Y-34992649D01*
X91601441Y-34985368D01*
X91603229Y-34978229D01*
X91605709Y-34971299D01*
X91608856Y-34964645D01*
X91612640Y-34958332D01*
X91617024Y-34952421D01*
X91621967Y-34946967D01*
X91627421Y-34942024D01*
X91633332Y-34937640D01*
X91639645Y-34933856D01*
X91646299Y-34930709D01*
X91653229Y-34928229D01*
X91660368Y-34926441D01*
X91667649Y-34925361D01*
X91675000Y-34925000D01*
X91825000Y-34925000D01*
X91832351Y-34925361D01*
G37*
G36*
X91332351Y-34925361D02*
G01*
X91339632Y-34926441D01*
X91346771Y-34928229D01*
X91353701Y-34930709D01*
X91360355Y-34933856D01*
X91366668Y-34937640D01*
X91372579Y-34942024D01*
X91378033Y-34946967D01*
X91382976Y-34952421D01*
X91387360Y-34958332D01*
X91391144Y-34964645D01*
X91394291Y-34971299D01*
X91396771Y-34978229D01*
X91398559Y-34985368D01*
X91399639Y-34992649D01*
X91400000Y-35000000D01*
X91400000Y-36325000D01*
X91399639Y-36332351D01*
X91398559Y-36339632D01*
X91396771Y-36346771D01*
X91394291Y-36353701D01*
X91391144Y-36360355D01*
X91387360Y-36366668D01*
X91382976Y-36372579D01*
X91378033Y-36378033D01*
X91372579Y-36382976D01*
X91366668Y-36387360D01*
X91360355Y-36391144D01*
X91353701Y-36394291D01*
X91346771Y-36396771D01*
X91339632Y-36398559D01*
X91332351Y-36399639D01*
X91325000Y-36400000D01*
X91175000Y-36400000D01*
X91167649Y-36399639D01*
X91160368Y-36398559D01*
X91153229Y-36396771D01*
X91146299Y-36394291D01*
X91139645Y-36391144D01*
X91133332Y-36387360D01*
X91127421Y-36382976D01*
X91121967Y-36378033D01*
X91117024Y-36372579D01*
X91112640Y-36366668D01*
X91108856Y-36360355D01*
X91105709Y-36353701D01*
X91103229Y-36346771D01*
X91101441Y-36339632D01*
X91100361Y-36332351D01*
X91100000Y-36325000D01*
X91100000Y-35000000D01*
X91100361Y-34992649D01*
X91101441Y-34985368D01*
X91103229Y-34978229D01*
X91105709Y-34971299D01*
X91108856Y-34964645D01*
X91112640Y-34958332D01*
X91117024Y-34952421D01*
X91121967Y-34946967D01*
X91127421Y-34942024D01*
X91133332Y-34937640D01*
X91139645Y-34933856D01*
X91146299Y-34930709D01*
X91153229Y-34928229D01*
X91160368Y-34926441D01*
X91167649Y-34925361D01*
X91175000Y-34925000D01*
X91325000Y-34925000D01*
X91332351Y-34925361D01*
G37*
G36*
X90832351Y-34925361D02*
G01*
X90839632Y-34926441D01*
X90846771Y-34928229D01*
X90853701Y-34930709D01*
X90860355Y-34933856D01*
X90866668Y-34937640D01*
X90872579Y-34942024D01*
X90878033Y-34946967D01*
X90882976Y-34952421D01*
X90887360Y-34958332D01*
X90891144Y-34964645D01*
X90894291Y-34971299D01*
X90896771Y-34978229D01*
X90898559Y-34985368D01*
X90899639Y-34992649D01*
X90900000Y-35000000D01*
X90900000Y-36325000D01*
X90899639Y-36332351D01*
X90898559Y-36339632D01*
X90896771Y-36346771D01*
X90894291Y-36353701D01*
X90891144Y-36360355D01*
X90887360Y-36366668D01*
X90882976Y-36372579D01*
X90878033Y-36378033D01*
X90872579Y-36382976D01*
X90866668Y-36387360D01*
X90860355Y-36391144D01*
X90853701Y-36394291D01*
X90846771Y-36396771D01*
X90839632Y-36398559D01*
X90832351Y-36399639D01*
X90825000Y-36400000D01*
X90675000Y-36400000D01*
X90667649Y-36399639D01*
X90660368Y-36398559D01*
X90653229Y-36396771D01*
X90646299Y-36394291D01*
X90639645Y-36391144D01*
X90633332Y-36387360D01*
X90627421Y-36382976D01*
X90621967Y-36378033D01*
X90617024Y-36372579D01*
X90612640Y-36366668D01*
X90608856Y-36360355D01*
X90605709Y-36353701D01*
X90603229Y-36346771D01*
X90601441Y-36339632D01*
X90600361Y-36332351D01*
X90600000Y-36325000D01*
X90600000Y-35000000D01*
X90600361Y-34992649D01*
X90601441Y-34985368D01*
X90603229Y-34978229D01*
X90605709Y-34971299D01*
X90608856Y-34964645D01*
X90612640Y-34958332D01*
X90617024Y-34952421D01*
X90621967Y-34946967D01*
X90627421Y-34942024D01*
X90633332Y-34937640D01*
X90639645Y-34933856D01*
X90646299Y-34930709D01*
X90653229Y-34928229D01*
X90660368Y-34926441D01*
X90667649Y-34925361D01*
X90675000Y-34925000D01*
X90825000Y-34925000D01*
X90832351Y-34925361D01*
G37*
G36*
X90332351Y-34925361D02*
G01*
X90339632Y-34926441D01*
X90346771Y-34928229D01*
X90353701Y-34930709D01*
X90360355Y-34933856D01*
X90366668Y-34937640D01*
X90372579Y-34942024D01*
X90378033Y-34946967D01*
X90382976Y-34952421D01*
X90387360Y-34958332D01*
X90391144Y-34964645D01*
X90394291Y-34971299D01*
X90396771Y-34978229D01*
X90398559Y-34985368D01*
X90399639Y-34992649D01*
X90400000Y-35000000D01*
X90400000Y-36325000D01*
X90399639Y-36332351D01*
X90398559Y-36339632D01*
X90396771Y-36346771D01*
X90394291Y-36353701D01*
X90391144Y-36360355D01*
X90387360Y-36366668D01*
X90382976Y-36372579D01*
X90378033Y-36378033D01*
X90372579Y-36382976D01*
X90366668Y-36387360D01*
X90360355Y-36391144D01*
X90353701Y-36394291D01*
X90346771Y-36396771D01*
X90339632Y-36398559D01*
X90332351Y-36399639D01*
X90325000Y-36400000D01*
X90175000Y-36400000D01*
X90167649Y-36399639D01*
X90160368Y-36398559D01*
X90153229Y-36396771D01*
X90146299Y-36394291D01*
X90139645Y-36391144D01*
X90133332Y-36387360D01*
X90127421Y-36382976D01*
X90121967Y-36378033D01*
X90117024Y-36372579D01*
X90112640Y-36366668D01*
X90108856Y-36360355D01*
X90105709Y-36353701D01*
X90103229Y-36346771D01*
X90101441Y-36339632D01*
X90100361Y-36332351D01*
X90100000Y-36325000D01*
X90100000Y-35000000D01*
X90100361Y-34992649D01*
X90101441Y-34985368D01*
X90103229Y-34978229D01*
X90105709Y-34971299D01*
X90108856Y-34964645D01*
X90112640Y-34958332D01*
X90117024Y-34952421D01*
X90121967Y-34946967D01*
X90127421Y-34942024D01*
X90133332Y-34937640D01*
X90139645Y-34933856D01*
X90146299Y-34930709D01*
X90153229Y-34928229D01*
X90160368Y-34926441D01*
X90167649Y-34925361D01*
X90175000Y-34925000D01*
X90325000Y-34925000D01*
X90332351Y-34925361D01*
G37*
G36*
X89832351Y-34925361D02*
G01*
X89839632Y-34926441D01*
X89846771Y-34928229D01*
X89853701Y-34930709D01*
X89860355Y-34933856D01*
X89866668Y-34937640D01*
X89872579Y-34942024D01*
X89878033Y-34946967D01*
X89882976Y-34952421D01*
X89887360Y-34958332D01*
X89891144Y-34964645D01*
X89894291Y-34971299D01*
X89896771Y-34978229D01*
X89898559Y-34985368D01*
X89899639Y-34992649D01*
X89900000Y-35000000D01*
X89900000Y-36325000D01*
X89899639Y-36332351D01*
X89898559Y-36339632D01*
X89896771Y-36346771D01*
X89894291Y-36353701D01*
X89891144Y-36360355D01*
X89887360Y-36366668D01*
X89882976Y-36372579D01*
X89878033Y-36378033D01*
X89872579Y-36382976D01*
X89866668Y-36387360D01*
X89860355Y-36391144D01*
X89853701Y-36394291D01*
X89846771Y-36396771D01*
X89839632Y-36398559D01*
X89832351Y-36399639D01*
X89825000Y-36400000D01*
X89675000Y-36400000D01*
X89667649Y-36399639D01*
X89660368Y-36398559D01*
X89653229Y-36396771D01*
X89646299Y-36394291D01*
X89639645Y-36391144D01*
X89633332Y-36387360D01*
X89627421Y-36382976D01*
X89621967Y-36378033D01*
X89617024Y-36372579D01*
X89612640Y-36366668D01*
X89608856Y-36360355D01*
X89605709Y-36353701D01*
X89603229Y-36346771D01*
X89601441Y-36339632D01*
X89600361Y-36332351D01*
X89600000Y-36325000D01*
X89600000Y-35000000D01*
X89600361Y-34992649D01*
X89601441Y-34985368D01*
X89603229Y-34978229D01*
X89605709Y-34971299D01*
X89608856Y-34964645D01*
X89612640Y-34958332D01*
X89617024Y-34952421D01*
X89621967Y-34946967D01*
X89627421Y-34942024D01*
X89633332Y-34937640D01*
X89639645Y-34933856D01*
X89646299Y-34930709D01*
X89653229Y-34928229D01*
X89660368Y-34926441D01*
X89667649Y-34925361D01*
X89675000Y-34925000D01*
X89825000Y-34925000D01*
X89832351Y-34925361D01*
G37*
G36*
X89332351Y-34925361D02*
G01*
X89339632Y-34926441D01*
X89346771Y-34928229D01*
X89353701Y-34930709D01*
X89360355Y-34933856D01*
X89366668Y-34937640D01*
X89372579Y-34942024D01*
X89378033Y-34946967D01*
X89382976Y-34952421D01*
X89387360Y-34958332D01*
X89391144Y-34964645D01*
X89394291Y-34971299D01*
X89396771Y-34978229D01*
X89398559Y-34985368D01*
X89399639Y-34992649D01*
X89400000Y-35000000D01*
X89400000Y-36325000D01*
X89399639Y-36332351D01*
X89398559Y-36339632D01*
X89396771Y-36346771D01*
X89394291Y-36353701D01*
X89391144Y-36360355D01*
X89387360Y-36366668D01*
X89382976Y-36372579D01*
X89378033Y-36378033D01*
X89372579Y-36382976D01*
X89366668Y-36387360D01*
X89360355Y-36391144D01*
X89353701Y-36394291D01*
X89346771Y-36396771D01*
X89339632Y-36398559D01*
X89332351Y-36399639D01*
X89325000Y-36400000D01*
X89175000Y-36400000D01*
X89167649Y-36399639D01*
X89160368Y-36398559D01*
X89153229Y-36396771D01*
X89146299Y-36394291D01*
X89139645Y-36391144D01*
X89133332Y-36387360D01*
X89127421Y-36382976D01*
X89121967Y-36378033D01*
X89117024Y-36372579D01*
X89112640Y-36366668D01*
X89108856Y-36360355D01*
X89105709Y-36353701D01*
X89103229Y-36346771D01*
X89101441Y-36339632D01*
X89100361Y-36332351D01*
X89100000Y-36325000D01*
X89100000Y-35000000D01*
X89100361Y-34992649D01*
X89101441Y-34985368D01*
X89103229Y-34978229D01*
X89105709Y-34971299D01*
X89108856Y-34964645D01*
X89112640Y-34958332D01*
X89117024Y-34952421D01*
X89121967Y-34946967D01*
X89127421Y-34942024D01*
X89133332Y-34937640D01*
X89139645Y-34933856D01*
X89146299Y-34930709D01*
X89153229Y-34928229D01*
X89160368Y-34926441D01*
X89167649Y-34925361D01*
X89175000Y-34925000D01*
X89325000Y-34925000D01*
X89332351Y-34925361D01*
G37*
G36*
X88832351Y-34925361D02*
G01*
X88839632Y-34926441D01*
X88846771Y-34928229D01*
X88853701Y-34930709D01*
X88860355Y-34933856D01*
X88866668Y-34937640D01*
X88872579Y-34942024D01*
X88878033Y-34946967D01*
X88882976Y-34952421D01*
X88887360Y-34958332D01*
X88891144Y-34964645D01*
X88894291Y-34971299D01*
X88896771Y-34978229D01*
X88898559Y-34985368D01*
X88899639Y-34992649D01*
X88900000Y-35000000D01*
X88900000Y-36325000D01*
X88899639Y-36332351D01*
X88898559Y-36339632D01*
X88896771Y-36346771D01*
X88894291Y-36353701D01*
X88891144Y-36360355D01*
X88887360Y-36366668D01*
X88882976Y-36372579D01*
X88878033Y-36378033D01*
X88872579Y-36382976D01*
X88866668Y-36387360D01*
X88860355Y-36391144D01*
X88853701Y-36394291D01*
X88846771Y-36396771D01*
X88839632Y-36398559D01*
X88832351Y-36399639D01*
X88825000Y-36400000D01*
X88675000Y-36400000D01*
X88667649Y-36399639D01*
X88660368Y-36398559D01*
X88653229Y-36396771D01*
X88646299Y-36394291D01*
X88639645Y-36391144D01*
X88633332Y-36387360D01*
X88627421Y-36382976D01*
X88621967Y-36378033D01*
X88617024Y-36372579D01*
X88612640Y-36366668D01*
X88608856Y-36360355D01*
X88605709Y-36353701D01*
X88603229Y-36346771D01*
X88601441Y-36339632D01*
X88600361Y-36332351D01*
X88600000Y-36325000D01*
X88600000Y-35000000D01*
X88600361Y-34992649D01*
X88601441Y-34985368D01*
X88603229Y-34978229D01*
X88605709Y-34971299D01*
X88608856Y-34964645D01*
X88612640Y-34958332D01*
X88617024Y-34952421D01*
X88621967Y-34946967D01*
X88627421Y-34942024D01*
X88633332Y-34937640D01*
X88639645Y-34933856D01*
X88646299Y-34930709D01*
X88653229Y-34928229D01*
X88660368Y-34926441D01*
X88667649Y-34925361D01*
X88675000Y-34925000D01*
X88825000Y-34925000D01*
X88832351Y-34925361D01*
G37*
G36*
X88332351Y-34925361D02*
G01*
X88339632Y-34926441D01*
X88346771Y-34928229D01*
X88353701Y-34930709D01*
X88360355Y-34933856D01*
X88366668Y-34937640D01*
X88372579Y-34942024D01*
X88378033Y-34946967D01*
X88382976Y-34952421D01*
X88387360Y-34958332D01*
X88391144Y-34964645D01*
X88394291Y-34971299D01*
X88396771Y-34978229D01*
X88398559Y-34985368D01*
X88399639Y-34992649D01*
X88400000Y-35000000D01*
X88400000Y-36325000D01*
X88399639Y-36332351D01*
X88398559Y-36339632D01*
X88396771Y-36346771D01*
X88394291Y-36353701D01*
X88391144Y-36360355D01*
X88387360Y-36366668D01*
X88382976Y-36372579D01*
X88378033Y-36378033D01*
X88372579Y-36382976D01*
X88366668Y-36387360D01*
X88360355Y-36391144D01*
X88353701Y-36394291D01*
X88346771Y-36396771D01*
X88339632Y-36398559D01*
X88332351Y-36399639D01*
X88325000Y-36400000D01*
X88175000Y-36400000D01*
X88167649Y-36399639D01*
X88160368Y-36398559D01*
X88153229Y-36396771D01*
X88146299Y-36394291D01*
X88139645Y-36391144D01*
X88133332Y-36387360D01*
X88127421Y-36382976D01*
X88121967Y-36378033D01*
X88117024Y-36372579D01*
X88112640Y-36366668D01*
X88108856Y-36360355D01*
X88105709Y-36353701D01*
X88103229Y-36346771D01*
X88101441Y-36339632D01*
X88100361Y-36332351D01*
X88100000Y-36325000D01*
X88100000Y-35000000D01*
X88100361Y-34992649D01*
X88101441Y-34985368D01*
X88103229Y-34978229D01*
X88105709Y-34971299D01*
X88108856Y-34964645D01*
X88112640Y-34958332D01*
X88117024Y-34952421D01*
X88121967Y-34946967D01*
X88127421Y-34942024D01*
X88133332Y-34937640D01*
X88139645Y-34933856D01*
X88146299Y-34930709D01*
X88153229Y-34928229D01*
X88160368Y-34926441D01*
X88167649Y-34925361D01*
X88175000Y-34925000D01*
X88325000Y-34925000D01*
X88332351Y-34925361D01*
G37*
G36*
X87832351Y-34925361D02*
G01*
X87839632Y-34926441D01*
X87846771Y-34928229D01*
X87853701Y-34930709D01*
X87860355Y-34933856D01*
X87866668Y-34937640D01*
X87872579Y-34942024D01*
X87878033Y-34946967D01*
X87882976Y-34952421D01*
X87887360Y-34958332D01*
X87891144Y-34964645D01*
X87894291Y-34971299D01*
X87896771Y-34978229D01*
X87898559Y-34985368D01*
X87899639Y-34992649D01*
X87900000Y-35000000D01*
X87900000Y-36325000D01*
X87899639Y-36332351D01*
X87898559Y-36339632D01*
X87896771Y-36346771D01*
X87894291Y-36353701D01*
X87891144Y-36360355D01*
X87887360Y-36366668D01*
X87882976Y-36372579D01*
X87878033Y-36378033D01*
X87872579Y-36382976D01*
X87866668Y-36387360D01*
X87860355Y-36391144D01*
X87853701Y-36394291D01*
X87846771Y-36396771D01*
X87839632Y-36398559D01*
X87832351Y-36399639D01*
X87825000Y-36400000D01*
X87675000Y-36400000D01*
X87667649Y-36399639D01*
X87660368Y-36398559D01*
X87653229Y-36396771D01*
X87646299Y-36394291D01*
X87639645Y-36391144D01*
X87633332Y-36387360D01*
X87627421Y-36382976D01*
X87621967Y-36378033D01*
X87617024Y-36372579D01*
X87612640Y-36366668D01*
X87608856Y-36360355D01*
X87605709Y-36353701D01*
X87603229Y-36346771D01*
X87601441Y-36339632D01*
X87600361Y-36332351D01*
X87600000Y-36325000D01*
X87600000Y-35000000D01*
X87600361Y-34992649D01*
X87601441Y-34985368D01*
X87603229Y-34978229D01*
X87605709Y-34971299D01*
X87608856Y-34964645D01*
X87612640Y-34958332D01*
X87617024Y-34952421D01*
X87621967Y-34946967D01*
X87627421Y-34942024D01*
X87633332Y-34937640D01*
X87639645Y-34933856D01*
X87646299Y-34930709D01*
X87653229Y-34928229D01*
X87660368Y-34926441D01*
X87667649Y-34925361D01*
X87675000Y-34925000D01*
X87825000Y-34925000D01*
X87832351Y-34925361D01*
G37*
G36*
X87332351Y-34925361D02*
G01*
X87339632Y-34926441D01*
X87346771Y-34928229D01*
X87353701Y-34930709D01*
X87360355Y-34933856D01*
X87366668Y-34937640D01*
X87372579Y-34942024D01*
X87378033Y-34946967D01*
X87382976Y-34952421D01*
X87387360Y-34958332D01*
X87391144Y-34964645D01*
X87394291Y-34971299D01*
X87396771Y-34978229D01*
X87398559Y-34985368D01*
X87399639Y-34992649D01*
X87400000Y-35000000D01*
X87400000Y-36325000D01*
X87399639Y-36332351D01*
X87398559Y-36339632D01*
X87396771Y-36346771D01*
X87394291Y-36353701D01*
X87391144Y-36360355D01*
X87387360Y-36366668D01*
X87382976Y-36372579D01*
X87378033Y-36378033D01*
X87372579Y-36382976D01*
X87366668Y-36387360D01*
X87360355Y-36391144D01*
X87353701Y-36394291D01*
X87346771Y-36396771D01*
X87339632Y-36398559D01*
X87332351Y-36399639D01*
X87325000Y-36400000D01*
X87175000Y-36400000D01*
X87167649Y-36399639D01*
X87160368Y-36398559D01*
X87153229Y-36396771D01*
X87146299Y-36394291D01*
X87139645Y-36391144D01*
X87133332Y-36387360D01*
X87127421Y-36382976D01*
X87121967Y-36378033D01*
X87117024Y-36372579D01*
X87112640Y-36366668D01*
X87108856Y-36360355D01*
X87105709Y-36353701D01*
X87103229Y-36346771D01*
X87101441Y-36339632D01*
X87100361Y-36332351D01*
X87100000Y-36325000D01*
X87100000Y-35000000D01*
X87100361Y-34992649D01*
X87101441Y-34985368D01*
X87103229Y-34978229D01*
X87105709Y-34971299D01*
X87108856Y-34964645D01*
X87112640Y-34958332D01*
X87117024Y-34952421D01*
X87121967Y-34946967D01*
X87127421Y-34942024D01*
X87133332Y-34937640D01*
X87139645Y-34933856D01*
X87146299Y-34930709D01*
X87153229Y-34928229D01*
X87160368Y-34926441D01*
X87167649Y-34925361D01*
X87175000Y-34925000D01*
X87325000Y-34925000D01*
X87332351Y-34925361D01*
G37*
G36*
X86507351Y-34100361D02*
G01*
X86514632Y-34101441D01*
X86521771Y-34103229D01*
X86528701Y-34105709D01*
X86535355Y-34108856D01*
X86541668Y-34112640D01*
X86547579Y-34117024D01*
X86553033Y-34121967D01*
X86557976Y-34127421D01*
X86562360Y-34133332D01*
X86566144Y-34139645D01*
X86569291Y-34146299D01*
X86571771Y-34153229D01*
X86573559Y-34160368D01*
X86574639Y-34167649D01*
X86575000Y-34175000D01*
X86575000Y-34325000D01*
X86574639Y-34332351D01*
X86573559Y-34339632D01*
X86571771Y-34346771D01*
X86569291Y-34353701D01*
X86566144Y-34360355D01*
X86562360Y-34366668D01*
X86557976Y-34372579D01*
X86553033Y-34378033D01*
X86547579Y-34382976D01*
X86541668Y-34387360D01*
X86535355Y-34391144D01*
X86528701Y-34394291D01*
X86521771Y-34396771D01*
X86514632Y-34398559D01*
X86507351Y-34399639D01*
X86500000Y-34400000D01*
X85175000Y-34400000D01*
X85167649Y-34399639D01*
X85160368Y-34398559D01*
X85153229Y-34396771D01*
X85146299Y-34394291D01*
X85139645Y-34391144D01*
X85133332Y-34387360D01*
X85127421Y-34382976D01*
X85121967Y-34378033D01*
X85117024Y-34372579D01*
X85112640Y-34366668D01*
X85108856Y-34360355D01*
X85105709Y-34353701D01*
X85103229Y-34346771D01*
X85101441Y-34339632D01*
X85100361Y-34332351D01*
X85100000Y-34325000D01*
X85100000Y-34175000D01*
X85100361Y-34167649D01*
X85101441Y-34160368D01*
X85103229Y-34153229D01*
X85105709Y-34146299D01*
X85108856Y-34139645D01*
X85112640Y-34133332D01*
X85117024Y-34127421D01*
X85121967Y-34121967D01*
X85127421Y-34117024D01*
X85133332Y-34112640D01*
X85139645Y-34108856D01*
X85146299Y-34105709D01*
X85153229Y-34103229D01*
X85160368Y-34101441D01*
X85167649Y-34100361D01*
X85175000Y-34100000D01*
X86500000Y-34100000D01*
X86507351Y-34100361D01*
G37*
G36*
X86507351Y-33600361D02*
G01*
X86514632Y-33601441D01*
X86521771Y-33603229D01*
X86528701Y-33605709D01*
X86535355Y-33608856D01*
X86541668Y-33612640D01*
X86547579Y-33617024D01*
X86553033Y-33621967D01*
X86557976Y-33627421D01*
X86562360Y-33633332D01*
X86566144Y-33639645D01*
X86569291Y-33646299D01*
X86571771Y-33653229D01*
X86573559Y-33660368D01*
X86574639Y-33667649D01*
X86575000Y-33675000D01*
X86575000Y-33825000D01*
X86574639Y-33832351D01*
X86573559Y-33839632D01*
X86571771Y-33846771D01*
X86569291Y-33853701D01*
X86566144Y-33860355D01*
X86562360Y-33866668D01*
X86557976Y-33872579D01*
X86553033Y-33878033D01*
X86547579Y-33882976D01*
X86541668Y-33887360D01*
X86535355Y-33891144D01*
X86528701Y-33894291D01*
X86521771Y-33896771D01*
X86514632Y-33898559D01*
X86507351Y-33899639D01*
X86500000Y-33900000D01*
X85175000Y-33900000D01*
X85167649Y-33899639D01*
X85160368Y-33898559D01*
X85153229Y-33896771D01*
X85146299Y-33894291D01*
X85139645Y-33891144D01*
X85133332Y-33887360D01*
X85127421Y-33882976D01*
X85121967Y-33878033D01*
X85117024Y-33872579D01*
X85112640Y-33866668D01*
X85108856Y-33860355D01*
X85105709Y-33853701D01*
X85103229Y-33846771D01*
X85101441Y-33839632D01*
X85100361Y-33832351D01*
X85100000Y-33825000D01*
X85100000Y-33675000D01*
X85100361Y-33667649D01*
X85101441Y-33660368D01*
X85103229Y-33653229D01*
X85105709Y-33646299D01*
X85108856Y-33639645D01*
X85112640Y-33633332D01*
X85117024Y-33627421D01*
X85121967Y-33621967D01*
X85127421Y-33617024D01*
X85133332Y-33612640D01*
X85139645Y-33608856D01*
X85146299Y-33605709D01*
X85153229Y-33603229D01*
X85160368Y-33601441D01*
X85167649Y-33600361D01*
X85175000Y-33600000D01*
X86500000Y-33600000D01*
X86507351Y-33600361D01*
G37*
G36*
X86507351Y-33100361D02*
G01*
X86514632Y-33101441D01*
X86521771Y-33103229D01*
X86528701Y-33105709D01*
X86535355Y-33108856D01*
X86541668Y-33112640D01*
X86547579Y-33117024D01*
X86553033Y-33121967D01*
X86557976Y-33127421D01*
X86562360Y-33133332D01*
X86566144Y-33139645D01*
X86569291Y-33146299D01*
X86571771Y-33153229D01*
X86573559Y-33160368D01*
X86574639Y-33167649D01*
X86575000Y-33175000D01*
X86575000Y-33325000D01*
X86574639Y-33332351D01*
X86573559Y-33339632D01*
X86571771Y-33346771D01*
X86569291Y-33353701D01*
X86566144Y-33360355D01*
X86562360Y-33366668D01*
X86557976Y-33372579D01*
X86553033Y-33378033D01*
X86547579Y-33382976D01*
X86541668Y-33387360D01*
X86535355Y-33391144D01*
X86528701Y-33394291D01*
X86521771Y-33396771D01*
X86514632Y-33398559D01*
X86507351Y-33399639D01*
X86500000Y-33400000D01*
X85175000Y-33400000D01*
X85167649Y-33399639D01*
X85160368Y-33398559D01*
X85153229Y-33396771D01*
X85146299Y-33394291D01*
X85139645Y-33391144D01*
X85133332Y-33387360D01*
X85127421Y-33382976D01*
X85121967Y-33378033D01*
X85117024Y-33372579D01*
X85112640Y-33366668D01*
X85108856Y-33360355D01*
X85105709Y-33353701D01*
X85103229Y-33346771D01*
X85101441Y-33339632D01*
X85100361Y-33332351D01*
X85100000Y-33325000D01*
X85100000Y-33175000D01*
X85100361Y-33167649D01*
X85101441Y-33160368D01*
X85103229Y-33153229D01*
X85105709Y-33146299D01*
X85108856Y-33139645D01*
X85112640Y-33133332D01*
X85117024Y-33127421D01*
X85121967Y-33121967D01*
X85127421Y-33117024D01*
X85133332Y-33112640D01*
X85139645Y-33108856D01*
X85146299Y-33105709D01*
X85153229Y-33103229D01*
X85160368Y-33101441D01*
X85167649Y-33100361D01*
X85175000Y-33100000D01*
X86500000Y-33100000D01*
X86507351Y-33100361D01*
G37*
G36*
X86507351Y-32600361D02*
G01*
X86514632Y-32601441D01*
X86521771Y-32603229D01*
X86528701Y-32605709D01*
X86535355Y-32608856D01*
X86541668Y-32612640D01*
X86547579Y-32617024D01*
X86553033Y-32621967D01*
X86557976Y-32627421D01*
X86562360Y-32633332D01*
X86566144Y-32639645D01*
X86569291Y-32646299D01*
X86571771Y-32653229D01*
X86573559Y-32660368D01*
X86574639Y-32667649D01*
X86575000Y-32675000D01*
X86575000Y-32825000D01*
X86574639Y-32832351D01*
X86573559Y-32839632D01*
X86571771Y-32846771D01*
X86569291Y-32853701D01*
X86566144Y-32860355D01*
X86562360Y-32866668D01*
X86557976Y-32872579D01*
X86553033Y-32878033D01*
X86547579Y-32882976D01*
X86541668Y-32887360D01*
X86535355Y-32891144D01*
X86528701Y-32894291D01*
X86521771Y-32896771D01*
X86514632Y-32898559D01*
X86507351Y-32899639D01*
X86500000Y-32900000D01*
X85175000Y-32900000D01*
X85167649Y-32899639D01*
X85160368Y-32898559D01*
X85153229Y-32896771D01*
X85146299Y-32894291D01*
X85139645Y-32891144D01*
X85133332Y-32887360D01*
X85127421Y-32882976D01*
X85121967Y-32878033D01*
X85117024Y-32872579D01*
X85112640Y-32866668D01*
X85108856Y-32860355D01*
X85105709Y-32853701D01*
X85103229Y-32846771D01*
X85101441Y-32839632D01*
X85100361Y-32832351D01*
X85100000Y-32825000D01*
X85100000Y-32675000D01*
X85100361Y-32667649D01*
X85101441Y-32660368D01*
X85103229Y-32653229D01*
X85105709Y-32646299D01*
X85108856Y-32639645D01*
X85112640Y-32633332D01*
X85117024Y-32627421D01*
X85121967Y-32621967D01*
X85127421Y-32617024D01*
X85133332Y-32612640D01*
X85139645Y-32608856D01*
X85146299Y-32605709D01*
X85153229Y-32603229D01*
X85160368Y-32601441D01*
X85167649Y-32600361D01*
X85175000Y-32600000D01*
X86500000Y-32600000D01*
X86507351Y-32600361D01*
G37*
G36*
X86507351Y-32100361D02*
G01*
X86514632Y-32101441D01*
X86521771Y-32103229D01*
X86528701Y-32105709D01*
X86535355Y-32108856D01*
X86541668Y-32112640D01*
X86547579Y-32117024D01*
X86553033Y-32121967D01*
X86557976Y-32127421D01*
X86562360Y-32133332D01*
X86566144Y-32139645D01*
X86569291Y-32146299D01*
X86571771Y-32153229D01*
X86573559Y-32160368D01*
X86574639Y-32167649D01*
X86575000Y-32175000D01*
X86575000Y-32325000D01*
X86574639Y-32332351D01*
X86573559Y-32339632D01*
X86571771Y-32346771D01*
X86569291Y-32353701D01*
X86566144Y-32360355D01*
X86562360Y-32366668D01*
X86557976Y-32372579D01*
X86553033Y-32378033D01*
X86547579Y-32382976D01*
X86541668Y-32387360D01*
X86535355Y-32391144D01*
X86528701Y-32394291D01*
X86521771Y-32396771D01*
X86514632Y-32398559D01*
X86507351Y-32399639D01*
X86500000Y-32400000D01*
X85175000Y-32400000D01*
X85167649Y-32399639D01*
X85160368Y-32398559D01*
X85153229Y-32396771D01*
X85146299Y-32394291D01*
X85139645Y-32391144D01*
X85133332Y-32387360D01*
X85127421Y-32382976D01*
X85121967Y-32378033D01*
X85117024Y-32372579D01*
X85112640Y-32366668D01*
X85108856Y-32360355D01*
X85105709Y-32353701D01*
X85103229Y-32346771D01*
X85101441Y-32339632D01*
X85100361Y-32332351D01*
X85100000Y-32325000D01*
X85100000Y-32175000D01*
X85100361Y-32167649D01*
X85101441Y-32160368D01*
X85103229Y-32153229D01*
X85105709Y-32146299D01*
X85108856Y-32139645D01*
X85112640Y-32133332D01*
X85117024Y-32127421D01*
X85121967Y-32121967D01*
X85127421Y-32117024D01*
X85133332Y-32112640D01*
X85139645Y-32108856D01*
X85146299Y-32105709D01*
X85153229Y-32103229D01*
X85160368Y-32101441D01*
X85167649Y-32100361D01*
X85175000Y-32100000D01*
X86500000Y-32100000D01*
X86507351Y-32100361D01*
G37*
G36*
X86507351Y-31600361D02*
G01*
X86514632Y-31601441D01*
X86521771Y-31603229D01*
X86528701Y-31605709D01*
X86535355Y-31608856D01*
X86541668Y-31612640D01*
X86547579Y-31617024D01*
X86553033Y-31621967D01*
X86557976Y-31627421D01*
X86562360Y-31633332D01*
X86566144Y-31639645D01*
X86569291Y-31646299D01*
X86571771Y-31653229D01*
X86573559Y-31660368D01*
X86574639Y-31667649D01*
X86575000Y-31675000D01*
X86575000Y-31825000D01*
X86574639Y-31832351D01*
X86573559Y-31839632D01*
X86571771Y-31846771D01*
X86569291Y-31853701D01*
X86566144Y-31860355D01*
X86562360Y-31866668D01*
X86557976Y-31872579D01*
X86553033Y-31878033D01*
X86547579Y-31882976D01*
X86541668Y-31887360D01*
X86535355Y-31891144D01*
X86528701Y-31894291D01*
X86521771Y-31896771D01*
X86514632Y-31898559D01*
X86507351Y-31899639D01*
X86500000Y-31900000D01*
X85175000Y-31900000D01*
X85167649Y-31899639D01*
X85160368Y-31898559D01*
X85153229Y-31896771D01*
X85146299Y-31894291D01*
X85139645Y-31891144D01*
X85133332Y-31887360D01*
X85127421Y-31882976D01*
X85121967Y-31878033D01*
X85117024Y-31872579D01*
X85112640Y-31866668D01*
X85108856Y-31860355D01*
X85105709Y-31853701D01*
X85103229Y-31846771D01*
X85101441Y-31839632D01*
X85100361Y-31832351D01*
X85100000Y-31825000D01*
X85100000Y-31675000D01*
X85100361Y-31667649D01*
X85101441Y-31660368D01*
X85103229Y-31653229D01*
X85105709Y-31646299D01*
X85108856Y-31639645D01*
X85112640Y-31633332D01*
X85117024Y-31627421D01*
X85121967Y-31621967D01*
X85127421Y-31617024D01*
X85133332Y-31612640D01*
X85139645Y-31608856D01*
X85146299Y-31605709D01*
X85153229Y-31603229D01*
X85160368Y-31601441D01*
X85167649Y-31600361D01*
X85175000Y-31600000D01*
X86500000Y-31600000D01*
X86507351Y-31600361D01*
G37*
G36*
X86507351Y-31100361D02*
G01*
X86514632Y-31101441D01*
X86521771Y-31103229D01*
X86528701Y-31105709D01*
X86535355Y-31108856D01*
X86541668Y-31112640D01*
X86547579Y-31117024D01*
X86553033Y-31121967D01*
X86557976Y-31127421D01*
X86562360Y-31133332D01*
X86566144Y-31139645D01*
X86569291Y-31146299D01*
X86571771Y-31153229D01*
X86573559Y-31160368D01*
X86574639Y-31167649D01*
X86575000Y-31175000D01*
X86575000Y-31325000D01*
X86574639Y-31332351D01*
X86573559Y-31339632D01*
X86571771Y-31346771D01*
X86569291Y-31353701D01*
X86566144Y-31360355D01*
X86562360Y-31366668D01*
X86557976Y-31372579D01*
X86553033Y-31378033D01*
X86547579Y-31382976D01*
X86541668Y-31387360D01*
X86535355Y-31391144D01*
X86528701Y-31394291D01*
X86521771Y-31396771D01*
X86514632Y-31398559D01*
X86507351Y-31399639D01*
X86500000Y-31400000D01*
X85175000Y-31400000D01*
X85167649Y-31399639D01*
X85160368Y-31398559D01*
X85153229Y-31396771D01*
X85146299Y-31394291D01*
X85139645Y-31391144D01*
X85133332Y-31387360D01*
X85127421Y-31382976D01*
X85121967Y-31378033D01*
X85117024Y-31372579D01*
X85112640Y-31366668D01*
X85108856Y-31360355D01*
X85105709Y-31353701D01*
X85103229Y-31346771D01*
X85101441Y-31339632D01*
X85100361Y-31332351D01*
X85100000Y-31325000D01*
X85100000Y-31175000D01*
X85100361Y-31167649D01*
X85101441Y-31160368D01*
X85103229Y-31153229D01*
X85105709Y-31146299D01*
X85108856Y-31139645D01*
X85112640Y-31133332D01*
X85117024Y-31127421D01*
X85121967Y-31121967D01*
X85127421Y-31117024D01*
X85133332Y-31112640D01*
X85139645Y-31108856D01*
X85146299Y-31105709D01*
X85153229Y-31103229D01*
X85160368Y-31101441D01*
X85167649Y-31100361D01*
X85175000Y-31100000D01*
X86500000Y-31100000D01*
X86507351Y-31100361D01*
G37*
G36*
X86507351Y-30600361D02*
G01*
X86514632Y-30601441D01*
X86521771Y-30603229D01*
X86528701Y-30605709D01*
X86535355Y-30608856D01*
X86541668Y-30612640D01*
X86547579Y-30617024D01*
X86553033Y-30621967D01*
X86557976Y-30627421D01*
X86562360Y-30633332D01*
X86566144Y-30639645D01*
X86569291Y-30646299D01*
X86571771Y-30653229D01*
X86573559Y-30660368D01*
X86574639Y-30667649D01*
X86575000Y-30675000D01*
X86575000Y-30825000D01*
X86574639Y-30832351D01*
X86573559Y-30839632D01*
X86571771Y-30846771D01*
X86569291Y-30853701D01*
X86566144Y-30860355D01*
X86562360Y-30866668D01*
X86557976Y-30872579D01*
X86553033Y-30878033D01*
X86547579Y-30882976D01*
X86541668Y-30887360D01*
X86535355Y-30891144D01*
X86528701Y-30894291D01*
X86521771Y-30896771D01*
X86514632Y-30898559D01*
X86507351Y-30899639D01*
X86500000Y-30900000D01*
X85175000Y-30900000D01*
X85167649Y-30899639D01*
X85160368Y-30898559D01*
X85153229Y-30896771D01*
X85146299Y-30894291D01*
X85139645Y-30891144D01*
X85133332Y-30887360D01*
X85127421Y-30882976D01*
X85121967Y-30878033D01*
X85117024Y-30872579D01*
X85112640Y-30866668D01*
X85108856Y-30860355D01*
X85105709Y-30853701D01*
X85103229Y-30846771D01*
X85101441Y-30839632D01*
X85100361Y-30832351D01*
X85100000Y-30825000D01*
X85100000Y-30675000D01*
X85100361Y-30667649D01*
X85101441Y-30660368D01*
X85103229Y-30653229D01*
X85105709Y-30646299D01*
X85108856Y-30639645D01*
X85112640Y-30633332D01*
X85117024Y-30627421D01*
X85121967Y-30621967D01*
X85127421Y-30617024D01*
X85133332Y-30612640D01*
X85139645Y-30608856D01*
X85146299Y-30605709D01*
X85153229Y-30603229D01*
X85160368Y-30601441D01*
X85167649Y-30600361D01*
X85175000Y-30600000D01*
X86500000Y-30600000D01*
X86507351Y-30600361D01*
G37*
G36*
X86507351Y-30100361D02*
G01*
X86514632Y-30101441D01*
X86521771Y-30103229D01*
X86528701Y-30105709D01*
X86535355Y-30108856D01*
X86541668Y-30112640D01*
X86547579Y-30117024D01*
X86553033Y-30121967D01*
X86557976Y-30127421D01*
X86562360Y-30133332D01*
X86566144Y-30139645D01*
X86569291Y-30146299D01*
X86571771Y-30153229D01*
X86573559Y-30160368D01*
X86574639Y-30167649D01*
X86575000Y-30175000D01*
X86575000Y-30325000D01*
X86574639Y-30332351D01*
X86573559Y-30339632D01*
X86571771Y-30346771D01*
X86569291Y-30353701D01*
X86566144Y-30360355D01*
X86562360Y-30366668D01*
X86557976Y-30372579D01*
X86553033Y-30378033D01*
X86547579Y-30382976D01*
X86541668Y-30387360D01*
X86535355Y-30391144D01*
X86528701Y-30394291D01*
X86521771Y-30396771D01*
X86514632Y-30398559D01*
X86507351Y-30399639D01*
X86500000Y-30400000D01*
X85175000Y-30400000D01*
X85167649Y-30399639D01*
X85160368Y-30398559D01*
X85153229Y-30396771D01*
X85146299Y-30394291D01*
X85139645Y-30391144D01*
X85133332Y-30387360D01*
X85127421Y-30382976D01*
X85121967Y-30378033D01*
X85117024Y-30372579D01*
X85112640Y-30366668D01*
X85108856Y-30360355D01*
X85105709Y-30353701D01*
X85103229Y-30346771D01*
X85101441Y-30339632D01*
X85100361Y-30332351D01*
X85100000Y-30325000D01*
X85100000Y-30175000D01*
X85100361Y-30167649D01*
X85101441Y-30160368D01*
X85103229Y-30153229D01*
X85105709Y-30146299D01*
X85108856Y-30139645D01*
X85112640Y-30133332D01*
X85117024Y-30127421D01*
X85121967Y-30121967D01*
X85127421Y-30117024D01*
X85133332Y-30112640D01*
X85139645Y-30108856D01*
X85146299Y-30105709D01*
X85153229Y-30103229D01*
X85160368Y-30101441D01*
X85167649Y-30100361D01*
X85175000Y-30100000D01*
X86500000Y-30100000D01*
X86507351Y-30100361D01*
G37*
G36*
X86507351Y-29600361D02*
G01*
X86514632Y-29601441D01*
X86521771Y-29603229D01*
X86528701Y-29605709D01*
X86535355Y-29608856D01*
X86541668Y-29612640D01*
X86547579Y-29617024D01*
X86553033Y-29621967D01*
X86557976Y-29627421D01*
X86562360Y-29633332D01*
X86566144Y-29639645D01*
X86569291Y-29646299D01*
X86571771Y-29653229D01*
X86573559Y-29660368D01*
X86574639Y-29667649D01*
X86575000Y-29675000D01*
X86575000Y-29825000D01*
X86574639Y-29832351D01*
X86573559Y-29839632D01*
X86571771Y-29846771D01*
X86569291Y-29853701D01*
X86566144Y-29860355D01*
X86562360Y-29866668D01*
X86557976Y-29872579D01*
X86553033Y-29878033D01*
X86547579Y-29882976D01*
X86541668Y-29887360D01*
X86535355Y-29891144D01*
X86528701Y-29894291D01*
X86521771Y-29896771D01*
X86514632Y-29898559D01*
X86507351Y-29899639D01*
X86500000Y-29900000D01*
X85175000Y-29900000D01*
X85167649Y-29899639D01*
X85160368Y-29898559D01*
X85153229Y-29896771D01*
X85146299Y-29894291D01*
X85139645Y-29891144D01*
X85133332Y-29887360D01*
X85127421Y-29882976D01*
X85121967Y-29878033D01*
X85117024Y-29872579D01*
X85112640Y-29866668D01*
X85108856Y-29860355D01*
X85105709Y-29853701D01*
X85103229Y-29846771D01*
X85101441Y-29839632D01*
X85100361Y-29832351D01*
X85100000Y-29825000D01*
X85100000Y-29675000D01*
X85100361Y-29667649D01*
X85101441Y-29660368D01*
X85103229Y-29653229D01*
X85105709Y-29646299D01*
X85108856Y-29639645D01*
X85112640Y-29633332D01*
X85117024Y-29627421D01*
X85121967Y-29621967D01*
X85127421Y-29617024D01*
X85133332Y-29612640D01*
X85139645Y-29608856D01*
X85146299Y-29605709D01*
X85153229Y-29603229D01*
X85160368Y-29601441D01*
X85167649Y-29600361D01*
X85175000Y-29600000D01*
X86500000Y-29600000D01*
X86507351Y-29600361D01*
G37*
G36*
X86507351Y-29100361D02*
G01*
X86514632Y-29101441D01*
X86521771Y-29103229D01*
X86528701Y-29105709D01*
X86535355Y-29108856D01*
X86541668Y-29112640D01*
X86547579Y-29117024D01*
X86553033Y-29121967D01*
X86557976Y-29127421D01*
X86562360Y-29133332D01*
X86566144Y-29139645D01*
X86569291Y-29146299D01*
X86571771Y-29153229D01*
X86573559Y-29160368D01*
X86574639Y-29167649D01*
X86575000Y-29175000D01*
X86575000Y-29325000D01*
X86574639Y-29332351D01*
X86573559Y-29339632D01*
X86571771Y-29346771D01*
X86569291Y-29353701D01*
X86566144Y-29360355D01*
X86562360Y-29366668D01*
X86557976Y-29372579D01*
X86553033Y-29378033D01*
X86547579Y-29382976D01*
X86541668Y-29387360D01*
X86535355Y-29391144D01*
X86528701Y-29394291D01*
X86521771Y-29396771D01*
X86514632Y-29398559D01*
X86507351Y-29399639D01*
X86500000Y-29400000D01*
X85175000Y-29400000D01*
X85167649Y-29399639D01*
X85160368Y-29398559D01*
X85153229Y-29396771D01*
X85146299Y-29394291D01*
X85139645Y-29391144D01*
X85133332Y-29387360D01*
X85127421Y-29382976D01*
X85121967Y-29378033D01*
X85117024Y-29372579D01*
X85112640Y-29366668D01*
X85108856Y-29360355D01*
X85105709Y-29353701D01*
X85103229Y-29346771D01*
X85101441Y-29339632D01*
X85100361Y-29332351D01*
X85100000Y-29325000D01*
X85100000Y-29175000D01*
X85100361Y-29167649D01*
X85101441Y-29160368D01*
X85103229Y-29153229D01*
X85105709Y-29146299D01*
X85108856Y-29139645D01*
X85112640Y-29133332D01*
X85117024Y-29127421D01*
X85121967Y-29121967D01*
X85127421Y-29117024D01*
X85133332Y-29112640D01*
X85139645Y-29108856D01*
X85146299Y-29105709D01*
X85153229Y-29103229D01*
X85160368Y-29101441D01*
X85167649Y-29100361D01*
X85175000Y-29100000D01*
X86500000Y-29100000D01*
X86507351Y-29100361D01*
G37*
G36*
X86507351Y-28600361D02*
G01*
X86514632Y-28601441D01*
X86521771Y-28603229D01*
X86528701Y-28605709D01*
X86535355Y-28608856D01*
X86541668Y-28612640D01*
X86547579Y-28617024D01*
X86553033Y-28621967D01*
X86557976Y-28627421D01*
X86562360Y-28633332D01*
X86566144Y-28639645D01*
X86569291Y-28646299D01*
X86571771Y-28653229D01*
X86573559Y-28660368D01*
X86574639Y-28667649D01*
X86575000Y-28675000D01*
X86575000Y-28825000D01*
X86574639Y-28832351D01*
X86573559Y-28839632D01*
X86571771Y-28846771D01*
X86569291Y-28853701D01*
X86566144Y-28860355D01*
X86562360Y-28866668D01*
X86557976Y-28872579D01*
X86553033Y-28878033D01*
X86547579Y-28882976D01*
X86541668Y-28887360D01*
X86535355Y-28891144D01*
X86528701Y-28894291D01*
X86521771Y-28896771D01*
X86514632Y-28898559D01*
X86507351Y-28899639D01*
X86500000Y-28900000D01*
X85175000Y-28900000D01*
X85167649Y-28899639D01*
X85160368Y-28898559D01*
X85153229Y-28896771D01*
X85146299Y-28894291D01*
X85139645Y-28891144D01*
X85133332Y-28887360D01*
X85127421Y-28882976D01*
X85121967Y-28878033D01*
X85117024Y-28872579D01*
X85112640Y-28866668D01*
X85108856Y-28860355D01*
X85105709Y-28853701D01*
X85103229Y-28846771D01*
X85101441Y-28839632D01*
X85100361Y-28832351D01*
X85100000Y-28825000D01*
X85100000Y-28675000D01*
X85100361Y-28667649D01*
X85101441Y-28660368D01*
X85103229Y-28653229D01*
X85105709Y-28646299D01*
X85108856Y-28639645D01*
X85112640Y-28633332D01*
X85117024Y-28627421D01*
X85121967Y-28621967D01*
X85127421Y-28617024D01*
X85133332Y-28612640D01*
X85139645Y-28608856D01*
X85146299Y-28605709D01*
X85153229Y-28603229D01*
X85160368Y-28601441D01*
X85167649Y-28600361D01*
X85175000Y-28600000D01*
X86500000Y-28600000D01*
X86507351Y-28600361D01*
G37*
G36*
X87332351Y-26600361D02*
G01*
X87339632Y-26601441D01*
X87346771Y-26603229D01*
X87353701Y-26605709D01*
X87360355Y-26608856D01*
X87366668Y-26612640D01*
X87372579Y-26617024D01*
X87378033Y-26621967D01*
X87382976Y-26627421D01*
X87387360Y-26633332D01*
X87391144Y-26639645D01*
X87394291Y-26646299D01*
X87396771Y-26653229D01*
X87398559Y-26660368D01*
X87399639Y-26667649D01*
X87400000Y-26675000D01*
X87400000Y-28000000D01*
X87399639Y-28007351D01*
X87398559Y-28014632D01*
X87396771Y-28021771D01*
X87394291Y-28028701D01*
X87391144Y-28035355D01*
X87387360Y-28041668D01*
X87382976Y-28047579D01*
X87378033Y-28053033D01*
X87372579Y-28057976D01*
X87366668Y-28062360D01*
X87360355Y-28066144D01*
X87353701Y-28069291D01*
X87346771Y-28071771D01*
X87339632Y-28073559D01*
X87332351Y-28074639D01*
X87325000Y-28075000D01*
X87175000Y-28075000D01*
X87167649Y-28074639D01*
X87160368Y-28073559D01*
X87153229Y-28071771D01*
X87146299Y-28069291D01*
X87139645Y-28066144D01*
X87133332Y-28062360D01*
X87127421Y-28057976D01*
X87121967Y-28053033D01*
X87117024Y-28047579D01*
X87112640Y-28041668D01*
X87108856Y-28035355D01*
X87105709Y-28028701D01*
X87103229Y-28021771D01*
X87101441Y-28014632D01*
X87100361Y-28007351D01*
X87100000Y-28000000D01*
X87100000Y-26675000D01*
X87100361Y-26667649D01*
X87101441Y-26660368D01*
X87103229Y-26653229D01*
X87105709Y-26646299D01*
X87108856Y-26639645D01*
X87112640Y-26633332D01*
X87117024Y-26627421D01*
X87121967Y-26621967D01*
X87127421Y-26617024D01*
X87133332Y-26612640D01*
X87139645Y-26608856D01*
X87146299Y-26605709D01*
X87153229Y-26603229D01*
X87160368Y-26601441D01*
X87167649Y-26600361D01*
X87175000Y-26600000D01*
X87325000Y-26600000D01*
X87332351Y-26600361D01*
G37*
G36*
X87832351Y-26600361D02*
G01*
X87839632Y-26601441D01*
X87846771Y-26603229D01*
X87853701Y-26605709D01*
X87860355Y-26608856D01*
X87866668Y-26612640D01*
X87872579Y-26617024D01*
X87878033Y-26621967D01*
X87882976Y-26627421D01*
X87887360Y-26633332D01*
X87891144Y-26639645D01*
X87894291Y-26646299D01*
X87896771Y-26653229D01*
X87898559Y-26660368D01*
X87899639Y-26667649D01*
X87900000Y-26675000D01*
X87900000Y-28000000D01*
X87899639Y-28007351D01*
X87898559Y-28014632D01*
X87896771Y-28021771D01*
X87894291Y-28028701D01*
X87891144Y-28035355D01*
X87887360Y-28041668D01*
X87882976Y-28047579D01*
X87878033Y-28053033D01*
X87872579Y-28057976D01*
X87866668Y-28062360D01*
X87860355Y-28066144D01*
X87853701Y-28069291D01*
X87846771Y-28071771D01*
X87839632Y-28073559D01*
X87832351Y-28074639D01*
X87825000Y-28075000D01*
X87675000Y-28075000D01*
X87667649Y-28074639D01*
X87660368Y-28073559D01*
X87653229Y-28071771D01*
X87646299Y-28069291D01*
X87639645Y-28066144D01*
X87633332Y-28062360D01*
X87627421Y-28057976D01*
X87621967Y-28053033D01*
X87617024Y-28047579D01*
X87612640Y-28041668D01*
X87608856Y-28035355D01*
X87605709Y-28028701D01*
X87603229Y-28021771D01*
X87601441Y-28014632D01*
X87600361Y-28007351D01*
X87600000Y-28000000D01*
X87600000Y-26675000D01*
X87600361Y-26667649D01*
X87601441Y-26660368D01*
X87603229Y-26653229D01*
X87605709Y-26646299D01*
X87608856Y-26639645D01*
X87612640Y-26633332D01*
X87617024Y-26627421D01*
X87621967Y-26621967D01*
X87627421Y-26617024D01*
X87633332Y-26612640D01*
X87639645Y-26608856D01*
X87646299Y-26605709D01*
X87653229Y-26603229D01*
X87660368Y-26601441D01*
X87667649Y-26600361D01*
X87675000Y-26600000D01*
X87825000Y-26600000D01*
X87832351Y-26600361D01*
G37*
G36*
X88332351Y-26600361D02*
G01*
X88339632Y-26601441D01*
X88346771Y-26603229D01*
X88353701Y-26605709D01*
X88360355Y-26608856D01*
X88366668Y-26612640D01*
X88372579Y-26617024D01*
X88378033Y-26621967D01*
X88382976Y-26627421D01*
X88387360Y-26633332D01*
X88391144Y-26639645D01*
X88394291Y-26646299D01*
X88396771Y-26653229D01*
X88398559Y-26660368D01*
X88399639Y-26667649D01*
X88400000Y-26675000D01*
X88400000Y-28000000D01*
X88399639Y-28007351D01*
X88398559Y-28014632D01*
X88396771Y-28021771D01*
X88394291Y-28028701D01*
X88391144Y-28035355D01*
X88387360Y-28041668D01*
X88382976Y-28047579D01*
X88378033Y-28053033D01*
X88372579Y-28057976D01*
X88366668Y-28062360D01*
X88360355Y-28066144D01*
X88353701Y-28069291D01*
X88346771Y-28071771D01*
X88339632Y-28073559D01*
X88332351Y-28074639D01*
X88325000Y-28075000D01*
X88175000Y-28075000D01*
X88167649Y-28074639D01*
X88160368Y-28073559D01*
X88153229Y-28071771D01*
X88146299Y-28069291D01*
X88139645Y-28066144D01*
X88133332Y-28062360D01*
X88127421Y-28057976D01*
X88121967Y-28053033D01*
X88117024Y-28047579D01*
X88112640Y-28041668D01*
X88108856Y-28035355D01*
X88105709Y-28028701D01*
X88103229Y-28021771D01*
X88101441Y-28014632D01*
X88100361Y-28007351D01*
X88100000Y-28000000D01*
X88100000Y-26675000D01*
X88100361Y-26667649D01*
X88101441Y-26660368D01*
X88103229Y-26653229D01*
X88105709Y-26646299D01*
X88108856Y-26639645D01*
X88112640Y-26633332D01*
X88117024Y-26627421D01*
X88121967Y-26621967D01*
X88127421Y-26617024D01*
X88133332Y-26612640D01*
X88139645Y-26608856D01*
X88146299Y-26605709D01*
X88153229Y-26603229D01*
X88160368Y-26601441D01*
X88167649Y-26600361D01*
X88175000Y-26600000D01*
X88325000Y-26600000D01*
X88332351Y-26600361D01*
G37*
G36*
X88832351Y-26600361D02*
G01*
X88839632Y-26601441D01*
X88846771Y-26603229D01*
X88853701Y-26605709D01*
X88860355Y-26608856D01*
X88866668Y-26612640D01*
X88872579Y-26617024D01*
X88878033Y-26621967D01*
X88882976Y-26627421D01*
X88887360Y-26633332D01*
X88891144Y-26639645D01*
X88894291Y-26646299D01*
X88896771Y-26653229D01*
X88898559Y-26660368D01*
X88899639Y-26667649D01*
X88900000Y-26675000D01*
X88900000Y-28000000D01*
X88899639Y-28007351D01*
X88898559Y-28014632D01*
X88896771Y-28021771D01*
X88894291Y-28028701D01*
X88891144Y-28035355D01*
X88887360Y-28041668D01*
X88882976Y-28047579D01*
X88878033Y-28053033D01*
X88872579Y-28057976D01*
X88866668Y-28062360D01*
X88860355Y-28066144D01*
X88853701Y-28069291D01*
X88846771Y-28071771D01*
X88839632Y-28073559D01*
X88832351Y-28074639D01*
X88825000Y-28075000D01*
X88675000Y-28075000D01*
X88667649Y-28074639D01*
X88660368Y-28073559D01*
X88653229Y-28071771D01*
X88646299Y-28069291D01*
X88639645Y-28066144D01*
X88633332Y-28062360D01*
X88627421Y-28057976D01*
X88621967Y-28053033D01*
X88617024Y-28047579D01*
X88612640Y-28041668D01*
X88608856Y-28035355D01*
X88605709Y-28028701D01*
X88603229Y-28021771D01*
X88601441Y-28014632D01*
X88600361Y-28007351D01*
X88600000Y-28000000D01*
X88600000Y-26675000D01*
X88600361Y-26667649D01*
X88601441Y-26660368D01*
X88603229Y-26653229D01*
X88605709Y-26646299D01*
X88608856Y-26639645D01*
X88612640Y-26633332D01*
X88617024Y-26627421D01*
X88621967Y-26621967D01*
X88627421Y-26617024D01*
X88633332Y-26612640D01*
X88639645Y-26608856D01*
X88646299Y-26605709D01*
X88653229Y-26603229D01*
X88660368Y-26601441D01*
X88667649Y-26600361D01*
X88675000Y-26600000D01*
X88825000Y-26600000D01*
X88832351Y-26600361D01*
G37*
G36*
X89332351Y-26600361D02*
G01*
X89339632Y-26601441D01*
X89346771Y-26603229D01*
X89353701Y-26605709D01*
X89360355Y-26608856D01*
X89366668Y-26612640D01*
X89372579Y-26617024D01*
X89378033Y-26621967D01*
X89382976Y-26627421D01*
X89387360Y-26633332D01*
X89391144Y-26639645D01*
X89394291Y-26646299D01*
X89396771Y-26653229D01*
X89398559Y-26660368D01*
X89399639Y-26667649D01*
X89400000Y-26675000D01*
X89400000Y-28000000D01*
X89399639Y-28007351D01*
X89398559Y-28014632D01*
X89396771Y-28021771D01*
X89394291Y-28028701D01*
X89391144Y-28035355D01*
X89387360Y-28041668D01*
X89382976Y-28047579D01*
X89378033Y-28053033D01*
X89372579Y-28057976D01*
X89366668Y-28062360D01*
X89360355Y-28066144D01*
X89353701Y-28069291D01*
X89346771Y-28071771D01*
X89339632Y-28073559D01*
X89332351Y-28074639D01*
X89325000Y-28075000D01*
X89175000Y-28075000D01*
X89167649Y-28074639D01*
X89160368Y-28073559D01*
X89153229Y-28071771D01*
X89146299Y-28069291D01*
X89139645Y-28066144D01*
X89133332Y-28062360D01*
X89127421Y-28057976D01*
X89121967Y-28053033D01*
X89117024Y-28047579D01*
X89112640Y-28041668D01*
X89108856Y-28035355D01*
X89105709Y-28028701D01*
X89103229Y-28021771D01*
X89101441Y-28014632D01*
X89100361Y-28007351D01*
X89100000Y-28000000D01*
X89100000Y-26675000D01*
X89100361Y-26667649D01*
X89101441Y-26660368D01*
X89103229Y-26653229D01*
X89105709Y-26646299D01*
X89108856Y-26639645D01*
X89112640Y-26633332D01*
X89117024Y-26627421D01*
X89121967Y-26621967D01*
X89127421Y-26617024D01*
X89133332Y-26612640D01*
X89139645Y-26608856D01*
X89146299Y-26605709D01*
X89153229Y-26603229D01*
X89160368Y-26601441D01*
X89167649Y-26600361D01*
X89175000Y-26600000D01*
X89325000Y-26600000D01*
X89332351Y-26600361D01*
G37*
G36*
X89832351Y-26600361D02*
G01*
X89839632Y-26601441D01*
X89846771Y-26603229D01*
X89853701Y-26605709D01*
X89860355Y-26608856D01*
X89866668Y-26612640D01*
X89872579Y-26617024D01*
X89878033Y-26621967D01*
X89882976Y-26627421D01*
X89887360Y-26633332D01*
X89891144Y-26639645D01*
X89894291Y-26646299D01*
X89896771Y-26653229D01*
X89898559Y-26660368D01*
X89899639Y-26667649D01*
X89900000Y-26675000D01*
X89900000Y-28000000D01*
X89899639Y-28007351D01*
X89898559Y-28014632D01*
X89896771Y-28021771D01*
X89894291Y-28028701D01*
X89891144Y-28035355D01*
X89887360Y-28041668D01*
X89882976Y-28047579D01*
X89878033Y-28053033D01*
X89872579Y-28057976D01*
X89866668Y-28062360D01*
X89860355Y-28066144D01*
X89853701Y-28069291D01*
X89846771Y-28071771D01*
X89839632Y-28073559D01*
X89832351Y-28074639D01*
X89825000Y-28075000D01*
X89675000Y-28075000D01*
X89667649Y-28074639D01*
X89660368Y-28073559D01*
X89653229Y-28071771D01*
X89646299Y-28069291D01*
X89639645Y-28066144D01*
X89633332Y-28062360D01*
X89627421Y-28057976D01*
X89621967Y-28053033D01*
X89617024Y-28047579D01*
X89612640Y-28041668D01*
X89608856Y-28035355D01*
X89605709Y-28028701D01*
X89603229Y-28021771D01*
X89601441Y-28014632D01*
X89600361Y-28007351D01*
X89600000Y-28000000D01*
X89600000Y-26675000D01*
X89600361Y-26667649D01*
X89601441Y-26660368D01*
X89603229Y-26653229D01*
X89605709Y-26646299D01*
X89608856Y-26639645D01*
X89612640Y-26633332D01*
X89617024Y-26627421D01*
X89621967Y-26621967D01*
X89627421Y-26617024D01*
X89633332Y-26612640D01*
X89639645Y-26608856D01*
X89646299Y-26605709D01*
X89653229Y-26603229D01*
X89660368Y-26601441D01*
X89667649Y-26600361D01*
X89675000Y-26600000D01*
X89825000Y-26600000D01*
X89832351Y-26600361D01*
G37*
G36*
X90332351Y-26600361D02*
G01*
X90339632Y-26601441D01*
X90346771Y-26603229D01*
X90353701Y-26605709D01*
X90360355Y-26608856D01*
X90366668Y-26612640D01*
X90372579Y-26617024D01*
X90378033Y-26621967D01*
X90382976Y-26627421D01*
X90387360Y-26633332D01*
X90391144Y-26639645D01*
X90394291Y-26646299D01*
X90396771Y-26653229D01*
X90398559Y-26660368D01*
X90399639Y-26667649D01*
X90400000Y-26675000D01*
X90400000Y-28000000D01*
X90399639Y-28007351D01*
X90398559Y-28014632D01*
X90396771Y-28021771D01*
X90394291Y-28028701D01*
X90391144Y-28035355D01*
X90387360Y-28041668D01*
X90382976Y-28047579D01*
X90378033Y-28053033D01*
X90372579Y-28057976D01*
X90366668Y-28062360D01*
X90360355Y-28066144D01*
X90353701Y-28069291D01*
X90346771Y-28071771D01*
X90339632Y-28073559D01*
X90332351Y-28074639D01*
X90325000Y-28075000D01*
X90175000Y-28075000D01*
X90167649Y-28074639D01*
X90160368Y-28073559D01*
X90153229Y-28071771D01*
X90146299Y-28069291D01*
X90139645Y-28066144D01*
X90133332Y-28062360D01*
X90127421Y-28057976D01*
X90121967Y-28053033D01*
X90117024Y-28047579D01*
X90112640Y-28041668D01*
X90108856Y-28035355D01*
X90105709Y-28028701D01*
X90103229Y-28021771D01*
X90101441Y-28014632D01*
X90100361Y-28007351D01*
X90100000Y-28000000D01*
X90100000Y-26675000D01*
X90100361Y-26667649D01*
X90101441Y-26660368D01*
X90103229Y-26653229D01*
X90105709Y-26646299D01*
X90108856Y-26639645D01*
X90112640Y-26633332D01*
X90117024Y-26627421D01*
X90121967Y-26621967D01*
X90127421Y-26617024D01*
X90133332Y-26612640D01*
X90139645Y-26608856D01*
X90146299Y-26605709D01*
X90153229Y-26603229D01*
X90160368Y-26601441D01*
X90167649Y-26600361D01*
X90175000Y-26600000D01*
X90325000Y-26600000D01*
X90332351Y-26600361D01*
G37*
G36*
X90832351Y-26600361D02*
G01*
X90839632Y-26601441D01*
X90846771Y-26603229D01*
X90853701Y-26605709D01*
X90860355Y-26608856D01*
X90866668Y-26612640D01*
X90872579Y-26617024D01*
X90878033Y-26621967D01*
X90882976Y-26627421D01*
X90887360Y-26633332D01*
X90891144Y-26639645D01*
X90894291Y-26646299D01*
X90896771Y-26653229D01*
X90898559Y-26660368D01*
X90899639Y-26667649D01*
X90900000Y-26675000D01*
X90900000Y-28000000D01*
X90899639Y-28007351D01*
X90898559Y-28014632D01*
X90896771Y-28021771D01*
X90894291Y-28028701D01*
X90891144Y-28035355D01*
X90887360Y-28041668D01*
X90882976Y-28047579D01*
X90878033Y-28053033D01*
X90872579Y-28057976D01*
X90866668Y-28062360D01*
X90860355Y-28066144D01*
X90853701Y-28069291D01*
X90846771Y-28071771D01*
X90839632Y-28073559D01*
X90832351Y-28074639D01*
X90825000Y-28075000D01*
X90675000Y-28075000D01*
X90667649Y-28074639D01*
X90660368Y-28073559D01*
X90653229Y-28071771D01*
X90646299Y-28069291D01*
X90639645Y-28066144D01*
X90633332Y-28062360D01*
X90627421Y-28057976D01*
X90621967Y-28053033D01*
X90617024Y-28047579D01*
X90612640Y-28041668D01*
X90608856Y-28035355D01*
X90605709Y-28028701D01*
X90603229Y-28021771D01*
X90601441Y-28014632D01*
X90600361Y-28007351D01*
X90600000Y-28000000D01*
X90600000Y-26675000D01*
X90600361Y-26667649D01*
X90601441Y-26660368D01*
X90603229Y-26653229D01*
X90605709Y-26646299D01*
X90608856Y-26639645D01*
X90612640Y-26633332D01*
X90617024Y-26627421D01*
X90621967Y-26621967D01*
X90627421Y-26617024D01*
X90633332Y-26612640D01*
X90639645Y-26608856D01*
X90646299Y-26605709D01*
X90653229Y-26603229D01*
X90660368Y-26601441D01*
X90667649Y-26600361D01*
X90675000Y-26600000D01*
X90825000Y-26600000D01*
X90832351Y-26600361D01*
G37*
G36*
X91332351Y-26600361D02*
G01*
X91339632Y-26601441D01*
X91346771Y-26603229D01*
X91353701Y-26605709D01*
X91360355Y-26608856D01*
X91366668Y-26612640D01*
X91372579Y-26617024D01*
X91378033Y-26621967D01*
X91382976Y-26627421D01*
X91387360Y-26633332D01*
X91391144Y-26639645D01*
X91394291Y-26646299D01*
X91396771Y-26653229D01*
X91398559Y-26660368D01*
X91399639Y-26667649D01*
X91400000Y-26675000D01*
X91400000Y-28000000D01*
X91399639Y-28007351D01*
X91398559Y-28014632D01*
X91396771Y-28021771D01*
X91394291Y-28028701D01*
X91391144Y-28035355D01*
X91387360Y-28041668D01*
X91382976Y-28047579D01*
X91378033Y-28053033D01*
X91372579Y-28057976D01*
X91366668Y-28062360D01*
X91360355Y-28066144D01*
X91353701Y-28069291D01*
X91346771Y-28071771D01*
X91339632Y-28073559D01*
X91332351Y-28074639D01*
X91325000Y-28075000D01*
X91175000Y-28075000D01*
X91167649Y-28074639D01*
X91160368Y-28073559D01*
X91153229Y-28071771D01*
X91146299Y-28069291D01*
X91139645Y-28066144D01*
X91133332Y-28062360D01*
X91127421Y-28057976D01*
X91121967Y-28053033D01*
X91117024Y-28047579D01*
X91112640Y-28041668D01*
X91108856Y-28035355D01*
X91105709Y-28028701D01*
X91103229Y-28021771D01*
X91101441Y-28014632D01*
X91100361Y-28007351D01*
X91100000Y-28000000D01*
X91100000Y-26675000D01*
X91100361Y-26667649D01*
X91101441Y-26660368D01*
X91103229Y-26653229D01*
X91105709Y-26646299D01*
X91108856Y-26639645D01*
X91112640Y-26633332D01*
X91117024Y-26627421D01*
X91121967Y-26621967D01*
X91127421Y-26617024D01*
X91133332Y-26612640D01*
X91139645Y-26608856D01*
X91146299Y-26605709D01*
X91153229Y-26603229D01*
X91160368Y-26601441D01*
X91167649Y-26600361D01*
X91175000Y-26600000D01*
X91325000Y-26600000D01*
X91332351Y-26600361D01*
G37*
G36*
X91832351Y-26600361D02*
G01*
X91839632Y-26601441D01*
X91846771Y-26603229D01*
X91853701Y-26605709D01*
X91860355Y-26608856D01*
X91866668Y-26612640D01*
X91872579Y-26617024D01*
X91878033Y-26621967D01*
X91882976Y-26627421D01*
X91887360Y-26633332D01*
X91891144Y-26639645D01*
X91894291Y-26646299D01*
X91896771Y-26653229D01*
X91898559Y-26660368D01*
X91899639Y-26667649D01*
X91900000Y-26675000D01*
X91900000Y-28000000D01*
X91899639Y-28007351D01*
X91898559Y-28014632D01*
X91896771Y-28021771D01*
X91894291Y-28028701D01*
X91891144Y-28035355D01*
X91887360Y-28041668D01*
X91882976Y-28047579D01*
X91878033Y-28053033D01*
X91872579Y-28057976D01*
X91866668Y-28062360D01*
X91860355Y-28066144D01*
X91853701Y-28069291D01*
X91846771Y-28071771D01*
X91839632Y-28073559D01*
X91832351Y-28074639D01*
X91825000Y-28075000D01*
X91675000Y-28075000D01*
X91667649Y-28074639D01*
X91660368Y-28073559D01*
X91653229Y-28071771D01*
X91646299Y-28069291D01*
X91639645Y-28066144D01*
X91633332Y-28062360D01*
X91627421Y-28057976D01*
X91621967Y-28053033D01*
X91617024Y-28047579D01*
X91612640Y-28041668D01*
X91608856Y-28035355D01*
X91605709Y-28028701D01*
X91603229Y-28021771D01*
X91601441Y-28014632D01*
X91600361Y-28007351D01*
X91600000Y-28000000D01*
X91600000Y-26675000D01*
X91600361Y-26667649D01*
X91601441Y-26660368D01*
X91603229Y-26653229D01*
X91605709Y-26646299D01*
X91608856Y-26639645D01*
X91612640Y-26633332D01*
X91617024Y-26627421D01*
X91621967Y-26621967D01*
X91627421Y-26617024D01*
X91633332Y-26612640D01*
X91639645Y-26608856D01*
X91646299Y-26605709D01*
X91653229Y-26603229D01*
X91660368Y-26601441D01*
X91667649Y-26600361D01*
X91675000Y-26600000D01*
X91825000Y-26600000D01*
X91832351Y-26600361D01*
G37*
G36*
X92332351Y-26600361D02*
G01*
X92339632Y-26601441D01*
X92346771Y-26603229D01*
X92353701Y-26605709D01*
X92360355Y-26608856D01*
X92366668Y-26612640D01*
X92372579Y-26617024D01*
X92378033Y-26621967D01*
X92382976Y-26627421D01*
X92387360Y-26633332D01*
X92391144Y-26639645D01*
X92394291Y-26646299D01*
X92396771Y-26653229D01*
X92398559Y-26660368D01*
X92399639Y-26667649D01*
X92400000Y-26675000D01*
X92400000Y-28000000D01*
X92399639Y-28007351D01*
X92398559Y-28014632D01*
X92396771Y-28021771D01*
X92394291Y-28028701D01*
X92391144Y-28035355D01*
X92387360Y-28041668D01*
X92382976Y-28047579D01*
X92378033Y-28053033D01*
X92372579Y-28057976D01*
X92366668Y-28062360D01*
X92360355Y-28066144D01*
X92353701Y-28069291D01*
X92346771Y-28071771D01*
X92339632Y-28073559D01*
X92332351Y-28074639D01*
X92325000Y-28075000D01*
X92175000Y-28075000D01*
X92167649Y-28074639D01*
X92160368Y-28073559D01*
X92153229Y-28071771D01*
X92146299Y-28069291D01*
X92139645Y-28066144D01*
X92133332Y-28062360D01*
X92127421Y-28057976D01*
X92121967Y-28053033D01*
X92117024Y-28047579D01*
X92112640Y-28041668D01*
X92108856Y-28035355D01*
X92105709Y-28028701D01*
X92103229Y-28021771D01*
X92101441Y-28014632D01*
X92100361Y-28007351D01*
X92100000Y-28000000D01*
X92100000Y-26675000D01*
X92100361Y-26667649D01*
X92101441Y-26660368D01*
X92103229Y-26653229D01*
X92105709Y-26646299D01*
X92108856Y-26639645D01*
X92112640Y-26633332D01*
X92117024Y-26627421D01*
X92121967Y-26621967D01*
X92127421Y-26617024D01*
X92133332Y-26612640D01*
X92139645Y-26608856D01*
X92146299Y-26605709D01*
X92153229Y-26603229D01*
X92160368Y-26601441D01*
X92167649Y-26600361D01*
X92175000Y-26600000D01*
X92325000Y-26600000D01*
X92332351Y-26600361D01*
G37*
G36*
X92832351Y-26600361D02*
G01*
X92839632Y-26601441D01*
X92846771Y-26603229D01*
X92853701Y-26605709D01*
X92860355Y-26608856D01*
X92866668Y-26612640D01*
X92872579Y-26617024D01*
X92878033Y-26621967D01*
X92882976Y-26627421D01*
X92887360Y-26633332D01*
X92891144Y-26639645D01*
X92894291Y-26646299D01*
X92896771Y-26653229D01*
X92898559Y-26660368D01*
X92899639Y-26667649D01*
X92900000Y-26675000D01*
X92900000Y-28000000D01*
X92899639Y-28007351D01*
X92898559Y-28014632D01*
X92896771Y-28021771D01*
X92894291Y-28028701D01*
X92891144Y-28035355D01*
X92887360Y-28041668D01*
X92882976Y-28047579D01*
X92878033Y-28053033D01*
X92872579Y-28057976D01*
X92866668Y-28062360D01*
X92860355Y-28066144D01*
X92853701Y-28069291D01*
X92846771Y-28071771D01*
X92839632Y-28073559D01*
X92832351Y-28074639D01*
X92825000Y-28075000D01*
X92675000Y-28075000D01*
X92667649Y-28074639D01*
X92660368Y-28073559D01*
X92653229Y-28071771D01*
X92646299Y-28069291D01*
X92639645Y-28066144D01*
X92633332Y-28062360D01*
X92627421Y-28057976D01*
X92621967Y-28053033D01*
X92617024Y-28047579D01*
X92612640Y-28041668D01*
X92608856Y-28035355D01*
X92605709Y-28028701D01*
X92603229Y-28021771D01*
X92601441Y-28014632D01*
X92600361Y-28007351D01*
X92600000Y-28000000D01*
X92600000Y-26675000D01*
X92600361Y-26667649D01*
X92601441Y-26660368D01*
X92603229Y-26653229D01*
X92605709Y-26646299D01*
X92608856Y-26639645D01*
X92612640Y-26633332D01*
X92617024Y-26627421D01*
X92621967Y-26621967D01*
X92627421Y-26617024D01*
X92633332Y-26612640D01*
X92639645Y-26608856D01*
X92646299Y-26605709D01*
X92653229Y-26603229D01*
X92660368Y-26601441D01*
X92667649Y-26600361D01*
X92675000Y-26600000D01*
X92825000Y-26600000D01*
X92832351Y-26600361D01*
G37*
G36*
X94832351Y-28600361D02*
G01*
X94839632Y-28601441D01*
X94846771Y-28603229D01*
X94853701Y-28605709D01*
X94860355Y-28608856D01*
X94866668Y-28612640D01*
X94872579Y-28617024D01*
X94878033Y-28621967D01*
X94882976Y-28627421D01*
X94887360Y-28633332D01*
X94891144Y-28639645D01*
X94894291Y-28646299D01*
X94896771Y-28653229D01*
X94898559Y-28660368D01*
X94899639Y-28667649D01*
X94900000Y-28675000D01*
X94900000Y-28825000D01*
X94899639Y-28832351D01*
X94898559Y-28839632D01*
X94896771Y-28846771D01*
X94894291Y-28853701D01*
X94891144Y-28860355D01*
X94887360Y-28866668D01*
X94882976Y-28872579D01*
X94878033Y-28878033D01*
X94872579Y-28882976D01*
X94866668Y-28887360D01*
X94860355Y-28891144D01*
X94853701Y-28894291D01*
X94846771Y-28896771D01*
X94839632Y-28898559D01*
X94832351Y-28899639D01*
X94825000Y-28900000D01*
X93500000Y-28900000D01*
X93492649Y-28899639D01*
X93485368Y-28898559D01*
X93478229Y-28896771D01*
X93471299Y-28894291D01*
X93464645Y-28891144D01*
X93458332Y-28887360D01*
X93452421Y-28882976D01*
X93446967Y-28878033D01*
X93442024Y-28872579D01*
X93437640Y-28866668D01*
X93433856Y-28860355D01*
X93430709Y-28853701D01*
X93428229Y-28846771D01*
X93426441Y-28839632D01*
X93425361Y-28832351D01*
X93425000Y-28825000D01*
X93425000Y-28675000D01*
X93425361Y-28667649D01*
X93426441Y-28660368D01*
X93428229Y-28653229D01*
X93430709Y-28646299D01*
X93433856Y-28639645D01*
X93437640Y-28633332D01*
X93442024Y-28627421D01*
X93446967Y-28621967D01*
X93452421Y-28617024D01*
X93458332Y-28612640D01*
X93464645Y-28608856D01*
X93471299Y-28605709D01*
X93478229Y-28603229D01*
X93485368Y-28601441D01*
X93492649Y-28600361D01*
X93500000Y-28600000D01*
X94825000Y-28600000D01*
X94832351Y-28600361D01*
G37*
G36*
X94832351Y-29100361D02*
G01*
X94839632Y-29101441D01*
X94846771Y-29103229D01*
X94853701Y-29105709D01*
X94860355Y-29108856D01*
X94866668Y-29112640D01*
X94872579Y-29117024D01*
X94878033Y-29121967D01*
X94882976Y-29127421D01*
X94887360Y-29133332D01*
X94891144Y-29139645D01*
X94894291Y-29146299D01*
X94896771Y-29153229D01*
X94898559Y-29160368D01*
X94899639Y-29167649D01*
X94900000Y-29175000D01*
X94900000Y-29325000D01*
X94899639Y-29332351D01*
X94898559Y-29339632D01*
X94896771Y-29346771D01*
X94894291Y-29353701D01*
X94891144Y-29360355D01*
X94887360Y-29366668D01*
X94882976Y-29372579D01*
X94878033Y-29378033D01*
X94872579Y-29382976D01*
X94866668Y-29387360D01*
X94860355Y-29391144D01*
X94853701Y-29394291D01*
X94846771Y-29396771D01*
X94839632Y-29398559D01*
X94832351Y-29399639D01*
X94825000Y-29400000D01*
X93500000Y-29400000D01*
X93492649Y-29399639D01*
X93485368Y-29398559D01*
X93478229Y-29396771D01*
X93471299Y-29394291D01*
X93464645Y-29391144D01*
X93458332Y-29387360D01*
X93452421Y-29382976D01*
X93446967Y-29378033D01*
X93442024Y-29372579D01*
X93437640Y-29366668D01*
X93433856Y-29360355D01*
X93430709Y-29353701D01*
X93428229Y-29346771D01*
X93426441Y-29339632D01*
X93425361Y-29332351D01*
X93425000Y-29325000D01*
X93425000Y-29175000D01*
X93425361Y-29167649D01*
X93426441Y-29160368D01*
X93428229Y-29153229D01*
X93430709Y-29146299D01*
X93433856Y-29139645D01*
X93437640Y-29133332D01*
X93442024Y-29127421D01*
X93446967Y-29121967D01*
X93452421Y-29117024D01*
X93458332Y-29112640D01*
X93464645Y-29108856D01*
X93471299Y-29105709D01*
X93478229Y-29103229D01*
X93485368Y-29101441D01*
X93492649Y-29100361D01*
X93500000Y-29100000D01*
X94825000Y-29100000D01*
X94832351Y-29100361D01*
G37*
G36*
X94832351Y-29600361D02*
G01*
X94839632Y-29601441D01*
X94846771Y-29603229D01*
X94853701Y-29605709D01*
X94860355Y-29608856D01*
X94866668Y-29612640D01*
X94872579Y-29617024D01*
X94878033Y-29621967D01*
X94882976Y-29627421D01*
X94887360Y-29633332D01*
X94891144Y-29639645D01*
X94894291Y-29646299D01*
X94896771Y-29653229D01*
X94898559Y-29660368D01*
X94899639Y-29667649D01*
X94900000Y-29675000D01*
X94900000Y-29825000D01*
X94899639Y-29832351D01*
X94898559Y-29839632D01*
X94896771Y-29846771D01*
X94894291Y-29853701D01*
X94891144Y-29860355D01*
X94887360Y-29866668D01*
X94882976Y-29872579D01*
X94878033Y-29878033D01*
X94872579Y-29882976D01*
X94866668Y-29887360D01*
X94860355Y-29891144D01*
X94853701Y-29894291D01*
X94846771Y-29896771D01*
X94839632Y-29898559D01*
X94832351Y-29899639D01*
X94825000Y-29900000D01*
X93500000Y-29900000D01*
X93492649Y-29899639D01*
X93485368Y-29898559D01*
X93478229Y-29896771D01*
X93471299Y-29894291D01*
X93464645Y-29891144D01*
X93458332Y-29887360D01*
X93452421Y-29882976D01*
X93446967Y-29878033D01*
X93442024Y-29872579D01*
X93437640Y-29866668D01*
X93433856Y-29860355D01*
X93430709Y-29853701D01*
X93428229Y-29846771D01*
X93426441Y-29839632D01*
X93425361Y-29832351D01*
X93425000Y-29825000D01*
X93425000Y-29675000D01*
X93425361Y-29667649D01*
X93426441Y-29660368D01*
X93428229Y-29653229D01*
X93430709Y-29646299D01*
X93433856Y-29639645D01*
X93437640Y-29633332D01*
X93442024Y-29627421D01*
X93446967Y-29621967D01*
X93452421Y-29617024D01*
X93458332Y-29612640D01*
X93464645Y-29608856D01*
X93471299Y-29605709D01*
X93478229Y-29603229D01*
X93485368Y-29601441D01*
X93492649Y-29600361D01*
X93500000Y-29600000D01*
X94825000Y-29600000D01*
X94832351Y-29600361D01*
G37*
G36*
X94832351Y-30100361D02*
G01*
X94839632Y-30101441D01*
X94846771Y-30103229D01*
X94853701Y-30105709D01*
X94860355Y-30108856D01*
X94866668Y-30112640D01*
X94872579Y-30117024D01*
X94878033Y-30121967D01*
X94882976Y-30127421D01*
X94887360Y-30133332D01*
X94891144Y-30139645D01*
X94894291Y-30146299D01*
X94896771Y-30153229D01*
X94898559Y-30160368D01*
X94899639Y-30167649D01*
X94900000Y-30175000D01*
X94900000Y-30325000D01*
X94899639Y-30332351D01*
X94898559Y-30339632D01*
X94896771Y-30346771D01*
X94894291Y-30353701D01*
X94891144Y-30360355D01*
X94887360Y-30366668D01*
X94882976Y-30372579D01*
X94878033Y-30378033D01*
X94872579Y-30382976D01*
X94866668Y-30387360D01*
X94860355Y-30391144D01*
X94853701Y-30394291D01*
X94846771Y-30396771D01*
X94839632Y-30398559D01*
X94832351Y-30399639D01*
X94825000Y-30400000D01*
X93500000Y-30400000D01*
X93492649Y-30399639D01*
X93485368Y-30398559D01*
X93478229Y-30396771D01*
X93471299Y-30394291D01*
X93464645Y-30391144D01*
X93458332Y-30387360D01*
X93452421Y-30382976D01*
X93446967Y-30378033D01*
X93442024Y-30372579D01*
X93437640Y-30366668D01*
X93433856Y-30360355D01*
X93430709Y-30353701D01*
X93428229Y-30346771D01*
X93426441Y-30339632D01*
X93425361Y-30332351D01*
X93425000Y-30325000D01*
X93425000Y-30175000D01*
X93425361Y-30167649D01*
X93426441Y-30160368D01*
X93428229Y-30153229D01*
X93430709Y-30146299D01*
X93433856Y-30139645D01*
X93437640Y-30133332D01*
X93442024Y-30127421D01*
X93446967Y-30121967D01*
X93452421Y-30117024D01*
X93458332Y-30112640D01*
X93464645Y-30108856D01*
X93471299Y-30105709D01*
X93478229Y-30103229D01*
X93485368Y-30101441D01*
X93492649Y-30100361D01*
X93500000Y-30100000D01*
X94825000Y-30100000D01*
X94832351Y-30100361D01*
G37*
G36*
X94832351Y-30600361D02*
G01*
X94839632Y-30601441D01*
X94846771Y-30603229D01*
X94853701Y-30605709D01*
X94860355Y-30608856D01*
X94866668Y-30612640D01*
X94872579Y-30617024D01*
X94878033Y-30621967D01*
X94882976Y-30627421D01*
X94887360Y-30633332D01*
X94891144Y-30639645D01*
X94894291Y-30646299D01*
X94896771Y-30653229D01*
X94898559Y-30660368D01*
X94899639Y-30667649D01*
X94900000Y-30675000D01*
X94900000Y-30825000D01*
X94899639Y-30832351D01*
X94898559Y-30839632D01*
X94896771Y-30846771D01*
X94894291Y-30853701D01*
X94891144Y-30860355D01*
X94887360Y-30866668D01*
X94882976Y-30872579D01*
X94878033Y-30878033D01*
X94872579Y-30882976D01*
X94866668Y-30887360D01*
X94860355Y-30891144D01*
X94853701Y-30894291D01*
X94846771Y-30896771D01*
X94839632Y-30898559D01*
X94832351Y-30899639D01*
X94825000Y-30900000D01*
X93500000Y-30900000D01*
X93492649Y-30899639D01*
X93485368Y-30898559D01*
X93478229Y-30896771D01*
X93471299Y-30894291D01*
X93464645Y-30891144D01*
X93458332Y-30887360D01*
X93452421Y-30882976D01*
X93446967Y-30878033D01*
X93442024Y-30872579D01*
X93437640Y-30866668D01*
X93433856Y-30860355D01*
X93430709Y-30853701D01*
X93428229Y-30846771D01*
X93426441Y-30839632D01*
X93425361Y-30832351D01*
X93425000Y-30825000D01*
X93425000Y-30675000D01*
X93425361Y-30667649D01*
X93426441Y-30660368D01*
X93428229Y-30653229D01*
X93430709Y-30646299D01*
X93433856Y-30639645D01*
X93437640Y-30633332D01*
X93442024Y-30627421D01*
X93446967Y-30621967D01*
X93452421Y-30617024D01*
X93458332Y-30612640D01*
X93464645Y-30608856D01*
X93471299Y-30605709D01*
X93478229Y-30603229D01*
X93485368Y-30601441D01*
X93492649Y-30600361D01*
X93500000Y-30600000D01*
X94825000Y-30600000D01*
X94832351Y-30600361D01*
G37*
G36*
X94832351Y-31100361D02*
G01*
X94839632Y-31101441D01*
X94846771Y-31103229D01*
X94853701Y-31105709D01*
X94860355Y-31108856D01*
X94866668Y-31112640D01*
X94872579Y-31117024D01*
X94878033Y-31121967D01*
X94882976Y-31127421D01*
X94887360Y-31133332D01*
X94891144Y-31139645D01*
X94894291Y-31146299D01*
X94896771Y-31153229D01*
X94898559Y-31160368D01*
X94899639Y-31167649D01*
X94900000Y-31175000D01*
X94900000Y-31325000D01*
X94899639Y-31332351D01*
X94898559Y-31339632D01*
X94896771Y-31346771D01*
X94894291Y-31353701D01*
X94891144Y-31360355D01*
X94887360Y-31366668D01*
X94882976Y-31372579D01*
X94878033Y-31378033D01*
X94872579Y-31382976D01*
X94866668Y-31387360D01*
X94860355Y-31391144D01*
X94853701Y-31394291D01*
X94846771Y-31396771D01*
X94839632Y-31398559D01*
X94832351Y-31399639D01*
X94825000Y-31400000D01*
X93500000Y-31400000D01*
X93492649Y-31399639D01*
X93485368Y-31398559D01*
X93478229Y-31396771D01*
X93471299Y-31394291D01*
X93464645Y-31391144D01*
X93458332Y-31387360D01*
X93452421Y-31382976D01*
X93446967Y-31378033D01*
X93442024Y-31372579D01*
X93437640Y-31366668D01*
X93433856Y-31360355D01*
X93430709Y-31353701D01*
X93428229Y-31346771D01*
X93426441Y-31339632D01*
X93425361Y-31332351D01*
X93425000Y-31325000D01*
X93425000Y-31175000D01*
X93425361Y-31167649D01*
X93426441Y-31160368D01*
X93428229Y-31153229D01*
X93430709Y-31146299D01*
X93433856Y-31139645D01*
X93437640Y-31133332D01*
X93442024Y-31127421D01*
X93446967Y-31121967D01*
X93452421Y-31117024D01*
X93458332Y-31112640D01*
X93464645Y-31108856D01*
X93471299Y-31105709D01*
X93478229Y-31103229D01*
X93485368Y-31101441D01*
X93492649Y-31100361D01*
X93500000Y-31100000D01*
X94825000Y-31100000D01*
X94832351Y-31100361D01*
G37*
G36*
X94832351Y-31600361D02*
G01*
X94839632Y-31601441D01*
X94846771Y-31603229D01*
X94853701Y-31605709D01*
X94860355Y-31608856D01*
X94866668Y-31612640D01*
X94872579Y-31617024D01*
X94878033Y-31621967D01*
X94882976Y-31627421D01*
X94887360Y-31633332D01*
X94891144Y-31639645D01*
X94894291Y-31646299D01*
X94896771Y-31653229D01*
X94898559Y-31660368D01*
X94899639Y-31667649D01*
X94900000Y-31675000D01*
X94900000Y-31825000D01*
X94899639Y-31832351D01*
X94898559Y-31839632D01*
X94896771Y-31846771D01*
X94894291Y-31853701D01*
X94891144Y-31860355D01*
X94887360Y-31866668D01*
X94882976Y-31872579D01*
X94878033Y-31878033D01*
X94872579Y-31882976D01*
X94866668Y-31887360D01*
X94860355Y-31891144D01*
X94853701Y-31894291D01*
X94846771Y-31896771D01*
X94839632Y-31898559D01*
X94832351Y-31899639D01*
X94825000Y-31900000D01*
X93500000Y-31900000D01*
X93492649Y-31899639D01*
X93485368Y-31898559D01*
X93478229Y-31896771D01*
X93471299Y-31894291D01*
X93464645Y-31891144D01*
X93458332Y-31887360D01*
X93452421Y-31882976D01*
X93446967Y-31878033D01*
X93442024Y-31872579D01*
X93437640Y-31866668D01*
X93433856Y-31860355D01*
X93430709Y-31853701D01*
X93428229Y-31846771D01*
X93426441Y-31839632D01*
X93425361Y-31832351D01*
X93425000Y-31825000D01*
X93425000Y-31675000D01*
X93425361Y-31667649D01*
X93426441Y-31660368D01*
X93428229Y-31653229D01*
X93430709Y-31646299D01*
X93433856Y-31639645D01*
X93437640Y-31633332D01*
X93442024Y-31627421D01*
X93446967Y-31621967D01*
X93452421Y-31617024D01*
X93458332Y-31612640D01*
X93464645Y-31608856D01*
X93471299Y-31605709D01*
X93478229Y-31603229D01*
X93485368Y-31601441D01*
X93492649Y-31600361D01*
X93500000Y-31600000D01*
X94825000Y-31600000D01*
X94832351Y-31600361D01*
G37*
G36*
X94832351Y-32100361D02*
G01*
X94839632Y-32101441D01*
X94846771Y-32103229D01*
X94853701Y-32105709D01*
X94860355Y-32108856D01*
X94866668Y-32112640D01*
X94872579Y-32117024D01*
X94878033Y-32121967D01*
X94882976Y-32127421D01*
X94887360Y-32133332D01*
X94891144Y-32139645D01*
X94894291Y-32146299D01*
X94896771Y-32153229D01*
X94898559Y-32160368D01*
X94899639Y-32167649D01*
X94900000Y-32175000D01*
X94900000Y-32325000D01*
X94899639Y-32332351D01*
X94898559Y-32339632D01*
X94896771Y-32346771D01*
X94894291Y-32353701D01*
X94891144Y-32360355D01*
X94887360Y-32366668D01*
X94882976Y-32372579D01*
X94878033Y-32378033D01*
X94872579Y-32382976D01*
X94866668Y-32387360D01*
X94860355Y-32391144D01*
X94853701Y-32394291D01*
X94846771Y-32396771D01*
X94839632Y-32398559D01*
X94832351Y-32399639D01*
X94825000Y-32400000D01*
X93500000Y-32400000D01*
X93492649Y-32399639D01*
X93485368Y-32398559D01*
X93478229Y-32396771D01*
X93471299Y-32394291D01*
X93464645Y-32391144D01*
X93458332Y-32387360D01*
X93452421Y-32382976D01*
X93446967Y-32378033D01*
X93442024Y-32372579D01*
X93437640Y-32366668D01*
X93433856Y-32360355D01*
X93430709Y-32353701D01*
X93428229Y-32346771D01*
X93426441Y-32339632D01*
X93425361Y-32332351D01*
X93425000Y-32325000D01*
X93425000Y-32175000D01*
X93425361Y-32167649D01*
X93426441Y-32160368D01*
X93428229Y-32153229D01*
X93430709Y-32146299D01*
X93433856Y-32139645D01*
X93437640Y-32133332D01*
X93442024Y-32127421D01*
X93446967Y-32121967D01*
X93452421Y-32117024D01*
X93458332Y-32112640D01*
X93464645Y-32108856D01*
X93471299Y-32105709D01*
X93478229Y-32103229D01*
X93485368Y-32101441D01*
X93492649Y-32100361D01*
X93500000Y-32100000D01*
X94825000Y-32100000D01*
X94832351Y-32100361D01*
G37*
G36*
X94832351Y-32600361D02*
G01*
X94839632Y-32601441D01*
X94846771Y-32603229D01*
X94853701Y-32605709D01*
X94860355Y-32608856D01*
X94866668Y-32612640D01*
X94872579Y-32617024D01*
X94878033Y-32621967D01*
X94882976Y-32627421D01*
X94887360Y-32633332D01*
X94891144Y-32639645D01*
X94894291Y-32646299D01*
X94896771Y-32653229D01*
X94898559Y-32660368D01*
X94899639Y-32667649D01*
X94900000Y-32675000D01*
X94900000Y-32825000D01*
X94899639Y-32832351D01*
X94898559Y-32839632D01*
X94896771Y-32846771D01*
X94894291Y-32853701D01*
X94891144Y-32860355D01*
X94887360Y-32866668D01*
X94882976Y-32872579D01*
X94878033Y-32878033D01*
X94872579Y-32882976D01*
X94866668Y-32887360D01*
X94860355Y-32891144D01*
X94853701Y-32894291D01*
X94846771Y-32896771D01*
X94839632Y-32898559D01*
X94832351Y-32899639D01*
X94825000Y-32900000D01*
X93500000Y-32900000D01*
X93492649Y-32899639D01*
X93485368Y-32898559D01*
X93478229Y-32896771D01*
X93471299Y-32894291D01*
X93464645Y-32891144D01*
X93458332Y-32887360D01*
X93452421Y-32882976D01*
X93446967Y-32878033D01*
X93442024Y-32872579D01*
X93437640Y-32866668D01*
X93433856Y-32860355D01*
X93430709Y-32853701D01*
X93428229Y-32846771D01*
X93426441Y-32839632D01*
X93425361Y-32832351D01*
X93425000Y-32825000D01*
X93425000Y-32675000D01*
X93425361Y-32667649D01*
X93426441Y-32660368D01*
X93428229Y-32653229D01*
X93430709Y-32646299D01*
X93433856Y-32639645D01*
X93437640Y-32633332D01*
X93442024Y-32627421D01*
X93446967Y-32621967D01*
X93452421Y-32617024D01*
X93458332Y-32612640D01*
X93464645Y-32608856D01*
X93471299Y-32605709D01*
X93478229Y-32603229D01*
X93485368Y-32601441D01*
X93492649Y-32600361D01*
X93500000Y-32600000D01*
X94825000Y-32600000D01*
X94832351Y-32600361D01*
G37*
G36*
X94832351Y-33100361D02*
G01*
X94839632Y-33101441D01*
X94846771Y-33103229D01*
X94853701Y-33105709D01*
X94860355Y-33108856D01*
X94866668Y-33112640D01*
X94872579Y-33117024D01*
X94878033Y-33121967D01*
X94882976Y-33127421D01*
X94887360Y-33133332D01*
X94891144Y-33139645D01*
X94894291Y-33146299D01*
X94896771Y-33153229D01*
X94898559Y-33160368D01*
X94899639Y-33167649D01*
X94900000Y-33175000D01*
X94900000Y-33325000D01*
X94899639Y-33332351D01*
X94898559Y-33339632D01*
X94896771Y-33346771D01*
X94894291Y-33353701D01*
X94891144Y-33360355D01*
X94887360Y-33366668D01*
X94882976Y-33372579D01*
X94878033Y-33378033D01*
X94872579Y-33382976D01*
X94866668Y-33387360D01*
X94860355Y-33391144D01*
X94853701Y-33394291D01*
X94846771Y-33396771D01*
X94839632Y-33398559D01*
X94832351Y-33399639D01*
X94825000Y-33400000D01*
X93500000Y-33400000D01*
X93492649Y-33399639D01*
X93485368Y-33398559D01*
X93478229Y-33396771D01*
X93471299Y-33394291D01*
X93464645Y-33391144D01*
X93458332Y-33387360D01*
X93452421Y-33382976D01*
X93446967Y-33378033D01*
X93442024Y-33372579D01*
X93437640Y-33366668D01*
X93433856Y-33360355D01*
X93430709Y-33353701D01*
X93428229Y-33346771D01*
X93426441Y-33339632D01*
X93425361Y-33332351D01*
X93425000Y-33325000D01*
X93425000Y-33175000D01*
X93425361Y-33167649D01*
X93426441Y-33160368D01*
X93428229Y-33153229D01*
X93430709Y-33146299D01*
X93433856Y-33139645D01*
X93437640Y-33133332D01*
X93442024Y-33127421D01*
X93446967Y-33121967D01*
X93452421Y-33117024D01*
X93458332Y-33112640D01*
X93464645Y-33108856D01*
X93471299Y-33105709D01*
X93478229Y-33103229D01*
X93485368Y-33101441D01*
X93492649Y-33100361D01*
X93500000Y-33100000D01*
X94825000Y-33100000D01*
X94832351Y-33100361D01*
G37*
G36*
X94832351Y-33600361D02*
G01*
X94839632Y-33601441D01*
X94846771Y-33603229D01*
X94853701Y-33605709D01*
X94860355Y-33608856D01*
X94866668Y-33612640D01*
X94872579Y-33617024D01*
X94878033Y-33621967D01*
X94882976Y-33627421D01*
X94887360Y-33633332D01*
X94891144Y-33639645D01*
X94894291Y-33646299D01*
X94896771Y-33653229D01*
X94898559Y-33660368D01*
X94899639Y-33667649D01*
X94900000Y-33675000D01*
X94900000Y-33825000D01*
X94899639Y-33832351D01*
X94898559Y-33839632D01*
X94896771Y-33846771D01*
X94894291Y-33853701D01*
X94891144Y-33860355D01*
X94887360Y-33866668D01*
X94882976Y-33872579D01*
X94878033Y-33878033D01*
X94872579Y-33882976D01*
X94866668Y-33887360D01*
X94860355Y-33891144D01*
X94853701Y-33894291D01*
X94846771Y-33896771D01*
X94839632Y-33898559D01*
X94832351Y-33899639D01*
X94825000Y-33900000D01*
X93500000Y-33900000D01*
X93492649Y-33899639D01*
X93485368Y-33898559D01*
X93478229Y-33896771D01*
X93471299Y-33894291D01*
X93464645Y-33891144D01*
X93458332Y-33887360D01*
X93452421Y-33882976D01*
X93446967Y-33878033D01*
X93442024Y-33872579D01*
X93437640Y-33866668D01*
X93433856Y-33860355D01*
X93430709Y-33853701D01*
X93428229Y-33846771D01*
X93426441Y-33839632D01*
X93425361Y-33832351D01*
X93425000Y-33825000D01*
X93425000Y-33675000D01*
X93425361Y-33667649D01*
X93426441Y-33660368D01*
X93428229Y-33653229D01*
X93430709Y-33646299D01*
X93433856Y-33639645D01*
X93437640Y-33633332D01*
X93442024Y-33627421D01*
X93446967Y-33621967D01*
X93452421Y-33617024D01*
X93458332Y-33612640D01*
X93464645Y-33608856D01*
X93471299Y-33605709D01*
X93478229Y-33603229D01*
X93485368Y-33601441D01*
X93492649Y-33600361D01*
X93500000Y-33600000D01*
X94825000Y-33600000D01*
X94832351Y-33600361D01*
G37*
G36*
X94832351Y-34100361D02*
G01*
X94839632Y-34101441D01*
X94846771Y-34103229D01*
X94853701Y-34105709D01*
X94860355Y-34108856D01*
X94866668Y-34112640D01*
X94872579Y-34117024D01*
X94878033Y-34121967D01*
X94882976Y-34127421D01*
X94887360Y-34133332D01*
X94891144Y-34139645D01*
X94894291Y-34146299D01*
X94896771Y-34153229D01*
X94898559Y-34160368D01*
X94899639Y-34167649D01*
X94900000Y-34175000D01*
X94900000Y-34325000D01*
X94899639Y-34332351D01*
X94898559Y-34339632D01*
X94896771Y-34346771D01*
X94894291Y-34353701D01*
X94891144Y-34360355D01*
X94887360Y-34366668D01*
X94882976Y-34372579D01*
X94878033Y-34378033D01*
X94872579Y-34382976D01*
X94866668Y-34387360D01*
X94860355Y-34391144D01*
X94853701Y-34394291D01*
X94846771Y-34396771D01*
X94839632Y-34398559D01*
X94832351Y-34399639D01*
X94825000Y-34400000D01*
X93500000Y-34400000D01*
X93492649Y-34399639D01*
X93485368Y-34398559D01*
X93478229Y-34396771D01*
X93471299Y-34394291D01*
X93464645Y-34391144D01*
X93458332Y-34387360D01*
X93452421Y-34382976D01*
X93446967Y-34378033D01*
X93442024Y-34372579D01*
X93437640Y-34366668D01*
X93433856Y-34360355D01*
X93430709Y-34353701D01*
X93428229Y-34346771D01*
X93426441Y-34339632D01*
X93425361Y-34332351D01*
X93425000Y-34325000D01*
X93425000Y-34175000D01*
X93425361Y-34167649D01*
X93426441Y-34160368D01*
X93428229Y-34153229D01*
X93430709Y-34146299D01*
X93433856Y-34139645D01*
X93437640Y-34133332D01*
X93442024Y-34127421D01*
X93446967Y-34121967D01*
X93452421Y-34117024D01*
X93458332Y-34112640D01*
X93464645Y-34108856D01*
X93471299Y-34105709D01*
X93478229Y-34103229D01*
X93485368Y-34101441D01*
X93492649Y-34100361D01*
X93500000Y-34100000D01*
X94825000Y-34100000D01*
X94832351Y-34100361D01*
G37*
G36*
X102158232Y-27180650D02*
G01*
X102171337Y-27182594D01*
X102184188Y-27185813D01*
X102196662Y-27190276D01*
X102208639Y-27195941D01*
X102220002Y-27202752D01*
X102230643Y-27210644D01*
X102240459Y-27219541D01*
X102249356Y-27229357D01*
X102257248Y-27239998D01*
X102264059Y-27251361D01*
X102269724Y-27263338D01*
X102274187Y-27275812D01*
X102277406Y-27288663D01*
X102279350Y-27301768D01*
X102280000Y-27315000D01*
X102280000Y-27685000D01*
X102279350Y-27698232D01*
X102277406Y-27711337D01*
X102274187Y-27724188D01*
X102269724Y-27736662D01*
X102264059Y-27748639D01*
X102257248Y-27760002D01*
X102249356Y-27770643D01*
X102240459Y-27780459D01*
X102230643Y-27789356D01*
X102220002Y-27797248D01*
X102208639Y-27804059D01*
X102196662Y-27809724D01*
X102184188Y-27814187D01*
X102171337Y-27817406D01*
X102158232Y-27819350D01*
X102145000Y-27820000D01*
X101875000Y-27820000D01*
X101861768Y-27819350D01*
X101848663Y-27817406D01*
X101835812Y-27814187D01*
X101823338Y-27809724D01*
X101811361Y-27804059D01*
X101799998Y-27797248D01*
X101789357Y-27789356D01*
X101779541Y-27780459D01*
X101770644Y-27770643D01*
X101762752Y-27760002D01*
X101755941Y-27748639D01*
X101750276Y-27736662D01*
X101745813Y-27724188D01*
X101742594Y-27711337D01*
X101740650Y-27698232D01*
X101740000Y-27685000D01*
X101740000Y-27315000D01*
X101740650Y-27301768D01*
X101742594Y-27288663D01*
X101745813Y-27275812D01*
X101750276Y-27263338D01*
X101755941Y-27251361D01*
X101762752Y-27239998D01*
X101770644Y-27229357D01*
X101779541Y-27219541D01*
X101789357Y-27210644D01*
X101799998Y-27202752D01*
X101811361Y-27195941D01*
X101823338Y-27190276D01*
X101835812Y-27185813D01*
X101848663Y-27182594D01*
X101861768Y-27180650D01*
X101875000Y-27180000D01*
X102145000Y-27180000D01*
X102158232Y-27180650D01*
G37*
G36*
X101138232Y-27180650D02*
G01*
X101151337Y-27182594D01*
X101164188Y-27185813D01*
X101176662Y-27190276D01*
X101188639Y-27195941D01*
X101200002Y-27202752D01*
X101210643Y-27210644D01*
X101220459Y-27219541D01*
X101229356Y-27229357D01*
X101237248Y-27239998D01*
X101244059Y-27251361D01*
X101249724Y-27263338D01*
X101254187Y-27275812D01*
X101257406Y-27288663D01*
X101259350Y-27301768D01*
X101260000Y-27315000D01*
X101260000Y-27685000D01*
X101259350Y-27698232D01*
X101257406Y-27711337D01*
X101254187Y-27724188D01*
X101249724Y-27736662D01*
X101244059Y-27748639D01*
X101237248Y-27760002D01*
X101229356Y-27770643D01*
X101220459Y-27780459D01*
X101210643Y-27789356D01*
X101200002Y-27797248D01*
X101188639Y-27804059D01*
X101176662Y-27809724D01*
X101164188Y-27814187D01*
X101151337Y-27817406D01*
X101138232Y-27819350D01*
X101125000Y-27820000D01*
X100855000Y-27820000D01*
X100841768Y-27819350D01*
X100828663Y-27817406D01*
X100815812Y-27814187D01*
X100803338Y-27809724D01*
X100791361Y-27804059D01*
X100779998Y-27797248D01*
X100769357Y-27789356D01*
X100759541Y-27780459D01*
X100750644Y-27770643D01*
X100742752Y-27760002D01*
X100735941Y-27748639D01*
X100730276Y-27736662D01*
X100725813Y-27724188D01*
X100722594Y-27711337D01*
X100720650Y-27698232D01*
X100720000Y-27685000D01*
X100720000Y-27315000D01*
X100720650Y-27301768D01*
X100722594Y-27288663D01*
X100725813Y-27275812D01*
X100730276Y-27263338D01*
X100735941Y-27251361D01*
X100742752Y-27239998D01*
X100750644Y-27229357D01*
X100759541Y-27219541D01*
X100769357Y-27210644D01*
X100779998Y-27202752D01*
X100791361Y-27195941D01*
X100803338Y-27190276D01*
X100815812Y-27185813D01*
X100828663Y-27182594D01*
X100841768Y-27180650D01*
X100855000Y-27180000D01*
X101125000Y-27180000D01*
X101138232Y-27180650D01*
G37*
G36*
X96948232Y-40470650D02*
G01*
X96961337Y-40472594D01*
X96974188Y-40475813D01*
X96986662Y-40480276D01*
X96998639Y-40485941D01*
X97010002Y-40492752D01*
X97020643Y-40500644D01*
X97030459Y-40509541D01*
X97039356Y-40519357D01*
X97047248Y-40529998D01*
X97054059Y-40541361D01*
X97059724Y-40553338D01*
X97064187Y-40565812D01*
X97067406Y-40578663D01*
X97069350Y-40591768D01*
X97070000Y-40605000D01*
X97070000Y-40875000D01*
X97069350Y-40888232D01*
X97067406Y-40901337D01*
X97064187Y-40914188D01*
X97059724Y-40926662D01*
X97054059Y-40938639D01*
X97047248Y-40950002D01*
X97039356Y-40960643D01*
X97030459Y-40970459D01*
X97020643Y-40979356D01*
X97010002Y-40987248D01*
X96998639Y-40994059D01*
X96986662Y-40999724D01*
X96974188Y-41004187D01*
X96961337Y-41007406D01*
X96948232Y-41009350D01*
X96935000Y-41010000D01*
X96565000Y-41010000D01*
X96551768Y-41009350D01*
X96538663Y-41007406D01*
X96525812Y-41004187D01*
X96513338Y-40999724D01*
X96501361Y-40994059D01*
X96489998Y-40987248D01*
X96479357Y-40979356D01*
X96469541Y-40970459D01*
X96460644Y-40960643D01*
X96452752Y-40950002D01*
X96445941Y-40938639D01*
X96440276Y-40926662D01*
X96435813Y-40914188D01*
X96432594Y-40901337D01*
X96430650Y-40888232D01*
X96430000Y-40875000D01*
X96430000Y-40605000D01*
X96430650Y-40591768D01*
X96432594Y-40578663D01*
X96435813Y-40565812D01*
X96440276Y-40553338D01*
X96445941Y-40541361D01*
X96452752Y-40529998D01*
X96460644Y-40519357D01*
X96469541Y-40509541D01*
X96479357Y-40500644D01*
X96489998Y-40492752D01*
X96501361Y-40485941D01*
X96513338Y-40480276D01*
X96525812Y-40475813D01*
X96538663Y-40472594D01*
X96551768Y-40470650D01*
X96565000Y-40470000D01*
X96935000Y-40470000D01*
X96948232Y-40470650D01*
G37*
G36*
X96948232Y-41490650D02*
G01*
X96961337Y-41492594D01*
X96974188Y-41495813D01*
X96986662Y-41500276D01*
X96998639Y-41505941D01*
X97010002Y-41512752D01*
X97020643Y-41520644D01*
X97030459Y-41529541D01*
X97039356Y-41539357D01*
X97047248Y-41549998D01*
X97054059Y-41561361D01*
X97059724Y-41573338D01*
X97064187Y-41585812D01*
X97067406Y-41598663D01*
X97069350Y-41611768D01*
X97070000Y-41625000D01*
X97070000Y-41895000D01*
X97069350Y-41908232D01*
X97067406Y-41921337D01*
X97064187Y-41934188D01*
X97059724Y-41946662D01*
X97054059Y-41958639D01*
X97047248Y-41970002D01*
X97039356Y-41980643D01*
X97030459Y-41990459D01*
X97020643Y-41999356D01*
X97010002Y-42007248D01*
X96998639Y-42014059D01*
X96986662Y-42019724D01*
X96974188Y-42024187D01*
X96961337Y-42027406D01*
X96948232Y-42029350D01*
X96935000Y-42030000D01*
X96565000Y-42030000D01*
X96551768Y-42029350D01*
X96538663Y-42027406D01*
X96525812Y-42024187D01*
X96513338Y-42019724D01*
X96501361Y-42014059D01*
X96489998Y-42007248D01*
X96479357Y-41999356D01*
X96469541Y-41990459D01*
X96460644Y-41980643D01*
X96452752Y-41970002D01*
X96445941Y-41958639D01*
X96440276Y-41946662D01*
X96435813Y-41934188D01*
X96432594Y-41921337D01*
X96430650Y-41908232D01*
X96430000Y-41895000D01*
X96430000Y-41625000D01*
X96430650Y-41611768D01*
X96432594Y-41598663D01*
X96435813Y-41585812D01*
X96440276Y-41573338D01*
X96445941Y-41561361D01*
X96452752Y-41549998D01*
X96460644Y-41539357D01*
X96469541Y-41529541D01*
X96479357Y-41520644D01*
X96489998Y-41512752D01*
X96501361Y-41505941D01*
X96513338Y-41500276D01*
X96525812Y-41495813D01*
X96538663Y-41492594D01*
X96551768Y-41490650D01*
X96565000Y-41490000D01*
X96935000Y-41490000D01*
X96948232Y-41490650D01*
G37*
G36*
X98948232Y-36470650D02*
G01*
X98961337Y-36472594D01*
X98974188Y-36475813D01*
X98986662Y-36480276D01*
X98998639Y-36485941D01*
X99010002Y-36492752D01*
X99020643Y-36500644D01*
X99030459Y-36509541D01*
X99039356Y-36519357D01*
X99047248Y-36529998D01*
X99054059Y-36541361D01*
X99059724Y-36553338D01*
X99064187Y-36565812D01*
X99067406Y-36578663D01*
X99069350Y-36591768D01*
X99070000Y-36605000D01*
X99070000Y-36875000D01*
X99069350Y-36888232D01*
X99067406Y-36901337D01*
X99064187Y-36914188D01*
X99059724Y-36926662D01*
X99054059Y-36938639D01*
X99047248Y-36950002D01*
X99039356Y-36960643D01*
X99030459Y-36970459D01*
X99020643Y-36979356D01*
X99010002Y-36987248D01*
X98998639Y-36994059D01*
X98986662Y-36999724D01*
X98974188Y-37004187D01*
X98961337Y-37007406D01*
X98948232Y-37009350D01*
X98935000Y-37010000D01*
X98565000Y-37010000D01*
X98551768Y-37009350D01*
X98538663Y-37007406D01*
X98525812Y-37004187D01*
X98513338Y-36999724D01*
X98501361Y-36994059D01*
X98489998Y-36987248D01*
X98479357Y-36979356D01*
X98469541Y-36970459D01*
X98460644Y-36960643D01*
X98452752Y-36950002D01*
X98445941Y-36938639D01*
X98440276Y-36926662D01*
X98435813Y-36914188D01*
X98432594Y-36901337D01*
X98430650Y-36888232D01*
X98430000Y-36875000D01*
X98430000Y-36605000D01*
X98430650Y-36591768D01*
X98432594Y-36578663D01*
X98435813Y-36565812D01*
X98440276Y-36553338D01*
X98445941Y-36541361D01*
X98452752Y-36529998D01*
X98460644Y-36519357D01*
X98469541Y-36509541D01*
X98479357Y-36500644D01*
X98489998Y-36492752D01*
X98501361Y-36485941D01*
X98513338Y-36480276D01*
X98525812Y-36475813D01*
X98538663Y-36472594D01*
X98551768Y-36470650D01*
X98565000Y-36470000D01*
X98935000Y-36470000D01*
X98948232Y-36470650D01*
G37*
G36*
X98948232Y-37490650D02*
G01*
X98961337Y-37492594D01*
X98974188Y-37495813D01*
X98986662Y-37500276D01*
X98998639Y-37505941D01*
X99010002Y-37512752D01*
X99020643Y-37520644D01*
X99030459Y-37529541D01*
X99039356Y-37539357D01*
X99047248Y-37549998D01*
X99054059Y-37561361D01*
X99059724Y-37573338D01*
X99064187Y-37585812D01*
X99067406Y-37598663D01*
X99069350Y-37611768D01*
X99070000Y-37625000D01*
X99070000Y-37895000D01*
X99069350Y-37908232D01*
X99067406Y-37921337D01*
X99064187Y-37934188D01*
X99059724Y-37946662D01*
X99054059Y-37958639D01*
X99047248Y-37970002D01*
X99039356Y-37980643D01*
X99030459Y-37990459D01*
X99020643Y-37999356D01*
X99010002Y-38007248D01*
X98998639Y-38014059D01*
X98986662Y-38019724D01*
X98974188Y-38024187D01*
X98961337Y-38027406D01*
X98948232Y-38029350D01*
X98935000Y-38030000D01*
X98565000Y-38030000D01*
X98551768Y-38029350D01*
X98538663Y-38027406D01*
X98525812Y-38024187D01*
X98513338Y-38019724D01*
X98501361Y-38014059D01*
X98489998Y-38007248D01*
X98479357Y-37999356D01*
X98469541Y-37990459D01*
X98460644Y-37980643D01*
X98452752Y-37970002D01*
X98445941Y-37958639D01*
X98440276Y-37946662D01*
X98435813Y-37934188D01*
X98432594Y-37921337D01*
X98430650Y-37908232D01*
X98430000Y-37895000D01*
X98430000Y-37625000D01*
X98430650Y-37611768D01*
X98432594Y-37598663D01*
X98435813Y-37585812D01*
X98440276Y-37573338D01*
X98445941Y-37561361D01*
X98452752Y-37549998D01*
X98460644Y-37539357D01*
X98469541Y-37529541D01*
X98479357Y-37520644D01*
X98489998Y-37512752D01*
X98501361Y-37505941D01*
X98513338Y-37500276D01*
X98525812Y-37495813D01*
X98538663Y-37492594D01*
X98551768Y-37490650D01*
X98565000Y-37490000D01*
X98935000Y-37490000D01*
X98948232Y-37490650D01*
G37*
G36*
X100948232Y-28470650D02*
G01*
X100961337Y-28472594D01*
X100974188Y-28475813D01*
X100986662Y-28480276D01*
X100998639Y-28485941D01*
X101010002Y-28492752D01*
X101020643Y-28500644D01*
X101030459Y-28509541D01*
X101039356Y-28519357D01*
X101047248Y-28529998D01*
X101054059Y-28541361D01*
X101059724Y-28553338D01*
X101064187Y-28565812D01*
X101067406Y-28578663D01*
X101069350Y-28591768D01*
X101070000Y-28605000D01*
X101070000Y-28875000D01*
X101069350Y-28888232D01*
X101067406Y-28901337D01*
X101064187Y-28914188D01*
X101059724Y-28926662D01*
X101054059Y-28938639D01*
X101047248Y-28950002D01*
X101039356Y-28960643D01*
X101030459Y-28970459D01*
X101020643Y-28979356D01*
X101010002Y-28987248D01*
X100998639Y-28994059D01*
X100986662Y-28999724D01*
X100974188Y-29004187D01*
X100961337Y-29007406D01*
X100948232Y-29009350D01*
X100935000Y-29010000D01*
X100565000Y-29010000D01*
X100551768Y-29009350D01*
X100538663Y-29007406D01*
X100525812Y-29004187D01*
X100513338Y-28999724D01*
X100501361Y-28994059D01*
X100489998Y-28987248D01*
X100479357Y-28979356D01*
X100469541Y-28970459D01*
X100460644Y-28960643D01*
X100452752Y-28950002D01*
X100445941Y-28938639D01*
X100440276Y-28926662D01*
X100435813Y-28914188D01*
X100432594Y-28901337D01*
X100430650Y-28888232D01*
X100430000Y-28875000D01*
X100430000Y-28605000D01*
X100430650Y-28591768D01*
X100432594Y-28578663D01*
X100435813Y-28565812D01*
X100440276Y-28553338D01*
X100445941Y-28541361D01*
X100452752Y-28529998D01*
X100460644Y-28519357D01*
X100469541Y-28509541D01*
X100479357Y-28500644D01*
X100489998Y-28492752D01*
X100501361Y-28485941D01*
X100513338Y-28480276D01*
X100525812Y-28475813D01*
X100538663Y-28472594D01*
X100551768Y-28470650D01*
X100565000Y-28470000D01*
X100935000Y-28470000D01*
X100948232Y-28470650D01*
G37*
G36*
X100948232Y-29490650D02*
G01*
X100961337Y-29492594D01*
X100974188Y-29495813D01*
X100986662Y-29500276D01*
X100998639Y-29505941D01*
X101010002Y-29512752D01*
X101020643Y-29520644D01*
X101030459Y-29529541D01*
X101039356Y-29539357D01*
X101047248Y-29549998D01*
X101054059Y-29561361D01*
X101059724Y-29573338D01*
X101064187Y-29585812D01*
X101067406Y-29598663D01*
X101069350Y-29611768D01*
X101070000Y-29625000D01*
X101070000Y-29895000D01*
X101069350Y-29908232D01*
X101067406Y-29921337D01*
X101064187Y-29934188D01*
X101059724Y-29946662D01*
X101054059Y-29958639D01*
X101047248Y-29970002D01*
X101039356Y-29980643D01*
X101030459Y-29990459D01*
X101020643Y-29999356D01*
X101010002Y-30007248D01*
X100998639Y-30014059D01*
X100986662Y-30019724D01*
X100974188Y-30024187D01*
X100961337Y-30027406D01*
X100948232Y-30029350D01*
X100935000Y-30030000D01*
X100565000Y-30030000D01*
X100551768Y-30029350D01*
X100538663Y-30027406D01*
X100525812Y-30024187D01*
X100513338Y-30019724D01*
X100501361Y-30014059D01*
X100489998Y-30007248D01*
X100479357Y-29999356D01*
X100469541Y-29990459D01*
X100460644Y-29980643D01*
X100452752Y-29970002D01*
X100445941Y-29958639D01*
X100440276Y-29946662D01*
X100435813Y-29934188D01*
X100432594Y-29921337D01*
X100430650Y-29908232D01*
X100430000Y-29895000D01*
X100430000Y-29625000D01*
X100430650Y-29611768D01*
X100432594Y-29598663D01*
X100435813Y-29585812D01*
X100440276Y-29573338D01*
X100445941Y-29561361D01*
X100452752Y-29549998D01*
X100460644Y-29539357D01*
X100469541Y-29529541D01*
X100479357Y-29520644D01*
X100489998Y-29512752D01*
X100501361Y-29505941D01*
X100513338Y-29500276D01*
X100525812Y-29495813D01*
X100538663Y-29492594D01*
X100551768Y-29490650D01*
X100565000Y-29490000D01*
X100935000Y-29490000D01*
X100948232Y-29490650D01*
G37*
G36*
X100067832Y-38644250D02*
G01*
X100080937Y-38646194D01*
X100093788Y-38649413D01*
X100106262Y-38653876D01*
X100118239Y-38659541D01*
X100129602Y-38666352D01*
X100140243Y-38674244D01*
X100150059Y-38683141D01*
X100158956Y-38692957D01*
X100166848Y-38703598D01*
X100173659Y-38714961D01*
X100179324Y-38726938D01*
X100183787Y-38739412D01*
X100187006Y-38752263D01*
X100188950Y-38765368D01*
X100189600Y-38778600D01*
X100189600Y-39148600D01*
X100188950Y-39161832D01*
X100187006Y-39174937D01*
X100183787Y-39187788D01*
X100179324Y-39200262D01*
X100173659Y-39212239D01*
X100166848Y-39223602D01*
X100158956Y-39234243D01*
X100150059Y-39244059D01*
X100140243Y-39252956D01*
X100129602Y-39260848D01*
X100118239Y-39267659D01*
X100106262Y-39273324D01*
X100093788Y-39277787D01*
X100080937Y-39281006D01*
X100067832Y-39282950D01*
X100054600Y-39283600D01*
X99784600Y-39283600D01*
X99771368Y-39282950D01*
X99758263Y-39281006D01*
X99745412Y-39277787D01*
X99732938Y-39273324D01*
X99720961Y-39267659D01*
X99709598Y-39260848D01*
X99698957Y-39252956D01*
X99689141Y-39244059D01*
X99680244Y-39234243D01*
X99672352Y-39223602D01*
X99665541Y-39212239D01*
X99659876Y-39200262D01*
X99655413Y-39187788D01*
X99652194Y-39174937D01*
X99650250Y-39161832D01*
X99649600Y-39148600D01*
X99649600Y-38778600D01*
X99650250Y-38765368D01*
X99652194Y-38752263D01*
X99655413Y-38739412D01*
X99659876Y-38726938D01*
X99665541Y-38714961D01*
X99672352Y-38703598D01*
X99680244Y-38692957D01*
X99689141Y-38683141D01*
X99698957Y-38674244D01*
X99709598Y-38666352D01*
X99720961Y-38659541D01*
X99732938Y-38653876D01*
X99745412Y-38649413D01*
X99758263Y-38646194D01*
X99771368Y-38644250D01*
X99784600Y-38643600D01*
X100054600Y-38643600D01*
X100067832Y-38644250D01*
G37*
G36*
X101087832Y-38644250D02*
G01*
X101100937Y-38646194D01*
X101113788Y-38649413D01*
X101126262Y-38653876D01*
X101138239Y-38659541D01*
X101149602Y-38666352D01*
X101160243Y-38674244D01*
X101170059Y-38683141D01*
X101178956Y-38692957D01*
X101186848Y-38703598D01*
X101193659Y-38714961D01*
X101199324Y-38726938D01*
X101203787Y-38739412D01*
X101207006Y-38752263D01*
X101208950Y-38765368D01*
X101209600Y-38778600D01*
X101209600Y-39148600D01*
X101208950Y-39161832D01*
X101207006Y-39174937D01*
X101203787Y-39187788D01*
X101199324Y-39200262D01*
X101193659Y-39212239D01*
X101186848Y-39223602D01*
X101178956Y-39234243D01*
X101170059Y-39244059D01*
X101160243Y-39252956D01*
X101149602Y-39260848D01*
X101138239Y-39267659D01*
X101126262Y-39273324D01*
X101113788Y-39277787D01*
X101100937Y-39281006D01*
X101087832Y-39282950D01*
X101074600Y-39283600D01*
X100804600Y-39283600D01*
X100791368Y-39282950D01*
X100778263Y-39281006D01*
X100765412Y-39277787D01*
X100752938Y-39273324D01*
X100740961Y-39267659D01*
X100729598Y-39260848D01*
X100718957Y-39252956D01*
X100709141Y-39244059D01*
X100700244Y-39234243D01*
X100692352Y-39223602D01*
X100685541Y-39212239D01*
X100679876Y-39200262D01*
X100675413Y-39187788D01*
X100672194Y-39174937D01*
X100670250Y-39161832D01*
X100669600Y-39148600D01*
X100669600Y-38778600D01*
X100670250Y-38765368D01*
X100672194Y-38752263D01*
X100675413Y-38739412D01*
X100679876Y-38726938D01*
X100685541Y-38714961D01*
X100692352Y-38703598D01*
X100700244Y-38692957D01*
X100709141Y-38683141D01*
X100718957Y-38674244D01*
X100729598Y-38666352D01*
X100740961Y-38659541D01*
X100752938Y-38653876D01*
X100765412Y-38649413D01*
X100778263Y-38646194D01*
X100791368Y-38644250D01*
X100804600Y-38643600D01*
X101074600Y-38643600D01*
X101087832Y-38644250D01*
G37*
D12*
X81650000Y-36250000D03*
X81650000Y-31250000D03*
D13*
X78950000Y-36650000D03*
X78950000Y-30850000D03*
D14*
X78950000Y-37250000D03*
D15*
X78950000Y-34750000D03*
X78950000Y-32750000D03*
D14*
X78950000Y-30250000D03*
D16*
X81650000Y-35050000D03*
X81650000Y-34400000D03*
X81650000Y-33750000D03*
X81650000Y-33100000D03*
X81650000Y-32450000D03*
D17*
X82100000Y-40000000D03*
X84900000Y-40000000D03*
X82350000Y-27000000D03*
X85150000Y-27000000D03*
D10*
G36*
X96798122Y-31339074D02*
G01*
X96811713Y-31341090D01*
X96825040Y-31344428D01*
X96837976Y-31349057D01*
X96850396Y-31354931D01*
X96862180Y-31361994D01*
X96873215Y-31370179D01*
X96883395Y-31379405D01*
X96892621Y-31389585D01*
X96900806Y-31400620D01*
X96907869Y-31412404D01*
X96913743Y-31424824D01*
X96918372Y-31437760D01*
X96921710Y-31451087D01*
X96923726Y-31464678D01*
X96924400Y-31478400D01*
X96924400Y-31818400D01*
X96923726Y-31832122D01*
X96921710Y-31845713D01*
X96918372Y-31859040D01*
X96913743Y-31871976D01*
X96907869Y-31884396D01*
X96900806Y-31896180D01*
X96892621Y-31907215D01*
X96883395Y-31917395D01*
X96873215Y-31926621D01*
X96862180Y-31934806D01*
X96850396Y-31941869D01*
X96837976Y-31947743D01*
X96825040Y-31952372D01*
X96811713Y-31955710D01*
X96798122Y-31957726D01*
X96784400Y-31958400D01*
X96504400Y-31958400D01*
X96490678Y-31957726D01*
X96477087Y-31955710D01*
X96463760Y-31952372D01*
X96450824Y-31947743D01*
X96438404Y-31941869D01*
X96426620Y-31934806D01*
X96415585Y-31926621D01*
X96405405Y-31917395D01*
X96396179Y-31907215D01*
X96387994Y-31896180D01*
X96380931Y-31884396D01*
X96375057Y-31871976D01*
X96370428Y-31859040D01*
X96367090Y-31845713D01*
X96365074Y-31832122D01*
X96364400Y-31818400D01*
X96364400Y-31478400D01*
X96365074Y-31464678D01*
X96367090Y-31451087D01*
X96370428Y-31437760D01*
X96375057Y-31424824D01*
X96380931Y-31412404D01*
X96387994Y-31400620D01*
X96396179Y-31389585D01*
X96405405Y-31379405D01*
X96415585Y-31370179D01*
X96426620Y-31361994D01*
X96438404Y-31354931D01*
X96450824Y-31349057D01*
X96463760Y-31344428D01*
X96477087Y-31341090D01*
X96490678Y-31339074D01*
X96504400Y-31338400D01*
X96784400Y-31338400D01*
X96798122Y-31339074D01*
G37*
G36*
X95838122Y-31339074D02*
G01*
X95851713Y-31341090D01*
X95865040Y-31344428D01*
X95877976Y-31349057D01*
X95890396Y-31354931D01*
X95902180Y-31361994D01*
X95913215Y-31370179D01*
X95923395Y-31379405D01*
X95932621Y-31389585D01*
X95940806Y-31400620D01*
X95947869Y-31412404D01*
X95953743Y-31424824D01*
X95958372Y-31437760D01*
X95961710Y-31451087D01*
X95963726Y-31464678D01*
X95964400Y-31478400D01*
X95964400Y-31818400D01*
X95963726Y-31832122D01*
X95961710Y-31845713D01*
X95958372Y-31859040D01*
X95953743Y-31871976D01*
X95947869Y-31884396D01*
X95940806Y-31896180D01*
X95932621Y-31907215D01*
X95923395Y-31917395D01*
X95913215Y-31926621D01*
X95902180Y-31934806D01*
X95890396Y-31941869D01*
X95877976Y-31947743D01*
X95865040Y-31952372D01*
X95851713Y-31955710D01*
X95838122Y-31957726D01*
X95824400Y-31958400D01*
X95544400Y-31958400D01*
X95530678Y-31957726D01*
X95517087Y-31955710D01*
X95503760Y-31952372D01*
X95490824Y-31947743D01*
X95478404Y-31941869D01*
X95466620Y-31934806D01*
X95455585Y-31926621D01*
X95445405Y-31917395D01*
X95436179Y-31907215D01*
X95427994Y-31896180D01*
X95420931Y-31884396D01*
X95415057Y-31871976D01*
X95410428Y-31859040D01*
X95407090Y-31845713D01*
X95405074Y-31832122D01*
X95404400Y-31818400D01*
X95404400Y-31478400D01*
X95405074Y-31464678D01*
X95407090Y-31451087D01*
X95410428Y-31437760D01*
X95415057Y-31424824D01*
X95420931Y-31412404D01*
X95427994Y-31400620D01*
X95436179Y-31389585D01*
X95445405Y-31379405D01*
X95455585Y-31370179D01*
X95466620Y-31361994D01*
X95478404Y-31354931D01*
X95490824Y-31349057D01*
X95503760Y-31344428D01*
X95517087Y-31341090D01*
X95530678Y-31339074D01*
X95544400Y-31338400D01*
X95824400Y-31338400D01*
X95838122Y-31339074D01*
G37*
G36*
X89403722Y-36940674D02*
G01*
X89417313Y-36942690D01*
X89430640Y-36946028D01*
X89443576Y-36950657D01*
X89455996Y-36956531D01*
X89467780Y-36963594D01*
X89478815Y-36971779D01*
X89488995Y-36981005D01*
X89498221Y-36991185D01*
X89506406Y-37002220D01*
X89513469Y-37014004D01*
X89519343Y-37026424D01*
X89523972Y-37039360D01*
X89527310Y-37052687D01*
X89529326Y-37066278D01*
X89530000Y-37080000D01*
X89530000Y-37420000D01*
X89529326Y-37433722D01*
X89527310Y-37447313D01*
X89523972Y-37460640D01*
X89519343Y-37473576D01*
X89513469Y-37485996D01*
X89506406Y-37497780D01*
X89498221Y-37508815D01*
X89488995Y-37518995D01*
X89478815Y-37528221D01*
X89467780Y-37536406D01*
X89455996Y-37543469D01*
X89443576Y-37549343D01*
X89430640Y-37553972D01*
X89417313Y-37557310D01*
X89403722Y-37559326D01*
X89390000Y-37560000D01*
X89110000Y-37560000D01*
X89096278Y-37559326D01*
X89082687Y-37557310D01*
X89069360Y-37553972D01*
X89056424Y-37549343D01*
X89044004Y-37543469D01*
X89032220Y-37536406D01*
X89021185Y-37528221D01*
X89011005Y-37518995D01*
X89001779Y-37508815D01*
X88993594Y-37497780D01*
X88986531Y-37485996D01*
X88980657Y-37473576D01*
X88976028Y-37460640D01*
X88972690Y-37447313D01*
X88970674Y-37433722D01*
X88970000Y-37420000D01*
X88970000Y-37080000D01*
X88970674Y-37066278D01*
X88972690Y-37052687D01*
X88976028Y-37039360D01*
X88980657Y-37026424D01*
X88986531Y-37014004D01*
X88993594Y-37002220D01*
X89001779Y-36991185D01*
X89011005Y-36981005D01*
X89021185Y-36971779D01*
X89032220Y-36963594D01*
X89044004Y-36956531D01*
X89056424Y-36950657D01*
X89069360Y-36946028D01*
X89082687Y-36942690D01*
X89096278Y-36940674D01*
X89110000Y-36940000D01*
X89390000Y-36940000D01*
X89403722Y-36940674D01*
G37*
G36*
X90363722Y-36940674D02*
G01*
X90377313Y-36942690D01*
X90390640Y-36946028D01*
X90403576Y-36950657D01*
X90415996Y-36956531D01*
X90427780Y-36963594D01*
X90438815Y-36971779D01*
X90448995Y-36981005D01*
X90458221Y-36991185D01*
X90466406Y-37002220D01*
X90473469Y-37014004D01*
X90479343Y-37026424D01*
X90483972Y-37039360D01*
X90487310Y-37052687D01*
X90489326Y-37066278D01*
X90490000Y-37080000D01*
X90490000Y-37420000D01*
X90489326Y-37433722D01*
X90487310Y-37447313D01*
X90483972Y-37460640D01*
X90479343Y-37473576D01*
X90473469Y-37485996D01*
X90466406Y-37497780D01*
X90458221Y-37508815D01*
X90448995Y-37518995D01*
X90438815Y-37528221D01*
X90427780Y-37536406D01*
X90415996Y-37543469D01*
X90403576Y-37549343D01*
X90390640Y-37553972D01*
X90377313Y-37557310D01*
X90363722Y-37559326D01*
X90350000Y-37560000D01*
X90070000Y-37560000D01*
X90056278Y-37559326D01*
X90042687Y-37557310D01*
X90029360Y-37553972D01*
X90016424Y-37549343D01*
X90004004Y-37543469D01*
X89992220Y-37536406D01*
X89981185Y-37528221D01*
X89971005Y-37518995D01*
X89961779Y-37508815D01*
X89953594Y-37497780D01*
X89946531Y-37485996D01*
X89940657Y-37473576D01*
X89936028Y-37460640D01*
X89932690Y-37447313D01*
X89930674Y-37433722D01*
X89930000Y-37420000D01*
X89930000Y-37080000D01*
X89930674Y-37066278D01*
X89932690Y-37052687D01*
X89936028Y-37039360D01*
X89940657Y-37026424D01*
X89946531Y-37014004D01*
X89953594Y-37002220D01*
X89961779Y-36991185D01*
X89971005Y-36981005D01*
X89981185Y-36971779D01*
X89992220Y-36963594D01*
X90004004Y-36956531D01*
X90016424Y-36950657D01*
X90029360Y-36946028D01*
X90042687Y-36942690D01*
X90056278Y-36940674D01*
X90070000Y-36940000D01*
X90350000Y-36940000D01*
X90363722Y-36940674D01*
G37*
G36*
X90810922Y-39644274D02*
G01*
X90824513Y-39646290D01*
X90837840Y-39649628D01*
X90850776Y-39654257D01*
X90863196Y-39660131D01*
X90874980Y-39667194D01*
X90886015Y-39675379D01*
X90896195Y-39684605D01*
X90905421Y-39694785D01*
X90913606Y-39705820D01*
X90920669Y-39717604D01*
X90926543Y-39730024D01*
X90931172Y-39742960D01*
X90934510Y-39756287D01*
X90936526Y-39769878D01*
X90937200Y-39783600D01*
X90937200Y-40063600D01*
X90936526Y-40077322D01*
X90934510Y-40090913D01*
X90931172Y-40104240D01*
X90926543Y-40117176D01*
X90920669Y-40129596D01*
X90913606Y-40141380D01*
X90905421Y-40152415D01*
X90896195Y-40162595D01*
X90886015Y-40171821D01*
X90874980Y-40180006D01*
X90863196Y-40187069D01*
X90850776Y-40192943D01*
X90837840Y-40197572D01*
X90824513Y-40200910D01*
X90810922Y-40202926D01*
X90797200Y-40203600D01*
X90457200Y-40203600D01*
X90443478Y-40202926D01*
X90429887Y-40200910D01*
X90416560Y-40197572D01*
X90403624Y-40192943D01*
X90391204Y-40187069D01*
X90379420Y-40180006D01*
X90368385Y-40171821D01*
X90358205Y-40162595D01*
X90348979Y-40152415D01*
X90340794Y-40141380D01*
X90333731Y-40129596D01*
X90327857Y-40117176D01*
X90323228Y-40104240D01*
X90319890Y-40090913D01*
X90317874Y-40077322D01*
X90317200Y-40063600D01*
X90317200Y-39783600D01*
X90317874Y-39769878D01*
X90319890Y-39756287D01*
X90323228Y-39742960D01*
X90327857Y-39730024D01*
X90333731Y-39717604D01*
X90340794Y-39705820D01*
X90348979Y-39694785D01*
X90358205Y-39684605D01*
X90368385Y-39675379D01*
X90379420Y-39667194D01*
X90391204Y-39660131D01*
X90403624Y-39654257D01*
X90416560Y-39649628D01*
X90429887Y-39646290D01*
X90443478Y-39644274D01*
X90457200Y-39643600D01*
X90797200Y-39643600D01*
X90810922Y-39644274D01*
G37*
G36*
X90810922Y-38684274D02*
G01*
X90824513Y-38686290D01*
X90837840Y-38689628D01*
X90850776Y-38694257D01*
X90863196Y-38700131D01*
X90874980Y-38707194D01*
X90886015Y-38715379D01*
X90896195Y-38724605D01*
X90905421Y-38734785D01*
X90913606Y-38745820D01*
X90920669Y-38757604D01*
X90926543Y-38770024D01*
X90931172Y-38782960D01*
X90934510Y-38796287D01*
X90936526Y-38809878D01*
X90937200Y-38823600D01*
X90937200Y-39103600D01*
X90936526Y-39117322D01*
X90934510Y-39130913D01*
X90931172Y-39144240D01*
X90926543Y-39157176D01*
X90920669Y-39169596D01*
X90913606Y-39181380D01*
X90905421Y-39192415D01*
X90896195Y-39202595D01*
X90886015Y-39211821D01*
X90874980Y-39220006D01*
X90863196Y-39227069D01*
X90850776Y-39232943D01*
X90837840Y-39237572D01*
X90824513Y-39240910D01*
X90810922Y-39242926D01*
X90797200Y-39243600D01*
X90457200Y-39243600D01*
X90443478Y-39242926D01*
X90429887Y-39240910D01*
X90416560Y-39237572D01*
X90403624Y-39232943D01*
X90391204Y-39227069D01*
X90379420Y-39220006D01*
X90368385Y-39211821D01*
X90358205Y-39202595D01*
X90348979Y-39192415D01*
X90340794Y-39181380D01*
X90333731Y-39169596D01*
X90327857Y-39157176D01*
X90323228Y-39144240D01*
X90319890Y-39130913D01*
X90317874Y-39117322D01*
X90317200Y-39103600D01*
X90317200Y-38823600D01*
X90317874Y-38809878D01*
X90319890Y-38796287D01*
X90323228Y-38782960D01*
X90327857Y-38770024D01*
X90333731Y-38757604D01*
X90340794Y-38745820D01*
X90348979Y-38734785D01*
X90358205Y-38724605D01*
X90368385Y-38715379D01*
X90379420Y-38707194D01*
X90391204Y-38700131D01*
X90403624Y-38694257D01*
X90416560Y-38689628D01*
X90429887Y-38686290D01*
X90443478Y-38684274D01*
X90457200Y-38683600D01*
X90797200Y-38683600D01*
X90810922Y-38684274D01*
G37*
G36*
X96798122Y-32710674D02*
G01*
X96811713Y-32712690D01*
X96825040Y-32716028D01*
X96837976Y-32720657D01*
X96850396Y-32726531D01*
X96862180Y-32733594D01*
X96873215Y-32741779D01*
X96883395Y-32751005D01*
X96892621Y-32761185D01*
X96900806Y-32772220D01*
X96907869Y-32784004D01*
X96913743Y-32796424D01*
X96918372Y-32809360D01*
X96921710Y-32822687D01*
X96923726Y-32836278D01*
X96924400Y-32850000D01*
X96924400Y-33190000D01*
X96923726Y-33203722D01*
X96921710Y-33217313D01*
X96918372Y-33230640D01*
X96913743Y-33243576D01*
X96907869Y-33255996D01*
X96900806Y-33267780D01*
X96892621Y-33278815D01*
X96883395Y-33288995D01*
X96873215Y-33298221D01*
X96862180Y-33306406D01*
X96850396Y-33313469D01*
X96837976Y-33319343D01*
X96825040Y-33323972D01*
X96811713Y-33327310D01*
X96798122Y-33329326D01*
X96784400Y-33330000D01*
X96504400Y-33330000D01*
X96490678Y-33329326D01*
X96477087Y-33327310D01*
X96463760Y-33323972D01*
X96450824Y-33319343D01*
X96438404Y-33313469D01*
X96426620Y-33306406D01*
X96415585Y-33298221D01*
X96405405Y-33288995D01*
X96396179Y-33278815D01*
X96387994Y-33267780D01*
X96380931Y-33255996D01*
X96375057Y-33243576D01*
X96370428Y-33230640D01*
X96367090Y-33217313D01*
X96365074Y-33203722D01*
X96364400Y-33190000D01*
X96364400Y-32850000D01*
X96365074Y-32836278D01*
X96367090Y-32822687D01*
X96370428Y-32809360D01*
X96375057Y-32796424D01*
X96380931Y-32784004D01*
X96387994Y-32772220D01*
X96396179Y-32761185D01*
X96405405Y-32751005D01*
X96415585Y-32741779D01*
X96426620Y-32733594D01*
X96438404Y-32726531D01*
X96450824Y-32720657D01*
X96463760Y-32716028D01*
X96477087Y-32712690D01*
X96490678Y-32710674D01*
X96504400Y-32710000D01*
X96784400Y-32710000D01*
X96798122Y-32710674D01*
G37*
G36*
X95838122Y-32710674D02*
G01*
X95851713Y-32712690D01*
X95865040Y-32716028D01*
X95877976Y-32720657D01*
X95890396Y-32726531D01*
X95902180Y-32733594D01*
X95913215Y-32741779D01*
X95923395Y-32751005D01*
X95932621Y-32761185D01*
X95940806Y-32772220D01*
X95947869Y-32784004D01*
X95953743Y-32796424D01*
X95958372Y-32809360D01*
X95961710Y-32822687D01*
X95963726Y-32836278D01*
X95964400Y-32850000D01*
X95964400Y-33190000D01*
X95963726Y-33203722D01*
X95961710Y-33217313D01*
X95958372Y-33230640D01*
X95953743Y-33243576D01*
X95947869Y-33255996D01*
X95940806Y-33267780D01*
X95932621Y-33278815D01*
X95923395Y-33288995D01*
X95913215Y-33298221D01*
X95902180Y-33306406D01*
X95890396Y-33313469D01*
X95877976Y-33319343D01*
X95865040Y-33323972D01*
X95851713Y-33327310D01*
X95838122Y-33329326D01*
X95824400Y-33330000D01*
X95544400Y-33330000D01*
X95530678Y-33329326D01*
X95517087Y-33327310D01*
X95503760Y-33323972D01*
X95490824Y-33319343D01*
X95478404Y-33313469D01*
X95466620Y-33306406D01*
X95455585Y-33298221D01*
X95445405Y-33288995D01*
X95436179Y-33278815D01*
X95427994Y-33267780D01*
X95420931Y-33255996D01*
X95415057Y-33243576D01*
X95410428Y-33230640D01*
X95407090Y-33217313D01*
X95405074Y-33203722D01*
X95404400Y-33190000D01*
X95404400Y-32850000D01*
X95405074Y-32836278D01*
X95407090Y-32822687D01*
X95410428Y-32809360D01*
X95415057Y-32796424D01*
X95420931Y-32784004D01*
X95427994Y-32772220D01*
X95436179Y-32761185D01*
X95445405Y-32751005D01*
X95455585Y-32741779D01*
X95466620Y-32733594D01*
X95478404Y-32726531D01*
X95490824Y-32720657D01*
X95503760Y-32716028D01*
X95517087Y-32712690D01*
X95530678Y-32710674D01*
X95544400Y-32710000D01*
X95824400Y-32710000D01*
X95838122Y-32710674D01*
G37*
G36*
X92080922Y-39547874D02*
G01*
X92094513Y-39549890D01*
X92107840Y-39553228D01*
X92120776Y-39557857D01*
X92133196Y-39563731D01*
X92144980Y-39570794D01*
X92156015Y-39578979D01*
X92166195Y-39588205D01*
X92175421Y-39598385D01*
X92183606Y-39609420D01*
X92190669Y-39621204D01*
X92196543Y-39633624D01*
X92201172Y-39646560D01*
X92204510Y-39659887D01*
X92206526Y-39673478D01*
X92207200Y-39687200D01*
X92207200Y-39967200D01*
X92206526Y-39980922D01*
X92204510Y-39994513D01*
X92201172Y-40007840D01*
X92196543Y-40020776D01*
X92190669Y-40033196D01*
X92183606Y-40044980D01*
X92175421Y-40056015D01*
X92166195Y-40066195D01*
X92156015Y-40075421D01*
X92144980Y-40083606D01*
X92133196Y-40090669D01*
X92120776Y-40096543D01*
X92107840Y-40101172D01*
X92094513Y-40104510D01*
X92080922Y-40106526D01*
X92067200Y-40107200D01*
X91727200Y-40107200D01*
X91713478Y-40106526D01*
X91699887Y-40104510D01*
X91686560Y-40101172D01*
X91673624Y-40096543D01*
X91661204Y-40090669D01*
X91649420Y-40083606D01*
X91638385Y-40075421D01*
X91628205Y-40066195D01*
X91618979Y-40056015D01*
X91610794Y-40044980D01*
X91603731Y-40033196D01*
X91597857Y-40020776D01*
X91593228Y-40007840D01*
X91589890Y-39994513D01*
X91587874Y-39980922D01*
X91587200Y-39967200D01*
X91587200Y-39687200D01*
X91587874Y-39673478D01*
X91589890Y-39659887D01*
X91593228Y-39646560D01*
X91597857Y-39633624D01*
X91603731Y-39621204D01*
X91610794Y-39609420D01*
X91618979Y-39598385D01*
X91628205Y-39588205D01*
X91638385Y-39578979D01*
X91649420Y-39570794D01*
X91661204Y-39563731D01*
X91673624Y-39557857D01*
X91686560Y-39553228D01*
X91699887Y-39549890D01*
X91713478Y-39547874D01*
X91727200Y-39547200D01*
X92067200Y-39547200D01*
X92080922Y-39547874D01*
G37*
G36*
X92080922Y-40507874D02*
G01*
X92094513Y-40509890D01*
X92107840Y-40513228D01*
X92120776Y-40517857D01*
X92133196Y-40523731D01*
X92144980Y-40530794D01*
X92156015Y-40538979D01*
X92166195Y-40548205D01*
X92175421Y-40558385D01*
X92183606Y-40569420D01*
X92190669Y-40581204D01*
X92196543Y-40593624D01*
X92201172Y-40606560D01*
X92204510Y-40619887D01*
X92206526Y-40633478D01*
X92207200Y-40647200D01*
X92207200Y-40927200D01*
X92206526Y-40940922D01*
X92204510Y-40954513D01*
X92201172Y-40967840D01*
X92196543Y-40980776D01*
X92190669Y-40993196D01*
X92183606Y-41004980D01*
X92175421Y-41016015D01*
X92166195Y-41026195D01*
X92156015Y-41035421D01*
X92144980Y-41043606D01*
X92133196Y-41050669D01*
X92120776Y-41056543D01*
X92107840Y-41061172D01*
X92094513Y-41064510D01*
X92080922Y-41066526D01*
X92067200Y-41067200D01*
X91727200Y-41067200D01*
X91713478Y-41066526D01*
X91699887Y-41064510D01*
X91686560Y-41061172D01*
X91673624Y-41056543D01*
X91661204Y-41050669D01*
X91649420Y-41043606D01*
X91638385Y-41035421D01*
X91628205Y-41026195D01*
X91618979Y-41016015D01*
X91610794Y-41004980D01*
X91603731Y-40993196D01*
X91597857Y-40980776D01*
X91593228Y-40967840D01*
X91589890Y-40954513D01*
X91587874Y-40940922D01*
X91587200Y-40927200D01*
X91587200Y-40647200D01*
X91587874Y-40633478D01*
X91589890Y-40619887D01*
X91593228Y-40606560D01*
X91597857Y-40593624D01*
X91603731Y-40581204D01*
X91610794Y-40569420D01*
X91618979Y-40558385D01*
X91628205Y-40548205D01*
X91638385Y-40538979D01*
X91649420Y-40530794D01*
X91661204Y-40523731D01*
X91673624Y-40517857D01*
X91686560Y-40513228D01*
X91699887Y-40509890D01*
X91713478Y-40507874D01*
X91727200Y-40507200D01*
X92067200Y-40507200D01*
X92080922Y-40507874D01*
G37*
M02*
