G04 #@! TF.GenerationSoftware,KiCad,Pcbnew,5.1.5+dfsg1-2build2*
G04 #@! TF.CreationDate,2021-07-03T20:40:33+02:00*
G04 #@! TF.ProjectId,combined,636f6d62-696e-4656-942e-6b696361645f,rev?*
G04 #@! TF.SameCoordinates,Original*
G04 #@! TF.FileFunction,Copper,L2,Bot*
G04 #@! TF.FilePolarity,Positive*
%FSLAX46Y46*%
G04 Gerber Fmt 4.6, Leading zero omitted, Abs format (unit mm)*
G04 Created by KiCad (PCBNEW 5.1.5+dfsg1-2build2) date 2021-07-03 20:40:33*
%MOMM*%
%LPD*%
G04 APERTURE LIST*
%ADD10C,1.100000*%
%ADD11C,0.100000*%
%ADD12C,3.500000*%
%ADD13R,0.600000X1.750000*%
%ADD14R,1.750000X0.600000*%
%ADD15O,1.550000X0.890000*%
%ADD16O,0.950000X1.250000*%
%ADD17C,1.600000*%
%ADD18C,0.800000*%
%ADD19C,0.500000*%
%ADD20C,0.250000*%
%ADD21C,0.254000*%
G04 APERTURE END LIST*
D10*
X102209798Y-29664214D02*
X102492640Y-29947056D01*
X100937006Y-30937006D02*
X101219848Y-31219848D01*
G04 #@! TA.AperFunction,ComponentPad*
D11*
G36*
X98133054Y-27435392D02*
G01*
X98157293Y-27438988D01*
X98181063Y-27444942D01*
X98204135Y-27453197D01*
X98226287Y-27463674D01*
X98247305Y-27476272D01*
X98266987Y-27490869D01*
X98285144Y-27507325D01*
X98992675Y-28214856D01*
X99009131Y-28233013D01*
X99023728Y-28252695D01*
X99036326Y-28273713D01*
X99046803Y-28295865D01*
X99055058Y-28318937D01*
X99061012Y-28342707D01*
X99064608Y-28366946D01*
X99065810Y-28391421D01*
X99064608Y-28415896D01*
X99061012Y-28440135D01*
X99055058Y-28463905D01*
X99046803Y-28486977D01*
X99036326Y-28509129D01*
X99023728Y-28530147D01*
X99009131Y-28549829D01*
X98992675Y-28567986D01*
X98567986Y-28992675D01*
X98549829Y-29009131D01*
X98530147Y-29023728D01*
X98509129Y-29036326D01*
X98486977Y-29046803D01*
X98463905Y-29055058D01*
X98440135Y-29061012D01*
X98415896Y-29064608D01*
X98391421Y-29065810D01*
X98366946Y-29064608D01*
X98342707Y-29061012D01*
X98318937Y-29055058D01*
X98295865Y-29046803D01*
X98273713Y-29036326D01*
X98252695Y-29023728D01*
X98233013Y-29009131D01*
X98214856Y-28992675D01*
X97507325Y-28285144D01*
X97490869Y-28266987D01*
X97476272Y-28247305D01*
X97463674Y-28226287D01*
X97453197Y-28204135D01*
X97444942Y-28181063D01*
X97438988Y-28157293D01*
X97435392Y-28133054D01*
X97434190Y-28108579D01*
X97435392Y-28084104D01*
X97438988Y-28059865D01*
X97444942Y-28036095D01*
X97453197Y-28013023D01*
X97463674Y-27990871D01*
X97476272Y-27969853D01*
X97490869Y-27950171D01*
X97507325Y-27932014D01*
X97932014Y-27507325D01*
X97950171Y-27490869D01*
X97969853Y-27476272D01*
X97990871Y-27463674D01*
X98013023Y-27453197D01*
X98036095Y-27444942D01*
X98059865Y-27438988D01*
X98084104Y-27435392D01*
X98108579Y-27434190D01*
X98133054Y-27435392D01*
G37*
G04 #@! TD.AperFunction*
D10*
X99381371Y-26835787D02*
X99664213Y-27118629D01*
X100914214Y-36540202D02*
X101197056Y-36257360D01*
X102187006Y-37812994D02*
X102469848Y-37530152D01*
G04 #@! TA.AperFunction,ComponentPad*
D11*
G36*
X99665896Y-39685392D02*
G01*
X99690135Y-39688988D01*
X99713905Y-39694942D01*
X99736977Y-39703197D01*
X99759129Y-39713674D01*
X99780147Y-39726272D01*
X99799829Y-39740869D01*
X99817986Y-39757325D01*
X100242675Y-40182014D01*
X100259131Y-40200171D01*
X100273728Y-40219853D01*
X100286326Y-40240871D01*
X100296803Y-40263023D01*
X100305058Y-40286095D01*
X100311012Y-40309865D01*
X100314608Y-40334104D01*
X100315810Y-40358579D01*
X100314608Y-40383054D01*
X100311012Y-40407293D01*
X100305058Y-40431063D01*
X100296803Y-40454135D01*
X100286326Y-40476287D01*
X100273728Y-40497305D01*
X100259131Y-40516987D01*
X100242675Y-40535144D01*
X99535144Y-41242675D01*
X99516987Y-41259131D01*
X99497305Y-41273728D01*
X99476287Y-41286326D01*
X99454135Y-41296803D01*
X99431063Y-41305058D01*
X99407293Y-41311012D01*
X99383054Y-41314608D01*
X99358579Y-41315810D01*
X99334104Y-41314608D01*
X99309865Y-41311012D01*
X99286095Y-41305058D01*
X99263023Y-41296803D01*
X99240871Y-41286326D01*
X99219853Y-41273728D01*
X99200171Y-41259131D01*
X99182014Y-41242675D01*
X98757325Y-40817986D01*
X98740869Y-40799829D01*
X98726272Y-40780147D01*
X98713674Y-40759129D01*
X98703197Y-40736977D01*
X98694942Y-40713905D01*
X98688988Y-40690135D01*
X98685392Y-40665896D01*
X98684190Y-40641421D01*
X98685392Y-40616946D01*
X98688988Y-40592707D01*
X98694942Y-40568937D01*
X98703197Y-40545865D01*
X98713674Y-40523713D01*
X98726272Y-40502695D01*
X98740869Y-40483013D01*
X98757325Y-40464856D01*
X99464856Y-39757325D01*
X99483013Y-39740869D01*
X99502695Y-39726272D01*
X99523713Y-39713674D01*
X99545865Y-39703197D01*
X99568937Y-39694942D01*
X99592707Y-39688988D01*
X99616946Y-39685392D01*
X99641421Y-39684190D01*
X99665896Y-39685392D01*
G37*
G04 #@! TD.AperFunction*
D10*
X98085787Y-39368629D02*
X98368629Y-39085787D01*
D12*
X105000000Y-40250000D03*
X105000000Y-27250000D03*
D13*
X95250000Y-29000000D03*
X93250000Y-29000000D03*
X91250000Y-29000000D03*
X94250000Y-27250000D03*
X92250000Y-27250000D03*
X92750000Y-37750000D03*
X94750000Y-37750000D03*
X91750000Y-39500000D03*
X93750000Y-39500000D03*
X95750000Y-39500000D03*
D14*
X79000000Y-35500000D03*
X79000000Y-33500000D03*
X80750000Y-34500000D03*
X80750000Y-32500000D03*
D15*
X78950000Y-37250000D03*
X78950000Y-30250000D03*
D16*
X81650000Y-36250000D03*
X81650000Y-31250000D03*
D17*
X109500000Y-31750000D03*
X109500000Y-37500000D03*
D18*
X92500000Y-32750000D03*
X90250020Y-30750000D03*
D17*
X86499996Y-40000000D03*
D18*
X99000000Y-30250000D03*
X91000000Y-38000028D03*
X97310309Y-34560309D03*
X94496738Y-35239109D03*
X87250000Y-32500000D03*
X88750026Y-33500000D03*
X94783718Y-36197058D03*
X87750000Y-33500000D03*
X86240000Y-35240000D03*
X92250000Y-29325000D03*
X88000000Y-28750000D03*
X89250000Y-28750000D03*
X91725000Y-37275000D03*
X93514889Y-36379848D03*
X89750000Y-39249994D03*
X83250000Y-32250000D03*
X84250000Y-31749996D03*
D19*
X80750000Y-32150000D02*
X81650000Y-31250000D01*
X80750000Y-32500000D02*
X80750000Y-32150000D01*
X85368626Y-40000000D02*
X86499996Y-40000000D01*
X79000000Y-35500000D02*
X79575000Y-35500000D01*
X80375000Y-36300000D02*
X80375000Y-36875000D01*
X79575000Y-35500000D02*
X80375000Y-36300000D01*
X80375000Y-36875000D02*
X83500000Y-40000000D01*
X83500000Y-40000000D02*
X85368626Y-40000000D01*
D20*
X97625000Y-28875000D02*
X99000000Y-30250000D01*
X95250000Y-28875000D02*
X97625000Y-28875000D01*
X91000000Y-39300000D02*
X91000000Y-38565713D01*
X91200000Y-39500000D02*
X91000000Y-39300000D01*
X91750000Y-39500000D02*
X91200000Y-39500000D01*
X91000000Y-38565713D02*
X91000000Y-38000028D01*
X97310309Y-35125994D02*
X97310309Y-34560309D01*
X97310309Y-35560309D02*
X97310309Y-35125994D01*
X98000000Y-36250000D02*
X97310309Y-35560309D01*
X98000000Y-39000000D02*
X98000000Y-36250000D01*
X98227208Y-39227208D02*
X98000000Y-39000000D01*
X94496738Y-35239109D02*
X94096739Y-34839110D01*
X94096739Y-34839110D02*
X91404795Y-34839110D01*
X91404795Y-34839110D02*
X89065685Y-32500000D01*
X89065685Y-32500000D02*
X87815685Y-32500000D01*
X87815685Y-32500000D02*
X87250000Y-32500000D01*
X93774998Y-35598002D02*
X94374054Y-36197058D01*
X90848028Y-35598002D02*
X93774998Y-35598002D01*
X88750026Y-33500000D02*
X90848028Y-35598002D01*
X94374054Y-36197058D02*
X94783718Y-36197058D01*
X86240000Y-35010000D02*
X87750000Y-33500000D01*
X86240000Y-35240000D02*
X86240000Y-35010000D01*
X92700000Y-28875000D02*
X92250000Y-29325000D01*
X93250000Y-28875000D02*
X92700000Y-28875000D01*
X92250000Y-29325000D02*
X92250000Y-29325000D01*
X91250000Y-28875000D02*
X91250000Y-29000000D01*
X91250000Y-29000000D02*
X90750000Y-29500000D01*
X88500000Y-29250000D02*
X88000000Y-28750000D01*
X88000000Y-28750000D02*
X88000000Y-28750000D01*
X88750000Y-29500000D02*
X88500000Y-29250000D01*
X90750000Y-29500000D02*
X88750000Y-29500000D01*
X92250000Y-27125000D02*
X91239998Y-27125000D01*
X91239998Y-27125000D02*
X91125000Y-27125000D01*
X91239998Y-27125000D02*
X90875000Y-27125000D01*
X90875000Y-27125000D02*
X89250000Y-28750000D01*
X89250000Y-28750000D02*
X89250000Y-28750000D01*
X92200000Y-37750000D02*
X91725000Y-37275000D01*
X92750000Y-37750000D02*
X92200000Y-37750000D01*
X93750000Y-36614959D02*
X93514889Y-36379848D01*
X93750000Y-39500000D02*
X93750000Y-36614959D01*
X91200007Y-40700001D02*
X90149999Y-39649993D01*
X90149999Y-39649993D02*
X89750000Y-39249994D01*
X95750000Y-40625000D02*
X95674999Y-40700001D01*
X95750000Y-39500000D02*
X95750000Y-40625000D01*
X95674999Y-40700001D02*
X91200007Y-40700001D01*
X79000000Y-33500000D02*
X82000000Y-33500000D01*
X82850001Y-32649999D02*
X83250000Y-32250000D01*
X82000000Y-33500000D02*
X82850001Y-32649999D01*
X84250000Y-32315681D02*
X84250000Y-31749996D01*
X82065681Y-34500000D02*
X84250000Y-32315681D01*
X80750000Y-34500000D02*
X82065681Y-34500000D01*
D21*
G36*
X103147450Y-25729651D02*
G01*
X102886440Y-26120279D01*
X102706654Y-26554321D01*
X102615000Y-27015098D01*
X102615000Y-27484902D01*
X102706654Y-27945679D01*
X102886440Y-28379721D01*
X103147450Y-28770349D01*
X103479651Y-29102550D01*
X103870279Y-29363560D01*
X104304321Y-29543346D01*
X104765098Y-29635000D01*
X105234902Y-29635000D01*
X105695679Y-29543346D01*
X106129721Y-29363560D01*
X106520349Y-29102550D01*
X106852550Y-28770349D01*
X107113560Y-28379721D01*
X107293346Y-27945679D01*
X107385000Y-27484902D01*
X107385000Y-27015098D01*
X107293346Y-26554321D01*
X107113560Y-26120279D01*
X106852550Y-25729651D01*
X106749899Y-25627000D01*
X109123000Y-25627000D01*
X109123000Y-25750000D01*
X109125440Y-25774776D01*
X109136408Y-25806796D01*
X109886408Y-27306796D01*
X109899671Y-27327866D01*
X109910197Y-27339803D01*
X110660197Y-28089803D01*
X110684659Y-28108902D01*
X110953740Y-28270351D01*
X111145793Y-28426985D01*
X111195601Y-28460078D01*
X111244975Y-28493885D01*
X111253081Y-28498268D01*
X111856267Y-28818987D01*
X111894174Y-28834611D01*
X111934659Y-28858902D01*
X111957160Y-28869556D01*
X111969198Y-28873208D01*
X112103941Y-28906894D01*
X112629349Y-29065524D01*
X112688043Y-29077146D01*
X112746540Y-29089580D01*
X112755705Y-29090543D01*
X112840001Y-29098808D01*
X112840000Y-38373000D01*
X112750000Y-38373000D01*
X112725224Y-38375440D01*
X112709839Y-38379517D01*
X111959839Y-38629517D01*
X111937106Y-38639667D01*
X111923800Y-38648400D01*
X111908663Y-38659753D01*
X111893373Y-38666180D01*
X111837920Y-38688584D01*
X111829788Y-38692909D01*
X111829783Y-38692911D01*
X111829779Y-38692914D01*
X111228913Y-39017800D01*
X111179329Y-39051245D01*
X111129266Y-39084005D01*
X111122125Y-39089829D01*
X110595802Y-39525241D01*
X110553642Y-39567697D01*
X110510912Y-39609541D01*
X110505038Y-39616642D01*
X110073312Y-40145991D01*
X110040208Y-40195818D01*
X110006413Y-40245173D01*
X110002031Y-40253279D01*
X109928133Y-40392261D01*
X109910197Y-40410197D01*
X109894403Y-40429443D01*
X109879517Y-40459839D01*
X109858204Y-40523778D01*
X109681344Y-40856403D01*
X109658548Y-40911709D01*
X109634983Y-40966690D01*
X109632258Y-40975493D01*
X109434826Y-41629419D01*
X109423203Y-41688122D01*
X109410770Y-41746611D01*
X109409807Y-41755775D01*
X109398313Y-41873000D01*
X106749899Y-41873000D01*
X106852550Y-41770349D01*
X107113560Y-41379721D01*
X107293346Y-40945679D01*
X107385000Y-40484902D01*
X107385000Y-40015098D01*
X107293346Y-39554321D01*
X107113560Y-39120279D01*
X106852550Y-38729651D01*
X106520349Y-38397450D01*
X106129721Y-38136440D01*
X105695679Y-37956654D01*
X105234902Y-37865000D01*
X104765098Y-37865000D01*
X104304321Y-37956654D01*
X103870279Y-38136440D01*
X103479651Y-38397450D01*
X103147450Y-38729651D01*
X102886440Y-39120279D01*
X102706654Y-39554321D01*
X102615000Y-40015098D01*
X102615000Y-40484902D01*
X102706654Y-40945679D01*
X102886440Y-41379721D01*
X103147450Y-41770349D01*
X103250101Y-41873000D01*
X99806625Y-41873000D01*
X99809764Y-41870424D01*
X100135866Y-41539977D01*
X100135866Y-41315471D01*
X99500000Y-40679605D01*
X98722713Y-41456892D01*
X98722713Y-41681399D01*
X98907394Y-41870424D01*
X98910533Y-41873000D01*
X81600217Y-41873000D01*
X81584897Y-41727238D01*
X81572876Y-41668675D01*
X81561661Y-41609882D01*
X81558997Y-41601060D01*
X81357005Y-40948528D01*
X81333820Y-40893373D01*
X81311416Y-40837920D01*
X81307089Y-40829784D01*
X81307089Y-40829783D01*
X81307086Y-40829779D01*
X80982200Y-40228913D01*
X80948755Y-40179329D01*
X80915995Y-40129266D01*
X80910171Y-40122125D01*
X80474759Y-39595802D01*
X80432303Y-39553642D01*
X80390459Y-39510912D01*
X80383358Y-39505038D01*
X79854009Y-39073312D01*
X79804182Y-39040208D01*
X79754827Y-39006413D01*
X79746724Y-39002032D01*
X79746716Y-39002028D01*
X79143597Y-38681344D01*
X79088291Y-38658548D01*
X79033310Y-38634983D01*
X79024507Y-38632258D01*
X78370581Y-38434826D01*
X78311878Y-38423203D01*
X78253389Y-38410770D01*
X78244225Y-38409807D01*
X78160000Y-38401549D01*
X78160000Y-38230021D01*
X78284743Y-38284472D01*
X78493000Y-38330000D01*
X78823000Y-38330000D01*
X78823000Y-37377000D01*
X78803000Y-37377000D01*
X78803000Y-37123000D01*
X78823000Y-37123000D01*
X78823000Y-37103000D01*
X79077000Y-37103000D01*
X79077000Y-37123000D01*
X79097000Y-37123000D01*
X79097000Y-37377000D01*
X79077000Y-37377000D01*
X79077000Y-38330000D01*
X79407000Y-38330000D01*
X79615257Y-38284472D01*
X79810631Y-38199190D01*
X79985613Y-38077431D01*
X80133479Y-37923874D01*
X80148644Y-37900223D01*
X82843470Y-40595049D01*
X82871183Y-40628817D01*
X82904951Y-40656530D01*
X82904953Y-40656532D01*
X82957920Y-40700001D01*
X83005941Y-40739411D01*
X83159687Y-40821589D01*
X83326510Y-40872195D01*
X83456523Y-40885000D01*
X83456533Y-40885000D01*
X83499999Y-40889281D01*
X83543465Y-40885000D01*
X85365475Y-40885000D01*
X85385359Y-40914759D01*
X85585237Y-41114637D01*
X85820269Y-41271680D01*
X86081422Y-41379853D01*
X86358661Y-41435000D01*
X86641331Y-41435000D01*
X86918570Y-41379853D01*
X87179723Y-41271680D01*
X87414755Y-41114637D01*
X87614633Y-40914759D01*
X87771676Y-40679727D01*
X87879849Y-40418574D01*
X87934996Y-40141335D01*
X87934996Y-39858665D01*
X87879849Y-39581426D01*
X87771676Y-39320273D01*
X87614633Y-39085241D01*
X87414755Y-38885363D01*
X87179723Y-38728320D01*
X86918570Y-38620147D01*
X86641331Y-38565000D01*
X86358661Y-38565000D01*
X86081422Y-38620147D01*
X85820269Y-38728320D01*
X85585237Y-38885363D01*
X85385359Y-39085241D01*
X85365475Y-39115000D01*
X83866579Y-39115000D01*
X82145462Y-37393883D01*
X82321822Y-37285553D01*
X82481676Y-37137471D01*
X82609569Y-36961049D01*
X82700586Y-36763066D01*
X82751230Y-36551131D01*
X82602564Y-36377000D01*
X81777000Y-36377000D01*
X81777000Y-36397000D01*
X81523000Y-36397000D01*
X81523000Y-36377000D01*
X81503000Y-36377000D01*
X81503000Y-36123000D01*
X81523000Y-36123000D01*
X81523000Y-36103000D01*
X81777000Y-36103000D01*
X81777000Y-36123000D01*
X82602564Y-36123000D01*
X82751230Y-35948869D01*
X82700586Y-35736934D01*
X82609569Y-35538951D01*
X82481676Y-35362529D01*
X82323490Y-35215992D01*
X82357928Y-35205546D01*
X82484181Y-35138061D01*
X85205000Y-35138061D01*
X85205000Y-35341939D01*
X85244774Y-35541898D01*
X85322795Y-35730256D01*
X85436063Y-35899774D01*
X85580226Y-36043937D01*
X85749744Y-36157205D01*
X85938102Y-36235226D01*
X86138061Y-36275000D01*
X86341939Y-36275000D01*
X86541898Y-36235226D01*
X86730256Y-36157205D01*
X86899774Y-36043937D01*
X87043937Y-35899774D01*
X87157205Y-35730256D01*
X87235226Y-35541898D01*
X87275000Y-35341939D01*
X87275000Y-35138061D01*
X87260357Y-35064445D01*
X87789802Y-34535000D01*
X87851939Y-34535000D01*
X88051898Y-34495226D01*
X88240256Y-34417205D01*
X88250013Y-34410686D01*
X88259770Y-34417205D01*
X88448128Y-34495226D01*
X88648087Y-34535000D01*
X88710225Y-34535000D01*
X90284228Y-36109004D01*
X90308027Y-36138003D01*
X90337025Y-36161801D01*
X90423751Y-36232976D01*
X90522012Y-36285498D01*
X90555781Y-36303548D01*
X90699042Y-36347005D01*
X90810695Y-36358002D01*
X90810705Y-36358002D01*
X90848028Y-36361678D01*
X90885351Y-36358002D01*
X91234434Y-36358002D01*
X91065226Y-36471063D01*
X90921063Y-36615226D01*
X90807795Y-36784744D01*
X90729774Y-36973102D01*
X90724514Y-36999548D01*
X90698102Y-37004802D01*
X90509744Y-37082823D01*
X90340226Y-37196091D01*
X90196063Y-37340254D01*
X90082795Y-37509772D01*
X90004774Y-37698130D01*
X89965000Y-37898089D01*
X89965000Y-38101967D01*
X89993066Y-38243066D01*
X89851939Y-38214994D01*
X89648061Y-38214994D01*
X89448102Y-38254768D01*
X89259744Y-38332789D01*
X89090226Y-38446057D01*
X88946063Y-38590220D01*
X88832795Y-38759738D01*
X88754774Y-38948096D01*
X88715000Y-39148055D01*
X88715000Y-39351933D01*
X88754774Y-39551892D01*
X88832795Y-39740250D01*
X88946063Y-39909768D01*
X89090226Y-40053931D01*
X89259744Y-40167199D01*
X89448102Y-40245220D01*
X89648061Y-40284994D01*
X89710199Y-40284994D01*
X90636208Y-41211004D01*
X90660006Y-41240002D01*
X90689004Y-41263800D01*
X90775731Y-41334975D01*
X90907760Y-41405547D01*
X91051021Y-41449004D01*
X91200007Y-41463678D01*
X91237340Y-41460001D01*
X95637677Y-41460001D01*
X95674999Y-41463677D01*
X95712321Y-41460001D01*
X95712332Y-41460001D01*
X95823985Y-41449004D01*
X95967246Y-41405547D01*
X96099275Y-41334975D01*
X96215000Y-41240002D01*
X96238801Y-41211001D01*
X96261001Y-41188801D01*
X96290001Y-41165001D01*
X96384974Y-41049276D01*
X96455546Y-40917247D01*
X96477197Y-40845871D01*
X96501185Y-40826185D01*
X96580537Y-40729494D01*
X96639502Y-40619180D01*
X96675812Y-40499482D01*
X96688072Y-40375000D01*
X96688072Y-38625000D01*
X96675812Y-38500518D01*
X96639502Y-38380820D01*
X96580537Y-38270506D01*
X96501185Y-38173815D01*
X96404494Y-38094463D01*
X96294180Y-38035498D01*
X96174482Y-37999188D01*
X96050000Y-37986928D01*
X95636178Y-37986928D01*
X95526250Y-37877000D01*
X94877000Y-37877000D01*
X94877000Y-38349947D01*
X94860498Y-38380820D01*
X94824188Y-38500518D01*
X94811928Y-38625000D01*
X94811928Y-39940001D01*
X94688072Y-39940001D01*
X94688072Y-38625000D01*
X94675812Y-38500518D01*
X94639502Y-38380820D01*
X94623000Y-38349947D01*
X94623000Y-37877000D01*
X94603000Y-37877000D01*
X94603000Y-37623000D01*
X94623000Y-37623000D01*
X94623000Y-37603000D01*
X94877000Y-37603000D01*
X94877000Y-37623000D01*
X95526250Y-37623000D01*
X95685000Y-37464250D01*
X95688072Y-36875000D01*
X95675812Y-36750518D01*
X95670466Y-36732896D01*
X95700923Y-36687314D01*
X95778944Y-36498956D01*
X95818718Y-36298997D01*
X95818718Y-36095119D01*
X95778944Y-35895160D01*
X95700923Y-35706802D01*
X95587655Y-35537284D01*
X95508458Y-35458087D01*
X95531738Y-35341048D01*
X95531738Y-35137170D01*
X95491964Y-34937211D01*
X95413943Y-34748853D01*
X95300675Y-34579335D01*
X95179710Y-34458370D01*
X96275309Y-34458370D01*
X96275309Y-34662248D01*
X96315083Y-34862207D01*
X96393104Y-35050565D01*
X96506372Y-35220083D01*
X96550309Y-35264020D01*
X96550309Y-35522987D01*
X96546633Y-35560309D01*
X96550309Y-35597631D01*
X96550309Y-35597641D01*
X96561306Y-35709294D01*
X96604377Y-35851282D01*
X96604763Y-35852555D01*
X96675335Y-35984585D01*
X96690272Y-36002785D01*
X96770308Y-36100310D01*
X96799311Y-36124112D01*
X97240001Y-36564803D01*
X97240000Y-38538574D01*
X97206707Y-38571867D01*
X97095730Y-38707094D01*
X96985693Y-38912956D01*
X96917934Y-39136329D01*
X96895055Y-39368629D01*
X96917934Y-39600929D01*
X96985693Y-39824302D01*
X97095730Y-40030164D01*
X97243812Y-40210604D01*
X97424252Y-40358686D01*
X97630114Y-40468723D01*
X97853487Y-40536482D01*
X97952069Y-40546191D01*
X97942689Y-40641421D01*
X97954950Y-40765903D01*
X97991259Y-40885601D01*
X98050223Y-40995915D01*
X98129576Y-41092606D01*
X98318601Y-41277287D01*
X98543108Y-41277287D01*
X99320395Y-40500000D01*
X99679605Y-40500000D01*
X100315471Y-41135866D01*
X100539977Y-41135866D01*
X100870424Y-40809764D01*
X100949777Y-40713072D01*
X101008741Y-40602758D01*
X101045050Y-40483060D01*
X101057311Y-40358579D01*
X101045050Y-40234097D01*
X101008741Y-40114399D01*
X100949777Y-40004085D01*
X100870424Y-39907394D01*
X100681399Y-39722713D01*
X100456892Y-39722713D01*
X99679605Y-40500000D01*
X99320395Y-40500000D01*
X99306253Y-40485858D01*
X99485858Y-40306253D01*
X99500000Y-40320395D01*
X100277287Y-39543108D01*
X100277287Y-39318601D01*
X100092606Y-39129576D01*
X99995915Y-39050223D01*
X99885601Y-38991259D01*
X99765903Y-38954950D01*
X99641421Y-38942689D01*
X99546191Y-38952069D01*
X99536482Y-38853487D01*
X99468723Y-38630114D01*
X99358686Y-38424252D01*
X99210604Y-38243812D01*
X99030164Y-38095730D01*
X98824302Y-37985693D01*
X98760000Y-37966187D01*
X98760000Y-37350095D01*
X100283926Y-37350095D01*
X100324445Y-37568015D01*
X100355256Y-37592050D01*
X100571202Y-37680886D01*
X100800329Y-37725887D01*
X101004902Y-37725392D01*
X100996274Y-37812994D01*
X101019153Y-38045294D01*
X101086912Y-38268667D01*
X101196949Y-38474529D01*
X101345031Y-38654969D01*
X101525471Y-38803051D01*
X101731333Y-38913088D01*
X101954706Y-38980847D01*
X102187006Y-39003726D01*
X102419306Y-38980847D01*
X102642679Y-38913088D01*
X102848541Y-38803051D01*
X102983768Y-38692074D01*
X103348928Y-38326914D01*
X103459905Y-38191687D01*
X103569942Y-37985825D01*
X103637701Y-37762453D01*
X103660580Y-37530152D01*
X103637701Y-37297852D01*
X103569942Y-37074479D01*
X103459905Y-36868617D01*
X103311823Y-36688177D01*
X103131383Y-36540095D01*
X102925521Y-36430058D01*
X102702148Y-36362299D01*
X102469848Y-36339420D01*
X102382246Y-36348048D01*
X102382741Y-36143475D01*
X102337740Y-35914348D01*
X102248904Y-35698402D01*
X102224869Y-35667591D01*
X102006949Y-35627072D01*
X101235240Y-36398781D01*
X101249383Y-36412924D01*
X101069778Y-36592529D01*
X101055635Y-36578386D01*
X100283926Y-37350095D01*
X98760000Y-37350095D01*
X98760000Y-36654087D01*
X99728529Y-36654087D01*
X99773530Y-36883214D01*
X99862366Y-37099160D01*
X99886401Y-37129971D01*
X100104321Y-37170490D01*
X100876030Y-36398781D01*
X100237405Y-35760156D01*
X99995280Y-35782325D01*
X99865083Y-35976162D01*
X99775203Y-36191676D01*
X99729094Y-36420583D01*
X99728529Y-36654087D01*
X98760000Y-36654087D01*
X98760000Y-36287322D01*
X98763676Y-36249999D01*
X98760000Y-36212676D01*
X98760000Y-36212667D01*
X98749003Y-36101014D01*
X98705546Y-35957753D01*
X98634974Y-35825724D01*
X98540001Y-35709999D01*
X98511002Y-35686201D01*
X98405352Y-35580551D01*
X100417010Y-35580551D01*
X101055635Y-36219176D01*
X101827344Y-35447467D01*
X101786825Y-35229547D01*
X101756014Y-35205512D01*
X101540068Y-35116676D01*
X101310941Y-35071675D01*
X101077437Y-35072240D01*
X100848530Y-35118349D01*
X100633016Y-35208229D01*
X100439179Y-35338426D01*
X100417010Y-35580551D01*
X98405352Y-35580551D01*
X98079565Y-35254764D01*
X98114246Y-35220083D01*
X98227514Y-35050565D01*
X98305535Y-34862207D01*
X98345309Y-34662248D01*
X98345309Y-34458370D01*
X98305535Y-34258411D01*
X98227514Y-34070053D01*
X98114246Y-33900535D01*
X97970083Y-33756372D01*
X97800565Y-33643104D01*
X97612207Y-33565083D01*
X97412248Y-33525309D01*
X97208370Y-33525309D01*
X97008411Y-33565083D01*
X96820053Y-33643104D01*
X96650535Y-33756372D01*
X96506372Y-33900535D01*
X96393104Y-34070053D01*
X96315083Y-34258411D01*
X96275309Y-34458370D01*
X95179710Y-34458370D01*
X95156512Y-34435172D01*
X94986994Y-34321904D01*
X94798636Y-34243883D01*
X94598677Y-34204109D01*
X94520964Y-34204109D01*
X94388986Y-34133564D01*
X94245725Y-34090107D01*
X94134072Y-34079110D01*
X94134061Y-34079110D01*
X94096739Y-34075434D01*
X94059417Y-34079110D01*
X91719597Y-34079110D01*
X89629489Y-31989003D01*
X89605686Y-31959999D01*
X89489961Y-31865026D01*
X89357932Y-31794454D01*
X89214671Y-31750997D01*
X89103018Y-31740000D01*
X89103007Y-31740000D01*
X89065685Y-31736324D01*
X89028363Y-31740000D01*
X87953711Y-31740000D01*
X87909774Y-31696063D01*
X87740256Y-31582795D01*
X87551898Y-31504774D01*
X87351939Y-31465000D01*
X87148061Y-31465000D01*
X86948102Y-31504774D01*
X86759744Y-31582795D01*
X86590226Y-31696063D01*
X86446063Y-31840226D01*
X86332795Y-32009744D01*
X86254774Y-32198102D01*
X86215000Y-32398061D01*
X86215000Y-32601939D01*
X86254774Y-32801898D01*
X86332795Y-32990256D01*
X86446063Y-33159774D01*
X86590226Y-33303937D01*
X86716888Y-33388570D01*
X86715000Y-33398061D01*
X86715000Y-33460198D01*
X85924996Y-34250203D01*
X85749744Y-34322795D01*
X85580226Y-34436063D01*
X85436063Y-34580226D01*
X85322795Y-34749744D01*
X85244774Y-34938102D01*
X85205000Y-35138061D01*
X82484181Y-35138061D01*
X82489957Y-35134974D01*
X82605682Y-35040001D01*
X82629485Y-35010997D01*
X84761004Y-32879479D01*
X84790001Y-32855682D01*
X84884974Y-32739957D01*
X84955546Y-32607928D01*
X84998987Y-32464720D01*
X85053937Y-32409770D01*
X85167205Y-32240252D01*
X85245226Y-32051894D01*
X85285000Y-31851935D01*
X85285000Y-31648057D01*
X85245226Y-31448098D01*
X85167205Y-31259740D01*
X85053937Y-31090222D01*
X84909774Y-30946059D01*
X84740256Y-30832791D01*
X84551898Y-30754770D01*
X84351939Y-30714996D01*
X84148061Y-30714996D01*
X83948102Y-30754770D01*
X83759744Y-30832791D01*
X83590226Y-30946059D01*
X83446063Y-31090222D01*
X83361428Y-31216887D01*
X83351939Y-31215000D01*
X83148061Y-31215000D01*
X82948102Y-31254774D01*
X82759744Y-31332795D01*
X82635627Y-31415727D01*
X82602564Y-31377000D01*
X81777000Y-31377000D01*
X81777000Y-31582535D01*
X81749482Y-31574188D01*
X81625000Y-31561928D01*
X81523000Y-31562460D01*
X81523000Y-31377000D01*
X80697436Y-31377000D01*
X80548770Y-31551131D01*
X80579663Y-31680413D01*
X80464250Y-31565000D01*
X79875000Y-31561928D01*
X79750518Y-31574188D01*
X79630820Y-31610498D01*
X79520506Y-31669463D01*
X79423815Y-31748815D01*
X79344463Y-31845506D01*
X79285498Y-31955820D01*
X79249188Y-32075518D01*
X79236928Y-32200000D01*
X79240000Y-32214250D01*
X79398750Y-32373000D01*
X80623000Y-32373000D01*
X80623000Y-32353000D01*
X80877000Y-32353000D01*
X80877000Y-32373000D01*
X80897000Y-32373000D01*
X80897000Y-32627000D01*
X80877000Y-32627000D01*
X80877000Y-32647000D01*
X80623000Y-32647000D01*
X80623000Y-32627000D01*
X80150053Y-32627000D01*
X80119180Y-32610498D01*
X79999482Y-32574188D01*
X79875000Y-32561928D01*
X78160000Y-32561928D01*
X78160000Y-31230021D01*
X78284743Y-31284472D01*
X78493000Y-31330000D01*
X78823000Y-31330000D01*
X78823000Y-30377000D01*
X79077000Y-30377000D01*
X79077000Y-31330000D01*
X79407000Y-31330000D01*
X79615257Y-31284472D01*
X79810631Y-31199190D01*
X79985613Y-31077431D01*
X80109410Y-30948869D01*
X80548770Y-30948869D01*
X80697436Y-31123000D01*
X81523000Y-31123000D01*
X81523000Y-30157266D01*
X81777000Y-30157266D01*
X81777000Y-31123000D01*
X82602564Y-31123000D01*
X82751230Y-30948869D01*
X82700586Y-30736934D01*
X82609569Y-30538951D01*
X82481676Y-30362529D01*
X82321822Y-30214447D01*
X82136150Y-30100397D01*
X81947938Y-30030732D01*
X81777000Y-30157266D01*
X81523000Y-30157266D01*
X81352062Y-30030732D01*
X81163850Y-30100397D01*
X80978178Y-30214447D01*
X80818324Y-30362529D01*
X80690431Y-30538951D01*
X80599414Y-30736934D01*
X80548770Y-30948869D01*
X80109410Y-30948869D01*
X80133479Y-30923874D01*
X80248546Y-30744420D01*
X80319435Y-30543213D01*
X80192454Y-30377000D01*
X79077000Y-30377000D01*
X78823000Y-30377000D01*
X78803000Y-30377000D01*
X78803000Y-30123000D01*
X78823000Y-30123000D01*
X78823000Y-29170000D01*
X79077000Y-29170000D01*
X79077000Y-30123000D01*
X80192454Y-30123000D01*
X80319435Y-29956787D01*
X80248546Y-29755580D01*
X80133479Y-29576126D01*
X79985613Y-29422569D01*
X79810631Y-29300810D01*
X79615257Y-29215528D01*
X79407000Y-29170000D01*
X79077000Y-29170000D01*
X78823000Y-29170000D01*
X78493000Y-29170000D01*
X78284743Y-29215528D01*
X78160000Y-29269979D01*
X78160000Y-29093893D01*
X78331033Y-29073443D01*
X78389436Y-29060582D01*
X78448046Y-29048532D01*
X78456829Y-29045742D01*
X79106408Y-28834450D01*
X79161199Y-28810491D01*
X79216354Y-28787285D01*
X79224428Y-28782843D01*
X79465409Y-28648061D01*
X86965000Y-28648061D01*
X86965000Y-28851939D01*
X87004774Y-29051898D01*
X87082795Y-29240256D01*
X87196063Y-29409774D01*
X87340226Y-29553937D01*
X87509744Y-29667205D01*
X87698102Y-29745226D01*
X87898061Y-29785000D01*
X87960199Y-29785000D01*
X88186200Y-30011002D01*
X88209999Y-30040001D01*
X88325724Y-30134974D01*
X88457753Y-30205546D01*
X88601014Y-30249003D01*
X88712667Y-30260000D01*
X88712676Y-30260000D01*
X88749999Y-30263676D01*
X88787322Y-30260000D01*
X90444499Y-30260000D01*
X90498815Y-30326185D01*
X90595506Y-30405537D01*
X90705820Y-30464502D01*
X90825518Y-30500812D01*
X90950000Y-30513072D01*
X91550000Y-30513072D01*
X91674482Y-30500812D01*
X91794180Y-30464502D01*
X91904494Y-30405537D01*
X91996674Y-30329887D01*
X92148061Y-30360000D01*
X92351939Y-30360000D01*
X92503326Y-30329887D01*
X92595506Y-30405537D01*
X92705820Y-30464502D01*
X92825518Y-30500812D01*
X92950000Y-30513072D01*
X93550000Y-30513072D01*
X93674482Y-30500812D01*
X93794180Y-30464502D01*
X93904494Y-30405537D01*
X94001185Y-30326185D01*
X94080537Y-30229494D01*
X94139502Y-30119180D01*
X94175812Y-29999482D01*
X94188072Y-29875000D01*
X94188072Y-28125000D01*
X94311928Y-28125000D01*
X94311928Y-29875000D01*
X94324188Y-29999482D01*
X94360498Y-30119180D01*
X94419463Y-30229494D01*
X94498815Y-30326185D01*
X94595506Y-30405537D01*
X94705820Y-30464502D01*
X94825518Y-30500812D01*
X94950000Y-30513072D01*
X95550000Y-30513072D01*
X95674482Y-30500812D01*
X95794180Y-30464502D01*
X95904494Y-30405537D01*
X96001185Y-30326185D01*
X96080537Y-30229494D01*
X96139502Y-30119180D01*
X96175812Y-29999482D01*
X96188072Y-29875000D01*
X96188072Y-29635000D01*
X97310199Y-29635000D01*
X97965000Y-30289802D01*
X97965000Y-30351939D01*
X98004774Y-30551898D01*
X98082795Y-30740256D01*
X98196063Y-30909774D01*
X98340226Y-31053937D01*
X98509744Y-31167205D01*
X98698102Y-31245226D01*
X98898061Y-31285000D01*
X99101939Y-31285000D01*
X99301898Y-31245226D01*
X99490256Y-31167205D01*
X99659774Y-31053937D01*
X99749002Y-30964709D01*
X99769153Y-31169306D01*
X99836912Y-31392679D01*
X99946949Y-31598541D01*
X100057926Y-31733768D01*
X100423086Y-32098928D01*
X100558313Y-32209905D01*
X100764175Y-32319942D01*
X100987547Y-32387701D01*
X101219848Y-32410580D01*
X101452148Y-32387701D01*
X101675521Y-32319942D01*
X101881383Y-32209905D01*
X102061823Y-32061823D01*
X102209905Y-31881383D01*
X102319942Y-31675521D01*
X102387701Y-31452148D01*
X102410580Y-31219848D01*
X102401952Y-31132246D01*
X102606525Y-31132741D01*
X102835652Y-31087740D01*
X103051598Y-30998904D01*
X103082409Y-30974869D01*
X103122928Y-30756949D01*
X102351219Y-29985240D01*
X102337077Y-29999383D01*
X102157472Y-29819778D01*
X102171614Y-29805635D01*
X102530824Y-29805635D01*
X103302533Y-30577344D01*
X103520453Y-30536825D01*
X103544488Y-30506014D01*
X103633324Y-30290068D01*
X103678325Y-30060941D01*
X103677760Y-29827437D01*
X103631651Y-29598530D01*
X103541771Y-29383016D01*
X103411574Y-29189179D01*
X103169449Y-29167010D01*
X102530824Y-29805635D01*
X102171614Y-29805635D01*
X101399905Y-29033926D01*
X101181985Y-29074445D01*
X101157950Y-29105256D01*
X101069114Y-29321202D01*
X101024113Y-29550329D01*
X101024608Y-29754902D01*
X100937006Y-29746274D01*
X100704706Y-29769153D01*
X100481333Y-29836912D01*
X100275471Y-29946949D01*
X100095031Y-30095031D01*
X100035000Y-30168180D01*
X100035000Y-30148061D01*
X99995226Y-29948102D01*
X99917205Y-29759744D01*
X99803937Y-29590226D01*
X99659774Y-29446063D01*
X99490256Y-29332795D01*
X99301898Y-29254774D01*
X99101939Y-29215000D01*
X99039802Y-29215000D01*
X98188804Y-28364003D01*
X98165001Y-28334999D01*
X98066354Y-28254041D01*
X98070395Y-28250000D01*
X97293108Y-27472713D01*
X97068601Y-27472713D01*
X96879576Y-27657394D01*
X96800223Y-27754085D01*
X96741259Y-27864399D01*
X96704950Y-27984097D01*
X96692689Y-28108579D01*
X96693321Y-28115000D01*
X96187087Y-28115000D01*
X96175812Y-28000518D01*
X96139502Y-27880820D01*
X96080537Y-27770506D01*
X96001185Y-27673815D01*
X95904494Y-27594463D01*
X95794180Y-27535498D01*
X95674482Y-27499188D01*
X95550000Y-27486928D01*
X95136178Y-27486928D01*
X95026250Y-27377000D01*
X94377000Y-27377000D01*
X94377000Y-27849947D01*
X94360498Y-27880820D01*
X94324188Y-28000518D01*
X94311928Y-28125000D01*
X94188072Y-28125000D01*
X94175812Y-28000518D01*
X94139502Y-27880820D01*
X94123000Y-27849947D01*
X94123000Y-27377000D01*
X93473750Y-27377000D01*
X93363822Y-27486928D01*
X93188072Y-27486928D01*
X93188072Y-26375000D01*
X93311928Y-26375000D01*
X93315000Y-26964250D01*
X93473750Y-27123000D01*
X94123000Y-27123000D01*
X94123000Y-25898750D01*
X94377000Y-25898750D01*
X94377000Y-27123000D01*
X95026250Y-27123000D01*
X95080649Y-27068601D01*
X97472713Y-27068601D01*
X97472713Y-27293108D01*
X98250000Y-28070395D01*
X98264143Y-28056253D01*
X98443748Y-28235858D01*
X98429605Y-28250000D01*
X99206892Y-29027287D01*
X99431399Y-29027287D01*
X99608433Y-28854321D01*
X101579510Y-28854321D01*
X102351219Y-29626030D01*
X102989844Y-28987405D01*
X102967675Y-28745280D01*
X102773838Y-28615083D01*
X102558324Y-28525203D01*
X102329417Y-28479094D01*
X102095913Y-28478529D01*
X101866786Y-28523530D01*
X101650840Y-28612366D01*
X101620029Y-28636401D01*
X101579510Y-28854321D01*
X99608433Y-28854321D01*
X99620424Y-28842606D01*
X99699777Y-28745915D01*
X99758741Y-28635601D01*
X99795050Y-28515903D01*
X99807311Y-28391421D01*
X99797931Y-28296191D01*
X99896513Y-28286482D01*
X100119886Y-28218723D01*
X100325748Y-28108686D01*
X100506188Y-27960604D01*
X100654270Y-27780164D01*
X100764307Y-27574302D01*
X100832066Y-27350929D01*
X100854945Y-27118629D01*
X100832066Y-26886328D01*
X100764307Y-26662956D01*
X100654270Y-26457094D01*
X100543293Y-26321867D01*
X100178133Y-25956707D01*
X100042906Y-25845730D01*
X99837044Y-25735693D01*
X99613671Y-25667934D01*
X99381371Y-25645055D01*
X99149071Y-25667934D01*
X98925698Y-25735693D01*
X98719836Y-25845730D01*
X98539396Y-25993812D01*
X98391314Y-26174252D01*
X98281277Y-26380114D01*
X98213518Y-26603487D01*
X98203809Y-26702069D01*
X98108579Y-26692689D01*
X97984097Y-26704950D01*
X97864399Y-26741259D01*
X97754085Y-26800223D01*
X97657394Y-26879576D01*
X97472713Y-27068601D01*
X95080649Y-27068601D01*
X95185000Y-26964250D01*
X95188072Y-26375000D01*
X95175812Y-26250518D01*
X95139502Y-26130820D01*
X95080537Y-26020506D01*
X95001185Y-25923815D01*
X94904494Y-25844463D01*
X94794180Y-25785498D01*
X94674482Y-25749188D01*
X94550000Y-25736928D01*
X94535750Y-25740000D01*
X94377000Y-25898750D01*
X94123000Y-25898750D01*
X93964250Y-25740000D01*
X93950000Y-25736928D01*
X93825518Y-25749188D01*
X93705820Y-25785498D01*
X93595506Y-25844463D01*
X93498815Y-25923815D01*
X93419463Y-26020506D01*
X93360498Y-26130820D01*
X93324188Y-26250518D01*
X93311928Y-26375000D01*
X93188072Y-26375000D01*
X93175812Y-26250518D01*
X93139502Y-26130820D01*
X93080537Y-26020506D01*
X93001185Y-25923815D01*
X92904494Y-25844463D01*
X92794180Y-25785498D01*
X92674482Y-25749188D01*
X92550000Y-25736928D01*
X91950000Y-25736928D01*
X91825518Y-25749188D01*
X91705820Y-25785498D01*
X91595506Y-25844463D01*
X91498815Y-25923815D01*
X91419463Y-26020506D01*
X91360498Y-26130820D01*
X91324188Y-26250518D01*
X91312913Y-26365000D01*
X90912322Y-26365000D01*
X90874999Y-26361324D01*
X90837676Y-26365000D01*
X90837667Y-26365000D01*
X90726014Y-26375997D01*
X90582753Y-26419454D01*
X90450723Y-26490026D01*
X90393882Y-26536675D01*
X90334999Y-26584999D01*
X90311201Y-26613997D01*
X89210199Y-27715000D01*
X89148061Y-27715000D01*
X88948102Y-27754774D01*
X88759744Y-27832795D01*
X88625000Y-27922828D01*
X88490256Y-27832795D01*
X88301898Y-27754774D01*
X88101939Y-27715000D01*
X87898061Y-27715000D01*
X87698102Y-27754774D01*
X87509744Y-27832795D01*
X87340226Y-27946063D01*
X87196063Y-28090226D01*
X87082795Y-28259744D01*
X87004774Y-28448102D01*
X86965000Y-28648061D01*
X79465409Y-28648061D01*
X79820596Y-28449404D01*
X79869696Y-28415255D01*
X79919287Y-28381782D01*
X79926344Y-28375856D01*
X80446394Y-27932970D01*
X80487917Y-27889943D01*
X80530070Y-27847468D01*
X80535841Y-27840284D01*
X80959964Y-27304822D01*
X80992357Y-27254521D01*
X81025439Y-27204695D01*
X81029706Y-27196527D01*
X81336267Y-26599552D01*
X81355670Y-26570447D01*
X81367383Y-26548478D01*
X81373208Y-26530802D01*
X81386262Y-26478586D01*
X81386526Y-26477945D01*
X81389124Y-26469104D01*
X81577195Y-25812424D01*
X81587972Y-25753596D01*
X81599575Y-25694901D01*
X81600407Y-25685723D01*
X81605319Y-25627000D01*
X103250101Y-25627000D01*
X103147450Y-25729651D01*
G37*
X103147450Y-25729651D02*
X102886440Y-26120279D01*
X102706654Y-26554321D01*
X102615000Y-27015098D01*
X102615000Y-27484902D01*
X102706654Y-27945679D01*
X102886440Y-28379721D01*
X103147450Y-28770349D01*
X103479651Y-29102550D01*
X103870279Y-29363560D01*
X104304321Y-29543346D01*
X104765098Y-29635000D01*
X105234902Y-29635000D01*
X105695679Y-29543346D01*
X106129721Y-29363560D01*
X106520349Y-29102550D01*
X106852550Y-28770349D01*
X107113560Y-28379721D01*
X107293346Y-27945679D01*
X107385000Y-27484902D01*
X107385000Y-27015098D01*
X107293346Y-26554321D01*
X107113560Y-26120279D01*
X106852550Y-25729651D01*
X106749899Y-25627000D01*
X109123000Y-25627000D01*
X109123000Y-25750000D01*
X109125440Y-25774776D01*
X109136408Y-25806796D01*
X109886408Y-27306796D01*
X109899671Y-27327866D01*
X109910197Y-27339803D01*
X110660197Y-28089803D01*
X110684659Y-28108902D01*
X110953740Y-28270351D01*
X111145793Y-28426985D01*
X111195601Y-28460078D01*
X111244975Y-28493885D01*
X111253081Y-28498268D01*
X111856267Y-28818987D01*
X111894174Y-28834611D01*
X111934659Y-28858902D01*
X111957160Y-28869556D01*
X111969198Y-28873208D01*
X112103941Y-28906894D01*
X112629349Y-29065524D01*
X112688043Y-29077146D01*
X112746540Y-29089580D01*
X112755705Y-29090543D01*
X112840001Y-29098808D01*
X112840000Y-38373000D01*
X112750000Y-38373000D01*
X112725224Y-38375440D01*
X112709839Y-38379517D01*
X111959839Y-38629517D01*
X111937106Y-38639667D01*
X111923800Y-38648400D01*
X111908663Y-38659753D01*
X111893373Y-38666180D01*
X111837920Y-38688584D01*
X111829788Y-38692909D01*
X111829783Y-38692911D01*
X111829779Y-38692914D01*
X111228913Y-39017800D01*
X111179329Y-39051245D01*
X111129266Y-39084005D01*
X111122125Y-39089829D01*
X110595802Y-39525241D01*
X110553642Y-39567697D01*
X110510912Y-39609541D01*
X110505038Y-39616642D01*
X110073312Y-40145991D01*
X110040208Y-40195818D01*
X110006413Y-40245173D01*
X110002031Y-40253279D01*
X109928133Y-40392261D01*
X109910197Y-40410197D01*
X109894403Y-40429443D01*
X109879517Y-40459839D01*
X109858204Y-40523778D01*
X109681344Y-40856403D01*
X109658548Y-40911709D01*
X109634983Y-40966690D01*
X109632258Y-40975493D01*
X109434826Y-41629419D01*
X109423203Y-41688122D01*
X109410770Y-41746611D01*
X109409807Y-41755775D01*
X109398313Y-41873000D01*
X106749899Y-41873000D01*
X106852550Y-41770349D01*
X107113560Y-41379721D01*
X107293346Y-40945679D01*
X107385000Y-40484902D01*
X107385000Y-40015098D01*
X107293346Y-39554321D01*
X107113560Y-39120279D01*
X106852550Y-38729651D01*
X106520349Y-38397450D01*
X106129721Y-38136440D01*
X105695679Y-37956654D01*
X105234902Y-37865000D01*
X104765098Y-37865000D01*
X104304321Y-37956654D01*
X103870279Y-38136440D01*
X103479651Y-38397450D01*
X103147450Y-38729651D01*
X102886440Y-39120279D01*
X102706654Y-39554321D01*
X102615000Y-40015098D01*
X102615000Y-40484902D01*
X102706654Y-40945679D01*
X102886440Y-41379721D01*
X103147450Y-41770349D01*
X103250101Y-41873000D01*
X99806625Y-41873000D01*
X99809764Y-41870424D01*
X100135866Y-41539977D01*
X100135866Y-41315471D01*
X99500000Y-40679605D01*
X98722713Y-41456892D01*
X98722713Y-41681399D01*
X98907394Y-41870424D01*
X98910533Y-41873000D01*
X81600217Y-41873000D01*
X81584897Y-41727238D01*
X81572876Y-41668675D01*
X81561661Y-41609882D01*
X81558997Y-41601060D01*
X81357005Y-40948528D01*
X81333820Y-40893373D01*
X81311416Y-40837920D01*
X81307089Y-40829784D01*
X81307089Y-40829783D01*
X81307086Y-40829779D01*
X80982200Y-40228913D01*
X80948755Y-40179329D01*
X80915995Y-40129266D01*
X80910171Y-40122125D01*
X80474759Y-39595802D01*
X80432303Y-39553642D01*
X80390459Y-39510912D01*
X80383358Y-39505038D01*
X79854009Y-39073312D01*
X79804182Y-39040208D01*
X79754827Y-39006413D01*
X79746724Y-39002032D01*
X79746716Y-39002028D01*
X79143597Y-38681344D01*
X79088291Y-38658548D01*
X79033310Y-38634983D01*
X79024507Y-38632258D01*
X78370581Y-38434826D01*
X78311878Y-38423203D01*
X78253389Y-38410770D01*
X78244225Y-38409807D01*
X78160000Y-38401549D01*
X78160000Y-38230021D01*
X78284743Y-38284472D01*
X78493000Y-38330000D01*
X78823000Y-38330000D01*
X78823000Y-37377000D01*
X78803000Y-37377000D01*
X78803000Y-37123000D01*
X78823000Y-37123000D01*
X78823000Y-37103000D01*
X79077000Y-37103000D01*
X79077000Y-37123000D01*
X79097000Y-37123000D01*
X79097000Y-37377000D01*
X79077000Y-37377000D01*
X79077000Y-38330000D01*
X79407000Y-38330000D01*
X79615257Y-38284472D01*
X79810631Y-38199190D01*
X79985613Y-38077431D01*
X80133479Y-37923874D01*
X80148644Y-37900223D01*
X82843470Y-40595049D01*
X82871183Y-40628817D01*
X82904951Y-40656530D01*
X82904953Y-40656532D01*
X82957920Y-40700001D01*
X83005941Y-40739411D01*
X83159687Y-40821589D01*
X83326510Y-40872195D01*
X83456523Y-40885000D01*
X83456533Y-40885000D01*
X83499999Y-40889281D01*
X83543465Y-40885000D01*
X85365475Y-40885000D01*
X85385359Y-40914759D01*
X85585237Y-41114637D01*
X85820269Y-41271680D01*
X86081422Y-41379853D01*
X86358661Y-41435000D01*
X86641331Y-41435000D01*
X86918570Y-41379853D01*
X87179723Y-41271680D01*
X87414755Y-41114637D01*
X87614633Y-40914759D01*
X87771676Y-40679727D01*
X87879849Y-40418574D01*
X87934996Y-40141335D01*
X87934996Y-39858665D01*
X87879849Y-39581426D01*
X87771676Y-39320273D01*
X87614633Y-39085241D01*
X87414755Y-38885363D01*
X87179723Y-38728320D01*
X86918570Y-38620147D01*
X86641331Y-38565000D01*
X86358661Y-38565000D01*
X86081422Y-38620147D01*
X85820269Y-38728320D01*
X85585237Y-38885363D01*
X85385359Y-39085241D01*
X85365475Y-39115000D01*
X83866579Y-39115000D01*
X82145462Y-37393883D01*
X82321822Y-37285553D01*
X82481676Y-37137471D01*
X82609569Y-36961049D01*
X82700586Y-36763066D01*
X82751230Y-36551131D01*
X82602564Y-36377000D01*
X81777000Y-36377000D01*
X81777000Y-36397000D01*
X81523000Y-36397000D01*
X81523000Y-36377000D01*
X81503000Y-36377000D01*
X81503000Y-36123000D01*
X81523000Y-36123000D01*
X81523000Y-36103000D01*
X81777000Y-36103000D01*
X81777000Y-36123000D01*
X82602564Y-36123000D01*
X82751230Y-35948869D01*
X82700586Y-35736934D01*
X82609569Y-35538951D01*
X82481676Y-35362529D01*
X82323490Y-35215992D01*
X82357928Y-35205546D01*
X82484181Y-35138061D01*
X85205000Y-35138061D01*
X85205000Y-35341939D01*
X85244774Y-35541898D01*
X85322795Y-35730256D01*
X85436063Y-35899774D01*
X85580226Y-36043937D01*
X85749744Y-36157205D01*
X85938102Y-36235226D01*
X86138061Y-36275000D01*
X86341939Y-36275000D01*
X86541898Y-36235226D01*
X86730256Y-36157205D01*
X86899774Y-36043937D01*
X87043937Y-35899774D01*
X87157205Y-35730256D01*
X87235226Y-35541898D01*
X87275000Y-35341939D01*
X87275000Y-35138061D01*
X87260357Y-35064445D01*
X87789802Y-34535000D01*
X87851939Y-34535000D01*
X88051898Y-34495226D01*
X88240256Y-34417205D01*
X88250013Y-34410686D01*
X88259770Y-34417205D01*
X88448128Y-34495226D01*
X88648087Y-34535000D01*
X88710225Y-34535000D01*
X90284228Y-36109004D01*
X90308027Y-36138003D01*
X90337025Y-36161801D01*
X90423751Y-36232976D01*
X90522012Y-36285498D01*
X90555781Y-36303548D01*
X90699042Y-36347005D01*
X90810695Y-36358002D01*
X90810705Y-36358002D01*
X90848028Y-36361678D01*
X90885351Y-36358002D01*
X91234434Y-36358002D01*
X91065226Y-36471063D01*
X90921063Y-36615226D01*
X90807795Y-36784744D01*
X90729774Y-36973102D01*
X90724514Y-36999548D01*
X90698102Y-37004802D01*
X90509744Y-37082823D01*
X90340226Y-37196091D01*
X90196063Y-37340254D01*
X90082795Y-37509772D01*
X90004774Y-37698130D01*
X89965000Y-37898089D01*
X89965000Y-38101967D01*
X89993066Y-38243066D01*
X89851939Y-38214994D01*
X89648061Y-38214994D01*
X89448102Y-38254768D01*
X89259744Y-38332789D01*
X89090226Y-38446057D01*
X88946063Y-38590220D01*
X88832795Y-38759738D01*
X88754774Y-38948096D01*
X88715000Y-39148055D01*
X88715000Y-39351933D01*
X88754774Y-39551892D01*
X88832795Y-39740250D01*
X88946063Y-39909768D01*
X89090226Y-40053931D01*
X89259744Y-40167199D01*
X89448102Y-40245220D01*
X89648061Y-40284994D01*
X89710199Y-40284994D01*
X90636208Y-41211004D01*
X90660006Y-41240002D01*
X90689004Y-41263800D01*
X90775731Y-41334975D01*
X90907760Y-41405547D01*
X91051021Y-41449004D01*
X91200007Y-41463678D01*
X91237340Y-41460001D01*
X95637677Y-41460001D01*
X95674999Y-41463677D01*
X95712321Y-41460001D01*
X95712332Y-41460001D01*
X95823985Y-41449004D01*
X95967246Y-41405547D01*
X96099275Y-41334975D01*
X96215000Y-41240002D01*
X96238801Y-41211001D01*
X96261001Y-41188801D01*
X96290001Y-41165001D01*
X96384974Y-41049276D01*
X96455546Y-40917247D01*
X96477197Y-40845871D01*
X96501185Y-40826185D01*
X96580537Y-40729494D01*
X96639502Y-40619180D01*
X96675812Y-40499482D01*
X96688072Y-40375000D01*
X96688072Y-38625000D01*
X96675812Y-38500518D01*
X96639502Y-38380820D01*
X96580537Y-38270506D01*
X96501185Y-38173815D01*
X96404494Y-38094463D01*
X96294180Y-38035498D01*
X96174482Y-37999188D01*
X96050000Y-37986928D01*
X95636178Y-37986928D01*
X95526250Y-37877000D01*
X94877000Y-37877000D01*
X94877000Y-38349947D01*
X94860498Y-38380820D01*
X94824188Y-38500518D01*
X94811928Y-38625000D01*
X94811928Y-39940001D01*
X94688072Y-39940001D01*
X94688072Y-38625000D01*
X94675812Y-38500518D01*
X94639502Y-38380820D01*
X94623000Y-38349947D01*
X94623000Y-37877000D01*
X94603000Y-37877000D01*
X94603000Y-37623000D01*
X94623000Y-37623000D01*
X94623000Y-37603000D01*
X94877000Y-37603000D01*
X94877000Y-37623000D01*
X95526250Y-37623000D01*
X95685000Y-37464250D01*
X95688072Y-36875000D01*
X95675812Y-36750518D01*
X95670466Y-36732896D01*
X95700923Y-36687314D01*
X95778944Y-36498956D01*
X95818718Y-36298997D01*
X95818718Y-36095119D01*
X95778944Y-35895160D01*
X95700923Y-35706802D01*
X95587655Y-35537284D01*
X95508458Y-35458087D01*
X95531738Y-35341048D01*
X95531738Y-35137170D01*
X95491964Y-34937211D01*
X95413943Y-34748853D01*
X95300675Y-34579335D01*
X95179710Y-34458370D01*
X96275309Y-34458370D01*
X96275309Y-34662248D01*
X96315083Y-34862207D01*
X96393104Y-35050565D01*
X96506372Y-35220083D01*
X96550309Y-35264020D01*
X96550309Y-35522987D01*
X96546633Y-35560309D01*
X96550309Y-35597631D01*
X96550309Y-35597641D01*
X96561306Y-35709294D01*
X96604377Y-35851282D01*
X96604763Y-35852555D01*
X96675335Y-35984585D01*
X96690272Y-36002785D01*
X96770308Y-36100310D01*
X96799311Y-36124112D01*
X97240001Y-36564803D01*
X97240000Y-38538574D01*
X97206707Y-38571867D01*
X97095730Y-38707094D01*
X96985693Y-38912956D01*
X96917934Y-39136329D01*
X96895055Y-39368629D01*
X96917934Y-39600929D01*
X96985693Y-39824302D01*
X97095730Y-40030164D01*
X97243812Y-40210604D01*
X97424252Y-40358686D01*
X97630114Y-40468723D01*
X97853487Y-40536482D01*
X97952069Y-40546191D01*
X97942689Y-40641421D01*
X97954950Y-40765903D01*
X97991259Y-40885601D01*
X98050223Y-40995915D01*
X98129576Y-41092606D01*
X98318601Y-41277287D01*
X98543108Y-41277287D01*
X99320395Y-40500000D01*
X99679605Y-40500000D01*
X100315471Y-41135866D01*
X100539977Y-41135866D01*
X100870424Y-40809764D01*
X100949777Y-40713072D01*
X101008741Y-40602758D01*
X101045050Y-40483060D01*
X101057311Y-40358579D01*
X101045050Y-40234097D01*
X101008741Y-40114399D01*
X100949777Y-40004085D01*
X100870424Y-39907394D01*
X100681399Y-39722713D01*
X100456892Y-39722713D01*
X99679605Y-40500000D01*
X99320395Y-40500000D01*
X99306253Y-40485858D01*
X99485858Y-40306253D01*
X99500000Y-40320395D01*
X100277287Y-39543108D01*
X100277287Y-39318601D01*
X100092606Y-39129576D01*
X99995915Y-39050223D01*
X99885601Y-38991259D01*
X99765903Y-38954950D01*
X99641421Y-38942689D01*
X99546191Y-38952069D01*
X99536482Y-38853487D01*
X99468723Y-38630114D01*
X99358686Y-38424252D01*
X99210604Y-38243812D01*
X99030164Y-38095730D01*
X98824302Y-37985693D01*
X98760000Y-37966187D01*
X98760000Y-37350095D01*
X100283926Y-37350095D01*
X100324445Y-37568015D01*
X100355256Y-37592050D01*
X100571202Y-37680886D01*
X100800329Y-37725887D01*
X101004902Y-37725392D01*
X100996274Y-37812994D01*
X101019153Y-38045294D01*
X101086912Y-38268667D01*
X101196949Y-38474529D01*
X101345031Y-38654969D01*
X101525471Y-38803051D01*
X101731333Y-38913088D01*
X101954706Y-38980847D01*
X102187006Y-39003726D01*
X102419306Y-38980847D01*
X102642679Y-38913088D01*
X102848541Y-38803051D01*
X102983768Y-38692074D01*
X103348928Y-38326914D01*
X103459905Y-38191687D01*
X103569942Y-37985825D01*
X103637701Y-37762453D01*
X103660580Y-37530152D01*
X103637701Y-37297852D01*
X103569942Y-37074479D01*
X103459905Y-36868617D01*
X103311823Y-36688177D01*
X103131383Y-36540095D01*
X102925521Y-36430058D01*
X102702148Y-36362299D01*
X102469848Y-36339420D01*
X102382246Y-36348048D01*
X102382741Y-36143475D01*
X102337740Y-35914348D01*
X102248904Y-35698402D01*
X102224869Y-35667591D01*
X102006949Y-35627072D01*
X101235240Y-36398781D01*
X101249383Y-36412924D01*
X101069778Y-36592529D01*
X101055635Y-36578386D01*
X100283926Y-37350095D01*
X98760000Y-37350095D01*
X98760000Y-36654087D01*
X99728529Y-36654087D01*
X99773530Y-36883214D01*
X99862366Y-37099160D01*
X99886401Y-37129971D01*
X100104321Y-37170490D01*
X100876030Y-36398781D01*
X100237405Y-35760156D01*
X99995280Y-35782325D01*
X99865083Y-35976162D01*
X99775203Y-36191676D01*
X99729094Y-36420583D01*
X99728529Y-36654087D01*
X98760000Y-36654087D01*
X98760000Y-36287322D01*
X98763676Y-36249999D01*
X98760000Y-36212676D01*
X98760000Y-36212667D01*
X98749003Y-36101014D01*
X98705546Y-35957753D01*
X98634974Y-35825724D01*
X98540001Y-35709999D01*
X98511002Y-35686201D01*
X98405352Y-35580551D01*
X100417010Y-35580551D01*
X101055635Y-36219176D01*
X101827344Y-35447467D01*
X101786825Y-35229547D01*
X101756014Y-35205512D01*
X101540068Y-35116676D01*
X101310941Y-35071675D01*
X101077437Y-35072240D01*
X100848530Y-35118349D01*
X100633016Y-35208229D01*
X100439179Y-35338426D01*
X100417010Y-35580551D01*
X98405352Y-35580551D01*
X98079565Y-35254764D01*
X98114246Y-35220083D01*
X98227514Y-35050565D01*
X98305535Y-34862207D01*
X98345309Y-34662248D01*
X98345309Y-34458370D01*
X98305535Y-34258411D01*
X98227514Y-34070053D01*
X98114246Y-33900535D01*
X97970083Y-33756372D01*
X97800565Y-33643104D01*
X97612207Y-33565083D01*
X97412248Y-33525309D01*
X97208370Y-33525309D01*
X97008411Y-33565083D01*
X96820053Y-33643104D01*
X96650535Y-33756372D01*
X96506372Y-33900535D01*
X96393104Y-34070053D01*
X96315083Y-34258411D01*
X96275309Y-34458370D01*
X95179710Y-34458370D01*
X95156512Y-34435172D01*
X94986994Y-34321904D01*
X94798636Y-34243883D01*
X94598677Y-34204109D01*
X94520964Y-34204109D01*
X94388986Y-34133564D01*
X94245725Y-34090107D01*
X94134072Y-34079110D01*
X94134061Y-34079110D01*
X94096739Y-34075434D01*
X94059417Y-34079110D01*
X91719597Y-34079110D01*
X89629489Y-31989003D01*
X89605686Y-31959999D01*
X89489961Y-31865026D01*
X89357932Y-31794454D01*
X89214671Y-31750997D01*
X89103018Y-31740000D01*
X89103007Y-31740000D01*
X89065685Y-31736324D01*
X89028363Y-31740000D01*
X87953711Y-31740000D01*
X87909774Y-31696063D01*
X87740256Y-31582795D01*
X87551898Y-31504774D01*
X87351939Y-31465000D01*
X87148061Y-31465000D01*
X86948102Y-31504774D01*
X86759744Y-31582795D01*
X86590226Y-31696063D01*
X86446063Y-31840226D01*
X86332795Y-32009744D01*
X86254774Y-32198102D01*
X86215000Y-32398061D01*
X86215000Y-32601939D01*
X86254774Y-32801898D01*
X86332795Y-32990256D01*
X86446063Y-33159774D01*
X86590226Y-33303937D01*
X86716888Y-33388570D01*
X86715000Y-33398061D01*
X86715000Y-33460198D01*
X85924996Y-34250203D01*
X85749744Y-34322795D01*
X85580226Y-34436063D01*
X85436063Y-34580226D01*
X85322795Y-34749744D01*
X85244774Y-34938102D01*
X85205000Y-35138061D01*
X82484181Y-35138061D01*
X82489957Y-35134974D01*
X82605682Y-35040001D01*
X82629485Y-35010997D01*
X84761004Y-32879479D01*
X84790001Y-32855682D01*
X84884974Y-32739957D01*
X84955546Y-32607928D01*
X84998987Y-32464720D01*
X85053937Y-32409770D01*
X85167205Y-32240252D01*
X85245226Y-32051894D01*
X85285000Y-31851935D01*
X85285000Y-31648057D01*
X85245226Y-31448098D01*
X85167205Y-31259740D01*
X85053937Y-31090222D01*
X84909774Y-30946059D01*
X84740256Y-30832791D01*
X84551898Y-30754770D01*
X84351939Y-30714996D01*
X84148061Y-30714996D01*
X83948102Y-30754770D01*
X83759744Y-30832791D01*
X83590226Y-30946059D01*
X83446063Y-31090222D01*
X83361428Y-31216887D01*
X83351939Y-31215000D01*
X83148061Y-31215000D01*
X82948102Y-31254774D01*
X82759744Y-31332795D01*
X82635627Y-31415727D01*
X82602564Y-31377000D01*
X81777000Y-31377000D01*
X81777000Y-31582535D01*
X81749482Y-31574188D01*
X81625000Y-31561928D01*
X81523000Y-31562460D01*
X81523000Y-31377000D01*
X80697436Y-31377000D01*
X80548770Y-31551131D01*
X80579663Y-31680413D01*
X80464250Y-31565000D01*
X79875000Y-31561928D01*
X79750518Y-31574188D01*
X79630820Y-31610498D01*
X79520506Y-31669463D01*
X79423815Y-31748815D01*
X79344463Y-31845506D01*
X79285498Y-31955820D01*
X79249188Y-32075518D01*
X79236928Y-32200000D01*
X79240000Y-32214250D01*
X79398750Y-32373000D01*
X80623000Y-32373000D01*
X80623000Y-32353000D01*
X80877000Y-32353000D01*
X80877000Y-32373000D01*
X80897000Y-32373000D01*
X80897000Y-32627000D01*
X80877000Y-32627000D01*
X80877000Y-32647000D01*
X80623000Y-32647000D01*
X80623000Y-32627000D01*
X80150053Y-32627000D01*
X80119180Y-32610498D01*
X79999482Y-32574188D01*
X79875000Y-32561928D01*
X78160000Y-32561928D01*
X78160000Y-31230021D01*
X78284743Y-31284472D01*
X78493000Y-31330000D01*
X78823000Y-31330000D01*
X78823000Y-30377000D01*
X79077000Y-30377000D01*
X79077000Y-31330000D01*
X79407000Y-31330000D01*
X79615257Y-31284472D01*
X79810631Y-31199190D01*
X79985613Y-31077431D01*
X80109410Y-30948869D01*
X80548770Y-30948869D01*
X80697436Y-31123000D01*
X81523000Y-31123000D01*
X81523000Y-30157266D01*
X81777000Y-30157266D01*
X81777000Y-31123000D01*
X82602564Y-31123000D01*
X82751230Y-30948869D01*
X82700586Y-30736934D01*
X82609569Y-30538951D01*
X82481676Y-30362529D01*
X82321822Y-30214447D01*
X82136150Y-30100397D01*
X81947938Y-30030732D01*
X81777000Y-30157266D01*
X81523000Y-30157266D01*
X81352062Y-30030732D01*
X81163850Y-30100397D01*
X80978178Y-30214447D01*
X80818324Y-30362529D01*
X80690431Y-30538951D01*
X80599414Y-30736934D01*
X80548770Y-30948869D01*
X80109410Y-30948869D01*
X80133479Y-30923874D01*
X80248546Y-30744420D01*
X80319435Y-30543213D01*
X80192454Y-30377000D01*
X79077000Y-30377000D01*
X78823000Y-30377000D01*
X78803000Y-30377000D01*
X78803000Y-30123000D01*
X78823000Y-30123000D01*
X78823000Y-29170000D01*
X79077000Y-29170000D01*
X79077000Y-30123000D01*
X80192454Y-30123000D01*
X80319435Y-29956787D01*
X80248546Y-29755580D01*
X80133479Y-29576126D01*
X79985613Y-29422569D01*
X79810631Y-29300810D01*
X79615257Y-29215528D01*
X79407000Y-29170000D01*
X79077000Y-29170000D01*
X78823000Y-29170000D01*
X78493000Y-29170000D01*
X78284743Y-29215528D01*
X78160000Y-29269979D01*
X78160000Y-29093893D01*
X78331033Y-29073443D01*
X78389436Y-29060582D01*
X78448046Y-29048532D01*
X78456829Y-29045742D01*
X79106408Y-28834450D01*
X79161199Y-28810491D01*
X79216354Y-28787285D01*
X79224428Y-28782843D01*
X79465409Y-28648061D01*
X86965000Y-28648061D01*
X86965000Y-28851939D01*
X87004774Y-29051898D01*
X87082795Y-29240256D01*
X87196063Y-29409774D01*
X87340226Y-29553937D01*
X87509744Y-29667205D01*
X87698102Y-29745226D01*
X87898061Y-29785000D01*
X87960199Y-29785000D01*
X88186200Y-30011002D01*
X88209999Y-30040001D01*
X88325724Y-30134974D01*
X88457753Y-30205546D01*
X88601014Y-30249003D01*
X88712667Y-30260000D01*
X88712676Y-30260000D01*
X88749999Y-30263676D01*
X88787322Y-30260000D01*
X90444499Y-30260000D01*
X90498815Y-30326185D01*
X90595506Y-30405537D01*
X90705820Y-30464502D01*
X90825518Y-30500812D01*
X90950000Y-30513072D01*
X91550000Y-30513072D01*
X91674482Y-30500812D01*
X91794180Y-30464502D01*
X91904494Y-30405537D01*
X91996674Y-30329887D01*
X92148061Y-30360000D01*
X92351939Y-30360000D01*
X92503326Y-30329887D01*
X92595506Y-30405537D01*
X92705820Y-30464502D01*
X92825518Y-30500812D01*
X92950000Y-30513072D01*
X93550000Y-30513072D01*
X93674482Y-30500812D01*
X93794180Y-30464502D01*
X93904494Y-30405537D01*
X94001185Y-30326185D01*
X94080537Y-30229494D01*
X94139502Y-30119180D01*
X94175812Y-29999482D01*
X94188072Y-29875000D01*
X94188072Y-28125000D01*
X94311928Y-28125000D01*
X94311928Y-29875000D01*
X94324188Y-29999482D01*
X94360498Y-30119180D01*
X94419463Y-30229494D01*
X94498815Y-30326185D01*
X94595506Y-30405537D01*
X94705820Y-30464502D01*
X94825518Y-30500812D01*
X94950000Y-30513072D01*
X95550000Y-30513072D01*
X95674482Y-30500812D01*
X95794180Y-30464502D01*
X95904494Y-30405537D01*
X96001185Y-30326185D01*
X96080537Y-30229494D01*
X96139502Y-30119180D01*
X96175812Y-29999482D01*
X96188072Y-29875000D01*
X96188072Y-29635000D01*
X97310199Y-29635000D01*
X97965000Y-30289802D01*
X97965000Y-30351939D01*
X98004774Y-30551898D01*
X98082795Y-30740256D01*
X98196063Y-30909774D01*
X98340226Y-31053937D01*
X98509744Y-31167205D01*
X98698102Y-31245226D01*
X98898061Y-31285000D01*
X99101939Y-31285000D01*
X99301898Y-31245226D01*
X99490256Y-31167205D01*
X99659774Y-31053937D01*
X99749002Y-30964709D01*
X99769153Y-31169306D01*
X99836912Y-31392679D01*
X99946949Y-31598541D01*
X100057926Y-31733768D01*
X100423086Y-32098928D01*
X100558313Y-32209905D01*
X100764175Y-32319942D01*
X100987547Y-32387701D01*
X101219848Y-32410580D01*
X101452148Y-32387701D01*
X101675521Y-32319942D01*
X101881383Y-32209905D01*
X102061823Y-32061823D01*
X102209905Y-31881383D01*
X102319942Y-31675521D01*
X102387701Y-31452148D01*
X102410580Y-31219848D01*
X102401952Y-31132246D01*
X102606525Y-31132741D01*
X102835652Y-31087740D01*
X103051598Y-30998904D01*
X103082409Y-30974869D01*
X103122928Y-30756949D01*
X102351219Y-29985240D01*
X102337077Y-29999383D01*
X102157472Y-29819778D01*
X102171614Y-29805635D01*
X102530824Y-29805635D01*
X103302533Y-30577344D01*
X103520453Y-30536825D01*
X103544488Y-30506014D01*
X103633324Y-30290068D01*
X103678325Y-30060941D01*
X103677760Y-29827437D01*
X103631651Y-29598530D01*
X103541771Y-29383016D01*
X103411574Y-29189179D01*
X103169449Y-29167010D01*
X102530824Y-29805635D01*
X102171614Y-29805635D01*
X101399905Y-29033926D01*
X101181985Y-29074445D01*
X101157950Y-29105256D01*
X101069114Y-29321202D01*
X101024113Y-29550329D01*
X101024608Y-29754902D01*
X100937006Y-29746274D01*
X100704706Y-29769153D01*
X100481333Y-29836912D01*
X100275471Y-29946949D01*
X100095031Y-30095031D01*
X100035000Y-30168180D01*
X100035000Y-30148061D01*
X99995226Y-29948102D01*
X99917205Y-29759744D01*
X99803937Y-29590226D01*
X99659774Y-29446063D01*
X99490256Y-29332795D01*
X99301898Y-29254774D01*
X99101939Y-29215000D01*
X99039802Y-29215000D01*
X98188804Y-28364003D01*
X98165001Y-28334999D01*
X98066354Y-28254041D01*
X98070395Y-28250000D01*
X97293108Y-27472713D01*
X97068601Y-27472713D01*
X96879576Y-27657394D01*
X96800223Y-27754085D01*
X96741259Y-27864399D01*
X96704950Y-27984097D01*
X96692689Y-28108579D01*
X96693321Y-28115000D01*
X96187087Y-28115000D01*
X96175812Y-28000518D01*
X96139502Y-27880820D01*
X96080537Y-27770506D01*
X96001185Y-27673815D01*
X95904494Y-27594463D01*
X95794180Y-27535498D01*
X95674482Y-27499188D01*
X95550000Y-27486928D01*
X95136178Y-27486928D01*
X95026250Y-27377000D01*
X94377000Y-27377000D01*
X94377000Y-27849947D01*
X94360498Y-27880820D01*
X94324188Y-28000518D01*
X94311928Y-28125000D01*
X94188072Y-28125000D01*
X94175812Y-28000518D01*
X94139502Y-27880820D01*
X94123000Y-27849947D01*
X94123000Y-27377000D01*
X93473750Y-27377000D01*
X93363822Y-27486928D01*
X93188072Y-27486928D01*
X93188072Y-26375000D01*
X93311928Y-26375000D01*
X93315000Y-26964250D01*
X93473750Y-27123000D01*
X94123000Y-27123000D01*
X94123000Y-25898750D01*
X94377000Y-25898750D01*
X94377000Y-27123000D01*
X95026250Y-27123000D01*
X95080649Y-27068601D01*
X97472713Y-27068601D01*
X97472713Y-27293108D01*
X98250000Y-28070395D01*
X98264143Y-28056253D01*
X98443748Y-28235858D01*
X98429605Y-28250000D01*
X99206892Y-29027287D01*
X99431399Y-29027287D01*
X99608433Y-28854321D01*
X101579510Y-28854321D01*
X102351219Y-29626030D01*
X102989844Y-28987405D01*
X102967675Y-28745280D01*
X102773838Y-28615083D01*
X102558324Y-28525203D01*
X102329417Y-28479094D01*
X102095913Y-28478529D01*
X101866786Y-28523530D01*
X101650840Y-28612366D01*
X101620029Y-28636401D01*
X101579510Y-28854321D01*
X99608433Y-28854321D01*
X99620424Y-28842606D01*
X99699777Y-28745915D01*
X99758741Y-28635601D01*
X99795050Y-28515903D01*
X99807311Y-28391421D01*
X99797931Y-28296191D01*
X99896513Y-28286482D01*
X100119886Y-28218723D01*
X100325748Y-28108686D01*
X100506188Y-27960604D01*
X100654270Y-27780164D01*
X100764307Y-27574302D01*
X100832066Y-27350929D01*
X100854945Y-27118629D01*
X100832066Y-26886328D01*
X100764307Y-26662956D01*
X100654270Y-26457094D01*
X100543293Y-26321867D01*
X100178133Y-25956707D01*
X100042906Y-25845730D01*
X99837044Y-25735693D01*
X99613671Y-25667934D01*
X99381371Y-25645055D01*
X99149071Y-25667934D01*
X98925698Y-25735693D01*
X98719836Y-25845730D01*
X98539396Y-25993812D01*
X98391314Y-26174252D01*
X98281277Y-26380114D01*
X98213518Y-26603487D01*
X98203809Y-26702069D01*
X98108579Y-26692689D01*
X97984097Y-26704950D01*
X97864399Y-26741259D01*
X97754085Y-26800223D01*
X97657394Y-26879576D01*
X97472713Y-27068601D01*
X95080649Y-27068601D01*
X95185000Y-26964250D01*
X95188072Y-26375000D01*
X95175812Y-26250518D01*
X95139502Y-26130820D01*
X95080537Y-26020506D01*
X95001185Y-25923815D01*
X94904494Y-25844463D01*
X94794180Y-25785498D01*
X94674482Y-25749188D01*
X94550000Y-25736928D01*
X94535750Y-25740000D01*
X94377000Y-25898750D01*
X94123000Y-25898750D01*
X93964250Y-25740000D01*
X93950000Y-25736928D01*
X93825518Y-25749188D01*
X93705820Y-25785498D01*
X93595506Y-25844463D01*
X93498815Y-25923815D01*
X93419463Y-26020506D01*
X93360498Y-26130820D01*
X93324188Y-26250518D01*
X93311928Y-26375000D01*
X93188072Y-26375000D01*
X93175812Y-26250518D01*
X93139502Y-26130820D01*
X93080537Y-26020506D01*
X93001185Y-25923815D01*
X92904494Y-25844463D01*
X92794180Y-25785498D01*
X92674482Y-25749188D01*
X92550000Y-25736928D01*
X91950000Y-25736928D01*
X91825518Y-25749188D01*
X91705820Y-25785498D01*
X91595506Y-25844463D01*
X91498815Y-25923815D01*
X91419463Y-26020506D01*
X91360498Y-26130820D01*
X91324188Y-26250518D01*
X91312913Y-26365000D01*
X90912322Y-26365000D01*
X90874999Y-26361324D01*
X90837676Y-26365000D01*
X90837667Y-26365000D01*
X90726014Y-26375997D01*
X90582753Y-26419454D01*
X90450723Y-26490026D01*
X90393882Y-26536675D01*
X90334999Y-26584999D01*
X90311201Y-26613997D01*
X89210199Y-27715000D01*
X89148061Y-27715000D01*
X88948102Y-27754774D01*
X88759744Y-27832795D01*
X88625000Y-27922828D01*
X88490256Y-27832795D01*
X88301898Y-27754774D01*
X88101939Y-27715000D01*
X87898061Y-27715000D01*
X87698102Y-27754774D01*
X87509744Y-27832795D01*
X87340226Y-27946063D01*
X87196063Y-28090226D01*
X87082795Y-28259744D01*
X87004774Y-28448102D01*
X86965000Y-28648061D01*
X79465409Y-28648061D01*
X79820596Y-28449404D01*
X79869696Y-28415255D01*
X79919287Y-28381782D01*
X79926344Y-28375856D01*
X80446394Y-27932970D01*
X80487917Y-27889943D01*
X80530070Y-27847468D01*
X80535841Y-27840284D01*
X80959964Y-27304822D01*
X80992357Y-27254521D01*
X81025439Y-27204695D01*
X81029706Y-27196527D01*
X81336267Y-26599552D01*
X81355670Y-26570447D01*
X81367383Y-26548478D01*
X81373208Y-26530802D01*
X81386262Y-26478586D01*
X81386526Y-26477945D01*
X81389124Y-26469104D01*
X81577195Y-25812424D01*
X81587972Y-25753596D01*
X81599575Y-25694901D01*
X81600407Y-25685723D01*
X81605319Y-25627000D01*
X103250101Y-25627000D01*
X103147450Y-25729651D01*
M02*
