G04 #@! TF.GenerationSoftware,KiCad,Pcbnew,5.1.5+dfsg1-2build2*
G04 #@! TF.CreationDate,2021-07-03T20:40:33+02:00*
G04 #@! TF.ProjectId,combined,636f6d62-696e-4656-942e-6b696361645f,rev?*
G04 #@! TF.SameCoordinates,Original*
G04 #@! TF.FileFunction,Legend,Top*
G04 #@! TF.FilePolarity,Positive*
%FSLAX46Y46*%
G04 Gerber Fmt 4.6, Leading zero omitted, Abs format (unit mm)*
G04 Created by KiCad (PCBNEW 5.1.5+dfsg1-2build2) date 2021-07-03 20:40:33*
%MOMM*%
%LPD*%
G04 APERTURE LIST*
%ADD10C,0.120000*%
%ADD11C,0.100000*%
%ADD12C,0.150000*%
%ADD13C,1.202000*%
%ADD14R,1.852000X0.552000*%
%ADD15C,3.602000*%
%ADD16O,1.652000X0.992000*%
%ADD17R,1.652000X1.302000*%
%ADD18R,1.652000X1.602000*%
%ADD19O,1.052000X1.352000*%
%ADD20R,1.452000X0.502000*%
%ADD21R,1.202000X1.202000*%
G04 APERTURE END LIST*
D10*
X84870000Y-35596359D02*
X84870000Y-35903641D01*
X85630000Y-35596359D02*
X85630000Y-35903641D01*
D11*
X84300000Y-34665000D02*
G75*
G03X84300000Y-34665000I-50000J0D01*
G01*
D10*
X92890000Y-39112500D02*
X92890000Y-40912500D01*
X92890000Y-39112500D02*
X92890000Y-38312500D01*
X96010000Y-39112500D02*
X96010000Y-39912500D01*
X96010000Y-39112500D02*
X96010000Y-38312500D01*
D12*
X110875000Y-37850000D02*
X112475000Y-37850000D01*
X110875000Y-29425000D02*
X105125000Y-29425000D01*
X110875000Y-38075000D02*
X105125000Y-38075000D01*
X110875000Y-29425000D02*
X110875000Y-29725000D01*
X105125000Y-29425000D02*
X105125000Y-29725000D01*
X105125000Y-38075000D02*
X105125000Y-37775000D01*
X110875000Y-38075000D02*
X110875000Y-37850000D01*
D10*
X93610000Y-34660000D02*
X94900000Y-34660000D01*
X93610000Y-35110000D02*
X93610000Y-34660000D01*
X93160000Y-35110000D02*
X93610000Y-35110000D01*
X86390000Y-35110000D02*
X86390000Y-34660000D01*
X86840000Y-35110000D02*
X86390000Y-35110000D01*
X93610000Y-27890000D02*
X93610000Y-28340000D01*
X93160000Y-27890000D02*
X93610000Y-27890000D01*
X86390000Y-27890000D02*
X86390000Y-28340000D01*
X86840000Y-27890000D02*
X86390000Y-27890000D01*
X101346359Y-27880000D02*
X101653641Y-27880000D01*
X101346359Y-27120000D02*
X101653641Y-27120000D01*
X97130000Y-41403641D02*
X97130000Y-41096359D01*
X96370000Y-41403641D02*
X96370000Y-41096359D01*
X99130000Y-37403641D02*
X99130000Y-37096359D01*
X98370000Y-37403641D02*
X98370000Y-37096359D01*
X101130000Y-29403641D02*
X101130000Y-29096359D01*
X100370000Y-29403641D02*
X100370000Y-29096359D01*
X100153641Y-38620000D02*
X99846359Y-38620000D01*
X100153641Y-39380000D02*
X99846359Y-39380000D01*
X79930000Y-37510000D02*
X81910000Y-37510000D01*
X81910000Y-37510000D02*
X81910000Y-37090000D01*
X77960000Y-37510000D02*
X77560000Y-37510000D01*
X77560000Y-29990000D02*
X77960000Y-29990000D01*
X79930000Y-29990000D02*
X81910000Y-29990000D01*
X81910000Y-29990000D02*
X81910000Y-30410000D01*
X82590000Y-32440000D02*
X82590000Y-31990000D01*
X82140000Y-31990000D02*
X82590000Y-31990000D01*
X85700000Y-41000000D02*
X81850000Y-41000000D01*
X85700000Y-39000000D02*
X81850000Y-39000000D01*
X85700000Y-41000000D02*
X85700000Y-39000000D01*
X85950000Y-28000000D02*
X82100000Y-28000000D01*
X85950000Y-26000000D02*
X82100000Y-26000000D01*
X85950000Y-28000000D02*
X85950000Y-26000000D01*
X99122164Y-36110000D02*
X99337836Y-36110000D01*
X99122164Y-35390000D02*
X99337836Y-35390000D01*
X89837836Y-36890000D02*
X89622164Y-36890000D01*
X89837836Y-37610000D02*
X89622164Y-37610000D01*
X97140000Y-37142164D02*
X97140000Y-37357836D01*
X97860000Y-37142164D02*
X97860000Y-37357836D01*
X96360000Y-32607836D02*
X96360000Y-32392164D01*
X95640000Y-32607836D02*
X95640000Y-32392164D01*
X98360000Y-41377836D02*
X98360000Y-41162164D01*
X97640000Y-41377836D02*
X97640000Y-41162164D01*
D12*
X85952380Y-37916666D02*
X85476190Y-38250000D01*
X85952380Y-38488095D02*
X84952380Y-38488095D01*
X84952380Y-38107142D01*
X85000000Y-38011904D01*
X85047619Y-37964285D01*
X85142857Y-37916666D01*
X85285714Y-37916666D01*
X85380952Y-37964285D01*
X85428571Y-38011904D01*
X85476190Y-38107142D01*
X85476190Y-38488095D01*
X84952380Y-37059523D02*
X84952380Y-37250000D01*
X85000000Y-37345238D01*
X85047619Y-37392857D01*
X85190476Y-37488095D01*
X85380952Y-37535714D01*
X85761904Y-37535714D01*
X85857142Y-37488095D01*
X85904761Y-37440476D01*
X85952380Y-37345238D01*
X85952380Y-37154761D01*
X85904761Y-37059523D01*
X85857142Y-37011904D01*
X85761904Y-36964285D01*
X85523809Y-36964285D01*
X85428571Y-37011904D01*
X85380952Y-37059523D01*
X85333333Y-37154761D01*
X85333333Y-37345238D01*
X85380952Y-37440476D01*
X85428571Y-37488095D01*
X85523809Y-37535714D01*
X84452380Y-38488095D02*
X83452380Y-38488095D01*
X83452380Y-38250000D01*
X83500000Y-38107142D01*
X83595238Y-38011904D01*
X83690476Y-37964285D01*
X83880952Y-37916666D01*
X84023809Y-37916666D01*
X84214285Y-37964285D01*
X84309523Y-38011904D01*
X84404761Y-38107142D01*
X84452380Y-38250000D01*
X84452380Y-38488095D01*
X84452380Y-36964285D02*
X84452380Y-37535714D01*
X84452380Y-37250000D02*
X83452380Y-37250000D01*
X83595238Y-37345238D01*
X83690476Y-37440476D01*
X83738095Y-37535714D01*
X91502380Y-40261904D02*
X92311904Y-40261904D01*
X92407142Y-40214285D01*
X92454761Y-40166666D01*
X92502380Y-40071428D01*
X92502380Y-39880952D01*
X92454761Y-39785714D01*
X92407142Y-39738095D01*
X92311904Y-39690476D01*
X91502380Y-39690476D01*
X91502380Y-39309523D02*
X91502380Y-38690476D01*
X91883333Y-39023809D01*
X91883333Y-38880952D01*
X91930952Y-38785714D01*
X91978571Y-38738095D01*
X92073809Y-38690476D01*
X92311904Y-38690476D01*
X92407142Y-38738095D01*
X92454761Y-38785714D01*
X92502380Y-38880952D01*
X92502380Y-39166666D01*
X92454761Y-39261904D01*
X92407142Y-39309523D01*
X108988095Y-27952380D02*
X108988095Y-28761904D01*
X109035714Y-28857142D01*
X109083333Y-28904761D01*
X109178571Y-28952380D01*
X109369047Y-28952380D01*
X109464285Y-28904761D01*
X109511904Y-28857142D01*
X109559523Y-28761904D01*
X109559523Y-27952380D01*
X110511904Y-27952380D02*
X110035714Y-27952380D01*
X109988095Y-28428571D01*
X110035714Y-28380952D01*
X110130952Y-28333333D01*
X110369047Y-28333333D01*
X110464285Y-28380952D01*
X110511904Y-28428571D01*
X110559523Y-28523809D01*
X110559523Y-28761904D01*
X110511904Y-28857142D01*
X110464285Y-28904761D01*
X110369047Y-28952380D01*
X110130952Y-28952380D01*
X110035714Y-28904761D01*
X109988095Y-28857142D01*
X93488095Y-26452380D02*
X93488095Y-27261904D01*
X93535714Y-27357142D01*
X93583333Y-27404761D01*
X93678571Y-27452380D01*
X93869047Y-27452380D01*
X93964285Y-27404761D01*
X94011904Y-27357142D01*
X94059523Y-27261904D01*
X94059523Y-26452380D01*
X94964285Y-26785714D02*
X94964285Y-27452380D01*
X94726190Y-26404761D02*
X94488095Y-27119047D01*
X95107142Y-27119047D01*
X101333333Y-26782380D02*
X101000000Y-26306190D01*
X100761904Y-26782380D02*
X100761904Y-25782380D01*
X101142857Y-25782380D01*
X101238095Y-25830000D01*
X101285714Y-25877619D01*
X101333333Y-25972857D01*
X101333333Y-26115714D01*
X101285714Y-26210952D01*
X101238095Y-26258571D01*
X101142857Y-26306190D01*
X100761904Y-26306190D01*
X102238095Y-25782380D02*
X101761904Y-25782380D01*
X101714285Y-26258571D01*
X101761904Y-26210952D01*
X101857142Y-26163333D01*
X102095238Y-26163333D01*
X102190476Y-26210952D01*
X102238095Y-26258571D01*
X102285714Y-26353809D01*
X102285714Y-26591904D01*
X102238095Y-26687142D01*
X102190476Y-26734761D01*
X102095238Y-26782380D01*
X101857142Y-26782380D01*
X101761904Y-26734761D01*
X101714285Y-26687142D01*
X95083333Y-42202380D02*
X94750000Y-41726190D01*
X94511904Y-42202380D02*
X94511904Y-41202380D01*
X94892857Y-41202380D01*
X94988095Y-41250000D01*
X95035714Y-41297619D01*
X95083333Y-41392857D01*
X95083333Y-41535714D01*
X95035714Y-41630952D01*
X94988095Y-41678571D01*
X94892857Y-41726190D01*
X94511904Y-41726190D01*
X95940476Y-41535714D02*
X95940476Y-42202380D01*
X95702380Y-41154761D02*
X95464285Y-41869047D01*
X96083333Y-41869047D01*
X100202380Y-37416666D02*
X99726190Y-37750000D01*
X100202380Y-37988095D02*
X99202380Y-37988095D01*
X99202380Y-37607142D01*
X99250000Y-37511904D01*
X99297619Y-37464285D01*
X99392857Y-37416666D01*
X99535714Y-37416666D01*
X99630952Y-37464285D01*
X99678571Y-37511904D01*
X99726190Y-37607142D01*
X99726190Y-37988095D01*
X99202380Y-37083333D02*
X99202380Y-36464285D01*
X99583333Y-36797619D01*
X99583333Y-36654761D01*
X99630952Y-36559523D01*
X99678571Y-36511904D01*
X99773809Y-36464285D01*
X100011904Y-36464285D01*
X100107142Y-36511904D01*
X100154761Y-36559523D01*
X100202380Y-36654761D01*
X100202380Y-36940476D01*
X100154761Y-37035714D01*
X100107142Y-37083333D01*
X99952380Y-30166666D02*
X99476190Y-30500000D01*
X99952380Y-30738095D02*
X98952380Y-30738095D01*
X98952380Y-30357142D01*
X99000000Y-30261904D01*
X99047619Y-30214285D01*
X99142857Y-30166666D01*
X99285714Y-30166666D01*
X99380952Y-30214285D01*
X99428571Y-30261904D01*
X99476190Y-30357142D01*
X99476190Y-30738095D01*
X99047619Y-29785714D02*
X99000000Y-29738095D01*
X98952380Y-29642857D01*
X98952380Y-29404761D01*
X99000000Y-29309523D01*
X99047619Y-29261904D01*
X99142857Y-29214285D01*
X99238095Y-29214285D01*
X99380952Y-29261904D01*
X99952380Y-29833333D01*
X99952380Y-29214285D01*
X101633333Y-39652380D02*
X101300000Y-39176190D01*
X101061904Y-39652380D02*
X101061904Y-38652380D01*
X101442857Y-38652380D01*
X101538095Y-38700000D01*
X101585714Y-38747619D01*
X101633333Y-38842857D01*
X101633333Y-38985714D01*
X101585714Y-39080952D01*
X101538095Y-39128571D01*
X101442857Y-39176190D01*
X101061904Y-39176190D01*
X102585714Y-39652380D02*
X102014285Y-39652380D01*
X102300000Y-39652380D02*
X102300000Y-38652380D01*
X102204761Y-38795238D01*
X102109523Y-38890476D01*
X102014285Y-38938095D01*
X83202380Y-34238095D02*
X84011904Y-34238095D01*
X84107142Y-34190476D01*
X84154761Y-34142857D01*
X84202380Y-34047619D01*
X84202380Y-33857142D01*
X84154761Y-33761904D01*
X84107142Y-33714285D01*
X84011904Y-33666666D01*
X83202380Y-33666666D01*
X84154761Y-33238095D02*
X84202380Y-33095238D01*
X84202380Y-32857142D01*
X84154761Y-32761904D01*
X84107142Y-32714285D01*
X84011904Y-32666666D01*
X83916666Y-32666666D01*
X83821428Y-32714285D01*
X83773809Y-32761904D01*
X83726190Y-32857142D01*
X83678571Y-33047619D01*
X83630952Y-33142857D01*
X83583333Y-33190476D01*
X83488095Y-33238095D01*
X83392857Y-33238095D01*
X83297619Y-33190476D01*
X83250000Y-33142857D01*
X83202380Y-33047619D01*
X83202380Y-32809523D01*
X83250000Y-32666666D01*
X83678571Y-31904761D02*
X83726190Y-31761904D01*
X83773809Y-31714285D01*
X83869047Y-31666666D01*
X84011904Y-31666666D01*
X84107142Y-31714285D01*
X84154761Y-31761904D01*
X84202380Y-31857142D01*
X84202380Y-32238095D01*
X83202380Y-32238095D01*
X83202380Y-31904761D01*
X83250000Y-31809523D01*
X83297619Y-31761904D01*
X83392857Y-31714285D01*
X83488095Y-31714285D01*
X83583333Y-31761904D01*
X83630952Y-31809523D01*
X83678571Y-31904761D01*
X83678571Y-32238095D01*
X84202380Y-30714285D02*
X84202380Y-31285714D01*
X84202380Y-31000000D02*
X83202380Y-31000000D01*
X83345238Y-31095238D01*
X83440476Y-31190476D01*
X83488095Y-31285714D01*
X82888904Y-42252380D02*
X82888904Y-41252380D01*
X83127000Y-41252380D01*
X83269857Y-41300000D01*
X83365095Y-41395238D01*
X83412714Y-41490476D01*
X83460333Y-41680952D01*
X83460333Y-41823809D01*
X83412714Y-42014285D01*
X83365095Y-42109523D01*
X83269857Y-42204761D01*
X83127000Y-42252380D01*
X82888904Y-42252380D01*
X83793666Y-41252380D02*
X84412714Y-41252380D01*
X84079380Y-41633333D01*
X84222238Y-41633333D01*
X84317476Y-41680952D01*
X84365095Y-41728571D01*
X84412714Y-41823809D01*
X84412714Y-42061904D01*
X84365095Y-42157142D01*
X84317476Y-42204761D01*
X84222238Y-42252380D01*
X83936523Y-42252380D01*
X83841285Y-42204761D01*
X83793666Y-42157142D01*
X83138904Y-29357380D02*
X83138904Y-28357380D01*
X83377000Y-28357380D01*
X83519857Y-28405000D01*
X83615095Y-28500238D01*
X83662714Y-28595476D01*
X83710333Y-28785952D01*
X83710333Y-28928809D01*
X83662714Y-29119285D01*
X83615095Y-29214523D01*
X83519857Y-29309761D01*
X83377000Y-29357380D01*
X83138904Y-29357380D01*
X84091285Y-28452619D02*
X84138904Y-28405000D01*
X84234142Y-28357380D01*
X84472238Y-28357380D01*
X84567476Y-28405000D01*
X84615095Y-28452619D01*
X84662714Y-28547857D01*
X84662714Y-28643095D01*
X84615095Y-28785952D01*
X84043666Y-29357380D01*
X84662714Y-29357380D01*
X99063333Y-34947142D02*
X99015714Y-34994761D01*
X98872857Y-35042380D01*
X98777619Y-35042380D01*
X98634761Y-34994761D01*
X98539523Y-34899523D01*
X98491904Y-34804285D01*
X98444285Y-34613809D01*
X98444285Y-34470952D01*
X98491904Y-34280476D01*
X98539523Y-34185238D01*
X98634761Y-34090000D01*
X98777619Y-34042380D01*
X98872857Y-34042380D01*
X99015714Y-34090000D01*
X99063333Y-34137619D01*
X99968095Y-34042380D02*
X99491904Y-34042380D01*
X99444285Y-34518571D01*
X99491904Y-34470952D01*
X99587142Y-34423333D01*
X99825238Y-34423333D01*
X99920476Y-34470952D01*
X99968095Y-34518571D01*
X100015714Y-34613809D01*
X100015714Y-34851904D01*
X99968095Y-34947142D01*
X99920476Y-34994761D01*
X99825238Y-35042380D01*
X99587142Y-35042380D01*
X99491904Y-34994761D01*
X99444285Y-34947142D01*
X89563333Y-38767142D02*
X89515714Y-38814761D01*
X89372857Y-38862380D01*
X89277619Y-38862380D01*
X89134761Y-38814761D01*
X89039523Y-38719523D01*
X88991904Y-38624285D01*
X88944285Y-38433809D01*
X88944285Y-38290952D01*
X88991904Y-38100476D01*
X89039523Y-38005238D01*
X89134761Y-37910000D01*
X89277619Y-37862380D01*
X89372857Y-37862380D01*
X89515714Y-37910000D01*
X89563333Y-37957619D01*
X90420476Y-38195714D02*
X90420476Y-38862380D01*
X90182380Y-37814761D02*
X89944285Y-38529047D01*
X90563333Y-38529047D01*
X96857142Y-36916666D02*
X96904761Y-36964285D01*
X96952380Y-37107142D01*
X96952380Y-37202380D01*
X96904761Y-37345238D01*
X96809523Y-37440476D01*
X96714285Y-37488095D01*
X96523809Y-37535714D01*
X96380952Y-37535714D01*
X96190476Y-37488095D01*
X96095238Y-37440476D01*
X96000000Y-37345238D01*
X95952380Y-37202380D01*
X95952380Y-37107142D01*
X96000000Y-36964285D01*
X96047619Y-36916666D01*
X95952380Y-36583333D02*
X95952380Y-35964285D01*
X96333333Y-36297619D01*
X96333333Y-36154761D01*
X96380952Y-36059523D01*
X96428571Y-36011904D01*
X96523809Y-35964285D01*
X96761904Y-35964285D01*
X96857142Y-36011904D01*
X96904761Y-36059523D01*
X96952380Y-36154761D01*
X96952380Y-36440476D01*
X96904761Y-36535714D01*
X96857142Y-36583333D01*
X97607142Y-32666666D02*
X97654761Y-32714285D01*
X97702380Y-32857142D01*
X97702380Y-32952380D01*
X97654761Y-33095238D01*
X97559523Y-33190476D01*
X97464285Y-33238095D01*
X97273809Y-33285714D01*
X97130952Y-33285714D01*
X96940476Y-33238095D01*
X96845238Y-33190476D01*
X96750000Y-33095238D01*
X96702380Y-32952380D01*
X96702380Y-32857142D01*
X96750000Y-32714285D01*
X96797619Y-32666666D01*
X96797619Y-32285714D02*
X96750000Y-32238095D01*
X96702380Y-32142857D01*
X96702380Y-31904761D01*
X96750000Y-31809523D01*
X96797619Y-31761904D01*
X96892857Y-31714285D01*
X96988095Y-31714285D01*
X97130952Y-31761904D01*
X97702380Y-32333333D01*
X97702380Y-31714285D01*
X99083333Y-42257142D02*
X99035714Y-42304761D01*
X98892857Y-42352380D01*
X98797619Y-42352380D01*
X98654761Y-42304761D01*
X98559523Y-42209523D01*
X98511904Y-42114285D01*
X98464285Y-41923809D01*
X98464285Y-41780952D01*
X98511904Y-41590476D01*
X98559523Y-41495238D01*
X98654761Y-41400000D01*
X98797619Y-41352380D01*
X98892857Y-41352380D01*
X99035714Y-41400000D01*
X99083333Y-41447619D01*
X100035714Y-42352380D02*
X99464285Y-42352380D01*
X99750000Y-42352380D02*
X99750000Y-41352380D01*
X99654761Y-41495238D01*
X99559523Y-41590476D01*
X99464285Y-41638095D01*
%LPC*%
D11*
G36*
X85476232Y-35939773D02*
G01*
X85491812Y-35942084D01*
X85507091Y-35945911D01*
X85521921Y-35951217D01*
X85536159Y-35957952D01*
X85549669Y-35966049D01*
X85562320Y-35975432D01*
X85573991Y-35986009D01*
X85584568Y-35997680D01*
X85593951Y-36010331D01*
X85602048Y-36023841D01*
X85608783Y-36038079D01*
X85614089Y-36052909D01*
X85617916Y-36068188D01*
X85620227Y-36083768D01*
X85621000Y-36099500D01*
X85621000Y-36420500D01*
X85620227Y-36436232D01*
X85617916Y-36451812D01*
X85614089Y-36467091D01*
X85608783Y-36481921D01*
X85602048Y-36496159D01*
X85593951Y-36509669D01*
X85584568Y-36522320D01*
X85573991Y-36533991D01*
X85562320Y-36544568D01*
X85549669Y-36553951D01*
X85536159Y-36562048D01*
X85521921Y-36568783D01*
X85507091Y-36574089D01*
X85491812Y-36577916D01*
X85476232Y-36580227D01*
X85460500Y-36581000D01*
X85039500Y-36581000D01*
X85023768Y-36580227D01*
X85008188Y-36577916D01*
X84992909Y-36574089D01*
X84978079Y-36568783D01*
X84963841Y-36562048D01*
X84950331Y-36553951D01*
X84937680Y-36544568D01*
X84926009Y-36533991D01*
X84915432Y-36522320D01*
X84906049Y-36509669D01*
X84897952Y-36496159D01*
X84891217Y-36481921D01*
X84885911Y-36467091D01*
X84882084Y-36451812D01*
X84879773Y-36436232D01*
X84879000Y-36420500D01*
X84879000Y-36099500D01*
X84879773Y-36083768D01*
X84882084Y-36068188D01*
X84885911Y-36052909D01*
X84891217Y-36038079D01*
X84897952Y-36023841D01*
X84906049Y-36010331D01*
X84915432Y-35997680D01*
X84926009Y-35986009D01*
X84937680Y-35975432D01*
X84950331Y-35966049D01*
X84963841Y-35957952D01*
X84978079Y-35951217D01*
X84992909Y-35945911D01*
X85008188Y-35942084D01*
X85023768Y-35939773D01*
X85039500Y-35939000D01*
X85460500Y-35939000D01*
X85476232Y-35939773D01*
G37*
G36*
X85476232Y-34919773D02*
G01*
X85491812Y-34922084D01*
X85507091Y-34925911D01*
X85521921Y-34931217D01*
X85536159Y-34937952D01*
X85549669Y-34946049D01*
X85562320Y-34955432D01*
X85573991Y-34966009D01*
X85584568Y-34977680D01*
X85593951Y-34990331D01*
X85602048Y-35003841D01*
X85608783Y-35018079D01*
X85614089Y-35032909D01*
X85617916Y-35048188D01*
X85620227Y-35063768D01*
X85621000Y-35079500D01*
X85621000Y-35400500D01*
X85620227Y-35416232D01*
X85617916Y-35431812D01*
X85614089Y-35447091D01*
X85608783Y-35461921D01*
X85602048Y-35476159D01*
X85593951Y-35489669D01*
X85584568Y-35502320D01*
X85573991Y-35513991D01*
X85562320Y-35524568D01*
X85549669Y-35533951D01*
X85536159Y-35542048D01*
X85521921Y-35548783D01*
X85507091Y-35554089D01*
X85491812Y-35557916D01*
X85476232Y-35560227D01*
X85460500Y-35561000D01*
X85039500Y-35561000D01*
X85023768Y-35560227D01*
X85008188Y-35557916D01*
X84992909Y-35554089D01*
X84978079Y-35548783D01*
X84963841Y-35542048D01*
X84950331Y-35533951D01*
X84937680Y-35524568D01*
X84926009Y-35513991D01*
X84915432Y-35502320D01*
X84906049Y-35489669D01*
X84897952Y-35476159D01*
X84891217Y-35461921D01*
X84885911Y-35447091D01*
X84882084Y-35431812D01*
X84879773Y-35416232D01*
X84879000Y-35400500D01*
X84879000Y-35079500D01*
X84879773Y-35063768D01*
X84882084Y-35048188D01*
X84885911Y-35032909D01*
X84891217Y-35018079D01*
X84897952Y-35003841D01*
X84906049Y-34990331D01*
X84915432Y-34977680D01*
X84926009Y-34966009D01*
X84937680Y-34955432D01*
X84950331Y-34946049D01*
X84963841Y-34937952D01*
X84978079Y-34931217D01*
X84992909Y-34925911D01*
X85008188Y-34922084D01*
X85023768Y-34919773D01*
X85039500Y-34919000D01*
X85460500Y-34919000D01*
X85476232Y-34919773D01*
G37*
G36*
X84464957Y-35894833D02*
G01*
X84481751Y-35897324D01*
X84498219Y-35901449D01*
X84514204Y-35907169D01*
X84529552Y-35914428D01*
X84544114Y-35923156D01*
X84557750Y-35933269D01*
X84570329Y-35944671D01*
X84581731Y-35957250D01*
X84591844Y-35970886D01*
X84600572Y-35985448D01*
X84607831Y-36000796D01*
X84613551Y-36016781D01*
X84617676Y-36033249D01*
X84620167Y-36050043D01*
X84621000Y-36067000D01*
X84621000Y-36413000D01*
X84620167Y-36429957D01*
X84617676Y-36446751D01*
X84613551Y-36463219D01*
X84607831Y-36479204D01*
X84600572Y-36494552D01*
X84591844Y-36509114D01*
X84581731Y-36522750D01*
X84570329Y-36535329D01*
X84557750Y-36546731D01*
X84544114Y-36556844D01*
X84529552Y-36565572D01*
X84514204Y-36572831D01*
X84498219Y-36578551D01*
X84481751Y-36582676D01*
X84464957Y-36585167D01*
X84448000Y-36586000D01*
X84052000Y-36586000D01*
X84035043Y-36585167D01*
X84018249Y-36582676D01*
X84001781Y-36578551D01*
X83985796Y-36572831D01*
X83970448Y-36565572D01*
X83955886Y-36556844D01*
X83942250Y-36546731D01*
X83929671Y-36535329D01*
X83918269Y-36522750D01*
X83908156Y-36509114D01*
X83899428Y-36494552D01*
X83892169Y-36479204D01*
X83886449Y-36463219D01*
X83882324Y-36446751D01*
X83879833Y-36429957D01*
X83879000Y-36413000D01*
X83879000Y-36067000D01*
X83879833Y-36050043D01*
X83882324Y-36033249D01*
X83886449Y-36016781D01*
X83892169Y-36000796D01*
X83899428Y-35985448D01*
X83908156Y-35970886D01*
X83918269Y-35957250D01*
X83929671Y-35944671D01*
X83942250Y-35933269D01*
X83955886Y-35923156D01*
X83970448Y-35914428D01*
X83985796Y-35907169D01*
X84001781Y-35901449D01*
X84018249Y-35897324D01*
X84035043Y-35894833D01*
X84052000Y-35894000D01*
X84448000Y-35894000D01*
X84464957Y-35894833D01*
G37*
G36*
X84464957Y-34924833D02*
G01*
X84481751Y-34927324D01*
X84498219Y-34931449D01*
X84514204Y-34937169D01*
X84529552Y-34944428D01*
X84544114Y-34953156D01*
X84557750Y-34963269D01*
X84570329Y-34974671D01*
X84581731Y-34987250D01*
X84591844Y-35000886D01*
X84600572Y-35015448D01*
X84607831Y-35030796D01*
X84613551Y-35046781D01*
X84617676Y-35063249D01*
X84620167Y-35080043D01*
X84621000Y-35097000D01*
X84621000Y-35443000D01*
X84620167Y-35459957D01*
X84617676Y-35476751D01*
X84613551Y-35493219D01*
X84607831Y-35509204D01*
X84600572Y-35524552D01*
X84591844Y-35539114D01*
X84581731Y-35552750D01*
X84570329Y-35565329D01*
X84557750Y-35576731D01*
X84544114Y-35586844D01*
X84529552Y-35595572D01*
X84514204Y-35602831D01*
X84498219Y-35608551D01*
X84481751Y-35612676D01*
X84464957Y-35615167D01*
X84448000Y-35616000D01*
X84052000Y-35616000D01*
X84035043Y-35615167D01*
X84018249Y-35612676D01*
X84001781Y-35608551D01*
X83985796Y-35602831D01*
X83970448Y-35595572D01*
X83955886Y-35586844D01*
X83942250Y-35576731D01*
X83929671Y-35565329D01*
X83918269Y-35552750D01*
X83908156Y-35539114D01*
X83899428Y-35524552D01*
X83892169Y-35509204D01*
X83886449Y-35493219D01*
X83882324Y-35476751D01*
X83879833Y-35459957D01*
X83879000Y-35443000D01*
X83879000Y-35097000D01*
X83879833Y-35080043D01*
X83882324Y-35063249D01*
X83886449Y-35046781D01*
X83892169Y-35030796D01*
X83899428Y-35015448D01*
X83908156Y-35000886D01*
X83918269Y-34987250D01*
X83929671Y-34974671D01*
X83942250Y-34963269D01*
X83955886Y-34953156D01*
X83970448Y-34944428D01*
X83985796Y-34937169D01*
X84001781Y-34931449D01*
X84018249Y-34927324D01*
X84035043Y-34924833D01*
X84052000Y-34924000D01*
X84448000Y-34924000D01*
X84464957Y-34924833D01*
G37*
G36*
X93692702Y-37262345D02*
G01*
X93709738Y-37264872D01*
X93726445Y-37269057D01*
X93742661Y-37274859D01*
X93758230Y-37282223D01*
X93773003Y-37291077D01*
X93786836Y-37301337D01*
X93799597Y-37312903D01*
X93811163Y-37325664D01*
X93821423Y-37339497D01*
X93830277Y-37354270D01*
X93837641Y-37369839D01*
X93843443Y-37386055D01*
X93847628Y-37402762D01*
X93850155Y-37419798D01*
X93851000Y-37437000D01*
X93851000Y-38513000D01*
X93850155Y-38530202D01*
X93847628Y-38547238D01*
X93843443Y-38563945D01*
X93837641Y-38580161D01*
X93830277Y-38595730D01*
X93821423Y-38610503D01*
X93811163Y-38624336D01*
X93799597Y-38637097D01*
X93786836Y-38648663D01*
X93773003Y-38658923D01*
X93758230Y-38667777D01*
X93742661Y-38675141D01*
X93726445Y-38680943D01*
X93709738Y-38685128D01*
X93692702Y-38687655D01*
X93675500Y-38688500D01*
X93324500Y-38688500D01*
X93307298Y-38687655D01*
X93290262Y-38685128D01*
X93273555Y-38680943D01*
X93257339Y-38675141D01*
X93241770Y-38667777D01*
X93226997Y-38658923D01*
X93213164Y-38648663D01*
X93200403Y-38637097D01*
X93188837Y-38624336D01*
X93178577Y-38610503D01*
X93169723Y-38595730D01*
X93162359Y-38580161D01*
X93156557Y-38563945D01*
X93152372Y-38547238D01*
X93149845Y-38530202D01*
X93149000Y-38513000D01*
X93149000Y-37437000D01*
X93149845Y-37419798D01*
X93152372Y-37402762D01*
X93156557Y-37386055D01*
X93162359Y-37369839D01*
X93169723Y-37354270D01*
X93178577Y-37339497D01*
X93188837Y-37325664D01*
X93200403Y-37312903D01*
X93213164Y-37301337D01*
X93226997Y-37291077D01*
X93241770Y-37282223D01*
X93257339Y-37274859D01*
X93273555Y-37269057D01*
X93290262Y-37264872D01*
X93307298Y-37262345D01*
X93324500Y-37261500D01*
X93675500Y-37261500D01*
X93692702Y-37262345D01*
G37*
G36*
X95592702Y-37262345D02*
G01*
X95609738Y-37264872D01*
X95626445Y-37269057D01*
X95642661Y-37274859D01*
X95658230Y-37282223D01*
X95673003Y-37291077D01*
X95686836Y-37301337D01*
X95699597Y-37312903D01*
X95711163Y-37325664D01*
X95721423Y-37339497D01*
X95730277Y-37354270D01*
X95737641Y-37369839D01*
X95743443Y-37386055D01*
X95747628Y-37402762D01*
X95750155Y-37419798D01*
X95751000Y-37437000D01*
X95751000Y-38513000D01*
X95750155Y-38530202D01*
X95747628Y-38547238D01*
X95743443Y-38563945D01*
X95737641Y-38580161D01*
X95730277Y-38595730D01*
X95721423Y-38610503D01*
X95711163Y-38624336D01*
X95699597Y-38637097D01*
X95686836Y-38648663D01*
X95673003Y-38658923D01*
X95658230Y-38667777D01*
X95642661Y-38675141D01*
X95626445Y-38680943D01*
X95609738Y-38685128D01*
X95592702Y-38687655D01*
X95575500Y-38688500D01*
X95224500Y-38688500D01*
X95207298Y-38687655D01*
X95190262Y-38685128D01*
X95173555Y-38680943D01*
X95157339Y-38675141D01*
X95141770Y-38667777D01*
X95126997Y-38658923D01*
X95113164Y-38648663D01*
X95100403Y-38637097D01*
X95088837Y-38624336D01*
X95078577Y-38610503D01*
X95069723Y-38595730D01*
X95062359Y-38580161D01*
X95056557Y-38563945D01*
X95052372Y-38547238D01*
X95049845Y-38530202D01*
X95049000Y-38513000D01*
X95049000Y-37437000D01*
X95049845Y-37419798D01*
X95052372Y-37402762D01*
X95056557Y-37386055D01*
X95062359Y-37369839D01*
X95069723Y-37354270D01*
X95078577Y-37339497D01*
X95088837Y-37325664D01*
X95100403Y-37312903D01*
X95113164Y-37301337D01*
X95126997Y-37291077D01*
X95141770Y-37282223D01*
X95157339Y-37274859D01*
X95173555Y-37269057D01*
X95190262Y-37264872D01*
X95207298Y-37262345D01*
X95224500Y-37261500D01*
X95575500Y-37261500D01*
X95592702Y-37262345D01*
G37*
G36*
X95592702Y-39537345D02*
G01*
X95609738Y-39539872D01*
X95626445Y-39544057D01*
X95642661Y-39549859D01*
X95658230Y-39557223D01*
X95673003Y-39566077D01*
X95686836Y-39576337D01*
X95699597Y-39587903D01*
X95711163Y-39600664D01*
X95721423Y-39614497D01*
X95730277Y-39629270D01*
X95737641Y-39644839D01*
X95743443Y-39661055D01*
X95747628Y-39677762D01*
X95750155Y-39694798D01*
X95751000Y-39712000D01*
X95751000Y-40788000D01*
X95750155Y-40805202D01*
X95747628Y-40822238D01*
X95743443Y-40838945D01*
X95737641Y-40855161D01*
X95730277Y-40870730D01*
X95721423Y-40885503D01*
X95711163Y-40899336D01*
X95699597Y-40912097D01*
X95686836Y-40923663D01*
X95673003Y-40933923D01*
X95658230Y-40942777D01*
X95642661Y-40950141D01*
X95626445Y-40955943D01*
X95609738Y-40960128D01*
X95592702Y-40962655D01*
X95575500Y-40963500D01*
X95224500Y-40963500D01*
X95207298Y-40962655D01*
X95190262Y-40960128D01*
X95173555Y-40955943D01*
X95157339Y-40950141D01*
X95141770Y-40942777D01*
X95126997Y-40933923D01*
X95113164Y-40923663D01*
X95100403Y-40912097D01*
X95088837Y-40899336D01*
X95078577Y-40885503D01*
X95069723Y-40870730D01*
X95062359Y-40855161D01*
X95056557Y-40838945D01*
X95052372Y-40822238D01*
X95049845Y-40805202D01*
X95049000Y-40788000D01*
X95049000Y-39712000D01*
X95049845Y-39694798D01*
X95052372Y-39677762D01*
X95056557Y-39661055D01*
X95062359Y-39644839D01*
X95069723Y-39629270D01*
X95078577Y-39614497D01*
X95088837Y-39600664D01*
X95100403Y-39587903D01*
X95113164Y-39576337D01*
X95126997Y-39566077D01*
X95141770Y-39557223D01*
X95157339Y-39549859D01*
X95173555Y-39544057D01*
X95190262Y-39539872D01*
X95207298Y-39537345D01*
X95224500Y-39536500D01*
X95575500Y-39536500D01*
X95592702Y-39537345D01*
G37*
G36*
X94642702Y-39537345D02*
G01*
X94659738Y-39539872D01*
X94676445Y-39544057D01*
X94692661Y-39549859D01*
X94708230Y-39557223D01*
X94723003Y-39566077D01*
X94736836Y-39576337D01*
X94749597Y-39587903D01*
X94761163Y-39600664D01*
X94771423Y-39614497D01*
X94780277Y-39629270D01*
X94787641Y-39644839D01*
X94793443Y-39661055D01*
X94797628Y-39677762D01*
X94800155Y-39694798D01*
X94801000Y-39712000D01*
X94801000Y-40788000D01*
X94800155Y-40805202D01*
X94797628Y-40822238D01*
X94793443Y-40838945D01*
X94787641Y-40855161D01*
X94780277Y-40870730D01*
X94771423Y-40885503D01*
X94761163Y-40899336D01*
X94749597Y-40912097D01*
X94736836Y-40923663D01*
X94723003Y-40933923D01*
X94708230Y-40942777D01*
X94692661Y-40950141D01*
X94676445Y-40955943D01*
X94659738Y-40960128D01*
X94642702Y-40962655D01*
X94625500Y-40963500D01*
X94274500Y-40963500D01*
X94257298Y-40962655D01*
X94240262Y-40960128D01*
X94223555Y-40955943D01*
X94207339Y-40950141D01*
X94191770Y-40942777D01*
X94176997Y-40933923D01*
X94163164Y-40923663D01*
X94150403Y-40912097D01*
X94138837Y-40899336D01*
X94128577Y-40885503D01*
X94119723Y-40870730D01*
X94112359Y-40855161D01*
X94106557Y-40838945D01*
X94102372Y-40822238D01*
X94099845Y-40805202D01*
X94099000Y-40788000D01*
X94099000Y-39712000D01*
X94099845Y-39694798D01*
X94102372Y-39677762D01*
X94106557Y-39661055D01*
X94112359Y-39644839D01*
X94119723Y-39629270D01*
X94128577Y-39614497D01*
X94138837Y-39600664D01*
X94150403Y-39587903D01*
X94163164Y-39576337D01*
X94176997Y-39566077D01*
X94191770Y-39557223D01*
X94207339Y-39549859D01*
X94223555Y-39544057D01*
X94240262Y-39539872D01*
X94257298Y-39537345D01*
X94274500Y-39536500D01*
X94625500Y-39536500D01*
X94642702Y-39537345D01*
G37*
G36*
X93692702Y-39537345D02*
G01*
X93709738Y-39539872D01*
X93726445Y-39544057D01*
X93742661Y-39549859D01*
X93758230Y-39557223D01*
X93773003Y-39566077D01*
X93786836Y-39576337D01*
X93799597Y-39587903D01*
X93811163Y-39600664D01*
X93821423Y-39614497D01*
X93830277Y-39629270D01*
X93837641Y-39644839D01*
X93843443Y-39661055D01*
X93847628Y-39677762D01*
X93850155Y-39694798D01*
X93851000Y-39712000D01*
X93851000Y-40788000D01*
X93850155Y-40805202D01*
X93847628Y-40822238D01*
X93843443Y-40838945D01*
X93837641Y-40855161D01*
X93830277Y-40870730D01*
X93821423Y-40885503D01*
X93811163Y-40899336D01*
X93799597Y-40912097D01*
X93786836Y-40923663D01*
X93773003Y-40933923D01*
X93758230Y-40942777D01*
X93742661Y-40950141D01*
X93726445Y-40955943D01*
X93709738Y-40960128D01*
X93692702Y-40962655D01*
X93675500Y-40963500D01*
X93324500Y-40963500D01*
X93307298Y-40962655D01*
X93290262Y-40960128D01*
X93273555Y-40955943D01*
X93257339Y-40950141D01*
X93241770Y-40942777D01*
X93226997Y-40933923D01*
X93213164Y-40923663D01*
X93200403Y-40912097D01*
X93188837Y-40899336D01*
X93178577Y-40885503D01*
X93169723Y-40870730D01*
X93162359Y-40855161D01*
X93156557Y-40838945D01*
X93152372Y-40822238D01*
X93149845Y-40805202D01*
X93149000Y-40788000D01*
X93149000Y-39712000D01*
X93149845Y-39694798D01*
X93152372Y-39677762D01*
X93156557Y-39661055D01*
X93162359Y-39644839D01*
X93169723Y-39629270D01*
X93178577Y-39614497D01*
X93188837Y-39600664D01*
X93200403Y-39587903D01*
X93213164Y-39576337D01*
X93226997Y-39566077D01*
X93241770Y-39557223D01*
X93257339Y-39549859D01*
X93273555Y-39544057D01*
X93290262Y-39539872D01*
X93307298Y-39537345D01*
X93324500Y-39536500D01*
X93675500Y-39536500D01*
X93692702Y-39537345D01*
G37*
D13*
X102209798Y-29664214D02*
X102492640Y-29947056D01*
X100937006Y-30937006D02*
X101219848Y-31219848D01*
D11*
G36*
X98135323Y-27372970D02*
G01*
X98161810Y-27376899D01*
X98187784Y-27383405D01*
X98212996Y-27392426D01*
X98237201Y-27403874D01*
X98260169Y-27417640D01*
X98281676Y-27433591D01*
X98301516Y-27451573D01*
X99048427Y-28198484D01*
X99066409Y-28218324D01*
X99082360Y-28239831D01*
X99096126Y-28262799D01*
X99107574Y-28287004D01*
X99116595Y-28312216D01*
X99123101Y-28338190D01*
X99127030Y-28364677D01*
X99128344Y-28391421D01*
X99127030Y-28418165D01*
X99123101Y-28444652D01*
X99116595Y-28470626D01*
X99107574Y-28495838D01*
X99096126Y-28520043D01*
X99082360Y-28543011D01*
X99066409Y-28564518D01*
X99048427Y-28584358D01*
X98584358Y-29048427D01*
X98564518Y-29066409D01*
X98543011Y-29082360D01*
X98520043Y-29096126D01*
X98495838Y-29107574D01*
X98470626Y-29116595D01*
X98444652Y-29123101D01*
X98418165Y-29127030D01*
X98391421Y-29128344D01*
X98364677Y-29127030D01*
X98338190Y-29123101D01*
X98312216Y-29116595D01*
X98287004Y-29107574D01*
X98262799Y-29096126D01*
X98239831Y-29082360D01*
X98218324Y-29066409D01*
X98198484Y-29048427D01*
X97451573Y-28301516D01*
X97433591Y-28281676D01*
X97417640Y-28260169D01*
X97403874Y-28237201D01*
X97392426Y-28212996D01*
X97383405Y-28187784D01*
X97376899Y-28161810D01*
X97372970Y-28135323D01*
X97371656Y-28108579D01*
X97372970Y-28081835D01*
X97376899Y-28055348D01*
X97383405Y-28029374D01*
X97392426Y-28004162D01*
X97403874Y-27979957D01*
X97417640Y-27956989D01*
X97433591Y-27935482D01*
X97451573Y-27915642D01*
X97915642Y-27451573D01*
X97935482Y-27433591D01*
X97956989Y-27417640D01*
X97979957Y-27403874D01*
X98004162Y-27392426D01*
X98029374Y-27383405D01*
X98055348Y-27376899D01*
X98081835Y-27372970D01*
X98108579Y-27371656D01*
X98135323Y-27372970D01*
G37*
D13*
X99381371Y-26835787D02*
X99664213Y-27118629D01*
X100914214Y-36540202D02*
X101197056Y-36257360D01*
X102187006Y-37812994D02*
X102469848Y-37530152D01*
D11*
G36*
X99668165Y-39622970D02*
G01*
X99694652Y-39626899D01*
X99720626Y-39633405D01*
X99745838Y-39642426D01*
X99770043Y-39653874D01*
X99793011Y-39667640D01*
X99814518Y-39683591D01*
X99834358Y-39701573D01*
X100298427Y-40165642D01*
X100316409Y-40185482D01*
X100332360Y-40206989D01*
X100346126Y-40229957D01*
X100357574Y-40254162D01*
X100366595Y-40279374D01*
X100373101Y-40305348D01*
X100377030Y-40331835D01*
X100378344Y-40358579D01*
X100377030Y-40385323D01*
X100373101Y-40411810D01*
X100366595Y-40437784D01*
X100357574Y-40462996D01*
X100346126Y-40487201D01*
X100332360Y-40510169D01*
X100316409Y-40531676D01*
X100298427Y-40551516D01*
X99551516Y-41298427D01*
X99531676Y-41316409D01*
X99510169Y-41332360D01*
X99487201Y-41346126D01*
X99462996Y-41357574D01*
X99437784Y-41366595D01*
X99411810Y-41373101D01*
X99385323Y-41377030D01*
X99358579Y-41378344D01*
X99331835Y-41377030D01*
X99305348Y-41373101D01*
X99279374Y-41366595D01*
X99254162Y-41357574D01*
X99229957Y-41346126D01*
X99206989Y-41332360D01*
X99185482Y-41316409D01*
X99165642Y-41298427D01*
X98701573Y-40834358D01*
X98683591Y-40814518D01*
X98667640Y-40793011D01*
X98653874Y-40770043D01*
X98642426Y-40745838D01*
X98633405Y-40720626D01*
X98626899Y-40694652D01*
X98622970Y-40668165D01*
X98621656Y-40641421D01*
X98622970Y-40614677D01*
X98626899Y-40588190D01*
X98633405Y-40562216D01*
X98642426Y-40537004D01*
X98653874Y-40512799D01*
X98667640Y-40489831D01*
X98683591Y-40468324D01*
X98701573Y-40448484D01*
X99448484Y-39701573D01*
X99468324Y-39683591D01*
X99489831Y-39667640D01*
X99512799Y-39653874D01*
X99537004Y-39642426D01*
X99562216Y-39633405D01*
X99588190Y-39626899D01*
X99614677Y-39622970D01*
X99641421Y-39621656D01*
X99668165Y-39622970D01*
G37*
D13*
X98085787Y-39368629D02*
X98368629Y-39085787D01*
D14*
X104400000Y-37325000D03*
X104400000Y-36675000D03*
X104400000Y-36025000D03*
X104400000Y-35375000D03*
X104400000Y-34725000D03*
X104400000Y-34075000D03*
X104400000Y-33425000D03*
X104400000Y-32775000D03*
X104400000Y-32125000D03*
X104400000Y-31475000D03*
X104400000Y-30825000D03*
X104400000Y-30175000D03*
X111600000Y-30175000D03*
X111600000Y-30825000D03*
X111600000Y-31475000D03*
X111600000Y-32125000D03*
X111600000Y-32775000D03*
X111600000Y-33425000D03*
X111600000Y-34075000D03*
X111600000Y-34725000D03*
X111600000Y-35375000D03*
X111600000Y-36025000D03*
X111600000Y-36675000D03*
X111600000Y-37325000D03*
D11*
G36*
X92860351Y-34874484D02*
G01*
X92870107Y-34875931D01*
X92879674Y-34878327D01*
X92888960Y-34881650D01*
X92897875Y-34885867D01*
X92906335Y-34890937D01*
X92914257Y-34896812D01*
X92921564Y-34903436D01*
X92928188Y-34910743D01*
X92934063Y-34918665D01*
X92939133Y-34927125D01*
X92943350Y-34936040D01*
X92946673Y-34945326D01*
X92949069Y-34954893D01*
X92950516Y-34964649D01*
X92951000Y-34974500D01*
X92951000Y-36350500D01*
X92950516Y-36360351D01*
X92949069Y-36370107D01*
X92946673Y-36379674D01*
X92943350Y-36388960D01*
X92939133Y-36397875D01*
X92934063Y-36406335D01*
X92928188Y-36414257D01*
X92921564Y-36421564D01*
X92914257Y-36428188D01*
X92906335Y-36434063D01*
X92897875Y-36439133D01*
X92888960Y-36443350D01*
X92879674Y-36446673D01*
X92870107Y-36449069D01*
X92860351Y-36450516D01*
X92850500Y-36451000D01*
X92649500Y-36451000D01*
X92639649Y-36450516D01*
X92629893Y-36449069D01*
X92620326Y-36446673D01*
X92611040Y-36443350D01*
X92602125Y-36439133D01*
X92593665Y-36434063D01*
X92585743Y-36428188D01*
X92578436Y-36421564D01*
X92571812Y-36414257D01*
X92565937Y-36406335D01*
X92560867Y-36397875D01*
X92556650Y-36388960D01*
X92553327Y-36379674D01*
X92550931Y-36370107D01*
X92549484Y-36360351D01*
X92549000Y-36350500D01*
X92549000Y-34974500D01*
X92549484Y-34964649D01*
X92550931Y-34954893D01*
X92553327Y-34945326D01*
X92556650Y-34936040D01*
X92560867Y-34927125D01*
X92565937Y-34918665D01*
X92571812Y-34910743D01*
X92578436Y-34903436D01*
X92585743Y-34896812D01*
X92593665Y-34890937D01*
X92602125Y-34885867D01*
X92611040Y-34881650D01*
X92620326Y-34878327D01*
X92629893Y-34875931D01*
X92639649Y-34874484D01*
X92649500Y-34874000D01*
X92850500Y-34874000D01*
X92860351Y-34874484D01*
G37*
G36*
X92360351Y-34874484D02*
G01*
X92370107Y-34875931D01*
X92379674Y-34878327D01*
X92388960Y-34881650D01*
X92397875Y-34885867D01*
X92406335Y-34890937D01*
X92414257Y-34896812D01*
X92421564Y-34903436D01*
X92428188Y-34910743D01*
X92434063Y-34918665D01*
X92439133Y-34927125D01*
X92443350Y-34936040D01*
X92446673Y-34945326D01*
X92449069Y-34954893D01*
X92450516Y-34964649D01*
X92451000Y-34974500D01*
X92451000Y-36350500D01*
X92450516Y-36360351D01*
X92449069Y-36370107D01*
X92446673Y-36379674D01*
X92443350Y-36388960D01*
X92439133Y-36397875D01*
X92434063Y-36406335D01*
X92428188Y-36414257D01*
X92421564Y-36421564D01*
X92414257Y-36428188D01*
X92406335Y-36434063D01*
X92397875Y-36439133D01*
X92388960Y-36443350D01*
X92379674Y-36446673D01*
X92370107Y-36449069D01*
X92360351Y-36450516D01*
X92350500Y-36451000D01*
X92149500Y-36451000D01*
X92139649Y-36450516D01*
X92129893Y-36449069D01*
X92120326Y-36446673D01*
X92111040Y-36443350D01*
X92102125Y-36439133D01*
X92093665Y-36434063D01*
X92085743Y-36428188D01*
X92078436Y-36421564D01*
X92071812Y-36414257D01*
X92065937Y-36406335D01*
X92060867Y-36397875D01*
X92056650Y-36388960D01*
X92053327Y-36379674D01*
X92050931Y-36370107D01*
X92049484Y-36360351D01*
X92049000Y-36350500D01*
X92049000Y-34974500D01*
X92049484Y-34964649D01*
X92050931Y-34954893D01*
X92053327Y-34945326D01*
X92056650Y-34936040D01*
X92060867Y-34927125D01*
X92065937Y-34918665D01*
X92071812Y-34910743D01*
X92078436Y-34903436D01*
X92085743Y-34896812D01*
X92093665Y-34890937D01*
X92102125Y-34885867D01*
X92111040Y-34881650D01*
X92120326Y-34878327D01*
X92129893Y-34875931D01*
X92139649Y-34874484D01*
X92149500Y-34874000D01*
X92350500Y-34874000D01*
X92360351Y-34874484D01*
G37*
G36*
X91860351Y-34874484D02*
G01*
X91870107Y-34875931D01*
X91879674Y-34878327D01*
X91888960Y-34881650D01*
X91897875Y-34885867D01*
X91906335Y-34890937D01*
X91914257Y-34896812D01*
X91921564Y-34903436D01*
X91928188Y-34910743D01*
X91934063Y-34918665D01*
X91939133Y-34927125D01*
X91943350Y-34936040D01*
X91946673Y-34945326D01*
X91949069Y-34954893D01*
X91950516Y-34964649D01*
X91951000Y-34974500D01*
X91951000Y-36350500D01*
X91950516Y-36360351D01*
X91949069Y-36370107D01*
X91946673Y-36379674D01*
X91943350Y-36388960D01*
X91939133Y-36397875D01*
X91934063Y-36406335D01*
X91928188Y-36414257D01*
X91921564Y-36421564D01*
X91914257Y-36428188D01*
X91906335Y-36434063D01*
X91897875Y-36439133D01*
X91888960Y-36443350D01*
X91879674Y-36446673D01*
X91870107Y-36449069D01*
X91860351Y-36450516D01*
X91850500Y-36451000D01*
X91649500Y-36451000D01*
X91639649Y-36450516D01*
X91629893Y-36449069D01*
X91620326Y-36446673D01*
X91611040Y-36443350D01*
X91602125Y-36439133D01*
X91593665Y-36434063D01*
X91585743Y-36428188D01*
X91578436Y-36421564D01*
X91571812Y-36414257D01*
X91565937Y-36406335D01*
X91560867Y-36397875D01*
X91556650Y-36388960D01*
X91553327Y-36379674D01*
X91550931Y-36370107D01*
X91549484Y-36360351D01*
X91549000Y-36350500D01*
X91549000Y-34974500D01*
X91549484Y-34964649D01*
X91550931Y-34954893D01*
X91553327Y-34945326D01*
X91556650Y-34936040D01*
X91560867Y-34927125D01*
X91565937Y-34918665D01*
X91571812Y-34910743D01*
X91578436Y-34903436D01*
X91585743Y-34896812D01*
X91593665Y-34890937D01*
X91602125Y-34885867D01*
X91611040Y-34881650D01*
X91620326Y-34878327D01*
X91629893Y-34875931D01*
X91639649Y-34874484D01*
X91649500Y-34874000D01*
X91850500Y-34874000D01*
X91860351Y-34874484D01*
G37*
G36*
X91360351Y-34874484D02*
G01*
X91370107Y-34875931D01*
X91379674Y-34878327D01*
X91388960Y-34881650D01*
X91397875Y-34885867D01*
X91406335Y-34890937D01*
X91414257Y-34896812D01*
X91421564Y-34903436D01*
X91428188Y-34910743D01*
X91434063Y-34918665D01*
X91439133Y-34927125D01*
X91443350Y-34936040D01*
X91446673Y-34945326D01*
X91449069Y-34954893D01*
X91450516Y-34964649D01*
X91451000Y-34974500D01*
X91451000Y-36350500D01*
X91450516Y-36360351D01*
X91449069Y-36370107D01*
X91446673Y-36379674D01*
X91443350Y-36388960D01*
X91439133Y-36397875D01*
X91434063Y-36406335D01*
X91428188Y-36414257D01*
X91421564Y-36421564D01*
X91414257Y-36428188D01*
X91406335Y-36434063D01*
X91397875Y-36439133D01*
X91388960Y-36443350D01*
X91379674Y-36446673D01*
X91370107Y-36449069D01*
X91360351Y-36450516D01*
X91350500Y-36451000D01*
X91149500Y-36451000D01*
X91139649Y-36450516D01*
X91129893Y-36449069D01*
X91120326Y-36446673D01*
X91111040Y-36443350D01*
X91102125Y-36439133D01*
X91093665Y-36434063D01*
X91085743Y-36428188D01*
X91078436Y-36421564D01*
X91071812Y-36414257D01*
X91065937Y-36406335D01*
X91060867Y-36397875D01*
X91056650Y-36388960D01*
X91053327Y-36379674D01*
X91050931Y-36370107D01*
X91049484Y-36360351D01*
X91049000Y-36350500D01*
X91049000Y-34974500D01*
X91049484Y-34964649D01*
X91050931Y-34954893D01*
X91053327Y-34945326D01*
X91056650Y-34936040D01*
X91060867Y-34927125D01*
X91065937Y-34918665D01*
X91071812Y-34910743D01*
X91078436Y-34903436D01*
X91085743Y-34896812D01*
X91093665Y-34890937D01*
X91102125Y-34885867D01*
X91111040Y-34881650D01*
X91120326Y-34878327D01*
X91129893Y-34875931D01*
X91139649Y-34874484D01*
X91149500Y-34874000D01*
X91350500Y-34874000D01*
X91360351Y-34874484D01*
G37*
G36*
X90860351Y-34874484D02*
G01*
X90870107Y-34875931D01*
X90879674Y-34878327D01*
X90888960Y-34881650D01*
X90897875Y-34885867D01*
X90906335Y-34890937D01*
X90914257Y-34896812D01*
X90921564Y-34903436D01*
X90928188Y-34910743D01*
X90934063Y-34918665D01*
X90939133Y-34927125D01*
X90943350Y-34936040D01*
X90946673Y-34945326D01*
X90949069Y-34954893D01*
X90950516Y-34964649D01*
X90951000Y-34974500D01*
X90951000Y-36350500D01*
X90950516Y-36360351D01*
X90949069Y-36370107D01*
X90946673Y-36379674D01*
X90943350Y-36388960D01*
X90939133Y-36397875D01*
X90934063Y-36406335D01*
X90928188Y-36414257D01*
X90921564Y-36421564D01*
X90914257Y-36428188D01*
X90906335Y-36434063D01*
X90897875Y-36439133D01*
X90888960Y-36443350D01*
X90879674Y-36446673D01*
X90870107Y-36449069D01*
X90860351Y-36450516D01*
X90850500Y-36451000D01*
X90649500Y-36451000D01*
X90639649Y-36450516D01*
X90629893Y-36449069D01*
X90620326Y-36446673D01*
X90611040Y-36443350D01*
X90602125Y-36439133D01*
X90593665Y-36434063D01*
X90585743Y-36428188D01*
X90578436Y-36421564D01*
X90571812Y-36414257D01*
X90565937Y-36406335D01*
X90560867Y-36397875D01*
X90556650Y-36388960D01*
X90553327Y-36379674D01*
X90550931Y-36370107D01*
X90549484Y-36360351D01*
X90549000Y-36350500D01*
X90549000Y-34974500D01*
X90549484Y-34964649D01*
X90550931Y-34954893D01*
X90553327Y-34945326D01*
X90556650Y-34936040D01*
X90560867Y-34927125D01*
X90565937Y-34918665D01*
X90571812Y-34910743D01*
X90578436Y-34903436D01*
X90585743Y-34896812D01*
X90593665Y-34890937D01*
X90602125Y-34885867D01*
X90611040Y-34881650D01*
X90620326Y-34878327D01*
X90629893Y-34875931D01*
X90639649Y-34874484D01*
X90649500Y-34874000D01*
X90850500Y-34874000D01*
X90860351Y-34874484D01*
G37*
G36*
X90360351Y-34874484D02*
G01*
X90370107Y-34875931D01*
X90379674Y-34878327D01*
X90388960Y-34881650D01*
X90397875Y-34885867D01*
X90406335Y-34890937D01*
X90414257Y-34896812D01*
X90421564Y-34903436D01*
X90428188Y-34910743D01*
X90434063Y-34918665D01*
X90439133Y-34927125D01*
X90443350Y-34936040D01*
X90446673Y-34945326D01*
X90449069Y-34954893D01*
X90450516Y-34964649D01*
X90451000Y-34974500D01*
X90451000Y-36350500D01*
X90450516Y-36360351D01*
X90449069Y-36370107D01*
X90446673Y-36379674D01*
X90443350Y-36388960D01*
X90439133Y-36397875D01*
X90434063Y-36406335D01*
X90428188Y-36414257D01*
X90421564Y-36421564D01*
X90414257Y-36428188D01*
X90406335Y-36434063D01*
X90397875Y-36439133D01*
X90388960Y-36443350D01*
X90379674Y-36446673D01*
X90370107Y-36449069D01*
X90360351Y-36450516D01*
X90350500Y-36451000D01*
X90149500Y-36451000D01*
X90139649Y-36450516D01*
X90129893Y-36449069D01*
X90120326Y-36446673D01*
X90111040Y-36443350D01*
X90102125Y-36439133D01*
X90093665Y-36434063D01*
X90085743Y-36428188D01*
X90078436Y-36421564D01*
X90071812Y-36414257D01*
X90065937Y-36406335D01*
X90060867Y-36397875D01*
X90056650Y-36388960D01*
X90053327Y-36379674D01*
X90050931Y-36370107D01*
X90049484Y-36360351D01*
X90049000Y-36350500D01*
X90049000Y-34974500D01*
X90049484Y-34964649D01*
X90050931Y-34954893D01*
X90053327Y-34945326D01*
X90056650Y-34936040D01*
X90060867Y-34927125D01*
X90065937Y-34918665D01*
X90071812Y-34910743D01*
X90078436Y-34903436D01*
X90085743Y-34896812D01*
X90093665Y-34890937D01*
X90102125Y-34885867D01*
X90111040Y-34881650D01*
X90120326Y-34878327D01*
X90129893Y-34875931D01*
X90139649Y-34874484D01*
X90149500Y-34874000D01*
X90350500Y-34874000D01*
X90360351Y-34874484D01*
G37*
G36*
X89860351Y-34874484D02*
G01*
X89870107Y-34875931D01*
X89879674Y-34878327D01*
X89888960Y-34881650D01*
X89897875Y-34885867D01*
X89906335Y-34890937D01*
X89914257Y-34896812D01*
X89921564Y-34903436D01*
X89928188Y-34910743D01*
X89934063Y-34918665D01*
X89939133Y-34927125D01*
X89943350Y-34936040D01*
X89946673Y-34945326D01*
X89949069Y-34954893D01*
X89950516Y-34964649D01*
X89951000Y-34974500D01*
X89951000Y-36350500D01*
X89950516Y-36360351D01*
X89949069Y-36370107D01*
X89946673Y-36379674D01*
X89943350Y-36388960D01*
X89939133Y-36397875D01*
X89934063Y-36406335D01*
X89928188Y-36414257D01*
X89921564Y-36421564D01*
X89914257Y-36428188D01*
X89906335Y-36434063D01*
X89897875Y-36439133D01*
X89888960Y-36443350D01*
X89879674Y-36446673D01*
X89870107Y-36449069D01*
X89860351Y-36450516D01*
X89850500Y-36451000D01*
X89649500Y-36451000D01*
X89639649Y-36450516D01*
X89629893Y-36449069D01*
X89620326Y-36446673D01*
X89611040Y-36443350D01*
X89602125Y-36439133D01*
X89593665Y-36434063D01*
X89585743Y-36428188D01*
X89578436Y-36421564D01*
X89571812Y-36414257D01*
X89565937Y-36406335D01*
X89560867Y-36397875D01*
X89556650Y-36388960D01*
X89553327Y-36379674D01*
X89550931Y-36370107D01*
X89549484Y-36360351D01*
X89549000Y-36350500D01*
X89549000Y-34974500D01*
X89549484Y-34964649D01*
X89550931Y-34954893D01*
X89553327Y-34945326D01*
X89556650Y-34936040D01*
X89560867Y-34927125D01*
X89565937Y-34918665D01*
X89571812Y-34910743D01*
X89578436Y-34903436D01*
X89585743Y-34896812D01*
X89593665Y-34890937D01*
X89602125Y-34885867D01*
X89611040Y-34881650D01*
X89620326Y-34878327D01*
X89629893Y-34875931D01*
X89639649Y-34874484D01*
X89649500Y-34874000D01*
X89850500Y-34874000D01*
X89860351Y-34874484D01*
G37*
G36*
X89360351Y-34874484D02*
G01*
X89370107Y-34875931D01*
X89379674Y-34878327D01*
X89388960Y-34881650D01*
X89397875Y-34885867D01*
X89406335Y-34890937D01*
X89414257Y-34896812D01*
X89421564Y-34903436D01*
X89428188Y-34910743D01*
X89434063Y-34918665D01*
X89439133Y-34927125D01*
X89443350Y-34936040D01*
X89446673Y-34945326D01*
X89449069Y-34954893D01*
X89450516Y-34964649D01*
X89451000Y-34974500D01*
X89451000Y-36350500D01*
X89450516Y-36360351D01*
X89449069Y-36370107D01*
X89446673Y-36379674D01*
X89443350Y-36388960D01*
X89439133Y-36397875D01*
X89434063Y-36406335D01*
X89428188Y-36414257D01*
X89421564Y-36421564D01*
X89414257Y-36428188D01*
X89406335Y-36434063D01*
X89397875Y-36439133D01*
X89388960Y-36443350D01*
X89379674Y-36446673D01*
X89370107Y-36449069D01*
X89360351Y-36450516D01*
X89350500Y-36451000D01*
X89149500Y-36451000D01*
X89139649Y-36450516D01*
X89129893Y-36449069D01*
X89120326Y-36446673D01*
X89111040Y-36443350D01*
X89102125Y-36439133D01*
X89093665Y-36434063D01*
X89085743Y-36428188D01*
X89078436Y-36421564D01*
X89071812Y-36414257D01*
X89065937Y-36406335D01*
X89060867Y-36397875D01*
X89056650Y-36388960D01*
X89053327Y-36379674D01*
X89050931Y-36370107D01*
X89049484Y-36360351D01*
X89049000Y-36350500D01*
X89049000Y-34974500D01*
X89049484Y-34964649D01*
X89050931Y-34954893D01*
X89053327Y-34945326D01*
X89056650Y-34936040D01*
X89060867Y-34927125D01*
X89065937Y-34918665D01*
X89071812Y-34910743D01*
X89078436Y-34903436D01*
X89085743Y-34896812D01*
X89093665Y-34890937D01*
X89102125Y-34885867D01*
X89111040Y-34881650D01*
X89120326Y-34878327D01*
X89129893Y-34875931D01*
X89139649Y-34874484D01*
X89149500Y-34874000D01*
X89350500Y-34874000D01*
X89360351Y-34874484D01*
G37*
G36*
X88860351Y-34874484D02*
G01*
X88870107Y-34875931D01*
X88879674Y-34878327D01*
X88888960Y-34881650D01*
X88897875Y-34885867D01*
X88906335Y-34890937D01*
X88914257Y-34896812D01*
X88921564Y-34903436D01*
X88928188Y-34910743D01*
X88934063Y-34918665D01*
X88939133Y-34927125D01*
X88943350Y-34936040D01*
X88946673Y-34945326D01*
X88949069Y-34954893D01*
X88950516Y-34964649D01*
X88951000Y-34974500D01*
X88951000Y-36350500D01*
X88950516Y-36360351D01*
X88949069Y-36370107D01*
X88946673Y-36379674D01*
X88943350Y-36388960D01*
X88939133Y-36397875D01*
X88934063Y-36406335D01*
X88928188Y-36414257D01*
X88921564Y-36421564D01*
X88914257Y-36428188D01*
X88906335Y-36434063D01*
X88897875Y-36439133D01*
X88888960Y-36443350D01*
X88879674Y-36446673D01*
X88870107Y-36449069D01*
X88860351Y-36450516D01*
X88850500Y-36451000D01*
X88649500Y-36451000D01*
X88639649Y-36450516D01*
X88629893Y-36449069D01*
X88620326Y-36446673D01*
X88611040Y-36443350D01*
X88602125Y-36439133D01*
X88593665Y-36434063D01*
X88585743Y-36428188D01*
X88578436Y-36421564D01*
X88571812Y-36414257D01*
X88565937Y-36406335D01*
X88560867Y-36397875D01*
X88556650Y-36388960D01*
X88553327Y-36379674D01*
X88550931Y-36370107D01*
X88549484Y-36360351D01*
X88549000Y-36350500D01*
X88549000Y-34974500D01*
X88549484Y-34964649D01*
X88550931Y-34954893D01*
X88553327Y-34945326D01*
X88556650Y-34936040D01*
X88560867Y-34927125D01*
X88565937Y-34918665D01*
X88571812Y-34910743D01*
X88578436Y-34903436D01*
X88585743Y-34896812D01*
X88593665Y-34890937D01*
X88602125Y-34885867D01*
X88611040Y-34881650D01*
X88620326Y-34878327D01*
X88629893Y-34875931D01*
X88639649Y-34874484D01*
X88649500Y-34874000D01*
X88850500Y-34874000D01*
X88860351Y-34874484D01*
G37*
G36*
X88360351Y-34874484D02*
G01*
X88370107Y-34875931D01*
X88379674Y-34878327D01*
X88388960Y-34881650D01*
X88397875Y-34885867D01*
X88406335Y-34890937D01*
X88414257Y-34896812D01*
X88421564Y-34903436D01*
X88428188Y-34910743D01*
X88434063Y-34918665D01*
X88439133Y-34927125D01*
X88443350Y-34936040D01*
X88446673Y-34945326D01*
X88449069Y-34954893D01*
X88450516Y-34964649D01*
X88451000Y-34974500D01*
X88451000Y-36350500D01*
X88450516Y-36360351D01*
X88449069Y-36370107D01*
X88446673Y-36379674D01*
X88443350Y-36388960D01*
X88439133Y-36397875D01*
X88434063Y-36406335D01*
X88428188Y-36414257D01*
X88421564Y-36421564D01*
X88414257Y-36428188D01*
X88406335Y-36434063D01*
X88397875Y-36439133D01*
X88388960Y-36443350D01*
X88379674Y-36446673D01*
X88370107Y-36449069D01*
X88360351Y-36450516D01*
X88350500Y-36451000D01*
X88149500Y-36451000D01*
X88139649Y-36450516D01*
X88129893Y-36449069D01*
X88120326Y-36446673D01*
X88111040Y-36443350D01*
X88102125Y-36439133D01*
X88093665Y-36434063D01*
X88085743Y-36428188D01*
X88078436Y-36421564D01*
X88071812Y-36414257D01*
X88065937Y-36406335D01*
X88060867Y-36397875D01*
X88056650Y-36388960D01*
X88053327Y-36379674D01*
X88050931Y-36370107D01*
X88049484Y-36360351D01*
X88049000Y-36350500D01*
X88049000Y-34974500D01*
X88049484Y-34964649D01*
X88050931Y-34954893D01*
X88053327Y-34945326D01*
X88056650Y-34936040D01*
X88060867Y-34927125D01*
X88065937Y-34918665D01*
X88071812Y-34910743D01*
X88078436Y-34903436D01*
X88085743Y-34896812D01*
X88093665Y-34890937D01*
X88102125Y-34885867D01*
X88111040Y-34881650D01*
X88120326Y-34878327D01*
X88129893Y-34875931D01*
X88139649Y-34874484D01*
X88149500Y-34874000D01*
X88350500Y-34874000D01*
X88360351Y-34874484D01*
G37*
G36*
X87860351Y-34874484D02*
G01*
X87870107Y-34875931D01*
X87879674Y-34878327D01*
X87888960Y-34881650D01*
X87897875Y-34885867D01*
X87906335Y-34890937D01*
X87914257Y-34896812D01*
X87921564Y-34903436D01*
X87928188Y-34910743D01*
X87934063Y-34918665D01*
X87939133Y-34927125D01*
X87943350Y-34936040D01*
X87946673Y-34945326D01*
X87949069Y-34954893D01*
X87950516Y-34964649D01*
X87951000Y-34974500D01*
X87951000Y-36350500D01*
X87950516Y-36360351D01*
X87949069Y-36370107D01*
X87946673Y-36379674D01*
X87943350Y-36388960D01*
X87939133Y-36397875D01*
X87934063Y-36406335D01*
X87928188Y-36414257D01*
X87921564Y-36421564D01*
X87914257Y-36428188D01*
X87906335Y-36434063D01*
X87897875Y-36439133D01*
X87888960Y-36443350D01*
X87879674Y-36446673D01*
X87870107Y-36449069D01*
X87860351Y-36450516D01*
X87850500Y-36451000D01*
X87649500Y-36451000D01*
X87639649Y-36450516D01*
X87629893Y-36449069D01*
X87620326Y-36446673D01*
X87611040Y-36443350D01*
X87602125Y-36439133D01*
X87593665Y-36434063D01*
X87585743Y-36428188D01*
X87578436Y-36421564D01*
X87571812Y-36414257D01*
X87565937Y-36406335D01*
X87560867Y-36397875D01*
X87556650Y-36388960D01*
X87553327Y-36379674D01*
X87550931Y-36370107D01*
X87549484Y-36360351D01*
X87549000Y-36350500D01*
X87549000Y-34974500D01*
X87549484Y-34964649D01*
X87550931Y-34954893D01*
X87553327Y-34945326D01*
X87556650Y-34936040D01*
X87560867Y-34927125D01*
X87565937Y-34918665D01*
X87571812Y-34910743D01*
X87578436Y-34903436D01*
X87585743Y-34896812D01*
X87593665Y-34890937D01*
X87602125Y-34885867D01*
X87611040Y-34881650D01*
X87620326Y-34878327D01*
X87629893Y-34875931D01*
X87639649Y-34874484D01*
X87649500Y-34874000D01*
X87850500Y-34874000D01*
X87860351Y-34874484D01*
G37*
G36*
X87360351Y-34874484D02*
G01*
X87370107Y-34875931D01*
X87379674Y-34878327D01*
X87388960Y-34881650D01*
X87397875Y-34885867D01*
X87406335Y-34890937D01*
X87414257Y-34896812D01*
X87421564Y-34903436D01*
X87428188Y-34910743D01*
X87434063Y-34918665D01*
X87439133Y-34927125D01*
X87443350Y-34936040D01*
X87446673Y-34945326D01*
X87449069Y-34954893D01*
X87450516Y-34964649D01*
X87451000Y-34974500D01*
X87451000Y-36350500D01*
X87450516Y-36360351D01*
X87449069Y-36370107D01*
X87446673Y-36379674D01*
X87443350Y-36388960D01*
X87439133Y-36397875D01*
X87434063Y-36406335D01*
X87428188Y-36414257D01*
X87421564Y-36421564D01*
X87414257Y-36428188D01*
X87406335Y-36434063D01*
X87397875Y-36439133D01*
X87388960Y-36443350D01*
X87379674Y-36446673D01*
X87370107Y-36449069D01*
X87360351Y-36450516D01*
X87350500Y-36451000D01*
X87149500Y-36451000D01*
X87139649Y-36450516D01*
X87129893Y-36449069D01*
X87120326Y-36446673D01*
X87111040Y-36443350D01*
X87102125Y-36439133D01*
X87093665Y-36434063D01*
X87085743Y-36428188D01*
X87078436Y-36421564D01*
X87071812Y-36414257D01*
X87065937Y-36406335D01*
X87060867Y-36397875D01*
X87056650Y-36388960D01*
X87053327Y-36379674D01*
X87050931Y-36370107D01*
X87049484Y-36360351D01*
X87049000Y-36350500D01*
X87049000Y-34974500D01*
X87049484Y-34964649D01*
X87050931Y-34954893D01*
X87053327Y-34945326D01*
X87056650Y-34936040D01*
X87060867Y-34927125D01*
X87065937Y-34918665D01*
X87071812Y-34910743D01*
X87078436Y-34903436D01*
X87085743Y-34896812D01*
X87093665Y-34890937D01*
X87102125Y-34885867D01*
X87111040Y-34881650D01*
X87120326Y-34878327D01*
X87129893Y-34875931D01*
X87139649Y-34874484D01*
X87149500Y-34874000D01*
X87350500Y-34874000D01*
X87360351Y-34874484D01*
G37*
G36*
X86535351Y-34049484D02*
G01*
X86545107Y-34050931D01*
X86554674Y-34053327D01*
X86563960Y-34056650D01*
X86572875Y-34060867D01*
X86581335Y-34065937D01*
X86589257Y-34071812D01*
X86596564Y-34078436D01*
X86603188Y-34085743D01*
X86609063Y-34093665D01*
X86614133Y-34102125D01*
X86618350Y-34111040D01*
X86621673Y-34120326D01*
X86624069Y-34129893D01*
X86625516Y-34139649D01*
X86626000Y-34149500D01*
X86626000Y-34350500D01*
X86625516Y-34360351D01*
X86624069Y-34370107D01*
X86621673Y-34379674D01*
X86618350Y-34388960D01*
X86614133Y-34397875D01*
X86609063Y-34406335D01*
X86603188Y-34414257D01*
X86596564Y-34421564D01*
X86589257Y-34428188D01*
X86581335Y-34434063D01*
X86572875Y-34439133D01*
X86563960Y-34443350D01*
X86554674Y-34446673D01*
X86545107Y-34449069D01*
X86535351Y-34450516D01*
X86525500Y-34451000D01*
X85149500Y-34451000D01*
X85139649Y-34450516D01*
X85129893Y-34449069D01*
X85120326Y-34446673D01*
X85111040Y-34443350D01*
X85102125Y-34439133D01*
X85093665Y-34434063D01*
X85085743Y-34428188D01*
X85078436Y-34421564D01*
X85071812Y-34414257D01*
X85065937Y-34406335D01*
X85060867Y-34397875D01*
X85056650Y-34388960D01*
X85053327Y-34379674D01*
X85050931Y-34370107D01*
X85049484Y-34360351D01*
X85049000Y-34350500D01*
X85049000Y-34149500D01*
X85049484Y-34139649D01*
X85050931Y-34129893D01*
X85053327Y-34120326D01*
X85056650Y-34111040D01*
X85060867Y-34102125D01*
X85065937Y-34093665D01*
X85071812Y-34085743D01*
X85078436Y-34078436D01*
X85085743Y-34071812D01*
X85093665Y-34065937D01*
X85102125Y-34060867D01*
X85111040Y-34056650D01*
X85120326Y-34053327D01*
X85129893Y-34050931D01*
X85139649Y-34049484D01*
X85149500Y-34049000D01*
X86525500Y-34049000D01*
X86535351Y-34049484D01*
G37*
G36*
X86535351Y-33549484D02*
G01*
X86545107Y-33550931D01*
X86554674Y-33553327D01*
X86563960Y-33556650D01*
X86572875Y-33560867D01*
X86581335Y-33565937D01*
X86589257Y-33571812D01*
X86596564Y-33578436D01*
X86603188Y-33585743D01*
X86609063Y-33593665D01*
X86614133Y-33602125D01*
X86618350Y-33611040D01*
X86621673Y-33620326D01*
X86624069Y-33629893D01*
X86625516Y-33639649D01*
X86626000Y-33649500D01*
X86626000Y-33850500D01*
X86625516Y-33860351D01*
X86624069Y-33870107D01*
X86621673Y-33879674D01*
X86618350Y-33888960D01*
X86614133Y-33897875D01*
X86609063Y-33906335D01*
X86603188Y-33914257D01*
X86596564Y-33921564D01*
X86589257Y-33928188D01*
X86581335Y-33934063D01*
X86572875Y-33939133D01*
X86563960Y-33943350D01*
X86554674Y-33946673D01*
X86545107Y-33949069D01*
X86535351Y-33950516D01*
X86525500Y-33951000D01*
X85149500Y-33951000D01*
X85139649Y-33950516D01*
X85129893Y-33949069D01*
X85120326Y-33946673D01*
X85111040Y-33943350D01*
X85102125Y-33939133D01*
X85093665Y-33934063D01*
X85085743Y-33928188D01*
X85078436Y-33921564D01*
X85071812Y-33914257D01*
X85065937Y-33906335D01*
X85060867Y-33897875D01*
X85056650Y-33888960D01*
X85053327Y-33879674D01*
X85050931Y-33870107D01*
X85049484Y-33860351D01*
X85049000Y-33850500D01*
X85049000Y-33649500D01*
X85049484Y-33639649D01*
X85050931Y-33629893D01*
X85053327Y-33620326D01*
X85056650Y-33611040D01*
X85060867Y-33602125D01*
X85065937Y-33593665D01*
X85071812Y-33585743D01*
X85078436Y-33578436D01*
X85085743Y-33571812D01*
X85093665Y-33565937D01*
X85102125Y-33560867D01*
X85111040Y-33556650D01*
X85120326Y-33553327D01*
X85129893Y-33550931D01*
X85139649Y-33549484D01*
X85149500Y-33549000D01*
X86525500Y-33549000D01*
X86535351Y-33549484D01*
G37*
G36*
X86535351Y-33049484D02*
G01*
X86545107Y-33050931D01*
X86554674Y-33053327D01*
X86563960Y-33056650D01*
X86572875Y-33060867D01*
X86581335Y-33065937D01*
X86589257Y-33071812D01*
X86596564Y-33078436D01*
X86603188Y-33085743D01*
X86609063Y-33093665D01*
X86614133Y-33102125D01*
X86618350Y-33111040D01*
X86621673Y-33120326D01*
X86624069Y-33129893D01*
X86625516Y-33139649D01*
X86626000Y-33149500D01*
X86626000Y-33350500D01*
X86625516Y-33360351D01*
X86624069Y-33370107D01*
X86621673Y-33379674D01*
X86618350Y-33388960D01*
X86614133Y-33397875D01*
X86609063Y-33406335D01*
X86603188Y-33414257D01*
X86596564Y-33421564D01*
X86589257Y-33428188D01*
X86581335Y-33434063D01*
X86572875Y-33439133D01*
X86563960Y-33443350D01*
X86554674Y-33446673D01*
X86545107Y-33449069D01*
X86535351Y-33450516D01*
X86525500Y-33451000D01*
X85149500Y-33451000D01*
X85139649Y-33450516D01*
X85129893Y-33449069D01*
X85120326Y-33446673D01*
X85111040Y-33443350D01*
X85102125Y-33439133D01*
X85093665Y-33434063D01*
X85085743Y-33428188D01*
X85078436Y-33421564D01*
X85071812Y-33414257D01*
X85065937Y-33406335D01*
X85060867Y-33397875D01*
X85056650Y-33388960D01*
X85053327Y-33379674D01*
X85050931Y-33370107D01*
X85049484Y-33360351D01*
X85049000Y-33350500D01*
X85049000Y-33149500D01*
X85049484Y-33139649D01*
X85050931Y-33129893D01*
X85053327Y-33120326D01*
X85056650Y-33111040D01*
X85060867Y-33102125D01*
X85065937Y-33093665D01*
X85071812Y-33085743D01*
X85078436Y-33078436D01*
X85085743Y-33071812D01*
X85093665Y-33065937D01*
X85102125Y-33060867D01*
X85111040Y-33056650D01*
X85120326Y-33053327D01*
X85129893Y-33050931D01*
X85139649Y-33049484D01*
X85149500Y-33049000D01*
X86525500Y-33049000D01*
X86535351Y-33049484D01*
G37*
G36*
X86535351Y-32549484D02*
G01*
X86545107Y-32550931D01*
X86554674Y-32553327D01*
X86563960Y-32556650D01*
X86572875Y-32560867D01*
X86581335Y-32565937D01*
X86589257Y-32571812D01*
X86596564Y-32578436D01*
X86603188Y-32585743D01*
X86609063Y-32593665D01*
X86614133Y-32602125D01*
X86618350Y-32611040D01*
X86621673Y-32620326D01*
X86624069Y-32629893D01*
X86625516Y-32639649D01*
X86626000Y-32649500D01*
X86626000Y-32850500D01*
X86625516Y-32860351D01*
X86624069Y-32870107D01*
X86621673Y-32879674D01*
X86618350Y-32888960D01*
X86614133Y-32897875D01*
X86609063Y-32906335D01*
X86603188Y-32914257D01*
X86596564Y-32921564D01*
X86589257Y-32928188D01*
X86581335Y-32934063D01*
X86572875Y-32939133D01*
X86563960Y-32943350D01*
X86554674Y-32946673D01*
X86545107Y-32949069D01*
X86535351Y-32950516D01*
X86525500Y-32951000D01*
X85149500Y-32951000D01*
X85139649Y-32950516D01*
X85129893Y-32949069D01*
X85120326Y-32946673D01*
X85111040Y-32943350D01*
X85102125Y-32939133D01*
X85093665Y-32934063D01*
X85085743Y-32928188D01*
X85078436Y-32921564D01*
X85071812Y-32914257D01*
X85065937Y-32906335D01*
X85060867Y-32897875D01*
X85056650Y-32888960D01*
X85053327Y-32879674D01*
X85050931Y-32870107D01*
X85049484Y-32860351D01*
X85049000Y-32850500D01*
X85049000Y-32649500D01*
X85049484Y-32639649D01*
X85050931Y-32629893D01*
X85053327Y-32620326D01*
X85056650Y-32611040D01*
X85060867Y-32602125D01*
X85065937Y-32593665D01*
X85071812Y-32585743D01*
X85078436Y-32578436D01*
X85085743Y-32571812D01*
X85093665Y-32565937D01*
X85102125Y-32560867D01*
X85111040Y-32556650D01*
X85120326Y-32553327D01*
X85129893Y-32550931D01*
X85139649Y-32549484D01*
X85149500Y-32549000D01*
X86525500Y-32549000D01*
X86535351Y-32549484D01*
G37*
G36*
X86535351Y-32049484D02*
G01*
X86545107Y-32050931D01*
X86554674Y-32053327D01*
X86563960Y-32056650D01*
X86572875Y-32060867D01*
X86581335Y-32065937D01*
X86589257Y-32071812D01*
X86596564Y-32078436D01*
X86603188Y-32085743D01*
X86609063Y-32093665D01*
X86614133Y-32102125D01*
X86618350Y-32111040D01*
X86621673Y-32120326D01*
X86624069Y-32129893D01*
X86625516Y-32139649D01*
X86626000Y-32149500D01*
X86626000Y-32350500D01*
X86625516Y-32360351D01*
X86624069Y-32370107D01*
X86621673Y-32379674D01*
X86618350Y-32388960D01*
X86614133Y-32397875D01*
X86609063Y-32406335D01*
X86603188Y-32414257D01*
X86596564Y-32421564D01*
X86589257Y-32428188D01*
X86581335Y-32434063D01*
X86572875Y-32439133D01*
X86563960Y-32443350D01*
X86554674Y-32446673D01*
X86545107Y-32449069D01*
X86535351Y-32450516D01*
X86525500Y-32451000D01*
X85149500Y-32451000D01*
X85139649Y-32450516D01*
X85129893Y-32449069D01*
X85120326Y-32446673D01*
X85111040Y-32443350D01*
X85102125Y-32439133D01*
X85093665Y-32434063D01*
X85085743Y-32428188D01*
X85078436Y-32421564D01*
X85071812Y-32414257D01*
X85065937Y-32406335D01*
X85060867Y-32397875D01*
X85056650Y-32388960D01*
X85053327Y-32379674D01*
X85050931Y-32370107D01*
X85049484Y-32360351D01*
X85049000Y-32350500D01*
X85049000Y-32149500D01*
X85049484Y-32139649D01*
X85050931Y-32129893D01*
X85053327Y-32120326D01*
X85056650Y-32111040D01*
X85060867Y-32102125D01*
X85065937Y-32093665D01*
X85071812Y-32085743D01*
X85078436Y-32078436D01*
X85085743Y-32071812D01*
X85093665Y-32065937D01*
X85102125Y-32060867D01*
X85111040Y-32056650D01*
X85120326Y-32053327D01*
X85129893Y-32050931D01*
X85139649Y-32049484D01*
X85149500Y-32049000D01*
X86525500Y-32049000D01*
X86535351Y-32049484D01*
G37*
G36*
X86535351Y-31549484D02*
G01*
X86545107Y-31550931D01*
X86554674Y-31553327D01*
X86563960Y-31556650D01*
X86572875Y-31560867D01*
X86581335Y-31565937D01*
X86589257Y-31571812D01*
X86596564Y-31578436D01*
X86603188Y-31585743D01*
X86609063Y-31593665D01*
X86614133Y-31602125D01*
X86618350Y-31611040D01*
X86621673Y-31620326D01*
X86624069Y-31629893D01*
X86625516Y-31639649D01*
X86626000Y-31649500D01*
X86626000Y-31850500D01*
X86625516Y-31860351D01*
X86624069Y-31870107D01*
X86621673Y-31879674D01*
X86618350Y-31888960D01*
X86614133Y-31897875D01*
X86609063Y-31906335D01*
X86603188Y-31914257D01*
X86596564Y-31921564D01*
X86589257Y-31928188D01*
X86581335Y-31934063D01*
X86572875Y-31939133D01*
X86563960Y-31943350D01*
X86554674Y-31946673D01*
X86545107Y-31949069D01*
X86535351Y-31950516D01*
X86525500Y-31951000D01*
X85149500Y-31951000D01*
X85139649Y-31950516D01*
X85129893Y-31949069D01*
X85120326Y-31946673D01*
X85111040Y-31943350D01*
X85102125Y-31939133D01*
X85093665Y-31934063D01*
X85085743Y-31928188D01*
X85078436Y-31921564D01*
X85071812Y-31914257D01*
X85065937Y-31906335D01*
X85060867Y-31897875D01*
X85056650Y-31888960D01*
X85053327Y-31879674D01*
X85050931Y-31870107D01*
X85049484Y-31860351D01*
X85049000Y-31850500D01*
X85049000Y-31649500D01*
X85049484Y-31639649D01*
X85050931Y-31629893D01*
X85053327Y-31620326D01*
X85056650Y-31611040D01*
X85060867Y-31602125D01*
X85065937Y-31593665D01*
X85071812Y-31585743D01*
X85078436Y-31578436D01*
X85085743Y-31571812D01*
X85093665Y-31565937D01*
X85102125Y-31560867D01*
X85111040Y-31556650D01*
X85120326Y-31553327D01*
X85129893Y-31550931D01*
X85139649Y-31549484D01*
X85149500Y-31549000D01*
X86525500Y-31549000D01*
X86535351Y-31549484D01*
G37*
G36*
X86535351Y-31049484D02*
G01*
X86545107Y-31050931D01*
X86554674Y-31053327D01*
X86563960Y-31056650D01*
X86572875Y-31060867D01*
X86581335Y-31065937D01*
X86589257Y-31071812D01*
X86596564Y-31078436D01*
X86603188Y-31085743D01*
X86609063Y-31093665D01*
X86614133Y-31102125D01*
X86618350Y-31111040D01*
X86621673Y-31120326D01*
X86624069Y-31129893D01*
X86625516Y-31139649D01*
X86626000Y-31149500D01*
X86626000Y-31350500D01*
X86625516Y-31360351D01*
X86624069Y-31370107D01*
X86621673Y-31379674D01*
X86618350Y-31388960D01*
X86614133Y-31397875D01*
X86609063Y-31406335D01*
X86603188Y-31414257D01*
X86596564Y-31421564D01*
X86589257Y-31428188D01*
X86581335Y-31434063D01*
X86572875Y-31439133D01*
X86563960Y-31443350D01*
X86554674Y-31446673D01*
X86545107Y-31449069D01*
X86535351Y-31450516D01*
X86525500Y-31451000D01*
X85149500Y-31451000D01*
X85139649Y-31450516D01*
X85129893Y-31449069D01*
X85120326Y-31446673D01*
X85111040Y-31443350D01*
X85102125Y-31439133D01*
X85093665Y-31434063D01*
X85085743Y-31428188D01*
X85078436Y-31421564D01*
X85071812Y-31414257D01*
X85065937Y-31406335D01*
X85060867Y-31397875D01*
X85056650Y-31388960D01*
X85053327Y-31379674D01*
X85050931Y-31370107D01*
X85049484Y-31360351D01*
X85049000Y-31350500D01*
X85049000Y-31149500D01*
X85049484Y-31139649D01*
X85050931Y-31129893D01*
X85053327Y-31120326D01*
X85056650Y-31111040D01*
X85060867Y-31102125D01*
X85065937Y-31093665D01*
X85071812Y-31085743D01*
X85078436Y-31078436D01*
X85085743Y-31071812D01*
X85093665Y-31065937D01*
X85102125Y-31060867D01*
X85111040Y-31056650D01*
X85120326Y-31053327D01*
X85129893Y-31050931D01*
X85139649Y-31049484D01*
X85149500Y-31049000D01*
X86525500Y-31049000D01*
X86535351Y-31049484D01*
G37*
G36*
X86535351Y-30549484D02*
G01*
X86545107Y-30550931D01*
X86554674Y-30553327D01*
X86563960Y-30556650D01*
X86572875Y-30560867D01*
X86581335Y-30565937D01*
X86589257Y-30571812D01*
X86596564Y-30578436D01*
X86603188Y-30585743D01*
X86609063Y-30593665D01*
X86614133Y-30602125D01*
X86618350Y-30611040D01*
X86621673Y-30620326D01*
X86624069Y-30629893D01*
X86625516Y-30639649D01*
X86626000Y-30649500D01*
X86626000Y-30850500D01*
X86625516Y-30860351D01*
X86624069Y-30870107D01*
X86621673Y-30879674D01*
X86618350Y-30888960D01*
X86614133Y-30897875D01*
X86609063Y-30906335D01*
X86603188Y-30914257D01*
X86596564Y-30921564D01*
X86589257Y-30928188D01*
X86581335Y-30934063D01*
X86572875Y-30939133D01*
X86563960Y-30943350D01*
X86554674Y-30946673D01*
X86545107Y-30949069D01*
X86535351Y-30950516D01*
X86525500Y-30951000D01*
X85149500Y-30951000D01*
X85139649Y-30950516D01*
X85129893Y-30949069D01*
X85120326Y-30946673D01*
X85111040Y-30943350D01*
X85102125Y-30939133D01*
X85093665Y-30934063D01*
X85085743Y-30928188D01*
X85078436Y-30921564D01*
X85071812Y-30914257D01*
X85065937Y-30906335D01*
X85060867Y-30897875D01*
X85056650Y-30888960D01*
X85053327Y-30879674D01*
X85050931Y-30870107D01*
X85049484Y-30860351D01*
X85049000Y-30850500D01*
X85049000Y-30649500D01*
X85049484Y-30639649D01*
X85050931Y-30629893D01*
X85053327Y-30620326D01*
X85056650Y-30611040D01*
X85060867Y-30602125D01*
X85065937Y-30593665D01*
X85071812Y-30585743D01*
X85078436Y-30578436D01*
X85085743Y-30571812D01*
X85093665Y-30565937D01*
X85102125Y-30560867D01*
X85111040Y-30556650D01*
X85120326Y-30553327D01*
X85129893Y-30550931D01*
X85139649Y-30549484D01*
X85149500Y-30549000D01*
X86525500Y-30549000D01*
X86535351Y-30549484D01*
G37*
G36*
X86535351Y-30049484D02*
G01*
X86545107Y-30050931D01*
X86554674Y-30053327D01*
X86563960Y-30056650D01*
X86572875Y-30060867D01*
X86581335Y-30065937D01*
X86589257Y-30071812D01*
X86596564Y-30078436D01*
X86603188Y-30085743D01*
X86609063Y-30093665D01*
X86614133Y-30102125D01*
X86618350Y-30111040D01*
X86621673Y-30120326D01*
X86624069Y-30129893D01*
X86625516Y-30139649D01*
X86626000Y-30149500D01*
X86626000Y-30350500D01*
X86625516Y-30360351D01*
X86624069Y-30370107D01*
X86621673Y-30379674D01*
X86618350Y-30388960D01*
X86614133Y-30397875D01*
X86609063Y-30406335D01*
X86603188Y-30414257D01*
X86596564Y-30421564D01*
X86589257Y-30428188D01*
X86581335Y-30434063D01*
X86572875Y-30439133D01*
X86563960Y-30443350D01*
X86554674Y-30446673D01*
X86545107Y-30449069D01*
X86535351Y-30450516D01*
X86525500Y-30451000D01*
X85149500Y-30451000D01*
X85139649Y-30450516D01*
X85129893Y-30449069D01*
X85120326Y-30446673D01*
X85111040Y-30443350D01*
X85102125Y-30439133D01*
X85093665Y-30434063D01*
X85085743Y-30428188D01*
X85078436Y-30421564D01*
X85071812Y-30414257D01*
X85065937Y-30406335D01*
X85060867Y-30397875D01*
X85056650Y-30388960D01*
X85053327Y-30379674D01*
X85050931Y-30370107D01*
X85049484Y-30360351D01*
X85049000Y-30350500D01*
X85049000Y-30149500D01*
X85049484Y-30139649D01*
X85050931Y-30129893D01*
X85053327Y-30120326D01*
X85056650Y-30111040D01*
X85060867Y-30102125D01*
X85065937Y-30093665D01*
X85071812Y-30085743D01*
X85078436Y-30078436D01*
X85085743Y-30071812D01*
X85093665Y-30065937D01*
X85102125Y-30060867D01*
X85111040Y-30056650D01*
X85120326Y-30053327D01*
X85129893Y-30050931D01*
X85139649Y-30049484D01*
X85149500Y-30049000D01*
X86525500Y-30049000D01*
X86535351Y-30049484D01*
G37*
G36*
X86535351Y-29549484D02*
G01*
X86545107Y-29550931D01*
X86554674Y-29553327D01*
X86563960Y-29556650D01*
X86572875Y-29560867D01*
X86581335Y-29565937D01*
X86589257Y-29571812D01*
X86596564Y-29578436D01*
X86603188Y-29585743D01*
X86609063Y-29593665D01*
X86614133Y-29602125D01*
X86618350Y-29611040D01*
X86621673Y-29620326D01*
X86624069Y-29629893D01*
X86625516Y-29639649D01*
X86626000Y-29649500D01*
X86626000Y-29850500D01*
X86625516Y-29860351D01*
X86624069Y-29870107D01*
X86621673Y-29879674D01*
X86618350Y-29888960D01*
X86614133Y-29897875D01*
X86609063Y-29906335D01*
X86603188Y-29914257D01*
X86596564Y-29921564D01*
X86589257Y-29928188D01*
X86581335Y-29934063D01*
X86572875Y-29939133D01*
X86563960Y-29943350D01*
X86554674Y-29946673D01*
X86545107Y-29949069D01*
X86535351Y-29950516D01*
X86525500Y-29951000D01*
X85149500Y-29951000D01*
X85139649Y-29950516D01*
X85129893Y-29949069D01*
X85120326Y-29946673D01*
X85111040Y-29943350D01*
X85102125Y-29939133D01*
X85093665Y-29934063D01*
X85085743Y-29928188D01*
X85078436Y-29921564D01*
X85071812Y-29914257D01*
X85065937Y-29906335D01*
X85060867Y-29897875D01*
X85056650Y-29888960D01*
X85053327Y-29879674D01*
X85050931Y-29870107D01*
X85049484Y-29860351D01*
X85049000Y-29850500D01*
X85049000Y-29649500D01*
X85049484Y-29639649D01*
X85050931Y-29629893D01*
X85053327Y-29620326D01*
X85056650Y-29611040D01*
X85060867Y-29602125D01*
X85065937Y-29593665D01*
X85071812Y-29585743D01*
X85078436Y-29578436D01*
X85085743Y-29571812D01*
X85093665Y-29565937D01*
X85102125Y-29560867D01*
X85111040Y-29556650D01*
X85120326Y-29553327D01*
X85129893Y-29550931D01*
X85139649Y-29549484D01*
X85149500Y-29549000D01*
X86525500Y-29549000D01*
X86535351Y-29549484D01*
G37*
G36*
X86535351Y-29049484D02*
G01*
X86545107Y-29050931D01*
X86554674Y-29053327D01*
X86563960Y-29056650D01*
X86572875Y-29060867D01*
X86581335Y-29065937D01*
X86589257Y-29071812D01*
X86596564Y-29078436D01*
X86603188Y-29085743D01*
X86609063Y-29093665D01*
X86614133Y-29102125D01*
X86618350Y-29111040D01*
X86621673Y-29120326D01*
X86624069Y-29129893D01*
X86625516Y-29139649D01*
X86626000Y-29149500D01*
X86626000Y-29350500D01*
X86625516Y-29360351D01*
X86624069Y-29370107D01*
X86621673Y-29379674D01*
X86618350Y-29388960D01*
X86614133Y-29397875D01*
X86609063Y-29406335D01*
X86603188Y-29414257D01*
X86596564Y-29421564D01*
X86589257Y-29428188D01*
X86581335Y-29434063D01*
X86572875Y-29439133D01*
X86563960Y-29443350D01*
X86554674Y-29446673D01*
X86545107Y-29449069D01*
X86535351Y-29450516D01*
X86525500Y-29451000D01*
X85149500Y-29451000D01*
X85139649Y-29450516D01*
X85129893Y-29449069D01*
X85120326Y-29446673D01*
X85111040Y-29443350D01*
X85102125Y-29439133D01*
X85093665Y-29434063D01*
X85085743Y-29428188D01*
X85078436Y-29421564D01*
X85071812Y-29414257D01*
X85065937Y-29406335D01*
X85060867Y-29397875D01*
X85056650Y-29388960D01*
X85053327Y-29379674D01*
X85050931Y-29370107D01*
X85049484Y-29360351D01*
X85049000Y-29350500D01*
X85049000Y-29149500D01*
X85049484Y-29139649D01*
X85050931Y-29129893D01*
X85053327Y-29120326D01*
X85056650Y-29111040D01*
X85060867Y-29102125D01*
X85065937Y-29093665D01*
X85071812Y-29085743D01*
X85078436Y-29078436D01*
X85085743Y-29071812D01*
X85093665Y-29065937D01*
X85102125Y-29060867D01*
X85111040Y-29056650D01*
X85120326Y-29053327D01*
X85129893Y-29050931D01*
X85139649Y-29049484D01*
X85149500Y-29049000D01*
X86525500Y-29049000D01*
X86535351Y-29049484D01*
G37*
G36*
X86535351Y-28549484D02*
G01*
X86545107Y-28550931D01*
X86554674Y-28553327D01*
X86563960Y-28556650D01*
X86572875Y-28560867D01*
X86581335Y-28565937D01*
X86589257Y-28571812D01*
X86596564Y-28578436D01*
X86603188Y-28585743D01*
X86609063Y-28593665D01*
X86614133Y-28602125D01*
X86618350Y-28611040D01*
X86621673Y-28620326D01*
X86624069Y-28629893D01*
X86625516Y-28639649D01*
X86626000Y-28649500D01*
X86626000Y-28850500D01*
X86625516Y-28860351D01*
X86624069Y-28870107D01*
X86621673Y-28879674D01*
X86618350Y-28888960D01*
X86614133Y-28897875D01*
X86609063Y-28906335D01*
X86603188Y-28914257D01*
X86596564Y-28921564D01*
X86589257Y-28928188D01*
X86581335Y-28934063D01*
X86572875Y-28939133D01*
X86563960Y-28943350D01*
X86554674Y-28946673D01*
X86545107Y-28949069D01*
X86535351Y-28950516D01*
X86525500Y-28951000D01*
X85149500Y-28951000D01*
X85139649Y-28950516D01*
X85129893Y-28949069D01*
X85120326Y-28946673D01*
X85111040Y-28943350D01*
X85102125Y-28939133D01*
X85093665Y-28934063D01*
X85085743Y-28928188D01*
X85078436Y-28921564D01*
X85071812Y-28914257D01*
X85065937Y-28906335D01*
X85060867Y-28897875D01*
X85056650Y-28888960D01*
X85053327Y-28879674D01*
X85050931Y-28870107D01*
X85049484Y-28860351D01*
X85049000Y-28850500D01*
X85049000Y-28649500D01*
X85049484Y-28639649D01*
X85050931Y-28629893D01*
X85053327Y-28620326D01*
X85056650Y-28611040D01*
X85060867Y-28602125D01*
X85065937Y-28593665D01*
X85071812Y-28585743D01*
X85078436Y-28578436D01*
X85085743Y-28571812D01*
X85093665Y-28565937D01*
X85102125Y-28560867D01*
X85111040Y-28556650D01*
X85120326Y-28553327D01*
X85129893Y-28550931D01*
X85139649Y-28549484D01*
X85149500Y-28549000D01*
X86525500Y-28549000D01*
X86535351Y-28549484D01*
G37*
G36*
X87360351Y-26549484D02*
G01*
X87370107Y-26550931D01*
X87379674Y-26553327D01*
X87388960Y-26556650D01*
X87397875Y-26560867D01*
X87406335Y-26565937D01*
X87414257Y-26571812D01*
X87421564Y-26578436D01*
X87428188Y-26585743D01*
X87434063Y-26593665D01*
X87439133Y-26602125D01*
X87443350Y-26611040D01*
X87446673Y-26620326D01*
X87449069Y-26629893D01*
X87450516Y-26639649D01*
X87451000Y-26649500D01*
X87451000Y-28025500D01*
X87450516Y-28035351D01*
X87449069Y-28045107D01*
X87446673Y-28054674D01*
X87443350Y-28063960D01*
X87439133Y-28072875D01*
X87434063Y-28081335D01*
X87428188Y-28089257D01*
X87421564Y-28096564D01*
X87414257Y-28103188D01*
X87406335Y-28109063D01*
X87397875Y-28114133D01*
X87388960Y-28118350D01*
X87379674Y-28121673D01*
X87370107Y-28124069D01*
X87360351Y-28125516D01*
X87350500Y-28126000D01*
X87149500Y-28126000D01*
X87139649Y-28125516D01*
X87129893Y-28124069D01*
X87120326Y-28121673D01*
X87111040Y-28118350D01*
X87102125Y-28114133D01*
X87093665Y-28109063D01*
X87085743Y-28103188D01*
X87078436Y-28096564D01*
X87071812Y-28089257D01*
X87065937Y-28081335D01*
X87060867Y-28072875D01*
X87056650Y-28063960D01*
X87053327Y-28054674D01*
X87050931Y-28045107D01*
X87049484Y-28035351D01*
X87049000Y-28025500D01*
X87049000Y-26649500D01*
X87049484Y-26639649D01*
X87050931Y-26629893D01*
X87053327Y-26620326D01*
X87056650Y-26611040D01*
X87060867Y-26602125D01*
X87065937Y-26593665D01*
X87071812Y-26585743D01*
X87078436Y-26578436D01*
X87085743Y-26571812D01*
X87093665Y-26565937D01*
X87102125Y-26560867D01*
X87111040Y-26556650D01*
X87120326Y-26553327D01*
X87129893Y-26550931D01*
X87139649Y-26549484D01*
X87149500Y-26549000D01*
X87350500Y-26549000D01*
X87360351Y-26549484D01*
G37*
G36*
X87860351Y-26549484D02*
G01*
X87870107Y-26550931D01*
X87879674Y-26553327D01*
X87888960Y-26556650D01*
X87897875Y-26560867D01*
X87906335Y-26565937D01*
X87914257Y-26571812D01*
X87921564Y-26578436D01*
X87928188Y-26585743D01*
X87934063Y-26593665D01*
X87939133Y-26602125D01*
X87943350Y-26611040D01*
X87946673Y-26620326D01*
X87949069Y-26629893D01*
X87950516Y-26639649D01*
X87951000Y-26649500D01*
X87951000Y-28025500D01*
X87950516Y-28035351D01*
X87949069Y-28045107D01*
X87946673Y-28054674D01*
X87943350Y-28063960D01*
X87939133Y-28072875D01*
X87934063Y-28081335D01*
X87928188Y-28089257D01*
X87921564Y-28096564D01*
X87914257Y-28103188D01*
X87906335Y-28109063D01*
X87897875Y-28114133D01*
X87888960Y-28118350D01*
X87879674Y-28121673D01*
X87870107Y-28124069D01*
X87860351Y-28125516D01*
X87850500Y-28126000D01*
X87649500Y-28126000D01*
X87639649Y-28125516D01*
X87629893Y-28124069D01*
X87620326Y-28121673D01*
X87611040Y-28118350D01*
X87602125Y-28114133D01*
X87593665Y-28109063D01*
X87585743Y-28103188D01*
X87578436Y-28096564D01*
X87571812Y-28089257D01*
X87565937Y-28081335D01*
X87560867Y-28072875D01*
X87556650Y-28063960D01*
X87553327Y-28054674D01*
X87550931Y-28045107D01*
X87549484Y-28035351D01*
X87549000Y-28025500D01*
X87549000Y-26649500D01*
X87549484Y-26639649D01*
X87550931Y-26629893D01*
X87553327Y-26620326D01*
X87556650Y-26611040D01*
X87560867Y-26602125D01*
X87565937Y-26593665D01*
X87571812Y-26585743D01*
X87578436Y-26578436D01*
X87585743Y-26571812D01*
X87593665Y-26565937D01*
X87602125Y-26560867D01*
X87611040Y-26556650D01*
X87620326Y-26553327D01*
X87629893Y-26550931D01*
X87639649Y-26549484D01*
X87649500Y-26549000D01*
X87850500Y-26549000D01*
X87860351Y-26549484D01*
G37*
G36*
X88360351Y-26549484D02*
G01*
X88370107Y-26550931D01*
X88379674Y-26553327D01*
X88388960Y-26556650D01*
X88397875Y-26560867D01*
X88406335Y-26565937D01*
X88414257Y-26571812D01*
X88421564Y-26578436D01*
X88428188Y-26585743D01*
X88434063Y-26593665D01*
X88439133Y-26602125D01*
X88443350Y-26611040D01*
X88446673Y-26620326D01*
X88449069Y-26629893D01*
X88450516Y-26639649D01*
X88451000Y-26649500D01*
X88451000Y-28025500D01*
X88450516Y-28035351D01*
X88449069Y-28045107D01*
X88446673Y-28054674D01*
X88443350Y-28063960D01*
X88439133Y-28072875D01*
X88434063Y-28081335D01*
X88428188Y-28089257D01*
X88421564Y-28096564D01*
X88414257Y-28103188D01*
X88406335Y-28109063D01*
X88397875Y-28114133D01*
X88388960Y-28118350D01*
X88379674Y-28121673D01*
X88370107Y-28124069D01*
X88360351Y-28125516D01*
X88350500Y-28126000D01*
X88149500Y-28126000D01*
X88139649Y-28125516D01*
X88129893Y-28124069D01*
X88120326Y-28121673D01*
X88111040Y-28118350D01*
X88102125Y-28114133D01*
X88093665Y-28109063D01*
X88085743Y-28103188D01*
X88078436Y-28096564D01*
X88071812Y-28089257D01*
X88065937Y-28081335D01*
X88060867Y-28072875D01*
X88056650Y-28063960D01*
X88053327Y-28054674D01*
X88050931Y-28045107D01*
X88049484Y-28035351D01*
X88049000Y-28025500D01*
X88049000Y-26649500D01*
X88049484Y-26639649D01*
X88050931Y-26629893D01*
X88053327Y-26620326D01*
X88056650Y-26611040D01*
X88060867Y-26602125D01*
X88065937Y-26593665D01*
X88071812Y-26585743D01*
X88078436Y-26578436D01*
X88085743Y-26571812D01*
X88093665Y-26565937D01*
X88102125Y-26560867D01*
X88111040Y-26556650D01*
X88120326Y-26553327D01*
X88129893Y-26550931D01*
X88139649Y-26549484D01*
X88149500Y-26549000D01*
X88350500Y-26549000D01*
X88360351Y-26549484D01*
G37*
G36*
X88860351Y-26549484D02*
G01*
X88870107Y-26550931D01*
X88879674Y-26553327D01*
X88888960Y-26556650D01*
X88897875Y-26560867D01*
X88906335Y-26565937D01*
X88914257Y-26571812D01*
X88921564Y-26578436D01*
X88928188Y-26585743D01*
X88934063Y-26593665D01*
X88939133Y-26602125D01*
X88943350Y-26611040D01*
X88946673Y-26620326D01*
X88949069Y-26629893D01*
X88950516Y-26639649D01*
X88951000Y-26649500D01*
X88951000Y-28025500D01*
X88950516Y-28035351D01*
X88949069Y-28045107D01*
X88946673Y-28054674D01*
X88943350Y-28063960D01*
X88939133Y-28072875D01*
X88934063Y-28081335D01*
X88928188Y-28089257D01*
X88921564Y-28096564D01*
X88914257Y-28103188D01*
X88906335Y-28109063D01*
X88897875Y-28114133D01*
X88888960Y-28118350D01*
X88879674Y-28121673D01*
X88870107Y-28124069D01*
X88860351Y-28125516D01*
X88850500Y-28126000D01*
X88649500Y-28126000D01*
X88639649Y-28125516D01*
X88629893Y-28124069D01*
X88620326Y-28121673D01*
X88611040Y-28118350D01*
X88602125Y-28114133D01*
X88593665Y-28109063D01*
X88585743Y-28103188D01*
X88578436Y-28096564D01*
X88571812Y-28089257D01*
X88565937Y-28081335D01*
X88560867Y-28072875D01*
X88556650Y-28063960D01*
X88553327Y-28054674D01*
X88550931Y-28045107D01*
X88549484Y-28035351D01*
X88549000Y-28025500D01*
X88549000Y-26649500D01*
X88549484Y-26639649D01*
X88550931Y-26629893D01*
X88553327Y-26620326D01*
X88556650Y-26611040D01*
X88560867Y-26602125D01*
X88565937Y-26593665D01*
X88571812Y-26585743D01*
X88578436Y-26578436D01*
X88585743Y-26571812D01*
X88593665Y-26565937D01*
X88602125Y-26560867D01*
X88611040Y-26556650D01*
X88620326Y-26553327D01*
X88629893Y-26550931D01*
X88639649Y-26549484D01*
X88649500Y-26549000D01*
X88850500Y-26549000D01*
X88860351Y-26549484D01*
G37*
G36*
X89360351Y-26549484D02*
G01*
X89370107Y-26550931D01*
X89379674Y-26553327D01*
X89388960Y-26556650D01*
X89397875Y-26560867D01*
X89406335Y-26565937D01*
X89414257Y-26571812D01*
X89421564Y-26578436D01*
X89428188Y-26585743D01*
X89434063Y-26593665D01*
X89439133Y-26602125D01*
X89443350Y-26611040D01*
X89446673Y-26620326D01*
X89449069Y-26629893D01*
X89450516Y-26639649D01*
X89451000Y-26649500D01*
X89451000Y-28025500D01*
X89450516Y-28035351D01*
X89449069Y-28045107D01*
X89446673Y-28054674D01*
X89443350Y-28063960D01*
X89439133Y-28072875D01*
X89434063Y-28081335D01*
X89428188Y-28089257D01*
X89421564Y-28096564D01*
X89414257Y-28103188D01*
X89406335Y-28109063D01*
X89397875Y-28114133D01*
X89388960Y-28118350D01*
X89379674Y-28121673D01*
X89370107Y-28124069D01*
X89360351Y-28125516D01*
X89350500Y-28126000D01*
X89149500Y-28126000D01*
X89139649Y-28125516D01*
X89129893Y-28124069D01*
X89120326Y-28121673D01*
X89111040Y-28118350D01*
X89102125Y-28114133D01*
X89093665Y-28109063D01*
X89085743Y-28103188D01*
X89078436Y-28096564D01*
X89071812Y-28089257D01*
X89065937Y-28081335D01*
X89060867Y-28072875D01*
X89056650Y-28063960D01*
X89053327Y-28054674D01*
X89050931Y-28045107D01*
X89049484Y-28035351D01*
X89049000Y-28025500D01*
X89049000Y-26649500D01*
X89049484Y-26639649D01*
X89050931Y-26629893D01*
X89053327Y-26620326D01*
X89056650Y-26611040D01*
X89060867Y-26602125D01*
X89065937Y-26593665D01*
X89071812Y-26585743D01*
X89078436Y-26578436D01*
X89085743Y-26571812D01*
X89093665Y-26565937D01*
X89102125Y-26560867D01*
X89111040Y-26556650D01*
X89120326Y-26553327D01*
X89129893Y-26550931D01*
X89139649Y-26549484D01*
X89149500Y-26549000D01*
X89350500Y-26549000D01*
X89360351Y-26549484D01*
G37*
G36*
X89860351Y-26549484D02*
G01*
X89870107Y-26550931D01*
X89879674Y-26553327D01*
X89888960Y-26556650D01*
X89897875Y-26560867D01*
X89906335Y-26565937D01*
X89914257Y-26571812D01*
X89921564Y-26578436D01*
X89928188Y-26585743D01*
X89934063Y-26593665D01*
X89939133Y-26602125D01*
X89943350Y-26611040D01*
X89946673Y-26620326D01*
X89949069Y-26629893D01*
X89950516Y-26639649D01*
X89951000Y-26649500D01*
X89951000Y-28025500D01*
X89950516Y-28035351D01*
X89949069Y-28045107D01*
X89946673Y-28054674D01*
X89943350Y-28063960D01*
X89939133Y-28072875D01*
X89934063Y-28081335D01*
X89928188Y-28089257D01*
X89921564Y-28096564D01*
X89914257Y-28103188D01*
X89906335Y-28109063D01*
X89897875Y-28114133D01*
X89888960Y-28118350D01*
X89879674Y-28121673D01*
X89870107Y-28124069D01*
X89860351Y-28125516D01*
X89850500Y-28126000D01*
X89649500Y-28126000D01*
X89639649Y-28125516D01*
X89629893Y-28124069D01*
X89620326Y-28121673D01*
X89611040Y-28118350D01*
X89602125Y-28114133D01*
X89593665Y-28109063D01*
X89585743Y-28103188D01*
X89578436Y-28096564D01*
X89571812Y-28089257D01*
X89565937Y-28081335D01*
X89560867Y-28072875D01*
X89556650Y-28063960D01*
X89553327Y-28054674D01*
X89550931Y-28045107D01*
X89549484Y-28035351D01*
X89549000Y-28025500D01*
X89549000Y-26649500D01*
X89549484Y-26639649D01*
X89550931Y-26629893D01*
X89553327Y-26620326D01*
X89556650Y-26611040D01*
X89560867Y-26602125D01*
X89565937Y-26593665D01*
X89571812Y-26585743D01*
X89578436Y-26578436D01*
X89585743Y-26571812D01*
X89593665Y-26565937D01*
X89602125Y-26560867D01*
X89611040Y-26556650D01*
X89620326Y-26553327D01*
X89629893Y-26550931D01*
X89639649Y-26549484D01*
X89649500Y-26549000D01*
X89850500Y-26549000D01*
X89860351Y-26549484D01*
G37*
G36*
X90360351Y-26549484D02*
G01*
X90370107Y-26550931D01*
X90379674Y-26553327D01*
X90388960Y-26556650D01*
X90397875Y-26560867D01*
X90406335Y-26565937D01*
X90414257Y-26571812D01*
X90421564Y-26578436D01*
X90428188Y-26585743D01*
X90434063Y-26593665D01*
X90439133Y-26602125D01*
X90443350Y-26611040D01*
X90446673Y-26620326D01*
X90449069Y-26629893D01*
X90450516Y-26639649D01*
X90451000Y-26649500D01*
X90451000Y-28025500D01*
X90450516Y-28035351D01*
X90449069Y-28045107D01*
X90446673Y-28054674D01*
X90443350Y-28063960D01*
X90439133Y-28072875D01*
X90434063Y-28081335D01*
X90428188Y-28089257D01*
X90421564Y-28096564D01*
X90414257Y-28103188D01*
X90406335Y-28109063D01*
X90397875Y-28114133D01*
X90388960Y-28118350D01*
X90379674Y-28121673D01*
X90370107Y-28124069D01*
X90360351Y-28125516D01*
X90350500Y-28126000D01*
X90149500Y-28126000D01*
X90139649Y-28125516D01*
X90129893Y-28124069D01*
X90120326Y-28121673D01*
X90111040Y-28118350D01*
X90102125Y-28114133D01*
X90093665Y-28109063D01*
X90085743Y-28103188D01*
X90078436Y-28096564D01*
X90071812Y-28089257D01*
X90065937Y-28081335D01*
X90060867Y-28072875D01*
X90056650Y-28063960D01*
X90053327Y-28054674D01*
X90050931Y-28045107D01*
X90049484Y-28035351D01*
X90049000Y-28025500D01*
X90049000Y-26649500D01*
X90049484Y-26639649D01*
X90050931Y-26629893D01*
X90053327Y-26620326D01*
X90056650Y-26611040D01*
X90060867Y-26602125D01*
X90065937Y-26593665D01*
X90071812Y-26585743D01*
X90078436Y-26578436D01*
X90085743Y-26571812D01*
X90093665Y-26565937D01*
X90102125Y-26560867D01*
X90111040Y-26556650D01*
X90120326Y-26553327D01*
X90129893Y-26550931D01*
X90139649Y-26549484D01*
X90149500Y-26549000D01*
X90350500Y-26549000D01*
X90360351Y-26549484D01*
G37*
G36*
X90860351Y-26549484D02*
G01*
X90870107Y-26550931D01*
X90879674Y-26553327D01*
X90888960Y-26556650D01*
X90897875Y-26560867D01*
X90906335Y-26565937D01*
X90914257Y-26571812D01*
X90921564Y-26578436D01*
X90928188Y-26585743D01*
X90934063Y-26593665D01*
X90939133Y-26602125D01*
X90943350Y-26611040D01*
X90946673Y-26620326D01*
X90949069Y-26629893D01*
X90950516Y-26639649D01*
X90951000Y-26649500D01*
X90951000Y-28025500D01*
X90950516Y-28035351D01*
X90949069Y-28045107D01*
X90946673Y-28054674D01*
X90943350Y-28063960D01*
X90939133Y-28072875D01*
X90934063Y-28081335D01*
X90928188Y-28089257D01*
X90921564Y-28096564D01*
X90914257Y-28103188D01*
X90906335Y-28109063D01*
X90897875Y-28114133D01*
X90888960Y-28118350D01*
X90879674Y-28121673D01*
X90870107Y-28124069D01*
X90860351Y-28125516D01*
X90850500Y-28126000D01*
X90649500Y-28126000D01*
X90639649Y-28125516D01*
X90629893Y-28124069D01*
X90620326Y-28121673D01*
X90611040Y-28118350D01*
X90602125Y-28114133D01*
X90593665Y-28109063D01*
X90585743Y-28103188D01*
X90578436Y-28096564D01*
X90571812Y-28089257D01*
X90565937Y-28081335D01*
X90560867Y-28072875D01*
X90556650Y-28063960D01*
X90553327Y-28054674D01*
X90550931Y-28045107D01*
X90549484Y-28035351D01*
X90549000Y-28025500D01*
X90549000Y-26649500D01*
X90549484Y-26639649D01*
X90550931Y-26629893D01*
X90553327Y-26620326D01*
X90556650Y-26611040D01*
X90560867Y-26602125D01*
X90565937Y-26593665D01*
X90571812Y-26585743D01*
X90578436Y-26578436D01*
X90585743Y-26571812D01*
X90593665Y-26565937D01*
X90602125Y-26560867D01*
X90611040Y-26556650D01*
X90620326Y-26553327D01*
X90629893Y-26550931D01*
X90639649Y-26549484D01*
X90649500Y-26549000D01*
X90850500Y-26549000D01*
X90860351Y-26549484D01*
G37*
G36*
X91360351Y-26549484D02*
G01*
X91370107Y-26550931D01*
X91379674Y-26553327D01*
X91388960Y-26556650D01*
X91397875Y-26560867D01*
X91406335Y-26565937D01*
X91414257Y-26571812D01*
X91421564Y-26578436D01*
X91428188Y-26585743D01*
X91434063Y-26593665D01*
X91439133Y-26602125D01*
X91443350Y-26611040D01*
X91446673Y-26620326D01*
X91449069Y-26629893D01*
X91450516Y-26639649D01*
X91451000Y-26649500D01*
X91451000Y-28025500D01*
X91450516Y-28035351D01*
X91449069Y-28045107D01*
X91446673Y-28054674D01*
X91443350Y-28063960D01*
X91439133Y-28072875D01*
X91434063Y-28081335D01*
X91428188Y-28089257D01*
X91421564Y-28096564D01*
X91414257Y-28103188D01*
X91406335Y-28109063D01*
X91397875Y-28114133D01*
X91388960Y-28118350D01*
X91379674Y-28121673D01*
X91370107Y-28124069D01*
X91360351Y-28125516D01*
X91350500Y-28126000D01*
X91149500Y-28126000D01*
X91139649Y-28125516D01*
X91129893Y-28124069D01*
X91120326Y-28121673D01*
X91111040Y-28118350D01*
X91102125Y-28114133D01*
X91093665Y-28109063D01*
X91085743Y-28103188D01*
X91078436Y-28096564D01*
X91071812Y-28089257D01*
X91065937Y-28081335D01*
X91060867Y-28072875D01*
X91056650Y-28063960D01*
X91053327Y-28054674D01*
X91050931Y-28045107D01*
X91049484Y-28035351D01*
X91049000Y-28025500D01*
X91049000Y-26649500D01*
X91049484Y-26639649D01*
X91050931Y-26629893D01*
X91053327Y-26620326D01*
X91056650Y-26611040D01*
X91060867Y-26602125D01*
X91065937Y-26593665D01*
X91071812Y-26585743D01*
X91078436Y-26578436D01*
X91085743Y-26571812D01*
X91093665Y-26565937D01*
X91102125Y-26560867D01*
X91111040Y-26556650D01*
X91120326Y-26553327D01*
X91129893Y-26550931D01*
X91139649Y-26549484D01*
X91149500Y-26549000D01*
X91350500Y-26549000D01*
X91360351Y-26549484D01*
G37*
G36*
X91860351Y-26549484D02*
G01*
X91870107Y-26550931D01*
X91879674Y-26553327D01*
X91888960Y-26556650D01*
X91897875Y-26560867D01*
X91906335Y-26565937D01*
X91914257Y-26571812D01*
X91921564Y-26578436D01*
X91928188Y-26585743D01*
X91934063Y-26593665D01*
X91939133Y-26602125D01*
X91943350Y-26611040D01*
X91946673Y-26620326D01*
X91949069Y-26629893D01*
X91950516Y-26639649D01*
X91951000Y-26649500D01*
X91951000Y-28025500D01*
X91950516Y-28035351D01*
X91949069Y-28045107D01*
X91946673Y-28054674D01*
X91943350Y-28063960D01*
X91939133Y-28072875D01*
X91934063Y-28081335D01*
X91928188Y-28089257D01*
X91921564Y-28096564D01*
X91914257Y-28103188D01*
X91906335Y-28109063D01*
X91897875Y-28114133D01*
X91888960Y-28118350D01*
X91879674Y-28121673D01*
X91870107Y-28124069D01*
X91860351Y-28125516D01*
X91850500Y-28126000D01*
X91649500Y-28126000D01*
X91639649Y-28125516D01*
X91629893Y-28124069D01*
X91620326Y-28121673D01*
X91611040Y-28118350D01*
X91602125Y-28114133D01*
X91593665Y-28109063D01*
X91585743Y-28103188D01*
X91578436Y-28096564D01*
X91571812Y-28089257D01*
X91565937Y-28081335D01*
X91560867Y-28072875D01*
X91556650Y-28063960D01*
X91553327Y-28054674D01*
X91550931Y-28045107D01*
X91549484Y-28035351D01*
X91549000Y-28025500D01*
X91549000Y-26649500D01*
X91549484Y-26639649D01*
X91550931Y-26629893D01*
X91553327Y-26620326D01*
X91556650Y-26611040D01*
X91560867Y-26602125D01*
X91565937Y-26593665D01*
X91571812Y-26585743D01*
X91578436Y-26578436D01*
X91585743Y-26571812D01*
X91593665Y-26565937D01*
X91602125Y-26560867D01*
X91611040Y-26556650D01*
X91620326Y-26553327D01*
X91629893Y-26550931D01*
X91639649Y-26549484D01*
X91649500Y-26549000D01*
X91850500Y-26549000D01*
X91860351Y-26549484D01*
G37*
G36*
X92360351Y-26549484D02*
G01*
X92370107Y-26550931D01*
X92379674Y-26553327D01*
X92388960Y-26556650D01*
X92397875Y-26560867D01*
X92406335Y-26565937D01*
X92414257Y-26571812D01*
X92421564Y-26578436D01*
X92428188Y-26585743D01*
X92434063Y-26593665D01*
X92439133Y-26602125D01*
X92443350Y-26611040D01*
X92446673Y-26620326D01*
X92449069Y-26629893D01*
X92450516Y-26639649D01*
X92451000Y-26649500D01*
X92451000Y-28025500D01*
X92450516Y-28035351D01*
X92449069Y-28045107D01*
X92446673Y-28054674D01*
X92443350Y-28063960D01*
X92439133Y-28072875D01*
X92434063Y-28081335D01*
X92428188Y-28089257D01*
X92421564Y-28096564D01*
X92414257Y-28103188D01*
X92406335Y-28109063D01*
X92397875Y-28114133D01*
X92388960Y-28118350D01*
X92379674Y-28121673D01*
X92370107Y-28124069D01*
X92360351Y-28125516D01*
X92350500Y-28126000D01*
X92149500Y-28126000D01*
X92139649Y-28125516D01*
X92129893Y-28124069D01*
X92120326Y-28121673D01*
X92111040Y-28118350D01*
X92102125Y-28114133D01*
X92093665Y-28109063D01*
X92085743Y-28103188D01*
X92078436Y-28096564D01*
X92071812Y-28089257D01*
X92065937Y-28081335D01*
X92060867Y-28072875D01*
X92056650Y-28063960D01*
X92053327Y-28054674D01*
X92050931Y-28045107D01*
X92049484Y-28035351D01*
X92049000Y-28025500D01*
X92049000Y-26649500D01*
X92049484Y-26639649D01*
X92050931Y-26629893D01*
X92053327Y-26620326D01*
X92056650Y-26611040D01*
X92060867Y-26602125D01*
X92065937Y-26593665D01*
X92071812Y-26585743D01*
X92078436Y-26578436D01*
X92085743Y-26571812D01*
X92093665Y-26565937D01*
X92102125Y-26560867D01*
X92111040Y-26556650D01*
X92120326Y-26553327D01*
X92129893Y-26550931D01*
X92139649Y-26549484D01*
X92149500Y-26549000D01*
X92350500Y-26549000D01*
X92360351Y-26549484D01*
G37*
G36*
X92860351Y-26549484D02*
G01*
X92870107Y-26550931D01*
X92879674Y-26553327D01*
X92888960Y-26556650D01*
X92897875Y-26560867D01*
X92906335Y-26565937D01*
X92914257Y-26571812D01*
X92921564Y-26578436D01*
X92928188Y-26585743D01*
X92934063Y-26593665D01*
X92939133Y-26602125D01*
X92943350Y-26611040D01*
X92946673Y-26620326D01*
X92949069Y-26629893D01*
X92950516Y-26639649D01*
X92951000Y-26649500D01*
X92951000Y-28025500D01*
X92950516Y-28035351D01*
X92949069Y-28045107D01*
X92946673Y-28054674D01*
X92943350Y-28063960D01*
X92939133Y-28072875D01*
X92934063Y-28081335D01*
X92928188Y-28089257D01*
X92921564Y-28096564D01*
X92914257Y-28103188D01*
X92906335Y-28109063D01*
X92897875Y-28114133D01*
X92888960Y-28118350D01*
X92879674Y-28121673D01*
X92870107Y-28124069D01*
X92860351Y-28125516D01*
X92850500Y-28126000D01*
X92649500Y-28126000D01*
X92639649Y-28125516D01*
X92629893Y-28124069D01*
X92620326Y-28121673D01*
X92611040Y-28118350D01*
X92602125Y-28114133D01*
X92593665Y-28109063D01*
X92585743Y-28103188D01*
X92578436Y-28096564D01*
X92571812Y-28089257D01*
X92565937Y-28081335D01*
X92560867Y-28072875D01*
X92556650Y-28063960D01*
X92553327Y-28054674D01*
X92550931Y-28045107D01*
X92549484Y-28035351D01*
X92549000Y-28025500D01*
X92549000Y-26649500D01*
X92549484Y-26639649D01*
X92550931Y-26629893D01*
X92553327Y-26620326D01*
X92556650Y-26611040D01*
X92560867Y-26602125D01*
X92565937Y-26593665D01*
X92571812Y-26585743D01*
X92578436Y-26578436D01*
X92585743Y-26571812D01*
X92593665Y-26565937D01*
X92602125Y-26560867D01*
X92611040Y-26556650D01*
X92620326Y-26553327D01*
X92629893Y-26550931D01*
X92639649Y-26549484D01*
X92649500Y-26549000D01*
X92850500Y-26549000D01*
X92860351Y-26549484D01*
G37*
G36*
X94860351Y-28549484D02*
G01*
X94870107Y-28550931D01*
X94879674Y-28553327D01*
X94888960Y-28556650D01*
X94897875Y-28560867D01*
X94906335Y-28565937D01*
X94914257Y-28571812D01*
X94921564Y-28578436D01*
X94928188Y-28585743D01*
X94934063Y-28593665D01*
X94939133Y-28602125D01*
X94943350Y-28611040D01*
X94946673Y-28620326D01*
X94949069Y-28629893D01*
X94950516Y-28639649D01*
X94951000Y-28649500D01*
X94951000Y-28850500D01*
X94950516Y-28860351D01*
X94949069Y-28870107D01*
X94946673Y-28879674D01*
X94943350Y-28888960D01*
X94939133Y-28897875D01*
X94934063Y-28906335D01*
X94928188Y-28914257D01*
X94921564Y-28921564D01*
X94914257Y-28928188D01*
X94906335Y-28934063D01*
X94897875Y-28939133D01*
X94888960Y-28943350D01*
X94879674Y-28946673D01*
X94870107Y-28949069D01*
X94860351Y-28950516D01*
X94850500Y-28951000D01*
X93474500Y-28951000D01*
X93464649Y-28950516D01*
X93454893Y-28949069D01*
X93445326Y-28946673D01*
X93436040Y-28943350D01*
X93427125Y-28939133D01*
X93418665Y-28934063D01*
X93410743Y-28928188D01*
X93403436Y-28921564D01*
X93396812Y-28914257D01*
X93390937Y-28906335D01*
X93385867Y-28897875D01*
X93381650Y-28888960D01*
X93378327Y-28879674D01*
X93375931Y-28870107D01*
X93374484Y-28860351D01*
X93374000Y-28850500D01*
X93374000Y-28649500D01*
X93374484Y-28639649D01*
X93375931Y-28629893D01*
X93378327Y-28620326D01*
X93381650Y-28611040D01*
X93385867Y-28602125D01*
X93390937Y-28593665D01*
X93396812Y-28585743D01*
X93403436Y-28578436D01*
X93410743Y-28571812D01*
X93418665Y-28565937D01*
X93427125Y-28560867D01*
X93436040Y-28556650D01*
X93445326Y-28553327D01*
X93454893Y-28550931D01*
X93464649Y-28549484D01*
X93474500Y-28549000D01*
X94850500Y-28549000D01*
X94860351Y-28549484D01*
G37*
G36*
X94860351Y-29049484D02*
G01*
X94870107Y-29050931D01*
X94879674Y-29053327D01*
X94888960Y-29056650D01*
X94897875Y-29060867D01*
X94906335Y-29065937D01*
X94914257Y-29071812D01*
X94921564Y-29078436D01*
X94928188Y-29085743D01*
X94934063Y-29093665D01*
X94939133Y-29102125D01*
X94943350Y-29111040D01*
X94946673Y-29120326D01*
X94949069Y-29129893D01*
X94950516Y-29139649D01*
X94951000Y-29149500D01*
X94951000Y-29350500D01*
X94950516Y-29360351D01*
X94949069Y-29370107D01*
X94946673Y-29379674D01*
X94943350Y-29388960D01*
X94939133Y-29397875D01*
X94934063Y-29406335D01*
X94928188Y-29414257D01*
X94921564Y-29421564D01*
X94914257Y-29428188D01*
X94906335Y-29434063D01*
X94897875Y-29439133D01*
X94888960Y-29443350D01*
X94879674Y-29446673D01*
X94870107Y-29449069D01*
X94860351Y-29450516D01*
X94850500Y-29451000D01*
X93474500Y-29451000D01*
X93464649Y-29450516D01*
X93454893Y-29449069D01*
X93445326Y-29446673D01*
X93436040Y-29443350D01*
X93427125Y-29439133D01*
X93418665Y-29434063D01*
X93410743Y-29428188D01*
X93403436Y-29421564D01*
X93396812Y-29414257D01*
X93390937Y-29406335D01*
X93385867Y-29397875D01*
X93381650Y-29388960D01*
X93378327Y-29379674D01*
X93375931Y-29370107D01*
X93374484Y-29360351D01*
X93374000Y-29350500D01*
X93374000Y-29149500D01*
X93374484Y-29139649D01*
X93375931Y-29129893D01*
X93378327Y-29120326D01*
X93381650Y-29111040D01*
X93385867Y-29102125D01*
X93390937Y-29093665D01*
X93396812Y-29085743D01*
X93403436Y-29078436D01*
X93410743Y-29071812D01*
X93418665Y-29065937D01*
X93427125Y-29060867D01*
X93436040Y-29056650D01*
X93445326Y-29053327D01*
X93454893Y-29050931D01*
X93464649Y-29049484D01*
X93474500Y-29049000D01*
X94850500Y-29049000D01*
X94860351Y-29049484D01*
G37*
G36*
X94860351Y-29549484D02*
G01*
X94870107Y-29550931D01*
X94879674Y-29553327D01*
X94888960Y-29556650D01*
X94897875Y-29560867D01*
X94906335Y-29565937D01*
X94914257Y-29571812D01*
X94921564Y-29578436D01*
X94928188Y-29585743D01*
X94934063Y-29593665D01*
X94939133Y-29602125D01*
X94943350Y-29611040D01*
X94946673Y-29620326D01*
X94949069Y-29629893D01*
X94950516Y-29639649D01*
X94951000Y-29649500D01*
X94951000Y-29850500D01*
X94950516Y-29860351D01*
X94949069Y-29870107D01*
X94946673Y-29879674D01*
X94943350Y-29888960D01*
X94939133Y-29897875D01*
X94934063Y-29906335D01*
X94928188Y-29914257D01*
X94921564Y-29921564D01*
X94914257Y-29928188D01*
X94906335Y-29934063D01*
X94897875Y-29939133D01*
X94888960Y-29943350D01*
X94879674Y-29946673D01*
X94870107Y-29949069D01*
X94860351Y-29950516D01*
X94850500Y-29951000D01*
X93474500Y-29951000D01*
X93464649Y-29950516D01*
X93454893Y-29949069D01*
X93445326Y-29946673D01*
X93436040Y-29943350D01*
X93427125Y-29939133D01*
X93418665Y-29934063D01*
X93410743Y-29928188D01*
X93403436Y-29921564D01*
X93396812Y-29914257D01*
X93390937Y-29906335D01*
X93385867Y-29897875D01*
X93381650Y-29888960D01*
X93378327Y-29879674D01*
X93375931Y-29870107D01*
X93374484Y-29860351D01*
X93374000Y-29850500D01*
X93374000Y-29649500D01*
X93374484Y-29639649D01*
X93375931Y-29629893D01*
X93378327Y-29620326D01*
X93381650Y-29611040D01*
X93385867Y-29602125D01*
X93390937Y-29593665D01*
X93396812Y-29585743D01*
X93403436Y-29578436D01*
X93410743Y-29571812D01*
X93418665Y-29565937D01*
X93427125Y-29560867D01*
X93436040Y-29556650D01*
X93445326Y-29553327D01*
X93454893Y-29550931D01*
X93464649Y-29549484D01*
X93474500Y-29549000D01*
X94850500Y-29549000D01*
X94860351Y-29549484D01*
G37*
G36*
X94860351Y-30049484D02*
G01*
X94870107Y-30050931D01*
X94879674Y-30053327D01*
X94888960Y-30056650D01*
X94897875Y-30060867D01*
X94906335Y-30065937D01*
X94914257Y-30071812D01*
X94921564Y-30078436D01*
X94928188Y-30085743D01*
X94934063Y-30093665D01*
X94939133Y-30102125D01*
X94943350Y-30111040D01*
X94946673Y-30120326D01*
X94949069Y-30129893D01*
X94950516Y-30139649D01*
X94951000Y-30149500D01*
X94951000Y-30350500D01*
X94950516Y-30360351D01*
X94949069Y-30370107D01*
X94946673Y-30379674D01*
X94943350Y-30388960D01*
X94939133Y-30397875D01*
X94934063Y-30406335D01*
X94928188Y-30414257D01*
X94921564Y-30421564D01*
X94914257Y-30428188D01*
X94906335Y-30434063D01*
X94897875Y-30439133D01*
X94888960Y-30443350D01*
X94879674Y-30446673D01*
X94870107Y-30449069D01*
X94860351Y-30450516D01*
X94850500Y-30451000D01*
X93474500Y-30451000D01*
X93464649Y-30450516D01*
X93454893Y-30449069D01*
X93445326Y-30446673D01*
X93436040Y-30443350D01*
X93427125Y-30439133D01*
X93418665Y-30434063D01*
X93410743Y-30428188D01*
X93403436Y-30421564D01*
X93396812Y-30414257D01*
X93390937Y-30406335D01*
X93385867Y-30397875D01*
X93381650Y-30388960D01*
X93378327Y-30379674D01*
X93375931Y-30370107D01*
X93374484Y-30360351D01*
X93374000Y-30350500D01*
X93374000Y-30149500D01*
X93374484Y-30139649D01*
X93375931Y-30129893D01*
X93378327Y-30120326D01*
X93381650Y-30111040D01*
X93385867Y-30102125D01*
X93390937Y-30093665D01*
X93396812Y-30085743D01*
X93403436Y-30078436D01*
X93410743Y-30071812D01*
X93418665Y-30065937D01*
X93427125Y-30060867D01*
X93436040Y-30056650D01*
X93445326Y-30053327D01*
X93454893Y-30050931D01*
X93464649Y-30049484D01*
X93474500Y-30049000D01*
X94850500Y-30049000D01*
X94860351Y-30049484D01*
G37*
G36*
X94860351Y-30549484D02*
G01*
X94870107Y-30550931D01*
X94879674Y-30553327D01*
X94888960Y-30556650D01*
X94897875Y-30560867D01*
X94906335Y-30565937D01*
X94914257Y-30571812D01*
X94921564Y-30578436D01*
X94928188Y-30585743D01*
X94934063Y-30593665D01*
X94939133Y-30602125D01*
X94943350Y-30611040D01*
X94946673Y-30620326D01*
X94949069Y-30629893D01*
X94950516Y-30639649D01*
X94951000Y-30649500D01*
X94951000Y-30850500D01*
X94950516Y-30860351D01*
X94949069Y-30870107D01*
X94946673Y-30879674D01*
X94943350Y-30888960D01*
X94939133Y-30897875D01*
X94934063Y-30906335D01*
X94928188Y-30914257D01*
X94921564Y-30921564D01*
X94914257Y-30928188D01*
X94906335Y-30934063D01*
X94897875Y-30939133D01*
X94888960Y-30943350D01*
X94879674Y-30946673D01*
X94870107Y-30949069D01*
X94860351Y-30950516D01*
X94850500Y-30951000D01*
X93474500Y-30951000D01*
X93464649Y-30950516D01*
X93454893Y-30949069D01*
X93445326Y-30946673D01*
X93436040Y-30943350D01*
X93427125Y-30939133D01*
X93418665Y-30934063D01*
X93410743Y-30928188D01*
X93403436Y-30921564D01*
X93396812Y-30914257D01*
X93390937Y-30906335D01*
X93385867Y-30897875D01*
X93381650Y-30888960D01*
X93378327Y-30879674D01*
X93375931Y-30870107D01*
X93374484Y-30860351D01*
X93374000Y-30850500D01*
X93374000Y-30649500D01*
X93374484Y-30639649D01*
X93375931Y-30629893D01*
X93378327Y-30620326D01*
X93381650Y-30611040D01*
X93385867Y-30602125D01*
X93390937Y-30593665D01*
X93396812Y-30585743D01*
X93403436Y-30578436D01*
X93410743Y-30571812D01*
X93418665Y-30565937D01*
X93427125Y-30560867D01*
X93436040Y-30556650D01*
X93445326Y-30553327D01*
X93454893Y-30550931D01*
X93464649Y-30549484D01*
X93474500Y-30549000D01*
X94850500Y-30549000D01*
X94860351Y-30549484D01*
G37*
G36*
X94860351Y-31049484D02*
G01*
X94870107Y-31050931D01*
X94879674Y-31053327D01*
X94888960Y-31056650D01*
X94897875Y-31060867D01*
X94906335Y-31065937D01*
X94914257Y-31071812D01*
X94921564Y-31078436D01*
X94928188Y-31085743D01*
X94934063Y-31093665D01*
X94939133Y-31102125D01*
X94943350Y-31111040D01*
X94946673Y-31120326D01*
X94949069Y-31129893D01*
X94950516Y-31139649D01*
X94951000Y-31149500D01*
X94951000Y-31350500D01*
X94950516Y-31360351D01*
X94949069Y-31370107D01*
X94946673Y-31379674D01*
X94943350Y-31388960D01*
X94939133Y-31397875D01*
X94934063Y-31406335D01*
X94928188Y-31414257D01*
X94921564Y-31421564D01*
X94914257Y-31428188D01*
X94906335Y-31434063D01*
X94897875Y-31439133D01*
X94888960Y-31443350D01*
X94879674Y-31446673D01*
X94870107Y-31449069D01*
X94860351Y-31450516D01*
X94850500Y-31451000D01*
X93474500Y-31451000D01*
X93464649Y-31450516D01*
X93454893Y-31449069D01*
X93445326Y-31446673D01*
X93436040Y-31443350D01*
X93427125Y-31439133D01*
X93418665Y-31434063D01*
X93410743Y-31428188D01*
X93403436Y-31421564D01*
X93396812Y-31414257D01*
X93390937Y-31406335D01*
X93385867Y-31397875D01*
X93381650Y-31388960D01*
X93378327Y-31379674D01*
X93375931Y-31370107D01*
X93374484Y-31360351D01*
X93374000Y-31350500D01*
X93374000Y-31149500D01*
X93374484Y-31139649D01*
X93375931Y-31129893D01*
X93378327Y-31120326D01*
X93381650Y-31111040D01*
X93385867Y-31102125D01*
X93390937Y-31093665D01*
X93396812Y-31085743D01*
X93403436Y-31078436D01*
X93410743Y-31071812D01*
X93418665Y-31065937D01*
X93427125Y-31060867D01*
X93436040Y-31056650D01*
X93445326Y-31053327D01*
X93454893Y-31050931D01*
X93464649Y-31049484D01*
X93474500Y-31049000D01*
X94850500Y-31049000D01*
X94860351Y-31049484D01*
G37*
G36*
X94860351Y-31549484D02*
G01*
X94870107Y-31550931D01*
X94879674Y-31553327D01*
X94888960Y-31556650D01*
X94897875Y-31560867D01*
X94906335Y-31565937D01*
X94914257Y-31571812D01*
X94921564Y-31578436D01*
X94928188Y-31585743D01*
X94934063Y-31593665D01*
X94939133Y-31602125D01*
X94943350Y-31611040D01*
X94946673Y-31620326D01*
X94949069Y-31629893D01*
X94950516Y-31639649D01*
X94951000Y-31649500D01*
X94951000Y-31850500D01*
X94950516Y-31860351D01*
X94949069Y-31870107D01*
X94946673Y-31879674D01*
X94943350Y-31888960D01*
X94939133Y-31897875D01*
X94934063Y-31906335D01*
X94928188Y-31914257D01*
X94921564Y-31921564D01*
X94914257Y-31928188D01*
X94906335Y-31934063D01*
X94897875Y-31939133D01*
X94888960Y-31943350D01*
X94879674Y-31946673D01*
X94870107Y-31949069D01*
X94860351Y-31950516D01*
X94850500Y-31951000D01*
X93474500Y-31951000D01*
X93464649Y-31950516D01*
X93454893Y-31949069D01*
X93445326Y-31946673D01*
X93436040Y-31943350D01*
X93427125Y-31939133D01*
X93418665Y-31934063D01*
X93410743Y-31928188D01*
X93403436Y-31921564D01*
X93396812Y-31914257D01*
X93390937Y-31906335D01*
X93385867Y-31897875D01*
X93381650Y-31888960D01*
X93378327Y-31879674D01*
X93375931Y-31870107D01*
X93374484Y-31860351D01*
X93374000Y-31850500D01*
X93374000Y-31649500D01*
X93374484Y-31639649D01*
X93375931Y-31629893D01*
X93378327Y-31620326D01*
X93381650Y-31611040D01*
X93385867Y-31602125D01*
X93390937Y-31593665D01*
X93396812Y-31585743D01*
X93403436Y-31578436D01*
X93410743Y-31571812D01*
X93418665Y-31565937D01*
X93427125Y-31560867D01*
X93436040Y-31556650D01*
X93445326Y-31553327D01*
X93454893Y-31550931D01*
X93464649Y-31549484D01*
X93474500Y-31549000D01*
X94850500Y-31549000D01*
X94860351Y-31549484D01*
G37*
G36*
X94860351Y-32049484D02*
G01*
X94870107Y-32050931D01*
X94879674Y-32053327D01*
X94888960Y-32056650D01*
X94897875Y-32060867D01*
X94906335Y-32065937D01*
X94914257Y-32071812D01*
X94921564Y-32078436D01*
X94928188Y-32085743D01*
X94934063Y-32093665D01*
X94939133Y-32102125D01*
X94943350Y-32111040D01*
X94946673Y-32120326D01*
X94949069Y-32129893D01*
X94950516Y-32139649D01*
X94951000Y-32149500D01*
X94951000Y-32350500D01*
X94950516Y-32360351D01*
X94949069Y-32370107D01*
X94946673Y-32379674D01*
X94943350Y-32388960D01*
X94939133Y-32397875D01*
X94934063Y-32406335D01*
X94928188Y-32414257D01*
X94921564Y-32421564D01*
X94914257Y-32428188D01*
X94906335Y-32434063D01*
X94897875Y-32439133D01*
X94888960Y-32443350D01*
X94879674Y-32446673D01*
X94870107Y-32449069D01*
X94860351Y-32450516D01*
X94850500Y-32451000D01*
X93474500Y-32451000D01*
X93464649Y-32450516D01*
X93454893Y-32449069D01*
X93445326Y-32446673D01*
X93436040Y-32443350D01*
X93427125Y-32439133D01*
X93418665Y-32434063D01*
X93410743Y-32428188D01*
X93403436Y-32421564D01*
X93396812Y-32414257D01*
X93390937Y-32406335D01*
X93385867Y-32397875D01*
X93381650Y-32388960D01*
X93378327Y-32379674D01*
X93375931Y-32370107D01*
X93374484Y-32360351D01*
X93374000Y-32350500D01*
X93374000Y-32149500D01*
X93374484Y-32139649D01*
X93375931Y-32129893D01*
X93378327Y-32120326D01*
X93381650Y-32111040D01*
X93385867Y-32102125D01*
X93390937Y-32093665D01*
X93396812Y-32085743D01*
X93403436Y-32078436D01*
X93410743Y-32071812D01*
X93418665Y-32065937D01*
X93427125Y-32060867D01*
X93436040Y-32056650D01*
X93445326Y-32053327D01*
X93454893Y-32050931D01*
X93464649Y-32049484D01*
X93474500Y-32049000D01*
X94850500Y-32049000D01*
X94860351Y-32049484D01*
G37*
G36*
X94860351Y-32549484D02*
G01*
X94870107Y-32550931D01*
X94879674Y-32553327D01*
X94888960Y-32556650D01*
X94897875Y-32560867D01*
X94906335Y-32565937D01*
X94914257Y-32571812D01*
X94921564Y-32578436D01*
X94928188Y-32585743D01*
X94934063Y-32593665D01*
X94939133Y-32602125D01*
X94943350Y-32611040D01*
X94946673Y-32620326D01*
X94949069Y-32629893D01*
X94950516Y-32639649D01*
X94951000Y-32649500D01*
X94951000Y-32850500D01*
X94950516Y-32860351D01*
X94949069Y-32870107D01*
X94946673Y-32879674D01*
X94943350Y-32888960D01*
X94939133Y-32897875D01*
X94934063Y-32906335D01*
X94928188Y-32914257D01*
X94921564Y-32921564D01*
X94914257Y-32928188D01*
X94906335Y-32934063D01*
X94897875Y-32939133D01*
X94888960Y-32943350D01*
X94879674Y-32946673D01*
X94870107Y-32949069D01*
X94860351Y-32950516D01*
X94850500Y-32951000D01*
X93474500Y-32951000D01*
X93464649Y-32950516D01*
X93454893Y-32949069D01*
X93445326Y-32946673D01*
X93436040Y-32943350D01*
X93427125Y-32939133D01*
X93418665Y-32934063D01*
X93410743Y-32928188D01*
X93403436Y-32921564D01*
X93396812Y-32914257D01*
X93390937Y-32906335D01*
X93385867Y-32897875D01*
X93381650Y-32888960D01*
X93378327Y-32879674D01*
X93375931Y-32870107D01*
X93374484Y-32860351D01*
X93374000Y-32850500D01*
X93374000Y-32649500D01*
X93374484Y-32639649D01*
X93375931Y-32629893D01*
X93378327Y-32620326D01*
X93381650Y-32611040D01*
X93385867Y-32602125D01*
X93390937Y-32593665D01*
X93396812Y-32585743D01*
X93403436Y-32578436D01*
X93410743Y-32571812D01*
X93418665Y-32565937D01*
X93427125Y-32560867D01*
X93436040Y-32556650D01*
X93445326Y-32553327D01*
X93454893Y-32550931D01*
X93464649Y-32549484D01*
X93474500Y-32549000D01*
X94850500Y-32549000D01*
X94860351Y-32549484D01*
G37*
G36*
X94860351Y-33049484D02*
G01*
X94870107Y-33050931D01*
X94879674Y-33053327D01*
X94888960Y-33056650D01*
X94897875Y-33060867D01*
X94906335Y-33065937D01*
X94914257Y-33071812D01*
X94921564Y-33078436D01*
X94928188Y-33085743D01*
X94934063Y-33093665D01*
X94939133Y-33102125D01*
X94943350Y-33111040D01*
X94946673Y-33120326D01*
X94949069Y-33129893D01*
X94950516Y-33139649D01*
X94951000Y-33149500D01*
X94951000Y-33350500D01*
X94950516Y-33360351D01*
X94949069Y-33370107D01*
X94946673Y-33379674D01*
X94943350Y-33388960D01*
X94939133Y-33397875D01*
X94934063Y-33406335D01*
X94928188Y-33414257D01*
X94921564Y-33421564D01*
X94914257Y-33428188D01*
X94906335Y-33434063D01*
X94897875Y-33439133D01*
X94888960Y-33443350D01*
X94879674Y-33446673D01*
X94870107Y-33449069D01*
X94860351Y-33450516D01*
X94850500Y-33451000D01*
X93474500Y-33451000D01*
X93464649Y-33450516D01*
X93454893Y-33449069D01*
X93445326Y-33446673D01*
X93436040Y-33443350D01*
X93427125Y-33439133D01*
X93418665Y-33434063D01*
X93410743Y-33428188D01*
X93403436Y-33421564D01*
X93396812Y-33414257D01*
X93390937Y-33406335D01*
X93385867Y-33397875D01*
X93381650Y-33388960D01*
X93378327Y-33379674D01*
X93375931Y-33370107D01*
X93374484Y-33360351D01*
X93374000Y-33350500D01*
X93374000Y-33149500D01*
X93374484Y-33139649D01*
X93375931Y-33129893D01*
X93378327Y-33120326D01*
X93381650Y-33111040D01*
X93385867Y-33102125D01*
X93390937Y-33093665D01*
X93396812Y-33085743D01*
X93403436Y-33078436D01*
X93410743Y-33071812D01*
X93418665Y-33065937D01*
X93427125Y-33060867D01*
X93436040Y-33056650D01*
X93445326Y-33053327D01*
X93454893Y-33050931D01*
X93464649Y-33049484D01*
X93474500Y-33049000D01*
X94850500Y-33049000D01*
X94860351Y-33049484D01*
G37*
G36*
X94860351Y-33549484D02*
G01*
X94870107Y-33550931D01*
X94879674Y-33553327D01*
X94888960Y-33556650D01*
X94897875Y-33560867D01*
X94906335Y-33565937D01*
X94914257Y-33571812D01*
X94921564Y-33578436D01*
X94928188Y-33585743D01*
X94934063Y-33593665D01*
X94939133Y-33602125D01*
X94943350Y-33611040D01*
X94946673Y-33620326D01*
X94949069Y-33629893D01*
X94950516Y-33639649D01*
X94951000Y-33649500D01*
X94951000Y-33850500D01*
X94950516Y-33860351D01*
X94949069Y-33870107D01*
X94946673Y-33879674D01*
X94943350Y-33888960D01*
X94939133Y-33897875D01*
X94934063Y-33906335D01*
X94928188Y-33914257D01*
X94921564Y-33921564D01*
X94914257Y-33928188D01*
X94906335Y-33934063D01*
X94897875Y-33939133D01*
X94888960Y-33943350D01*
X94879674Y-33946673D01*
X94870107Y-33949069D01*
X94860351Y-33950516D01*
X94850500Y-33951000D01*
X93474500Y-33951000D01*
X93464649Y-33950516D01*
X93454893Y-33949069D01*
X93445326Y-33946673D01*
X93436040Y-33943350D01*
X93427125Y-33939133D01*
X93418665Y-33934063D01*
X93410743Y-33928188D01*
X93403436Y-33921564D01*
X93396812Y-33914257D01*
X93390937Y-33906335D01*
X93385867Y-33897875D01*
X93381650Y-33888960D01*
X93378327Y-33879674D01*
X93375931Y-33870107D01*
X93374484Y-33860351D01*
X93374000Y-33850500D01*
X93374000Y-33649500D01*
X93374484Y-33639649D01*
X93375931Y-33629893D01*
X93378327Y-33620326D01*
X93381650Y-33611040D01*
X93385867Y-33602125D01*
X93390937Y-33593665D01*
X93396812Y-33585743D01*
X93403436Y-33578436D01*
X93410743Y-33571812D01*
X93418665Y-33565937D01*
X93427125Y-33560867D01*
X93436040Y-33556650D01*
X93445326Y-33553327D01*
X93454893Y-33550931D01*
X93464649Y-33549484D01*
X93474500Y-33549000D01*
X94850500Y-33549000D01*
X94860351Y-33549484D01*
G37*
G36*
X94860351Y-34049484D02*
G01*
X94870107Y-34050931D01*
X94879674Y-34053327D01*
X94888960Y-34056650D01*
X94897875Y-34060867D01*
X94906335Y-34065937D01*
X94914257Y-34071812D01*
X94921564Y-34078436D01*
X94928188Y-34085743D01*
X94934063Y-34093665D01*
X94939133Y-34102125D01*
X94943350Y-34111040D01*
X94946673Y-34120326D01*
X94949069Y-34129893D01*
X94950516Y-34139649D01*
X94951000Y-34149500D01*
X94951000Y-34350500D01*
X94950516Y-34360351D01*
X94949069Y-34370107D01*
X94946673Y-34379674D01*
X94943350Y-34388960D01*
X94939133Y-34397875D01*
X94934063Y-34406335D01*
X94928188Y-34414257D01*
X94921564Y-34421564D01*
X94914257Y-34428188D01*
X94906335Y-34434063D01*
X94897875Y-34439133D01*
X94888960Y-34443350D01*
X94879674Y-34446673D01*
X94870107Y-34449069D01*
X94860351Y-34450516D01*
X94850500Y-34451000D01*
X93474500Y-34451000D01*
X93464649Y-34450516D01*
X93454893Y-34449069D01*
X93445326Y-34446673D01*
X93436040Y-34443350D01*
X93427125Y-34439133D01*
X93418665Y-34434063D01*
X93410743Y-34428188D01*
X93403436Y-34421564D01*
X93396812Y-34414257D01*
X93390937Y-34406335D01*
X93385867Y-34397875D01*
X93381650Y-34388960D01*
X93378327Y-34379674D01*
X93375931Y-34370107D01*
X93374484Y-34360351D01*
X93374000Y-34350500D01*
X93374000Y-34149500D01*
X93374484Y-34139649D01*
X93375931Y-34129893D01*
X93378327Y-34120326D01*
X93381650Y-34111040D01*
X93385867Y-34102125D01*
X93390937Y-34093665D01*
X93396812Y-34085743D01*
X93403436Y-34078436D01*
X93410743Y-34071812D01*
X93418665Y-34065937D01*
X93427125Y-34060867D01*
X93436040Y-34056650D01*
X93445326Y-34053327D01*
X93454893Y-34050931D01*
X93464649Y-34049484D01*
X93474500Y-34049000D01*
X94850500Y-34049000D01*
X94860351Y-34049484D01*
G37*
G36*
X102186232Y-27129773D02*
G01*
X102201812Y-27132084D01*
X102217091Y-27135911D01*
X102231921Y-27141217D01*
X102246159Y-27147952D01*
X102259669Y-27156049D01*
X102272320Y-27165432D01*
X102283991Y-27176009D01*
X102294568Y-27187680D01*
X102303951Y-27200331D01*
X102312048Y-27213841D01*
X102318783Y-27228079D01*
X102324089Y-27242909D01*
X102327916Y-27258188D01*
X102330227Y-27273768D01*
X102331000Y-27289500D01*
X102331000Y-27710500D01*
X102330227Y-27726232D01*
X102327916Y-27741812D01*
X102324089Y-27757091D01*
X102318783Y-27771921D01*
X102312048Y-27786159D01*
X102303951Y-27799669D01*
X102294568Y-27812320D01*
X102283991Y-27823991D01*
X102272320Y-27834568D01*
X102259669Y-27843951D01*
X102246159Y-27852048D01*
X102231921Y-27858783D01*
X102217091Y-27864089D01*
X102201812Y-27867916D01*
X102186232Y-27870227D01*
X102170500Y-27871000D01*
X101849500Y-27871000D01*
X101833768Y-27870227D01*
X101818188Y-27867916D01*
X101802909Y-27864089D01*
X101788079Y-27858783D01*
X101773841Y-27852048D01*
X101760331Y-27843951D01*
X101747680Y-27834568D01*
X101736009Y-27823991D01*
X101725432Y-27812320D01*
X101716049Y-27799669D01*
X101707952Y-27786159D01*
X101701217Y-27771921D01*
X101695911Y-27757091D01*
X101692084Y-27741812D01*
X101689773Y-27726232D01*
X101689000Y-27710500D01*
X101689000Y-27289500D01*
X101689773Y-27273768D01*
X101692084Y-27258188D01*
X101695911Y-27242909D01*
X101701217Y-27228079D01*
X101707952Y-27213841D01*
X101716049Y-27200331D01*
X101725432Y-27187680D01*
X101736009Y-27176009D01*
X101747680Y-27165432D01*
X101760331Y-27156049D01*
X101773841Y-27147952D01*
X101788079Y-27141217D01*
X101802909Y-27135911D01*
X101818188Y-27132084D01*
X101833768Y-27129773D01*
X101849500Y-27129000D01*
X102170500Y-27129000D01*
X102186232Y-27129773D01*
G37*
G36*
X101166232Y-27129773D02*
G01*
X101181812Y-27132084D01*
X101197091Y-27135911D01*
X101211921Y-27141217D01*
X101226159Y-27147952D01*
X101239669Y-27156049D01*
X101252320Y-27165432D01*
X101263991Y-27176009D01*
X101274568Y-27187680D01*
X101283951Y-27200331D01*
X101292048Y-27213841D01*
X101298783Y-27228079D01*
X101304089Y-27242909D01*
X101307916Y-27258188D01*
X101310227Y-27273768D01*
X101311000Y-27289500D01*
X101311000Y-27710500D01*
X101310227Y-27726232D01*
X101307916Y-27741812D01*
X101304089Y-27757091D01*
X101298783Y-27771921D01*
X101292048Y-27786159D01*
X101283951Y-27799669D01*
X101274568Y-27812320D01*
X101263991Y-27823991D01*
X101252320Y-27834568D01*
X101239669Y-27843951D01*
X101226159Y-27852048D01*
X101211921Y-27858783D01*
X101197091Y-27864089D01*
X101181812Y-27867916D01*
X101166232Y-27870227D01*
X101150500Y-27871000D01*
X100829500Y-27871000D01*
X100813768Y-27870227D01*
X100798188Y-27867916D01*
X100782909Y-27864089D01*
X100768079Y-27858783D01*
X100753841Y-27852048D01*
X100740331Y-27843951D01*
X100727680Y-27834568D01*
X100716009Y-27823991D01*
X100705432Y-27812320D01*
X100696049Y-27799669D01*
X100687952Y-27786159D01*
X100681217Y-27771921D01*
X100675911Y-27757091D01*
X100672084Y-27741812D01*
X100669773Y-27726232D01*
X100669000Y-27710500D01*
X100669000Y-27289500D01*
X100669773Y-27273768D01*
X100672084Y-27258188D01*
X100675911Y-27242909D01*
X100681217Y-27228079D01*
X100687952Y-27213841D01*
X100696049Y-27200331D01*
X100705432Y-27187680D01*
X100716009Y-27176009D01*
X100727680Y-27165432D01*
X100740331Y-27156049D01*
X100753841Y-27147952D01*
X100768079Y-27141217D01*
X100782909Y-27135911D01*
X100798188Y-27132084D01*
X100813768Y-27129773D01*
X100829500Y-27129000D01*
X101150500Y-27129000D01*
X101166232Y-27129773D01*
G37*
G36*
X96976232Y-40419773D02*
G01*
X96991812Y-40422084D01*
X97007091Y-40425911D01*
X97021921Y-40431217D01*
X97036159Y-40437952D01*
X97049669Y-40446049D01*
X97062320Y-40455432D01*
X97073991Y-40466009D01*
X97084568Y-40477680D01*
X97093951Y-40490331D01*
X97102048Y-40503841D01*
X97108783Y-40518079D01*
X97114089Y-40532909D01*
X97117916Y-40548188D01*
X97120227Y-40563768D01*
X97121000Y-40579500D01*
X97121000Y-40900500D01*
X97120227Y-40916232D01*
X97117916Y-40931812D01*
X97114089Y-40947091D01*
X97108783Y-40961921D01*
X97102048Y-40976159D01*
X97093951Y-40989669D01*
X97084568Y-41002320D01*
X97073991Y-41013991D01*
X97062320Y-41024568D01*
X97049669Y-41033951D01*
X97036159Y-41042048D01*
X97021921Y-41048783D01*
X97007091Y-41054089D01*
X96991812Y-41057916D01*
X96976232Y-41060227D01*
X96960500Y-41061000D01*
X96539500Y-41061000D01*
X96523768Y-41060227D01*
X96508188Y-41057916D01*
X96492909Y-41054089D01*
X96478079Y-41048783D01*
X96463841Y-41042048D01*
X96450331Y-41033951D01*
X96437680Y-41024568D01*
X96426009Y-41013991D01*
X96415432Y-41002320D01*
X96406049Y-40989669D01*
X96397952Y-40976159D01*
X96391217Y-40961921D01*
X96385911Y-40947091D01*
X96382084Y-40931812D01*
X96379773Y-40916232D01*
X96379000Y-40900500D01*
X96379000Y-40579500D01*
X96379773Y-40563768D01*
X96382084Y-40548188D01*
X96385911Y-40532909D01*
X96391217Y-40518079D01*
X96397952Y-40503841D01*
X96406049Y-40490331D01*
X96415432Y-40477680D01*
X96426009Y-40466009D01*
X96437680Y-40455432D01*
X96450331Y-40446049D01*
X96463841Y-40437952D01*
X96478079Y-40431217D01*
X96492909Y-40425911D01*
X96508188Y-40422084D01*
X96523768Y-40419773D01*
X96539500Y-40419000D01*
X96960500Y-40419000D01*
X96976232Y-40419773D01*
G37*
G36*
X96976232Y-41439773D02*
G01*
X96991812Y-41442084D01*
X97007091Y-41445911D01*
X97021921Y-41451217D01*
X97036159Y-41457952D01*
X97049669Y-41466049D01*
X97062320Y-41475432D01*
X97073991Y-41486009D01*
X97084568Y-41497680D01*
X97093951Y-41510331D01*
X97102048Y-41523841D01*
X97108783Y-41538079D01*
X97114089Y-41552909D01*
X97117916Y-41568188D01*
X97120227Y-41583768D01*
X97121000Y-41599500D01*
X97121000Y-41920500D01*
X97120227Y-41936232D01*
X97117916Y-41951812D01*
X97114089Y-41967091D01*
X97108783Y-41981921D01*
X97102048Y-41996159D01*
X97093951Y-42009669D01*
X97084568Y-42022320D01*
X97073991Y-42033991D01*
X97062320Y-42044568D01*
X97049669Y-42053951D01*
X97036159Y-42062048D01*
X97021921Y-42068783D01*
X97007091Y-42074089D01*
X96991812Y-42077916D01*
X96976232Y-42080227D01*
X96960500Y-42081000D01*
X96539500Y-42081000D01*
X96523768Y-42080227D01*
X96508188Y-42077916D01*
X96492909Y-42074089D01*
X96478079Y-42068783D01*
X96463841Y-42062048D01*
X96450331Y-42053951D01*
X96437680Y-42044568D01*
X96426009Y-42033991D01*
X96415432Y-42022320D01*
X96406049Y-42009669D01*
X96397952Y-41996159D01*
X96391217Y-41981921D01*
X96385911Y-41967091D01*
X96382084Y-41951812D01*
X96379773Y-41936232D01*
X96379000Y-41920500D01*
X96379000Y-41599500D01*
X96379773Y-41583768D01*
X96382084Y-41568188D01*
X96385911Y-41552909D01*
X96391217Y-41538079D01*
X96397952Y-41523841D01*
X96406049Y-41510331D01*
X96415432Y-41497680D01*
X96426009Y-41486009D01*
X96437680Y-41475432D01*
X96450331Y-41466049D01*
X96463841Y-41457952D01*
X96478079Y-41451217D01*
X96492909Y-41445911D01*
X96508188Y-41442084D01*
X96523768Y-41439773D01*
X96539500Y-41439000D01*
X96960500Y-41439000D01*
X96976232Y-41439773D01*
G37*
G36*
X98976232Y-36419773D02*
G01*
X98991812Y-36422084D01*
X99007091Y-36425911D01*
X99021921Y-36431217D01*
X99036159Y-36437952D01*
X99049669Y-36446049D01*
X99062320Y-36455432D01*
X99073991Y-36466009D01*
X99084568Y-36477680D01*
X99093951Y-36490331D01*
X99102048Y-36503841D01*
X99108783Y-36518079D01*
X99114089Y-36532909D01*
X99117916Y-36548188D01*
X99120227Y-36563768D01*
X99121000Y-36579500D01*
X99121000Y-36900500D01*
X99120227Y-36916232D01*
X99117916Y-36931812D01*
X99114089Y-36947091D01*
X99108783Y-36961921D01*
X99102048Y-36976159D01*
X99093951Y-36989669D01*
X99084568Y-37002320D01*
X99073991Y-37013991D01*
X99062320Y-37024568D01*
X99049669Y-37033951D01*
X99036159Y-37042048D01*
X99021921Y-37048783D01*
X99007091Y-37054089D01*
X98991812Y-37057916D01*
X98976232Y-37060227D01*
X98960500Y-37061000D01*
X98539500Y-37061000D01*
X98523768Y-37060227D01*
X98508188Y-37057916D01*
X98492909Y-37054089D01*
X98478079Y-37048783D01*
X98463841Y-37042048D01*
X98450331Y-37033951D01*
X98437680Y-37024568D01*
X98426009Y-37013991D01*
X98415432Y-37002320D01*
X98406049Y-36989669D01*
X98397952Y-36976159D01*
X98391217Y-36961921D01*
X98385911Y-36947091D01*
X98382084Y-36931812D01*
X98379773Y-36916232D01*
X98379000Y-36900500D01*
X98379000Y-36579500D01*
X98379773Y-36563768D01*
X98382084Y-36548188D01*
X98385911Y-36532909D01*
X98391217Y-36518079D01*
X98397952Y-36503841D01*
X98406049Y-36490331D01*
X98415432Y-36477680D01*
X98426009Y-36466009D01*
X98437680Y-36455432D01*
X98450331Y-36446049D01*
X98463841Y-36437952D01*
X98478079Y-36431217D01*
X98492909Y-36425911D01*
X98508188Y-36422084D01*
X98523768Y-36419773D01*
X98539500Y-36419000D01*
X98960500Y-36419000D01*
X98976232Y-36419773D01*
G37*
G36*
X98976232Y-37439773D02*
G01*
X98991812Y-37442084D01*
X99007091Y-37445911D01*
X99021921Y-37451217D01*
X99036159Y-37457952D01*
X99049669Y-37466049D01*
X99062320Y-37475432D01*
X99073991Y-37486009D01*
X99084568Y-37497680D01*
X99093951Y-37510331D01*
X99102048Y-37523841D01*
X99108783Y-37538079D01*
X99114089Y-37552909D01*
X99117916Y-37568188D01*
X99120227Y-37583768D01*
X99121000Y-37599500D01*
X99121000Y-37920500D01*
X99120227Y-37936232D01*
X99117916Y-37951812D01*
X99114089Y-37967091D01*
X99108783Y-37981921D01*
X99102048Y-37996159D01*
X99093951Y-38009669D01*
X99084568Y-38022320D01*
X99073991Y-38033991D01*
X99062320Y-38044568D01*
X99049669Y-38053951D01*
X99036159Y-38062048D01*
X99021921Y-38068783D01*
X99007091Y-38074089D01*
X98991812Y-38077916D01*
X98976232Y-38080227D01*
X98960500Y-38081000D01*
X98539500Y-38081000D01*
X98523768Y-38080227D01*
X98508188Y-38077916D01*
X98492909Y-38074089D01*
X98478079Y-38068783D01*
X98463841Y-38062048D01*
X98450331Y-38053951D01*
X98437680Y-38044568D01*
X98426009Y-38033991D01*
X98415432Y-38022320D01*
X98406049Y-38009669D01*
X98397952Y-37996159D01*
X98391217Y-37981921D01*
X98385911Y-37967091D01*
X98382084Y-37951812D01*
X98379773Y-37936232D01*
X98379000Y-37920500D01*
X98379000Y-37599500D01*
X98379773Y-37583768D01*
X98382084Y-37568188D01*
X98385911Y-37552909D01*
X98391217Y-37538079D01*
X98397952Y-37523841D01*
X98406049Y-37510331D01*
X98415432Y-37497680D01*
X98426009Y-37486009D01*
X98437680Y-37475432D01*
X98450331Y-37466049D01*
X98463841Y-37457952D01*
X98478079Y-37451217D01*
X98492909Y-37445911D01*
X98508188Y-37442084D01*
X98523768Y-37439773D01*
X98539500Y-37439000D01*
X98960500Y-37439000D01*
X98976232Y-37439773D01*
G37*
G36*
X100976232Y-28419773D02*
G01*
X100991812Y-28422084D01*
X101007091Y-28425911D01*
X101021921Y-28431217D01*
X101036159Y-28437952D01*
X101049669Y-28446049D01*
X101062320Y-28455432D01*
X101073991Y-28466009D01*
X101084568Y-28477680D01*
X101093951Y-28490331D01*
X101102048Y-28503841D01*
X101108783Y-28518079D01*
X101114089Y-28532909D01*
X101117916Y-28548188D01*
X101120227Y-28563768D01*
X101121000Y-28579500D01*
X101121000Y-28900500D01*
X101120227Y-28916232D01*
X101117916Y-28931812D01*
X101114089Y-28947091D01*
X101108783Y-28961921D01*
X101102048Y-28976159D01*
X101093951Y-28989669D01*
X101084568Y-29002320D01*
X101073991Y-29013991D01*
X101062320Y-29024568D01*
X101049669Y-29033951D01*
X101036159Y-29042048D01*
X101021921Y-29048783D01*
X101007091Y-29054089D01*
X100991812Y-29057916D01*
X100976232Y-29060227D01*
X100960500Y-29061000D01*
X100539500Y-29061000D01*
X100523768Y-29060227D01*
X100508188Y-29057916D01*
X100492909Y-29054089D01*
X100478079Y-29048783D01*
X100463841Y-29042048D01*
X100450331Y-29033951D01*
X100437680Y-29024568D01*
X100426009Y-29013991D01*
X100415432Y-29002320D01*
X100406049Y-28989669D01*
X100397952Y-28976159D01*
X100391217Y-28961921D01*
X100385911Y-28947091D01*
X100382084Y-28931812D01*
X100379773Y-28916232D01*
X100379000Y-28900500D01*
X100379000Y-28579500D01*
X100379773Y-28563768D01*
X100382084Y-28548188D01*
X100385911Y-28532909D01*
X100391217Y-28518079D01*
X100397952Y-28503841D01*
X100406049Y-28490331D01*
X100415432Y-28477680D01*
X100426009Y-28466009D01*
X100437680Y-28455432D01*
X100450331Y-28446049D01*
X100463841Y-28437952D01*
X100478079Y-28431217D01*
X100492909Y-28425911D01*
X100508188Y-28422084D01*
X100523768Y-28419773D01*
X100539500Y-28419000D01*
X100960500Y-28419000D01*
X100976232Y-28419773D01*
G37*
G36*
X100976232Y-29439773D02*
G01*
X100991812Y-29442084D01*
X101007091Y-29445911D01*
X101021921Y-29451217D01*
X101036159Y-29457952D01*
X101049669Y-29466049D01*
X101062320Y-29475432D01*
X101073991Y-29486009D01*
X101084568Y-29497680D01*
X101093951Y-29510331D01*
X101102048Y-29523841D01*
X101108783Y-29538079D01*
X101114089Y-29552909D01*
X101117916Y-29568188D01*
X101120227Y-29583768D01*
X101121000Y-29599500D01*
X101121000Y-29920500D01*
X101120227Y-29936232D01*
X101117916Y-29951812D01*
X101114089Y-29967091D01*
X101108783Y-29981921D01*
X101102048Y-29996159D01*
X101093951Y-30009669D01*
X101084568Y-30022320D01*
X101073991Y-30033991D01*
X101062320Y-30044568D01*
X101049669Y-30053951D01*
X101036159Y-30062048D01*
X101021921Y-30068783D01*
X101007091Y-30074089D01*
X100991812Y-30077916D01*
X100976232Y-30080227D01*
X100960500Y-30081000D01*
X100539500Y-30081000D01*
X100523768Y-30080227D01*
X100508188Y-30077916D01*
X100492909Y-30074089D01*
X100478079Y-30068783D01*
X100463841Y-30062048D01*
X100450331Y-30053951D01*
X100437680Y-30044568D01*
X100426009Y-30033991D01*
X100415432Y-30022320D01*
X100406049Y-30009669D01*
X100397952Y-29996159D01*
X100391217Y-29981921D01*
X100385911Y-29967091D01*
X100382084Y-29951812D01*
X100379773Y-29936232D01*
X100379000Y-29920500D01*
X100379000Y-29599500D01*
X100379773Y-29583768D01*
X100382084Y-29568188D01*
X100385911Y-29552909D01*
X100391217Y-29538079D01*
X100397952Y-29523841D01*
X100406049Y-29510331D01*
X100415432Y-29497680D01*
X100426009Y-29486009D01*
X100437680Y-29475432D01*
X100450331Y-29466049D01*
X100463841Y-29457952D01*
X100478079Y-29451217D01*
X100492909Y-29445911D01*
X100508188Y-29442084D01*
X100523768Y-29439773D01*
X100539500Y-29439000D01*
X100960500Y-29439000D01*
X100976232Y-29439773D01*
G37*
G36*
X99666232Y-38629773D02*
G01*
X99681812Y-38632084D01*
X99697091Y-38635911D01*
X99711921Y-38641217D01*
X99726159Y-38647952D01*
X99739669Y-38656049D01*
X99752320Y-38665432D01*
X99763991Y-38676009D01*
X99774568Y-38687680D01*
X99783951Y-38700331D01*
X99792048Y-38713841D01*
X99798783Y-38728079D01*
X99804089Y-38742909D01*
X99807916Y-38758188D01*
X99810227Y-38773768D01*
X99811000Y-38789500D01*
X99811000Y-39210500D01*
X99810227Y-39226232D01*
X99807916Y-39241812D01*
X99804089Y-39257091D01*
X99798783Y-39271921D01*
X99792048Y-39286159D01*
X99783951Y-39299669D01*
X99774568Y-39312320D01*
X99763991Y-39323991D01*
X99752320Y-39334568D01*
X99739669Y-39343951D01*
X99726159Y-39352048D01*
X99711921Y-39358783D01*
X99697091Y-39364089D01*
X99681812Y-39367916D01*
X99666232Y-39370227D01*
X99650500Y-39371000D01*
X99329500Y-39371000D01*
X99313768Y-39370227D01*
X99298188Y-39367916D01*
X99282909Y-39364089D01*
X99268079Y-39358783D01*
X99253841Y-39352048D01*
X99240331Y-39343951D01*
X99227680Y-39334568D01*
X99216009Y-39323991D01*
X99205432Y-39312320D01*
X99196049Y-39299669D01*
X99187952Y-39286159D01*
X99181217Y-39271921D01*
X99175911Y-39257091D01*
X99172084Y-39241812D01*
X99169773Y-39226232D01*
X99169000Y-39210500D01*
X99169000Y-38789500D01*
X99169773Y-38773768D01*
X99172084Y-38758188D01*
X99175911Y-38742909D01*
X99181217Y-38728079D01*
X99187952Y-38713841D01*
X99196049Y-38700331D01*
X99205432Y-38687680D01*
X99216009Y-38676009D01*
X99227680Y-38665432D01*
X99240331Y-38656049D01*
X99253841Y-38647952D01*
X99268079Y-38641217D01*
X99282909Y-38635911D01*
X99298188Y-38632084D01*
X99313768Y-38629773D01*
X99329500Y-38629000D01*
X99650500Y-38629000D01*
X99666232Y-38629773D01*
G37*
G36*
X100686232Y-38629773D02*
G01*
X100701812Y-38632084D01*
X100717091Y-38635911D01*
X100731921Y-38641217D01*
X100746159Y-38647952D01*
X100759669Y-38656049D01*
X100772320Y-38665432D01*
X100783991Y-38676009D01*
X100794568Y-38687680D01*
X100803951Y-38700331D01*
X100812048Y-38713841D01*
X100818783Y-38728079D01*
X100824089Y-38742909D01*
X100827916Y-38758188D01*
X100830227Y-38773768D01*
X100831000Y-38789500D01*
X100831000Y-39210500D01*
X100830227Y-39226232D01*
X100827916Y-39241812D01*
X100824089Y-39257091D01*
X100818783Y-39271921D01*
X100812048Y-39286159D01*
X100803951Y-39299669D01*
X100794568Y-39312320D01*
X100783991Y-39323991D01*
X100772320Y-39334568D01*
X100759669Y-39343951D01*
X100746159Y-39352048D01*
X100731921Y-39358783D01*
X100717091Y-39364089D01*
X100701812Y-39367916D01*
X100686232Y-39370227D01*
X100670500Y-39371000D01*
X100349500Y-39371000D01*
X100333768Y-39370227D01*
X100318188Y-39367916D01*
X100302909Y-39364089D01*
X100288079Y-39358783D01*
X100273841Y-39352048D01*
X100260331Y-39343951D01*
X100247680Y-39334568D01*
X100236009Y-39323991D01*
X100225432Y-39312320D01*
X100216049Y-39299669D01*
X100207952Y-39286159D01*
X100201217Y-39271921D01*
X100195911Y-39257091D01*
X100192084Y-39241812D01*
X100189773Y-39226232D01*
X100189000Y-39210500D01*
X100189000Y-38789500D01*
X100189773Y-38773768D01*
X100192084Y-38758188D01*
X100195911Y-38742909D01*
X100201217Y-38728079D01*
X100207952Y-38713841D01*
X100216049Y-38700331D01*
X100225432Y-38687680D01*
X100236009Y-38676009D01*
X100247680Y-38665432D01*
X100260331Y-38656049D01*
X100273841Y-38647952D01*
X100288079Y-38641217D01*
X100302909Y-38635911D01*
X100318188Y-38632084D01*
X100333768Y-38629773D01*
X100349500Y-38629000D01*
X100670500Y-38629000D01*
X100686232Y-38629773D01*
G37*
D15*
X105000000Y-40250000D03*
X105000000Y-27250000D03*
D16*
X78950000Y-37250000D03*
X78950000Y-30250000D03*
D17*
X78950000Y-36650000D03*
X78950000Y-30850000D03*
D18*
X78950000Y-34750000D03*
X78950000Y-32750000D03*
D19*
X81650000Y-36250000D03*
X81650000Y-31250000D03*
D20*
X81650000Y-35050000D03*
X81650000Y-34400000D03*
X81650000Y-33750000D03*
X81650000Y-33100000D03*
X81650000Y-32450000D03*
D21*
X82100000Y-40000000D03*
X84900000Y-40000000D03*
X82350000Y-27000000D03*
X85150000Y-27000000D03*
D11*
G36*
X99891722Y-35389797D02*
G01*
X99907787Y-35392180D01*
X99923542Y-35396126D01*
X99938834Y-35401598D01*
X99953516Y-35408542D01*
X99967447Y-35416892D01*
X99980492Y-35426567D01*
X99992526Y-35437474D01*
X100003433Y-35449508D01*
X100013108Y-35462553D01*
X100021458Y-35476484D01*
X100028402Y-35491166D01*
X100033874Y-35506458D01*
X100037820Y-35522213D01*
X100040203Y-35538278D01*
X100041000Y-35554500D01*
X100041000Y-35945500D01*
X100040203Y-35961722D01*
X100037820Y-35977787D01*
X100033874Y-35993542D01*
X100028402Y-36008834D01*
X100021458Y-36023516D01*
X100013108Y-36037447D01*
X100003433Y-36050492D01*
X99992526Y-36062526D01*
X99980492Y-36073433D01*
X99967447Y-36083108D01*
X99953516Y-36091458D01*
X99938834Y-36098402D01*
X99923542Y-36103874D01*
X99907787Y-36107820D01*
X99891722Y-36110203D01*
X99875500Y-36111000D01*
X99544500Y-36111000D01*
X99528278Y-36110203D01*
X99512213Y-36107820D01*
X99496458Y-36103874D01*
X99481166Y-36098402D01*
X99466484Y-36091458D01*
X99452553Y-36083108D01*
X99439508Y-36073433D01*
X99427474Y-36062526D01*
X99416567Y-36050492D01*
X99406892Y-36037447D01*
X99398542Y-36023516D01*
X99391598Y-36008834D01*
X99386126Y-35993542D01*
X99382180Y-35977787D01*
X99379797Y-35961722D01*
X99379000Y-35945500D01*
X99379000Y-35554500D01*
X99379797Y-35538278D01*
X99382180Y-35522213D01*
X99386126Y-35506458D01*
X99391598Y-35491166D01*
X99398542Y-35476484D01*
X99406892Y-35462553D01*
X99416567Y-35449508D01*
X99427474Y-35437474D01*
X99439508Y-35426567D01*
X99452553Y-35416892D01*
X99466484Y-35408542D01*
X99481166Y-35401598D01*
X99496458Y-35396126D01*
X99512213Y-35392180D01*
X99528278Y-35389797D01*
X99544500Y-35389000D01*
X99875500Y-35389000D01*
X99891722Y-35389797D01*
G37*
G36*
X98931722Y-35389797D02*
G01*
X98947787Y-35392180D01*
X98963542Y-35396126D01*
X98978834Y-35401598D01*
X98993516Y-35408542D01*
X99007447Y-35416892D01*
X99020492Y-35426567D01*
X99032526Y-35437474D01*
X99043433Y-35449508D01*
X99053108Y-35462553D01*
X99061458Y-35476484D01*
X99068402Y-35491166D01*
X99073874Y-35506458D01*
X99077820Y-35522213D01*
X99080203Y-35538278D01*
X99081000Y-35554500D01*
X99081000Y-35945500D01*
X99080203Y-35961722D01*
X99077820Y-35977787D01*
X99073874Y-35993542D01*
X99068402Y-36008834D01*
X99061458Y-36023516D01*
X99053108Y-36037447D01*
X99043433Y-36050492D01*
X99032526Y-36062526D01*
X99020492Y-36073433D01*
X99007447Y-36083108D01*
X98993516Y-36091458D01*
X98978834Y-36098402D01*
X98963542Y-36103874D01*
X98947787Y-36107820D01*
X98931722Y-36110203D01*
X98915500Y-36111000D01*
X98584500Y-36111000D01*
X98568278Y-36110203D01*
X98552213Y-36107820D01*
X98536458Y-36103874D01*
X98521166Y-36098402D01*
X98506484Y-36091458D01*
X98492553Y-36083108D01*
X98479508Y-36073433D01*
X98467474Y-36062526D01*
X98456567Y-36050492D01*
X98446892Y-36037447D01*
X98438542Y-36023516D01*
X98431598Y-36008834D01*
X98426126Y-35993542D01*
X98422180Y-35977787D01*
X98419797Y-35961722D01*
X98419000Y-35945500D01*
X98419000Y-35554500D01*
X98419797Y-35538278D01*
X98422180Y-35522213D01*
X98426126Y-35506458D01*
X98431598Y-35491166D01*
X98438542Y-35476484D01*
X98446892Y-35462553D01*
X98456567Y-35449508D01*
X98467474Y-35437474D01*
X98479508Y-35426567D01*
X98492553Y-35416892D01*
X98506484Y-35408542D01*
X98521166Y-35401598D01*
X98536458Y-35396126D01*
X98552213Y-35392180D01*
X98568278Y-35389797D01*
X98584500Y-35389000D01*
X98915500Y-35389000D01*
X98931722Y-35389797D01*
G37*
G36*
X89431722Y-36889797D02*
G01*
X89447787Y-36892180D01*
X89463542Y-36896126D01*
X89478834Y-36901598D01*
X89493516Y-36908542D01*
X89507447Y-36916892D01*
X89520492Y-36926567D01*
X89532526Y-36937474D01*
X89543433Y-36949508D01*
X89553108Y-36962553D01*
X89561458Y-36976484D01*
X89568402Y-36991166D01*
X89573874Y-37006458D01*
X89577820Y-37022213D01*
X89580203Y-37038278D01*
X89581000Y-37054500D01*
X89581000Y-37445500D01*
X89580203Y-37461722D01*
X89577820Y-37477787D01*
X89573874Y-37493542D01*
X89568402Y-37508834D01*
X89561458Y-37523516D01*
X89553108Y-37537447D01*
X89543433Y-37550492D01*
X89532526Y-37562526D01*
X89520492Y-37573433D01*
X89507447Y-37583108D01*
X89493516Y-37591458D01*
X89478834Y-37598402D01*
X89463542Y-37603874D01*
X89447787Y-37607820D01*
X89431722Y-37610203D01*
X89415500Y-37611000D01*
X89084500Y-37611000D01*
X89068278Y-37610203D01*
X89052213Y-37607820D01*
X89036458Y-37603874D01*
X89021166Y-37598402D01*
X89006484Y-37591458D01*
X88992553Y-37583108D01*
X88979508Y-37573433D01*
X88967474Y-37562526D01*
X88956567Y-37550492D01*
X88946892Y-37537447D01*
X88938542Y-37523516D01*
X88931598Y-37508834D01*
X88926126Y-37493542D01*
X88922180Y-37477787D01*
X88919797Y-37461722D01*
X88919000Y-37445500D01*
X88919000Y-37054500D01*
X88919797Y-37038278D01*
X88922180Y-37022213D01*
X88926126Y-37006458D01*
X88931598Y-36991166D01*
X88938542Y-36976484D01*
X88946892Y-36962553D01*
X88956567Y-36949508D01*
X88967474Y-36937474D01*
X88979508Y-36926567D01*
X88992553Y-36916892D01*
X89006484Y-36908542D01*
X89021166Y-36901598D01*
X89036458Y-36896126D01*
X89052213Y-36892180D01*
X89068278Y-36889797D01*
X89084500Y-36889000D01*
X89415500Y-36889000D01*
X89431722Y-36889797D01*
G37*
G36*
X90391722Y-36889797D02*
G01*
X90407787Y-36892180D01*
X90423542Y-36896126D01*
X90438834Y-36901598D01*
X90453516Y-36908542D01*
X90467447Y-36916892D01*
X90480492Y-36926567D01*
X90492526Y-36937474D01*
X90503433Y-36949508D01*
X90513108Y-36962553D01*
X90521458Y-36976484D01*
X90528402Y-36991166D01*
X90533874Y-37006458D01*
X90537820Y-37022213D01*
X90540203Y-37038278D01*
X90541000Y-37054500D01*
X90541000Y-37445500D01*
X90540203Y-37461722D01*
X90537820Y-37477787D01*
X90533874Y-37493542D01*
X90528402Y-37508834D01*
X90521458Y-37523516D01*
X90513108Y-37537447D01*
X90503433Y-37550492D01*
X90492526Y-37562526D01*
X90480492Y-37573433D01*
X90467447Y-37583108D01*
X90453516Y-37591458D01*
X90438834Y-37598402D01*
X90423542Y-37603874D01*
X90407787Y-37607820D01*
X90391722Y-37610203D01*
X90375500Y-37611000D01*
X90044500Y-37611000D01*
X90028278Y-37610203D01*
X90012213Y-37607820D01*
X89996458Y-37603874D01*
X89981166Y-37598402D01*
X89966484Y-37591458D01*
X89952553Y-37583108D01*
X89939508Y-37573433D01*
X89927474Y-37562526D01*
X89916567Y-37550492D01*
X89906892Y-37537447D01*
X89898542Y-37523516D01*
X89891598Y-37508834D01*
X89886126Y-37493542D01*
X89882180Y-37477787D01*
X89879797Y-37461722D01*
X89879000Y-37445500D01*
X89879000Y-37054500D01*
X89879797Y-37038278D01*
X89882180Y-37022213D01*
X89886126Y-37006458D01*
X89891598Y-36991166D01*
X89898542Y-36976484D01*
X89906892Y-36962553D01*
X89916567Y-36949508D01*
X89927474Y-36937474D01*
X89939508Y-36926567D01*
X89952553Y-36916892D01*
X89966484Y-36908542D01*
X89981166Y-36901598D01*
X89996458Y-36896126D01*
X90012213Y-36892180D01*
X90028278Y-36889797D01*
X90044500Y-36889000D01*
X90375500Y-36889000D01*
X90391722Y-36889797D01*
G37*
G36*
X97711722Y-37399797D02*
G01*
X97727787Y-37402180D01*
X97743542Y-37406126D01*
X97758834Y-37411598D01*
X97773516Y-37418542D01*
X97787447Y-37426892D01*
X97800492Y-37436567D01*
X97812526Y-37447474D01*
X97823433Y-37459508D01*
X97833108Y-37472553D01*
X97841458Y-37486484D01*
X97848402Y-37501166D01*
X97853874Y-37516458D01*
X97857820Y-37532213D01*
X97860203Y-37548278D01*
X97861000Y-37564500D01*
X97861000Y-37895500D01*
X97860203Y-37911722D01*
X97857820Y-37927787D01*
X97853874Y-37943542D01*
X97848402Y-37958834D01*
X97841458Y-37973516D01*
X97833108Y-37987447D01*
X97823433Y-38000492D01*
X97812526Y-38012526D01*
X97800492Y-38023433D01*
X97787447Y-38033108D01*
X97773516Y-38041458D01*
X97758834Y-38048402D01*
X97743542Y-38053874D01*
X97727787Y-38057820D01*
X97711722Y-38060203D01*
X97695500Y-38061000D01*
X97304500Y-38061000D01*
X97288278Y-38060203D01*
X97272213Y-38057820D01*
X97256458Y-38053874D01*
X97241166Y-38048402D01*
X97226484Y-38041458D01*
X97212553Y-38033108D01*
X97199508Y-38023433D01*
X97187474Y-38012526D01*
X97176567Y-38000492D01*
X97166892Y-37987447D01*
X97158542Y-37973516D01*
X97151598Y-37958834D01*
X97146126Y-37943542D01*
X97142180Y-37927787D01*
X97139797Y-37911722D01*
X97139000Y-37895500D01*
X97139000Y-37564500D01*
X97139797Y-37548278D01*
X97142180Y-37532213D01*
X97146126Y-37516458D01*
X97151598Y-37501166D01*
X97158542Y-37486484D01*
X97166892Y-37472553D01*
X97176567Y-37459508D01*
X97187474Y-37447474D01*
X97199508Y-37436567D01*
X97212553Y-37426892D01*
X97226484Y-37418542D01*
X97241166Y-37411598D01*
X97256458Y-37406126D01*
X97272213Y-37402180D01*
X97288278Y-37399797D01*
X97304500Y-37399000D01*
X97695500Y-37399000D01*
X97711722Y-37399797D01*
G37*
G36*
X97711722Y-36439797D02*
G01*
X97727787Y-36442180D01*
X97743542Y-36446126D01*
X97758834Y-36451598D01*
X97773516Y-36458542D01*
X97787447Y-36466892D01*
X97800492Y-36476567D01*
X97812526Y-36487474D01*
X97823433Y-36499508D01*
X97833108Y-36512553D01*
X97841458Y-36526484D01*
X97848402Y-36541166D01*
X97853874Y-36556458D01*
X97857820Y-36572213D01*
X97860203Y-36588278D01*
X97861000Y-36604500D01*
X97861000Y-36935500D01*
X97860203Y-36951722D01*
X97857820Y-36967787D01*
X97853874Y-36983542D01*
X97848402Y-36998834D01*
X97841458Y-37013516D01*
X97833108Y-37027447D01*
X97823433Y-37040492D01*
X97812526Y-37052526D01*
X97800492Y-37063433D01*
X97787447Y-37073108D01*
X97773516Y-37081458D01*
X97758834Y-37088402D01*
X97743542Y-37093874D01*
X97727787Y-37097820D01*
X97711722Y-37100203D01*
X97695500Y-37101000D01*
X97304500Y-37101000D01*
X97288278Y-37100203D01*
X97272213Y-37097820D01*
X97256458Y-37093874D01*
X97241166Y-37088402D01*
X97226484Y-37081458D01*
X97212553Y-37073108D01*
X97199508Y-37063433D01*
X97187474Y-37052526D01*
X97176567Y-37040492D01*
X97166892Y-37027447D01*
X97158542Y-37013516D01*
X97151598Y-36998834D01*
X97146126Y-36983542D01*
X97142180Y-36967787D01*
X97139797Y-36951722D01*
X97139000Y-36935500D01*
X97139000Y-36604500D01*
X97139797Y-36588278D01*
X97142180Y-36572213D01*
X97146126Y-36556458D01*
X97151598Y-36541166D01*
X97158542Y-36526484D01*
X97166892Y-36512553D01*
X97176567Y-36499508D01*
X97187474Y-36487474D01*
X97199508Y-36476567D01*
X97212553Y-36466892D01*
X97226484Y-36458542D01*
X97241166Y-36451598D01*
X97256458Y-36446126D01*
X97272213Y-36442180D01*
X97288278Y-36439797D01*
X97304500Y-36439000D01*
X97695500Y-36439000D01*
X97711722Y-36439797D01*
G37*
G36*
X96211722Y-31689797D02*
G01*
X96227787Y-31692180D01*
X96243542Y-31696126D01*
X96258834Y-31701598D01*
X96273516Y-31708542D01*
X96287447Y-31716892D01*
X96300492Y-31726567D01*
X96312526Y-31737474D01*
X96323433Y-31749508D01*
X96333108Y-31762553D01*
X96341458Y-31776484D01*
X96348402Y-31791166D01*
X96353874Y-31806458D01*
X96357820Y-31822213D01*
X96360203Y-31838278D01*
X96361000Y-31854500D01*
X96361000Y-32185500D01*
X96360203Y-32201722D01*
X96357820Y-32217787D01*
X96353874Y-32233542D01*
X96348402Y-32248834D01*
X96341458Y-32263516D01*
X96333108Y-32277447D01*
X96323433Y-32290492D01*
X96312526Y-32302526D01*
X96300492Y-32313433D01*
X96287447Y-32323108D01*
X96273516Y-32331458D01*
X96258834Y-32338402D01*
X96243542Y-32343874D01*
X96227787Y-32347820D01*
X96211722Y-32350203D01*
X96195500Y-32351000D01*
X95804500Y-32351000D01*
X95788278Y-32350203D01*
X95772213Y-32347820D01*
X95756458Y-32343874D01*
X95741166Y-32338402D01*
X95726484Y-32331458D01*
X95712553Y-32323108D01*
X95699508Y-32313433D01*
X95687474Y-32302526D01*
X95676567Y-32290492D01*
X95666892Y-32277447D01*
X95658542Y-32263516D01*
X95651598Y-32248834D01*
X95646126Y-32233542D01*
X95642180Y-32217787D01*
X95639797Y-32201722D01*
X95639000Y-32185500D01*
X95639000Y-31854500D01*
X95639797Y-31838278D01*
X95642180Y-31822213D01*
X95646126Y-31806458D01*
X95651598Y-31791166D01*
X95658542Y-31776484D01*
X95666892Y-31762553D01*
X95676567Y-31749508D01*
X95687474Y-31737474D01*
X95699508Y-31726567D01*
X95712553Y-31716892D01*
X95726484Y-31708542D01*
X95741166Y-31701598D01*
X95756458Y-31696126D01*
X95772213Y-31692180D01*
X95788278Y-31689797D01*
X95804500Y-31689000D01*
X96195500Y-31689000D01*
X96211722Y-31689797D01*
G37*
G36*
X96211722Y-32649797D02*
G01*
X96227787Y-32652180D01*
X96243542Y-32656126D01*
X96258834Y-32661598D01*
X96273516Y-32668542D01*
X96287447Y-32676892D01*
X96300492Y-32686567D01*
X96312526Y-32697474D01*
X96323433Y-32709508D01*
X96333108Y-32722553D01*
X96341458Y-32736484D01*
X96348402Y-32751166D01*
X96353874Y-32766458D01*
X96357820Y-32782213D01*
X96360203Y-32798278D01*
X96361000Y-32814500D01*
X96361000Y-33145500D01*
X96360203Y-33161722D01*
X96357820Y-33177787D01*
X96353874Y-33193542D01*
X96348402Y-33208834D01*
X96341458Y-33223516D01*
X96333108Y-33237447D01*
X96323433Y-33250492D01*
X96312526Y-33262526D01*
X96300492Y-33273433D01*
X96287447Y-33283108D01*
X96273516Y-33291458D01*
X96258834Y-33298402D01*
X96243542Y-33303874D01*
X96227787Y-33307820D01*
X96211722Y-33310203D01*
X96195500Y-33311000D01*
X95804500Y-33311000D01*
X95788278Y-33310203D01*
X95772213Y-33307820D01*
X95756458Y-33303874D01*
X95741166Y-33298402D01*
X95726484Y-33291458D01*
X95712553Y-33283108D01*
X95699508Y-33273433D01*
X95687474Y-33262526D01*
X95676567Y-33250492D01*
X95666892Y-33237447D01*
X95658542Y-33223516D01*
X95651598Y-33208834D01*
X95646126Y-33193542D01*
X95642180Y-33177787D01*
X95639797Y-33161722D01*
X95639000Y-33145500D01*
X95639000Y-32814500D01*
X95639797Y-32798278D01*
X95642180Y-32782213D01*
X95646126Y-32766458D01*
X95651598Y-32751166D01*
X95658542Y-32736484D01*
X95666892Y-32722553D01*
X95676567Y-32709508D01*
X95687474Y-32697474D01*
X95699508Y-32686567D01*
X95712553Y-32676892D01*
X95726484Y-32668542D01*
X95741166Y-32661598D01*
X95756458Y-32656126D01*
X95772213Y-32652180D01*
X95788278Y-32649797D01*
X95804500Y-32649000D01*
X96195500Y-32649000D01*
X96211722Y-32649797D01*
G37*
G36*
X98211722Y-40459797D02*
G01*
X98227787Y-40462180D01*
X98243542Y-40466126D01*
X98258834Y-40471598D01*
X98273516Y-40478542D01*
X98287447Y-40486892D01*
X98300492Y-40496567D01*
X98312526Y-40507474D01*
X98323433Y-40519508D01*
X98333108Y-40532553D01*
X98341458Y-40546484D01*
X98348402Y-40561166D01*
X98353874Y-40576458D01*
X98357820Y-40592213D01*
X98360203Y-40608278D01*
X98361000Y-40624500D01*
X98361000Y-40955500D01*
X98360203Y-40971722D01*
X98357820Y-40987787D01*
X98353874Y-41003542D01*
X98348402Y-41018834D01*
X98341458Y-41033516D01*
X98333108Y-41047447D01*
X98323433Y-41060492D01*
X98312526Y-41072526D01*
X98300492Y-41083433D01*
X98287447Y-41093108D01*
X98273516Y-41101458D01*
X98258834Y-41108402D01*
X98243542Y-41113874D01*
X98227787Y-41117820D01*
X98211722Y-41120203D01*
X98195500Y-41121000D01*
X97804500Y-41121000D01*
X97788278Y-41120203D01*
X97772213Y-41117820D01*
X97756458Y-41113874D01*
X97741166Y-41108402D01*
X97726484Y-41101458D01*
X97712553Y-41093108D01*
X97699508Y-41083433D01*
X97687474Y-41072526D01*
X97676567Y-41060492D01*
X97666892Y-41047447D01*
X97658542Y-41033516D01*
X97651598Y-41018834D01*
X97646126Y-41003542D01*
X97642180Y-40987787D01*
X97639797Y-40971722D01*
X97639000Y-40955500D01*
X97639000Y-40624500D01*
X97639797Y-40608278D01*
X97642180Y-40592213D01*
X97646126Y-40576458D01*
X97651598Y-40561166D01*
X97658542Y-40546484D01*
X97666892Y-40532553D01*
X97676567Y-40519508D01*
X97687474Y-40507474D01*
X97699508Y-40496567D01*
X97712553Y-40486892D01*
X97726484Y-40478542D01*
X97741166Y-40471598D01*
X97756458Y-40466126D01*
X97772213Y-40462180D01*
X97788278Y-40459797D01*
X97804500Y-40459000D01*
X98195500Y-40459000D01*
X98211722Y-40459797D01*
G37*
G36*
X98211722Y-41419797D02*
G01*
X98227787Y-41422180D01*
X98243542Y-41426126D01*
X98258834Y-41431598D01*
X98273516Y-41438542D01*
X98287447Y-41446892D01*
X98300492Y-41456567D01*
X98312526Y-41467474D01*
X98323433Y-41479508D01*
X98333108Y-41492553D01*
X98341458Y-41506484D01*
X98348402Y-41521166D01*
X98353874Y-41536458D01*
X98357820Y-41552213D01*
X98360203Y-41568278D01*
X98361000Y-41584500D01*
X98361000Y-41915500D01*
X98360203Y-41931722D01*
X98357820Y-41947787D01*
X98353874Y-41963542D01*
X98348402Y-41978834D01*
X98341458Y-41993516D01*
X98333108Y-42007447D01*
X98323433Y-42020492D01*
X98312526Y-42032526D01*
X98300492Y-42043433D01*
X98287447Y-42053108D01*
X98273516Y-42061458D01*
X98258834Y-42068402D01*
X98243542Y-42073874D01*
X98227787Y-42077820D01*
X98211722Y-42080203D01*
X98195500Y-42081000D01*
X97804500Y-42081000D01*
X97788278Y-42080203D01*
X97772213Y-42077820D01*
X97756458Y-42073874D01*
X97741166Y-42068402D01*
X97726484Y-42061458D01*
X97712553Y-42053108D01*
X97699508Y-42043433D01*
X97687474Y-42032526D01*
X97676567Y-42020492D01*
X97666892Y-42007447D01*
X97658542Y-41993516D01*
X97651598Y-41978834D01*
X97646126Y-41963542D01*
X97642180Y-41947787D01*
X97639797Y-41931722D01*
X97639000Y-41915500D01*
X97639000Y-41584500D01*
X97639797Y-41568278D01*
X97642180Y-41552213D01*
X97646126Y-41536458D01*
X97651598Y-41521166D01*
X97658542Y-41506484D01*
X97666892Y-41492553D01*
X97676567Y-41479508D01*
X97687474Y-41467474D01*
X97699508Y-41456567D01*
X97712553Y-41446892D01*
X97726484Y-41438542D01*
X97741166Y-41431598D01*
X97756458Y-41426126D01*
X97772213Y-41422180D01*
X97788278Y-41419797D01*
X97804500Y-41419000D01*
X98195500Y-41419000D01*
X98211722Y-41419797D01*
G37*
M02*
