%FSLAX45Y45*%
G04 Gerber Fmt 4.5, Leading zero omitted, Abs format (unit mm)*
G04 Created by KiCad (PCBNEW 5.1.5+dfsg1-2build2) date 2021-07-03 20:40:37*
%MOMM*%
%LPD*%
G04 APERTURE LIST*
%TA.AperFunction,Profile*%
%ADD10C,0.050000*%
%TD*%
%ADD11C,0.200000*%
%ADD12C,0.300000*%
G04 APERTURE END LIST*
D10*
X8100000Y-4375000D02*
X8100000Y-4250000D01*
X11000000Y-4375000D02*
X8100000Y-4375000D01*
X11000000Y-4250000D02*
X11000000Y-4375000D01*
X11000000Y-2375000D02*
X11000000Y-2495000D01*
X8100000Y-2375000D02*
X11000000Y-2375000D01*
X8099964Y-2495001D02*
X8100000Y-2375000D01*
X8099964Y-2495001D02*
G75*
G02X7750000Y-2850000I-349964J-5000D01*
G01*
X7750000Y-3900000D02*
G75*
G02X8100000Y-4250000I0J-350000D01*
G01*
X11000000Y-4250000D02*
G75*
G02X11350000Y-3900000I350000J0D01*
G01*
X11350000Y-2850036D02*
G75*
G02X11000000Y-2495000I0J350036D01*
G01*
X11350000Y-3900000D02*
X11350000Y-2850000D01*
X7750000Y-2850000D02*
X7750000Y-3900000D01*
D11*
X8305000Y-3205000D02*
X8345000Y-3245000D01*
X8345000Y-3205000D02*
X8305000Y-3245000D01*
X8405000Y-3155000D02*
X8445000Y-3195000D01*
X8445000Y-3155000D02*
X8405000Y-3195000D01*
X8604000Y-3504000D02*
X8644000Y-3544000D01*
X8644000Y-3504000D02*
X8604000Y-3544000D01*
X8705000Y-3230000D02*
X8745000Y-3270000D01*
X8745000Y-3230000D02*
X8705000Y-3270000D01*
X8755000Y-3330000D02*
X8795000Y-3370000D01*
X8795000Y-3330000D02*
X8755000Y-3370000D01*
X8780000Y-2855000D02*
X8820000Y-2895000D01*
X8820000Y-2855000D02*
X8780000Y-2895000D01*
X8855003Y-3330000D02*
X8895003Y-3370000D01*
X8895003Y-3330000D02*
X8855003Y-3370000D01*
X8905000Y-2855000D02*
X8945000Y-2895000D01*
X8945000Y-2855000D02*
X8905000Y-2895000D01*
X8955000Y-3904999D02*
X8995000Y-3944999D01*
X8995000Y-3904999D02*
X8955000Y-3944999D01*
X9005002Y-3055000D02*
X9045002Y-3095000D01*
X9045002Y-3055000D02*
X9005002Y-3095000D01*
X9080000Y-3780003D02*
X9120000Y-3820003D01*
X9120000Y-3780003D02*
X9080000Y-3820003D01*
X9152500Y-3707500D02*
X9192500Y-3747500D01*
X9192500Y-3707500D02*
X9152500Y-3747500D01*
X9205000Y-2912500D02*
X9245000Y-2952500D01*
X9245000Y-2912500D02*
X9205000Y-2952500D01*
X9230000Y-3255000D02*
X9270000Y-3295000D01*
X9270000Y-3255000D02*
X9230000Y-3295000D01*
X9331489Y-3617985D02*
X9371489Y-3657985D01*
X9371489Y-3617985D02*
X9331489Y-3657985D01*
X9429674Y-3503911D02*
X9469674Y-3543911D01*
X9469674Y-3503911D02*
X9429674Y-3543911D01*
X9458372Y-3599706D02*
X9498372Y-3639706D01*
X9498372Y-3599706D02*
X9458372Y-3639706D01*
X9711031Y-3436031D02*
X9751031Y-3476031D01*
X9751031Y-3436031D02*
X9711031Y-3476031D01*
X9880000Y-3005000D02*
X9920000Y-3045000D01*
X9920000Y-3005000D02*
X9880000Y-3045000D01*
X7920000Y-3025000D02*
G75*
G03X7920000Y-3025000I-25000J0D01*
G01*
X7927500Y-3010000D02*
X7862500Y-3010000D01*
X7927500Y-3040000D02*
X7862500Y-3040000D01*
X7862500Y-3010000D02*
G75*
G03X7862500Y-3040000I0J-15000D01*
G01*
X7927500Y-3040000D02*
G75*
G03X7927500Y-3010000I0J15000D01*
G01*
X7920000Y-3725000D02*
G75*
G03X7920000Y-3725000I-25000J0D01*
G01*
X7927500Y-3710000D02*
X7862500Y-3710000D01*
X7927500Y-3740000D02*
X7862500Y-3740000D01*
X7862500Y-3710000D02*
G75*
G03X7862500Y-3740000I0J-15000D01*
G01*
X7927500Y-3740000D02*
G75*
G03X7927500Y-3710000I0J15000D01*
G01*
X8165000Y-3097500D02*
X8165000Y-3152500D01*
X8137500Y-3125000D02*
X8192500Y-3125000D01*
X8147500Y-3110000D02*
X8147500Y-3140000D01*
X8182500Y-3110000D02*
X8182500Y-3140000D01*
X8147500Y-3140000D02*
G75*
G03X8182500Y-3140000I17500J0D01*
G01*
X8182500Y-3110000D02*
G75*
G03X8147500Y-3110000I-17500J0D01*
G01*
X8165000Y-3597500D02*
X8165000Y-3652500D01*
X8137500Y-3625000D02*
X8192500Y-3625000D01*
X8147500Y-3610000D02*
X8147500Y-3640000D01*
X8182500Y-3610000D02*
X8182500Y-3640000D01*
X8147500Y-3640000D02*
G75*
G03X8182500Y-3640000I17500J0D01*
G01*
X8182500Y-3610000D02*
G75*
G03X8147500Y-3610000I-17500J0D01*
G01*
X9849749Y-2849749D02*
X9849749Y-2800251D01*
X9800251Y-2800251D01*
X9800251Y-2849749D01*
X9849749Y-2849749D01*
X9977028Y-2722470D02*
X9977028Y-2672972D01*
X9927530Y-2672972D01*
X9927530Y-2722470D01*
X9977028Y-2722470D01*
X10132592Y-3132592D02*
X10132592Y-3083094D01*
X10083094Y-3083094D01*
X10083094Y-3132592D01*
X10132592Y-3132592D01*
X10259871Y-3005312D02*
X10259871Y-2955814D01*
X10210373Y-2955814D01*
X10210373Y-3005312D01*
X10259871Y-3005312D01*
X9847470Y-3947470D02*
X9847470Y-3897972D01*
X9797972Y-3897972D01*
X9797972Y-3947470D01*
X9847470Y-3947470D01*
X9974749Y-4074749D02*
X9974749Y-4025251D01*
X9925251Y-4025251D01*
X9925251Y-4074749D01*
X9974749Y-4074749D01*
X10130313Y-3664627D02*
X10130313Y-3615129D01*
X10080815Y-3615129D01*
X10080815Y-3664627D01*
X10130313Y-3664627D01*
X10257592Y-3791906D02*
X10257592Y-3742408D01*
X10208094Y-3742408D01*
X10208094Y-3791906D01*
X10257592Y-3791906D01*
X8650000Y-4040000D02*
X8690000Y-4000000D01*
X8650000Y-3960000D01*
X8610000Y-4000000D01*
X8650000Y-4040000D01*
X10950000Y-3215000D02*
X10990000Y-3175000D01*
X10950000Y-3135000D01*
X10910000Y-3175000D01*
X10950000Y-3215000D01*
X10950000Y-3790000D02*
X10990000Y-3750000D01*
X10950000Y-3710000D01*
X10910000Y-3750000D01*
X10950000Y-3790000D01*
X10375000Y-2600000D02*
X10625000Y-2850000D01*
X10625000Y-2600000D02*
X10375000Y-2850000D01*
X10625000Y-2725000D02*
G75*
G03X10625000Y-2725000I-125000J0D01*
G01*
X10375000Y-3900000D02*
X10625000Y-4150000D01*
X10625000Y-3900000D02*
X10375000Y-4150000D01*
X10625000Y-4025000D02*
G75*
G03X10625000Y-4025000I-125000J0D01*
G01*
D12*
X8033928Y-4843214D02*
X8033928Y-4543214D01*
X8105357Y-4543214D01*
X8148214Y-4557500D01*
X8176786Y-4586072D01*
X8191071Y-4614643D01*
X8205357Y-4671786D01*
X8205357Y-4714643D01*
X8191071Y-4771786D01*
X8176786Y-4800357D01*
X8148214Y-4828929D01*
X8105357Y-4843214D01*
X8033928Y-4843214D01*
X8333928Y-4843214D02*
X8333928Y-4643214D01*
X8333928Y-4700357D02*
X8348214Y-4671786D01*
X8362500Y-4657500D01*
X8391071Y-4643214D01*
X8419643Y-4643214D01*
X8519643Y-4843214D02*
X8519643Y-4643214D01*
X8519643Y-4543214D02*
X8505357Y-4557500D01*
X8519643Y-4571786D01*
X8533928Y-4557500D01*
X8519643Y-4543214D01*
X8519643Y-4571786D01*
X8705357Y-4843214D02*
X8676786Y-4828929D01*
X8662500Y-4800357D01*
X8662500Y-4543214D01*
X8862500Y-4843214D02*
X8833928Y-4828929D01*
X8819643Y-4800357D01*
X8819643Y-4543214D01*
X9205357Y-4843214D02*
X9205357Y-4543214D01*
X9305357Y-4757500D01*
X9405357Y-4543214D01*
X9405357Y-4843214D01*
X9676786Y-4843214D02*
X9676786Y-4686072D01*
X9662500Y-4657500D01*
X9633928Y-4643214D01*
X9576786Y-4643214D01*
X9548214Y-4657500D01*
X9676786Y-4828929D02*
X9648214Y-4843214D01*
X9576786Y-4843214D01*
X9548214Y-4828929D01*
X9533928Y-4800357D01*
X9533928Y-4771786D01*
X9548214Y-4743214D01*
X9576786Y-4728929D01*
X9648214Y-4728929D01*
X9676786Y-4714643D01*
X9819643Y-4643214D02*
X9819643Y-4943214D01*
X9819643Y-4657500D02*
X9848214Y-4643214D01*
X9905357Y-4643214D01*
X9933928Y-4657500D01*
X9948214Y-4671786D01*
X9962500Y-4700357D01*
X9962500Y-4786072D01*
X9948214Y-4814643D01*
X9933928Y-4828929D01*
X9905357Y-4843214D01*
X9848214Y-4843214D01*
X9819643Y-4828929D01*
X10091071Y-4814643D02*
X10105357Y-4828929D01*
X10091071Y-4843214D01*
X10076786Y-4828929D01*
X10091071Y-4814643D01*
X10091071Y-4843214D01*
X10091071Y-4657500D02*
X10105357Y-4671786D01*
X10091071Y-4686072D01*
X10076786Y-4671786D01*
X10091071Y-4657500D01*
X10091071Y-4686072D01*
X7707500Y-5317500D02*
X7747500Y-5357500D01*
X7747500Y-5317500D02*
X7707500Y-5357500D01*
X8091071Y-5173214D02*
X8119643Y-5173214D01*
X8148214Y-5187500D01*
X8162500Y-5201786D01*
X8176786Y-5230357D01*
X8191071Y-5287500D01*
X8191071Y-5358929D01*
X8176786Y-5416072D01*
X8162500Y-5444643D01*
X8148214Y-5458929D01*
X8119643Y-5473214D01*
X8091071Y-5473214D01*
X8062500Y-5458929D01*
X8048214Y-5444643D01*
X8033928Y-5416072D01*
X8019643Y-5358929D01*
X8019643Y-5287500D01*
X8033928Y-5230357D01*
X8048214Y-5201786D01*
X8062500Y-5187500D01*
X8091071Y-5173214D01*
X8319643Y-5444643D02*
X8333928Y-5458929D01*
X8319643Y-5473214D01*
X8305357Y-5458929D01*
X8319643Y-5444643D01*
X8319643Y-5473214D01*
X8591071Y-5273214D02*
X8591071Y-5473214D01*
X8519643Y-5158929D02*
X8448214Y-5373214D01*
X8633928Y-5373214D01*
X8805357Y-5173214D02*
X8833928Y-5173214D01*
X8862500Y-5187500D01*
X8876786Y-5201786D01*
X8891071Y-5230357D01*
X8905357Y-5287500D01*
X8905357Y-5358929D01*
X8891071Y-5416072D01*
X8876786Y-5444643D01*
X8862500Y-5458929D01*
X8833928Y-5473214D01*
X8805357Y-5473214D01*
X8776786Y-5458929D01*
X8762500Y-5444643D01*
X8748214Y-5416072D01*
X8733928Y-5358929D01*
X8733928Y-5287500D01*
X8748214Y-5230357D01*
X8762500Y-5201786D01*
X8776786Y-5187500D01*
X8805357Y-5173214D01*
X9033928Y-5473214D02*
X9033928Y-5273214D01*
X9033928Y-5301786D02*
X9048214Y-5287500D01*
X9076786Y-5273214D01*
X9119643Y-5273214D01*
X9148214Y-5287500D01*
X9162500Y-5316072D01*
X9162500Y-5473214D01*
X9162500Y-5316072D02*
X9176786Y-5287500D01*
X9205357Y-5273214D01*
X9248214Y-5273214D01*
X9276786Y-5287500D01*
X9291071Y-5316072D01*
X9291071Y-5473214D01*
X9433928Y-5473214D02*
X9433928Y-5273214D01*
X9433928Y-5301786D02*
X9448214Y-5287500D01*
X9476786Y-5273214D01*
X9519643Y-5273214D01*
X9548214Y-5287500D01*
X9562500Y-5316072D01*
X9562500Y-5473214D01*
X9562500Y-5316072D02*
X9576786Y-5287500D01*
X9605357Y-5273214D01*
X9648214Y-5273214D01*
X9676786Y-5287500D01*
X9691071Y-5316072D01*
X9691071Y-5473214D01*
X10276786Y-5158929D02*
X10019643Y-5544643D01*
X10662500Y-5173214D02*
X10691071Y-5173214D01*
X10719643Y-5187500D01*
X10733928Y-5201786D01*
X10748214Y-5230357D01*
X10762500Y-5287500D01*
X10762500Y-5358929D01*
X10748214Y-5416072D01*
X10733928Y-5444643D01*
X10719643Y-5458929D01*
X10691071Y-5473214D01*
X10662500Y-5473214D01*
X10633928Y-5458929D01*
X10619643Y-5444643D01*
X10605357Y-5416072D01*
X10591071Y-5358929D01*
X10591071Y-5287500D01*
X10605357Y-5230357D01*
X10619643Y-5201786D01*
X10633928Y-5187500D01*
X10662500Y-5173214D01*
X10891071Y-5444643D02*
X10905357Y-5458929D01*
X10891071Y-5473214D01*
X10876786Y-5458929D01*
X10891071Y-5444643D01*
X10891071Y-5473214D01*
X11091071Y-5173214D02*
X11119643Y-5173214D01*
X11148214Y-5187500D01*
X11162500Y-5201786D01*
X11176786Y-5230357D01*
X11191071Y-5287500D01*
X11191071Y-5358929D01*
X11176786Y-5416072D01*
X11162500Y-5444643D01*
X11148214Y-5458929D01*
X11119643Y-5473214D01*
X11091071Y-5473214D01*
X11062500Y-5458929D01*
X11048214Y-5444643D01*
X11033928Y-5416072D01*
X11019643Y-5358929D01*
X11019643Y-5287500D01*
X11033928Y-5230357D01*
X11048214Y-5201786D01*
X11062500Y-5187500D01*
X11091071Y-5173214D01*
X11476786Y-5473214D02*
X11305357Y-5473214D01*
X11391071Y-5473214D02*
X11391071Y-5173214D01*
X11362500Y-5216072D01*
X11333928Y-5244643D01*
X11305357Y-5258929D01*
X11733928Y-5173214D02*
X11676786Y-5173214D01*
X11648214Y-5187500D01*
X11633928Y-5201786D01*
X11605357Y-5244643D01*
X11591071Y-5301786D01*
X11591071Y-5416072D01*
X11605357Y-5444643D01*
X11619643Y-5458929D01*
X11648214Y-5473214D01*
X11705357Y-5473214D01*
X11733928Y-5458929D01*
X11748214Y-5444643D01*
X11762500Y-5416072D01*
X11762500Y-5344643D01*
X11748214Y-5316072D01*
X11733928Y-5301786D01*
X11705357Y-5287500D01*
X11648214Y-5287500D01*
X11619643Y-5301786D01*
X11605357Y-5316072D01*
X11591071Y-5344643D01*
X11876786Y-5173214D02*
X11876786Y-5230357D01*
X11991071Y-5173214D02*
X11991071Y-5230357D01*
X12433928Y-5587500D02*
X12419643Y-5573214D01*
X12391071Y-5530357D01*
X12376786Y-5501786D01*
X12362500Y-5458929D01*
X12348214Y-5387500D01*
X12348214Y-5330357D01*
X12362500Y-5258929D01*
X12376786Y-5216072D01*
X12391071Y-5187500D01*
X12419643Y-5144643D01*
X12433928Y-5130357D01*
X12705357Y-5473214D02*
X12533928Y-5473214D01*
X12619643Y-5473214D02*
X12619643Y-5173214D01*
X12591071Y-5216072D01*
X12562500Y-5244643D01*
X12533928Y-5258929D01*
X12848214Y-5473214D02*
X12905357Y-5473214D01*
X12933928Y-5458929D01*
X12948214Y-5444643D01*
X12976786Y-5401786D01*
X12991071Y-5344643D01*
X12991071Y-5230357D01*
X12976786Y-5201786D01*
X12962500Y-5187500D01*
X12933928Y-5173214D01*
X12876786Y-5173214D01*
X12848214Y-5187500D01*
X12833928Y-5201786D01*
X12819643Y-5230357D01*
X12819643Y-5301786D01*
X12833928Y-5330357D01*
X12848214Y-5344643D01*
X12876786Y-5358929D01*
X12933928Y-5358929D01*
X12962500Y-5344643D01*
X12976786Y-5330357D01*
X12991071Y-5301786D01*
X13348214Y-5473214D02*
X13348214Y-5173214D01*
X13476786Y-5473214D02*
X13476786Y-5316072D01*
X13462500Y-5287500D01*
X13433928Y-5273214D01*
X13391071Y-5273214D01*
X13362500Y-5287500D01*
X13348214Y-5301786D01*
X13662500Y-5473214D02*
X13633928Y-5458929D01*
X13619643Y-5444643D01*
X13605357Y-5416072D01*
X13605357Y-5330357D01*
X13619643Y-5301786D01*
X13633928Y-5287500D01*
X13662500Y-5273214D01*
X13705357Y-5273214D01*
X13733928Y-5287500D01*
X13748214Y-5301786D01*
X13762500Y-5330357D01*
X13762500Y-5416072D01*
X13748214Y-5444643D01*
X13733928Y-5458929D01*
X13705357Y-5473214D01*
X13662500Y-5473214D01*
X13933928Y-5473214D02*
X13905357Y-5458929D01*
X13891071Y-5430357D01*
X13891071Y-5173214D01*
X14162500Y-5458929D02*
X14133928Y-5473214D01*
X14076786Y-5473214D01*
X14048214Y-5458929D01*
X14033928Y-5430357D01*
X14033928Y-5316072D01*
X14048214Y-5287500D01*
X14076786Y-5273214D01*
X14133928Y-5273214D01*
X14162500Y-5287500D01*
X14176786Y-5316072D01*
X14176786Y-5344643D01*
X14033928Y-5373214D01*
X14291071Y-5458929D02*
X14319643Y-5473214D01*
X14376786Y-5473214D01*
X14405357Y-5458929D01*
X14419643Y-5430357D01*
X14419643Y-5416072D01*
X14405357Y-5387500D01*
X14376786Y-5373214D01*
X14333928Y-5373214D01*
X14305357Y-5358929D01*
X14291071Y-5330357D01*
X14291071Y-5316072D01*
X14305357Y-5287500D01*
X14333928Y-5273214D01*
X14376786Y-5273214D01*
X14405357Y-5287500D01*
X14519643Y-5587500D02*
X14533928Y-5573214D01*
X14562500Y-5530357D01*
X14576786Y-5501786D01*
X14591071Y-5458929D01*
X14605357Y-5387500D01*
X14605357Y-5330357D01*
X14591071Y-5258929D01*
X14576786Y-5216072D01*
X14562500Y-5187500D01*
X14533928Y-5144643D01*
X14519643Y-5130357D01*
X7747500Y-5733500D02*
G75*
G03X7747500Y-5733500I-25000J0D01*
G01*
X8091071Y-5569214D02*
X8119643Y-5569214D01*
X8148214Y-5583500D01*
X8162500Y-5597786D01*
X8176786Y-5626357D01*
X8191071Y-5683500D01*
X8191071Y-5754929D01*
X8176786Y-5812071D01*
X8162500Y-5840643D01*
X8148214Y-5854929D01*
X8119643Y-5869214D01*
X8091071Y-5869214D01*
X8062500Y-5854929D01*
X8048214Y-5840643D01*
X8033928Y-5812071D01*
X8019643Y-5754929D01*
X8019643Y-5683500D01*
X8033928Y-5626357D01*
X8048214Y-5597786D01*
X8062500Y-5583500D01*
X8091071Y-5569214D01*
X8319643Y-5840643D02*
X8333928Y-5854929D01*
X8319643Y-5869214D01*
X8305357Y-5854929D01*
X8319643Y-5840643D01*
X8319643Y-5869214D01*
X8605357Y-5569214D02*
X8462500Y-5569214D01*
X8448214Y-5712071D01*
X8462500Y-5697786D01*
X8491071Y-5683500D01*
X8562500Y-5683500D01*
X8591071Y-5697786D01*
X8605357Y-5712071D01*
X8619643Y-5740643D01*
X8619643Y-5812071D01*
X8605357Y-5840643D01*
X8591071Y-5854929D01*
X8562500Y-5869214D01*
X8491071Y-5869214D01*
X8462500Y-5854929D01*
X8448214Y-5840643D01*
X8805357Y-5569214D02*
X8833928Y-5569214D01*
X8862500Y-5583500D01*
X8876786Y-5597786D01*
X8891071Y-5626357D01*
X8905357Y-5683500D01*
X8905357Y-5754929D01*
X8891071Y-5812071D01*
X8876786Y-5840643D01*
X8862500Y-5854929D01*
X8833928Y-5869214D01*
X8805357Y-5869214D01*
X8776786Y-5854929D01*
X8762500Y-5840643D01*
X8748214Y-5812071D01*
X8733928Y-5754929D01*
X8733928Y-5683500D01*
X8748214Y-5626357D01*
X8762500Y-5597786D01*
X8776786Y-5583500D01*
X8805357Y-5569214D01*
X9033928Y-5869214D02*
X9033928Y-5669214D01*
X9033928Y-5697786D02*
X9048214Y-5683500D01*
X9076786Y-5669214D01*
X9119643Y-5669214D01*
X9148214Y-5683500D01*
X9162500Y-5712071D01*
X9162500Y-5869214D01*
X9162500Y-5712071D02*
X9176786Y-5683500D01*
X9205357Y-5669214D01*
X9248214Y-5669214D01*
X9276786Y-5683500D01*
X9291071Y-5712071D01*
X9291071Y-5869214D01*
X9433928Y-5869214D02*
X9433928Y-5669214D01*
X9433928Y-5697786D02*
X9448214Y-5683500D01*
X9476786Y-5669214D01*
X9519643Y-5669214D01*
X9548214Y-5683500D01*
X9562500Y-5712071D01*
X9562500Y-5869214D01*
X9562500Y-5712071D02*
X9576786Y-5683500D01*
X9605357Y-5669214D01*
X9648214Y-5669214D01*
X9676786Y-5683500D01*
X9691071Y-5712071D01*
X9691071Y-5869214D01*
X10276786Y-5554929D02*
X10019643Y-5940643D01*
X10662500Y-5569214D02*
X10691071Y-5569214D01*
X10719643Y-5583500D01*
X10733928Y-5597786D01*
X10748214Y-5626357D01*
X10762500Y-5683500D01*
X10762500Y-5754929D01*
X10748214Y-5812071D01*
X10733928Y-5840643D01*
X10719643Y-5854929D01*
X10691071Y-5869214D01*
X10662500Y-5869214D01*
X10633928Y-5854929D01*
X10619643Y-5840643D01*
X10605357Y-5812071D01*
X10591071Y-5754929D01*
X10591071Y-5683500D01*
X10605357Y-5626357D01*
X10619643Y-5597786D01*
X10633928Y-5583500D01*
X10662500Y-5569214D01*
X10891071Y-5840643D02*
X10905357Y-5854929D01*
X10891071Y-5869214D01*
X10876786Y-5854929D01*
X10891071Y-5840643D01*
X10891071Y-5869214D01*
X11091071Y-5569214D02*
X11119643Y-5569214D01*
X11148214Y-5583500D01*
X11162500Y-5597786D01*
X11176786Y-5626357D01*
X11191071Y-5683500D01*
X11191071Y-5754929D01*
X11176786Y-5812071D01*
X11162500Y-5840643D01*
X11148214Y-5854929D01*
X11119643Y-5869214D01*
X11091071Y-5869214D01*
X11062500Y-5854929D01*
X11048214Y-5840643D01*
X11033928Y-5812071D01*
X11019643Y-5754929D01*
X11019643Y-5683500D01*
X11033928Y-5626357D01*
X11048214Y-5597786D01*
X11062500Y-5583500D01*
X11091071Y-5569214D01*
X11305357Y-5597786D02*
X11319643Y-5583500D01*
X11348214Y-5569214D01*
X11419643Y-5569214D01*
X11448214Y-5583500D01*
X11462500Y-5597786D01*
X11476786Y-5626357D01*
X11476786Y-5654929D01*
X11462500Y-5697786D01*
X11291071Y-5869214D01*
X11476786Y-5869214D01*
X11662500Y-5569214D02*
X11691071Y-5569214D01*
X11719643Y-5583500D01*
X11733928Y-5597786D01*
X11748214Y-5626357D01*
X11762500Y-5683500D01*
X11762500Y-5754929D01*
X11748214Y-5812071D01*
X11733928Y-5840643D01*
X11719643Y-5854929D01*
X11691071Y-5869214D01*
X11662500Y-5869214D01*
X11633928Y-5854929D01*
X11619643Y-5840643D01*
X11605357Y-5812071D01*
X11591071Y-5754929D01*
X11591071Y-5683500D01*
X11605357Y-5626357D01*
X11619643Y-5597786D01*
X11633928Y-5583500D01*
X11662500Y-5569214D01*
X11876786Y-5569214D02*
X11876786Y-5626357D01*
X11991071Y-5569214D02*
X11991071Y-5626357D01*
X12433928Y-5983500D02*
X12419643Y-5969214D01*
X12391071Y-5926357D01*
X12376786Y-5897786D01*
X12362500Y-5854929D01*
X12348214Y-5783500D01*
X12348214Y-5726357D01*
X12362500Y-5654929D01*
X12376786Y-5612071D01*
X12391071Y-5583500D01*
X12419643Y-5540643D01*
X12433928Y-5526357D01*
X12605357Y-5569214D02*
X12633928Y-5569214D01*
X12662500Y-5583500D01*
X12676786Y-5597786D01*
X12691071Y-5626357D01*
X12705357Y-5683500D01*
X12705357Y-5754929D01*
X12691071Y-5812071D01*
X12676786Y-5840643D01*
X12662500Y-5854929D01*
X12633928Y-5869214D01*
X12605357Y-5869214D01*
X12576786Y-5854929D01*
X12562500Y-5840643D01*
X12548214Y-5812071D01*
X12533928Y-5754929D01*
X12533928Y-5683500D01*
X12548214Y-5626357D01*
X12562500Y-5597786D01*
X12576786Y-5583500D01*
X12605357Y-5569214D01*
X13062500Y-5869214D02*
X13062500Y-5569214D01*
X13191071Y-5869214D02*
X13191071Y-5712071D01*
X13176786Y-5683500D01*
X13148214Y-5669214D01*
X13105357Y-5669214D01*
X13076786Y-5683500D01*
X13062500Y-5697786D01*
X13376786Y-5869214D02*
X13348214Y-5854929D01*
X13333928Y-5840643D01*
X13319643Y-5812071D01*
X13319643Y-5726357D01*
X13333928Y-5697786D01*
X13348214Y-5683500D01*
X13376786Y-5669214D01*
X13419643Y-5669214D01*
X13448214Y-5683500D01*
X13462500Y-5697786D01*
X13476786Y-5726357D01*
X13476786Y-5812071D01*
X13462500Y-5840643D01*
X13448214Y-5854929D01*
X13419643Y-5869214D01*
X13376786Y-5869214D01*
X13648214Y-5869214D02*
X13619643Y-5854929D01*
X13605357Y-5826357D01*
X13605357Y-5569214D01*
X13876786Y-5854929D02*
X13848214Y-5869214D01*
X13791071Y-5869214D01*
X13762500Y-5854929D01*
X13748214Y-5826357D01*
X13748214Y-5712071D01*
X13762500Y-5683500D01*
X13791071Y-5669214D01*
X13848214Y-5669214D01*
X13876786Y-5683500D01*
X13891071Y-5712071D01*
X13891071Y-5740643D01*
X13748214Y-5769214D01*
X14005357Y-5854929D02*
X14033928Y-5869214D01*
X14091071Y-5869214D01*
X14119643Y-5854929D01*
X14133928Y-5826357D01*
X14133928Y-5812071D01*
X14119643Y-5783500D01*
X14091071Y-5769214D01*
X14048214Y-5769214D01*
X14019643Y-5754929D01*
X14005357Y-5726357D01*
X14005357Y-5712071D01*
X14019643Y-5683500D01*
X14048214Y-5669214D01*
X14091071Y-5669214D01*
X14119643Y-5683500D01*
X14491071Y-5754929D02*
X14719643Y-5754929D01*
X14605357Y-5869214D02*
X14605357Y-5640643D01*
X15076786Y-5597786D02*
X15091071Y-5583500D01*
X15119643Y-5569214D01*
X15191071Y-5569214D01*
X15219643Y-5583500D01*
X15233928Y-5597786D01*
X15248214Y-5626357D01*
X15248214Y-5654929D01*
X15233928Y-5697786D01*
X15062500Y-5869214D01*
X15248214Y-5869214D01*
X15591071Y-5854929D02*
X15619643Y-5869214D01*
X15676786Y-5869214D01*
X15705357Y-5854929D01*
X15719643Y-5826357D01*
X15719643Y-5812071D01*
X15705357Y-5783500D01*
X15676786Y-5769214D01*
X15633928Y-5769214D01*
X15605357Y-5754929D01*
X15591071Y-5726357D01*
X15591071Y-5712071D01*
X15605357Y-5683500D01*
X15633928Y-5669214D01*
X15676786Y-5669214D01*
X15705357Y-5683500D01*
X15891071Y-5869214D02*
X15862500Y-5854929D01*
X15848214Y-5826357D01*
X15848214Y-5569214D01*
X16048214Y-5869214D02*
X16019643Y-5854929D01*
X16005357Y-5840643D01*
X15991071Y-5812071D01*
X15991071Y-5726357D01*
X16005357Y-5697786D01*
X16019643Y-5683500D01*
X16048214Y-5669214D01*
X16091071Y-5669214D01*
X16119643Y-5683500D01*
X16133928Y-5697786D01*
X16148214Y-5726357D01*
X16148214Y-5812071D01*
X16133928Y-5840643D01*
X16119643Y-5854929D01*
X16091071Y-5869214D01*
X16048214Y-5869214D01*
X16233928Y-5669214D02*
X16348214Y-5669214D01*
X16276786Y-5569214D02*
X16276786Y-5826357D01*
X16291071Y-5854929D01*
X16319643Y-5869214D01*
X16348214Y-5869214D01*
X16433928Y-5854929D02*
X16462500Y-5869214D01*
X16519643Y-5869214D01*
X16548214Y-5854929D01*
X16562500Y-5826357D01*
X16562500Y-5812071D01*
X16548214Y-5783500D01*
X16519643Y-5769214D01*
X16476786Y-5769214D01*
X16448214Y-5754929D01*
X16433928Y-5726357D01*
X16433928Y-5712071D01*
X16448214Y-5683500D01*
X16476786Y-5669214D01*
X16519643Y-5669214D01*
X16548214Y-5683500D01*
X16662500Y-5983500D02*
X16676786Y-5969214D01*
X16705357Y-5926357D01*
X16719643Y-5897786D01*
X16733928Y-5854929D01*
X16748214Y-5783500D01*
X16748214Y-5726357D01*
X16733928Y-5654929D01*
X16719643Y-5612071D01*
X16705357Y-5583500D01*
X16676786Y-5540643D01*
X16662500Y-5526357D01*
X7720000Y-6102000D02*
X7720000Y-6157000D01*
X7692500Y-6129500D02*
X7747500Y-6129500D01*
X8091071Y-5965214D02*
X8119643Y-5965214D01*
X8148214Y-5979500D01*
X8162500Y-5993786D01*
X8176786Y-6022357D01*
X8191071Y-6079500D01*
X8191071Y-6150929D01*
X8176786Y-6208071D01*
X8162500Y-6236643D01*
X8148214Y-6250929D01*
X8119643Y-6265214D01*
X8091071Y-6265214D01*
X8062500Y-6250929D01*
X8048214Y-6236643D01*
X8033928Y-6208071D01*
X8019643Y-6150929D01*
X8019643Y-6079500D01*
X8033928Y-6022357D01*
X8048214Y-5993786D01*
X8062500Y-5979500D01*
X8091071Y-5965214D01*
X8319643Y-6236643D02*
X8333928Y-6250929D01*
X8319643Y-6265214D01*
X8305357Y-6250929D01*
X8319643Y-6236643D01*
X8319643Y-6265214D01*
X8605357Y-5965214D02*
X8462500Y-5965214D01*
X8448214Y-6108071D01*
X8462500Y-6093786D01*
X8491071Y-6079500D01*
X8562500Y-6079500D01*
X8591071Y-6093786D01*
X8605357Y-6108071D01*
X8619643Y-6136643D01*
X8619643Y-6208071D01*
X8605357Y-6236643D01*
X8591071Y-6250929D01*
X8562500Y-6265214D01*
X8491071Y-6265214D01*
X8462500Y-6250929D01*
X8448214Y-6236643D01*
X8891071Y-5965214D02*
X8748214Y-5965214D01*
X8733928Y-6108071D01*
X8748214Y-6093786D01*
X8776786Y-6079500D01*
X8848214Y-6079500D01*
X8876786Y-6093786D01*
X8891071Y-6108071D01*
X8905357Y-6136643D01*
X8905357Y-6208071D01*
X8891071Y-6236643D01*
X8876786Y-6250929D01*
X8848214Y-6265214D01*
X8776786Y-6265214D01*
X8748214Y-6250929D01*
X8733928Y-6236643D01*
X9033928Y-6265214D02*
X9033928Y-6065214D01*
X9033928Y-6093786D02*
X9048214Y-6079500D01*
X9076786Y-6065214D01*
X9119643Y-6065214D01*
X9148214Y-6079500D01*
X9162500Y-6108071D01*
X9162500Y-6265214D01*
X9162500Y-6108071D02*
X9176786Y-6079500D01*
X9205357Y-6065214D01*
X9248214Y-6065214D01*
X9276786Y-6079500D01*
X9291071Y-6108071D01*
X9291071Y-6265214D01*
X9433928Y-6265214D02*
X9433928Y-6065214D01*
X9433928Y-6093786D02*
X9448214Y-6079500D01*
X9476786Y-6065214D01*
X9519643Y-6065214D01*
X9548214Y-6079500D01*
X9562500Y-6108071D01*
X9562500Y-6265214D01*
X9562500Y-6108071D02*
X9576786Y-6079500D01*
X9605357Y-6065214D01*
X9648214Y-6065214D01*
X9676786Y-6079500D01*
X9691071Y-6108071D01*
X9691071Y-6265214D01*
X10276786Y-5950929D02*
X10019643Y-6336643D01*
X10662500Y-5965214D02*
X10691071Y-5965214D01*
X10719643Y-5979500D01*
X10733928Y-5993786D01*
X10748214Y-6022357D01*
X10762500Y-6079500D01*
X10762500Y-6150929D01*
X10748214Y-6208071D01*
X10733928Y-6236643D01*
X10719643Y-6250929D01*
X10691071Y-6265214D01*
X10662500Y-6265214D01*
X10633928Y-6250929D01*
X10619643Y-6236643D01*
X10605357Y-6208071D01*
X10591071Y-6150929D01*
X10591071Y-6079500D01*
X10605357Y-6022357D01*
X10619643Y-5993786D01*
X10633928Y-5979500D01*
X10662500Y-5965214D01*
X10891071Y-6236643D02*
X10905357Y-6250929D01*
X10891071Y-6265214D01*
X10876786Y-6250929D01*
X10891071Y-6236643D01*
X10891071Y-6265214D01*
X11091071Y-5965214D02*
X11119643Y-5965214D01*
X11148214Y-5979500D01*
X11162500Y-5993786D01*
X11176786Y-6022357D01*
X11191071Y-6079500D01*
X11191071Y-6150929D01*
X11176786Y-6208071D01*
X11162500Y-6236643D01*
X11148214Y-6250929D01*
X11119643Y-6265214D01*
X11091071Y-6265214D01*
X11062500Y-6250929D01*
X11048214Y-6236643D01*
X11033928Y-6208071D01*
X11019643Y-6150929D01*
X11019643Y-6079500D01*
X11033928Y-6022357D01*
X11048214Y-5993786D01*
X11062500Y-5979500D01*
X11091071Y-5965214D01*
X11305357Y-5993786D02*
X11319643Y-5979500D01*
X11348214Y-5965214D01*
X11419643Y-5965214D01*
X11448214Y-5979500D01*
X11462500Y-5993786D01*
X11476786Y-6022357D01*
X11476786Y-6050929D01*
X11462500Y-6093786D01*
X11291071Y-6265214D01*
X11476786Y-6265214D01*
X11591071Y-5993786D02*
X11605357Y-5979500D01*
X11633928Y-5965214D01*
X11705357Y-5965214D01*
X11733928Y-5979500D01*
X11748214Y-5993786D01*
X11762500Y-6022357D01*
X11762500Y-6050929D01*
X11748214Y-6093786D01*
X11576786Y-6265214D01*
X11762500Y-6265214D01*
X11876786Y-5965214D02*
X11876786Y-6022357D01*
X11991071Y-5965214D02*
X11991071Y-6022357D01*
X12433928Y-6379500D02*
X12419643Y-6365214D01*
X12391071Y-6322357D01*
X12376786Y-6293786D01*
X12362500Y-6250929D01*
X12348214Y-6179500D01*
X12348214Y-6122357D01*
X12362500Y-6050929D01*
X12376786Y-6008071D01*
X12391071Y-5979500D01*
X12419643Y-5936643D01*
X12433928Y-5922357D01*
X12605357Y-5965214D02*
X12633928Y-5965214D01*
X12662500Y-5979500D01*
X12676786Y-5993786D01*
X12691071Y-6022357D01*
X12705357Y-6079500D01*
X12705357Y-6150929D01*
X12691071Y-6208071D01*
X12676786Y-6236643D01*
X12662500Y-6250929D01*
X12633928Y-6265214D01*
X12605357Y-6265214D01*
X12576786Y-6250929D01*
X12562500Y-6236643D01*
X12548214Y-6208071D01*
X12533928Y-6150929D01*
X12533928Y-6079500D01*
X12548214Y-6022357D01*
X12562500Y-5993786D01*
X12576786Y-5979500D01*
X12605357Y-5965214D01*
X13062500Y-6265214D02*
X13062500Y-5965214D01*
X13191071Y-6265214D02*
X13191071Y-6108071D01*
X13176786Y-6079500D01*
X13148214Y-6065214D01*
X13105357Y-6065214D01*
X13076786Y-6079500D01*
X13062500Y-6093786D01*
X13376786Y-6265214D02*
X13348214Y-6250929D01*
X13333928Y-6236643D01*
X13319643Y-6208071D01*
X13319643Y-6122357D01*
X13333928Y-6093786D01*
X13348214Y-6079500D01*
X13376786Y-6065214D01*
X13419643Y-6065214D01*
X13448214Y-6079500D01*
X13462500Y-6093786D01*
X13476786Y-6122357D01*
X13476786Y-6208071D01*
X13462500Y-6236643D01*
X13448214Y-6250929D01*
X13419643Y-6265214D01*
X13376786Y-6265214D01*
X13648214Y-6265214D02*
X13619643Y-6250929D01*
X13605357Y-6222357D01*
X13605357Y-5965214D01*
X13876786Y-6250929D02*
X13848214Y-6265214D01*
X13791071Y-6265214D01*
X13762500Y-6250929D01*
X13748214Y-6222357D01*
X13748214Y-6108071D01*
X13762500Y-6079500D01*
X13791071Y-6065214D01*
X13848214Y-6065214D01*
X13876786Y-6079500D01*
X13891071Y-6108071D01*
X13891071Y-6136643D01*
X13748214Y-6165214D01*
X14005357Y-6250929D02*
X14033928Y-6265214D01*
X14091071Y-6265214D01*
X14119643Y-6250929D01*
X14133928Y-6222357D01*
X14133928Y-6208071D01*
X14119643Y-6179500D01*
X14091071Y-6165214D01*
X14048214Y-6165214D01*
X14019643Y-6150929D01*
X14005357Y-6122357D01*
X14005357Y-6108071D01*
X14019643Y-6079500D01*
X14048214Y-6065214D01*
X14091071Y-6065214D01*
X14119643Y-6079500D01*
X14491071Y-6150929D02*
X14719643Y-6150929D01*
X14605357Y-6265214D02*
X14605357Y-6036643D01*
X15076786Y-5993786D02*
X15091071Y-5979500D01*
X15119643Y-5965214D01*
X15191071Y-5965214D01*
X15219643Y-5979500D01*
X15233928Y-5993786D01*
X15248214Y-6022357D01*
X15248214Y-6050929D01*
X15233928Y-6093786D01*
X15062500Y-6265214D01*
X15248214Y-6265214D01*
X15591071Y-6250929D02*
X15619643Y-6265214D01*
X15676786Y-6265214D01*
X15705357Y-6250929D01*
X15719643Y-6222357D01*
X15719643Y-6208071D01*
X15705357Y-6179500D01*
X15676786Y-6165214D01*
X15633928Y-6165214D01*
X15605357Y-6150929D01*
X15591071Y-6122357D01*
X15591071Y-6108071D01*
X15605357Y-6079500D01*
X15633928Y-6065214D01*
X15676786Y-6065214D01*
X15705357Y-6079500D01*
X15891071Y-6265214D02*
X15862500Y-6250929D01*
X15848214Y-6222357D01*
X15848214Y-5965214D01*
X16048214Y-6265214D02*
X16019643Y-6250929D01*
X16005357Y-6236643D01*
X15991071Y-6208071D01*
X15991071Y-6122357D01*
X16005357Y-6093786D01*
X16019643Y-6079500D01*
X16048214Y-6065214D01*
X16091071Y-6065214D01*
X16119643Y-6079500D01*
X16133928Y-6093786D01*
X16148214Y-6122357D01*
X16148214Y-6208071D01*
X16133928Y-6236643D01*
X16119643Y-6250929D01*
X16091071Y-6265214D01*
X16048214Y-6265214D01*
X16233928Y-6065214D02*
X16348214Y-6065214D01*
X16276786Y-5965214D02*
X16276786Y-6222357D01*
X16291071Y-6250929D01*
X16319643Y-6265214D01*
X16348214Y-6265214D01*
X16433928Y-6250929D02*
X16462500Y-6265214D01*
X16519643Y-6265214D01*
X16548214Y-6250929D01*
X16562500Y-6222357D01*
X16562500Y-6208071D01*
X16548214Y-6179500D01*
X16519643Y-6165214D01*
X16476786Y-6165214D01*
X16448214Y-6150929D01*
X16433928Y-6122357D01*
X16433928Y-6108071D01*
X16448214Y-6079500D01*
X16476786Y-6065214D01*
X16519643Y-6065214D01*
X16548214Y-6079500D01*
X16662500Y-6379500D02*
X16676786Y-6365214D01*
X16705357Y-6322357D01*
X16719643Y-6293786D01*
X16733928Y-6250929D01*
X16748214Y-6179500D01*
X16748214Y-6122357D01*
X16733928Y-6050929D01*
X16719643Y-6008071D01*
X16705357Y-5979500D01*
X16676786Y-5936643D01*
X16662500Y-5922357D01*
X7737249Y-6550249D02*
X7737249Y-6500751D01*
X7687751Y-6500751D01*
X7687751Y-6550249D01*
X7737249Y-6550249D01*
X8091071Y-6361214D02*
X8119643Y-6361214D01*
X8148214Y-6375500D01*
X8162500Y-6389786D01*
X8176786Y-6418357D01*
X8191071Y-6475500D01*
X8191071Y-6546929D01*
X8176786Y-6604071D01*
X8162500Y-6632643D01*
X8148214Y-6646929D01*
X8119643Y-6661214D01*
X8091071Y-6661214D01*
X8062500Y-6646929D01*
X8048214Y-6632643D01*
X8033928Y-6604071D01*
X8019643Y-6546929D01*
X8019643Y-6475500D01*
X8033928Y-6418357D01*
X8048214Y-6389786D01*
X8062500Y-6375500D01*
X8091071Y-6361214D01*
X8319643Y-6632643D02*
X8333928Y-6646929D01*
X8319643Y-6661214D01*
X8305357Y-6646929D01*
X8319643Y-6632643D01*
X8319643Y-6661214D01*
X8433928Y-6361214D02*
X8633928Y-6361214D01*
X8505357Y-6661214D01*
X8805357Y-6361214D02*
X8833928Y-6361214D01*
X8862500Y-6375500D01*
X8876786Y-6389786D01*
X8891071Y-6418357D01*
X8905357Y-6475500D01*
X8905357Y-6546929D01*
X8891071Y-6604071D01*
X8876786Y-6632643D01*
X8862500Y-6646929D01*
X8833928Y-6661214D01*
X8805357Y-6661214D01*
X8776786Y-6646929D01*
X8762500Y-6632643D01*
X8748214Y-6604071D01*
X8733928Y-6546929D01*
X8733928Y-6475500D01*
X8748214Y-6418357D01*
X8762500Y-6389786D01*
X8776786Y-6375500D01*
X8805357Y-6361214D01*
X9033928Y-6661214D02*
X9033928Y-6461214D01*
X9033928Y-6489786D02*
X9048214Y-6475500D01*
X9076786Y-6461214D01*
X9119643Y-6461214D01*
X9148214Y-6475500D01*
X9162500Y-6504071D01*
X9162500Y-6661214D01*
X9162500Y-6504071D02*
X9176786Y-6475500D01*
X9205357Y-6461214D01*
X9248214Y-6461214D01*
X9276786Y-6475500D01*
X9291071Y-6504071D01*
X9291071Y-6661214D01*
X9433928Y-6661214D02*
X9433928Y-6461214D01*
X9433928Y-6489786D02*
X9448214Y-6475500D01*
X9476786Y-6461214D01*
X9519643Y-6461214D01*
X9548214Y-6475500D01*
X9562500Y-6504071D01*
X9562500Y-6661214D01*
X9562500Y-6504071D02*
X9576786Y-6475500D01*
X9605357Y-6461214D01*
X9648214Y-6461214D01*
X9676786Y-6475500D01*
X9691071Y-6504071D01*
X9691071Y-6661214D01*
X10276786Y-6346929D02*
X10019643Y-6732643D01*
X10662500Y-6361214D02*
X10691071Y-6361214D01*
X10719643Y-6375500D01*
X10733928Y-6389786D01*
X10748214Y-6418357D01*
X10762500Y-6475500D01*
X10762500Y-6546929D01*
X10748214Y-6604071D01*
X10733928Y-6632643D01*
X10719643Y-6646929D01*
X10691071Y-6661214D01*
X10662500Y-6661214D01*
X10633928Y-6646929D01*
X10619643Y-6632643D01*
X10605357Y-6604071D01*
X10591071Y-6546929D01*
X10591071Y-6475500D01*
X10605357Y-6418357D01*
X10619643Y-6389786D01*
X10633928Y-6375500D01*
X10662500Y-6361214D01*
X10891071Y-6632643D02*
X10905357Y-6646929D01*
X10891071Y-6661214D01*
X10876786Y-6646929D01*
X10891071Y-6632643D01*
X10891071Y-6661214D01*
X11091071Y-6361214D02*
X11119643Y-6361214D01*
X11148214Y-6375500D01*
X11162500Y-6389786D01*
X11176786Y-6418357D01*
X11191071Y-6475500D01*
X11191071Y-6546929D01*
X11176786Y-6604071D01*
X11162500Y-6632643D01*
X11148214Y-6646929D01*
X11119643Y-6661214D01*
X11091071Y-6661214D01*
X11062500Y-6646929D01*
X11048214Y-6632643D01*
X11033928Y-6604071D01*
X11019643Y-6546929D01*
X11019643Y-6475500D01*
X11033928Y-6418357D01*
X11048214Y-6389786D01*
X11062500Y-6375500D01*
X11091071Y-6361214D01*
X11305357Y-6389786D02*
X11319643Y-6375500D01*
X11348214Y-6361214D01*
X11419643Y-6361214D01*
X11448214Y-6375500D01*
X11462500Y-6389786D01*
X11476786Y-6418357D01*
X11476786Y-6446929D01*
X11462500Y-6489786D01*
X11291071Y-6661214D01*
X11476786Y-6661214D01*
X11648214Y-6489786D02*
X11619643Y-6475500D01*
X11605357Y-6461214D01*
X11591071Y-6432643D01*
X11591071Y-6418357D01*
X11605357Y-6389786D01*
X11619643Y-6375500D01*
X11648214Y-6361214D01*
X11705357Y-6361214D01*
X11733928Y-6375500D01*
X11748214Y-6389786D01*
X11762500Y-6418357D01*
X11762500Y-6432643D01*
X11748214Y-6461214D01*
X11733928Y-6475500D01*
X11705357Y-6489786D01*
X11648214Y-6489786D01*
X11619643Y-6504071D01*
X11605357Y-6518357D01*
X11591071Y-6546929D01*
X11591071Y-6604071D01*
X11605357Y-6632643D01*
X11619643Y-6646929D01*
X11648214Y-6661214D01*
X11705357Y-6661214D01*
X11733928Y-6646929D01*
X11748214Y-6632643D01*
X11762500Y-6604071D01*
X11762500Y-6546929D01*
X11748214Y-6518357D01*
X11733928Y-6504071D01*
X11705357Y-6489786D01*
X11876786Y-6361214D02*
X11876786Y-6418357D01*
X11991071Y-6361214D02*
X11991071Y-6418357D01*
X12433928Y-6775500D02*
X12419643Y-6761214D01*
X12391071Y-6718357D01*
X12376786Y-6689786D01*
X12362500Y-6646929D01*
X12348214Y-6575500D01*
X12348214Y-6518357D01*
X12362500Y-6446929D01*
X12376786Y-6404071D01*
X12391071Y-6375500D01*
X12419643Y-6332643D01*
X12433928Y-6318357D01*
X12591071Y-6489786D02*
X12562500Y-6475500D01*
X12548214Y-6461214D01*
X12533928Y-6432643D01*
X12533928Y-6418357D01*
X12548214Y-6389786D01*
X12562500Y-6375500D01*
X12591071Y-6361214D01*
X12648214Y-6361214D01*
X12676786Y-6375500D01*
X12691071Y-6389786D01*
X12705357Y-6418357D01*
X12705357Y-6432643D01*
X12691071Y-6461214D01*
X12676786Y-6475500D01*
X12648214Y-6489786D01*
X12591071Y-6489786D01*
X12562500Y-6504071D01*
X12548214Y-6518357D01*
X12533928Y-6546929D01*
X12533928Y-6604071D01*
X12548214Y-6632643D01*
X12562500Y-6646929D01*
X12591071Y-6661214D01*
X12648214Y-6661214D01*
X12676786Y-6646929D01*
X12691071Y-6632643D01*
X12705357Y-6604071D01*
X12705357Y-6546929D01*
X12691071Y-6518357D01*
X12676786Y-6504071D01*
X12648214Y-6489786D01*
X13062500Y-6661214D02*
X13062500Y-6361214D01*
X13191071Y-6661214D02*
X13191071Y-6504071D01*
X13176786Y-6475500D01*
X13148214Y-6461214D01*
X13105357Y-6461214D01*
X13076786Y-6475500D01*
X13062500Y-6489786D01*
X13376786Y-6661214D02*
X13348214Y-6646929D01*
X13333928Y-6632643D01*
X13319643Y-6604071D01*
X13319643Y-6518357D01*
X13333928Y-6489786D01*
X13348214Y-6475500D01*
X13376786Y-6461214D01*
X13419643Y-6461214D01*
X13448214Y-6475500D01*
X13462500Y-6489786D01*
X13476786Y-6518357D01*
X13476786Y-6604071D01*
X13462500Y-6632643D01*
X13448214Y-6646929D01*
X13419643Y-6661214D01*
X13376786Y-6661214D01*
X13648214Y-6661214D02*
X13619643Y-6646929D01*
X13605357Y-6618357D01*
X13605357Y-6361214D01*
X13876786Y-6646929D02*
X13848214Y-6661214D01*
X13791071Y-6661214D01*
X13762500Y-6646929D01*
X13748214Y-6618357D01*
X13748214Y-6504071D01*
X13762500Y-6475500D01*
X13791071Y-6461214D01*
X13848214Y-6461214D01*
X13876786Y-6475500D01*
X13891071Y-6504071D01*
X13891071Y-6532643D01*
X13748214Y-6561214D01*
X14005357Y-6646929D02*
X14033928Y-6661214D01*
X14091071Y-6661214D01*
X14119643Y-6646929D01*
X14133928Y-6618357D01*
X14133928Y-6604071D01*
X14119643Y-6575500D01*
X14091071Y-6561214D01*
X14048214Y-6561214D01*
X14019643Y-6546929D01*
X14005357Y-6518357D01*
X14005357Y-6504071D01*
X14019643Y-6475500D01*
X14048214Y-6461214D01*
X14091071Y-6461214D01*
X14119643Y-6475500D01*
X14233928Y-6775500D02*
X14248214Y-6761214D01*
X14276786Y-6718357D01*
X14291071Y-6689786D01*
X14305357Y-6646929D01*
X14319643Y-6575500D01*
X14319643Y-6518357D01*
X14305357Y-6446929D01*
X14291071Y-6404071D01*
X14276786Y-6375500D01*
X14248214Y-6332643D01*
X14233928Y-6318357D01*
X7707500Y-6961500D02*
X7747500Y-6921500D01*
X7707500Y-6881500D01*
X7667500Y-6921500D01*
X7707500Y-6961500D01*
X8091071Y-6757214D02*
X8119643Y-6757214D01*
X8148214Y-6771500D01*
X8162500Y-6785786D01*
X8176786Y-6814357D01*
X8191071Y-6871500D01*
X8191071Y-6942929D01*
X8176786Y-7000071D01*
X8162500Y-7028643D01*
X8148214Y-7042929D01*
X8119643Y-7057214D01*
X8091071Y-7057214D01*
X8062500Y-7042929D01*
X8048214Y-7028643D01*
X8033928Y-7000071D01*
X8019643Y-6942929D01*
X8019643Y-6871500D01*
X8033928Y-6814357D01*
X8048214Y-6785786D01*
X8062500Y-6771500D01*
X8091071Y-6757214D01*
X8319643Y-7028643D02*
X8333928Y-7042929D01*
X8319643Y-7057214D01*
X8305357Y-7042929D01*
X8319643Y-7028643D01*
X8319643Y-7057214D01*
X8505357Y-6885786D02*
X8476786Y-6871500D01*
X8462500Y-6857214D01*
X8448214Y-6828643D01*
X8448214Y-6814357D01*
X8462500Y-6785786D01*
X8476786Y-6771500D01*
X8505357Y-6757214D01*
X8562500Y-6757214D01*
X8591071Y-6771500D01*
X8605357Y-6785786D01*
X8619643Y-6814357D01*
X8619643Y-6828643D01*
X8605357Y-6857214D01*
X8591071Y-6871500D01*
X8562500Y-6885786D01*
X8505357Y-6885786D01*
X8476786Y-6900071D01*
X8462500Y-6914357D01*
X8448214Y-6942929D01*
X8448214Y-7000071D01*
X8462500Y-7028643D01*
X8476786Y-7042929D01*
X8505357Y-7057214D01*
X8562500Y-7057214D01*
X8591071Y-7042929D01*
X8605357Y-7028643D01*
X8619643Y-7000071D01*
X8619643Y-6942929D01*
X8605357Y-6914357D01*
X8591071Y-6900071D01*
X8562500Y-6885786D01*
X8805357Y-6757214D02*
X8833928Y-6757214D01*
X8862500Y-6771500D01*
X8876786Y-6785786D01*
X8891071Y-6814357D01*
X8905357Y-6871500D01*
X8905357Y-6942929D01*
X8891071Y-7000071D01*
X8876786Y-7028643D01*
X8862500Y-7042929D01*
X8833928Y-7057214D01*
X8805357Y-7057214D01*
X8776786Y-7042929D01*
X8762500Y-7028643D01*
X8748214Y-7000071D01*
X8733928Y-6942929D01*
X8733928Y-6871500D01*
X8748214Y-6814357D01*
X8762500Y-6785786D01*
X8776786Y-6771500D01*
X8805357Y-6757214D01*
X9033928Y-7057214D02*
X9033928Y-6857214D01*
X9033928Y-6885786D02*
X9048214Y-6871500D01*
X9076786Y-6857214D01*
X9119643Y-6857214D01*
X9148214Y-6871500D01*
X9162500Y-6900071D01*
X9162500Y-7057214D01*
X9162500Y-6900071D02*
X9176786Y-6871500D01*
X9205357Y-6857214D01*
X9248214Y-6857214D01*
X9276786Y-6871500D01*
X9291071Y-6900071D01*
X9291071Y-7057214D01*
X9433928Y-7057214D02*
X9433928Y-6857214D01*
X9433928Y-6885786D02*
X9448214Y-6871500D01*
X9476786Y-6857214D01*
X9519643Y-6857214D01*
X9548214Y-6871500D01*
X9562500Y-6900071D01*
X9562500Y-7057214D01*
X9562500Y-6900071D02*
X9576786Y-6871500D01*
X9605357Y-6857214D01*
X9648214Y-6857214D01*
X9676786Y-6871500D01*
X9691071Y-6900071D01*
X9691071Y-7057214D01*
X10276786Y-6742929D02*
X10019643Y-7128643D01*
X10662500Y-6757214D02*
X10691071Y-6757214D01*
X10719643Y-6771500D01*
X10733928Y-6785786D01*
X10748214Y-6814357D01*
X10762500Y-6871500D01*
X10762500Y-6942929D01*
X10748214Y-7000071D01*
X10733928Y-7028643D01*
X10719643Y-7042929D01*
X10691071Y-7057214D01*
X10662500Y-7057214D01*
X10633928Y-7042929D01*
X10619643Y-7028643D01*
X10605357Y-7000071D01*
X10591071Y-6942929D01*
X10591071Y-6871500D01*
X10605357Y-6814357D01*
X10619643Y-6785786D01*
X10633928Y-6771500D01*
X10662500Y-6757214D01*
X10891071Y-7028643D02*
X10905357Y-7042929D01*
X10891071Y-7057214D01*
X10876786Y-7042929D01*
X10891071Y-7028643D01*
X10891071Y-7057214D01*
X11091071Y-6757214D02*
X11119643Y-6757214D01*
X11148214Y-6771500D01*
X11162500Y-6785786D01*
X11176786Y-6814357D01*
X11191071Y-6871500D01*
X11191071Y-6942929D01*
X11176786Y-7000071D01*
X11162500Y-7028643D01*
X11148214Y-7042929D01*
X11119643Y-7057214D01*
X11091071Y-7057214D01*
X11062500Y-7042929D01*
X11048214Y-7028643D01*
X11033928Y-7000071D01*
X11019643Y-6942929D01*
X11019643Y-6871500D01*
X11033928Y-6814357D01*
X11048214Y-6785786D01*
X11062500Y-6771500D01*
X11091071Y-6757214D01*
X11291071Y-6757214D02*
X11476786Y-6757214D01*
X11376786Y-6871500D01*
X11419643Y-6871500D01*
X11448214Y-6885786D01*
X11462500Y-6900071D01*
X11476786Y-6928643D01*
X11476786Y-7000071D01*
X11462500Y-7028643D01*
X11448214Y-7042929D01*
X11419643Y-7057214D01*
X11333928Y-7057214D01*
X11305357Y-7042929D01*
X11291071Y-7028643D01*
X11762500Y-7057214D02*
X11591071Y-7057214D01*
X11676786Y-7057214D02*
X11676786Y-6757214D01*
X11648214Y-6800071D01*
X11619643Y-6828643D01*
X11591071Y-6842929D01*
X11876786Y-6757214D02*
X11876786Y-6814357D01*
X11991071Y-6757214D02*
X11991071Y-6814357D01*
X12433928Y-7171500D02*
X12419643Y-7157214D01*
X12391071Y-7114357D01*
X12376786Y-7085786D01*
X12362500Y-7042929D01*
X12348214Y-6971500D01*
X12348214Y-6914357D01*
X12362500Y-6842929D01*
X12376786Y-6800071D01*
X12391071Y-6771500D01*
X12419643Y-6728643D01*
X12433928Y-6714357D01*
X12519643Y-6757214D02*
X12705357Y-6757214D01*
X12605357Y-6871500D01*
X12648214Y-6871500D01*
X12676786Y-6885786D01*
X12691071Y-6900071D01*
X12705357Y-6928643D01*
X12705357Y-7000071D01*
X12691071Y-7028643D01*
X12676786Y-7042929D01*
X12648214Y-7057214D01*
X12562500Y-7057214D01*
X12533928Y-7042929D01*
X12519643Y-7028643D01*
X13062500Y-7057214D02*
X13062500Y-6757214D01*
X13191071Y-7057214D02*
X13191071Y-6900071D01*
X13176786Y-6871500D01*
X13148214Y-6857214D01*
X13105357Y-6857214D01*
X13076786Y-6871500D01*
X13062500Y-6885786D01*
X13376786Y-7057214D02*
X13348214Y-7042929D01*
X13333928Y-7028643D01*
X13319643Y-7000071D01*
X13319643Y-6914357D01*
X13333928Y-6885786D01*
X13348214Y-6871500D01*
X13376786Y-6857214D01*
X13419643Y-6857214D01*
X13448214Y-6871500D01*
X13462500Y-6885786D01*
X13476786Y-6914357D01*
X13476786Y-7000071D01*
X13462500Y-7028643D01*
X13448214Y-7042929D01*
X13419643Y-7057214D01*
X13376786Y-7057214D01*
X13648214Y-7057214D02*
X13619643Y-7042929D01*
X13605357Y-7014357D01*
X13605357Y-6757214D01*
X13876786Y-7042929D02*
X13848214Y-7057214D01*
X13791071Y-7057214D01*
X13762500Y-7042929D01*
X13748214Y-7014357D01*
X13748214Y-6900071D01*
X13762500Y-6871500D01*
X13791071Y-6857214D01*
X13848214Y-6857214D01*
X13876786Y-6871500D01*
X13891071Y-6900071D01*
X13891071Y-6928643D01*
X13748214Y-6957214D01*
X14005357Y-7042929D02*
X14033928Y-7057214D01*
X14091071Y-7057214D01*
X14119643Y-7042929D01*
X14133928Y-7014357D01*
X14133928Y-7000071D01*
X14119643Y-6971500D01*
X14091071Y-6957214D01*
X14048214Y-6957214D01*
X14019643Y-6942929D01*
X14005357Y-6914357D01*
X14005357Y-6900071D01*
X14019643Y-6871500D01*
X14048214Y-6857214D01*
X14091071Y-6857214D01*
X14119643Y-6871500D01*
X14233928Y-7171500D02*
X14248214Y-7157214D01*
X14276786Y-7114357D01*
X14291071Y-7085786D01*
X14305357Y-7042929D01*
X14319643Y-6971500D01*
X14319643Y-6914357D01*
X14305357Y-6842929D01*
X14291071Y-6800071D01*
X14276786Y-6771500D01*
X14248214Y-6728643D01*
X14233928Y-6714357D01*
X7497500Y-7192500D02*
X7747500Y-7442500D01*
X7747500Y-7192500D02*
X7497500Y-7442500D01*
X7747500Y-7317500D02*
G75*
G03X7747500Y-7317500I-125000J0D01*
G01*
X8019643Y-7181786D02*
X8033928Y-7167500D01*
X8062500Y-7153214D01*
X8133928Y-7153214D01*
X8162500Y-7167500D01*
X8176786Y-7181786D01*
X8191071Y-7210357D01*
X8191071Y-7238929D01*
X8176786Y-7281786D01*
X8005357Y-7453214D01*
X8191071Y-7453214D01*
X8319643Y-7424643D02*
X8333928Y-7438929D01*
X8319643Y-7453214D01*
X8305357Y-7438929D01*
X8319643Y-7424643D01*
X8319643Y-7453214D01*
X8605357Y-7153214D02*
X8462500Y-7153214D01*
X8448214Y-7296071D01*
X8462500Y-7281786D01*
X8491071Y-7267500D01*
X8562500Y-7267500D01*
X8591071Y-7281786D01*
X8605357Y-7296071D01*
X8619643Y-7324643D01*
X8619643Y-7396071D01*
X8605357Y-7424643D01*
X8591071Y-7438929D01*
X8562500Y-7453214D01*
X8491071Y-7453214D01*
X8462500Y-7438929D01*
X8448214Y-7424643D01*
X8805357Y-7153214D02*
X8833928Y-7153214D01*
X8862500Y-7167500D01*
X8876786Y-7181786D01*
X8891071Y-7210357D01*
X8905357Y-7267500D01*
X8905357Y-7338929D01*
X8891071Y-7396071D01*
X8876786Y-7424643D01*
X8862500Y-7438929D01*
X8833928Y-7453214D01*
X8805357Y-7453214D01*
X8776786Y-7438929D01*
X8762500Y-7424643D01*
X8748214Y-7396071D01*
X8733928Y-7338929D01*
X8733928Y-7267500D01*
X8748214Y-7210357D01*
X8762500Y-7181786D01*
X8776786Y-7167500D01*
X8805357Y-7153214D01*
X9033928Y-7453214D02*
X9033928Y-7253214D01*
X9033928Y-7281786D02*
X9048214Y-7267500D01*
X9076786Y-7253214D01*
X9119643Y-7253214D01*
X9148214Y-7267500D01*
X9162500Y-7296071D01*
X9162500Y-7453214D01*
X9162500Y-7296071D02*
X9176786Y-7267500D01*
X9205357Y-7253214D01*
X9248214Y-7253214D01*
X9276786Y-7267500D01*
X9291071Y-7296071D01*
X9291071Y-7453214D01*
X9433928Y-7453214D02*
X9433928Y-7253214D01*
X9433928Y-7281786D02*
X9448214Y-7267500D01*
X9476786Y-7253214D01*
X9519643Y-7253214D01*
X9548214Y-7267500D01*
X9562500Y-7296071D01*
X9562500Y-7453214D01*
X9562500Y-7296071D02*
X9576786Y-7267500D01*
X9605357Y-7253214D01*
X9648214Y-7253214D01*
X9676786Y-7267500D01*
X9691071Y-7296071D01*
X9691071Y-7453214D01*
X10276786Y-7138929D02*
X10019643Y-7524643D01*
X10662500Y-7153214D02*
X10691071Y-7153214D01*
X10719643Y-7167500D01*
X10733928Y-7181786D01*
X10748214Y-7210357D01*
X10762500Y-7267500D01*
X10762500Y-7338929D01*
X10748214Y-7396071D01*
X10733928Y-7424643D01*
X10719643Y-7438929D01*
X10691071Y-7453214D01*
X10662500Y-7453214D01*
X10633928Y-7438929D01*
X10619643Y-7424643D01*
X10605357Y-7396071D01*
X10591071Y-7338929D01*
X10591071Y-7267500D01*
X10605357Y-7210357D01*
X10619643Y-7181786D01*
X10633928Y-7167500D01*
X10662500Y-7153214D01*
X10891071Y-7424643D02*
X10905357Y-7438929D01*
X10891071Y-7453214D01*
X10876786Y-7438929D01*
X10891071Y-7424643D01*
X10891071Y-7453214D01*
X11091071Y-7153214D02*
X11119643Y-7153214D01*
X11148214Y-7167500D01*
X11162500Y-7181786D01*
X11176786Y-7210357D01*
X11191071Y-7267500D01*
X11191071Y-7338929D01*
X11176786Y-7396071D01*
X11162500Y-7424643D01*
X11148214Y-7438929D01*
X11119643Y-7453214D01*
X11091071Y-7453214D01*
X11062500Y-7438929D01*
X11048214Y-7424643D01*
X11033928Y-7396071D01*
X11019643Y-7338929D01*
X11019643Y-7267500D01*
X11033928Y-7210357D01*
X11048214Y-7181786D01*
X11062500Y-7167500D01*
X11091071Y-7153214D01*
X11333928Y-7453214D02*
X11391071Y-7453214D01*
X11419643Y-7438929D01*
X11433928Y-7424643D01*
X11462500Y-7381786D01*
X11476786Y-7324643D01*
X11476786Y-7210357D01*
X11462500Y-7181786D01*
X11448214Y-7167500D01*
X11419643Y-7153214D01*
X11362500Y-7153214D01*
X11333928Y-7167500D01*
X11319643Y-7181786D01*
X11305357Y-7210357D01*
X11305357Y-7281786D01*
X11319643Y-7310357D01*
X11333928Y-7324643D01*
X11362500Y-7338929D01*
X11419643Y-7338929D01*
X11448214Y-7324643D01*
X11462500Y-7310357D01*
X11476786Y-7281786D01*
X11648214Y-7281786D02*
X11619643Y-7267500D01*
X11605357Y-7253214D01*
X11591071Y-7224643D01*
X11591071Y-7210357D01*
X11605357Y-7181786D01*
X11619643Y-7167500D01*
X11648214Y-7153214D01*
X11705357Y-7153214D01*
X11733928Y-7167500D01*
X11748214Y-7181786D01*
X11762500Y-7210357D01*
X11762500Y-7224643D01*
X11748214Y-7253214D01*
X11733928Y-7267500D01*
X11705357Y-7281786D01*
X11648214Y-7281786D01*
X11619643Y-7296071D01*
X11605357Y-7310357D01*
X11591071Y-7338929D01*
X11591071Y-7396071D01*
X11605357Y-7424643D01*
X11619643Y-7438929D01*
X11648214Y-7453214D01*
X11705357Y-7453214D01*
X11733928Y-7438929D01*
X11748214Y-7424643D01*
X11762500Y-7396071D01*
X11762500Y-7338929D01*
X11748214Y-7310357D01*
X11733928Y-7296071D01*
X11705357Y-7281786D01*
X11876786Y-7153214D02*
X11876786Y-7210357D01*
X11991071Y-7153214D02*
X11991071Y-7210357D01*
X12433928Y-7567500D02*
X12419643Y-7553214D01*
X12391071Y-7510357D01*
X12376786Y-7481786D01*
X12362500Y-7438929D01*
X12348214Y-7367500D01*
X12348214Y-7310357D01*
X12362500Y-7238929D01*
X12376786Y-7196071D01*
X12391071Y-7167500D01*
X12419643Y-7124643D01*
X12433928Y-7110357D01*
X12533928Y-7181786D02*
X12548214Y-7167500D01*
X12576786Y-7153214D01*
X12648214Y-7153214D01*
X12676786Y-7167500D01*
X12691071Y-7181786D01*
X12705357Y-7210357D01*
X12705357Y-7238929D01*
X12691071Y-7281786D01*
X12519643Y-7453214D01*
X12705357Y-7453214D01*
X13062500Y-7453214D02*
X13062500Y-7153214D01*
X13191071Y-7453214D02*
X13191071Y-7296071D01*
X13176786Y-7267500D01*
X13148214Y-7253214D01*
X13105357Y-7253214D01*
X13076786Y-7267500D01*
X13062500Y-7281786D01*
X13376786Y-7453214D02*
X13348214Y-7438929D01*
X13333928Y-7424643D01*
X13319643Y-7396071D01*
X13319643Y-7310357D01*
X13333928Y-7281786D01*
X13348214Y-7267500D01*
X13376786Y-7253214D01*
X13419643Y-7253214D01*
X13448214Y-7267500D01*
X13462500Y-7281786D01*
X13476786Y-7310357D01*
X13476786Y-7396071D01*
X13462500Y-7424643D01*
X13448214Y-7438929D01*
X13419643Y-7453214D01*
X13376786Y-7453214D01*
X13648214Y-7453214D02*
X13619643Y-7438929D01*
X13605357Y-7410357D01*
X13605357Y-7153214D01*
X13876786Y-7438929D02*
X13848214Y-7453214D01*
X13791071Y-7453214D01*
X13762500Y-7438929D01*
X13748214Y-7410357D01*
X13748214Y-7296071D01*
X13762500Y-7267500D01*
X13791071Y-7253214D01*
X13848214Y-7253214D01*
X13876786Y-7267500D01*
X13891071Y-7296071D01*
X13891071Y-7324643D01*
X13748214Y-7353214D01*
X14005357Y-7438929D02*
X14033928Y-7453214D01*
X14091071Y-7453214D01*
X14119643Y-7438929D01*
X14133928Y-7410357D01*
X14133928Y-7396071D01*
X14119643Y-7367500D01*
X14091071Y-7353214D01*
X14048214Y-7353214D01*
X14019643Y-7338929D01*
X14005357Y-7310357D01*
X14005357Y-7296071D01*
X14019643Y-7267500D01*
X14048214Y-7253214D01*
X14091071Y-7253214D01*
X14119643Y-7267500D01*
X14233928Y-7567500D02*
X14248214Y-7553214D01*
X14276786Y-7510357D01*
X14291071Y-7481786D01*
X14305357Y-7438929D01*
X14319643Y-7367500D01*
X14319643Y-7310357D01*
X14305357Y-7238929D01*
X14291071Y-7196071D01*
X14276786Y-7167500D01*
X14248214Y-7124643D01*
X14233928Y-7110357D01*
M02*
