G04 #@! TF.GenerationSoftware,KiCad,Pcbnew,5.1.5+dfsg1-2build2*
G04 #@! TF.CreationDate,2021-12-26T17:25:33+01:00*
G04 #@! TF.ProjectId,combined,636f6d62-696e-4656-942e-6b696361645f,rev?*
G04 #@! TF.SameCoordinates,Original*
G04 #@! TF.FileFunction,Legend,Top*
G04 #@! TF.FilePolarity,Positive*
%FSLAX46Y46*%
G04 Gerber Fmt 4.6, Leading zero omitted, Abs format (unit mm)*
G04 Created by KiCad (PCBNEW 5.1.5+dfsg1-2build2) date 2021-12-26 17:25:33*
%MOMM*%
%LPD*%
G04 APERTURE LIST*
%ADD10C,0.120000*%
%ADD11C,0.150000*%
%ADD12C,0.100000*%
%ADD13C,1.202000*%
%ADD14R,1.852000X0.552000*%
%ADD15C,3.602000*%
%ADD16O,1.652000X0.992000*%
%ADD17R,1.652000X1.302000*%
%ADD18R,1.652000X1.602000*%
%ADD19O,1.052000X1.352000*%
%ADD20R,1.452000X0.502000*%
%ADD21R,1.202000X1.202000*%
G04 APERTURE END LIST*
D10*
X82960800Y-34995800D02*
X82960800Y-37880800D01*
X84780800Y-34995800D02*
X82960800Y-34995800D01*
X84780800Y-37880800D02*
X84780800Y-34995800D01*
X86107241Y-37872400D02*
X85799959Y-37872400D01*
X86107241Y-38632400D02*
X85799959Y-38632400D01*
X92890000Y-39112500D02*
X92890000Y-40912500D01*
X92890000Y-39112500D02*
X92890000Y-38312500D01*
X96010000Y-39112500D02*
X96010000Y-39912500D01*
X96010000Y-39112500D02*
X96010000Y-38312500D01*
D11*
X110875000Y-37850000D02*
X112475000Y-37850000D01*
X110875000Y-29425000D02*
X105125000Y-29425000D01*
X110875000Y-38075000D02*
X105125000Y-38075000D01*
X110875000Y-29425000D02*
X110875000Y-29725000D01*
X105125000Y-29425000D02*
X105125000Y-29725000D01*
X105125000Y-38075000D02*
X105125000Y-37775000D01*
X110875000Y-38075000D02*
X110875000Y-37850000D01*
D10*
X93610000Y-34660000D02*
X94900000Y-34660000D01*
X93610000Y-35110000D02*
X93610000Y-34660000D01*
X93160000Y-35110000D02*
X93610000Y-35110000D01*
X86390000Y-35110000D02*
X86390000Y-34660000D01*
X86840000Y-35110000D02*
X86390000Y-35110000D01*
X93610000Y-27890000D02*
X93610000Y-28340000D01*
X93160000Y-27890000D02*
X93610000Y-27890000D01*
X86390000Y-27890000D02*
X86390000Y-28340000D01*
X86840000Y-27890000D02*
X86390000Y-27890000D01*
X101346359Y-27880000D02*
X101653641Y-27880000D01*
X101346359Y-27120000D02*
X101653641Y-27120000D01*
X97130000Y-41403641D02*
X97130000Y-41096359D01*
X96370000Y-41403641D02*
X96370000Y-41096359D01*
X99130000Y-37403641D02*
X99130000Y-37096359D01*
X98370000Y-37403641D02*
X98370000Y-37096359D01*
X101130000Y-29403641D02*
X101130000Y-29096359D01*
X100370000Y-29403641D02*
X100370000Y-29096359D01*
X100583241Y-38583600D02*
X100275959Y-38583600D01*
X100583241Y-39343600D02*
X100275959Y-39343600D01*
X79930000Y-37510000D02*
X81910000Y-37510000D01*
X81910000Y-37510000D02*
X81910000Y-37090000D01*
X77960000Y-37510000D02*
X77560000Y-37510000D01*
X77560000Y-29990000D02*
X77960000Y-29990000D01*
X79930000Y-29990000D02*
X81910000Y-29990000D01*
X81910000Y-29990000D02*
X81910000Y-30410000D01*
X82590000Y-32440000D02*
X82590000Y-31990000D01*
X82140000Y-31990000D02*
X82590000Y-31990000D01*
X85700000Y-41000000D02*
X81850000Y-41000000D01*
X85700000Y-39000000D02*
X81850000Y-39000000D01*
X85700000Y-41000000D02*
X85700000Y-39000000D01*
X85950000Y-28000000D02*
X82100000Y-28000000D01*
X85950000Y-26000000D02*
X82100000Y-26000000D01*
X85950000Y-28000000D02*
X85950000Y-26000000D01*
X96056564Y-32008400D02*
X96272236Y-32008400D01*
X96056564Y-31288400D02*
X96272236Y-31288400D01*
X89837836Y-36890000D02*
X89622164Y-36890000D01*
X89837836Y-37610000D02*
X89622164Y-37610000D01*
X90267200Y-39335764D02*
X90267200Y-39551436D01*
X90987200Y-39335764D02*
X90987200Y-39551436D01*
X96056564Y-33380000D02*
X96272236Y-33380000D01*
X96056564Y-32660000D02*
X96272236Y-32660000D01*
X92257200Y-40415036D02*
X92257200Y-40199364D01*
X91537200Y-40415036D02*
X91537200Y-40199364D01*
D11*
X85999580Y-37212495D02*
X84999580Y-37212495D01*
X84999580Y-36974400D01*
X85047200Y-36831542D01*
X85142438Y-36736304D01*
X85237676Y-36688685D01*
X85428152Y-36641066D01*
X85571009Y-36641066D01*
X85761485Y-36688685D01*
X85856723Y-36736304D01*
X85951961Y-36831542D01*
X85999580Y-36974400D01*
X85999580Y-37212495D01*
X85999580Y-35688685D02*
X85999580Y-36260114D01*
X85999580Y-35974400D02*
X84999580Y-35974400D01*
X85142438Y-36069638D01*
X85237676Y-36164876D01*
X85285295Y-36260114D01*
X86752133Y-39822380D02*
X86418800Y-39346190D01*
X86180704Y-39822380D02*
X86180704Y-38822380D01*
X86561657Y-38822380D01*
X86656895Y-38870000D01*
X86704514Y-38917619D01*
X86752133Y-39012857D01*
X86752133Y-39155714D01*
X86704514Y-39250952D01*
X86656895Y-39298571D01*
X86561657Y-39346190D01*
X86180704Y-39346190D01*
X87609276Y-38822380D02*
X87418800Y-38822380D01*
X87323561Y-38870000D01*
X87275942Y-38917619D01*
X87180704Y-39060476D01*
X87133085Y-39250952D01*
X87133085Y-39631904D01*
X87180704Y-39727142D01*
X87228323Y-39774761D01*
X87323561Y-39822380D01*
X87514038Y-39822380D01*
X87609276Y-39774761D01*
X87656895Y-39727142D01*
X87704514Y-39631904D01*
X87704514Y-39393809D01*
X87656895Y-39298571D01*
X87609276Y-39250952D01*
X87514038Y-39203333D01*
X87323561Y-39203333D01*
X87228323Y-39250952D01*
X87180704Y-39298571D01*
X87133085Y-39393809D01*
X91705180Y-39166704D02*
X92514704Y-39166704D01*
X92609942Y-39119085D01*
X92657561Y-39071466D01*
X92705180Y-38976228D01*
X92705180Y-38785752D01*
X92657561Y-38690514D01*
X92609942Y-38642895D01*
X92514704Y-38595276D01*
X91705180Y-38595276D01*
X91705180Y-38214323D02*
X91705180Y-37595276D01*
X92086133Y-37928609D01*
X92086133Y-37785752D01*
X92133752Y-37690514D01*
X92181371Y-37642895D01*
X92276609Y-37595276D01*
X92514704Y-37595276D01*
X92609942Y-37642895D01*
X92657561Y-37690514D01*
X92705180Y-37785752D01*
X92705180Y-38071466D01*
X92657561Y-38166704D01*
X92609942Y-38214323D01*
X108988095Y-27952380D02*
X108988095Y-28761904D01*
X109035714Y-28857142D01*
X109083333Y-28904761D01*
X109178571Y-28952380D01*
X109369047Y-28952380D01*
X109464285Y-28904761D01*
X109511904Y-28857142D01*
X109559523Y-28761904D01*
X109559523Y-27952380D01*
X110511904Y-27952380D02*
X110035714Y-27952380D01*
X109988095Y-28428571D01*
X110035714Y-28380952D01*
X110130952Y-28333333D01*
X110369047Y-28333333D01*
X110464285Y-28380952D01*
X110511904Y-28428571D01*
X110559523Y-28523809D01*
X110559523Y-28761904D01*
X110511904Y-28857142D01*
X110464285Y-28904761D01*
X110369047Y-28952380D01*
X110130952Y-28952380D01*
X110035714Y-28904761D01*
X109988095Y-28857142D01*
X93488095Y-26452380D02*
X93488095Y-27261904D01*
X93535714Y-27357142D01*
X93583333Y-27404761D01*
X93678571Y-27452380D01*
X93869047Y-27452380D01*
X93964285Y-27404761D01*
X94011904Y-27357142D01*
X94059523Y-27261904D01*
X94059523Y-26452380D01*
X94964285Y-26785714D02*
X94964285Y-27452380D01*
X94726190Y-26404761D02*
X94488095Y-27119047D01*
X95107142Y-27119047D01*
X101333333Y-26782380D02*
X101000000Y-26306190D01*
X100761904Y-26782380D02*
X100761904Y-25782380D01*
X101142857Y-25782380D01*
X101238095Y-25830000D01*
X101285714Y-25877619D01*
X101333333Y-25972857D01*
X101333333Y-26115714D01*
X101285714Y-26210952D01*
X101238095Y-26258571D01*
X101142857Y-26306190D01*
X100761904Y-26306190D01*
X102238095Y-25782380D02*
X101761904Y-25782380D01*
X101714285Y-26258571D01*
X101761904Y-26210952D01*
X101857142Y-26163333D01*
X102095238Y-26163333D01*
X102190476Y-26210952D01*
X102238095Y-26258571D01*
X102285714Y-26353809D01*
X102285714Y-26591904D01*
X102238095Y-26687142D01*
X102190476Y-26734761D01*
X102095238Y-26782380D01*
X101857142Y-26782380D01*
X101761904Y-26734761D01*
X101714285Y-26687142D01*
X97978933Y-42413180D02*
X97645600Y-41936990D01*
X97407504Y-42413180D02*
X97407504Y-41413180D01*
X97788457Y-41413180D01*
X97883695Y-41460800D01*
X97931314Y-41508419D01*
X97978933Y-41603657D01*
X97978933Y-41746514D01*
X97931314Y-41841752D01*
X97883695Y-41889371D01*
X97788457Y-41936990D01*
X97407504Y-41936990D01*
X98836076Y-41746514D02*
X98836076Y-42413180D01*
X98597980Y-41365561D02*
X98359885Y-42079847D01*
X98978933Y-42079847D01*
X97115333Y-37790380D02*
X96782000Y-37314190D01*
X96543904Y-37790380D02*
X96543904Y-36790380D01*
X96924857Y-36790380D01*
X97020095Y-36838000D01*
X97067714Y-36885619D01*
X97115333Y-36980857D01*
X97115333Y-37123714D01*
X97067714Y-37218952D01*
X97020095Y-37266571D01*
X96924857Y-37314190D01*
X96543904Y-37314190D01*
X97448666Y-36790380D02*
X98067714Y-36790380D01*
X97734380Y-37171333D01*
X97877238Y-37171333D01*
X97972476Y-37218952D01*
X98020095Y-37266571D01*
X98067714Y-37361809D01*
X98067714Y-37599904D01*
X98020095Y-37695142D01*
X97972476Y-37742761D01*
X97877238Y-37790380D01*
X97591523Y-37790380D01*
X97496285Y-37742761D01*
X97448666Y-37695142D01*
X99952380Y-30166666D02*
X99476190Y-30500000D01*
X99952380Y-30738095D02*
X98952380Y-30738095D01*
X98952380Y-30357142D01*
X99000000Y-30261904D01*
X99047619Y-30214285D01*
X99142857Y-30166666D01*
X99285714Y-30166666D01*
X99380952Y-30214285D01*
X99428571Y-30261904D01*
X99476190Y-30357142D01*
X99476190Y-30738095D01*
X99047619Y-29785714D02*
X99000000Y-29738095D01*
X98952380Y-29642857D01*
X98952380Y-29404761D01*
X99000000Y-29309523D01*
X99047619Y-29261904D01*
X99142857Y-29214285D01*
X99238095Y-29214285D01*
X99380952Y-29261904D01*
X99952380Y-29833333D01*
X99952380Y-29214285D01*
X101433333Y-40635180D02*
X101100000Y-40158990D01*
X100861904Y-40635180D02*
X100861904Y-39635180D01*
X101242857Y-39635180D01*
X101338095Y-39682800D01*
X101385714Y-39730419D01*
X101433333Y-39825657D01*
X101433333Y-39968514D01*
X101385714Y-40063752D01*
X101338095Y-40111371D01*
X101242857Y-40158990D01*
X100861904Y-40158990D01*
X102385714Y-40635180D02*
X101814285Y-40635180D01*
X102100000Y-40635180D02*
X102100000Y-39635180D01*
X102004761Y-39778038D01*
X101909523Y-39873276D01*
X101814285Y-39920895D01*
X83202380Y-34238095D02*
X84011904Y-34238095D01*
X84107142Y-34190476D01*
X84154761Y-34142857D01*
X84202380Y-34047619D01*
X84202380Y-33857142D01*
X84154761Y-33761904D01*
X84107142Y-33714285D01*
X84011904Y-33666666D01*
X83202380Y-33666666D01*
X84154761Y-33238095D02*
X84202380Y-33095238D01*
X84202380Y-32857142D01*
X84154761Y-32761904D01*
X84107142Y-32714285D01*
X84011904Y-32666666D01*
X83916666Y-32666666D01*
X83821428Y-32714285D01*
X83773809Y-32761904D01*
X83726190Y-32857142D01*
X83678571Y-33047619D01*
X83630952Y-33142857D01*
X83583333Y-33190476D01*
X83488095Y-33238095D01*
X83392857Y-33238095D01*
X83297619Y-33190476D01*
X83250000Y-33142857D01*
X83202380Y-33047619D01*
X83202380Y-32809523D01*
X83250000Y-32666666D01*
X83678571Y-31904761D02*
X83726190Y-31761904D01*
X83773809Y-31714285D01*
X83869047Y-31666666D01*
X84011904Y-31666666D01*
X84107142Y-31714285D01*
X84154761Y-31761904D01*
X84202380Y-31857142D01*
X84202380Y-32238095D01*
X83202380Y-32238095D01*
X83202380Y-31904761D01*
X83250000Y-31809523D01*
X83297619Y-31761904D01*
X83392857Y-31714285D01*
X83488095Y-31714285D01*
X83583333Y-31761904D01*
X83630952Y-31809523D01*
X83678571Y-31904761D01*
X83678571Y-32238095D01*
X84202380Y-30714285D02*
X84202380Y-31285714D01*
X84202380Y-31000000D02*
X83202380Y-31000000D01*
X83345238Y-31095238D01*
X83440476Y-31190476D01*
X83488095Y-31285714D01*
X82888904Y-42252380D02*
X82888904Y-41252380D01*
X83127000Y-41252380D01*
X83269857Y-41300000D01*
X83365095Y-41395238D01*
X83412714Y-41490476D01*
X83460333Y-41680952D01*
X83460333Y-41823809D01*
X83412714Y-42014285D01*
X83365095Y-42109523D01*
X83269857Y-42204761D01*
X83127000Y-42252380D01*
X82888904Y-42252380D01*
X83793666Y-41252380D02*
X84412714Y-41252380D01*
X84079380Y-41633333D01*
X84222238Y-41633333D01*
X84317476Y-41680952D01*
X84365095Y-41728571D01*
X84412714Y-41823809D01*
X84412714Y-42061904D01*
X84365095Y-42157142D01*
X84317476Y-42204761D01*
X84222238Y-42252380D01*
X83936523Y-42252380D01*
X83841285Y-42204761D01*
X83793666Y-42157142D01*
X83138904Y-29357380D02*
X83138904Y-28357380D01*
X83377000Y-28357380D01*
X83519857Y-28405000D01*
X83615095Y-28500238D01*
X83662714Y-28595476D01*
X83710333Y-28785952D01*
X83710333Y-28928809D01*
X83662714Y-29119285D01*
X83615095Y-29214523D01*
X83519857Y-29309761D01*
X83377000Y-29357380D01*
X83138904Y-29357380D01*
X84091285Y-28452619D02*
X84138904Y-28405000D01*
X84234142Y-28357380D01*
X84472238Y-28357380D01*
X84567476Y-28405000D01*
X84615095Y-28452619D01*
X84662714Y-28547857D01*
X84662714Y-28643095D01*
X84615095Y-28785952D01*
X84043666Y-29357380D01*
X84662714Y-29357380D01*
X95997733Y-30845542D02*
X95950114Y-30893161D01*
X95807257Y-30940780D01*
X95712019Y-30940780D01*
X95569161Y-30893161D01*
X95473923Y-30797923D01*
X95426304Y-30702685D01*
X95378685Y-30512209D01*
X95378685Y-30369352D01*
X95426304Y-30178876D01*
X95473923Y-30083638D01*
X95569161Y-29988400D01*
X95712019Y-29940780D01*
X95807257Y-29940780D01*
X95950114Y-29988400D01*
X95997733Y-30036019D01*
X96902495Y-29940780D02*
X96426304Y-29940780D01*
X96378685Y-30416971D01*
X96426304Y-30369352D01*
X96521542Y-30321733D01*
X96759638Y-30321733D01*
X96854876Y-30369352D01*
X96902495Y-30416971D01*
X96950114Y-30512209D01*
X96950114Y-30750304D01*
X96902495Y-30845542D01*
X96854876Y-30893161D01*
X96759638Y-30940780D01*
X96521542Y-30940780D01*
X96426304Y-30893161D01*
X96378685Y-30845542D01*
X89139733Y-38660342D02*
X89092114Y-38707961D01*
X88949257Y-38755580D01*
X88854019Y-38755580D01*
X88711161Y-38707961D01*
X88615923Y-38612723D01*
X88568304Y-38517485D01*
X88520685Y-38327009D01*
X88520685Y-38184152D01*
X88568304Y-37993676D01*
X88615923Y-37898438D01*
X88711161Y-37803200D01*
X88854019Y-37755580D01*
X88949257Y-37755580D01*
X89092114Y-37803200D01*
X89139733Y-37850819D01*
X89996876Y-38088914D02*
X89996876Y-38755580D01*
X89758780Y-37707961D02*
X89520685Y-38422247D01*
X90139733Y-38422247D01*
X89139733Y-40235142D02*
X89092114Y-40282761D01*
X88949257Y-40330380D01*
X88854019Y-40330380D01*
X88711161Y-40282761D01*
X88615923Y-40187523D01*
X88568304Y-40092285D01*
X88520685Y-39901809D01*
X88520685Y-39758952D01*
X88568304Y-39568476D01*
X88615923Y-39473238D01*
X88711161Y-39378000D01*
X88854019Y-39330380D01*
X88949257Y-39330380D01*
X89092114Y-39378000D01*
X89139733Y-39425619D01*
X89473066Y-39330380D02*
X90092114Y-39330380D01*
X89758780Y-39711333D01*
X89901638Y-39711333D01*
X89996876Y-39758952D01*
X90044495Y-39806571D01*
X90092114Y-39901809D01*
X90092114Y-40139904D01*
X90044495Y-40235142D01*
X89996876Y-40282761D01*
X89901638Y-40330380D01*
X89615923Y-40330380D01*
X89520685Y-40282761D01*
X89473066Y-40235142D01*
X95997733Y-34627142D02*
X95950114Y-34674761D01*
X95807257Y-34722380D01*
X95712019Y-34722380D01*
X95569161Y-34674761D01*
X95473923Y-34579523D01*
X95426304Y-34484285D01*
X95378685Y-34293809D01*
X95378685Y-34150952D01*
X95426304Y-33960476D01*
X95473923Y-33865238D01*
X95569161Y-33770000D01*
X95712019Y-33722380D01*
X95807257Y-33722380D01*
X95950114Y-33770000D01*
X95997733Y-33817619D01*
X96378685Y-33817619D02*
X96426304Y-33770000D01*
X96521542Y-33722380D01*
X96759638Y-33722380D01*
X96854876Y-33770000D01*
X96902495Y-33817619D01*
X96950114Y-33912857D01*
X96950114Y-34008095D01*
X96902495Y-34150952D01*
X96331066Y-34722380D01*
X96950114Y-34722380D01*
X90663733Y-41657542D02*
X90616114Y-41705161D01*
X90473257Y-41752780D01*
X90378019Y-41752780D01*
X90235161Y-41705161D01*
X90139923Y-41609923D01*
X90092304Y-41514685D01*
X90044685Y-41324209D01*
X90044685Y-41181352D01*
X90092304Y-40990876D01*
X90139923Y-40895638D01*
X90235161Y-40800400D01*
X90378019Y-40752780D01*
X90473257Y-40752780D01*
X90616114Y-40800400D01*
X90663733Y-40848019D01*
X91616114Y-41752780D02*
X91044685Y-41752780D01*
X91330400Y-41752780D02*
X91330400Y-40752780D01*
X91235161Y-40895638D01*
X91139923Y-40990876D01*
X91044685Y-41038495D01*
%LPC*%
D12*
G36*
X84328612Y-37131098D02*
G01*
X84354784Y-37134981D01*
X84380450Y-37141410D01*
X84405362Y-37150323D01*
X84429281Y-37161636D01*
X84451975Y-37175238D01*
X84473227Y-37191000D01*
X84492832Y-37208768D01*
X84510600Y-37228373D01*
X84526362Y-37249625D01*
X84539964Y-37272319D01*
X84551277Y-37296238D01*
X84560190Y-37321150D01*
X84566619Y-37346816D01*
X84570502Y-37372988D01*
X84571800Y-37399415D01*
X84571800Y-38287185D01*
X84570502Y-38313612D01*
X84566619Y-38339784D01*
X84560190Y-38365450D01*
X84551277Y-38390362D01*
X84539964Y-38414281D01*
X84526362Y-38436975D01*
X84510600Y-38458227D01*
X84492832Y-38477832D01*
X84473227Y-38495600D01*
X84451975Y-38511362D01*
X84429281Y-38524964D01*
X84405362Y-38536277D01*
X84380450Y-38545190D01*
X84354784Y-38551619D01*
X84328612Y-38555502D01*
X84302185Y-38556800D01*
X83439415Y-38556800D01*
X83412988Y-38555502D01*
X83386816Y-38551619D01*
X83361150Y-38545190D01*
X83336238Y-38536277D01*
X83312319Y-38524964D01*
X83289625Y-38511362D01*
X83268373Y-38495600D01*
X83248768Y-38477832D01*
X83231000Y-38458227D01*
X83215238Y-38436975D01*
X83201636Y-38414281D01*
X83190323Y-38390362D01*
X83181410Y-38365450D01*
X83174981Y-38339784D01*
X83171098Y-38313612D01*
X83169800Y-38287185D01*
X83169800Y-37399415D01*
X83171098Y-37372988D01*
X83174981Y-37346816D01*
X83181410Y-37321150D01*
X83190323Y-37296238D01*
X83201636Y-37272319D01*
X83215238Y-37249625D01*
X83231000Y-37228373D01*
X83248768Y-37208768D01*
X83268373Y-37191000D01*
X83289625Y-37175238D01*
X83312319Y-37161636D01*
X83336238Y-37150323D01*
X83361150Y-37141410D01*
X83386816Y-37134981D01*
X83412988Y-37131098D01*
X83439415Y-37129800D01*
X84302185Y-37129800D01*
X84328612Y-37131098D01*
G37*
G36*
X84328612Y-35206098D02*
G01*
X84354784Y-35209981D01*
X84380450Y-35216410D01*
X84405362Y-35225323D01*
X84429281Y-35236636D01*
X84451975Y-35250238D01*
X84473227Y-35266000D01*
X84492832Y-35283768D01*
X84510600Y-35303373D01*
X84526362Y-35324625D01*
X84539964Y-35347319D01*
X84551277Y-35371238D01*
X84560190Y-35396150D01*
X84566619Y-35421816D01*
X84570502Y-35447988D01*
X84571800Y-35474415D01*
X84571800Y-36362185D01*
X84570502Y-36388612D01*
X84566619Y-36414784D01*
X84560190Y-36440450D01*
X84551277Y-36465362D01*
X84539964Y-36489281D01*
X84526362Y-36511975D01*
X84510600Y-36533227D01*
X84492832Y-36552832D01*
X84473227Y-36570600D01*
X84451975Y-36586362D01*
X84429281Y-36599964D01*
X84405362Y-36611277D01*
X84380450Y-36620190D01*
X84354784Y-36626619D01*
X84328612Y-36630502D01*
X84302185Y-36631800D01*
X83439415Y-36631800D01*
X83412988Y-36630502D01*
X83386816Y-36626619D01*
X83361150Y-36620190D01*
X83336238Y-36611277D01*
X83312319Y-36599964D01*
X83289625Y-36586362D01*
X83268373Y-36570600D01*
X83248768Y-36552832D01*
X83231000Y-36533227D01*
X83215238Y-36511975D01*
X83201636Y-36489281D01*
X83190323Y-36465362D01*
X83181410Y-36440450D01*
X83174981Y-36414784D01*
X83171098Y-36388612D01*
X83169800Y-36362185D01*
X83169800Y-35474415D01*
X83171098Y-35447988D01*
X83174981Y-35421816D01*
X83181410Y-35396150D01*
X83190323Y-35371238D01*
X83201636Y-35347319D01*
X83215238Y-35324625D01*
X83231000Y-35303373D01*
X83248768Y-35283768D01*
X83268373Y-35266000D01*
X83289625Y-35250238D01*
X83312319Y-35236636D01*
X83336238Y-35225323D01*
X83361150Y-35216410D01*
X83386816Y-35209981D01*
X83412988Y-35206098D01*
X83439415Y-35204800D01*
X84302185Y-35204800D01*
X84328612Y-35206098D01*
G37*
G36*
X85619832Y-37882173D02*
G01*
X85635412Y-37884484D01*
X85650691Y-37888311D01*
X85665521Y-37893617D01*
X85679759Y-37900352D01*
X85693269Y-37908449D01*
X85705920Y-37917832D01*
X85717591Y-37928409D01*
X85728168Y-37940080D01*
X85737551Y-37952731D01*
X85745648Y-37966241D01*
X85752383Y-37980479D01*
X85757689Y-37995309D01*
X85761516Y-38010588D01*
X85763827Y-38026168D01*
X85764600Y-38041900D01*
X85764600Y-38462900D01*
X85763827Y-38478632D01*
X85761516Y-38494212D01*
X85757689Y-38509491D01*
X85752383Y-38524321D01*
X85745648Y-38538559D01*
X85737551Y-38552069D01*
X85728168Y-38564720D01*
X85717591Y-38576391D01*
X85705920Y-38586968D01*
X85693269Y-38596351D01*
X85679759Y-38604448D01*
X85665521Y-38611183D01*
X85650691Y-38616489D01*
X85635412Y-38620316D01*
X85619832Y-38622627D01*
X85604100Y-38623400D01*
X85283100Y-38623400D01*
X85267368Y-38622627D01*
X85251788Y-38620316D01*
X85236509Y-38616489D01*
X85221679Y-38611183D01*
X85207441Y-38604448D01*
X85193931Y-38596351D01*
X85181280Y-38586968D01*
X85169609Y-38576391D01*
X85159032Y-38564720D01*
X85149649Y-38552069D01*
X85141552Y-38538559D01*
X85134817Y-38524321D01*
X85129511Y-38509491D01*
X85125684Y-38494212D01*
X85123373Y-38478632D01*
X85122600Y-38462900D01*
X85122600Y-38041900D01*
X85123373Y-38026168D01*
X85125684Y-38010588D01*
X85129511Y-37995309D01*
X85134817Y-37980479D01*
X85141552Y-37966241D01*
X85149649Y-37952731D01*
X85159032Y-37940080D01*
X85169609Y-37928409D01*
X85181280Y-37917832D01*
X85193931Y-37908449D01*
X85207441Y-37900352D01*
X85221679Y-37893617D01*
X85236509Y-37888311D01*
X85251788Y-37884484D01*
X85267368Y-37882173D01*
X85283100Y-37881400D01*
X85604100Y-37881400D01*
X85619832Y-37882173D01*
G37*
G36*
X86639832Y-37882173D02*
G01*
X86655412Y-37884484D01*
X86670691Y-37888311D01*
X86685521Y-37893617D01*
X86699759Y-37900352D01*
X86713269Y-37908449D01*
X86725920Y-37917832D01*
X86737591Y-37928409D01*
X86748168Y-37940080D01*
X86757551Y-37952731D01*
X86765648Y-37966241D01*
X86772383Y-37980479D01*
X86777689Y-37995309D01*
X86781516Y-38010588D01*
X86783827Y-38026168D01*
X86784600Y-38041900D01*
X86784600Y-38462900D01*
X86783827Y-38478632D01*
X86781516Y-38494212D01*
X86777689Y-38509491D01*
X86772383Y-38524321D01*
X86765648Y-38538559D01*
X86757551Y-38552069D01*
X86748168Y-38564720D01*
X86737591Y-38576391D01*
X86725920Y-38586968D01*
X86713269Y-38596351D01*
X86699759Y-38604448D01*
X86685521Y-38611183D01*
X86670691Y-38616489D01*
X86655412Y-38620316D01*
X86639832Y-38622627D01*
X86624100Y-38623400D01*
X86303100Y-38623400D01*
X86287368Y-38622627D01*
X86271788Y-38620316D01*
X86256509Y-38616489D01*
X86241679Y-38611183D01*
X86227441Y-38604448D01*
X86213931Y-38596351D01*
X86201280Y-38586968D01*
X86189609Y-38576391D01*
X86179032Y-38564720D01*
X86169649Y-38552069D01*
X86161552Y-38538559D01*
X86154817Y-38524321D01*
X86149511Y-38509491D01*
X86145684Y-38494212D01*
X86143373Y-38478632D01*
X86142600Y-38462900D01*
X86142600Y-38041900D01*
X86143373Y-38026168D01*
X86145684Y-38010588D01*
X86149511Y-37995309D01*
X86154817Y-37980479D01*
X86161552Y-37966241D01*
X86169649Y-37952731D01*
X86179032Y-37940080D01*
X86189609Y-37928409D01*
X86201280Y-37917832D01*
X86213931Y-37908449D01*
X86227441Y-37900352D01*
X86241679Y-37893617D01*
X86256509Y-37888311D01*
X86271788Y-37884484D01*
X86287368Y-37882173D01*
X86303100Y-37881400D01*
X86624100Y-37881400D01*
X86639832Y-37882173D01*
G37*
G36*
X93692702Y-37262345D02*
G01*
X93709738Y-37264872D01*
X93726445Y-37269057D01*
X93742661Y-37274859D01*
X93758230Y-37282223D01*
X93773003Y-37291077D01*
X93786836Y-37301337D01*
X93799597Y-37312903D01*
X93811163Y-37325664D01*
X93821423Y-37339497D01*
X93830277Y-37354270D01*
X93837641Y-37369839D01*
X93843443Y-37386055D01*
X93847628Y-37402762D01*
X93850155Y-37419798D01*
X93851000Y-37437000D01*
X93851000Y-38513000D01*
X93850155Y-38530202D01*
X93847628Y-38547238D01*
X93843443Y-38563945D01*
X93837641Y-38580161D01*
X93830277Y-38595730D01*
X93821423Y-38610503D01*
X93811163Y-38624336D01*
X93799597Y-38637097D01*
X93786836Y-38648663D01*
X93773003Y-38658923D01*
X93758230Y-38667777D01*
X93742661Y-38675141D01*
X93726445Y-38680943D01*
X93709738Y-38685128D01*
X93692702Y-38687655D01*
X93675500Y-38688500D01*
X93324500Y-38688500D01*
X93307298Y-38687655D01*
X93290262Y-38685128D01*
X93273555Y-38680943D01*
X93257339Y-38675141D01*
X93241770Y-38667777D01*
X93226997Y-38658923D01*
X93213164Y-38648663D01*
X93200403Y-38637097D01*
X93188837Y-38624336D01*
X93178577Y-38610503D01*
X93169723Y-38595730D01*
X93162359Y-38580161D01*
X93156557Y-38563945D01*
X93152372Y-38547238D01*
X93149845Y-38530202D01*
X93149000Y-38513000D01*
X93149000Y-37437000D01*
X93149845Y-37419798D01*
X93152372Y-37402762D01*
X93156557Y-37386055D01*
X93162359Y-37369839D01*
X93169723Y-37354270D01*
X93178577Y-37339497D01*
X93188837Y-37325664D01*
X93200403Y-37312903D01*
X93213164Y-37301337D01*
X93226997Y-37291077D01*
X93241770Y-37282223D01*
X93257339Y-37274859D01*
X93273555Y-37269057D01*
X93290262Y-37264872D01*
X93307298Y-37262345D01*
X93324500Y-37261500D01*
X93675500Y-37261500D01*
X93692702Y-37262345D01*
G37*
G36*
X95592702Y-37262345D02*
G01*
X95609738Y-37264872D01*
X95626445Y-37269057D01*
X95642661Y-37274859D01*
X95658230Y-37282223D01*
X95673003Y-37291077D01*
X95686836Y-37301337D01*
X95699597Y-37312903D01*
X95711163Y-37325664D01*
X95721423Y-37339497D01*
X95730277Y-37354270D01*
X95737641Y-37369839D01*
X95743443Y-37386055D01*
X95747628Y-37402762D01*
X95750155Y-37419798D01*
X95751000Y-37437000D01*
X95751000Y-38513000D01*
X95750155Y-38530202D01*
X95747628Y-38547238D01*
X95743443Y-38563945D01*
X95737641Y-38580161D01*
X95730277Y-38595730D01*
X95721423Y-38610503D01*
X95711163Y-38624336D01*
X95699597Y-38637097D01*
X95686836Y-38648663D01*
X95673003Y-38658923D01*
X95658230Y-38667777D01*
X95642661Y-38675141D01*
X95626445Y-38680943D01*
X95609738Y-38685128D01*
X95592702Y-38687655D01*
X95575500Y-38688500D01*
X95224500Y-38688500D01*
X95207298Y-38687655D01*
X95190262Y-38685128D01*
X95173555Y-38680943D01*
X95157339Y-38675141D01*
X95141770Y-38667777D01*
X95126997Y-38658923D01*
X95113164Y-38648663D01*
X95100403Y-38637097D01*
X95088837Y-38624336D01*
X95078577Y-38610503D01*
X95069723Y-38595730D01*
X95062359Y-38580161D01*
X95056557Y-38563945D01*
X95052372Y-38547238D01*
X95049845Y-38530202D01*
X95049000Y-38513000D01*
X95049000Y-37437000D01*
X95049845Y-37419798D01*
X95052372Y-37402762D01*
X95056557Y-37386055D01*
X95062359Y-37369839D01*
X95069723Y-37354270D01*
X95078577Y-37339497D01*
X95088837Y-37325664D01*
X95100403Y-37312903D01*
X95113164Y-37301337D01*
X95126997Y-37291077D01*
X95141770Y-37282223D01*
X95157339Y-37274859D01*
X95173555Y-37269057D01*
X95190262Y-37264872D01*
X95207298Y-37262345D01*
X95224500Y-37261500D01*
X95575500Y-37261500D01*
X95592702Y-37262345D01*
G37*
G36*
X95592702Y-39537345D02*
G01*
X95609738Y-39539872D01*
X95626445Y-39544057D01*
X95642661Y-39549859D01*
X95658230Y-39557223D01*
X95673003Y-39566077D01*
X95686836Y-39576337D01*
X95699597Y-39587903D01*
X95711163Y-39600664D01*
X95721423Y-39614497D01*
X95730277Y-39629270D01*
X95737641Y-39644839D01*
X95743443Y-39661055D01*
X95747628Y-39677762D01*
X95750155Y-39694798D01*
X95751000Y-39712000D01*
X95751000Y-40788000D01*
X95750155Y-40805202D01*
X95747628Y-40822238D01*
X95743443Y-40838945D01*
X95737641Y-40855161D01*
X95730277Y-40870730D01*
X95721423Y-40885503D01*
X95711163Y-40899336D01*
X95699597Y-40912097D01*
X95686836Y-40923663D01*
X95673003Y-40933923D01*
X95658230Y-40942777D01*
X95642661Y-40950141D01*
X95626445Y-40955943D01*
X95609738Y-40960128D01*
X95592702Y-40962655D01*
X95575500Y-40963500D01*
X95224500Y-40963500D01*
X95207298Y-40962655D01*
X95190262Y-40960128D01*
X95173555Y-40955943D01*
X95157339Y-40950141D01*
X95141770Y-40942777D01*
X95126997Y-40933923D01*
X95113164Y-40923663D01*
X95100403Y-40912097D01*
X95088837Y-40899336D01*
X95078577Y-40885503D01*
X95069723Y-40870730D01*
X95062359Y-40855161D01*
X95056557Y-40838945D01*
X95052372Y-40822238D01*
X95049845Y-40805202D01*
X95049000Y-40788000D01*
X95049000Y-39712000D01*
X95049845Y-39694798D01*
X95052372Y-39677762D01*
X95056557Y-39661055D01*
X95062359Y-39644839D01*
X95069723Y-39629270D01*
X95078577Y-39614497D01*
X95088837Y-39600664D01*
X95100403Y-39587903D01*
X95113164Y-39576337D01*
X95126997Y-39566077D01*
X95141770Y-39557223D01*
X95157339Y-39549859D01*
X95173555Y-39544057D01*
X95190262Y-39539872D01*
X95207298Y-39537345D01*
X95224500Y-39536500D01*
X95575500Y-39536500D01*
X95592702Y-39537345D01*
G37*
G36*
X94642702Y-39537345D02*
G01*
X94659738Y-39539872D01*
X94676445Y-39544057D01*
X94692661Y-39549859D01*
X94708230Y-39557223D01*
X94723003Y-39566077D01*
X94736836Y-39576337D01*
X94749597Y-39587903D01*
X94761163Y-39600664D01*
X94771423Y-39614497D01*
X94780277Y-39629270D01*
X94787641Y-39644839D01*
X94793443Y-39661055D01*
X94797628Y-39677762D01*
X94800155Y-39694798D01*
X94801000Y-39712000D01*
X94801000Y-40788000D01*
X94800155Y-40805202D01*
X94797628Y-40822238D01*
X94793443Y-40838945D01*
X94787641Y-40855161D01*
X94780277Y-40870730D01*
X94771423Y-40885503D01*
X94761163Y-40899336D01*
X94749597Y-40912097D01*
X94736836Y-40923663D01*
X94723003Y-40933923D01*
X94708230Y-40942777D01*
X94692661Y-40950141D01*
X94676445Y-40955943D01*
X94659738Y-40960128D01*
X94642702Y-40962655D01*
X94625500Y-40963500D01*
X94274500Y-40963500D01*
X94257298Y-40962655D01*
X94240262Y-40960128D01*
X94223555Y-40955943D01*
X94207339Y-40950141D01*
X94191770Y-40942777D01*
X94176997Y-40933923D01*
X94163164Y-40923663D01*
X94150403Y-40912097D01*
X94138837Y-40899336D01*
X94128577Y-40885503D01*
X94119723Y-40870730D01*
X94112359Y-40855161D01*
X94106557Y-40838945D01*
X94102372Y-40822238D01*
X94099845Y-40805202D01*
X94099000Y-40788000D01*
X94099000Y-39712000D01*
X94099845Y-39694798D01*
X94102372Y-39677762D01*
X94106557Y-39661055D01*
X94112359Y-39644839D01*
X94119723Y-39629270D01*
X94128577Y-39614497D01*
X94138837Y-39600664D01*
X94150403Y-39587903D01*
X94163164Y-39576337D01*
X94176997Y-39566077D01*
X94191770Y-39557223D01*
X94207339Y-39549859D01*
X94223555Y-39544057D01*
X94240262Y-39539872D01*
X94257298Y-39537345D01*
X94274500Y-39536500D01*
X94625500Y-39536500D01*
X94642702Y-39537345D01*
G37*
G36*
X93692702Y-39537345D02*
G01*
X93709738Y-39539872D01*
X93726445Y-39544057D01*
X93742661Y-39549859D01*
X93758230Y-39557223D01*
X93773003Y-39566077D01*
X93786836Y-39576337D01*
X93799597Y-39587903D01*
X93811163Y-39600664D01*
X93821423Y-39614497D01*
X93830277Y-39629270D01*
X93837641Y-39644839D01*
X93843443Y-39661055D01*
X93847628Y-39677762D01*
X93850155Y-39694798D01*
X93851000Y-39712000D01*
X93851000Y-40788000D01*
X93850155Y-40805202D01*
X93847628Y-40822238D01*
X93843443Y-40838945D01*
X93837641Y-40855161D01*
X93830277Y-40870730D01*
X93821423Y-40885503D01*
X93811163Y-40899336D01*
X93799597Y-40912097D01*
X93786836Y-40923663D01*
X93773003Y-40933923D01*
X93758230Y-40942777D01*
X93742661Y-40950141D01*
X93726445Y-40955943D01*
X93709738Y-40960128D01*
X93692702Y-40962655D01*
X93675500Y-40963500D01*
X93324500Y-40963500D01*
X93307298Y-40962655D01*
X93290262Y-40960128D01*
X93273555Y-40955943D01*
X93257339Y-40950141D01*
X93241770Y-40942777D01*
X93226997Y-40933923D01*
X93213164Y-40923663D01*
X93200403Y-40912097D01*
X93188837Y-40899336D01*
X93178577Y-40885503D01*
X93169723Y-40870730D01*
X93162359Y-40855161D01*
X93156557Y-40838945D01*
X93152372Y-40822238D01*
X93149845Y-40805202D01*
X93149000Y-40788000D01*
X93149000Y-39712000D01*
X93149845Y-39694798D01*
X93152372Y-39677762D01*
X93156557Y-39661055D01*
X93162359Y-39644839D01*
X93169723Y-39629270D01*
X93178577Y-39614497D01*
X93188837Y-39600664D01*
X93200403Y-39587903D01*
X93213164Y-39576337D01*
X93226997Y-39566077D01*
X93241770Y-39557223D01*
X93257339Y-39549859D01*
X93273555Y-39544057D01*
X93290262Y-39539872D01*
X93307298Y-39537345D01*
X93324500Y-39536500D01*
X93675500Y-39536500D01*
X93692702Y-39537345D01*
G37*
D13*
X102209798Y-29664214D02*
X102492640Y-29947056D01*
X100937006Y-30937006D02*
X101219848Y-31219848D01*
D12*
G36*
X98135323Y-27372970D02*
G01*
X98161810Y-27376899D01*
X98187784Y-27383405D01*
X98212996Y-27392426D01*
X98237201Y-27403874D01*
X98260169Y-27417640D01*
X98281676Y-27433591D01*
X98301516Y-27451573D01*
X99048427Y-28198484D01*
X99066409Y-28218324D01*
X99082360Y-28239831D01*
X99096126Y-28262799D01*
X99107574Y-28287004D01*
X99116595Y-28312216D01*
X99123101Y-28338190D01*
X99127030Y-28364677D01*
X99128344Y-28391421D01*
X99127030Y-28418165D01*
X99123101Y-28444652D01*
X99116595Y-28470626D01*
X99107574Y-28495838D01*
X99096126Y-28520043D01*
X99082360Y-28543011D01*
X99066409Y-28564518D01*
X99048427Y-28584358D01*
X98584358Y-29048427D01*
X98564518Y-29066409D01*
X98543011Y-29082360D01*
X98520043Y-29096126D01*
X98495838Y-29107574D01*
X98470626Y-29116595D01*
X98444652Y-29123101D01*
X98418165Y-29127030D01*
X98391421Y-29128344D01*
X98364677Y-29127030D01*
X98338190Y-29123101D01*
X98312216Y-29116595D01*
X98287004Y-29107574D01*
X98262799Y-29096126D01*
X98239831Y-29082360D01*
X98218324Y-29066409D01*
X98198484Y-29048427D01*
X97451573Y-28301516D01*
X97433591Y-28281676D01*
X97417640Y-28260169D01*
X97403874Y-28237201D01*
X97392426Y-28212996D01*
X97383405Y-28187784D01*
X97376899Y-28161810D01*
X97372970Y-28135323D01*
X97371656Y-28108579D01*
X97372970Y-28081835D01*
X97376899Y-28055348D01*
X97383405Y-28029374D01*
X97392426Y-28004162D01*
X97403874Y-27979957D01*
X97417640Y-27956989D01*
X97433591Y-27935482D01*
X97451573Y-27915642D01*
X97915642Y-27451573D01*
X97935482Y-27433591D01*
X97956989Y-27417640D01*
X97979957Y-27403874D01*
X98004162Y-27392426D01*
X98029374Y-27383405D01*
X98055348Y-27376899D01*
X98081835Y-27372970D01*
X98108579Y-27371656D01*
X98135323Y-27372970D01*
G37*
D13*
X99381371Y-26835787D02*
X99664213Y-27118629D01*
X100914214Y-36540202D02*
X101197056Y-36257360D01*
X102187006Y-37812994D02*
X102469848Y-37530152D01*
D12*
G36*
X99668165Y-39622970D02*
G01*
X99694652Y-39626899D01*
X99720626Y-39633405D01*
X99745838Y-39642426D01*
X99770043Y-39653874D01*
X99793011Y-39667640D01*
X99814518Y-39683591D01*
X99834358Y-39701573D01*
X100298427Y-40165642D01*
X100316409Y-40185482D01*
X100332360Y-40206989D01*
X100346126Y-40229957D01*
X100357574Y-40254162D01*
X100366595Y-40279374D01*
X100373101Y-40305348D01*
X100377030Y-40331835D01*
X100378344Y-40358579D01*
X100377030Y-40385323D01*
X100373101Y-40411810D01*
X100366595Y-40437784D01*
X100357574Y-40462996D01*
X100346126Y-40487201D01*
X100332360Y-40510169D01*
X100316409Y-40531676D01*
X100298427Y-40551516D01*
X99551516Y-41298427D01*
X99531676Y-41316409D01*
X99510169Y-41332360D01*
X99487201Y-41346126D01*
X99462996Y-41357574D01*
X99437784Y-41366595D01*
X99411810Y-41373101D01*
X99385323Y-41377030D01*
X99358579Y-41378344D01*
X99331835Y-41377030D01*
X99305348Y-41373101D01*
X99279374Y-41366595D01*
X99254162Y-41357574D01*
X99229957Y-41346126D01*
X99206989Y-41332360D01*
X99185482Y-41316409D01*
X99165642Y-41298427D01*
X98701573Y-40834358D01*
X98683591Y-40814518D01*
X98667640Y-40793011D01*
X98653874Y-40770043D01*
X98642426Y-40745838D01*
X98633405Y-40720626D01*
X98626899Y-40694652D01*
X98622970Y-40668165D01*
X98621656Y-40641421D01*
X98622970Y-40614677D01*
X98626899Y-40588190D01*
X98633405Y-40562216D01*
X98642426Y-40537004D01*
X98653874Y-40512799D01*
X98667640Y-40489831D01*
X98683591Y-40468324D01*
X98701573Y-40448484D01*
X99448484Y-39701573D01*
X99468324Y-39683591D01*
X99489831Y-39667640D01*
X99512799Y-39653874D01*
X99537004Y-39642426D01*
X99562216Y-39633405D01*
X99588190Y-39626899D01*
X99614677Y-39622970D01*
X99641421Y-39621656D01*
X99668165Y-39622970D01*
G37*
D13*
X98085787Y-39368629D02*
X98368629Y-39085787D01*
D14*
X104400000Y-37325000D03*
X104400000Y-36675000D03*
X104400000Y-36025000D03*
X104400000Y-35375000D03*
X104400000Y-34725000D03*
X104400000Y-34075000D03*
X104400000Y-33425000D03*
X104400000Y-32775000D03*
X104400000Y-32125000D03*
X104400000Y-31475000D03*
X104400000Y-30825000D03*
X104400000Y-30175000D03*
X111600000Y-30175000D03*
X111600000Y-30825000D03*
X111600000Y-31475000D03*
X111600000Y-32125000D03*
X111600000Y-32775000D03*
X111600000Y-33425000D03*
X111600000Y-34075000D03*
X111600000Y-34725000D03*
X111600000Y-35375000D03*
X111600000Y-36025000D03*
X111600000Y-36675000D03*
X111600000Y-37325000D03*
D12*
G36*
X92860351Y-34874484D02*
G01*
X92870107Y-34875931D01*
X92879674Y-34878327D01*
X92888960Y-34881650D01*
X92897875Y-34885867D01*
X92906335Y-34890937D01*
X92914257Y-34896812D01*
X92921564Y-34903436D01*
X92928188Y-34910743D01*
X92934063Y-34918665D01*
X92939133Y-34927125D01*
X92943350Y-34936040D01*
X92946673Y-34945326D01*
X92949069Y-34954893D01*
X92950516Y-34964649D01*
X92951000Y-34974500D01*
X92951000Y-36350500D01*
X92950516Y-36360351D01*
X92949069Y-36370107D01*
X92946673Y-36379674D01*
X92943350Y-36388960D01*
X92939133Y-36397875D01*
X92934063Y-36406335D01*
X92928188Y-36414257D01*
X92921564Y-36421564D01*
X92914257Y-36428188D01*
X92906335Y-36434063D01*
X92897875Y-36439133D01*
X92888960Y-36443350D01*
X92879674Y-36446673D01*
X92870107Y-36449069D01*
X92860351Y-36450516D01*
X92850500Y-36451000D01*
X92649500Y-36451000D01*
X92639649Y-36450516D01*
X92629893Y-36449069D01*
X92620326Y-36446673D01*
X92611040Y-36443350D01*
X92602125Y-36439133D01*
X92593665Y-36434063D01*
X92585743Y-36428188D01*
X92578436Y-36421564D01*
X92571812Y-36414257D01*
X92565937Y-36406335D01*
X92560867Y-36397875D01*
X92556650Y-36388960D01*
X92553327Y-36379674D01*
X92550931Y-36370107D01*
X92549484Y-36360351D01*
X92549000Y-36350500D01*
X92549000Y-34974500D01*
X92549484Y-34964649D01*
X92550931Y-34954893D01*
X92553327Y-34945326D01*
X92556650Y-34936040D01*
X92560867Y-34927125D01*
X92565937Y-34918665D01*
X92571812Y-34910743D01*
X92578436Y-34903436D01*
X92585743Y-34896812D01*
X92593665Y-34890937D01*
X92602125Y-34885867D01*
X92611040Y-34881650D01*
X92620326Y-34878327D01*
X92629893Y-34875931D01*
X92639649Y-34874484D01*
X92649500Y-34874000D01*
X92850500Y-34874000D01*
X92860351Y-34874484D01*
G37*
G36*
X92360351Y-34874484D02*
G01*
X92370107Y-34875931D01*
X92379674Y-34878327D01*
X92388960Y-34881650D01*
X92397875Y-34885867D01*
X92406335Y-34890937D01*
X92414257Y-34896812D01*
X92421564Y-34903436D01*
X92428188Y-34910743D01*
X92434063Y-34918665D01*
X92439133Y-34927125D01*
X92443350Y-34936040D01*
X92446673Y-34945326D01*
X92449069Y-34954893D01*
X92450516Y-34964649D01*
X92451000Y-34974500D01*
X92451000Y-36350500D01*
X92450516Y-36360351D01*
X92449069Y-36370107D01*
X92446673Y-36379674D01*
X92443350Y-36388960D01*
X92439133Y-36397875D01*
X92434063Y-36406335D01*
X92428188Y-36414257D01*
X92421564Y-36421564D01*
X92414257Y-36428188D01*
X92406335Y-36434063D01*
X92397875Y-36439133D01*
X92388960Y-36443350D01*
X92379674Y-36446673D01*
X92370107Y-36449069D01*
X92360351Y-36450516D01*
X92350500Y-36451000D01*
X92149500Y-36451000D01*
X92139649Y-36450516D01*
X92129893Y-36449069D01*
X92120326Y-36446673D01*
X92111040Y-36443350D01*
X92102125Y-36439133D01*
X92093665Y-36434063D01*
X92085743Y-36428188D01*
X92078436Y-36421564D01*
X92071812Y-36414257D01*
X92065937Y-36406335D01*
X92060867Y-36397875D01*
X92056650Y-36388960D01*
X92053327Y-36379674D01*
X92050931Y-36370107D01*
X92049484Y-36360351D01*
X92049000Y-36350500D01*
X92049000Y-34974500D01*
X92049484Y-34964649D01*
X92050931Y-34954893D01*
X92053327Y-34945326D01*
X92056650Y-34936040D01*
X92060867Y-34927125D01*
X92065937Y-34918665D01*
X92071812Y-34910743D01*
X92078436Y-34903436D01*
X92085743Y-34896812D01*
X92093665Y-34890937D01*
X92102125Y-34885867D01*
X92111040Y-34881650D01*
X92120326Y-34878327D01*
X92129893Y-34875931D01*
X92139649Y-34874484D01*
X92149500Y-34874000D01*
X92350500Y-34874000D01*
X92360351Y-34874484D01*
G37*
G36*
X91860351Y-34874484D02*
G01*
X91870107Y-34875931D01*
X91879674Y-34878327D01*
X91888960Y-34881650D01*
X91897875Y-34885867D01*
X91906335Y-34890937D01*
X91914257Y-34896812D01*
X91921564Y-34903436D01*
X91928188Y-34910743D01*
X91934063Y-34918665D01*
X91939133Y-34927125D01*
X91943350Y-34936040D01*
X91946673Y-34945326D01*
X91949069Y-34954893D01*
X91950516Y-34964649D01*
X91951000Y-34974500D01*
X91951000Y-36350500D01*
X91950516Y-36360351D01*
X91949069Y-36370107D01*
X91946673Y-36379674D01*
X91943350Y-36388960D01*
X91939133Y-36397875D01*
X91934063Y-36406335D01*
X91928188Y-36414257D01*
X91921564Y-36421564D01*
X91914257Y-36428188D01*
X91906335Y-36434063D01*
X91897875Y-36439133D01*
X91888960Y-36443350D01*
X91879674Y-36446673D01*
X91870107Y-36449069D01*
X91860351Y-36450516D01*
X91850500Y-36451000D01*
X91649500Y-36451000D01*
X91639649Y-36450516D01*
X91629893Y-36449069D01*
X91620326Y-36446673D01*
X91611040Y-36443350D01*
X91602125Y-36439133D01*
X91593665Y-36434063D01*
X91585743Y-36428188D01*
X91578436Y-36421564D01*
X91571812Y-36414257D01*
X91565937Y-36406335D01*
X91560867Y-36397875D01*
X91556650Y-36388960D01*
X91553327Y-36379674D01*
X91550931Y-36370107D01*
X91549484Y-36360351D01*
X91549000Y-36350500D01*
X91549000Y-34974500D01*
X91549484Y-34964649D01*
X91550931Y-34954893D01*
X91553327Y-34945326D01*
X91556650Y-34936040D01*
X91560867Y-34927125D01*
X91565937Y-34918665D01*
X91571812Y-34910743D01*
X91578436Y-34903436D01*
X91585743Y-34896812D01*
X91593665Y-34890937D01*
X91602125Y-34885867D01*
X91611040Y-34881650D01*
X91620326Y-34878327D01*
X91629893Y-34875931D01*
X91639649Y-34874484D01*
X91649500Y-34874000D01*
X91850500Y-34874000D01*
X91860351Y-34874484D01*
G37*
G36*
X91360351Y-34874484D02*
G01*
X91370107Y-34875931D01*
X91379674Y-34878327D01*
X91388960Y-34881650D01*
X91397875Y-34885867D01*
X91406335Y-34890937D01*
X91414257Y-34896812D01*
X91421564Y-34903436D01*
X91428188Y-34910743D01*
X91434063Y-34918665D01*
X91439133Y-34927125D01*
X91443350Y-34936040D01*
X91446673Y-34945326D01*
X91449069Y-34954893D01*
X91450516Y-34964649D01*
X91451000Y-34974500D01*
X91451000Y-36350500D01*
X91450516Y-36360351D01*
X91449069Y-36370107D01*
X91446673Y-36379674D01*
X91443350Y-36388960D01*
X91439133Y-36397875D01*
X91434063Y-36406335D01*
X91428188Y-36414257D01*
X91421564Y-36421564D01*
X91414257Y-36428188D01*
X91406335Y-36434063D01*
X91397875Y-36439133D01*
X91388960Y-36443350D01*
X91379674Y-36446673D01*
X91370107Y-36449069D01*
X91360351Y-36450516D01*
X91350500Y-36451000D01*
X91149500Y-36451000D01*
X91139649Y-36450516D01*
X91129893Y-36449069D01*
X91120326Y-36446673D01*
X91111040Y-36443350D01*
X91102125Y-36439133D01*
X91093665Y-36434063D01*
X91085743Y-36428188D01*
X91078436Y-36421564D01*
X91071812Y-36414257D01*
X91065937Y-36406335D01*
X91060867Y-36397875D01*
X91056650Y-36388960D01*
X91053327Y-36379674D01*
X91050931Y-36370107D01*
X91049484Y-36360351D01*
X91049000Y-36350500D01*
X91049000Y-34974500D01*
X91049484Y-34964649D01*
X91050931Y-34954893D01*
X91053327Y-34945326D01*
X91056650Y-34936040D01*
X91060867Y-34927125D01*
X91065937Y-34918665D01*
X91071812Y-34910743D01*
X91078436Y-34903436D01*
X91085743Y-34896812D01*
X91093665Y-34890937D01*
X91102125Y-34885867D01*
X91111040Y-34881650D01*
X91120326Y-34878327D01*
X91129893Y-34875931D01*
X91139649Y-34874484D01*
X91149500Y-34874000D01*
X91350500Y-34874000D01*
X91360351Y-34874484D01*
G37*
G36*
X90860351Y-34874484D02*
G01*
X90870107Y-34875931D01*
X90879674Y-34878327D01*
X90888960Y-34881650D01*
X90897875Y-34885867D01*
X90906335Y-34890937D01*
X90914257Y-34896812D01*
X90921564Y-34903436D01*
X90928188Y-34910743D01*
X90934063Y-34918665D01*
X90939133Y-34927125D01*
X90943350Y-34936040D01*
X90946673Y-34945326D01*
X90949069Y-34954893D01*
X90950516Y-34964649D01*
X90951000Y-34974500D01*
X90951000Y-36350500D01*
X90950516Y-36360351D01*
X90949069Y-36370107D01*
X90946673Y-36379674D01*
X90943350Y-36388960D01*
X90939133Y-36397875D01*
X90934063Y-36406335D01*
X90928188Y-36414257D01*
X90921564Y-36421564D01*
X90914257Y-36428188D01*
X90906335Y-36434063D01*
X90897875Y-36439133D01*
X90888960Y-36443350D01*
X90879674Y-36446673D01*
X90870107Y-36449069D01*
X90860351Y-36450516D01*
X90850500Y-36451000D01*
X90649500Y-36451000D01*
X90639649Y-36450516D01*
X90629893Y-36449069D01*
X90620326Y-36446673D01*
X90611040Y-36443350D01*
X90602125Y-36439133D01*
X90593665Y-36434063D01*
X90585743Y-36428188D01*
X90578436Y-36421564D01*
X90571812Y-36414257D01*
X90565937Y-36406335D01*
X90560867Y-36397875D01*
X90556650Y-36388960D01*
X90553327Y-36379674D01*
X90550931Y-36370107D01*
X90549484Y-36360351D01*
X90549000Y-36350500D01*
X90549000Y-34974500D01*
X90549484Y-34964649D01*
X90550931Y-34954893D01*
X90553327Y-34945326D01*
X90556650Y-34936040D01*
X90560867Y-34927125D01*
X90565937Y-34918665D01*
X90571812Y-34910743D01*
X90578436Y-34903436D01*
X90585743Y-34896812D01*
X90593665Y-34890937D01*
X90602125Y-34885867D01*
X90611040Y-34881650D01*
X90620326Y-34878327D01*
X90629893Y-34875931D01*
X90639649Y-34874484D01*
X90649500Y-34874000D01*
X90850500Y-34874000D01*
X90860351Y-34874484D01*
G37*
G36*
X90360351Y-34874484D02*
G01*
X90370107Y-34875931D01*
X90379674Y-34878327D01*
X90388960Y-34881650D01*
X90397875Y-34885867D01*
X90406335Y-34890937D01*
X90414257Y-34896812D01*
X90421564Y-34903436D01*
X90428188Y-34910743D01*
X90434063Y-34918665D01*
X90439133Y-34927125D01*
X90443350Y-34936040D01*
X90446673Y-34945326D01*
X90449069Y-34954893D01*
X90450516Y-34964649D01*
X90451000Y-34974500D01*
X90451000Y-36350500D01*
X90450516Y-36360351D01*
X90449069Y-36370107D01*
X90446673Y-36379674D01*
X90443350Y-36388960D01*
X90439133Y-36397875D01*
X90434063Y-36406335D01*
X90428188Y-36414257D01*
X90421564Y-36421564D01*
X90414257Y-36428188D01*
X90406335Y-36434063D01*
X90397875Y-36439133D01*
X90388960Y-36443350D01*
X90379674Y-36446673D01*
X90370107Y-36449069D01*
X90360351Y-36450516D01*
X90350500Y-36451000D01*
X90149500Y-36451000D01*
X90139649Y-36450516D01*
X90129893Y-36449069D01*
X90120326Y-36446673D01*
X90111040Y-36443350D01*
X90102125Y-36439133D01*
X90093665Y-36434063D01*
X90085743Y-36428188D01*
X90078436Y-36421564D01*
X90071812Y-36414257D01*
X90065937Y-36406335D01*
X90060867Y-36397875D01*
X90056650Y-36388960D01*
X90053327Y-36379674D01*
X90050931Y-36370107D01*
X90049484Y-36360351D01*
X90049000Y-36350500D01*
X90049000Y-34974500D01*
X90049484Y-34964649D01*
X90050931Y-34954893D01*
X90053327Y-34945326D01*
X90056650Y-34936040D01*
X90060867Y-34927125D01*
X90065937Y-34918665D01*
X90071812Y-34910743D01*
X90078436Y-34903436D01*
X90085743Y-34896812D01*
X90093665Y-34890937D01*
X90102125Y-34885867D01*
X90111040Y-34881650D01*
X90120326Y-34878327D01*
X90129893Y-34875931D01*
X90139649Y-34874484D01*
X90149500Y-34874000D01*
X90350500Y-34874000D01*
X90360351Y-34874484D01*
G37*
G36*
X89860351Y-34874484D02*
G01*
X89870107Y-34875931D01*
X89879674Y-34878327D01*
X89888960Y-34881650D01*
X89897875Y-34885867D01*
X89906335Y-34890937D01*
X89914257Y-34896812D01*
X89921564Y-34903436D01*
X89928188Y-34910743D01*
X89934063Y-34918665D01*
X89939133Y-34927125D01*
X89943350Y-34936040D01*
X89946673Y-34945326D01*
X89949069Y-34954893D01*
X89950516Y-34964649D01*
X89951000Y-34974500D01*
X89951000Y-36350500D01*
X89950516Y-36360351D01*
X89949069Y-36370107D01*
X89946673Y-36379674D01*
X89943350Y-36388960D01*
X89939133Y-36397875D01*
X89934063Y-36406335D01*
X89928188Y-36414257D01*
X89921564Y-36421564D01*
X89914257Y-36428188D01*
X89906335Y-36434063D01*
X89897875Y-36439133D01*
X89888960Y-36443350D01*
X89879674Y-36446673D01*
X89870107Y-36449069D01*
X89860351Y-36450516D01*
X89850500Y-36451000D01*
X89649500Y-36451000D01*
X89639649Y-36450516D01*
X89629893Y-36449069D01*
X89620326Y-36446673D01*
X89611040Y-36443350D01*
X89602125Y-36439133D01*
X89593665Y-36434063D01*
X89585743Y-36428188D01*
X89578436Y-36421564D01*
X89571812Y-36414257D01*
X89565937Y-36406335D01*
X89560867Y-36397875D01*
X89556650Y-36388960D01*
X89553327Y-36379674D01*
X89550931Y-36370107D01*
X89549484Y-36360351D01*
X89549000Y-36350500D01*
X89549000Y-34974500D01*
X89549484Y-34964649D01*
X89550931Y-34954893D01*
X89553327Y-34945326D01*
X89556650Y-34936040D01*
X89560867Y-34927125D01*
X89565937Y-34918665D01*
X89571812Y-34910743D01*
X89578436Y-34903436D01*
X89585743Y-34896812D01*
X89593665Y-34890937D01*
X89602125Y-34885867D01*
X89611040Y-34881650D01*
X89620326Y-34878327D01*
X89629893Y-34875931D01*
X89639649Y-34874484D01*
X89649500Y-34874000D01*
X89850500Y-34874000D01*
X89860351Y-34874484D01*
G37*
G36*
X89360351Y-34874484D02*
G01*
X89370107Y-34875931D01*
X89379674Y-34878327D01*
X89388960Y-34881650D01*
X89397875Y-34885867D01*
X89406335Y-34890937D01*
X89414257Y-34896812D01*
X89421564Y-34903436D01*
X89428188Y-34910743D01*
X89434063Y-34918665D01*
X89439133Y-34927125D01*
X89443350Y-34936040D01*
X89446673Y-34945326D01*
X89449069Y-34954893D01*
X89450516Y-34964649D01*
X89451000Y-34974500D01*
X89451000Y-36350500D01*
X89450516Y-36360351D01*
X89449069Y-36370107D01*
X89446673Y-36379674D01*
X89443350Y-36388960D01*
X89439133Y-36397875D01*
X89434063Y-36406335D01*
X89428188Y-36414257D01*
X89421564Y-36421564D01*
X89414257Y-36428188D01*
X89406335Y-36434063D01*
X89397875Y-36439133D01*
X89388960Y-36443350D01*
X89379674Y-36446673D01*
X89370107Y-36449069D01*
X89360351Y-36450516D01*
X89350500Y-36451000D01*
X89149500Y-36451000D01*
X89139649Y-36450516D01*
X89129893Y-36449069D01*
X89120326Y-36446673D01*
X89111040Y-36443350D01*
X89102125Y-36439133D01*
X89093665Y-36434063D01*
X89085743Y-36428188D01*
X89078436Y-36421564D01*
X89071812Y-36414257D01*
X89065937Y-36406335D01*
X89060867Y-36397875D01*
X89056650Y-36388960D01*
X89053327Y-36379674D01*
X89050931Y-36370107D01*
X89049484Y-36360351D01*
X89049000Y-36350500D01*
X89049000Y-34974500D01*
X89049484Y-34964649D01*
X89050931Y-34954893D01*
X89053327Y-34945326D01*
X89056650Y-34936040D01*
X89060867Y-34927125D01*
X89065937Y-34918665D01*
X89071812Y-34910743D01*
X89078436Y-34903436D01*
X89085743Y-34896812D01*
X89093665Y-34890937D01*
X89102125Y-34885867D01*
X89111040Y-34881650D01*
X89120326Y-34878327D01*
X89129893Y-34875931D01*
X89139649Y-34874484D01*
X89149500Y-34874000D01*
X89350500Y-34874000D01*
X89360351Y-34874484D01*
G37*
G36*
X88860351Y-34874484D02*
G01*
X88870107Y-34875931D01*
X88879674Y-34878327D01*
X88888960Y-34881650D01*
X88897875Y-34885867D01*
X88906335Y-34890937D01*
X88914257Y-34896812D01*
X88921564Y-34903436D01*
X88928188Y-34910743D01*
X88934063Y-34918665D01*
X88939133Y-34927125D01*
X88943350Y-34936040D01*
X88946673Y-34945326D01*
X88949069Y-34954893D01*
X88950516Y-34964649D01*
X88951000Y-34974500D01*
X88951000Y-36350500D01*
X88950516Y-36360351D01*
X88949069Y-36370107D01*
X88946673Y-36379674D01*
X88943350Y-36388960D01*
X88939133Y-36397875D01*
X88934063Y-36406335D01*
X88928188Y-36414257D01*
X88921564Y-36421564D01*
X88914257Y-36428188D01*
X88906335Y-36434063D01*
X88897875Y-36439133D01*
X88888960Y-36443350D01*
X88879674Y-36446673D01*
X88870107Y-36449069D01*
X88860351Y-36450516D01*
X88850500Y-36451000D01*
X88649500Y-36451000D01*
X88639649Y-36450516D01*
X88629893Y-36449069D01*
X88620326Y-36446673D01*
X88611040Y-36443350D01*
X88602125Y-36439133D01*
X88593665Y-36434063D01*
X88585743Y-36428188D01*
X88578436Y-36421564D01*
X88571812Y-36414257D01*
X88565937Y-36406335D01*
X88560867Y-36397875D01*
X88556650Y-36388960D01*
X88553327Y-36379674D01*
X88550931Y-36370107D01*
X88549484Y-36360351D01*
X88549000Y-36350500D01*
X88549000Y-34974500D01*
X88549484Y-34964649D01*
X88550931Y-34954893D01*
X88553327Y-34945326D01*
X88556650Y-34936040D01*
X88560867Y-34927125D01*
X88565937Y-34918665D01*
X88571812Y-34910743D01*
X88578436Y-34903436D01*
X88585743Y-34896812D01*
X88593665Y-34890937D01*
X88602125Y-34885867D01*
X88611040Y-34881650D01*
X88620326Y-34878327D01*
X88629893Y-34875931D01*
X88639649Y-34874484D01*
X88649500Y-34874000D01*
X88850500Y-34874000D01*
X88860351Y-34874484D01*
G37*
G36*
X88360351Y-34874484D02*
G01*
X88370107Y-34875931D01*
X88379674Y-34878327D01*
X88388960Y-34881650D01*
X88397875Y-34885867D01*
X88406335Y-34890937D01*
X88414257Y-34896812D01*
X88421564Y-34903436D01*
X88428188Y-34910743D01*
X88434063Y-34918665D01*
X88439133Y-34927125D01*
X88443350Y-34936040D01*
X88446673Y-34945326D01*
X88449069Y-34954893D01*
X88450516Y-34964649D01*
X88451000Y-34974500D01*
X88451000Y-36350500D01*
X88450516Y-36360351D01*
X88449069Y-36370107D01*
X88446673Y-36379674D01*
X88443350Y-36388960D01*
X88439133Y-36397875D01*
X88434063Y-36406335D01*
X88428188Y-36414257D01*
X88421564Y-36421564D01*
X88414257Y-36428188D01*
X88406335Y-36434063D01*
X88397875Y-36439133D01*
X88388960Y-36443350D01*
X88379674Y-36446673D01*
X88370107Y-36449069D01*
X88360351Y-36450516D01*
X88350500Y-36451000D01*
X88149500Y-36451000D01*
X88139649Y-36450516D01*
X88129893Y-36449069D01*
X88120326Y-36446673D01*
X88111040Y-36443350D01*
X88102125Y-36439133D01*
X88093665Y-36434063D01*
X88085743Y-36428188D01*
X88078436Y-36421564D01*
X88071812Y-36414257D01*
X88065937Y-36406335D01*
X88060867Y-36397875D01*
X88056650Y-36388960D01*
X88053327Y-36379674D01*
X88050931Y-36370107D01*
X88049484Y-36360351D01*
X88049000Y-36350500D01*
X88049000Y-34974500D01*
X88049484Y-34964649D01*
X88050931Y-34954893D01*
X88053327Y-34945326D01*
X88056650Y-34936040D01*
X88060867Y-34927125D01*
X88065937Y-34918665D01*
X88071812Y-34910743D01*
X88078436Y-34903436D01*
X88085743Y-34896812D01*
X88093665Y-34890937D01*
X88102125Y-34885867D01*
X88111040Y-34881650D01*
X88120326Y-34878327D01*
X88129893Y-34875931D01*
X88139649Y-34874484D01*
X88149500Y-34874000D01*
X88350500Y-34874000D01*
X88360351Y-34874484D01*
G37*
G36*
X87860351Y-34874484D02*
G01*
X87870107Y-34875931D01*
X87879674Y-34878327D01*
X87888960Y-34881650D01*
X87897875Y-34885867D01*
X87906335Y-34890937D01*
X87914257Y-34896812D01*
X87921564Y-34903436D01*
X87928188Y-34910743D01*
X87934063Y-34918665D01*
X87939133Y-34927125D01*
X87943350Y-34936040D01*
X87946673Y-34945326D01*
X87949069Y-34954893D01*
X87950516Y-34964649D01*
X87951000Y-34974500D01*
X87951000Y-36350500D01*
X87950516Y-36360351D01*
X87949069Y-36370107D01*
X87946673Y-36379674D01*
X87943350Y-36388960D01*
X87939133Y-36397875D01*
X87934063Y-36406335D01*
X87928188Y-36414257D01*
X87921564Y-36421564D01*
X87914257Y-36428188D01*
X87906335Y-36434063D01*
X87897875Y-36439133D01*
X87888960Y-36443350D01*
X87879674Y-36446673D01*
X87870107Y-36449069D01*
X87860351Y-36450516D01*
X87850500Y-36451000D01*
X87649500Y-36451000D01*
X87639649Y-36450516D01*
X87629893Y-36449069D01*
X87620326Y-36446673D01*
X87611040Y-36443350D01*
X87602125Y-36439133D01*
X87593665Y-36434063D01*
X87585743Y-36428188D01*
X87578436Y-36421564D01*
X87571812Y-36414257D01*
X87565937Y-36406335D01*
X87560867Y-36397875D01*
X87556650Y-36388960D01*
X87553327Y-36379674D01*
X87550931Y-36370107D01*
X87549484Y-36360351D01*
X87549000Y-36350500D01*
X87549000Y-34974500D01*
X87549484Y-34964649D01*
X87550931Y-34954893D01*
X87553327Y-34945326D01*
X87556650Y-34936040D01*
X87560867Y-34927125D01*
X87565937Y-34918665D01*
X87571812Y-34910743D01*
X87578436Y-34903436D01*
X87585743Y-34896812D01*
X87593665Y-34890937D01*
X87602125Y-34885867D01*
X87611040Y-34881650D01*
X87620326Y-34878327D01*
X87629893Y-34875931D01*
X87639649Y-34874484D01*
X87649500Y-34874000D01*
X87850500Y-34874000D01*
X87860351Y-34874484D01*
G37*
G36*
X87360351Y-34874484D02*
G01*
X87370107Y-34875931D01*
X87379674Y-34878327D01*
X87388960Y-34881650D01*
X87397875Y-34885867D01*
X87406335Y-34890937D01*
X87414257Y-34896812D01*
X87421564Y-34903436D01*
X87428188Y-34910743D01*
X87434063Y-34918665D01*
X87439133Y-34927125D01*
X87443350Y-34936040D01*
X87446673Y-34945326D01*
X87449069Y-34954893D01*
X87450516Y-34964649D01*
X87451000Y-34974500D01*
X87451000Y-36350500D01*
X87450516Y-36360351D01*
X87449069Y-36370107D01*
X87446673Y-36379674D01*
X87443350Y-36388960D01*
X87439133Y-36397875D01*
X87434063Y-36406335D01*
X87428188Y-36414257D01*
X87421564Y-36421564D01*
X87414257Y-36428188D01*
X87406335Y-36434063D01*
X87397875Y-36439133D01*
X87388960Y-36443350D01*
X87379674Y-36446673D01*
X87370107Y-36449069D01*
X87360351Y-36450516D01*
X87350500Y-36451000D01*
X87149500Y-36451000D01*
X87139649Y-36450516D01*
X87129893Y-36449069D01*
X87120326Y-36446673D01*
X87111040Y-36443350D01*
X87102125Y-36439133D01*
X87093665Y-36434063D01*
X87085743Y-36428188D01*
X87078436Y-36421564D01*
X87071812Y-36414257D01*
X87065937Y-36406335D01*
X87060867Y-36397875D01*
X87056650Y-36388960D01*
X87053327Y-36379674D01*
X87050931Y-36370107D01*
X87049484Y-36360351D01*
X87049000Y-36350500D01*
X87049000Y-34974500D01*
X87049484Y-34964649D01*
X87050931Y-34954893D01*
X87053327Y-34945326D01*
X87056650Y-34936040D01*
X87060867Y-34927125D01*
X87065937Y-34918665D01*
X87071812Y-34910743D01*
X87078436Y-34903436D01*
X87085743Y-34896812D01*
X87093665Y-34890937D01*
X87102125Y-34885867D01*
X87111040Y-34881650D01*
X87120326Y-34878327D01*
X87129893Y-34875931D01*
X87139649Y-34874484D01*
X87149500Y-34874000D01*
X87350500Y-34874000D01*
X87360351Y-34874484D01*
G37*
G36*
X86535351Y-34049484D02*
G01*
X86545107Y-34050931D01*
X86554674Y-34053327D01*
X86563960Y-34056650D01*
X86572875Y-34060867D01*
X86581335Y-34065937D01*
X86589257Y-34071812D01*
X86596564Y-34078436D01*
X86603188Y-34085743D01*
X86609063Y-34093665D01*
X86614133Y-34102125D01*
X86618350Y-34111040D01*
X86621673Y-34120326D01*
X86624069Y-34129893D01*
X86625516Y-34139649D01*
X86626000Y-34149500D01*
X86626000Y-34350500D01*
X86625516Y-34360351D01*
X86624069Y-34370107D01*
X86621673Y-34379674D01*
X86618350Y-34388960D01*
X86614133Y-34397875D01*
X86609063Y-34406335D01*
X86603188Y-34414257D01*
X86596564Y-34421564D01*
X86589257Y-34428188D01*
X86581335Y-34434063D01*
X86572875Y-34439133D01*
X86563960Y-34443350D01*
X86554674Y-34446673D01*
X86545107Y-34449069D01*
X86535351Y-34450516D01*
X86525500Y-34451000D01*
X85149500Y-34451000D01*
X85139649Y-34450516D01*
X85129893Y-34449069D01*
X85120326Y-34446673D01*
X85111040Y-34443350D01*
X85102125Y-34439133D01*
X85093665Y-34434063D01*
X85085743Y-34428188D01*
X85078436Y-34421564D01*
X85071812Y-34414257D01*
X85065937Y-34406335D01*
X85060867Y-34397875D01*
X85056650Y-34388960D01*
X85053327Y-34379674D01*
X85050931Y-34370107D01*
X85049484Y-34360351D01*
X85049000Y-34350500D01*
X85049000Y-34149500D01*
X85049484Y-34139649D01*
X85050931Y-34129893D01*
X85053327Y-34120326D01*
X85056650Y-34111040D01*
X85060867Y-34102125D01*
X85065937Y-34093665D01*
X85071812Y-34085743D01*
X85078436Y-34078436D01*
X85085743Y-34071812D01*
X85093665Y-34065937D01*
X85102125Y-34060867D01*
X85111040Y-34056650D01*
X85120326Y-34053327D01*
X85129893Y-34050931D01*
X85139649Y-34049484D01*
X85149500Y-34049000D01*
X86525500Y-34049000D01*
X86535351Y-34049484D01*
G37*
G36*
X86535351Y-33549484D02*
G01*
X86545107Y-33550931D01*
X86554674Y-33553327D01*
X86563960Y-33556650D01*
X86572875Y-33560867D01*
X86581335Y-33565937D01*
X86589257Y-33571812D01*
X86596564Y-33578436D01*
X86603188Y-33585743D01*
X86609063Y-33593665D01*
X86614133Y-33602125D01*
X86618350Y-33611040D01*
X86621673Y-33620326D01*
X86624069Y-33629893D01*
X86625516Y-33639649D01*
X86626000Y-33649500D01*
X86626000Y-33850500D01*
X86625516Y-33860351D01*
X86624069Y-33870107D01*
X86621673Y-33879674D01*
X86618350Y-33888960D01*
X86614133Y-33897875D01*
X86609063Y-33906335D01*
X86603188Y-33914257D01*
X86596564Y-33921564D01*
X86589257Y-33928188D01*
X86581335Y-33934063D01*
X86572875Y-33939133D01*
X86563960Y-33943350D01*
X86554674Y-33946673D01*
X86545107Y-33949069D01*
X86535351Y-33950516D01*
X86525500Y-33951000D01*
X85149500Y-33951000D01*
X85139649Y-33950516D01*
X85129893Y-33949069D01*
X85120326Y-33946673D01*
X85111040Y-33943350D01*
X85102125Y-33939133D01*
X85093665Y-33934063D01*
X85085743Y-33928188D01*
X85078436Y-33921564D01*
X85071812Y-33914257D01*
X85065937Y-33906335D01*
X85060867Y-33897875D01*
X85056650Y-33888960D01*
X85053327Y-33879674D01*
X85050931Y-33870107D01*
X85049484Y-33860351D01*
X85049000Y-33850500D01*
X85049000Y-33649500D01*
X85049484Y-33639649D01*
X85050931Y-33629893D01*
X85053327Y-33620326D01*
X85056650Y-33611040D01*
X85060867Y-33602125D01*
X85065937Y-33593665D01*
X85071812Y-33585743D01*
X85078436Y-33578436D01*
X85085743Y-33571812D01*
X85093665Y-33565937D01*
X85102125Y-33560867D01*
X85111040Y-33556650D01*
X85120326Y-33553327D01*
X85129893Y-33550931D01*
X85139649Y-33549484D01*
X85149500Y-33549000D01*
X86525500Y-33549000D01*
X86535351Y-33549484D01*
G37*
G36*
X86535351Y-33049484D02*
G01*
X86545107Y-33050931D01*
X86554674Y-33053327D01*
X86563960Y-33056650D01*
X86572875Y-33060867D01*
X86581335Y-33065937D01*
X86589257Y-33071812D01*
X86596564Y-33078436D01*
X86603188Y-33085743D01*
X86609063Y-33093665D01*
X86614133Y-33102125D01*
X86618350Y-33111040D01*
X86621673Y-33120326D01*
X86624069Y-33129893D01*
X86625516Y-33139649D01*
X86626000Y-33149500D01*
X86626000Y-33350500D01*
X86625516Y-33360351D01*
X86624069Y-33370107D01*
X86621673Y-33379674D01*
X86618350Y-33388960D01*
X86614133Y-33397875D01*
X86609063Y-33406335D01*
X86603188Y-33414257D01*
X86596564Y-33421564D01*
X86589257Y-33428188D01*
X86581335Y-33434063D01*
X86572875Y-33439133D01*
X86563960Y-33443350D01*
X86554674Y-33446673D01*
X86545107Y-33449069D01*
X86535351Y-33450516D01*
X86525500Y-33451000D01*
X85149500Y-33451000D01*
X85139649Y-33450516D01*
X85129893Y-33449069D01*
X85120326Y-33446673D01*
X85111040Y-33443350D01*
X85102125Y-33439133D01*
X85093665Y-33434063D01*
X85085743Y-33428188D01*
X85078436Y-33421564D01*
X85071812Y-33414257D01*
X85065937Y-33406335D01*
X85060867Y-33397875D01*
X85056650Y-33388960D01*
X85053327Y-33379674D01*
X85050931Y-33370107D01*
X85049484Y-33360351D01*
X85049000Y-33350500D01*
X85049000Y-33149500D01*
X85049484Y-33139649D01*
X85050931Y-33129893D01*
X85053327Y-33120326D01*
X85056650Y-33111040D01*
X85060867Y-33102125D01*
X85065937Y-33093665D01*
X85071812Y-33085743D01*
X85078436Y-33078436D01*
X85085743Y-33071812D01*
X85093665Y-33065937D01*
X85102125Y-33060867D01*
X85111040Y-33056650D01*
X85120326Y-33053327D01*
X85129893Y-33050931D01*
X85139649Y-33049484D01*
X85149500Y-33049000D01*
X86525500Y-33049000D01*
X86535351Y-33049484D01*
G37*
G36*
X86535351Y-32549484D02*
G01*
X86545107Y-32550931D01*
X86554674Y-32553327D01*
X86563960Y-32556650D01*
X86572875Y-32560867D01*
X86581335Y-32565937D01*
X86589257Y-32571812D01*
X86596564Y-32578436D01*
X86603188Y-32585743D01*
X86609063Y-32593665D01*
X86614133Y-32602125D01*
X86618350Y-32611040D01*
X86621673Y-32620326D01*
X86624069Y-32629893D01*
X86625516Y-32639649D01*
X86626000Y-32649500D01*
X86626000Y-32850500D01*
X86625516Y-32860351D01*
X86624069Y-32870107D01*
X86621673Y-32879674D01*
X86618350Y-32888960D01*
X86614133Y-32897875D01*
X86609063Y-32906335D01*
X86603188Y-32914257D01*
X86596564Y-32921564D01*
X86589257Y-32928188D01*
X86581335Y-32934063D01*
X86572875Y-32939133D01*
X86563960Y-32943350D01*
X86554674Y-32946673D01*
X86545107Y-32949069D01*
X86535351Y-32950516D01*
X86525500Y-32951000D01*
X85149500Y-32951000D01*
X85139649Y-32950516D01*
X85129893Y-32949069D01*
X85120326Y-32946673D01*
X85111040Y-32943350D01*
X85102125Y-32939133D01*
X85093665Y-32934063D01*
X85085743Y-32928188D01*
X85078436Y-32921564D01*
X85071812Y-32914257D01*
X85065937Y-32906335D01*
X85060867Y-32897875D01*
X85056650Y-32888960D01*
X85053327Y-32879674D01*
X85050931Y-32870107D01*
X85049484Y-32860351D01*
X85049000Y-32850500D01*
X85049000Y-32649500D01*
X85049484Y-32639649D01*
X85050931Y-32629893D01*
X85053327Y-32620326D01*
X85056650Y-32611040D01*
X85060867Y-32602125D01*
X85065937Y-32593665D01*
X85071812Y-32585743D01*
X85078436Y-32578436D01*
X85085743Y-32571812D01*
X85093665Y-32565937D01*
X85102125Y-32560867D01*
X85111040Y-32556650D01*
X85120326Y-32553327D01*
X85129893Y-32550931D01*
X85139649Y-32549484D01*
X85149500Y-32549000D01*
X86525500Y-32549000D01*
X86535351Y-32549484D01*
G37*
G36*
X86535351Y-32049484D02*
G01*
X86545107Y-32050931D01*
X86554674Y-32053327D01*
X86563960Y-32056650D01*
X86572875Y-32060867D01*
X86581335Y-32065937D01*
X86589257Y-32071812D01*
X86596564Y-32078436D01*
X86603188Y-32085743D01*
X86609063Y-32093665D01*
X86614133Y-32102125D01*
X86618350Y-32111040D01*
X86621673Y-32120326D01*
X86624069Y-32129893D01*
X86625516Y-32139649D01*
X86626000Y-32149500D01*
X86626000Y-32350500D01*
X86625516Y-32360351D01*
X86624069Y-32370107D01*
X86621673Y-32379674D01*
X86618350Y-32388960D01*
X86614133Y-32397875D01*
X86609063Y-32406335D01*
X86603188Y-32414257D01*
X86596564Y-32421564D01*
X86589257Y-32428188D01*
X86581335Y-32434063D01*
X86572875Y-32439133D01*
X86563960Y-32443350D01*
X86554674Y-32446673D01*
X86545107Y-32449069D01*
X86535351Y-32450516D01*
X86525500Y-32451000D01*
X85149500Y-32451000D01*
X85139649Y-32450516D01*
X85129893Y-32449069D01*
X85120326Y-32446673D01*
X85111040Y-32443350D01*
X85102125Y-32439133D01*
X85093665Y-32434063D01*
X85085743Y-32428188D01*
X85078436Y-32421564D01*
X85071812Y-32414257D01*
X85065937Y-32406335D01*
X85060867Y-32397875D01*
X85056650Y-32388960D01*
X85053327Y-32379674D01*
X85050931Y-32370107D01*
X85049484Y-32360351D01*
X85049000Y-32350500D01*
X85049000Y-32149500D01*
X85049484Y-32139649D01*
X85050931Y-32129893D01*
X85053327Y-32120326D01*
X85056650Y-32111040D01*
X85060867Y-32102125D01*
X85065937Y-32093665D01*
X85071812Y-32085743D01*
X85078436Y-32078436D01*
X85085743Y-32071812D01*
X85093665Y-32065937D01*
X85102125Y-32060867D01*
X85111040Y-32056650D01*
X85120326Y-32053327D01*
X85129893Y-32050931D01*
X85139649Y-32049484D01*
X85149500Y-32049000D01*
X86525500Y-32049000D01*
X86535351Y-32049484D01*
G37*
G36*
X86535351Y-31549484D02*
G01*
X86545107Y-31550931D01*
X86554674Y-31553327D01*
X86563960Y-31556650D01*
X86572875Y-31560867D01*
X86581335Y-31565937D01*
X86589257Y-31571812D01*
X86596564Y-31578436D01*
X86603188Y-31585743D01*
X86609063Y-31593665D01*
X86614133Y-31602125D01*
X86618350Y-31611040D01*
X86621673Y-31620326D01*
X86624069Y-31629893D01*
X86625516Y-31639649D01*
X86626000Y-31649500D01*
X86626000Y-31850500D01*
X86625516Y-31860351D01*
X86624069Y-31870107D01*
X86621673Y-31879674D01*
X86618350Y-31888960D01*
X86614133Y-31897875D01*
X86609063Y-31906335D01*
X86603188Y-31914257D01*
X86596564Y-31921564D01*
X86589257Y-31928188D01*
X86581335Y-31934063D01*
X86572875Y-31939133D01*
X86563960Y-31943350D01*
X86554674Y-31946673D01*
X86545107Y-31949069D01*
X86535351Y-31950516D01*
X86525500Y-31951000D01*
X85149500Y-31951000D01*
X85139649Y-31950516D01*
X85129893Y-31949069D01*
X85120326Y-31946673D01*
X85111040Y-31943350D01*
X85102125Y-31939133D01*
X85093665Y-31934063D01*
X85085743Y-31928188D01*
X85078436Y-31921564D01*
X85071812Y-31914257D01*
X85065937Y-31906335D01*
X85060867Y-31897875D01*
X85056650Y-31888960D01*
X85053327Y-31879674D01*
X85050931Y-31870107D01*
X85049484Y-31860351D01*
X85049000Y-31850500D01*
X85049000Y-31649500D01*
X85049484Y-31639649D01*
X85050931Y-31629893D01*
X85053327Y-31620326D01*
X85056650Y-31611040D01*
X85060867Y-31602125D01*
X85065937Y-31593665D01*
X85071812Y-31585743D01*
X85078436Y-31578436D01*
X85085743Y-31571812D01*
X85093665Y-31565937D01*
X85102125Y-31560867D01*
X85111040Y-31556650D01*
X85120326Y-31553327D01*
X85129893Y-31550931D01*
X85139649Y-31549484D01*
X85149500Y-31549000D01*
X86525500Y-31549000D01*
X86535351Y-31549484D01*
G37*
G36*
X86535351Y-31049484D02*
G01*
X86545107Y-31050931D01*
X86554674Y-31053327D01*
X86563960Y-31056650D01*
X86572875Y-31060867D01*
X86581335Y-31065937D01*
X86589257Y-31071812D01*
X86596564Y-31078436D01*
X86603188Y-31085743D01*
X86609063Y-31093665D01*
X86614133Y-31102125D01*
X86618350Y-31111040D01*
X86621673Y-31120326D01*
X86624069Y-31129893D01*
X86625516Y-31139649D01*
X86626000Y-31149500D01*
X86626000Y-31350500D01*
X86625516Y-31360351D01*
X86624069Y-31370107D01*
X86621673Y-31379674D01*
X86618350Y-31388960D01*
X86614133Y-31397875D01*
X86609063Y-31406335D01*
X86603188Y-31414257D01*
X86596564Y-31421564D01*
X86589257Y-31428188D01*
X86581335Y-31434063D01*
X86572875Y-31439133D01*
X86563960Y-31443350D01*
X86554674Y-31446673D01*
X86545107Y-31449069D01*
X86535351Y-31450516D01*
X86525500Y-31451000D01*
X85149500Y-31451000D01*
X85139649Y-31450516D01*
X85129893Y-31449069D01*
X85120326Y-31446673D01*
X85111040Y-31443350D01*
X85102125Y-31439133D01*
X85093665Y-31434063D01*
X85085743Y-31428188D01*
X85078436Y-31421564D01*
X85071812Y-31414257D01*
X85065937Y-31406335D01*
X85060867Y-31397875D01*
X85056650Y-31388960D01*
X85053327Y-31379674D01*
X85050931Y-31370107D01*
X85049484Y-31360351D01*
X85049000Y-31350500D01*
X85049000Y-31149500D01*
X85049484Y-31139649D01*
X85050931Y-31129893D01*
X85053327Y-31120326D01*
X85056650Y-31111040D01*
X85060867Y-31102125D01*
X85065937Y-31093665D01*
X85071812Y-31085743D01*
X85078436Y-31078436D01*
X85085743Y-31071812D01*
X85093665Y-31065937D01*
X85102125Y-31060867D01*
X85111040Y-31056650D01*
X85120326Y-31053327D01*
X85129893Y-31050931D01*
X85139649Y-31049484D01*
X85149500Y-31049000D01*
X86525500Y-31049000D01*
X86535351Y-31049484D01*
G37*
G36*
X86535351Y-30549484D02*
G01*
X86545107Y-30550931D01*
X86554674Y-30553327D01*
X86563960Y-30556650D01*
X86572875Y-30560867D01*
X86581335Y-30565937D01*
X86589257Y-30571812D01*
X86596564Y-30578436D01*
X86603188Y-30585743D01*
X86609063Y-30593665D01*
X86614133Y-30602125D01*
X86618350Y-30611040D01*
X86621673Y-30620326D01*
X86624069Y-30629893D01*
X86625516Y-30639649D01*
X86626000Y-30649500D01*
X86626000Y-30850500D01*
X86625516Y-30860351D01*
X86624069Y-30870107D01*
X86621673Y-30879674D01*
X86618350Y-30888960D01*
X86614133Y-30897875D01*
X86609063Y-30906335D01*
X86603188Y-30914257D01*
X86596564Y-30921564D01*
X86589257Y-30928188D01*
X86581335Y-30934063D01*
X86572875Y-30939133D01*
X86563960Y-30943350D01*
X86554674Y-30946673D01*
X86545107Y-30949069D01*
X86535351Y-30950516D01*
X86525500Y-30951000D01*
X85149500Y-30951000D01*
X85139649Y-30950516D01*
X85129893Y-30949069D01*
X85120326Y-30946673D01*
X85111040Y-30943350D01*
X85102125Y-30939133D01*
X85093665Y-30934063D01*
X85085743Y-30928188D01*
X85078436Y-30921564D01*
X85071812Y-30914257D01*
X85065937Y-30906335D01*
X85060867Y-30897875D01*
X85056650Y-30888960D01*
X85053327Y-30879674D01*
X85050931Y-30870107D01*
X85049484Y-30860351D01*
X85049000Y-30850500D01*
X85049000Y-30649500D01*
X85049484Y-30639649D01*
X85050931Y-30629893D01*
X85053327Y-30620326D01*
X85056650Y-30611040D01*
X85060867Y-30602125D01*
X85065937Y-30593665D01*
X85071812Y-30585743D01*
X85078436Y-30578436D01*
X85085743Y-30571812D01*
X85093665Y-30565937D01*
X85102125Y-30560867D01*
X85111040Y-30556650D01*
X85120326Y-30553327D01*
X85129893Y-30550931D01*
X85139649Y-30549484D01*
X85149500Y-30549000D01*
X86525500Y-30549000D01*
X86535351Y-30549484D01*
G37*
G36*
X86535351Y-30049484D02*
G01*
X86545107Y-30050931D01*
X86554674Y-30053327D01*
X86563960Y-30056650D01*
X86572875Y-30060867D01*
X86581335Y-30065937D01*
X86589257Y-30071812D01*
X86596564Y-30078436D01*
X86603188Y-30085743D01*
X86609063Y-30093665D01*
X86614133Y-30102125D01*
X86618350Y-30111040D01*
X86621673Y-30120326D01*
X86624069Y-30129893D01*
X86625516Y-30139649D01*
X86626000Y-30149500D01*
X86626000Y-30350500D01*
X86625516Y-30360351D01*
X86624069Y-30370107D01*
X86621673Y-30379674D01*
X86618350Y-30388960D01*
X86614133Y-30397875D01*
X86609063Y-30406335D01*
X86603188Y-30414257D01*
X86596564Y-30421564D01*
X86589257Y-30428188D01*
X86581335Y-30434063D01*
X86572875Y-30439133D01*
X86563960Y-30443350D01*
X86554674Y-30446673D01*
X86545107Y-30449069D01*
X86535351Y-30450516D01*
X86525500Y-30451000D01*
X85149500Y-30451000D01*
X85139649Y-30450516D01*
X85129893Y-30449069D01*
X85120326Y-30446673D01*
X85111040Y-30443350D01*
X85102125Y-30439133D01*
X85093665Y-30434063D01*
X85085743Y-30428188D01*
X85078436Y-30421564D01*
X85071812Y-30414257D01*
X85065937Y-30406335D01*
X85060867Y-30397875D01*
X85056650Y-30388960D01*
X85053327Y-30379674D01*
X85050931Y-30370107D01*
X85049484Y-30360351D01*
X85049000Y-30350500D01*
X85049000Y-30149500D01*
X85049484Y-30139649D01*
X85050931Y-30129893D01*
X85053327Y-30120326D01*
X85056650Y-30111040D01*
X85060867Y-30102125D01*
X85065937Y-30093665D01*
X85071812Y-30085743D01*
X85078436Y-30078436D01*
X85085743Y-30071812D01*
X85093665Y-30065937D01*
X85102125Y-30060867D01*
X85111040Y-30056650D01*
X85120326Y-30053327D01*
X85129893Y-30050931D01*
X85139649Y-30049484D01*
X85149500Y-30049000D01*
X86525500Y-30049000D01*
X86535351Y-30049484D01*
G37*
G36*
X86535351Y-29549484D02*
G01*
X86545107Y-29550931D01*
X86554674Y-29553327D01*
X86563960Y-29556650D01*
X86572875Y-29560867D01*
X86581335Y-29565937D01*
X86589257Y-29571812D01*
X86596564Y-29578436D01*
X86603188Y-29585743D01*
X86609063Y-29593665D01*
X86614133Y-29602125D01*
X86618350Y-29611040D01*
X86621673Y-29620326D01*
X86624069Y-29629893D01*
X86625516Y-29639649D01*
X86626000Y-29649500D01*
X86626000Y-29850500D01*
X86625516Y-29860351D01*
X86624069Y-29870107D01*
X86621673Y-29879674D01*
X86618350Y-29888960D01*
X86614133Y-29897875D01*
X86609063Y-29906335D01*
X86603188Y-29914257D01*
X86596564Y-29921564D01*
X86589257Y-29928188D01*
X86581335Y-29934063D01*
X86572875Y-29939133D01*
X86563960Y-29943350D01*
X86554674Y-29946673D01*
X86545107Y-29949069D01*
X86535351Y-29950516D01*
X86525500Y-29951000D01*
X85149500Y-29951000D01*
X85139649Y-29950516D01*
X85129893Y-29949069D01*
X85120326Y-29946673D01*
X85111040Y-29943350D01*
X85102125Y-29939133D01*
X85093665Y-29934063D01*
X85085743Y-29928188D01*
X85078436Y-29921564D01*
X85071812Y-29914257D01*
X85065937Y-29906335D01*
X85060867Y-29897875D01*
X85056650Y-29888960D01*
X85053327Y-29879674D01*
X85050931Y-29870107D01*
X85049484Y-29860351D01*
X85049000Y-29850500D01*
X85049000Y-29649500D01*
X85049484Y-29639649D01*
X85050931Y-29629893D01*
X85053327Y-29620326D01*
X85056650Y-29611040D01*
X85060867Y-29602125D01*
X85065937Y-29593665D01*
X85071812Y-29585743D01*
X85078436Y-29578436D01*
X85085743Y-29571812D01*
X85093665Y-29565937D01*
X85102125Y-29560867D01*
X85111040Y-29556650D01*
X85120326Y-29553327D01*
X85129893Y-29550931D01*
X85139649Y-29549484D01*
X85149500Y-29549000D01*
X86525500Y-29549000D01*
X86535351Y-29549484D01*
G37*
G36*
X86535351Y-29049484D02*
G01*
X86545107Y-29050931D01*
X86554674Y-29053327D01*
X86563960Y-29056650D01*
X86572875Y-29060867D01*
X86581335Y-29065937D01*
X86589257Y-29071812D01*
X86596564Y-29078436D01*
X86603188Y-29085743D01*
X86609063Y-29093665D01*
X86614133Y-29102125D01*
X86618350Y-29111040D01*
X86621673Y-29120326D01*
X86624069Y-29129893D01*
X86625516Y-29139649D01*
X86626000Y-29149500D01*
X86626000Y-29350500D01*
X86625516Y-29360351D01*
X86624069Y-29370107D01*
X86621673Y-29379674D01*
X86618350Y-29388960D01*
X86614133Y-29397875D01*
X86609063Y-29406335D01*
X86603188Y-29414257D01*
X86596564Y-29421564D01*
X86589257Y-29428188D01*
X86581335Y-29434063D01*
X86572875Y-29439133D01*
X86563960Y-29443350D01*
X86554674Y-29446673D01*
X86545107Y-29449069D01*
X86535351Y-29450516D01*
X86525500Y-29451000D01*
X85149500Y-29451000D01*
X85139649Y-29450516D01*
X85129893Y-29449069D01*
X85120326Y-29446673D01*
X85111040Y-29443350D01*
X85102125Y-29439133D01*
X85093665Y-29434063D01*
X85085743Y-29428188D01*
X85078436Y-29421564D01*
X85071812Y-29414257D01*
X85065937Y-29406335D01*
X85060867Y-29397875D01*
X85056650Y-29388960D01*
X85053327Y-29379674D01*
X85050931Y-29370107D01*
X85049484Y-29360351D01*
X85049000Y-29350500D01*
X85049000Y-29149500D01*
X85049484Y-29139649D01*
X85050931Y-29129893D01*
X85053327Y-29120326D01*
X85056650Y-29111040D01*
X85060867Y-29102125D01*
X85065937Y-29093665D01*
X85071812Y-29085743D01*
X85078436Y-29078436D01*
X85085743Y-29071812D01*
X85093665Y-29065937D01*
X85102125Y-29060867D01*
X85111040Y-29056650D01*
X85120326Y-29053327D01*
X85129893Y-29050931D01*
X85139649Y-29049484D01*
X85149500Y-29049000D01*
X86525500Y-29049000D01*
X86535351Y-29049484D01*
G37*
G36*
X86535351Y-28549484D02*
G01*
X86545107Y-28550931D01*
X86554674Y-28553327D01*
X86563960Y-28556650D01*
X86572875Y-28560867D01*
X86581335Y-28565937D01*
X86589257Y-28571812D01*
X86596564Y-28578436D01*
X86603188Y-28585743D01*
X86609063Y-28593665D01*
X86614133Y-28602125D01*
X86618350Y-28611040D01*
X86621673Y-28620326D01*
X86624069Y-28629893D01*
X86625516Y-28639649D01*
X86626000Y-28649500D01*
X86626000Y-28850500D01*
X86625516Y-28860351D01*
X86624069Y-28870107D01*
X86621673Y-28879674D01*
X86618350Y-28888960D01*
X86614133Y-28897875D01*
X86609063Y-28906335D01*
X86603188Y-28914257D01*
X86596564Y-28921564D01*
X86589257Y-28928188D01*
X86581335Y-28934063D01*
X86572875Y-28939133D01*
X86563960Y-28943350D01*
X86554674Y-28946673D01*
X86545107Y-28949069D01*
X86535351Y-28950516D01*
X86525500Y-28951000D01*
X85149500Y-28951000D01*
X85139649Y-28950516D01*
X85129893Y-28949069D01*
X85120326Y-28946673D01*
X85111040Y-28943350D01*
X85102125Y-28939133D01*
X85093665Y-28934063D01*
X85085743Y-28928188D01*
X85078436Y-28921564D01*
X85071812Y-28914257D01*
X85065937Y-28906335D01*
X85060867Y-28897875D01*
X85056650Y-28888960D01*
X85053327Y-28879674D01*
X85050931Y-28870107D01*
X85049484Y-28860351D01*
X85049000Y-28850500D01*
X85049000Y-28649500D01*
X85049484Y-28639649D01*
X85050931Y-28629893D01*
X85053327Y-28620326D01*
X85056650Y-28611040D01*
X85060867Y-28602125D01*
X85065937Y-28593665D01*
X85071812Y-28585743D01*
X85078436Y-28578436D01*
X85085743Y-28571812D01*
X85093665Y-28565937D01*
X85102125Y-28560867D01*
X85111040Y-28556650D01*
X85120326Y-28553327D01*
X85129893Y-28550931D01*
X85139649Y-28549484D01*
X85149500Y-28549000D01*
X86525500Y-28549000D01*
X86535351Y-28549484D01*
G37*
G36*
X87360351Y-26549484D02*
G01*
X87370107Y-26550931D01*
X87379674Y-26553327D01*
X87388960Y-26556650D01*
X87397875Y-26560867D01*
X87406335Y-26565937D01*
X87414257Y-26571812D01*
X87421564Y-26578436D01*
X87428188Y-26585743D01*
X87434063Y-26593665D01*
X87439133Y-26602125D01*
X87443350Y-26611040D01*
X87446673Y-26620326D01*
X87449069Y-26629893D01*
X87450516Y-26639649D01*
X87451000Y-26649500D01*
X87451000Y-28025500D01*
X87450516Y-28035351D01*
X87449069Y-28045107D01*
X87446673Y-28054674D01*
X87443350Y-28063960D01*
X87439133Y-28072875D01*
X87434063Y-28081335D01*
X87428188Y-28089257D01*
X87421564Y-28096564D01*
X87414257Y-28103188D01*
X87406335Y-28109063D01*
X87397875Y-28114133D01*
X87388960Y-28118350D01*
X87379674Y-28121673D01*
X87370107Y-28124069D01*
X87360351Y-28125516D01*
X87350500Y-28126000D01*
X87149500Y-28126000D01*
X87139649Y-28125516D01*
X87129893Y-28124069D01*
X87120326Y-28121673D01*
X87111040Y-28118350D01*
X87102125Y-28114133D01*
X87093665Y-28109063D01*
X87085743Y-28103188D01*
X87078436Y-28096564D01*
X87071812Y-28089257D01*
X87065937Y-28081335D01*
X87060867Y-28072875D01*
X87056650Y-28063960D01*
X87053327Y-28054674D01*
X87050931Y-28045107D01*
X87049484Y-28035351D01*
X87049000Y-28025500D01*
X87049000Y-26649500D01*
X87049484Y-26639649D01*
X87050931Y-26629893D01*
X87053327Y-26620326D01*
X87056650Y-26611040D01*
X87060867Y-26602125D01*
X87065937Y-26593665D01*
X87071812Y-26585743D01*
X87078436Y-26578436D01*
X87085743Y-26571812D01*
X87093665Y-26565937D01*
X87102125Y-26560867D01*
X87111040Y-26556650D01*
X87120326Y-26553327D01*
X87129893Y-26550931D01*
X87139649Y-26549484D01*
X87149500Y-26549000D01*
X87350500Y-26549000D01*
X87360351Y-26549484D01*
G37*
G36*
X87860351Y-26549484D02*
G01*
X87870107Y-26550931D01*
X87879674Y-26553327D01*
X87888960Y-26556650D01*
X87897875Y-26560867D01*
X87906335Y-26565937D01*
X87914257Y-26571812D01*
X87921564Y-26578436D01*
X87928188Y-26585743D01*
X87934063Y-26593665D01*
X87939133Y-26602125D01*
X87943350Y-26611040D01*
X87946673Y-26620326D01*
X87949069Y-26629893D01*
X87950516Y-26639649D01*
X87951000Y-26649500D01*
X87951000Y-28025500D01*
X87950516Y-28035351D01*
X87949069Y-28045107D01*
X87946673Y-28054674D01*
X87943350Y-28063960D01*
X87939133Y-28072875D01*
X87934063Y-28081335D01*
X87928188Y-28089257D01*
X87921564Y-28096564D01*
X87914257Y-28103188D01*
X87906335Y-28109063D01*
X87897875Y-28114133D01*
X87888960Y-28118350D01*
X87879674Y-28121673D01*
X87870107Y-28124069D01*
X87860351Y-28125516D01*
X87850500Y-28126000D01*
X87649500Y-28126000D01*
X87639649Y-28125516D01*
X87629893Y-28124069D01*
X87620326Y-28121673D01*
X87611040Y-28118350D01*
X87602125Y-28114133D01*
X87593665Y-28109063D01*
X87585743Y-28103188D01*
X87578436Y-28096564D01*
X87571812Y-28089257D01*
X87565937Y-28081335D01*
X87560867Y-28072875D01*
X87556650Y-28063960D01*
X87553327Y-28054674D01*
X87550931Y-28045107D01*
X87549484Y-28035351D01*
X87549000Y-28025500D01*
X87549000Y-26649500D01*
X87549484Y-26639649D01*
X87550931Y-26629893D01*
X87553327Y-26620326D01*
X87556650Y-26611040D01*
X87560867Y-26602125D01*
X87565937Y-26593665D01*
X87571812Y-26585743D01*
X87578436Y-26578436D01*
X87585743Y-26571812D01*
X87593665Y-26565937D01*
X87602125Y-26560867D01*
X87611040Y-26556650D01*
X87620326Y-26553327D01*
X87629893Y-26550931D01*
X87639649Y-26549484D01*
X87649500Y-26549000D01*
X87850500Y-26549000D01*
X87860351Y-26549484D01*
G37*
G36*
X88360351Y-26549484D02*
G01*
X88370107Y-26550931D01*
X88379674Y-26553327D01*
X88388960Y-26556650D01*
X88397875Y-26560867D01*
X88406335Y-26565937D01*
X88414257Y-26571812D01*
X88421564Y-26578436D01*
X88428188Y-26585743D01*
X88434063Y-26593665D01*
X88439133Y-26602125D01*
X88443350Y-26611040D01*
X88446673Y-26620326D01*
X88449069Y-26629893D01*
X88450516Y-26639649D01*
X88451000Y-26649500D01*
X88451000Y-28025500D01*
X88450516Y-28035351D01*
X88449069Y-28045107D01*
X88446673Y-28054674D01*
X88443350Y-28063960D01*
X88439133Y-28072875D01*
X88434063Y-28081335D01*
X88428188Y-28089257D01*
X88421564Y-28096564D01*
X88414257Y-28103188D01*
X88406335Y-28109063D01*
X88397875Y-28114133D01*
X88388960Y-28118350D01*
X88379674Y-28121673D01*
X88370107Y-28124069D01*
X88360351Y-28125516D01*
X88350500Y-28126000D01*
X88149500Y-28126000D01*
X88139649Y-28125516D01*
X88129893Y-28124069D01*
X88120326Y-28121673D01*
X88111040Y-28118350D01*
X88102125Y-28114133D01*
X88093665Y-28109063D01*
X88085743Y-28103188D01*
X88078436Y-28096564D01*
X88071812Y-28089257D01*
X88065937Y-28081335D01*
X88060867Y-28072875D01*
X88056650Y-28063960D01*
X88053327Y-28054674D01*
X88050931Y-28045107D01*
X88049484Y-28035351D01*
X88049000Y-28025500D01*
X88049000Y-26649500D01*
X88049484Y-26639649D01*
X88050931Y-26629893D01*
X88053327Y-26620326D01*
X88056650Y-26611040D01*
X88060867Y-26602125D01*
X88065937Y-26593665D01*
X88071812Y-26585743D01*
X88078436Y-26578436D01*
X88085743Y-26571812D01*
X88093665Y-26565937D01*
X88102125Y-26560867D01*
X88111040Y-26556650D01*
X88120326Y-26553327D01*
X88129893Y-26550931D01*
X88139649Y-26549484D01*
X88149500Y-26549000D01*
X88350500Y-26549000D01*
X88360351Y-26549484D01*
G37*
G36*
X88860351Y-26549484D02*
G01*
X88870107Y-26550931D01*
X88879674Y-26553327D01*
X88888960Y-26556650D01*
X88897875Y-26560867D01*
X88906335Y-26565937D01*
X88914257Y-26571812D01*
X88921564Y-26578436D01*
X88928188Y-26585743D01*
X88934063Y-26593665D01*
X88939133Y-26602125D01*
X88943350Y-26611040D01*
X88946673Y-26620326D01*
X88949069Y-26629893D01*
X88950516Y-26639649D01*
X88951000Y-26649500D01*
X88951000Y-28025500D01*
X88950516Y-28035351D01*
X88949069Y-28045107D01*
X88946673Y-28054674D01*
X88943350Y-28063960D01*
X88939133Y-28072875D01*
X88934063Y-28081335D01*
X88928188Y-28089257D01*
X88921564Y-28096564D01*
X88914257Y-28103188D01*
X88906335Y-28109063D01*
X88897875Y-28114133D01*
X88888960Y-28118350D01*
X88879674Y-28121673D01*
X88870107Y-28124069D01*
X88860351Y-28125516D01*
X88850500Y-28126000D01*
X88649500Y-28126000D01*
X88639649Y-28125516D01*
X88629893Y-28124069D01*
X88620326Y-28121673D01*
X88611040Y-28118350D01*
X88602125Y-28114133D01*
X88593665Y-28109063D01*
X88585743Y-28103188D01*
X88578436Y-28096564D01*
X88571812Y-28089257D01*
X88565937Y-28081335D01*
X88560867Y-28072875D01*
X88556650Y-28063960D01*
X88553327Y-28054674D01*
X88550931Y-28045107D01*
X88549484Y-28035351D01*
X88549000Y-28025500D01*
X88549000Y-26649500D01*
X88549484Y-26639649D01*
X88550931Y-26629893D01*
X88553327Y-26620326D01*
X88556650Y-26611040D01*
X88560867Y-26602125D01*
X88565937Y-26593665D01*
X88571812Y-26585743D01*
X88578436Y-26578436D01*
X88585743Y-26571812D01*
X88593665Y-26565937D01*
X88602125Y-26560867D01*
X88611040Y-26556650D01*
X88620326Y-26553327D01*
X88629893Y-26550931D01*
X88639649Y-26549484D01*
X88649500Y-26549000D01*
X88850500Y-26549000D01*
X88860351Y-26549484D01*
G37*
G36*
X89360351Y-26549484D02*
G01*
X89370107Y-26550931D01*
X89379674Y-26553327D01*
X89388960Y-26556650D01*
X89397875Y-26560867D01*
X89406335Y-26565937D01*
X89414257Y-26571812D01*
X89421564Y-26578436D01*
X89428188Y-26585743D01*
X89434063Y-26593665D01*
X89439133Y-26602125D01*
X89443350Y-26611040D01*
X89446673Y-26620326D01*
X89449069Y-26629893D01*
X89450516Y-26639649D01*
X89451000Y-26649500D01*
X89451000Y-28025500D01*
X89450516Y-28035351D01*
X89449069Y-28045107D01*
X89446673Y-28054674D01*
X89443350Y-28063960D01*
X89439133Y-28072875D01*
X89434063Y-28081335D01*
X89428188Y-28089257D01*
X89421564Y-28096564D01*
X89414257Y-28103188D01*
X89406335Y-28109063D01*
X89397875Y-28114133D01*
X89388960Y-28118350D01*
X89379674Y-28121673D01*
X89370107Y-28124069D01*
X89360351Y-28125516D01*
X89350500Y-28126000D01*
X89149500Y-28126000D01*
X89139649Y-28125516D01*
X89129893Y-28124069D01*
X89120326Y-28121673D01*
X89111040Y-28118350D01*
X89102125Y-28114133D01*
X89093665Y-28109063D01*
X89085743Y-28103188D01*
X89078436Y-28096564D01*
X89071812Y-28089257D01*
X89065937Y-28081335D01*
X89060867Y-28072875D01*
X89056650Y-28063960D01*
X89053327Y-28054674D01*
X89050931Y-28045107D01*
X89049484Y-28035351D01*
X89049000Y-28025500D01*
X89049000Y-26649500D01*
X89049484Y-26639649D01*
X89050931Y-26629893D01*
X89053327Y-26620326D01*
X89056650Y-26611040D01*
X89060867Y-26602125D01*
X89065937Y-26593665D01*
X89071812Y-26585743D01*
X89078436Y-26578436D01*
X89085743Y-26571812D01*
X89093665Y-26565937D01*
X89102125Y-26560867D01*
X89111040Y-26556650D01*
X89120326Y-26553327D01*
X89129893Y-26550931D01*
X89139649Y-26549484D01*
X89149500Y-26549000D01*
X89350500Y-26549000D01*
X89360351Y-26549484D01*
G37*
G36*
X89860351Y-26549484D02*
G01*
X89870107Y-26550931D01*
X89879674Y-26553327D01*
X89888960Y-26556650D01*
X89897875Y-26560867D01*
X89906335Y-26565937D01*
X89914257Y-26571812D01*
X89921564Y-26578436D01*
X89928188Y-26585743D01*
X89934063Y-26593665D01*
X89939133Y-26602125D01*
X89943350Y-26611040D01*
X89946673Y-26620326D01*
X89949069Y-26629893D01*
X89950516Y-26639649D01*
X89951000Y-26649500D01*
X89951000Y-28025500D01*
X89950516Y-28035351D01*
X89949069Y-28045107D01*
X89946673Y-28054674D01*
X89943350Y-28063960D01*
X89939133Y-28072875D01*
X89934063Y-28081335D01*
X89928188Y-28089257D01*
X89921564Y-28096564D01*
X89914257Y-28103188D01*
X89906335Y-28109063D01*
X89897875Y-28114133D01*
X89888960Y-28118350D01*
X89879674Y-28121673D01*
X89870107Y-28124069D01*
X89860351Y-28125516D01*
X89850500Y-28126000D01*
X89649500Y-28126000D01*
X89639649Y-28125516D01*
X89629893Y-28124069D01*
X89620326Y-28121673D01*
X89611040Y-28118350D01*
X89602125Y-28114133D01*
X89593665Y-28109063D01*
X89585743Y-28103188D01*
X89578436Y-28096564D01*
X89571812Y-28089257D01*
X89565937Y-28081335D01*
X89560867Y-28072875D01*
X89556650Y-28063960D01*
X89553327Y-28054674D01*
X89550931Y-28045107D01*
X89549484Y-28035351D01*
X89549000Y-28025500D01*
X89549000Y-26649500D01*
X89549484Y-26639649D01*
X89550931Y-26629893D01*
X89553327Y-26620326D01*
X89556650Y-26611040D01*
X89560867Y-26602125D01*
X89565937Y-26593665D01*
X89571812Y-26585743D01*
X89578436Y-26578436D01*
X89585743Y-26571812D01*
X89593665Y-26565937D01*
X89602125Y-26560867D01*
X89611040Y-26556650D01*
X89620326Y-26553327D01*
X89629893Y-26550931D01*
X89639649Y-26549484D01*
X89649500Y-26549000D01*
X89850500Y-26549000D01*
X89860351Y-26549484D01*
G37*
G36*
X90360351Y-26549484D02*
G01*
X90370107Y-26550931D01*
X90379674Y-26553327D01*
X90388960Y-26556650D01*
X90397875Y-26560867D01*
X90406335Y-26565937D01*
X90414257Y-26571812D01*
X90421564Y-26578436D01*
X90428188Y-26585743D01*
X90434063Y-26593665D01*
X90439133Y-26602125D01*
X90443350Y-26611040D01*
X90446673Y-26620326D01*
X90449069Y-26629893D01*
X90450516Y-26639649D01*
X90451000Y-26649500D01*
X90451000Y-28025500D01*
X90450516Y-28035351D01*
X90449069Y-28045107D01*
X90446673Y-28054674D01*
X90443350Y-28063960D01*
X90439133Y-28072875D01*
X90434063Y-28081335D01*
X90428188Y-28089257D01*
X90421564Y-28096564D01*
X90414257Y-28103188D01*
X90406335Y-28109063D01*
X90397875Y-28114133D01*
X90388960Y-28118350D01*
X90379674Y-28121673D01*
X90370107Y-28124069D01*
X90360351Y-28125516D01*
X90350500Y-28126000D01*
X90149500Y-28126000D01*
X90139649Y-28125516D01*
X90129893Y-28124069D01*
X90120326Y-28121673D01*
X90111040Y-28118350D01*
X90102125Y-28114133D01*
X90093665Y-28109063D01*
X90085743Y-28103188D01*
X90078436Y-28096564D01*
X90071812Y-28089257D01*
X90065937Y-28081335D01*
X90060867Y-28072875D01*
X90056650Y-28063960D01*
X90053327Y-28054674D01*
X90050931Y-28045107D01*
X90049484Y-28035351D01*
X90049000Y-28025500D01*
X90049000Y-26649500D01*
X90049484Y-26639649D01*
X90050931Y-26629893D01*
X90053327Y-26620326D01*
X90056650Y-26611040D01*
X90060867Y-26602125D01*
X90065937Y-26593665D01*
X90071812Y-26585743D01*
X90078436Y-26578436D01*
X90085743Y-26571812D01*
X90093665Y-26565937D01*
X90102125Y-26560867D01*
X90111040Y-26556650D01*
X90120326Y-26553327D01*
X90129893Y-26550931D01*
X90139649Y-26549484D01*
X90149500Y-26549000D01*
X90350500Y-26549000D01*
X90360351Y-26549484D01*
G37*
G36*
X90860351Y-26549484D02*
G01*
X90870107Y-26550931D01*
X90879674Y-26553327D01*
X90888960Y-26556650D01*
X90897875Y-26560867D01*
X90906335Y-26565937D01*
X90914257Y-26571812D01*
X90921564Y-26578436D01*
X90928188Y-26585743D01*
X90934063Y-26593665D01*
X90939133Y-26602125D01*
X90943350Y-26611040D01*
X90946673Y-26620326D01*
X90949069Y-26629893D01*
X90950516Y-26639649D01*
X90951000Y-26649500D01*
X90951000Y-28025500D01*
X90950516Y-28035351D01*
X90949069Y-28045107D01*
X90946673Y-28054674D01*
X90943350Y-28063960D01*
X90939133Y-28072875D01*
X90934063Y-28081335D01*
X90928188Y-28089257D01*
X90921564Y-28096564D01*
X90914257Y-28103188D01*
X90906335Y-28109063D01*
X90897875Y-28114133D01*
X90888960Y-28118350D01*
X90879674Y-28121673D01*
X90870107Y-28124069D01*
X90860351Y-28125516D01*
X90850500Y-28126000D01*
X90649500Y-28126000D01*
X90639649Y-28125516D01*
X90629893Y-28124069D01*
X90620326Y-28121673D01*
X90611040Y-28118350D01*
X90602125Y-28114133D01*
X90593665Y-28109063D01*
X90585743Y-28103188D01*
X90578436Y-28096564D01*
X90571812Y-28089257D01*
X90565937Y-28081335D01*
X90560867Y-28072875D01*
X90556650Y-28063960D01*
X90553327Y-28054674D01*
X90550931Y-28045107D01*
X90549484Y-28035351D01*
X90549000Y-28025500D01*
X90549000Y-26649500D01*
X90549484Y-26639649D01*
X90550931Y-26629893D01*
X90553327Y-26620326D01*
X90556650Y-26611040D01*
X90560867Y-26602125D01*
X90565937Y-26593665D01*
X90571812Y-26585743D01*
X90578436Y-26578436D01*
X90585743Y-26571812D01*
X90593665Y-26565937D01*
X90602125Y-26560867D01*
X90611040Y-26556650D01*
X90620326Y-26553327D01*
X90629893Y-26550931D01*
X90639649Y-26549484D01*
X90649500Y-26549000D01*
X90850500Y-26549000D01*
X90860351Y-26549484D01*
G37*
G36*
X91360351Y-26549484D02*
G01*
X91370107Y-26550931D01*
X91379674Y-26553327D01*
X91388960Y-26556650D01*
X91397875Y-26560867D01*
X91406335Y-26565937D01*
X91414257Y-26571812D01*
X91421564Y-26578436D01*
X91428188Y-26585743D01*
X91434063Y-26593665D01*
X91439133Y-26602125D01*
X91443350Y-26611040D01*
X91446673Y-26620326D01*
X91449069Y-26629893D01*
X91450516Y-26639649D01*
X91451000Y-26649500D01*
X91451000Y-28025500D01*
X91450516Y-28035351D01*
X91449069Y-28045107D01*
X91446673Y-28054674D01*
X91443350Y-28063960D01*
X91439133Y-28072875D01*
X91434063Y-28081335D01*
X91428188Y-28089257D01*
X91421564Y-28096564D01*
X91414257Y-28103188D01*
X91406335Y-28109063D01*
X91397875Y-28114133D01*
X91388960Y-28118350D01*
X91379674Y-28121673D01*
X91370107Y-28124069D01*
X91360351Y-28125516D01*
X91350500Y-28126000D01*
X91149500Y-28126000D01*
X91139649Y-28125516D01*
X91129893Y-28124069D01*
X91120326Y-28121673D01*
X91111040Y-28118350D01*
X91102125Y-28114133D01*
X91093665Y-28109063D01*
X91085743Y-28103188D01*
X91078436Y-28096564D01*
X91071812Y-28089257D01*
X91065937Y-28081335D01*
X91060867Y-28072875D01*
X91056650Y-28063960D01*
X91053327Y-28054674D01*
X91050931Y-28045107D01*
X91049484Y-28035351D01*
X91049000Y-28025500D01*
X91049000Y-26649500D01*
X91049484Y-26639649D01*
X91050931Y-26629893D01*
X91053327Y-26620326D01*
X91056650Y-26611040D01*
X91060867Y-26602125D01*
X91065937Y-26593665D01*
X91071812Y-26585743D01*
X91078436Y-26578436D01*
X91085743Y-26571812D01*
X91093665Y-26565937D01*
X91102125Y-26560867D01*
X91111040Y-26556650D01*
X91120326Y-26553327D01*
X91129893Y-26550931D01*
X91139649Y-26549484D01*
X91149500Y-26549000D01*
X91350500Y-26549000D01*
X91360351Y-26549484D01*
G37*
G36*
X91860351Y-26549484D02*
G01*
X91870107Y-26550931D01*
X91879674Y-26553327D01*
X91888960Y-26556650D01*
X91897875Y-26560867D01*
X91906335Y-26565937D01*
X91914257Y-26571812D01*
X91921564Y-26578436D01*
X91928188Y-26585743D01*
X91934063Y-26593665D01*
X91939133Y-26602125D01*
X91943350Y-26611040D01*
X91946673Y-26620326D01*
X91949069Y-26629893D01*
X91950516Y-26639649D01*
X91951000Y-26649500D01*
X91951000Y-28025500D01*
X91950516Y-28035351D01*
X91949069Y-28045107D01*
X91946673Y-28054674D01*
X91943350Y-28063960D01*
X91939133Y-28072875D01*
X91934063Y-28081335D01*
X91928188Y-28089257D01*
X91921564Y-28096564D01*
X91914257Y-28103188D01*
X91906335Y-28109063D01*
X91897875Y-28114133D01*
X91888960Y-28118350D01*
X91879674Y-28121673D01*
X91870107Y-28124069D01*
X91860351Y-28125516D01*
X91850500Y-28126000D01*
X91649500Y-28126000D01*
X91639649Y-28125516D01*
X91629893Y-28124069D01*
X91620326Y-28121673D01*
X91611040Y-28118350D01*
X91602125Y-28114133D01*
X91593665Y-28109063D01*
X91585743Y-28103188D01*
X91578436Y-28096564D01*
X91571812Y-28089257D01*
X91565937Y-28081335D01*
X91560867Y-28072875D01*
X91556650Y-28063960D01*
X91553327Y-28054674D01*
X91550931Y-28045107D01*
X91549484Y-28035351D01*
X91549000Y-28025500D01*
X91549000Y-26649500D01*
X91549484Y-26639649D01*
X91550931Y-26629893D01*
X91553327Y-26620326D01*
X91556650Y-26611040D01*
X91560867Y-26602125D01*
X91565937Y-26593665D01*
X91571812Y-26585743D01*
X91578436Y-26578436D01*
X91585743Y-26571812D01*
X91593665Y-26565937D01*
X91602125Y-26560867D01*
X91611040Y-26556650D01*
X91620326Y-26553327D01*
X91629893Y-26550931D01*
X91639649Y-26549484D01*
X91649500Y-26549000D01*
X91850500Y-26549000D01*
X91860351Y-26549484D01*
G37*
G36*
X92360351Y-26549484D02*
G01*
X92370107Y-26550931D01*
X92379674Y-26553327D01*
X92388960Y-26556650D01*
X92397875Y-26560867D01*
X92406335Y-26565937D01*
X92414257Y-26571812D01*
X92421564Y-26578436D01*
X92428188Y-26585743D01*
X92434063Y-26593665D01*
X92439133Y-26602125D01*
X92443350Y-26611040D01*
X92446673Y-26620326D01*
X92449069Y-26629893D01*
X92450516Y-26639649D01*
X92451000Y-26649500D01*
X92451000Y-28025500D01*
X92450516Y-28035351D01*
X92449069Y-28045107D01*
X92446673Y-28054674D01*
X92443350Y-28063960D01*
X92439133Y-28072875D01*
X92434063Y-28081335D01*
X92428188Y-28089257D01*
X92421564Y-28096564D01*
X92414257Y-28103188D01*
X92406335Y-28109063D01*
X92397875Y-28114133D01*
X92388960Y-28118350D01*
X92379674Y-28121673D01*
X92370107Y-28124069D01*
X92360351Y-28125516D01*
X92350500Y-28126000D01*
X92149500Y-28126000D01*
X92139649Y-28125516D01*
X92129893Y-28124069D01*
X92120326Y-28121673D01*
X92111040Y-28118350D01*
X92102125Y-28114133D01*
X92093665Y-28109063D01*
X92085743Y-28103188D01*
X92078436Y-28096564D01*
X92071812Y-28089257D01*
X92065937Y-28081335D01*
X92060867Y-28072875D01*
X92056650Y-28063960D01*
X92053327Y-28054674D01*
X92050931Y-28045107D01*
X92049484Y-28035351D01*
X92049000Y-28025500D01*
X92049000Y-26649500D01*
X92049484Y-26639649D01*
X92050931Y-26629893D01*
X92053327Y-26620326D01*
X92056650Y-26611040D01*
X92060867Y-26602125D01*
X92065937Y-26593665D01*
X92071812Y-26585743D01*
X92078436Y-26578436D01*
X92085743Y-26571812D01*
X92093665Y-26565937D01*
X92102125Y-26560867D01*
X92111040Y-26556650D01*
X92120326Y-26553327D01*
X92129893Y-26550931D01*
X92139649Y-26549484D01*
X92149500Y-26549000D01*
X92350500Y-26549000D01*
X92360351Y-26549484D01*
G37*
G36*
X92860351Y-26549484D02*
G01*
X92870107Y-26550931D01*
X92879674Y-26553327D01*
X92888960Y-26556650D01*
X92897875Y-26560867D01*
X92906335Y-26565937D01*
X92914257Y-26571812D01*
X92921564Y-26578436D01*
X92928188Y-26585743D01*
X92934063Y-26593665D01*
X92939133Y-26602125D01*
X92943350Y-26611040D01*
X92946673Y-26620326D01*
X92949069Y-26629893D01*
X92950516Y-26639649D01*
X92951000Y-26649500D01*
X92951000Y-28025500D01*
X92950516Y-28035351D01*
X92949069Y-28045107D01*
X92946673Y-28054674D01*
X92943350Y-28063960D01*
X92939133Y-28072875D01*
X92934063Y-28081335D01*
X92928188Y-28089257D01*
X92921564Y-28096564D01*
X92914257Y-28103188D01*
X92906335Y-28109063D01*
X92897875Y-28114133D01*
X92888960Y-28118350D01*
X92879674Y-28121673D01*
X92870107Y-28124069D01*
X92860351Y-28125516D01*
X92850500Y-28126000D01*
X92649500Y-28126000D01*
X92639649Y-28125516D01*
X92629893Y-28124069D01*
X92620326Y-28121673D01*
X92611040Y-28118350D01*
X92602125Y-28114133D01*
X92593665Y-28109063D01*
X92585743Y-28103188D01*
X92578436Y-28096564D01*
X92571812Y-28089257D01*
X92565937Y-28081335D01*
X92560867Y-28072875D01*
X92556650Y-28063960D01*
X92553327Y-28054674D01*
X92550931Y-28045107D01*
X92549484Y-28035351D01*
X92549000Y-28025500D01*
X92549000Y-26649500D01*
X92549484Y-26639649D01*
X92550931Y-26629893D01*
X92553327Y-26620326D01*
X92556650Y-26611040D01*
X92560867Y-26602125D01*
X92565937Y-26593665D01*
X92571812Y-26585743D01*
X92578436Y-26578436D01*
X92585743Y-26571812D01*
X92593665Y-26565937D01*
X92602125Y-26560867D01*
X92611040Y-26556650D01*
X92620326Y-26553327D01*
X92629893Y-26550931D01*
X92639649Y-26549484D01*
X92649500Y-26549000D01*
X92850500Y-26549000D01*
X92860351Y-26549484D01*
G37*
G36*
X94860351Y-28549484D02*
G01*
X94870107Y-28550931D01*
X94879674Y-28553327D01*
X94888960Y-28556650D01*
X94897875Y-28560867D01*
X94906335Y-28565937D01*
X94914257Y-28571812D01*
X94921564Y-28578436D01*
X94928188Y-28585743D01*
X94934063Y-28593665D01*
X94939133Y-28602125D01*
X94943350Y-28611040D01*
X94946673Y-28620326D01*
X94949069Y-28629893D01*
X94950516Y-28639649D01*
X94951000Y-28649500D01*
X94951000Y-28850500D01*
X94950516Y-28860351D01*
X94949069Y-28870107D01*
X94946673Y-28879674D01*
X94943350Y-28888960D01*
X94939133Y-28897875D01*
X94934063Y-28906335D01*
X94928188Y-28914257D01*
X94921564Y-28921564D01*
X94914257Y-28928188D01*
X94906335Y-28934063D01*
X94897875Y-28939133D01*
X94888960Y-28943350D01*
X94879674Y-28946673D01*
X94870107Y-28949069D01*
X94860351Y-28950516D01*
X94850500Y-28951000D01*
X93474500Y-28951000D01*
X93464649Y-28950516D01*
X93454893Y-28949069D01*
X93445326Y-28946673D01*
X93436040Y-28943350D01*
X93427125Y-28939133D01*
X93418665Y-28934063D01*
X93410743Y-28928188D01*
X93403436Y-28921564D01*
X93396812Y-28914257D01*
X93390937Y-28906335D01*
X93385867Y-28897875D01*
X93381650Y-28888960D01*
X93378327Y-28879674D01*
X93375931Y-28870107D01*
X93374484Y-28860351D01*
X93374000Y-28850500D01*
X93374000Y-28649500D01*
X93374484Y-28639649D01*
X93375931Y-28629893D01*
X93378327Y-28620326D01*
X93381650Y-28611040D01*
X93385867Y-28602125D01*
X93390937Y-28593665D01*
X93396812Y-28585743D01*
X93403436Y-28578436D01*
X93410743Y-28571812D01*
X93418665Y-28565937D01*
X93427125Y-28560867D01*
X93436040Y-28556650D01*
X93445326Y-28553327D01*
X93454893Y-28550931D01*
X93464649Y-28549484D01*
X93474500Y-28549000D01*
X94850500Y-28549000D01*
X94860351Y-28549484D01*
G37*
G36*
X94860351Y-29049484D02*
G01*
X94870107Y-29050931D01*
X94879674Y-29053327D01*
X94888960Y-29056650D01*
X94897875Y-29060867D01*
X94906335Y-29065937D01*
X94914257Y-29071812D01*
X94921564Y-29078436D01*
X94928188Y-29085743D01*
X94934063Y-29093665D01*
X94939133Y-29102125D01*
X94943350Y-29111040D01*
X94946673Y-29120326D01*
X94949069Y-29129893D01*
X94950516Y-29139649D01*
X94951000Y-29149500D01*
X94951000Y-29350500D01*
X94950516Y-29360351D01*
X94949069Y-29370107D01*
X94946673Y-29379674D01*
X94943350Y-29388960D01*
X94939133Y-29397875D01*
X94934063Y-29406335D01*
X94928188Y-29414257D01*
X94921564Y-29421564D01*
X94914257Y-29428188D01*
X94906335Y-29434063D01*
X94897875Y-29439133D01*
X94888960Y-29443350D01*
X94879674Y-29446673D01*
X94870107Y-29449069D01*
X94860351Y-29450516D01*
X94850500Y-29451000D01*
X93474500Y-29451000D01*
X93464649Y-29450516D01*
X93454893Y-29449069D01*
X93445326Y-29446673D01*
X93436040Y-29443350D01*
X93427125Y-29439133D01*
X93418665Y-29434063D01*
X93410743Y-29428188D01*
X93403436Y-29421564D01*
X93396812Y-29414257D01*
X93390937Y-29406335D01*
X93385867Y-29397875D01*
X93381650Y-29388960D01*
X93378327Y-29379674D01*
X93375931Y-29370107D01*
X93374484Y-29360351D01*
X93374000Y-29350500D01*
X93374000Y-29149500D01*
X93374484Y-29139649D01*
X93375931Y-29129893D01*
X93378327Y-29120326D01*
X93381650Y-29111040D01*
X93385867Y-29102125D01*
X93390937Y-29093665D01*
X93396812Y-29085743D01*
X93403436Y-29078436D01*
X93410743Y-29071812D01*
X93418665Y-29065937D01*
X93427125Y-29060867D01*
X93436040Y-29056650D01*
X93445326Y-29053327D01*
X93454893Y-29050931D01*
X93464649Y-29049484D01*
X93474500Y-29049000D01*
X94850500Y-29049000D01*
X94860351Y-29049484D01*
G37*
G36*
X94860351Y-29549484D02*
G01*
X94870107Y-29550931D01*
X94879674Y-29553327D01*
X94888960Y-29556650D01*
X94897875Y-29560867D01*
X94906335Y-29565937D01*
X94914257Y-29571812D01*
X94921564Y-29578436D01*
X94928188Y-29585743D01*
X94934063Y-29593665D01*
X94939133Y-29602125D01*
X94943350Y-29611040D01*
X94946673Y-29620326D01*
X94949069Y-29629893D01*
X94950516Y-29639649D01*
X94951000Y-29649500D01*
X94951000Y-29850500D01*
X94950516Y-29860351D01*
X94949069Y-29870107D01*
X94946673Y-29879674D01*
X94943350Y-29888960D01*
X94939133Y-29897875D01*
X94934063Y-29906335D01*
X94928188Y-29914257D01*
X94921564Y-29921564D01*
X94914257Y-29928188D01*
X94906335Y-29934063D01*
X94897875Y-29939133D01*
X94888960Y-29943350D01*
X94879674Y-29946673D01*
X94870107Y-29949069D01*
X94860351Y-29950516D01*
X94850500Y-29951000D01*
X93474500Y-29951000D01*
X93464649Y-29950516D01*
X93454893Y-29949069D01*
X93445326Y-29946673D01*
X93436040Y-29943350D01*
X93427125Y-29939133D01*
X93418665Y-29934063D01*
X93410743Y-29928188D01*
X93403436Y-29921564D01*
X93396812Y-29914257D01*
X93390937Y-29906335D01*
X93385867Y-29897875D01*
X93381650Y-29888960D01*
X93378327Y-29879674D01*
X93375931Y-29870107D01*
X93374484Y-29860351D01*
X93374000Y-29850500D01*
X93374000Y-29649500D01*
X93374484Y-29639649D01*
X93375931Y-29629893D01*
X93378327Y-29620326D01*
X93381650Y-29611040D01*
X93385867Y-29602125D01*
X93390937Y-29593665D01*
X93396812Y-29585743D01*
X93403436Y-29578436D01*
X93410743Y-29571812D01*
X93418665Y-29565937D01*
X93427125Y-29560867D01*
X93436040Y-29556650D01*
X93445326Y-29553327D01*
X93454893Y-29550931D01*
X93464649Y-29549484D01*
X93474500Y-29549000D01*
X94850500Y-29549000D01*
X94860351Y-29549484D01*
G37*
G36*
X94860351Y-30049484D02*
G01*
X94870107Y-30050931D01*
X94879674Y-30053327D01*
X94888960Y-30056650D01*
X94897875Y-30060867D01*
X94906335Y-30065937D01*
X94914257Y-30071812D01*
X94921564Y-30078436D01*
X94928188Y-30085743D01*
X94934063Y-30093665D01*
X94939133Y-30102125D01*
X94943350Y-30111040D01*
X94946673Y-30120326D01*
X94949069Y-30129893D01*
X94950516Y-30139649D01*
X94951000Y-30149500D01*
X94951000Y-30350500D01*
X94950516Y-30360351D01*
X94949069Y-30370107D01*
X94946673Y-30379674D01*
X94943350Y-30388960D01*
X94939133Y-30397875D01*
X94934063Y-30406335D01*
X94928188Y-30414257D01*
X94921564Y-30421564D01*
X94914257Y-30428188D01*
X94906335Y-30434063D01*
X94897875Y-30439133D01*
X94888960Y-30443350D01*
X94879674Y-30446673D01*
X94870107Y-30449069D01*
X94860351Y-30450516D01*
X94850500Y-30451000D01*
X93474500Y-30451000D01*
X93464649Y-30450516D01*
X93454893Y-30449069D01*
X93445326Y-30446673D01*
X93436040Y-30443350D01*
X93427125Y-30439133D01*
X93418665Y-30434063D01*
X93410743Y-30428188D01*
X93403436Y-30421564D01*
X93396812Y-30414257D01*
X93390937Y-30406335D01*
X93385867Y-30397875D01*
X93381650Y-30388960D01*
X93378327Y-30379674D01*
X93375931Y-30370107D01*
X93374484Y-30360351D01*
X93374000Y-30350500D01*
X93374000Y-30149500D01*
X93374484Y-30139649D01*
X93375931Y-30129893D01*
X93378327Y-30120326D01*
X93381650Y-30111040D01*
X93385867Y-30102125D01*
X93390937Y-30093665D01*
X93396812Y-30085743D01*
X93403436Y-30078436D01*
X93410743Y-30071812D01*
X93418665Y-30065937D01*
X93427125Y-30060867D01*
X93436040Y-30056650D01*
X93445326Y-30053327D01*
X93454893Y-30050931D01*
X93464649Y-30049484D01*
X93474500Y-30049000D01*
X94850500Y-30049000D01*
X94860351Y-30049484D01*
G37*
G36*
X94860351Y-30549484D02*
G01*
X94870107Y-30550931D01*
X94879674Y-30553327D01*
X94888960Y-30556650D01*
X94897875Y-30560867D01*
X94906335Y-30565937D01*
X94914257Y-30571812D01*
X94921564Y-30578436D01*
X94928188Y-30585743D01*
X94934063Y-30593665D01*
X94939133Y-30602125D01*
X94943350Y-30611040D01*
X94946673Y-30620326D01*
X94949069Y-30629893D01*
X94950516Y-30639649D01*
X94951000Y-30649500D01*
X94951000Y-30850500D01*
X94950516Y-30860351D01*
X94949069Y-30870107D01*
X94946673Y-30879674D01*
X94943350Y-30888960D01*
X94939133Y-30897875D01*
X94934063Y-30906335D01*
X94928188Y-30914257D01*
X94921564Y-30921564D01*
X94914257Y-30928188D01*
X94906335Y-30934063D01*
X94897875Y-30939133D01*
X94888960Y-30943350D01*
X94879674Y-30946673D01*
X94870107Y-30949069D01*
X94860351Y-30950516D01*
X94850500Y-30951000D01*
X93474500Y-30951000D01*
X93464649Y-30950516D01*
X93454893Y-30949069D01*
X93445326Y-30946673D01*
X93436040Y-30943350D01*
X93427125Y-30939133D01*
X93418665Y-30934063D01*
X93410743Y-30928188D01*
X93403436Y-30921564D01*
X93396812Y-30914257D01*
X93390937Y-30906335D01*
X93385867Y-30897875D01*
X93381650Y-30888960D01*
X93378327Y-30879674D01*
X93375931Y-30870107D01*
X93374484Y-30860351D01*
X93374000Y-30850500D01*
X93374000Y-30649500D01*
X93374484Y-30639649D01*
X93375931Y-30629893D01*
X93378327Y-30620326D01*
X93381650Y-30611040D01*
X93385867Y-30602125D01*
X93390937Y-30593665D01*
X93396812Y-30585743D01*
X93403436Y-30578436D01*
X93410743Y-30571812D01*
X93418665Y-30565937D01*
X93427125Y-30560867D01*
X93436040Y-30556650D01*
X93445326Y-30553327D01*
X93454893Y-30550931D01*
X93464649Y-30549484D01*
X93474500Y-30549000D01*
X94850500Y-30549000D01*
X94860351Y-30549484D01*
G37*
G36*
X94860351Y-31049484D02*
G01*
X94870107Y-31050931D01*
X94879674Y-31053327D01*
X94888960Y-31056650D01*
X94897875Y-31060867D01*
X94906335Y-31065937D01*
X94914257Y-31071812D01*
X94921564Y-31078436D01*
X94928188Y-31085743D01*
X94934063Y-31093665D01*
X94939133Y-31102125D01*
X94943350Y-31111040D01*
X94946673Y-31120326D01*
X94949069Y-31129893D01*
X94950516Y-31139649D01*
X94951000Y-31149500D01*
X94951000Y-31350500D01*
X94950516Y-31360351D01*
X94949069Y-31370107D01*
X94946673Y-31379674D01*
X94943350Y-31388960D01*
X94939133Y-31397875D01*
X94934063Y-31406335D01*
X94928188Y-31414257D01*
X94921564Y-31421564D01*
X94914257Y-31428188D01*
X94906335Y-31434063D01*
X94897875Y-31439133D01*
X94888960Y-31443350D01*
X94879674Y-31446673D01*
X94870107Y-31449069D01*
X94860351Y-31450516D01*
X94850500Y-31451000D01*
X93474500Y-31451000D01*
X93464649Y-31450516D01*
X93454893Y-31449069D01*
X93445326Y-31446673D01*
X93436040Y-31443350D01*
X93427125Y-31439133D01*
X93418665Y-31434063D01*
X93410743Y-31428188D01*
X93403436Y-31421564D01*
X93396812Y-31414257D01*
X93390937Y-31406335D01*
X93385867Y-31397875D01*
X93381650Y-31388960D01*
X93378327Y-31379674D01*
X93375931Y-31370107D01*
X93374484Y-31360351D01*
X93374000Y-31350500D01*
X93374000Y-31149500D01*
X93374484Y-31139649D01*
X93375931Y-31129893D01*
X93378327Y-31120326D01*
X93381650Y-31111040D01*
X93385867Y-31102125D01*
X93390937Y-31093665D01*
X93396812Y-31085743D01*
X93403436Y-31078436D01*
X93410743Y-31071812D01*
X93418665Y-31065937D01*
X93427125Y-31060867D01*
X93436040Y-31056650D01*
X93445326Y-31053327D01*
X93454893Y-31050931D01*
X93464649Y-31049484D01*
X93474500Y-31049000D01*
X94850500Y-31049000D01*
X94860351Y-31049484D01*
G37*
G36*
X94860351Y-31549484D02*
G01*
X94870107Y-31550931D01*
X94879674Y-31553327D01*
X94888960Y-31556650D01*
X94897875Y-31560867D01*
X94906335Y-31565937D01*
X94914257Y-31571812D01*
X94921564Y-31578436D01*
X94928188Y-31585743D01*
X94934063Y-31593665D01*
X94939133Y-31602125D01*
X94943350Y-31611040D01*
X94946673Y-31620326D01*
X94949069Y-31629893D01*
X94950516Y-31639649D01*
X94951000Y-31649500D01*
X94951000Y-31850500D01*
X94950516Y-31860351D01*
X94949069Y-31870107D01*
X94946673Y-31879674D01*
X94943350Y-31888960D01*
X94939133Y-31897875D01*
X94934063Y-31906335D01*
X94928188Y-31914257D01*
X94921564Y-31921564D01*
X94914257Y-31928188D01*
X94906335Y-31934063D01*
X94897875Y-31939133D01*
X94888960Y-31943350D01*
X94879674Y-31946673D01*
X94870107Y-31949069D01*
X94860351Y-31950516D01*
X94850500Y-31951000D01*
X93474500Y-31951000D01*
X93464649Y-31950516D01*
X93454893Y-31949069D01*
X93445326Y-31946673D01*
X93436040Y-31943350D01*
X93427125Y-31939133D01*
X93418665Y-31934063D01*
X93410743Y-31928188D01*
X93403436Y-31921564D01*
X93396812Y-31914257D01*
X93390937Y-31906335D01*
X93385867Y-31897875D01*
X93381650Y-31888960D01*
X93378327Y-31879674D01*
X93375931Y-31870107D01*
X93374484Y-31860351D01*
X93374000Y-31850500D01*
X93374000Y-31649500D01*
X93374484Y-31639649D01*
X93375931Y-31629893D01*
X93378327Y-31620326D01*
X93381650Y-31611040D01*
X93385867Y-31602125D01*
X93390937Y-31593665D01*
X93396812Y-31585743D01*
X93403436Y-31578436D01*
X93410743Y-31571812D01*
X93418665Y-31565937D01*
X93427125Y-31560867D01*
X93436040Y-31556650D01*
X93445326Y-31553327D01*
X93454893Y-31550931D01*
X93464649Y-31549484D01*
X93474500Y-31549000D01*
X94850500Y-31549000D01*
X94860351Y-31549484D01*
G37*
G36*
X94860351Y-32049484D02*
G01*
X94870107Y-32050931D01*
X94879674Y-32053327D01*
X94888960Y-32056650D01*
X94897875Y-32060867D01*
X94906335Y-32065937D01*
X94914257Y-32071812D01*
X94921564Y-32078436D01*
X94928188Y-32085743D01*
X94934063Y-32093665D01*
X94939133Y-32102125D01*
X94943350Y-32111040D01*
X94946673Y-32120326D01*
X94949069Y-32129893D01*
X94950516Y-32139649D01*
X94951000Y-32149500D01*
X94951000Y-32350500D01*
X94950516Y-32360351D01*
X94949069Y-32370107D01*
X94946673Y-32379674D01*
X94943350Y-32388960D01*
X94939133Y-32397875D01*
X94934063Y-32406335D01*
X94928188Y-32414257D01*
X94921564Y-32421564D01*
X94914257Y-32428188D01*
X94906335Y-32434063D01*
X94897875Y-32439133D01*
X94888960Y-32443350D01*
X94879674Y-32446673D01*
X94870107Y-32449069D01*
X94860351Y-32450516D01*
X94850500Y-32451000D01*
X93474500Y-32451000D01*
X93464649Y-32450516D01*
X93454893Y-32449069D01*
X93445326Y-32446673D01*
X93436040Y-32443350D01*
X93427125Y-32439133D01*
X93418665Y-32434063D01*
X93410743Y-32428188D01*
X93403436Y-32421564D01*
X93396812Y-32414257D01*
X93390937Y-32406335D01*
X93385867Y-32397875D01*
X93381650Y-32388960D01*
X93378327Y-32379674D01*
X93375931Y-32370107D01*
X93374484Y-32360351D01*
X93374000Y-32350500D01*
X93374000Y-32149500D01*
X93374484Y-32139649D01*
X93375931Y-32129893D01*
X93378327Y-32120326D01*
X93381650Y-32111040D01*
X93385867Y-32102125D01*
X93390937Y-32093665D01*
X93396812Y-32085743D01*
X93403436Y-32078436D01*
X93410743Y-32071812D01*
X93418665Y-32065937D01*
X93427125Y-32060867D01*
X93436040Y-32056650D01*
X93445326Y-32053327D01*
X93454893Y-32050931D01*
X93464649Y-32049484D01*
X93474500Y-32049000D01*
X94850500Y-32049000D01*
X94860351Y-32049484D01*
G37*
G36*
X94860351Y-32549484D02*
G01*
X94870107Y-32550931D01*
X94879674Y-32553327D01*
X94888960Y-32556650D01*
X94897875Y-32560867D01*
X94906335Y-32565937D01*
X94914257Y-32571812D01*
X94921564Y-32578436D01*
X94928188Y-32585743D01*
X94934063Y-32593665D01*
X94939133Y-32602125D01*
X94943350Y-32611040D01*
X94946673Y-32620326D01*
X94949069Y-32629893D01*
X94950516Y-32639649D01*
X94951000Y-32649500D01*
X94951000Y-32850500D01*
X94950516Y-32860351D01*
X94949069Y-32870107D01*
X94946673Y-32879674D01*
X94943350Y-32888960D01*
X94939133Y-32897875D01*
X94934063Y-32906335D01*
X94928188Y-32914257D01*
X94921564Y-32921564D01*
X94914257Y-32928188D01*
X94906335Y-32934063D01*
X94897875Y-32939133D01*
X94888960Y-32943350D01*
X94879674Y-32946673D01*
X94870107Y-32949069D01*
X94860351Y-32950516D01*
X94850500Y-32951000D01*
X93474500Y-32951000D01*
X93464649Y-32950516D01*
X93454893Y-32949069D01*
X93445326Y-32946673D01*
X93436040Y-32943350D01*
X93427125Y-32939133D01*
X93418665Y-32934063D01*
X93410743Y-32928188D01*
X93403436Y-32921564D01*
X93396812Y-32914257D01*
X93390937Y-32906335D01*
X93385867Y-32897875D01*
X93381650Y-32888960D01*
X93378327Y-32879674D01*
X93375931Y-32870107D01*
X93374484Y-32860351D01*
X93374000Y-32850500D01*
X93374000Y-32649500D01*
X93374484Y-32639649D01*
X93375931Y-32629893D01*
X93378327Y-32620326D01*
X93381650Y-32611040D01*
X93385867Y-32602125D01*
X93390937Y-32593665D01*
X93396812Y-32585743D01*
X93403436Y-32578436D01*
X93410743Y-32571812D01*
X93418665Y-32565937D01*
X93427125Y-32560867D01*
X93436040Y-32556650D01*
X93445326Y-32553327D01*
X93454893Y-32550931D01*
X93464649Y-32549484D01*
X93474500Y-32549000D01*
X94850500Y-32549000D01*
X94860351Y-32549484D01*
G37*
G36*
X94860351Y-33049484D02*
G01*
X94870107Y-33050931D01*
X94879674Y-33053327D01*
X94888960Y-33056650D01*
X94897875Y-33060867D01*
X94906335Y-33065937D01*
X94914257Y-33071812D01*
X94921564Y-33078436D01*
X94928188Y-33085743D01*
X94934063Y-33093665D01*
X94939133Y-33102125D01*
X94943350Y-33111040D01*
X94946673Y-33120326D01*
X94949069Y-33129893D01*
X94950516Y-33139649D01*
X94951000Y-33149500D01*
X94951000Y-33350500D01*
X94950516Y-33360351D01*
X94949069Y-33370107D01*
X94946673Y-33379674D01*
X94943350Y-33388960D01*
X94939133Y-33397875D01*
X94934063Y-33406335D01*
X94928188Y-33414257D01*
X94921564Y-33421564D01*
X94914257Y-33428188D01*
X94906335Y-33434063D01*
X94897875Y-33439133D01*
X94888960Y-33443350D01*
X94879674Y-33446673D01*
X94870107Y-33449069D01*
X94860351Y-33450516D01*
X94850500Y-33451000D01*
X93474500Y-33451000D01*
X93464649Y-33450516D01*
X93454893Y-33449069D01*
X93445326Y-33446673D01*
X93436040Y-33443350D01*
X93427125Y-33439133D01*
X93418665Y-33434063D01*
X93410743Y-33428188D01*
X93403436Y-33421564D01*
X93396812Y-33414257D01*
X93390937Y-33406335D01*
X93385867Y-33397875D01*
X93381650Y-33388960D01*
X93378327Y-33379674D01*
X93375931Y-33370107D01*
X93374484Y-33360351D01*
X93374000Y-33350500D01*
X93374000Y-33149500D01*
X93374484Y-33139649D01*
X93375931Y-33129893D01*
X93378327Y-33120326D01*
X93381650Y-33111040D01*
X93385867Y-33102125D01*
X93390937Y-33093665D01*
X93396812Y-33085743D01*
X93403436Y-33078436D01*
X93410743Y-33071812D01*
X93418665Y-33065937D01*
X93427125Y-33060867D01*
X93436040Y-33056650D01*
X93445326Y-33053327D01*
X93454893Y-33050931D01*
X93464649Y-33049484D01*
X93474500Y-33049000D01*
X94850500Y-33049000D01*
X94860351Y-33049484D01*
G37*
G36*
X94860351Y-33549484D02*
G01*
X94870107Y-33550931D01*
X94879674Y-33553327D01*
X94888960Y-33556650D01*
X94897875Y-33560867D01*
X94906335Y-33565937D01*
X94914257Y-33571812D01*
X94921564Y-33578436D01*
X94928188Y-33585743D01*
X94934063Y-33593665D01*
X94939133Y-33602125D01*
X94943350Y-33611040D01*
X94946673Y-33620326D01*
X94949069Y-33629893D01*
X94950516Y-33639649D01*
X94951000Y-33649500D01*
X94951000Y-33850500D01*
X94950516Y-33860351D01*
X94949069Y-33870107D01*
X94946673Y-33879674D01*
X94943350Y-33888960D01*
X94939133Y-33897875D01*
X94934063Y-33906335D01*
X94928188Y-33914257D01*
X94921564Y-33921564D01*
X94914257Y-33928188D01*
X94906335Y-33934063D01*
X94897875Y-33939133D01*
X94888960Y-33943350D01*
X94879674Y-33946673D01*
X94870107Y-33949069D01*
X94860351Y-33950516D01*
X94850500Y-33951000D01*
X93474500Y-33951000D01*
X93464649Y-33950516D01*
X93454893Y-33949069D01*
X93445326Y-33946673D01*
X93436040Y-33943350D01*
X93427125Y-33939133D01*
X93418665Y-33934063D01*
X93410743Y-33928188D01*
X93403436Y-33921564D01*
X93396812Y-33914257D01*
X93390937Y-33906335D01*
X93385867Y-33897875D01*
X93381650Y-33888960D01*
X93378327Y-33879674D01*
X93375931Y-33870107D01*
X93374484Y-33860351D01*
X93374000Y-33850500D01*
X93374000Y-33649500D01*
X93374484Y-33639649D01*
X93375931Y-33629893D01*
X93378327Y-33620326D01*
X93381650Y-33611040D01*
X93385867Y-33602125D01*
X93390937Y-33593665D01*
X93396812Y-33585743D01*
X93403436Y-33578436D01*
X93410743Y-33571812D01*
X93418665Y-33565937D01*
X93427125Y-33560867D01*
X93436040Y-33556650D01*
X93445326Y-33553327D01*
X93454893Y-33550931D01*
X93464649Y-33549484D01*
X93474500Y-33549000D01*
X94850500Y-33549000D01*
X94860351Y-33549484D01*
G37*
G36*
X94860351Y-34049484D02*
G01*
X94870107Y-34050931D01*
X94879674Y-34053327D01*
X94888960Y-34056650D01*
X94897875Y-34060867D01*
X94906335Y-34065937D01*
X94914257Y-34071812D01*
X94921564Y-34078436D01*
X94928188Y-34085743D01*
X94934063Y-34093665D01*
X94939133Y-34102125D01*
X94943350Y-34111040D01*
X94946673Y-34120326D01*
X94949069Y-34129893D01*
X94950516Y-34139649D01*
X94951000Y-34149500D01*
X94951000Y-34350500D01*
X94950516Y-34360351D01*
X94949069Y-34370107D01*
X94946673Y-34379674D01*
X94943350Y-34388960D01*
X94939133Y-34397875D01*
X94934063Y-34406335D01*
X94928188Y-34414257D01*
X94921564Y-34421564D01*
X94914257Y-34428188D01*
X94906335Y-34434063D01*
X94897875Y-34439133D01*
X94888960Y-34443350D01*
X94879674Y-34446673D01*
X94870107Y-34449069D01*
X94860351Y-34450516D01*
X94850500Y-34451000D01*
X93474500Y-34451000D01*
X93464649Y-34450516D01*
X93454893Y-34449069D01*
X93445326Y-34446673D01*
X93436040Y-34443350D01*
X93427125Y-34439133D01*
X93418665Y-34434063D01*
X93410743Y-34428188D01*
X93403436Y-34421564D01*
X93396812Y-34414257D01*
X93390937Y-34406335D01*
X93385867Y-34397875D01*
X93381650Y-34388960D01*
X93378327Y-34379674D01*
X93375931Y-34370107D01*
X93374484Y-34360351D01*
X93374000Y-34350500D01*
X93374000Y-34149500D01*
X93374484Y-34139649D01*
X93375931Y-34129893D01*
X93378327Y-34120326D01*
X93381650Y-34111040D01*
X93385867Y-34102125D01*
X93390937Y-34093665D01*
X93396812Y-34085743D01*
X93403436Y-34078436D01*
X93410743Y-34071812D01*
X93418665Y-34065937D01*
X93427125Y-34060867D01*
X93436040Y-34056650D01*
X93445326Y-34053327D01*
X93454893Y-34050931D01*
X93464649Y-34049484D01*
X93474500Y-34049000D01*
X94850500Y-34049000D01*
X94860351Y-34049484D01*
G37*
G36*
X102186232Y-27129773D02*
G01*
X102201812Y-27132084D01*
X102217091Y-27135911D01*
X102231921Y-27141217D01*
X102246159Y-27147952D01*
X102259669Y-27156049D01*
X102272320Y-27165432D01*
X102283991Y-27176009D01*
X102294568Y-27187680D01*
X102303951Y-27200331D01*
X102312048Y-27213841D01*
X102318783Y-27228079D01*
X102324089Y-27242909D01*
X102327916Y-27258188D01*
X102330227Y-27273768D01*
X102331000Y-27289500D01*
X102331000Y-27710500D01*
X102330227Y-27726232D01*
X102327916Y-27741812D01*
X102324089Y-27757091D01*
X102318783Y-27771921D01*
X102312048Y-27786159D01*
X102303951Y-27799669D01*
X102294568Y-27812320D01*
X102283991Y-27823991D01*
X102272320Y-27834568D01*
X102259669Y-27843951D01*
X102246159Y-27852048D01*
X102231921Y-27858783D01*
X102217091Y-27864089D01*
X102201812Y-27867916D01*
X102186232Y-27870227D01*
X102170500Y-27871000D01*
X101849500Y-27871000D01*
X101833768Y-27870227D01*
X101818188Y-27867916D01*
X101802909Y-27864089D01*
X101788079Y-27858783D01*
X101773841Y-27852048D01*
X101760331Y-27843951D01*
X101747680Y-27834568D01*
X101736009Y-27823991D01*
X101725432Y-27812320D01*
X101716049Y-27799669D01*
X101707952Y-27786159D01*
X101701217Y-27771921D01*
X101695911Y-27757091D01*
X101692084Y-27741812D01*
X101689773Y-27726232D01*
X101689000Y-27710500D01*
X101689000Y-27289500D01*
X101689773Y-27273768D01*
X101692084Y-27258188D01*
X101695911Y-27242909D01*
X101701217Y-27228079D01*
X101707952Y-27213841D01*
X101716049Y-27200331D01*
X101725432Y-27187680D01*
X101736009Y-27176009D01*
X101747680Y-27165432D01*
X101760331Y-27156049D01*
X101773841Y-27147952D01*
X101788079Y-27141217D01*
X101802909Y-27135911D01*
X101818188Y-27132084D01*
X101833768Y-27129773D01*
X101849500Y-27129000D01*
X102170500Y-27129000D01*
X102186232Y-27129773D01*
G37*
G36*
X101166232Y-27129773D02*
G01*
X101181812Y-27132084D01*
X101197091Y-27135911D01*
X101211921Y-27141217D01*
X101226159Y-27147952D01*
X101239669Y-27156049D01*
X101252320Y-27165432D01*
X101263991Y-27176009D01*
X101274568Y-27187680D01*
X101283951Y-27200331D01*
X101292048Y-27213841D01*
X101298783Y-27228079D01*
X101304089Y-27242909D01*
X101307916Y-27258188D01*
X101310227Y-27273768D01*
X101311000Y-27289500D01*
X101311000Y-27710500D01*
X101310227Y-27726232D01*
X101307916Y-27741812D01*
X101304089Y-27757091D01*
X101298783Y-27771921D01*
X101292048Y-27786159D01*
X101283951Y-27799669D01*
X101274568Y-27812320D01*
X101263991Y-27823991D01*
X101252320Y-27834568D01*
X101239669Y-27843951D01*
X101226159Y-27852048D01*
X101211921Y-27858783D01*
X101197091Y-27864089D01*
X101181812Y-27867916D01*
X101166232Y-27870227D01*
X101150500Y-27871000D01*
X100829500Y-27871000D01*
X100813768Y-27870227D01*
X100798188Y-27867916D01*
X100782909Y-27864089D01*
X100768079Y-27858783D01*
X100753841Y-27852048D01*
X100740331Y-27843951D01*
X100727680Y-27834568D01*
X100716009Y-27823991D01*
X100705432Y-27812320D01*
X100696049Y-27799669D01*
X100687952Y-27786159D01*
X100681217Y-27771921D01*
X100675911Y-27757091D01*
X100672084Y-27741812D01*
X100669773Y-27726232D01*
X100669000Y-27710500D01*
X100669000Y-27289500D01*
X100669773Y-27273768D01*
X100672084Y-27258188D01*
X100675911Y-27242909D01*
X100681217Y-27228079D01*
X100687952Y-27213841D01*
X100696049Y-27200331D01*
X100705432Y-27187680D01*
X100716009Y-27176009D01*
X100727680Y-27165432D01*
X100740331Y-27156049D01*
X100753841Y-27147952D01*
X100768079Y-27141217D01*
X100782909Y-27135911D01*
X100798188Y-27132084D01*
X100813768Y-27129773D01*
X100829500Y-27129000D01*
X101150500Y-27129000D01*
X101166232Y-27129773D01*
G37*
G36*
X96976232Y-40419773D02*
G01*
X96991812Y-40422084D01*
X97007091Y-40425911D01*
X97021921Y-40431217D01*
X97036159Y-40437952D01*
X97049669Y-40446049D01*
X97062320Y-40455432D01*
X97073991Y-40466009D01*
X97084568Y-40477680D01*
X97093951Y-40490331D01*
X97102048Y-40503841D01*
X97108783Y-40518079D01*
X97114089Y-40532909D01*
X97117916Y-40548188D01*
X97120227Y-40563768D01*
X97121000Y-40579500D01*
X97121000Y-40900500D01*
X97120227Y-40916232D01*
X97117916Y-40931812D01*
X97114089Y-40947091D01*
X97108783Y-40961921D01*
X97102048Y-40976159D01*
X97093951Y-40989669D01*
X97084568Y-41002320D01*
X97073991Y-41013991D01*
X97062320Y-41024568D01*
X97049669Y-41033951D01*
X97036159Y-41042048D01*
X97021921Y-41048783D01*
X97007091Y-41054089D01*
X96991812Y-41057916D01*
X96976232Y-41060227D01*
X96960500Y-41061000D01*
X96539500Y-41061000D01*
X96523768Y-41060227D01*
X96508188Y-41057916D01*
X96492909Y-41054089D01*
X96478079Y-41048783D01*
X96463841Y-41042048D01*
X96450331Y-41033951D01*
X96437680Y-41024568D01*
X96426009Y-41013991D01*
X96415432Y-41002320D01*
X96406049Y-40989669D01*
X96397952Y-40976159D01*
X96391217Y-40961921D01*
X96385911Y-40947091D01*
X96382084Y-40931812D01*
X96379773Y-40916232D01*
X96379000Y-40900500D01*
X96379000Y-40579500D01*
X96379773Y-40563768D01*
X96382084Y-40548188D01*
X96385911Y-40532909D01*
X96391217Y-40518079D01*
X96397952Y-40503841D01*
X96406049Y-40490331D01*
X96415432Y-40477680D01*
X96426009Y-40466009D01*
X96437680Y-40455432D01*
X96450331Y-40446049D01*
X96463841Y-40437952D01*
X96478079Y-40431217D01*
X96492909Y-40425911D01*
X96508188Y-40422084D01*
X96523768Y-40419773D01*
X96539500Y-40419000D01*
X96960500Y-40419000D01*
X96976232Y-40419773D01*
G37*
G36*
X96976232Y-41439773D02*
G01*
X96991812Y-41442084D01*
X97007091Y-41445911D01*
X97021921Y-41451217D01*
X97036159Y-41457952D01*
X97049669Y-41466049D01*
X97062320Y-41475432D01*
X97073991Y-41486009D01*
X97084568Y-41497680D01*
X97093951Y-41510331D01*
X97102048Y-41523841D01*
X97108783Y-41538079D01*
X97114089Y-41552909D01*
X97117916Y-41568188D01*
X97120227Y-41583768D01*
X97121000Y-41599500D01*
X97121000Y-41920500D01*
X97120227Y-41936232D01*
X97117916Y-41951812D01*
X97114089Y-41967091D01*
X97108783Y-41981921D01*
X97102048Y-41996159D01*
X97093951Y-42009669D01*
X97084568Y-42022320D01*
X97073991Y-42033991D01*
X97062320Y-42044568D01*
X97049669Y-42053951D01*
X97036159Y-42062048D01*
X97021921Y-42068783D01*
X97007091Y-42074089D01*
X96991812Y-42077916D01*
X96976232Y-42080227D01*
X96960500Y-42081000D01*
X96539500Y-42081000D01*
X96523768Y-42080227D01*
X96508188Y-42077916D01*
X96492909Y-42074089D01*
X96478079Y-42068783D01*
X96463841Y-42062048D01*
X96450331Y-42053951D01*
X96437680Y-42044568D01*
X96426009Y-42033991D01*
X96415432Y-42022320D01*
X96406049Y-42009669D01*
X96397952Y-41996159D01*
X96391217Y-41981921D01*
X96385911Y-41967091D01*
X96382084Y-41951812D01*
X96379773Y-41936232D01*
X96379000Y-41920500D01*
X96379000Y-41599500D01*
X96379773Y-41583768D01*
X96382084Y-41568188D01*
X96385911Y-41552909D01*
X96391217Y-41538079D01*
X96397952Y-41523841D01*
X96406049Y-41510331D01*
X96415432Y-41497680D01*
X96426009Y-41486009D01*
X96437680Y-41475432D01*
X96450331Y-41466049D01*
X96463841Y-41457952D01*
X96478079Y-41451217D01*
X96492909Y-41445911D01*
X96508188Y-41442084D01*
X96523768Y-41439773D01*
X96539500Y-41439000D01*
X96960500Y-41439000D01*
X96976232Y-41439773D01*
G37*
G36*
X98976232Y-36419773D02*
G01*
X98991812Y-36422084D01*
X99007091Y-36425911D01*
X99021921Y-36431217D01*
X99036159Y-36437952D01*
X99049669Y-36446049D01*
X99062320Y-36455432D01*
X99073991Y-36466009D01*
X99084568Y-36477680D01*
X99093951Y-36490331D01*
X99102048Y-36503841D01*
X99108783Y-36518079D01*
X99114089Y-36532909D01*
X99117916Y-36548188D01*
X99120227Y-36563768D01*
X99121000Y-36579500D01*
X99121000Y-36900500D01*
X99120227Y-36916232D01*
X99117916Y-36931812D01*
X99114089Y-36947091D01*
X99108783Y-36961921D01*
X99102048Y-36976159D01*
X99093951Y-36989669D01*
X99084568Y-37002320D01*
X99073991Y-37013991D01*
X99062320Y-37024568D01*
X99049669Y-37033951D01*
X99036159Y-37042048D01*
X99021921Y-37048783D01*
X99007091Y-37054089D01*
X98991812Y-37057916D01*
X98976232Y-37060227D01*
X98960500Y-37061000D01*
X98539500Y-37061000D01*
X98523768Y-37060227D01*
X98508188Y-37057916D01*
X98492909Y-37054089D01*
X98478079Y-37048783D01*
X98463841Y-37042048D01*
X98450331Y-37033951D01*
X98437680Y-37024568D01*
X98426009Y-37013991D01*
X98415432Y-37002320D01*
X98406049Y-36989669D01*
X98397952Y-36976159D01*
X98391217Y-36961921D01*
X98385911Y-36947091D01*
X98382084Y-36931812D01*
X98379773Y-36916232D01*
X98379000Y-36900500D01*
X98379000Y-36579500D01*
X98379773Y-36563768D01*
X98382084Y-36548188D01*
X98385911Y-36532909D01*
X98391217Y-36518079D01*
X98397952Y-36503841D01*
X98406049Y-36490331D01*
X98415432Y-36477680D01*
X98426009Y-36466009D01*
X98437680Y-36455432D01*
X98450331Y-36446049D01*
X98463841Y-36437952D01*
X98478079Y-36431217D01*
X98492909Y-36425911D01*
X98508188Y-36422084D01*
X98523768Y-36419773D01*
X98539500Y-36419000D01*
X98960500Y-36419000D01*
X98976232Y-36419773D01*
G37*
G36*
X98976232Y-37439773D02*
G01*
X98991812Y-37442084D01*
X99007091Y-37445911D01*
X99021921Y-37451217D01*
X99036159Y-37457952D01*
X99049669Y-37466049D01*
X99062320Y-37475432D01*
X99073991Y-37486009D01*
X99084568Y-37497680D01*
X99093951Y-37510331D01*
X99102048Y-37523841D01*
X99108783Y-37538079D01*
X99114089Y-37552909D01*
X99117916Y-37568188D01*
X99120227Y-37583768D01*
X99121000Y-37599500D01*
X99121000Y-37920500D01*
X99120227Y-37936232D01*
X99117916Y-37951812D01*
X99114089Y-37967091D01*
X99108783Y-37981921D01*
X99102048Y-37996159D01*
X99093951Y-38009669D01*
X99084568Y-38022320D01*
X99073991Y-38033991D01*
X99062320Y-38044568D01*
X99049669Y-38053951D01*
X99036159Y-38062048D01*
X99021921Y-38068783D01*
X99007091Y-38074089D01*
X98991812Y-38077916D01*
X98976232Y-38080227D01*
X98960500Y-38081000D01*
X98539500Y-38081000D01*
X98523768Y-38080227D01*
X98508188Y-38077916D01*
X98492909Y-38074089D01*
X98478079Y-38068783D01*
X98463841Y-38062048D01*
X98450331Y-38053951D01*
X98437680Y-38044568D01*
X98426009Y-38033991D01*
X98415432Y-38022320D01*
X98406049Y-38009669D01*
X98397952Y-37996159D01*
X98391217Y-37981921D01*
X98385911Y-37967091D01*
X98382084Y-37951812D01*
X98379773Y-37936232D01*
X98379000Y-37920500D01*
X98379000Y-37599500D01*
X98379773Y-37583768D01*
X98382084Y-37568188D01*
X98385911Y-37552909D01*
X98391217Y-37538079D01*
X98397952Y-37523841D01*
X98406049Y-37510331D01*
X98415432Y-37497680D01*
X98426009Y-37486009D01*
X98437680Y-37475432D01*
X98450331Y-37466049D01*
X98463841Y-37457952D01*
X98478079Y-37451217D01*
X98492909Y-37445911D01*
X98508188Y-37442084D01*
X98523768Y-37439773D01*
X98539500Y-37439000D01*
X98960500Y-37439000D01*
X98976232Y-37439773D01*
G37*
G36*
X100976232Y-28419773D02*
G01*
X100991812Y-28422084D01*
X101007091Y-28425911D01*
X101021921Y-28431217D01*
X101036159Y-28437952D01*
X101049669Y-28446049D01*
X101062320Y-28455432D01*
X101073991Y-28466009D01*
X101084568Y-28477680D01*
X101093951Y-28490331D01*
X101102048Y-28503841D01*
X101108783Y-28518079D01*
X101114089Y-28532909D01*
X101117916Y-28548188D01*
X101120227Y-28563768D01*
X101121000Y-28579500D01*
X101121000Y-28900500D01*
X101120227Y-28916232D01*
X101117916Y-28931812D01*
X101114089Y-28947091D01*
X101108783Y-28961921D01*
X101102048Y-28976159D01*
X101093951Y-28989669D01*
X101084568Y-29002320D01*
X101073991Y-29013991D01*
X101062320Y-29024568D01*
X101049669Y-29033951D01*
X101036159Y-29042048D01*
X101021921Y-29048783D01*
X101007091Y-29054089D01*
X100991812Y-29057916D01*
X100976232Y-29060227D01*
X100960500Y-29061000D01*
X100539500Y-29061000D01*
X100523768Y-29060227D01*
X100508188Y-29057916D01*
X100492909Y-29054089D01*
X100478079Y-29048783D01*
X100463841Y-29042048D01*
X100450331Y-29033951D01*
X100437680Y-29024568D01*
X100426009Y-29013991D01*
X100415432Y-29002320D01*
X100406049Y-28989669D01*
X100397952Y-28976159D01*
X100391217Y-28961921D01*
X100385911Y-28947091D01*
X100382084Y-28931812D01*
X100379773Y-28916232D01*
X100379000Y-28900500D01*
X100379000Y-28579500D01*
X100379773Y-28563768D01*
X100382084Y-28548188D01*
X100385911Y-28532909D01*
X100391217Y-28518079D01*
X100397952Y-28503841D01*
X100406049Y-28490331D01*
X100415432Y-28477680D01*
X100426009Y-28466009D01*
X100437680Y-28455432D01*
X100450331Y-28446049D01*
X100463841Y-28437952D01*
X100478079Y-28431217D01*
X100492909Y-28425911D01*
X100508188Y-28422084D01*
X100523768Y-28419773D01*
X100539500Y-28419000D01*
X100960500Y-28419000D01*
X100976232Y-28419773D01*
G37*
G36*
X100976232Y-29439773D02*
G01*
X100991812Y-29442084D01*
X101007091Y-29445911D01*
X101021921Y-29451217D01*
X101036159Y-29457952D01*
X101049669Y-29466049D01*
X101062320Y-29475432D01*
X101073991Y-29486009D01*
X101084568Y-29497680D01*
X101093951Y-29510331D01*
X101102048Y-29523841D01*
X101108783Y-29538079D01*
X101114089Y-29552909D01*
X101117916Y-29568188D01*
X101120227Y-29583768D01*
X101121000Y-29599500D01*
X101121000Y-29920500D01*
X101120227Y-29936232D01*
X101117916Y-29951812D01*
X101114089Y-29967091D01*
X101108783Y-29981921D01*
X101102048Y-29996159D01*
X101093951Y-30009669D01*
X101084568Y-30022320D01*
X101073991Y-30033991D01*
X101062320Y-30044568D01*
X101049669Y-30053951D01*
X101036159Y-30062048D01*
X101021921Y-30068783D01*
X101007091Y-30074089D01*
X100991812Y-30077916D01*
X100976232Y-30080227D01*
X100960500Y-30081000D01*
X100539500Y-30081000D01*
X100523768Y-30080227D01*
X100508188Y-30077916D01*
X100492909Y-30074089D01*
X100478079Y-30068783D01*
X100463841Y-30062048D01*
X100450331Y-30053951D01*
X100437680Y-30044568D01*
X100426009Y-30033991D01*
X100415432Y-30022320D01*
X100406049Y-30009669D01*
X100397952Y-29996159D01*
X100391217Y-29981921D01*
X100385911Y-29967091D01*
X100382084Y-29951812D01*
X100379773Y-29936232D01*
X100379000Y-29920500D01*
X100379000Y-29599500D01*
X100379773Y-29583768D01*
X100382084Y-29568188D01*
X100385911Y-29552909D01*
X100391217Y-29538079D01*
X100397952Y-29523841D01*
X100406049Y-29510331D01*
X100415432Y-29497680D01*
X100426009Y-29486009D01*
X100437680Y-29475432D01*
X100450331Y-29466049D01*
X100463841Y-29457952D01*
X100478079Y-29451217D01*
X100492909Y-29445911D01*
X100508188Y-29442084D01*
X100523768Y-29439773D01*
X100539500Y-29439000D01*
X100960500Y-29439000D01*
X100976232Y-29439773D01*
G37*
G36*
X100095832Y-38593373D02*
G01*
X100111412Y-38595684D01*
X100126691Y-38599511D01*
X100141521Y-38604817D01*
X100155759Y-38611552D01*
X100169269Y-38619649D01*
X100181920Y-38629032D01*
X100193591Y-38639609D01*
X100204168Y-38651280D01*
X100213551Y-38663931D01*
X100221648Y-38677441D01*
X100228383Y-38691679D01*
X100233689Y-38706509D01*
X100237516Y-38721788D01*
X100239827Y-38737368D01*
X100240600Y-38753100D01*
X100240600Y-39174100D01*
X100239827Y-39189832D01*
X100237516Y-39205412D01*
X100233689Y-39220691D01*
X100228383Y-39235521D01*
X100221648Y-39249759D01*
X100213551Y-39263269D01*
X100204168Y-39275920D01*
X100193591Y-39287591D01*
X100181920Y-39298168D01*
X100169269Y-39307551D01*
X100155759Y-39315648D01*
X100141521Y-39322383D01*
X100126691Y-39327689D01*
X100111412Y-39331516D01*
X100095832Y-39333827D01*
X100080100Y-39334600D01*
X99759100Y-39334600D01*
X99743368Y-39333827D01*
X99727788Y-39331516D01*
X99712509Y-39327689D01*
X99697679Y-39322383D01*
X99683441Y-39315648D01*
X99669931Y-39307551D01*
X99657280Y-39298168D01*
X99645609Y-39287591D01*
X99635032Y-39275920D01*
X99625649Y-39263269D01*
X99617552Y-39249759D01*
X99610817Y-39235521D01*
X99605511Y-39220691D01*
X99601684Y-39205412D01*
X99599373Y-39189832D01*
X99598600Y-39174100D01*
X99598600Y-38753100D01*
X99599373Y-38737368D01*
X99601684Y-38721788D01*
X99605511Y-38706509D01*
X99610817Y-38691679D01*
X99617552Y-38677441D01*
X99625649Y-38663931D01*
X99635032Y-38651280D01*
X99645609Y-38639609D01*
X99657280Y-38629032D01*
X99669931Y-38619649D01*
X99683441Y-38611552D01*
X99697679Y-38604817D01*
X99712509Y-38599511D01*
X99727788Y-38595684D01*
X99743368Y-38593373D01*
X99759100Y-38592600D01*
X100080100Y-38592600D01*
X100095832Y-38593373D01*
G37*
G36*
X101115832Y-38593373D02*
G01*
X101131412Y-38595684D01*
X101146691Y-38599511D01*
X101161521Y-38604817D01*
X101175759Y-38611552D01*
X101189269Y-38619649D01*
X101201920Y-38629032D01*
X101213591Y-38639609D01*
X101224168Y-38651280D01*
X101233551Y-38663931D01*
X101241648Y-38677441D01*
X101248383Y-38691679D01*
X101253689Y-38706509D01*
X101257516Y-38721788D01*
X101259827Y-38737368D01*
X101260600Y-38753100D01*
X101260600Y-39174100D01*
X101259827Y-39189832D01*
X101257516Y-39205412D01*
X101253689Y-39220691D01*
X101248383Y-39235521D01*
X101241648Y-39249759D01*
X101233551Y-39263269D01*
X101224168Y-39275920D01*
X101213591Y-39287591D01*
X101201920Y-39298168D01*
X101189269Y-39307551D01*
X101175759Y-39315648D01*
X101161521Y-39322383D01*
X101146691Y-39327689D01*
X101131412Y-39331516D01*
X101115832Y-39333827D01*
X101100100Y-39334600D01*
X100779100Y-39334600D01*
X100763368Y-39333827D01*
X100747788Y-39331516D01*
X100732509Y-39327689D01*
X100717679Y-39322383D01*
X100703441Y-39315648D01*
X100689931Y-39307551D01*
X100677280Y-39298168D01*
X100665609Y-39287591D01*
X100655032Y-39275920D01*
X100645649Y-39263269D01*
X100637552Y-39249759D01*
X100630817Y-39235521D01*
X100625511Y-39220691D01*
X100621684Y-39205412D01*
X100619373Y-39189832D01*
X100618600Y-39174100D01*
X100618600Y-38753100D01*
X100619373Y-38737368D01*
X100621684Y-38721788D01*
X100625511Y-38706509D01*
X100630817Y-38691679D01*
X100637552Y-38677441D01*
X100645649Y-38663931D01*
X100655032Y-38651280D01*
X100665609Y-38639609D01*
X100677280Y-38629032D01*
X100689931Y-38619649D01*
X100703441Y-38611552D01*
X100717679Y-38604817D01*
X100732509Y-38599511D01*
X100747788Y-38595684D01*
X100763368Y-38593373D01*
X100779100Y-38592600D01*
X101100100Y-38592600D01*
X101115832Y-38593373D01*
G37*
D15*
X105000000Y-40250000D03*
X105000000Y-27250000D03*
D16*
X78950000Y-37250000D03*
X78950000Y-30250000D03*
D17*
X78950000Y-36650000D03*
X78950000Y-30850000D03*
D18*
X78950000Y-34750000D03*
X78950000Y-32750000D03*
D19*
X81650000Y-36250000D03*
X81650000Y-31250000D03*
D20*
X81650000Y-35050000D03*
X81650000Y-34400000D03*
X81650000Y-33750000D03*
X81650000Y-33100000D03*
X81650000Y-32450000D03*
D21*
X82100000Y-40000000D03*
X84900000Y-40000000D03*
X82350000Y-27000000D03*
X85150000Y-27000000D03*
D12*
G36*
X96826122Y-31288197D02*
G01*
X96842187Y-31290580D01*
X96857942Y-31294526D01*
X96873234Y-31299998D01*
X96887916Y-31306942D01*
X96901847Y-31315292D01*
X96914892Y-31324967D01*
X96926926Y-31335874D01*
X96937833Y-31347908D01*
X96947508Y-31360953D01*
X96955858Y-31374884D01*
X96962802Y-31389566D01*
X96968274Y-31404858D01*
X96972220Y-31420613D01*
X96974603Y-31436678D01*
X96975400Y-31452900D01*
X96975400Y-31843900D01*
X96974603Y-31860122D01*
X96972220Y-31876187D01*
X96968274Y-31891942D01*
X96962802Y-31907234D01*
X96955858Y-31921916D01*
X96947508Y-31935847D01*
X96937833Y-31948892D01*
X96926926Y-31960926D01*
X96914892Y-31971833D01*
X96901847Y-31981508D01*
X96887916Y-31989858D01*
X96873234Y-31996802D01*
X96857942Y-32002274D01*
X96842187Y-32006220D01*
X96826122Y-32008603D01*
X96809900Y-32009400D01*
X96478900Y-32009400D01*
X96462678Y-32008603D01*
X96446613Y-32006220D01*
X96430858Y-32002274D01*
X96415566Y-31996802D01*
X96400884Y-31989858D01*
X96386953Y-31981508D01*
X96373908Y-31971833D01*
X96361874Y-31960926D01*
X96350967Y-31948892D01*
X96341292Y-31935847D01*
X96332942Y-31921916D01*
X96325998Y-31907234D01*
X96320526Y-31891942D01*
X96316580Y-31876187D01*
X96314197Y-31860122D01*
X96313400Y-31843900D01*
X96313400Y-31452900D01*
X96314197Y-31436678D01*
X96316580Y-31420613D01*
X96320526Y-31404858D01*
X96325998Y-31389566D01*
X96332942Y-31374884D01*
X96341292Y-31360953D01*
X96350967Y-31347908D01*
X96361874Y-31335874D01*
X96373908Y-31324967D01*
X96386953Y-31315292D01*
X96400884Y-31306942D01*
X96415566Y-31299998D01*
X96430858Y-31294526D01*
X96446613Y-31290580D01*
X96462678Y-31288197D01*
X96478900Y-31287400D01*
X96809900Y-31287400D01*
X96826122Y-31288197D01*
G37*
G36*
X95866122Y-31288197D02*
G01*
X95882187Y-31290580D01*
X95897942Y-31294526D01*
X95913234Y-31299998D01*
X95927916Y-31306942D01*
X95941847Y-31315292D01*
X95954892Y-31324967D01*
X95966926Y-31335874D01*
X95977833Y-31347908D01*
X95987508Y-31360953D01*
X95995858Y-31374884D01*
X96002802Y-31389566D01*
X96008274Y-31404858D01*
X96012220Y-31420613D01*
X96014603Y-31436678D01*
X96015400Y-31452900D01*
X96015400Y-31843900D01*
X96014603Y-31860122D01*
X96012220Y-31876187D01*
X96008274Y-31891942D01*
X96002802Y-31907234D01*
X95995858Y-31921916D01*
X95987508Y-31935847D01*
X95977833Y-31948892D01*
X95966926Y-31960926D01*
X95954892Y-31971833D01*
X95941847Y-31981508D01*
X95927916Y-31989858D01*
X95913234Y-31996802D01*
X95897942Y-32002274D01*
X95882187Y-32006220D01*
X95866122Y-32008603D01*
X95849900Y-32009400D01*
X95518900Y-32009400D01*
X95502678Y-32008603D01*
X95486613Y-32006220D01*
X95470858Y-32002274D01*
X95455566Y-31996802D01*
X95440884Y-31989858D01*
X95426953Y-31981508D01*
X95413908Y-31971833D01*
X95401874Y-31960926D01*
X95390967Y-31948892D01*
X95381292Y-31935847D01*
X95372942Y-31921916D01*
X95365998Y-31907234D01*
X95360526Y-31891942D01*
X95356580Y-31876187D01*
X95354197Y-31860122D01*
X95353400Y-31843900D01*
X95353400Y-31452900D01*
X95354197Y-31436678D01*
X95356580Y-31420613D01*
X95360526Y-31404858D01*
X95365998Y-31389566D01*
X95372942Y-31374884D01*
X95381292Y-31360953D01*
X95390967Y-31347908D01*
X95401874Y-31335874D01*
X95413908Y-31324967D01*
X95426953Y-31315292D01*
X95440884Y-31306942D01*
X95455566Y-31299998D01*
X95470858Y-31294526D01*
X95486613Y-31290580D01*
X95502678Y-31288197D01*
X95518900Y-31287400D01*
X95849900Y-31287400D01*
X95866122Y-31288197D01*
G37*
G36*
X89431722Y-36889797D02*
G01*
X89447787Y-36892180D01*
X89463542Y-36896126D01*
X89478834Y-36901598D01*
X89493516Y-36908542D01*
X89507447Y-36916892D01*
X89520492Y-36926567D01*
X89532526Y-36937474D01*
X89543433Y-36949508D01*
X89553108Y-36962553D01*
X89561458Y-36976484D01*
X89568402Y-36991166D01*
X89573874Y-37006458D01*
X89577820Y-37022213D01*
X89580203Y-37038278D01*
X89581000Y-37054500D01*
X89581000Y-37445500D01*
X89580203Y-37461722D01*
X89577820Y-37477787D01*
X89573874Y-37493542D01*
X89568402Y-37508834D01*
X89561458Y-37523516D01*
X89553108Y-37537447D01*
X89543433Y-37550492D01*
X89532526Y-37562526D01*
X89520492Y-37573433D01*
X89507447Y-37583108D01*
X89493516Y-37591458D01*
X89478834Y-37598402D01*
X89463542Y-37603874D01*
X89447787Y-37607820D01*
X89431722Y-37610203D01*
X89415500Y-37611000D01*
X89084500Y-37611000D01*
X89068278Y-37610203D01*
X89052213Y-37607820D01*
X89036458Y-37603874D01*
X89021166Y-37598402D01*
X89006484Y-37591458D01*
X88992553Y-37583108D01*
X88979508Y-37573433D01*
X88967474Y-37562526D01*
X88956567Y-37550492D01*
X88946892Y-37537447D01*
X88938542Y-37523516D01*
X88931598Y-37508834D01*
X88926126Y-37493542D01*
X88922180Y-37477787D01*
X88919797Y-37461722D01*
X88919000Y-37445500D01*
X88919000Y-37054500D01*
X88919797Y-37038278D01*
X88922180Y-37022213D01*
X88926126Y-37006458D01*
X88931598Y-36991166D01*
X88938542Y-36976484D01*
X88946892Y-36962553D01*
X88956567Y-36949508D01*
X88967474Y-36937474D01*
X88979508Y-36926567D01*
X88992553Y-36916892D01*
X89006484Y-36908542D01*
X89021166Y-36901598D01*
X89036458Y-36896126D01*
X89052213Y-36892180D01*
X89068278Y-36889797D01*
X89084500Y-36889000D01*
X89415500Y-36889000D01*
X89431722Y-36889797D01*
G37*
G36*
X90391722Y-36889797D02*
G01*
X90407787Y-36892180D01*
X90423542Y-36896126D01*
X90438834Y-36901598D01*
X90453516Y-36908542D01*
X90467447Y-36916892D01*
X90480492Y-36926567D01*
X90492526Y-36937474D01*
X90503433Y-36949508D01*
X90513108Y-36962553D01*
X90521458Y-36976484D01*
X90528402Y-36991166D01*
X90533874Y-37006458D01*
X90537820Y-37022213D01*
X90540203Y-37038278D01*
X90541000Y-37054500D01*
X90541000Y-37445500D01*
X90540203Y-37461722D01*
X90537820Y-37477787D01*
X90533874Y-37493542D01*
X90528402Y-37508834D01*
X90521458Y-37523516D01*
X90513108Y-37537447D01*
X90503433Y-37550492D01*
X90492526Y-37562526D01*
X90480492Y-37573433D01*
X90467447Y-37583108D01*
X90453516Y-37591458D01*
X90438834Y-37598402D01*
X90423542Y-37603874D01*
X90407787Y-37607820D01*
X90391722Y-37610203D01*
X90375500Y-37611000D01*
X90044500Y-37611000D01*
X90028278Y-37610203D01*
X90012213Y-37607820D01*
X89996458Y-37603874D01*
X89981166Y-37598402D01*
X89966484Y-37591458D01*
X89952553Y-37583108D01*
X89939508Y-37573433D01*
X89927474Y-37562526D01*
X89916567Y-37550492D01*
X89906892Y-37537447D01*
X89898542Y-37523516D01*
X89891598Y-37508834D01*
X89886126Y-37493542D01*
X89882180Y-37477787D01*
X89879797Y-37461722D01*
X89879000Y-37445500D01*
X89879000Y-37054500D01*
X89879797Y-37038278D01*
X89882180Y-37022213D01*
X89886126Y-37006458D01*
X89891598Y-36991166D01*
X89898542Y-36976484D01*
X89906892Y-36962553D01*
X89916567Y-36949508D01*
X89927474Y-36937474D01*
X89939508Y-36926567D01*
X89952553Y-36916892D01*
X89966484Y-36908542D01*
X89981166Y-36901598D01*
X89996458Y-36896126D01*
X90012213Y-36892180D01*
X90028278Y-36889797D01*
X90044500Y-36889000D01*
X90375500Y-36889000D01*
X90391722Y-36889797D01*
G37*
G36*
X90838922Y-39593397D02*
G01*
X90854987Y-39595780D01*
X90870742Y-39599726D01*
X90886034Y-39605198D01*
X90900716Y-39612142D01*
X90914647Y-39620492D01*
X90927692Y-39630167D01*
X90939726Y-39641074D01*
X90950633Y-39653108D01*
X90960308Y-39666153D01*
X90968658Y-39680084D01*
X90975602Y-39694766D01*
X90981074Y-39710058D01*
X90985020Y-39725813D01*
X90987403Y-39741878D01*
X90988200Y-39758100D01*
X90988200Y-40089100D01*
X90987403Y-40105322D01*
X90985020Y-40121387D01*
X90981074Y-40137142D01*
X90975602Y-40152434D01*
X90968658Y-40167116D01*
X90960308Y-40181047D01*
X90950633Y-40194092D01*
X90939726Y-40206126D01*
X90927692Y-40217033D01*
X90914647Y-40226708D01*
X90900716Y-40235058D01*
X90886034Y-40242002D01*
X90870742Y-40247474D01*
X90854987Y-40251420D01*
X90838922Y-40253803D01*
X90822700Y-40254600D01*
X90431700Y-40254600D01*
X90415478Y-40253803D01*
X90399413Y-40251420D01*
X90383658Y-40247474D01*
X90368366Y-40242002D01*
X90353684Y-40235058D01*
X90339753Y-40226708D01*
X90326708Y-40217033D01*
X90314674Y-40206126D01*
X90303767Y-40194092D01*
X90294092Y-40181047D01*
X90285742Y-40167116D01*
X90278798Y-40152434D01*
X90273326Y-40137142D01*
X90269380Y-40121387D01*
X90266997Y-40105322D01*
X90266200Y-40089100D01*
X90266200Y-39758100D01*
X90266997Y-39741878D01*
X90269380Y-39725813D01*
X90273326Y-39710058D01*
X90278798Y-39694766D01*
X90285742Y-39680084D01*
X90294092Y-39666153D01*
X90303767Y-39653108D01*
X90314674Y-39641074D01*
X90326708Y-39630167D01*
X90339753Y-39620492D01*
X90353684Y-39612142D01*
X90368366Y-39605198D01*
X90383658Y-39599726D01*
X90399413Y-39595780D01*
X90415478Y-39593397D01*
X90431700Y-39592600D01*
X90822700Y-39592600D01*
X90838922Y-39593397D01*
G37*
G36*
X90838922Y-38633397D02*
G01*
X90854987Y-38635780D01*
X90870742Y-38639726D01*
X90886034Y-38645198D01*
X90900716Y-38652142D01*
X90914647Y-38660492D01*
X90927692Y-38670167D01*
X90939726Y-38681074D01*
X90950633Y-38693108D01*
X90960308Y-38706153D01*
X90968658Y-38720084D01*
X90975602Y-38734766D01*
X90981074Y-38750058D01*
X90985020Y-38765813D01*
X90987403Y-38781878D01*
X90988200Y-38798100D01*
X90988200Y-39129100D01*
X90987403Y-39145322D01*
X90985020Y-39161387D01*
X90981074Y-39177142D01*
X90975602Y-39192434D01*
X90968658Y-39207116D01*
X90960308Y-39221047D01*
X90950633Y-39234092D01*
X90939726Y-39246126D01*
X90927692Y-39257033D01*
X90914647Y-39266708D01*
X90900716Y-39275058D01*
X90886034Y-39282002D01*
X90870742Y-39287474D01*
X90854987Y-39291420D01*
X90838922Y-39293803D01*
X90822700Y-39294600D01*
X90431700Y-39294600D01*
X90415478Y-39293803D01*
X90399413Y-39291420D01*
X90383658Y-39287474D01*
X90368366Y-39282002D01*
X90353684Y-39275058D01*
X90339753Y-39266708D01*
X90326708Y-39257033D01*
X90314674Y-39246126D01*
X90303767Y-39234092D01*
X90294092Y-39221047D01*
X90285742Y-39207116D01*
X90278798Y-39192434D01*
X90273326Y-39177142D01*
X90269380Y-39161387D01*
X90266997Y-39145322D01*
X90266200Y-39129100D01*
X90266200Y-38798100D01*
X90266997Y-38781878D01*
X90269380Y-38765813D01*
X90273326Y-38750058D01*
X90278798Y-38734766D01*
X90285742Y-38720084D01*
X90294092Y-38706153D01*
X90303767Y-38693108D01*
X90314674Y-38681074D01*
X90326708Y-38670167D01*
X90339753Y-38660492D01*
X90353684Y-38652142D01*
X90368366Y-38645198D01*
X90383658Y-38639726D01*
X90399413Y-38635780D01*
X90415478Y-38633397D01*
X90431700Y-38632600D01*
X90822700Y-38632600D01*
X90838922Y-38633397D01*
G37*
G36*
X96826122Y-32659797D02*
G01*
X96842187Y-32662180D01*
X96857942Y-32666126D01*
X96873234Y-32671598D01*
X96887916Y-32678542D01*
X96901847Y-32686892D01*
X96914892Y-32696567D01*
X96926926Y-32707474D01*
X96937833Y-32719508D01*
X96947508Y-32732553D01*
X96955858Y-32746484D01*
X96962802Y-32761166D01*
X96968274Y-32776458D01*
X96972220Y-32792213D01*
X96974603Y-32808278D01*
X96975400Y-32824500D01*
X96975400Y-33215500D01*
X96974603Y-33231722D01*
X96972220Y-33247787D01*
X96968274Y-33263542D01*
X96962802Y-33278834D01*
X96955858Y-33293516D01*
X96947508Y-33307447D01*
X96937833Y-33320492D01*
X96926926Y-33332526D01*
X96914892Y-33343433D01*
X96901847Y-33353108D01*
X96887916Y-33361458D01*
X96873234Y-33368402D01*
X96857942Y-33373874D01*
X96842187Y-33377820D01*
X96826122Y-33380203D01*
X96809900Y-33381000D01*
X96478900Y-33381000D01*
X96462678Y-33380203D01*
X96446613Y-33377820D01*
X96430858Y-33373874D01*
X96415566Y-33368402D01*
X96400884Y-33361458D01*
X96386953Y-33353108D01*
X96373908Y-33343433D01*
X96361874Y-33332526D01*
X96350967Y-33320492D01*
X96341292Y-33307447D01*
X96332942Y-33293516D01*
X96325998Y-33278834D01*
X96320526Y-33263542D01*
X96316580Y-33247787D01*
X96314197Y-33231722D01*
X96313400Y-33215500D01*
X96313400Y-32824500D01*
X96314197Y-32808278D01*
X96316580Y-32792213D01*
X96320526Y-32776458D01*
X96325998Y-32761166D01*
X96332942Y-32746484D01*
X96341292Y-32732553D01*
X96350967Y-32719508D01*
X96361874Y-32707474D01*
X96373908Y-32696567D01*
X96386953Y-32686892D01*
X96400884Y-32678542D01*
X96415566Y-32671598D01*
X96430858Y-32666126D01*
X96446613Y-32662180D01*
X96462678Y-32659797D01*
X96478900Y-32659000D01*
X96809900Y-32659000D01*
X96826122Y-32659797D01*
G37*
G36*
X95866122Y-32659797D02*
G01*
X95882187Y-32662180D01*
X95897942Y-32666126D01*
X95913234Y-32671598D01*
X95927916Y-32678542D01*
X95941847Y-32686892D01*
X95954892Y-32696567D01*
X95966926Y-32707474D01*
X95977833Y-32719508D01*
X95987508Y-32732553D01*
X95995858Y-32746484D01*
X96002802Y-32761166D01*
X96008274Y-32776458D01*
X96012220Y-32792213D01*
X96014603Y-32808278D01*
X96015400Y-32824500D01*
X96015400Y-33215500D01*
X96014603Y-33231722D01*
X96012220Y-33247787D01*
X96008274Y-33263542D01*
X96002802Y-33278834D01*
X95995858Y-33293516D01*
X95987508Y-33307447D01*
X95977833Y-33320492D01*
X95966926Y-33332526D01*
X95954892Y-33343433D01*
X95941847Y-33353108D01*
X95927916Y-33361458D01*
X95913234Y-33368402D01*
X95897942Y-33373874D01*
X95882187Y-33377820D01*
X95866122Y-33380203D01*
X95849900Y-33381000D01*
X95518900Y-33381000D01*
X95502678Y-33380203D01*
X95486613Y-33377820D01*
X95470858Y-33373874D01*
X95455566Y-33368402D01*
X95440884Y-33361458D01*
X95426953Y-33353108D01*
X95413908Y-33343433D01*
X95401874Y-33332526D01*
X95390967Y-33320492D01*
X95381292Y-33307447D01*
X95372942Y-33293516D01*
X95365998Y-33278834D01*
X95360526Y-33263542D01*
X95356580Y-33247787D01*
X95354197Y-33231722D01*
X95353400Y-33215500D01*
X95353400Y-32824500D01*
X95354197Y-32808278D01*
X95356580Y-32792213D01*
X95360526Y-32776458D01*
X95365998Y-32761166D01*
X95372942Y-32746484D01*
X95381292Y-32732553D01*
X95390967Y-32719508D01*
X95401874Y-32707474D01*
X95413908Y-32696567D01*
X95426953Y-32686892D01*
X95440884Y-32678542D01*
X95455566Y-32671598D01*
X95470858Y-32666126D01*
X95486613Y-32662180D01*
X95502678Y-32659797D01*
X95518900Y-32659000D01*
X95849900Y-32659000D01*
X95866122Y-32659797D01*
G37*
G36*
X92108922Y-39496997D02*
G01*
X92124987Y-39499380D01*
X92140742Y-39503326D01*
X92156034Y-39508798D01*
X92170716Y-39515742D01*
X92184647Y-39524092D01*
X92197692Y-39533767D01*
X92209726Y-39544674D01*
X92220633Y-39556708D01*
X92230308Y-39569753D01*
X92238658Y-39583684D01*
X92245602Y-39598366D01*
X92251074Y-39613658D01*
X92255020Y-39629413D01*
X92257403Y-39645478D01*
X92258200Y-39661700D01*
X92258200Y-39992700D01*
X92257403Y-40008922D01*
X92255020Y-40024987D01*
X92251074Y-40040742D01*
X92245602Y-40056034D01*
X92238658Y-40070716D01*
X92230308Y-40084647D01*
X92220633Y-40097692D01*
X92209726Y-40109726D01*
X92197692Y-40120633D01*
X92184647Y-40130308D01*
X92170716Y-40138658D01*
X92156034Y-40145602D01*
X92140742Y-40151074D01*
X92124987Y-40155020D01*
X92108922Y-40157403D01*
X92092700Y-40158200D01*
X91701700Y-40158200D01*
X91685478Y-40157403D01*
X91669413Y-40155020D01*
X91653658Y-40151074D01*
X91638366Y-40145602D01*
X91623684Y-40138658D01*
X91609753Y-40130308D01*
X91596708Y-40120633D01*
X91584674Y-40109726D01*
X91573767Y-40097692D01*
X91564092Y-40084647D01*
X91555742Y-40070716D01*
X91548798Y-40056034D01*
X91543326Y-40040742D01*
X91539380Y-40024987D01*
X91536997Y-40008922D01*
X91536200Y-39992700D01*
X91536200Y-39661700D01*
X91536997Y-39645478D01*
X91539380Y-39629413D01*
X91543326Y-39613658D01*
X91548798Y-39598366D01*
X91555742Y-39583684D01*
X91564092Y-39569753D01*
X91573767Y-39556708D01*
X91584674Y-39544674D01*
X91596708Y-39533767D01*
X91609753Y-39524092D01*
X91623684Y-39515742D01*
X91638366Y-39508798D01*
X91653658Y-39503326D01*
X91669413Y-39499380D01*
X91685478Y-39496997D01*
X91701700Y-39496200D01*
X92092700Y-39496200D01*
X92108922Y-39496997D01*
G37*
G36*
X92108922Y-40456997D02*
G01*
X92124987Y-40459380D01*
X92140742Y-40463326D01*
X92156034Y-40468798D01*
X92170716Y-40475742D01*
X92184647Y-40484092D01*
X92197692Y-40493767D01*
X92209726Y-40504674D01*
X92220633Y-40516708D01*
X92230308Y-40529753D01*
X92238658Y-40543684D01*
X92245602Y-40558366D01*
X92251074Y-40573658D01*
X92255020Y-40589413D01*
X92257403Y-40605478D01*
X92258200Y-40621700D01*
X92258200Y-40952700D01*
X92257403Y-40968922D01*
X92255020Y-40984987D01*
X92251074Y-41000742D01*
X92245602Y-41016034D01*
X92238658Y-41030716D01*
X92230308Y-41044647D01*
X92220633Y-41057692D01*
X92209726Y-41069726D01*
X92197692Y-41080633D01*
X92184647Y-41090308D01*
X92170716Y-41098658D01*
X92156034Y-41105602D01*
X92140742Y-41111074D01*
X92124987Y-41115020D01*
X92108922Y-41117403D01*
X92092700Y-41118200D01*
X91701700Y-41118200D01*
X91685478Y-41117403D01*
X91669413Y-41115020D01*
X91653658Y-41111074D01*
X91638366Y-41105602D01*
X91623684Y-41098658D01*
X91609753Y-41090308D01*
X91596708Y-41080633D01*
X91584674Y-41069726D01*
X91573767Y-41057692D01*
X91564092Y-41044647D01*
X91555742Y-41030716D01*
X91548798Y-41016034D01*
X91543326Y-41000742D01*
X91539380Y-40984987D01*
X91536997Y-40968922D01*
X91536200Y-40952700D01*
X91536200Y-40621700D01*
X91536997Y-40605478D01*
X91539380Y-40589413D01*
X91543326Y-40573658D01*
X91548798Y-40558366D01*
X91555742Y-40543684D01*
X91564092Y-40529753D01*
X91573767Y-40516708D01*
X91584674Y-40504674D01*
X91596708Y-40493767D01*
X91609753Y-40484092D01*
X91623684Y-40475742D01*
X91638366Y-40468798D01*
X91653658Y-40463326D01*
X91669413Y-40459380D01*
X91685478Y-40456997D01*
X91701700Y-40456200D01*
X92092700Y-40456200D01*
X92108922Y-40456997D01*
G37*
M02*
