G04 #@! TF.GenerationSoftware,KiCad,Pcbnew,5.1.5+dfsg1-2build2*
G04 #@! TF.CreationDate,2021-07-03T20:40:33+02:00*
G04 #@! TF.ProjectId,combined,636f6d62-696e-4656-942e-6b696361645f,rev?*
G04 #@! TF.SameCoordinates,Original*
G04 #@! TF.FileFunction,Copper,L1,Top*
G04 #@! TF.FilePolarity,Positive*
%FSLAX46Y46*%
G04 Gerber Fmt 4.6, Leading zero omitted, Abs format (unit mm)*
G04 Created by KiCad (PCBNEW 5.1.5+dfsg1-2build2) date 2021-07-03 20:40:33*
%MOMM*%
%LPD*%
G04 APERTURE LIST*
%ADD10C,0.100000*%
%ADD11C,1.100000*%
%ADD12R,1.750000X0.450000*%
%ADD13C,3.500000*%
%ADD14O,1.550000X0.890000*%
%ADD15R,1.550000X1.200000*%
%ADD16R,1.550000X1.500000*%
%ADD17O,0.950000X1.250000*%
%ADD18R,1.350000X0.400000*%
%ADD19R,1.100000X1.100000*%
%ADD20C,1.600000*%
%ADD21C,0.800000*%
%ADD22C,0.500000*%
%ADD23C,0.250000*%
G04 APERTURE END LIST*
G04 #@! TA.AperFunction,SMDPad,CuDef*
D10*
G36*
X85448232Y-35990650D02*
G01*
X85461337Y-35992594D01*
X85474188Y-35995813D01*
X85486662Y-36000276D01*
X85498639Y-36005941D01*
X85510002Y-36012752D01*
X85520643Y-36020644D01*
X85530459Y-36029541D01*
X85539356Y-36039357D01*
X85547248Y-36049998D01*
X85554059Y-36061361D01*
X85559724Y-36073338D01*
X85564187Y-36085812D01*
X85567406Y-36098663D01*
X85569350Y-36111768D01*
X85570000Y-36125000D01*
X85570000Y-36395000D01*
X85569350Y-36408232D01*
X85567406Y-36421337D01*
X85564187Y-36434188D01*
X85559724Y-36446662D01*
X85554059Y-36458639D01*
X85547248Y-36470002D01*
X85539356Y-36480643D01*
X85530459Y-36490459D01*
X85520643Y-36499356D01*
X85510002Y-36507248D01*
X85498639Y-36514059D01*
X85486662Y-36519724D01*
X85474188Y-36524187D01*
X85461337Y-36527406D01*
X85448232Y-36529350D01*
X85435000Y-36530000D01*
X85065000Y-36530000D01*
X85051768Y-36529350D01*
X85038663Y-36527406D01*
X85025812Y-36524187D01*
X85013338Y-36519724D01*
X85001361Y-36514059D01*
X84989998Y-36507248D01*
X84979357Y-36499356D01*
X84969541Y-36490459D01*
X84960644Y-36480643D01*
X84952752Y-36470002D01*
X84945941Y-36458639D01*
X84940276Y-36446662D01*
X84935813Y-36434188D01*
X84932594Y-36421337D01*
X84930650Y-36408232D01*
X84930000Y-36395000D01*
X84930000Y-36125000D01*
X84930650Y-36111768D01*
X84932594Y-36098663D01*
X84935813Y-36085812D01*
X84940276Y-36073338D01*
X84945941Y-36061361D01*
X84952752Y-36049998D01*
X84960644Y-36039357D01*
X84969541Y-36029541D01*
X84979357Y-36020644D01*
X84989998Y-36012752D01*
X85001361Y-36005941D01*
X85013338Y-36000276D01*
X85025812Y-35995813D01*
X85038663Y-35992594D01*
X85051768Y-35990650D01*
X85065000Y-35990000D01*
X85435000Y-35990000D01*
X85448232Y-35990650D01*
G37*
G04 #@! TD.AperFunction*
G04 #@! TA.AperFunction,SMDPad,CuDef*
G36*
X85448232Y-34970650D02*
G01*
X85461337Y-34972594D01*
X85474188Y-34975813D01*
X85486662Y-34980276D01*
X85498639Y-34985941D01*
X85510002Y-34992752D01*
X85520643Y-35000644D01*
X85530459Y-35009541D01*
X85539356Y-35019357D01*
X85547248Y-35029998D01*
X85554059Y-35041361D01*
X85559724Y-35053338D01*
X85564187Y-35065812D01*
X85567406Y-35078663D01*
X85569350Y-35091768D01*
X85570000Y-35105000D01*
X85570000Y-35375000D01*
X85569350Y-35388232D01*
X85567406Y-35401337D01*
X85564187Y-35414188D01*
X85559724Y-35426662D01*
X85554059Y-35438639D01*
X85547248Y-35450002D01*
X85539356Y-35460643D01*
X85530459Y-35470459D01*
X85520643Y-35479356D01*
X85510002Y-35487248D01*
X85498639Y-35494059D01*
X85486662Y-35499724D01*
X85474188Y-35504187D01*
X85461337Y-35507406D01*
X85448232Y-35509350D01*
X85435000Y-35510000D01*
X85065000Y-35510000D01*
X85051768Y-35509350D01*
X85038663Y-35507406D01*
X85025812Y-35504187D01*
X85013338Y-35499724D01*
X85001361Y-35494059D01*
X84989998Y-35487248D01*
X84979357Y-35479356D01*
X84969541Y-35470459D01*
X84960644Y-35460643D01*
X84952752Y-35450002D01*
X84945941Y-35438639D01*
X84940276Y-35426662D01*
X84935813Y-35414188D01*
X84932594Y-35401337D01*
X84930650Y-35388232D01*
X84930000Y-35375000D01*
X84930000Y-35105000D01*
X84930650Y-35091768D01*
X84932594Y-35078663D01*
X84935813Y-35065812D01*
X84940276Y-35053338D01*
X84945941Y-35041361D01*
X84952752Y-35029998D01*
X84960644Y-35019357D01*
X84969541Y-35009541D01*
X84979357Y-35000644D01*
X84989998Y-34992752D01*
X85001361Y-34985941D01*
X85013338Y-34980276D01*
X85025812Y-34975813D01*
X85038663Y-34972594D01*
X85051768Y-34970650D01*
X85065000Y-34970000D01*
X85435000Y-34970000D01*
X85448232Y-34970650D01*
G37*
G04 #@! TD.AperFunction*
G04 #@! TA.AperFunction,SMDPad,CuDef*
G36*
X84436958Y-35945710D02*
G01*
X84451276Y-35947834D01*
X84465317Y-35951351D01*
X84478946Y-35956228D01*
X84492031Y-35962417D01*
X84504447Y-35969858D01*
X84516073Y-35978481D01*
X84526798Y-35988202D01*
X84536519Y-35998927D01*
X84545142Y-36010553D01*
X84552583Y-36022969D01*
X84558772Y-36036054D01*
X84563649Y-36049683D01*
X84567166Y-36063724D01*
X84569290Y-36078042D01*
X84570000Y-36092500D01*
X84570000Y-36387500D01*
X84569290Y-36401958D01*
X84567166Y-36416276D01*
X84563649Y-36430317D01*
X84558772Y-36443946D01*
X84552583Y-36457031D01*
X84545142Y-36469447D01*
X84536519Y-36481073D01*
X84526798Y-36491798D01*
X84516073Y-36501519D01*
X84504447Y-36510142D01*
X84492031Y-36517583D01*
X84478946Y-36523772D01*
X84465317Y-36528649D01*
X84451276Y-36532166D01*
X84436958Y-36534290D01*
X84422500Y-36535000D01*
X84077500Y-36535000D01*
X84063042Y-36534290D01*
X84048724Y-36532166D01*
X84034683Y-36528649D01*
X84021054Y-36523772D01*
X84007969Y-36517583D01*
X83995553Y-36510142D01*
X83983927Y-36501519D01*
X83973202Y-36491798D01*
X83963481Y-36481073D01*
X83954858Y-36469447D01*
X83947417Y-36457031D01*
X83941228Y-36443946D01*
X83936351Y-36430317D01*
X83932834Y-36416276D01*
X83930710Y-36401958D01*
X83930000Y-36387500D01*
X83930000Y-36092500D01*
X83930710Y-36078042D01*
X83932834Y-36063724D01*
X83936351Y-36049683D01*
X83941228Y-36036054D01*
X83947417Y-36022969D01*
X83954858Y-36010553D01*
X83963481Y-35998927D01*
X83973202Y-35988202D01*
X83983927Y-35978481D01*
X83995553Y-35969858D01*
X84007969Y-35962417D01*
X84021054Y-35956228D01*
X84034683Y-35951351D01*
X84048724Y-35947834D01*
X84063042Y-35945710D01*
X84077500Y-35945000D01*
X84422500Y-35945000D01*
X84436958Y-35945710D01*
G37*
G04 #@! TD.AperFunction*
G04 #@! TA.AperFunction,SMDPad,CuDef*
G36*
X84436958Y-34975710D02*
G01*
X84451276Y-34977834D01*
X84465317Y-34981351D01*
X84478946Y-34986228D01*
X84492031Y-34992417D01*
X84504447Y-34999858D01*
X84516073Y-35008481D01*
X84526798Y-35018202D01*
X84536519Y-35028927D01*
X84545142Y-35040553D01*
X84552583Y-35052969D01*
X84558772Y-35066054D01*
X84563649Y-35079683D01*
X84567166Y-35093724D01*
X84569290Y-35108042D01*
X84570000Y-35122500D01*
X84570000Y-35417500D01*
X84569290Y-35431958D01*
X84567166Y-35446276D01*
X84563649Y-35460317D01*
X84558772Y-35473946D01*
X84552583Y-35487031D01*
X84545142Y-35499447D01*
X84536519Y-35511073D01*
X84526798Y-35521798D01*
X84516073Y-35531519D01*
X84504447Y-35540142D01*
X84492031Y-35547583D01*
X84478946Y-35553772D01*
X84465317Y-35558649D01*
X84451276Y-35562166D01*
X84436958Y-35564290D01*
X84422500Y-35565000D01*
X84077500Y-35565000D01*
X84063042Y-35564290D01*
X84048724Y-35562166D01*
X84034683Y-35558649D01*
X84021054Y-35553772D01*
X84007969Y-35547583D01*
X83995553Y-35540142D01*
X83983927Y-35531519D01*
X83973202Y-35521798D01*
X83963481Y-35511073D01*
X83954858Y-35499447D01*
X83947417Y-35487031D01*
X83941228Y-35473946D01*
X83936351Y-35460317D01*
X83932834Y-35446276D01*
X83930710Y-35431958D01*
X83930000Y-35417500D01*
X83930000Y-35122500D01*
X83930710Y-35108042D01*
X83932834Y-35093724D01*
X83936351Y-35079683D01*
X83941228Y-35066054D01*
X83947417Y-35052969D01*
X83954858Y-35040553D01*
X83963481Y-35028927D01*
X83973202Y-35018202D01*
X83983927Y-35008481D01*
X83995553Y-34999858D01*
X84007969Y-34992417D01*
X84021054Y-34986228D01*
X84034683Y-34981351D01*
X84048724Y-34977834D01*
X84063042Y-34975710D01*
X84077500Y-34975000D01*
X84422500Y-34975000D01*
X84436958Y-34975710D01*
G37*
G04 #@! TD.AperFunction*
G04 #@! TA.AperFunction,SMDPad,CuDef*
G36*
X93664703Y-37313222D02*
G01*
X93679264Y-37315382D01*
X93693543Y-37318959D01*
X93707403Y-37323918D01*
X93720710Y-37330212D01*
X93733336Y-37337780D01*
X93745159Y-37346548D01*
X93756066Y-37356434D01*
X93765952Y-37367341D01*
X93774720Y-37379164D01*
X93782288Y-37391790D01*
X93788582Y-37405097D01*
X93793541Y-37418957D01*
X93797118Y-37433236D01*
X93799278Y-37447797D01*
X93800000Y-37462500D01*
X93800000Y-38487500D01*
X93799278Y-38502203D01*
X93797118Y-38516764D01*
X93793541Y-38531043D01*
X93788582Y-38544903D01*
X93782288Y-38558210D01*
X93774720Y-38570836D01*
X93765952Y-38582659D01*
X93756066Y-38593566D01*
X93745159Y-38603452D01*
X93733336Y-38612220D01*
X93720710Y-38619788D01*
X93707403Y-38626082D01*
X93693543Y-38631041D01*
X93679264Y-38634618D01*
X93664703Y-38636778D01*
X93650000Y-38637500D01*
X93350000Y-38637500D01*
X93335297Y-38636778D01*
X93320736Y-38634618D01*
X93306457Y-38631041D01*
X93292597Y-38626082D01*
X93279290Y-38619788D01*
X93266664Y-38612220D01*
X93254841Y-38603452D01*
X93243934Y-38593566D01*
X93234048Y-38582659D01*
X93225280Y-38570836D01*
X93217712Y-38558210D01*
X93211418Y-38544903D01*
X93206459Y-38531043D01*
X93202882Y-38516764D01*
X93200722Y-38502203D01*
X93200000Y-38487500D01*
X93200000Y-37462500D01*
X93200722Y-37447797D01*
X93202882Y-37433236D01*
X93206459Y-37418957D01*
X93211418Y-37405097D01*
X93217712Y-37391790D01*
X93225280Y-37379164D01*
X93234048Y-37367341D01*
X93243934Y-37356434D01*
X93254841Y-37346548D01*
X93266664Y-37337780D01*
X93279290Y-37330212D01*
X93292597Y-37323918D01*
X93306457Y-37318959D01*
X93320736Y-37315382D01*
X93335297Y-37313222D01*
X93350000Y-37312500D01*
X93650000Y-37312500D01*
X93664703Y-37313222D01*
G37*
G04 #@! TD.AperFunction*
G04 #@! TA.AperFunction,SMDPad,CuDef*
G36*
X95564703Y-37313222D02*
G01*
X95579264Y-37315382D01*
X95593543Y-37318959D01*
X95607403Y-37323918D01*
X95620710Y-37330212D01*
X95633336Y-37337780D01*
X95645159Y-37346548D01*
X95656066Y-37356434D01*
X95665952Y-37367341D01*
X95674720Y-37379164D01*
X95682288Y-37391790D01*
X95688582Y-37405097D01*
X95693541Y-37418957D01*
X95697118Y-37433236D01*
X95699278Y-37447797D01*
X95700000Y-37462500D01*
X95700000Y-38487500D01*
X95699278Y-38502203D01*
X95697118Y-38516764D01*
X95693541Y-38531043D01*
X95688582Y-38544903D01*
X95682288Y-38558210D01*
X95674720Y-38570836D01*
X95665952Y-38582659D01*
X95656066Y-38593566D01*
X95645159Y-38603452D01*
X95633336Y-38612220D01*
X95620710Y-38619788D01*
X95607403Y-38626082D01*
X95593543Y-38631041D01*
X95579264Y-38634618D01*
X95564703Y-38636778D01*
X95550000Y-38637500D01*
X95250000Y-38637500D01*
X95235297Y-38636778D01*
X95220736Y-38634618D01*
X95206457Y-38631041D01*
X95192597Y-38626082D01*
X95179290Y-38619788D01*
X95166664Y-38612220D01*
X95154841Y-38603452D01*
X95143934Y-38593566D01*
X95134048Y-38582659D01*
X95125280Y-38570836D01*
X95117712Y-38558210D01*
X95111418Y-38544903D01*
X95106459Y-38531043D01*
X95102882Y-38516764D01*
X95100722Y-38502203D01*
X95100000Y-38487500D01*
X95100000Y-37462500D01*
X95100722Y-37447797D01*
X95102882Y-37433236D01*
X95106459Y-37418957D01*
X95111418Y-37405097D01*
X95117712Y-37391790D01*
X95125280Y-37379164D01*
X95134048Y-37367341D01*
X95143934Y-37356434D01*
X95154841Y-37346548D01*
X95166664Y-37337780D01*
X95179290Y-37330212D01*
X95192597Y-37323918D01*
X95206457Y-37318959D01*
X95220736Y-37315382D01*
X95235297Y-37313222D01*
X95250000Y-37312500D01*
X95550000Y-37312500D01*
X95564703Y-37313222D01*
G37*
G04 #@! TD.AperFunction*
G04 #@! TA.AperFunction,SMDPad,CuDef*
G36*
X95564703Y-39588222D02*
G01*
X95579264Y-39590382D01*
X95593543Y-39593959D01*
X95607403Y-39598918D01*
X95620710Y-39605212D01*
X95633336Y-39612780D01*
X95645159Y-39621548D01*
X95656066Y-39631434D01*
X95665952Y-39642341D01*
X95674720Y-39654164D01*
X95682288Y-39666790D01*
X95688582Y-39680097D01*
X95693541Y-39693957D01*
X95697118Y-39708236D01*
X95699278Y-39722797D01*
X95700000Y-39737500D01*
X95700000Y-40762500D01*
X95699278Y-40777203D01*
X95697118Y-40791764D01*
X95693541Y-40806043D01*
X95688582Y-40819903D01*
X95682288Y-40833210D01*
X95674720Y-40845836D01*
X95665952Y-40857659D01*
X95656066Y-40868566D01*
X95645159Y-40878452D01*
X95633336Y-40887220D01*
X95620710Y-40894788D01*
X95607403Y-40901082D01*
X95593543Y-40906041D01*
X95579264Y-40909618D01*
X95564703Y-40911778D01*
X95550000Y-40912500D01*
X95250000Y-40912500D01*
X95235297Y-40911778D01*
X95220736Y-40909618D01*
X95206457Y-40906041D01*
X95192597Y-40901082D01*
X95179290Y-40894788D01*
X95166664Y-40887220D01*
X95154841Y-40878452D01*
X95143934Y-40868566D01*
X95134048Y-40857659D01*
X95125280Y-40845836D01*
X95117712Y-40833210D01*
X95111418Y-40819903D01*
X95106459Y-40806043D01*
X95102882Y-40791764D01*
X95100722Y-40777203D01*
X95100000Y-40762500D01*
X95100000Y-39737500D01*
X95100722Y-39722797D01*
X95102882Y-39708236D01*
X95106459Y-39693957D01*
X95111418Y-39680097D01*
X95117712Y-39666790D01*
X95125280Y-39654164D01*
X95134048Y-39642341D01*
X95143934Y-39631434D01*
X95154841Y-39621548D01*
X95166664Y-39612780D01*
X95179290Y-39605212D01*
X95192597Y-39598918D01*
X95206457Y-39593959D01*
X95220736Y-39590382D01*
X95235297Y-39588222D01*
X95250000Y-39587500D01*
X95550000Y-39587500D01*
X95564703Y-39588222D01*
G37*
G04 #@! TD.AperFunction*
G04 #@! TA.AperFunction,SMDPad,CuDef*
G36*
X94614703Y-39588222D02*
G01*
X94629264Y-39590382D01*
X94643543Y-39593959D01*
X94657403Y-39598918D01*
X94670710Y-39605212D01*
X94683336Y-39612780D01*
X94695159Y-39621548D01*
X94706066Y-39631434D01*
X94715952Y-39642341D01*
X94724720Y-39654164D01*
X94732288Y-39666790D01*
X94738582Y-39680097D01*
X94743541Y-39693957D01*
X94747118Y-39708236D01*
X94749278Y-39722797D01*
X94750000Y-39737500D01*
X94750000Y-40762500D01*
X94749278Y-40777203D01*
X94747118Y-40791764D01*
X94743541Y-40806043D01*
X94738582Y-40819903D01*
X94732288Y-40833210D01*
X94724720Y-40845836D01*
X94715952Y-40857659D01*
X94706066Y-40868566D01*
X94695159Y-40878452D01*
X94683336Y-40887220D01*
X94670710Y-40894788D01*
X94657403Y-40901082D01*
X94643543Y-40906041D01*
X94629264Y-40909618D01*
X94614703Y-40911778D01*
X94600000Y-40912500D01*
X94300000Y-40912500D01*
X94285297Y-40911778D01*
X94270736Y-40909618D01*
X94256457Y-40906041D01*
X94242597Y-40901082D01*
X94229290Y-40894788D01*
X94216664Y-40887220D01*
X94204841Y-40878452D01*
X94193934Y-40868566D01*
X94184048Y-40857659D01*
X94175280Y-40845836D01*
X94167712Y-40833210D01*
X94161418Y-40819903D01*
X94156459Y-40806043D01*
X94152882Y-40791764D01*
X94150722Y-40777203D01*
X94150000Y-40762500D01*
X94150000Y-39737500D01*
X94150722Y-39722797D01*
X94152882Y-39708236D01*
X94156459Y-39693957D01*
X94161418Y-39680097D01*
X94167712Y-39666790D01*
X94175280Y-39654164D01*
X94184048Y-39642341D01*
X94193934Y-39631434D01*
X94204841Y-39621548D01*
X94216664Y-39612780D01*
X94229290Y-39605212D01*
X94242597Y-39598918D01*
X94256457Y-39593959D01*
X94270736Y-39590382D01*
X94285297Y-39588222D01*
X94300000Y-39587500D01*
X94600000Y-39587500D01*
X94614703Y-39588222D01*
G37*
G04 #@! TD.AperFunction*
G04 #@! TA.AperFunction,SMDPad,CuDef*
G36*
X93664703Y-39588222D02*
G01*
X93679264Y-39590382D01*
X93693543Y-39593959D01*
X93707403Y-39598918D01*
X93720710Y-39605212D01*
X93733336Y-39612780D01*
X93745159Y-39621548D01*
X93756066Y-39631434D01*
X93765952Y-39642341D01*
X93774720Y-39654164D01*
X93782288Y-39666790D01*
X93788582Y-39680097D01*
X93793541Y-39693957D01*
X93797118Y-39708236D01*
X93799278Y-39722797D01*
X93800000Y-39737500D01*
X93800000Y-40762500D01*
X93799278Y-40777203D01*
X93797118Y-40791764D01*
X93793541Y-40806043D01*
X93788582Y-40819903D01*
X93782288Y-40833210D01*
X93774720Y-40845836D01*
X93765952Y-40857659D01*
X93756066Y-40868566D01*
X93745159Y-40878452D01*
X93733336Y-40887220D01*
X93720710Y-40894788D01*
X93707403Y-40901082D01*
X93693543Y-40906041D01*
X93679264Y-40909618D01*
X93664703Y-40911778D01*
X93650000Y-40912500D01*
X93350000Y-40912500D01*
X93335297Y-40911778D01*
X93320736Y-40909618D01*
X93306457Y-40906041D01*
X93292597Y-40901082D01*
X93279290Y-40894788D01*
X93266664Y-40887220D01*
X93254841Y-40878452D01*
X93243934Y-40868566D01*
X93234048Y-40857659D01*
X93225280Y-40845836D01*
X93217712Y-40833210D01*
X93211418Y-40819903D01*
X93206459Y-40806043D01*
X93202882Y-40791764D01*
X93200722Y-40777203D01*
X93200000Y-40762500D01*
X93200000Y-39737500D01*
X93200722Y-39722797D01*
X93202882Y-39708236D01*
X93206459Y-39693957D01*
X93211418Y-39680097D01*
X93217712Y-39666790D01*
X93225280Y-39654164D01*
X93234048Y-39642341D01*
X93243934Y-39631434D01*
X93254841Y-39621548D01*
X93266664Y-39612780D01*
X93279290Y-39605212D01*
X93292597Y-39598918D01*
X93306457Y-39593959D01*
X93320736Y-39590382D01*
X93335297Y-39588222D01*
X93350000Y-39587500D01*
X93650000Y-39587500D01*
X93664703Y-39588222D01*
G37*
G04 #@! TD.AperFunction*
D11*
X102209798Y-29664214D02*
X102492640Y-29947056D01*
X100937006Y-30937006D02*
X101219848Y-31219848D01*
G04 #@! TA.AperFunction,ComponentPad*
D10*
G36*
X98133054Y-27435392D02*
G01*
X98157293Y-27438988D01*
X98181063Y-27444942D01*
X98204135Y-27453197D01*
X98226287Y-27463674D01*
X98247305Y-27476272D01*
X98266987Y-27490869D01*
X98285144Y-27507325D01*
X98992675Y-28214856D01*
X99009131Y-28233013D01*
X99023728Y-28252695D01*
X99036326Y-28273713D01*
X99046803Y-28295865D01*
X99055058Y-28318937D01*
X99061012Y-28342707D01*
X99064608Y-28366946D01*
X99065810Y-28391421D01*
X99064608Y-28415896D01*
X99061012Y-28440135D01*
X99055058Y-28463905D01*
X99046803Y-28486977D01*
X99036326Y-28509129D01*
X99023728Y-28530147D01*
X99009131Y-28549829D01*
X98992675Y-28567986D01*
X98567986Y-28992675D01*
X98549829Y-29009131D01*
X98530147Y-29023728D01*
X98509129Y-29036326D01*
X98486977Y-29046803D01*
X98463905Y-29055058D01*
X98440135Y-29061012D01*
X98415896Y-29064608D01*
X98391421Y-29065810D01*
X98366946Y-29064608D01*
X98342707Y-29061012D01*
X98318937Y-29055058D01*
X98295865Y-29046803D01*
X98273713Y-29036326D01*
X98252695Y-29023728D01*
X98233013Y-29009131D01*
X98214856Y-28992675D01*
X97507325Y-28285144D01*
X97490869Y-28266987D01*
X97476272Y-28247305D01*
X97463674Y-28226287D01*
X97453197Y-28204135D01*
X97444942Y-28181063D01*
X97438988Y-28157293D01*
X97435392Y-28133054D01*
X97434190Y-28108579D01*
X97435392Y-28084104D01*
X97438988Y-28059865D01*
X97444942Y-28036095D01*
X97453197Y-28013023D01*
X97463674Y-27990871D01*
X97476272Y-27969853D01*
X97490869Y-27950171D01*
X97507325Y-27932014D01*
X97932014Y-27507325D01*
X97950171Y-27490869D01*
X97969853Y-27476272D01*
X97990871Y-27463674D01*
X98013023Y-27453197D01*
X98036095Y-27444942D01*
X98059865Y-27438988D01*
X98084104Y-27435392D01*
X98108579Y-27434190D01*
X98133054Y-27435392D01*
G37*
G04 #@! TD.AperFunction*
D11*
X99381371Y-26835787D02*
X99664213Y-27118629D01*
X100914214Y-36540202D02*
X101197056Y-36257360D01*
X102187006Y-37812994D02*
X102469848Y-37530152D01*
G04 #@! TA.AperFunction,ComponentPad*
D10*
G36*
X99665896Y-39685392D02*
G01*
X99690135Y-39688988D01*
X99713905Y-39694942D01*
X99736977Y-39703197D01*
X99759129Y-39713674D01*
X99780147Y-39726272D01*
X99799829Y-39740869D01*
X99817986Y-39757325D01*
X100242675Y-40182014D01*
X100259131Y-40200171D01*
X100273728Y-40219853D01*
X100286326Y-40240871D01*
X100296803Y-40263023D01*
X100305058Y-40286095D01*
X100311012Y-40309865D01*
X100314608Y-40334104D01*
X100315810Y-40358579D01*
X100314608Y-40383054D01*
X100311012Y-40407293D01*
X100305058Y-40431063D01*
X100296803Y-40454135D01*
X100286326Y-40476287D01*
X100273728Y-40497305D01*
X100259131Y-40516987D01*
X100242675Y-40535144D01*
X99535144Y-41242675D01*
X99516987Y-41259131D01*
X99497305Y-41273728D01*
X99476287Y-41286326D01*
X99454135Y-41296803D01*
X99431063Y-41305058D01*
X99407293Y-41311012D01*
X99383054Y-41314608D01*
X99358579Y-41315810D01*
X99334104Y-41314608D01*
X99309865Y-41311012D01*
X99286095Y-41305058D01*
X99263023Y-41296803D01*
X99240871Y-41286326D01*
X99219853Y-41273728D01*
X99200171Y-41259131D01*
X99182014Y-41242675D01*
X98757325Y-40817986D01*
X98740869Y-40799829D01*
X98726272Y-40780147D01*
X98713674Y-40759129D01*
X98703197Y-40736977D01*
X98694942Y-40713905D01*
X98688988Y-40690135D01*
X98685392Y-40665896D01*
X98684190Y-40641421D01*
X98685392Y-40616946D01*
X98688988Y-40592707D01*
X98694942Y-40568937D01*
X98703197Y-40545865D01*
X98713674Y-40523713D01*
X98726272Y-40502695D01*
X98740869Y-40483013D01*
X98757325Y-40464856D01*
X99464856Y-39757325D01*
X99483013Y-39740869D01*
X99502695Y-39726272D01*
X99523713Y-39713674D01*
X99545865Y-39703197D01*
X99568937Y-39694942D01*
X99592707Y-39688988D01*
X99616946Y-39685392D01*
X99641421Y-39684190D01*
X99665896Y-39685392D01*
G37*
G04 #@! TD.AperFunction*
D11*
X98085787Y-39368629D02*
X98368629Y-39085787D01*
D12*
X104400000Y-37325000D03*
X104400000Y-36675000D03*
X104400000Y-36025000D03*
X104400000Y-35375000D03*
X104400000Y-34725000D03*
X104400000Y-34075000D03*
X104400000Y-33425000D03*
X104400000Y-32775000D03*
X104400000Y-32125000D03*
X104400000Y-31475000D03*
X104400000Y-30825000D03*
X104400000Y-30175000D03*
X111600000Y-30175000D03*
X111600000Y-30825000D03*
X111600000Y-31475000D03*
X111600000Y-32125000D03*
X111600000Y-32775000D03*
X111600000Y-33425000D03*
X111600000Y-34075000D03*
X111600000Y-34725000D03*
X111600000Y-35375000D03*
X111600000Y-36025000D03*
X111600000Y-36675000D03*
X111600000Y-37325000D03*
G04 #@! TA.AperFunction,SMDPad,CuDef*
D10*
G36*
X92832351Y-34925361D02*
G01*
X92839632Y-34926441D01*
X92846771Y-34928229D01*
X92853701Y-34930709D01*
X92860355Y-34933856D01*
X92866668Y-34937640D01*
X92872579Y-34942024D01*
X92878033Y-34946967D01*
X92882976Y-34952421D01*
X92887360Y-34958332D01*
X92891144Y-34964645D01*
X92894291Y-34971299D01*
X92896771Y-34978229D01*
X92898559Y-34985368D01*
X92899639Y-34992649D01*
X92900000Y-35000000D01*
X92900000Y-36325000D01*
X92899639Y-36332351D01*
X92898559Y-36339632D01*
X92896771Y-36346771D01*
X92894291Y-36353701D01*
X92891144Y-36360355D01*
X92887360Y-36366668D01*
X92882976Y-36372579D01*
X92878033Y-36378033D01*
X92872579Y-36382976D01*
X92866668Y-36387360D01*
X92860355Y-36391144D01*
X92853701Y-36394291D01*
X92846771Y-36396771D01*
X92839632Y-36398559D01*
X92832351Y-36399639D01*
X92825000Y-36400000D01*
X92675000Y-36400000D01*
X92667649Y-36399639D01*
X92660368Y-36398559D01*
X92653229Y-36396771D01*
X92646299Y-36394291D01*
X92639645Y-36391144D01*
X92633332Y-36387360D01*
X92627421Y-36382976D01*
X92621967Y-36378033D01*
X92617024Y-36372579D01*
X92612640Y-36366668D01*
X92608856Y-36360355D01*
X92605709Y-36353701D01*
X92603229Y-36346771D01*
X92601441Y-36339632D01*
X92600361Y-36332351D01*
X92600000Y-36325000D01*
X92600000Y-35000000D01*
X92600361Y-34992649D01*
X92601441Y-34985368D01*
X92603229Y-34978229D01*
X92605709Y-34971299D01*
X92608856Y-34964645D01*
X92612640Y-34958332D01*
X92617024Y-34952421D01*
X92621967Y-34946967D01*
X92627421Y-34942024D01*
X92633332Y-34937640D01*
X92639645Y-34933856D01*
X92646299Y-34930709D01*
X92653229Y-34928229D01*
X92660368Y-34926441D01*
X92667649Y-34925361D01*
X92675000Y-34925000D01*
X92825000Y-34925000D01*
X92832351Y-34925361D01*
G37*
G04 #@! TD.AperFunction*
G04 #@! TA.AperFunction,SMDPad,CuDef*
G36*
X92332351Y-34925361D02*
G01*
X92339632Y-34926441D01*
X92346771Y-34928229D01*
X92353701Y-34930709D01*
X92360355Y-34933856D01*
X92366668Y-34937640D01*
X92372579Y-34942024D01*
X92378033Y-34946967D01*
X92382976Y-34952421D01*
X92387360Y-34958332D01*
X92391144Y-34964645D01*
X92394291Y-34971299D01*
X92396771Y-34978229D01*
X92398559Y-34985368D01*
X92399639Y-34992649D01*
X92400000Y-35000000D01*
X92400000Y-36325000D01*
X92399639Y-36332351D01*
X92398559Y-36339632D01*
X92396771Y-36346771D01*
X92394291Y-36353701D01*
X92391144Y-36360355D01*
X92387360Y-36366668D01*
X92382976Y-36372579D01*
X92378033Y-36378033D01*
X92372579Y-36382976D01*
X92366668Y-36387360D01*
X92360355Y-36391144D01*
X92353701Y-36394291D01*
X92346771Y-36396771D01*
X92339632Y-36398559D01*
X92332351Y-36399639D01*
X92325000Y-36400000D01*
X92175000Y-36400000D01*
X92167649Y-36399639D01*
X92160368Y-36398559D01*
X92153229Y-36396771D01*
X92146299Y-36394291D01*
X92139645Y-36391144D01*
X92133332Y-36387360D01*
X92127421Y-36382976D01*
X92121967Y-36378033D01*
X92117024Y-36372579D01*
X92112640Y-36366668D01*
X92108856Y-36360355D01*
X92105709Y-36353701D01*
X92103229Y-36346771D01*
X92101441Y-36339632D01*
X92100361Y-36332351D01*
X92100000Y-36325000D01*
X92100000Y-35000000D01*
X92100361Y-34992649D01*
X92101441Y-34985368D01*
X92103229Y-34978229D01*
X92105709Y-34971299D01*
X92108856Y-34964645D01*
X92112640Y-34958332D01*
X92117024Y-34952421D01*
X92121967Y-34946967D01*
X92127421Y-34942024D01*
X92133332Y-34937640D01*
X92139645Y-34933856D01*
X92146299Y-34930709D01*
X92153229Y-34928229D01*
X92160368Y-34926441D01*
X92167649Y-34925361D01*
X92175000Y-34925000D01*
X92325000Y-34925000D01*
X92332351Y-34925361D01*
G37*
G04 #@! TD.AperFunction*
G04 #@! TA.AperFunction,SMDPad,CuDef*
G36*
X91832351Y-34925361D02*
G01*
X91839632Y-34926441D01*
X91846771Y-34928229D01*
X91853701Y-34930709D01*
X91860355Y-34933856D01*
X91866668Y-34937640D01*
X91872579Y-34942024D01*
X91878033Y-34946967D01*
X91882976Y-34952421D01*
X91887360Y-34958332D01*
X91891144Y-34964645D01*
X91894291Y-34971299D01*
X91896771Y-34978229D01*
X91898559Y-34985368D01*
X91899639Y-34992649D01*
X91900000Y-35000000D01*
X91900000Y-36325000D01*
X91899639Y-36332351D01*
X91898559Y-36339632D01*
X91896771Y-36346771D01*
X91894291Y-36353701D01*
X91891144Y-36360355D01*
X91887360Y-36366668D01*
X91882976Y-36372579D01*
X91878033Y-36378033D01*
X91872579Y-36382976D01*
X91866668Y-36387360D01*
X91860355Y-36391144D01*
X91853701Y-36394291D01*
X91846771Y-36396771D01*
X91839632Y-36398559D01*
X91832351Y-36399639D01*
X91825000Y-36400000D01*
X91675000Y-36400000D01*
X91667649Y-36399639D01*
X91660368Y-36398559D01*
X91653229Y-36396771D01*
X91646299Y-36394291D01*
X91639645Y-36391144D01*
X91633332Y-36387360D01*
X91627421Y-36382976D01*
X91621967Y-36378033D01*
X91617024Y-36372579D01*
X91612640Y-36366668D01*
X91608856Y-36360355D01*
X91605709Y-36353701D01*
X91603229Y-36346771D01*
X91601441Y-36339632D01*
X91600361Y-36332351D01*
X91600000Y-36325000D01*
X91600000Y-35000000D01*
X91600361Y-34992649D01*
X91601441Y-34985368D01*
X91603229Y-34978229D01*
X91605709Y-34971299D01*
X91608856Y-34964645D01*
X91612640Y-34958332D01*
X91617024Y-34952421D01*
X91621967Y-34946967D01*
X91627421Y-34942024D01*
X91633332Y-34937640D01*
X91639645Y-34933856D01*
X91646299Y-34930709D01*
X91653229Y-34928229D01*
X91660368Y-34926441D01*
X91667649Y-34925361D01*
X91675000Y-34925000D01*
X91825000Y-34925000D01*
X91832351Y-34925361D01*
G37*
G04 #@! TD.AperFunction*
G04 #@! TA.AperFunction,SMDPad,CuDef*
G36*
X91332351Y-34925361D02*
G01*
X91339632Y-34926441D01*
X91346771Y-34928229D01*
X91353701Y-34930709D01*
X91360355Y-34933856D01*
X91366668Y-34937640D01*
X91372579Y-34942024D01*
X91378033Y-34946967D01*
X91382976Y-34952421D01*
X91387360Y-34958332D01*
X91391144Y-34964645D01*
X91394291Y-34971299D01*
X91396771Y-34978229D01*
X91398559Y-34985368D01*
X91399639Y-34992649D01*
X91400000Y-35000000D01*
X91400000Y-36325000D01*
X91399639Y-36332351D01*
X91398559Y-36339632D01*
X91396771Y-36346771D01*
X91394291Y-36353701D01*
X91391144Y-36360355D01*
X91387360Y-36366668D01*
X91382976Y-36372579D01*
X91378033Y-36378033D01*
X91372579Y-36382976D01*
X91366668Y-36387360D01*
X91360355Y-36391144D01*
X91353701Y-36394291D01*
X91346771Y-36396771D01*
X91339632Y-36398559D01*
X91332351Y-36399639D01*
X91325000Y-36400000D01*
X91175000Y-36400000D01*
X91167649Y-36399639D01*
X91160368Y-36398559D01*
X91153229Y-36396771D01*
X91146299Y-36394291D01*
X91139645Y-36391144D01*
X91133332Y-36387360D01*
X91127421Y-36382976D01*
X91121967Y-36378033D01*
X91117024Y-36372579D01*
X91112640Y-36366668D01*
X91108856Y-36360355D01*
X91105709Y-36353701D01*
X91103229Y-36346771D01*
X91101441Y-36339632D01*
X91100361Y-36332351D01*
X91100000Y-36325000D01*
X91100000Y-35000000D01*
X91100361Y-34992649D01*
X91101441Y-34985368D01*
X91103229Y-34978229D01*
X91105709Y-34971299D01*
X91108856Y-34964645D01*
X91112640Y-34958332D01*
X91117024Y-34952421D01*
X91121967Y-34946967D01*
X91127421Y-34942024D01*
X91133332Y-34937640D01*
X91139645Y-34933856D01*
X91146299Y-34930709D01*
X91153229Y-34928229D01*
X91160368Y-34926441D01*
X91167649Y-34925361D01*
X91175000Y-34925000D01*
X91325000Y-34925000D01*
X91332351Y-34925361D01*
G37*
G04 #@! TD.AperFunction*
G04 #@! TA.AperFunction,SMDPad,CuDef*
G36*
X90832351Y-34925361D02*
G01*
X90839632Y-34926441D01*
X90846771Y-34928229D01*
X90853701Y-34930709D01*
X90860355Y-34933856D01*
X90866668Y-34937640D01*
X90872579Y-34942024D01*
X90878033Y-34946967D01*
X90882976Y-34952421D01*
X90887360Y-34958332D01*
X90891144Y-34964645D01*
X90894291Y-34971299D01*
X90896771Y-34978229D01*
X90898559Y-34985368D01*
X90899639Y-34992649D01*
X90900000Y-35000000D01*
X90900000Y-36325000D01*
X90899639Y-36332351D01*
X90898559Y-36339632D01*
X90896771Y-36346771D01*
X90894291Y-36353701D01*
X90891144Y-36360355D01*
X90887360Y-36366668D01*
X90882976Y-36372579D01*
X90878033Y-36378033D01*
X90872579Y-36382976D01*
X90866668Y-36387360D01*
X90860355Y-36391144D01*
X90853701Y-36394291D01*
X90846771Y-36396771D01*
X90839632Y-36398559D01*
X90832351Y-36399639D01*
X90825000Y-36400000D01*
X90675000Y-36400000D01*
X90667649Y-36399639D01*
X90660368Y-36398559D01*
X90653229Y-36396771D01*
X90646299Y-36394291D01*
X90639645Y-36391144D01*
X90633332Y-36387360D01*
X90627421Y-36382976D01*
X90621967Y-36378033D01*
X90617024Y-36372579D01*
X90612640Y-36366668D01*
X90608856Y-36360355D01*
X90605709Y-36353701D01*
X90603229Y-36346771D01*
X90601441Y-36339632D01*
X90600361Y-36332351D01*
X90600000Y-36325000D01*
X90600000Y-35000000D01*
X90600361Y-34992649D01*
X90601441Y-34985368D01*
X90603229Y-34978229D01*
X90605709Y-34971299D01*
X90608856Y-34964645D01*
X90612640Y-34958332D01*
X90617024Y-34952421D01*
X90621967Y-34946967D01*
X90627421Y-34942024D01*
X90633332Y-34937640D01*
X90639645Y-34933856D01*
X90646299Y-34930709D01*
X90653229Y-34928229D01*
X90660368Y-34926441D01*
X90667649Y-34925361D01*
X90675000Y-34925000D01*
X90825000Y-34925000D01*
X90832351Y-34925361D01*
G37*
G04 #@! TD.AperFunction*
G04 #@! TA.AperFunction,SMDPad,CuDef*
G36*
X90332351Y-34925361D02*
G01*
X90339632Y-34926441D01*
X90346771Y-34928229D01*
X90353701Y-34930709D01*
X90360355Y-34933856D01*
X90366668Y-34937640D01*
X90372579Y-34942024D01*
X90378033Y-34946967D01*
X90382976Y-34952421D01*
X90387360Y-34958332D01*
X90391144Y-34964645D01*
X90394291Y-34971299D01*
X90396771Y-34978229D01*
X90398559Y-34985368D01*
X90399639Y-34992649D01*
X90400000Y-35000000D01*
X90400000Y-36325000D01*
X90399639Y-36332351D01*
X90398559Y-36339632D01*
X90396771Y-36346771D01*
X90394291Y-36353701D01*
X90391144Y-36360355D01*
X90387360Y-36366668D01*
X90382976Y-36372579D01*
X90378033Y-36378033D01*
X90372579Y-36382976D01*
X90366668Y-36387360D01*
X90360355Y-36391144D01*
X90353701Y-36394291D01*
X90346771Y-36396771D01*
X90339632Y-36398559D01*
X90332351Y-36399639D01*
X90325000Y-36400000D01*
X90175000Y-36400000D01*
X90167649Y-36399639D01*
X90160368Y-36398559D01*
X90153229Y-36396771D01*
X90146299Y-36394291D01*
X90139645Y-36391144D01*
X90133332Y-36387360D01*
X90127421Y-36382976D01*
X90121967Y-36378033D01*
X90117024Y-36372579D01*
X90112640Y-36366668D01*
X90108856Y-36360355D01*
X90105709Y-36353701D01*
X90103229Y-36346771D01*
X90101441Y-36339632D01*
X90100361Y-36332351D01*
X90100000Y-36325000D01*
X90100000Y-35000000D01*
X90100361Y-34992649D01*
X90101441Y-34985368D01*
X90103229Y-34978229D01*
X90105709Y-34971299D01*
X90108856Y-34964645D01*
X90112640Y-34958332D01*
X90117024Y-34952421D01*
X90121967Y-34946967D01*
X90127421Y-34942024D01*
X90133332Y-34937640D01*
X90139645Y-34933856D01*
X90146299Y-34930709D01*
X90153229Y-34928229D01*
X90160368Y-34926441D01*
X90167649Y-34925361D01*
X90175000Y-34925000D01*
X90325000Y-34925000D01*
X90332351Y-34925361D01*
G37*
G04 #@! TD.AperFunction*
G04 #@! TA.AperFunction,SMDPad,CuDef*
G36*
X89832351Y-34925361D02*
G01*
X89839632Y-34926441D01*
X89846771Y-34928229D01*
X89853701Y-34930709D01*
X89860355Y-34933856D01*
X89866668Y-34937640D01*
X89872579Y-34942024D01*
X89878033Y-34946967D01*
X89882976Y-34952421D01*
X89887360Y-34958332D01*
X89891144Y-34964645D01*
X89894291Y-34971299D01*
X89896771Y-34978229D01*
X89898559Y-34985368D01*
X89899639Y-34992649D01*
X89900000Y-35000000D01*
X89900000Y-36325000D01*
X89899639Y-36332351D01*
X89898559Y-36339632D01*
X89896771Y-36346771D01*
X89894291Y-36353701D01*
X89891144Y-36360355D01*
X89887360Y-36366668D01*
X89882976Y-36372579D01*
X89878033Y-36378033D01*
X89872579Y-36382976D01*
X89866668Y-36387360D01*
X89860355Y-36391144D01*
X89853701Y-36394291D01*
X89846771Y-36396771D01*
X89839632Y-36398559D01*
X89832351Y-36399639D01*
X89825000Y-36400000D01*
X89675000Y-36400000D01*
X89667649Y-36399639D01*
X89660368Y-36398559D01*
X89653229Y-36396771D01*
X89646299Y-36394291D01*
X89639645Y-36391144D01*
X89633332Y-36387360D01*
X89627421Y-36382976D01*
X89621967Y-36378033D01*
X89617024Y-36372579D01*
X89612640Y-36366668D01*
X89608856Y-36360355D01*
X89605709Y-36353701D01*
X89603229Y-36346771D01*
X89601441Y-36339632D01*
X89600361Y-36332351D01*
X89600000Y-36325000D01*
X89600000Y-35000000D01*
X89600361Y-34992649D01*
X89601441Y-34985368D01*
X89603229Y-34978229D01*
X89605709Y-34971299D01*
X89608856Y-34964645D01*
X89612640Y-34958332D01*
X89617024Y-34952421D01*
X89621967Y-34946967D01*
X89627421Y-34942024D01*
X89633332Y-34937640D01*
X89639645Y-34933856D01*
X89646299Y-34930709D01*
X89653229Y-34928229D01*
X89660368Y-34926441D01*
X89667649Y-34925361D01*
X89675000Y-34925000D01*
X89825000Y-34925000D01*
X89832351Y-34925361D01*
G37*
G04 #@! TD.AperFunction*
G04 #@! TA.AperFunction,SMDPad,CuDef*
G36*
X89332351Y-34925361D02*
G01*
X89339632Y-34926441D01*
X89346771Y-34928229D01*
X89353701Y-34930709D01*
X89360355Y-34933856D01*
X89366668Y-34937640D01*
X89372579Y-34942024D01*
X89378033Y-34946967D01*
X89382976Y-34952421D01*
X89387360Y-34958332D01*
X89391144Y-34964645D01*
X89394291Y-34971299D01*
X89396771Y-34978229D01*
X89398559Y-34985368D01*
X89399639Y-34992649D01*
X89400000Y-35000000D01*
X89400000Y-36325000D01*
X89399639Y-36332351D01*
X89398559Y-36339632D01*
X89396771Y-36346771D01*
X89394291Y-36353701D01*
X89391144Y-36360355D01*
X89387360Y-36366668D01*
X89382976Y-36372579D01*
X89378033Y-36378033D01*
X89372579Y-36382976D01*
X89366668Y-36387360D01*
X89360355Y-36391144D01*
X89353701Y-36394291D01*
X89346771Y-36396771D01*
X89339632Y-36398559D01*
X89332351Y-36399639D01*
X89325000Y-36400000D01*
X89175000Y-36400000D01*
X89167649Y-36399639D01*
X89160368Y-36398559D01*
X89153229Y-36396771D01*
X89146299Y-36394291D01*
X89139645Y-36391144D01*
X89133332Y-36387360D01*
X89127421Y-36382976D01*
X89121967Y-36378033D01*
X89117024Y-36372579D01*
X89112640Y-36366668D01*
X89108856Y-36360355D01*
X89105709Y-36353701D01*
X89103229Y-36346771D01*
X89101441Y-36339632D01*
X89100361Y-36332351D01*
X89100000Y-36325000D01*
X89100000Y-35000000D01*
X89100361Y-34992649D01*
X89101441Y-34985368D01*
X89103229Y-34978229D01*
X89105709Y-34971299D01*
X89108856Y-34964645D01*
X89112640Y-34958332D01*
X89117024Y-34952421D01*
X89121967Y-34946967D01*
X89127421Y-34942024D01*
X89133332Y-34937640D01*
X89139645Y-34933856D01*
X89146299Y-34930709D01*
X89153229Y-34928229D01*
X89160368Y-34926441D01*
X89167649Y-34925361D01*
X89175000Y-34925000D01*
X89325000Y-34925000D01*
X89332351Y-34925361D01*
G37*
G04 #@! TD.AperFunction*
G04 #@! TA.AperFunction,SMDPad,CuDef*
G36*
X88832351Y-34925361D02*
G01*
X88839632Y-34926441D01*
X88846771Y-34928229D01*
X88853701Y-34930709D01*
X88860355Y-34933856D01*
X88866668Y-34937640D01*
X88872579Y-34942024D01*
X88878033Y-34946967D01*
X88882976Y-34952421D01*
X88887360Y-34958332D01*
X88891144Y-34964645D01*
X88894291Y-34971299D01*
X88896771Y-34978229D01*
X88898559Y-34985368D01*
X88899639Y-34992649D01*
X88900000Y-35000000D01*
X88900000Y-36325000D01*
X88899639Y-36332351D01*
X88898559Y-36339632D01*
X88896771Y-36346771D01*
X88894291Y-36353701D01*
X88891144Y-36360355D01*
X88887360Y-36366668D01*
X88882976Y-36372579D01*
X88878033Y-36378033D01*
X88872579Y-36382976D01*
X88866668Y-36387360D01*
X88860355Y-36391144D01*
X88853701Y-36394291D01*
X88846771Y-36396771D01*
X88839632Y-36398559D01*
X88832351Y-36399639D01*
X88825000Y-36400000D01*
X88675000Y-36400000D01*
X88667649Y-36399639D01*
X88660368Y-36398559D01*
X88653229Y-36396771D01*
X88646299Y-36394291D01*
X88639645Y-36391144D01*
X88633332Y-36387360D01*
X88627421Y-36382976D01*
X88621967Y-36378033D01*
X88617024Y-36372579D01*
X88612640Y-36366668D01*
X88608856Y-36360355D01*
X88605709Y-36353701D01*
X88603229Y-36346771D01*
X88601441Y-36339632D01*
X88600361Y-36332351D01*
X88600000Y-36325000D01*
X88600000Y-35000000D01*
X88600361Y-34992649D01*
X88601441Y-34985368D01*
X88603229Y-34978229D01*
X88605709Y-34971299D01*
X88608856Y-34964645D01*
X88612640Y-34958332D01*
X88617024Y-34952421D01*
X88621967Y-34946967D01*
X88627421Y-34942024D01*
X88633332Y-34937640D01*
X88639645Y-34933856D01*
X88646299Y-34930709D01*
X88653229Y-34928229D01*
X88660368Y-34926441D01*
X88667649Y-34925361D01*
X88675000Y-34925000D01*
X88825000Y-34925000D01*
X88832351Y-34925361D01*
G37*
G04 #@! TD.AperFunction*
G04 #@! TA.AperFunction,SMDPad,CuDef*
G36*
X88332351Y-34925361D02*
G01*
X88339632Y-34926441D01*
X88346771Y-34928229D01*
X88353701Y-34930709D01*
X88360355Y-34933856D01*
X88366668Y-34937640D01*
X88372579Y-34942024D01*
X88378033Y-34946967D01*
X88382976Y-34952421D01*
X88387360Y-34958332D01*
X88391144Y-34964645D01*
X88394291Y-34971299D01*
X88396771Y-34978229D01*
X88398559Y-34985368D01*
X88399639Y-34992649D01*
X88400000Y-35000000D01*
X88400000Y-36325000D01*
X88399639Y-36332351D01*
X88398559Y-36339632D01*
X88396771Y-36346771D01*
X88394291Y-36353701D01*
X88391144Y-36360355D01*
X88387360Y-36366668D01*
X88382976Y-36372579D01*
X88378033Y-36378033D01*
X88372579Y-36382976D01*
X88366668Y-36387360D01*
X88360355Y-36391144D01*
X88353701Y-36394291D01*
X88346771Y-36396771D01*
X88339632Y-36398559D01*
X88332351Y-36399639D01*
X88325000Y-36400000D01*
X88175000Y-36400000D01*
X88167649Y-36399639D01*
X88160368Y-36398559D01*
X88153229Y-36396771D01*
X88146299Y-36394291D01*
X88139645Y-36391144D01*
X88133332Y-36387360D01*
X88127421Y-36382976D01*
X88121967Y-36378033D01*
X88117024Y-36372579D01*
X88112640Y-36366668D01*
X88108856Y-36360355D01*
X88105709Y-36353701D01*
X88103229Y-36346771D01*
X88101441Y-36339632D01*
X88100361Y-36332351D01*
X88100000Y-36325000D01*
X88100000Y-35000000D01*
X88100361Y-34992649D01*
X88101441Y-34985368D01*
X88103229Y-34978229D01*
X88105709Y-34971299D01*
X88108856Y-34964645D01*
X88112640Y-34958332D01*
X88117024Y-34952421D01*
X88121967Y-34946967D01*
X88127421Y-34942024D01*
X88133332Y-34937640D01*
X88139645Y-34933856D01*
X88146299Y-34930709D01*
X88153229Y-34928229D01*
X88160368Y-34926441D01*
X88167649Y-34925361D01*
X88175000Y-34925000D01*
X88325000Y-34925000D01*
X88332351Y-34925361D01*
G37*
G04 #@! TD.AperFunction*
G04 #@! TA.AperFunction,SMDPad,CuDef*
G36*
X87832351Y-34925361D02*
G01*
X87839632Y-34926441D01*
X87846771Y-34928229D01*
X87853701Y-34930709D01*
X87860355Y-34933856D01*
X87866668Y-34937640D01*
X87872579Y-34942024D01*
X87878033Y-34946967D01*
X87882976Y-34952421D01*
X87887360Y-34958332D01*
X87891144Y-34964645D01*
X87894291Y-34971299D01*
X87896771Y-34978229D01*
X87898559Y-34985368D01*
X87899639Y-34992649D01*
X87900000Y-35000000D01*
X87900000Y-36325000D01*
X87899639Y-36332351D01*
X87898559Y-36339632D01*
X87896771Y-36346771D01*
X87894291Y-36353701D01*
X87891144Y-36360355D01*
X87887360Y-36366668D01*
X87882976Y-36372579D01*
X87878033Y-36378033D01*
X87872579Y-36382976D01*
X87866668Y-36387360D01*
X87860355Y-36391144D01*
X87853701Y-36394291D01*
X87846771Y-36396771D01*
X87839632Y-36398559D01*
X87832351Y-36399639D01*
X87825000Y-36400000D01*
X87675000Y-36400000D01*
X87667649Y-36399639D01*
X87660368Y-36398559D01*
X87653229Y-36396771D01*
X87646299Y-36394291D01*
X87639645Y-36391144D01*
X87633332Y-36387360D01*
X87627421Y-36382976D01*
X87621967Y-36378033D01*
X87617024Y-36372579D01*
X87612640Y-36366668D01*
X87608856Y-36360355D01*
X87605709Y-36353701D01*
X87603229Y-36346771D01*
X87601441Y-36339632D01*
X87600361Y-36332351D01*
X87600000Y-36325000D01*
X87600000Y-35000000D01*
X87600361Y-34992649D01*
X87601441Y-34985368D01*
X87603229Y-34978229D01*
X87605709Y-34971299D01*
X87608856Y-34964645D01*
X87612640Y-34958332D01*
X87617024Y-34952421D01*
X87621967Y-34946967D01*
X87627421Y-34942024D01*
X87633332Y-34937640D01*
X87639645Y-34933856D01*
X87646299Y-34930709D01*
X87653229Y-34928229D01*
X87660368Y-34926441D01*
X87667649Y-34925361D01*
X87675000Y-34925000D01*
X87825000Y-34925000D01*
X87832351Y-34925361D01*
G37*
G04 #@! TD.AperFunction*
G04 #@! TA.AperFunction,SMDPad,CuDef*
G36*
X87332351Y-34925361D02*
G01*
X87339632Y-34926441D01*
X87346771Y-34928229D01*
X87353701Y-34930709D01*
X87360355Y-34933856D01*
X87366668Y-34937640D01*
X87372579Y-34942024D01*
X87378033Y-34946967D01*
X87382976Y-34952421D01*
X87387360Y-34958332D01*
X87391144Y-34964645D01*
X87394291Y-34971299D01*
X87396771Y-34978229D01*
X87398559Y-34985368D01*
X87399639Y-34992649D01*
X87400000Y-35000000D01*
X87400000Y-36325000D01*
X87399639Y-36332351D01*
X87398559Y-36339632D01*
X87396771Y-36346771D01*
X87394291Y-36353701D01*
X87391144Y-36360355D01*
X87387360Y-36366668D01*
X87382976Y-36372579D01*
X87378033Y-36378033D01*
X87372579Y-36382976D01*
X87366668Y-36387360D01*
X87360355Y-36391144D01*
X87353701Y-36394291D01*
X87346771Y-36396771D01*
X87339632Y-36398559D01*
X87332351Y-36399639D01*
X87325000Y-36400000D01*
X87175000Y-36400000D01*
X87167649Y-36399639D01*
X87160368Y-36398559D01*
X87153229Y-36396771D01*
X87146299Y-36394291D01*
X87139645Y-36391144D01*
X87133332Y-36387360D01*
X87127421Y-36382976D01*
X87121967Y-36378033D01*
X87117024Y-36372579D01*
X87112640Y-36366668D01*
X87108856Y-36360355D01*
X87105709Y-36353701D01*
X87103229Y-36346771D01*
X87101441Y-36339632D01*
X87100361Y-36332351D01*
X87100000Y-36325000D01*
X87100000Y-35000000D01*
X87100361Y-34992649D01*
X87101441Y-34985368D01*
X87103229Y-34978229D01*
X87105709Y-34971299D01*
X87108856Y-34964645D01*
X87112640Y-34958332D01*
X87117024Y-34952421D01*
X87121967Y-34946967D01*
X87127421Y-34942024D01*
X87133332Y-34937640D01*
X87139645Y-34933856D01*
X87146299Y-34930709D01*
X87153229Y-34928229D01*
X87160368Y-34926441D01*
X87167649Y-34925361D01*
X87175000Y-34925000D01*
X87325000Y-34925000D01*
X87332351Y-34925361D01*
G37*
G04 #@! TD.AperFunction*
G04 #@! TA.AperFunction,SMDPad,CuDef*
G36*
X86507351Y-34100361D02*
G01*
X86514632Y-34101441D01*
X86521771Y-34103229D01*
X86528701Y-34105709D01*
X86535355Y-34108856D01*
X86541668Y-34112640D01*
X86547579Y-34117024D01*
X86553033Y-34121967D01*
X86557976Y-34127421D01*
X86562360Y-34133332D01*
X86566144Y-34139645D01*
X86569291Y-34146299D01*
X86571771Y-34153229D01*
X86573559Y-34160368D01*
X86574639Y-34167649D01*
X86575000Y-34175000D01*
X86575000Y-34325000D01*
X86574639Y-34332351D01*
X86573559Y-34339632D01*
X86571771Y-34346771D01*
X86569291Y-34353701D01*
X86566144Y-34360355D01*
X86562360Y-34366668D01*
X86557976Y-34372579D01*
X86553033Y-34378033D01*
X86547579Y-34382976D01*
X86541668Y-34387360D01*
X86535355Y-34391144D01*
X86528701Y-34394291D01*
X86521771Y-34396771D01*
X86514632Y-34398559D01*
X86507351Y-34399639D01*
X86500000Y-34400000D01*
X85175000Y-34400000D01*
X85167649Y-34399639D01*
X85160368Y-34398559D01*
X85153229Y-34396771D01*
X85146299Y-34394291D01*
X85139645Y-34391144D01*
X85133332Y-34387360D01*
X85127421Y-34382976D01*
X85121967Y-34378033D01*
X85117024Y-34372579D01*
X85112640Y-34366668D01*
X85108856Y-34360355D01*
X85105709Y-34353701D01*
X85103229Y-34346771D01*
X85101441Y-34339632D01*
X85100361Y-34332351D01*
X85100000Y-34325000D01*
X85100000Y-34175000D01*
X85100361Y-34167649D01*
X85101441Y-34160368D01*
X85103229Y-34153229D01*
X85105709Y-34146299D01*
X85108856Y-34139645D01*
X85112640Y-34133332D01*
X85117024Y-34127421D01*
X85121967Y-34121967D01*
X85127421Y-34117024D01*
X85133332Y-34112640D01*
X85139645Y-34108856D01*
X85146299Y-34105709D01*
X85153229Y-34103229D01*
X85160368Y-34101441D01*
X85167649Y-34100361D01*
X85175000Y-34100000D01*
X86500000Y-34100000D01*
X86507351Y-34100361D01*
G37*
G04 #@! TD.AperFunction*
G04 #@! TA.AperFunction,SMDPad,CuDef*
G36*
X86507351Y-33600361D02*
G01*
X86514632Y-33601441D01*
X86521771Y-33603229D01*
X86528701Y-33605709D01*
X86535355Y-33608856D01*
X86541668Y-33612640D01*
X86547579Y-33617024D01*
X86553033Y-33621967D01*
X86557976Y-33627421D01*
X86562360Y-33633332D01*
X86566144Y-33639645D01*
X86569291Y-33646299D01*
X86571771Y-33653229D01*
X86573559Y-33660368D01*
X86574639Y-33667649D01*
X86575000Y-33675000D01*
X86575000Y-33825000D01*
X86574639Y-33832351D01*
X86573559Y-33839632D01*
X86571771Y-33846771D01*
X86569291Y-33853701D01*
X86566144Y-33860355D01*
X86562360Y-33866668D01*
X86557976Y-33872579D01*
X86553033Y-33878033D01*
X86547579Y-33882976D01*
X86541668Y-33887360D01*
X86535355Y-33891144D01*
X86528701Y-33894291D01*
X86521771Y-33896771D01*
X86514632Y-33898559D01*
X86507351Y-33899639D01*
X86500000Y-33900000D01*
X85175000Y-33900000D01*
X85167649Y-33899639D01*
X85160368Y-33898559D01*
X85153229Y-33896771D01*
X85146299Y-33894291D01*
X85139645Y-33891144D01*
X85133332Y-33887360D01*
X85127421Y-33882976D01*
X85121967Y-33878033D01*
X85117024Y-33872579D01*
X85112640Y-33866668D01*
X85108856Y-33860355D01*
X85105709Y-33853701D01*
X85103229Y-33846771D01*
X85101441Y-33839632D01*
X85100361Y-33832351D01*
X85100000Y-33825000D01*
X85100000Y-33675000D01*
X85100361Y-33667649D01*
X85101441Y-33660368D01*
X85103229Y-33653229D01*
X85105709Y-33646299D01*
X85108856Y-33639645D01*
X85112640Y-33633332D01*
X85117024Y-33627421D01*
X85121967Y-33621967D01*
X85127421Y-33617024D01*
X85133332Y-33612640D01*
X85139645Y-33608856D01*
X85146299Y-33605709D01*
X85153229Y-33603229D01*
X85160368Y-33601441D01*
X85167649Y-33600361D01*
X85175000Y-33600000D01*
X86500000Y-33600000D01*
X86507351Y-33600361D01*
G37*
G04 #@! TD.AperFunction*
G04 #@! TA.AperFunction,SMDPad,CuDef*
G36*
X86507351Y-33100361D02*
G01*
X86514632Y-33101441D01*
X86521771Y-33103229D01*
X86528701Y-33105709D01*
X86535355Y-33108856D01*
X86541668Y-33112640D01*
X86547579Y-33117024D01*
X86553033Y-33121967D01*
X86557976Y-33127421D01*
X86562360Y-33133332D01*
X86566144Y-33139645D01*
X86569291Y-33146299D01*
X86571771Y-33153229D01*
X86573559Y-33160368D01*
X86574639Y-33167649D01*
X86575000Y-33175000D01*
X86575000Y-33325000D01*
X86574639Y-33332351D01*
X86573559Y-33339632D01*
X86571771Y-33346771D01*
X86569291Y-33353701D01*
X86566144Y-33360355D01*
X86562360Y-33366668D01*
X86557976Y-33372579D01*
X86553033Y-33378033D01*
X86547579Y-33382976D01*
X86541668Y-33387360D01*
X86535355Y-33391144D01*
X86528701Y-33394291D01*
X86521771Y-33396771D01*
X86514632Y-33398559D01*
X86507351Y-33399639D01*
X86500000Y-33400000D01*
X85175000Y-33400000D01*
X85167649Y-33399639D01*
X85160368Y-33398559D01*
X85153229Y-33396771D01*
X85146299Y-33394291D01*
X85139645Y-33391144D01*
X85133332Y-33387360D01*
X85127421Y-33382976D01*
X85121967Y-33378033D01*
X85117024Y-33372579D01*
X85112640Y-33366668D01*
X85108856Y-33360355D01*
X85105709Y-33353701D01*
X85103229Y-33346771D01*
X85101441Y-33339632D01*
X85100361Y-33332351D01*
X85100000Y-33325000D01*
X85100000Y-33175000D01*
X85100361Y-33167649D01*
X85101441Y-33160368D01*
X85103229Y-33153229D01*
X85105709Y-33146299D01*
X85108856Y-33139645D01*
X85112640Y-33133332D01*
X85117024Y-33127421D01*
X85121967Y-33121967D01*
X85127421Y-33117024D01*
X85133332Y-33112640D01*
X85139645Y-33108856D01*
X85146299Y-33105709D01*
X85153229Y-33103229D01*
X85160368Y-33101441D01*
X85167649Y-33100361D01*
X85175000Y-33100000D01*
X86500000Y-33100000D01*
X86507351Y-33100361D01*
G37*
G04 #@! TD.AperFunction*
G04 #@! TA.AperFunction,SMDPad,CuDef*
G36*
X86507351Y-32600361D02*
G01*
X86514632Y-32601441D01*
X86521771Y-32603229D01*
X86528701Y-32605709D01*
X86535355Y-32608856D01*
X86541668Y-32612640D01*
X86547579Y-32617024D01*
X86553033Y-32621967D01*
X86557976Y-32627421D01*
X86562360Y-32633332D01*
X86566144Y-32639645D01*
X86569291Y-32646299D01*
X86571771Y-32653229D01*
X86573559Y-32660368D01*
X86574639Y-32667649D01*
X86575000Y-32675000D01*
X86575000Y-32825000D01*
X86574639Y-32832351D01*
X86573559Y-32839632D01*
X86571771Y-32846771D01*
X86569291Y-32853701D01*
X86566144Y-32860355D01*
X86562360Y-32866668D01*
X86557976Y-32872579D01*
X86553033Y-32878033D01*
X86547579Y-32882976D01*
X86541668Y-32887360D01*
X86535355Y-32891144D01*
X86528701Y-32894291D01*
X86521771Y-32896771D01*
X86514632Y-32898559D01*
X86507351Y-32899639D01*
X86500000Y-32900000D01*
X85175000Y-32900000D01*
X85167649Y-32899639D01*
X85160368Y-32898559D01*
X85153229Y-32896771D01*
X85146299Y-32894291D01*
X85139645Y-32891144D01*
X85133332Y-32887360D01*
X85127421Y-32882976D01*
X85121967Y-32878033D01*
X85117024Y-32872579D01*
X85112640Y-32866668D01*
X85108856Y-32860355D01*
X85105709Y-32853701D01*
X85103229Y-32846771D01*
X85101441Y-32839632D01*
X85100361Y-32832351D01*
X85100000Y-32825000D01*
X85100000Y-32675000D01*
X85100361Y-32667649D01*
X85101441Y-32660368D01*
X85103229Y-32653229D01*
X85105709Y-32646299D01*
X85108856Y-32639645D01*
X85112640Y-32633332D01*
X85117024Y-32627421D01*
X85121967Y-32621967D01*
X85127421Y-32617024D01*
X85133332Y-32612640D01*
X85139645Y-32608856D01*
X85146299Y-32605709D01*
X85153229Y-32603229D01*
X85160368Y-32601441D01*
X85167649Y-32600361D01*
X85175000Y-32600000D01*
X86500000Y-32600000D01*
X86507351Y-32600361D01*
G37*
G04 #@! TD.AperFunction*
G04 #@! TA.AperFunction,SMDPad,CuDef*
G36*
X86507351Y-32100361D02*
G01*
X86514632Y-32101441D01*
X86521771Y-32103229D01*
X86528701Y-32105709D01*
X86535355Y-32108856D01*
X86541668Y-32112640D01*
X86547579Y-32117024D01*
X86553033Y-32121967D01*
X86557976Y-32127421D01*
X86562360Y-32133332D01*
X86566144Y-32139645D01*
X86569291Y-32146299D01*
X86571771Y-32153229D01*
X86573559Y-32160368D01*
X86574639Y-32167649D01*
X86575000Y-32175000D01*
X86575000Y-32325000D01*
X86574639Y-32332351D01*
X86573559Y-32339632D01*
X86571771Y-32346771D01*
X86569291Y-32353701D01*
X86566144Y-32360355D01*
X86562360Y-32366668D01*
X86557976Y-32372579D01*
X86553033Y-32378033D01*
X86547579Y-32382976D01*
X86541668Y-32387360D01*
X86535355Y-32391144D01*
X86528701Y-32394291D01*
X86521771Y-32396771D01*
X86514632Y-32398559D01*
X86507351Y-32399639D01*
X86500000Y-32400000D01*
X85175000Y-32400000D01*
X85167649Y-32399639D01*
X85160368Y-32398559D01*
X85153229Y-32396771D01*
X85146299Y-32394291D01*
X85139645Y-32391144D01*
X85133332Y-32387360D01*
X85127421Y-32382976D01*
X85121967Y-32378033D01*
X85117024Y-32372579D01*
X85112640Y-32366668D01*
X85108856Y-32360355D01*
X85105709Y-32353701D01*
X85103229Y-32346771D01*
X85101441Y-32339632D01*
X85100361Y-32332351D01*
X85100000Y-32325000D01*
X85100000Y-32175000D01*
X85100361Y-32167649D01*
X85101441Y-32160368D01*
X85103229Y-32153229D01*
X85105709Y-32146299D01*
X85108856Y-32139645D01*
X85112640Y-32133332D01*
X85117024Y-32127421D01*
X85121967Y-32121967D01*
X85127421Y-32117024D01*
X85133332Y-32112640D01*
X85139645Y-32108856D01*
X85146299Y-32105709D01*
X85153229Y-32103229D01*
X85160368Y-32101441D01*
X85167649Y-32100361D01*
X85175000Y-32100000D01*
X86500000Y-32100000D01*
X86507351Y-32100361D01*
G37*
G04 #@! TD.AperFunction*
G04 #@! TA.AperFunction,SMDPad,CuDef*
G36*
X86507351Y-31600361D02*
G01*
X86514632Y-31601441D01*
X86521771Y-31603229D01*
X86528701Y-31605709D01*
X86535355Y-31608856D01*
X86541668Y-31612640D01*
X86547579Y-31617024D01*
X86553033Y-31621967D01*
X86557976Y-31627421D01*
X86562360Y-31633332D01*
X86566144Y-31639645D01*
X86569291Y-31646299D01*
X86571771Y-31653229D01*
X86573559Y-31660368D01*
X86574639Y-31667649D01*
X86575000Y-31675000D01*
X86575000Y-31825000D01*
X86574639Y-31832351D01*
X86573559Y-31839632D01*
X86571771Y-31846771D01*
X86569291Y-31853701D01*
X86566144Y-31860355D01*
X86562360Y-31866668D01*
X86557976Y-31872579D01*
X86553033Y-31878033D01*
X86547579Y-31882976D01*
X86541668Y-31887360D01*
X86535355Y-31891144D01*
X86528701Y-31894291D01*
X86521771Y-31896771D01*
X86514632Y-31898559D01*
X86507351Y-31899639D01*
X86500000Y-31900000D01*
X85175000Y-31900000D01*
X85167649Y-31899639D01*
X85160368Y-31898559D01*
X85153229Y-31896771D01*
X85146299Y-31894291D01*
X85139645Y-31891144D01*
X85133332Y-31887360D01*
X85127421Y-31882976D01*
X85121967Y-31878033D01*
X85117024Y-31872579D01*
X85112640Y-31866668D01*
X85108856Y-31860355D01*
X85105709Y-31853701D01*
X85103229Y-31846771D01*
X85101441Y-31839632D01*
X85100361Y-31832351D01*
X85100000Y-31825000D01*
X85100000Y-31675000D01*
X85100361Y-31667649D01*
X85101441Y-31660368D01*
X85103229Y-31653229D01*
X85105709Y-31646299D01*
X85108856Y-31639645D01*
X85112640Y-31633332D01*
X85117024Y-31627421D01*
X85121967Y-31621967D01*
X85127421Y-31617024D01*
X85133332Y-31612640D01*
X85139645Y-31608856D01*
X85146299Y-31605709D01*
X85153229Y-31603229D01*
X85160368Y-31601441D01*
X85167649Y-31600361D01*
X85175000Y-31600000D01*
X86500000Y-31600000D01*
X86507351Y-31600361D01*
G37*
G04 #@! TD.AperFunction*
G04 #@! TA.AperFunction,SMDPad,CuDef*
G36*
X86507351Y-31100361D02*
G01*
X86514632Y-31101441D01*
X86521771Y-31103229D01*
X86528701Y-31105709D01*
X86535355Y-31108856D01*
X86541668Y-31112640D01*
X86547579Y-31117024D01*
X86553033Y-31121967D01*
X86557976Y-31127421D01*
X86562360Y-31133332D01*
X86566144Y-31139645D01*
X86569291Y-31146299D01*
X86571771Y-31153229D01*
X86573559Y-31160368D01*
X86574639Y-31167649D01*
X86575000Y-31175000D01*
X86575000Y-31325000D01*
X86574639Y-31332351D01*
X86573559Y-31339632D01*
X86571771Y-31346771D01*
X86569291Y-31353701D01*
X86566144Y-31360355D01*
X86562360Y-31366668D01*
X86557976Y-31372579D01*
X86553033Y-31378033D01*
X86547579Y-31382976D01*
X86541668Y-31387360D01*
X86535355Y-31391144D01*
X86528701Y-31394291D01*
X86521771Y-31396771D01*
X86514632Y-31398559D01*
X86507351Y-31399639D01*
X86500000Y-31400000D01*
X85175000Y-31400000D01*
X85167649Y-31399639D01*
X85160368Y-31398559D01*
X85153229Y-31396771D01*
X85146299Y-31394291D01*
X85139645Y-31391144D01*
X85133332Y-31387360D01*
X85127421Y-31382976D01*
X85121967Y-31378033D01*
X85117024Y-31372579D01*
X85112640Y-31366668D01*
X85108856Y-31360355D01*
X85105709Y-31353701D01*
X85103229Y-31346771D01*
X85101441Y-31339632D01*
X85100361Y-31332351D01*
X85100000Y-31325000D01*
X85100000Y-31175000D01*
X85100361Y-31167649D01*
X85101441Y-31160368D01*
X85103229Y-31153229D01*
X85105709Y-31146299D01*
X85108856Y-31139645D01*
X85112640Y-31133332D01*
X85117024Y-31127421D01*
X85121967Y-31121967D01*
X85127421Y-31117024D01*
X85133332Y-31112640D01*
X85139645Y-31108856D01*
X85146299Y-31105709D01*
X85153229Y-31103229D01*
X85160368Y-31101441D01*
X85167649Y-31100361D01*
X85175000Y-31100000D01*
X86500000Y-31100000D01*
X86507351Y-31100361D01*
G37*
G04 #@! TD.AperFunction*
G04 #@! TA.AperFunction,SMDPad,CuDef*
G36*
X86507351Y-30600361D02*
G01*
X86514632Y-30601441D01*
X86521771Y-30603229D01*
X86528701Y-30605709D01*
X86535355Y-30608856D01*
X86541668Y-30612640D01*
X86547579Y-30617024D01*
X86553033Y-30621967D01*
X86557976Y-30627421D01*
X86562360Y-30633332D01*
X86566144Y-30639645D01*
X86569291Y-30646299D01*
X86571771Y-30653229D01*
X86573559Y-30660368D01*
X86574639Y-30667649D01*
X86575000Y-30675000D01*
X86575000Y-30825000D01*
X86574639Y-30832351D01*
X86573559Y-30839632D01*
X86571771Y-30846771D01*
X86569291Y-30853701D01*
X86566144Y-30860355D01*
X86562360Y-30866668D01*
X86557976Y-30872579D01*
X86553033Y-30878033D01*
X86547579Y-30882976D01*
X86541668Y-30887360D01*
X86535355Y-30891144D01*
X86528701Y-30894291D01*
X86521771Y-30896771D01*
X86514632Y-30898559D01*
X86507351Y-30899639D01*
X86500000Y-30900000D01*
X85175000Y-30900000D01*
X85167649Y-30899639D01*
X85160368Y-30898559D01*
X85153229Y-30896771D01*
X85146299Y-30894291D01*
X85139645Y-30891144D01*
X85133332Y-30887360D01*
X85127421Y-30882976D01*
X85121967Y-30878033D01*
X85117024Y-30872579D01*
X85112640Y-30866668D01*
X85108856Y-30860355D01*
X85105709Y-30853701D01*
X85103229Y-30846771D01*
X85101441Y-30839632D01*
X85100361Y-30832351D01*
X85100000Y-30825000D01*
X85100000Y-30675000D01*
X85100361Y-30667649D01*
X85101441Y-30660368D01*
X85103229Y-30653229D01*
X85105709Y-30646299D01*
X85108856Y-30639645D01*
X85112640Y-30633332D01*
X85117024Y-30627421D01*
X85121967Y-30621967D01*
X85127421Y-30617024D01*
X85133332Y-30612640D01*
X85139645Y-30608856D01*
X85146299Y-30605709D01*
X85153229Y-30603229D01*
X85160368Y-30601441D01*
X85167649Y-30600361D01*
X85175000Y-30600000D01*
X86500000Y-30600000D01*
X86507351Y-30600361D01*
G37*
G04 #@! TD.AperFunction*
G04 #@! TA.AperFunction,SMDPad,CuDef*
G36*
X86507351Y-30100361D02*
G01*
X86514632Y-30101441D01*
X86521771Y-30103229D01*
X86528701Y-30105709D01*
X86535355Y-30108856D01*
X86541668Y-30112640D01*
X86547579Y-30117024D01*
X86553033Y-30121967D01*
X86557976Y-30127421D01*
X86562360Y-30133332D01*
X86566144Y-30139645D01*
X86569291Y-30146299D01*
X86571771Y-30153229D01*
X86573559Y-30160368D01*
X86574639Y-30167649D01*
X86575000Y-30175000D01*
X86575000Y-30325000D01*
X86574639Y-30332351D01*
X86573559Y-30339632D01*
X86571771Y-30346771D01*
X86569291Y-30353701D01*
X86566144Y-30360355D01*
X86562360Y-30366668D01*
X86557976Y-30372579D01*
X86553033Y-30378033D01*
X86547579Y-30382976D01*
X86541668Y-30387360D01*
X86535355Y-30391144D01*
X86528701Y-30394291D01*
X86521771Y-30396771D01*
X86514632Y-30398559D01*
X86507351Y-30399639D01*
X86500000Y-30400000D01*
X85175000Y-30400000D01*
X85167649Y-30399639D01*
X85160368Y-30398559D01*
X85153229Y-30396771D01*
X85146299Y-30394291D01*
X85139645Y-30391144D01*
X85133332Y-30387360D01*
X85127421Y-30382976D01*
X85121967Y-30378033D01*
X85117024Y-30372579D01*
X85112640Y-30366668D01*
X85108856Y-30360355D01*
X85105709Y-30353701D01*
X85103229Y-30346771D01*
X85101441Y-30339632D01*
X85100361Y-30332351D01*
X85100000Y-30325000D01*
X85100000Y-30175000D01*
X85100361Y-30167649D01*
X85101441Y-30160368D01*
X85103229Y-30153229D01*
X85105709Y-30146299D01*
X85108856Y-30139645D01*
X85112640Y-30133332D01*
X85117024Y-30127421D01*
X85121967Y-30121967D01*
X85127421Y-30117024D01*
X85133332Y-30112640D01*
X85139645Y-30108856D01*
X85146299Y-30105709D01*
X85153229Y-30103229D01*
X85160368Y-30101441D01*
X85167649Y-30100361D01*
X85175000Y-30100000D01*
X86500000Y-30100000D01*
X86507351Y-30100361D01*
G37*
G04 #@! TD.AperFunction*
G04 #@! TA.AperFunction,SMDPad,CuDef*
G36*
X86507351Y-29600361D02*
G01*
X86514632Y-29601441D01*
X86521771Y-29603229D01*
X86528701Y-29605709D01*
X86535355Y-29608856D01*
X86541668Y-29612640D01*
X86547579Y-29617024D01*
X86553033Y-29621967D01*
X86557976Y-29627421D01*
X86562360Y-29633332D01*
X86566144Y-29639645D01*
X86569291Y-29646299D01*
X86571771Y-29653229D01*
X86573559Y-29660368D01*
X86574639Y-29667649D01*
X86575000Y-29675000D01*
X86575000Y-29825000D01*
X86574639Y-29832351D01*
X86573559Y-29839632D01*
X86571771Y-29846771D01*
X86569291Y-29853701D01*
X86566144Y-29860355D01*
X86562360Y-29866668D01*
X86557976Y-29872579D01*
X86553033Y-29878033D01*
X86547579Y-29882976D01*
X86541668Y-29887360D01*
X86535355Y-29891144D01*
X86528701Y-29894291D01*
X86521771Y-29896771D01*
X86514632Y-29898559D01*
X86507351Y-29899639D01*
X86500000Y-29900000D01*
X85175000Y-29900000D01*
X85167649Y-29899639D01*
X85160368Y-29898559D01*
X85153229Y-29896771D01*
X85146299Y-29894291D01*
X85139645Y-29891144D01*
X85133332Y-29887360D01*
X85127421Y-29882976D01*
X85121967Y-29878033D01*
X85117024Y-29872579D01*
X85112640Y-29866668D01*
X85108856Y-29860355D01*
X85105709Y-29853701D01*
X85103229Y-29846771D01*
X85101441Y-29839632D01*
X85100361Y-29832351D01*
X85100000Y-29825000D01*
X85100000Y-29675000D01*
X85100361Y-29667649D01*
X85101441Y-29660368D01*
X85103229Y-29653229D01*
X85105709Y-29646299D01*
X85108856Y-29639645D01*
X85112640Y-29633332D01*
X85117024Y-29627421D01*
X85121967Y-29621967D01*
X85127421Y-29617024D01*
X85133332Y-29612640D01*
X85139645Y-29608856D01*
X85146299Y-29605709D01*
X85153229Y-29603229D01*
X85160368Y-29601441D01*
X85167649Y-29600361D01*
X85175000Y-29600000D01*
X86500000Y-29600000D01*
X86507351Y-29600361D01*
G37*
G04 #@! TD.AperFunction*
G04 #@! TA.AperFunction,SMDPad,CuDef*
G36*
X86507351Y-29100361D02*
G01*
X86514632Y-29101441D01*
X86521771Y-29103229D01*
X86528701Y-29105709D01*
X86535355Y-29108856D01*
X86541668Y-29112640D01*
X86547579Y-29117024D01*
X86553033Y-29121967D01*
X86557976Y-29127421D01*
X86562360Y-29133332D01*
X86566144Y-29139645D01*
X86569291Y-29146299D01*
X86571771Y-29153229D01*
X86573559Y-29160368D01*
X86574639Y-29167649D01*
X86575000Y-29175000D01*
X86575000Y-29325000D01*
X86574639Y-29332351D01*
X86573559Y-29339632D01*
X86571771Y-29346771D01*
X86569291Y-29353701D01*
X86566144Y-29360355D01*
X86562360Y-29366668D01*
X86557976Y-29372579D01*
X86553033Y-29378033D01*
X86547579Y-29382976D01*
X86541668Y-29387360D01*
X86535355Y-29391144D01*
X86528701Y-29394291D01*
X86521771Y-29396771D01*
X86514632Y-29398559D01*
X86507351Y-29399639D01*
X86500000Y-29400000D01*
X85175000Y-29400000D01*
X85167649Y-29399639D01*
X85160368Y-29398559D01*
X85153229Y-29396771D01*
X85146299Y-29394291D01*
X85139645Y-29391144D01*
X85133332Y-29387360D01*
X85127421Y-29382976D01*
X85121967Y-29378033D01*
X85117024Y-29372579D01*
X85112640Y-29366668D01*
X85108856Y-29360355D01*
X85105709Y-29353701D01*
X85103229Y-29346771D01*
X85101441Y-29339632D01*
X85100361Y-29332351D01*
X85100000Y-29325000D01*
X85100000Y-29175000D01*
X85100361Y-29167649D01*
X85101441Y-29160368D01*
X85103229Y-29153229D01*
X85105709Y-29146299D01*
X85108856Y-29139645D01*
X85112640Y-29133332D01*
X85117024Y-29127421D01*
X85121967Y-29121967D01*
X85127421Y-29117024D01*
X85133332Y-29112640D01*
X85139645Y-29108856D01*
X85146299Y-29105709D01*
X85153229Y-29103229D01*
X85160368Y-29101441D01*
X85167649Y-29100361D01*
X85175000Y-29100000D01*
X86500000Y-29100000D01*
X86507351Y-29100361D01*
G37*
G04 #@! TD.AperFunction*
G04 #@! TA.AperFunction,SMDPad,CuDef*
G36*
X86507351Y-28600361D02*
G01*
X86514632Y-28601441D01*
X86521771Y-28603229D01*
X86528701Y-28605709D01*
X86535355Y-28608856D01*
X86541668Y-28612640D01*
X86547579Y-28617024D01*
X86553033Y-28621967D01*
X86557976Y-28627421D01*
X86562360Y-28633332D01*
X86566144Y-28639645D01*
X86569291Y-28646299D01*
X86571771Y-28653229D01*
X86573559Y-28660368D01*
X86574639Y-28667649D01*
X86575000Y-28675000D01*
X86575000Y-28825000D01*
X86574639Y-28832351D01*
X86573559Y-28839632D01*
X86571771Y-28846771D01*
X86569291Y-28853701D01*
X86566144Y-28860355D01*
X86562360Y-28866668D01*
X86557976Y-28872579D01*
X86553033Y-28878033D01*
X86547579Y-28882976D01*
X86541668Y-28887360D01*
X86535355Y-28891144D01*
X86528701Y-28894291D01*
X86521771Y-28896771D01*
X86514632Y-28898559D01*
X86507351Y-28899639D01*
X86500000Y-28900000D01*
X85175000Y-28900000D01*
X85167649Y-28899639D01*
X85160368Y-28898559D01*
X85153229Y-28896771D01*
X85146299Y-28894291D01*
X85139645Y-28891144D01*
X85133332Y-28887360D01*
X85127421Y-28882976D01*
X85121967Y-28878033D01*
X85117024Y-28872579D01*
X85112640Y-28866668D01*
X85108856Y-28860355D01*
X85105709Y-28853701D01*
X85103229Y-28846771D01*
X85101441Y-28839632D01*
X85100361Y-28832351D01*
X85100000Y-28825000D01*
X85100000Y-28675000D01*
X85100361Y-28667649D01*
X85101441Y-28660368D01*
X85103229Y-28653229D01*
X85105709Y-28646299D01*
X85108856Y-28639645D01*
X85112640Y-28633332D01*
X85117024Y-28627421D01*
X85121967Y-28621967D01*
X85127421Y-28617024D01*
X85133332Y-28612640D01*
X85139645Y-28608856D01*
X85146299Y-28605709D01*
X85153229Y-28603229D01*
X85160368Y-28601441D01*
X85167649Y-28600361D01*
X85175000Y-28600000D01*
X86500000Y-28600000D01*
X86507351Y-28600361D01*
G37*
G04 #@! TD.AperFunction*
G04 #@! TA.AperFunction,SMDPad,CuDef*
G36*
X87332351Y-26600361D02*
G01*
X87339632Y-26601441D01*
X87346771Y-26603229D01*
X87353701Y-26605709D01*
X87360355Y-26608856D01*
X87366668Y-26612640D01*
X87372579Y-26617024D01*
X87378033Y-26621967D01*
X87382976Y-26627421D01*
X87387360Y-26633332D01*
X87391144Y-26639645D01*
X87394291Y-26646299D01*
X87396771Y-26653229D01*
X87398559Y-26660368D01*
X87399639Y-26667649D01*
X87400000Y-26675000D01*
X87400000Y-28000000D01*
X87399639Y-28007351D01*
X87398559Y-28014632D01*
X87396771Y-28021771D01*
X87394291Y-28028701D01*
X87391144Y-28035355D01*
X87387360Y-28041668D01*
X87382976Y-28047579D01*
X87378033Y-28053033D01*
X87372579Y-28057976D01*
X87366668Y-28062360D01*
X87360355Y-28066144D01*
X87353701Y-28069291D01*
X87346771Y-28071771D01*
X87339632Y-28073559D01*
X87332351Y-28074639D01*
X87325000Y-28075000D01*
X87175000Y-28075000D01*
X87167649Y-28074639D01*
X87160368Y-28073559D01*
X87153229Y-28071771D01*
X87146299Y-28069291D01*
X87139645Y-28066144D01*
X87133332Y-28062360D01*
X87127421Y-28057976D01*
X87121967Y-28053033D01*
X87117024Y-28047579D01*
X87112640Y-28041668D01*
X87108856Y-28035355D01*
X87105709Y-28028701D01*
X87103229Y-28021771D01*
X87101441Y-28014632D01*
X87100361Y-28007351D01*
X87100000Y-28000000D01*
X87100000Y-26675000D01*
X87100361Y-26667649D01*
X87101441Y-26660368D01*
X87103229Y-26653229D01*
X87105709Y-26646299D01*
X87108856Y-26639645D01*
X87112640Y-26633332D01*
X87117024Y-26627421D01*
X87121967Y-26621967D01*
X87127421Y-26617024D01*
X87133332Y-26612640D01*
X87139645Y-26608856D01*
X87146299Y-26605709D01*
X87153229Y-26603229D01*
X87160368Y-26601441D01*
X87167649Y-26600361D01*
X87175000Y-26600000D01*
X87325000Y-26600000D01*
X87332351Y-26600361D01*
G37*
G04 #@! TD.AperFunction*
G04 #@! TA.AperFunction,SMDPad,CuDef*
G36*
X87832351Y-26600361D02*
G01*
X87839632Y-26601441D01*
X87846771Y-26603229D01*
X87853701Y-26605709D01*
X87860355Y-26608856D01*
X87866668Y-26612640D01*
X87872579Y-26617024D01*
X87878033Y-26621967D01*
X87882976Y-26627421D01*
X87887360Y-26633332D01*
X87891144Y-26639645D01*
X87894291Y-26646299D01*
X87896771Y-26653229D01*
X87898559Y-26660368D01*
X87899639Y-26667649D01*
X87900000Y-26675000D01*
X87900000Y-28000000D01*
X87899639Y-28007351D01*
X87898559Y-28014632D01*
X87896771Y-28021771D01*
X87894291Y-28028701D01*
X87891144Y-28035355D01*
X87887360Y-28041668D01*
X87882976Y-28047579D01*
X87878033Y-28053033D01*
X87872579Y-28057976D01*
X87866668Y-28062360D01*
X87860355Y-28066144D01*
X87853701Y-28069291D01*
X87846771Y-28071771D01*
X87839632Y-28073559D01*
X87832351Y-28074639D01*
X87825000Y-28075000D01*
X87675000Y-28075000D01*
X87667649Y-28074639D01*
X87660368Y-28073559D01*
X87653229Y-28071771D01*
X87646299Y-28069291D01*
X87639645Y-28066144D01*
X87633332Y-28062360D01*
X87627421Y-28057976D01*
X87621967Y-28053033D01*
X87617024Y-28047579D01*
X87612640Y-28041668D01*
X87608856Y-28035355D01*
X87605709Y-28028701D01*
X87603229Y-28021771D01*
X87601441Y-28014632D01*
X87600361Y-28007351D01*
X87600000Y-28000000D01*
X87600000Y-26675000D01*
X87600361Y-26667649D01*
X87601441Y-26660368D01*
X87603229Y-26653229D01*
X87605709Y-26646299D01*
X87608856Y-26639645D01*
X87612640Y-26633332D01*
X87617024Y-26627421D01*
X87621967Y-26621967D01*
X87627421Y-26617024D01*
X87633332Y-26612640D01*
X87639645Y-26608856D01*
X87646299Y-26605709D01*
X87653229Y-26603229D01*
X87660368Y-26601441D01*
X87667649Y-26600361D01*
X87675000Y-26600000D01*
X87825000Y-26600000D01*
X87832351Y-26600361D01*
G37*
G04 #@! TD.AperFunction*
G04 #@! TA.AperFunction,SMDPad,CuDef*
G36*
X88332351Y-26600361D02*
G01*
X88339632Y-26601441D01*
X88346771Y-26603229D01*
X88353701Y-26605709D01*
X88360355Y-26608856D01*
X88366668Y-26612640D01*
X88372579Y-26617024D01*
X88378033Y-26621967D01*
X88382976Y-26627421D01*
X88387360Y-26633332D01*
X88391144Y-26639645D01*
X88394291Y-26646299D01*
X88396771Y-26653229D01*
X88398559Y-26660368D01*
X88399639Y-26667649D01*
X88400000Y-26675000D01*
X88400000Y-28000000D01*
X88399639Y-28007351D01*
X88398559Y-28014632D01*
X88396771Y-28021771D01*
X88394291Y-28028701D01*
X88391144Y-28035355D01*
X88387360Y-28041668D01*
X88382976Y-28047579D01*
X88378033Y-28053033D01*
X88372579Y-28057976D01*
X88366668Y-28062360D01*
X88360355Y-28066144D01*
X88353701Y-28069291D01*
X88346771Y-28071771D01*
X88339632Y-28073559D01*
X88332351Y-28074639D01*
X88325000Y-28075000D01*
X88175000Y-28075000D01*
X88167649Y-28074639D01*
X88160368Y-28073559D01*
X88153229Y-28071771D01*
X88146299Y-28069291D01*
X88139645Y-28066144D01*
X88133332Y-28062360D01*
X88127421Y-28057976D01*
X88121967Y-28053033D01*
X88117024Y-28047579D01*
X88112640Y-28041668D01*
X88108856Y-28035355D01*
X88105709Y-28028701D01*
X88103229Y-28021771D01*
X88101441Y-28014632D01*
X88100361Y-28007351D01*
X88100000Y-28000000D01*
X88100000Y-26675000D01*
X88100361Y-26667649D01*
X88101441Y-26660368D01*
X88103229Y-26653229D01*
X88105709Y-26646299D01*
X88108856Y-26639645D01*
X88112640Y-26633332D01*
X88117024Y-26627421D01*
X88121967Y-26621967D01*
X88127421Y-26617024D01*
X88133332Y-26612640D01*
X88139645Y-26608856D01*
X88146299Y-26605709D01*
X88153229Y-26603229D01*
X88160368Y-26601441D01*
X88167649Y-26600361D01*
X88175000Y-26600000D01*
X88325000Y-26600000D01*
X88332351Y-26600361D01*
G37*
G04 #@! TD.AperFunction*
G04 #@! TA.AperFunction,SMDPad,CuDef*
G36*
X88832351Y-26600361D02*
G01*
X88839632Y-26601441D01*
X88846771Y-26603229D01*
X88853701Y-26605709D01*
X88860355Y-26608856D01*
X88866668Y-26612640D01*
X88872579Y-26617024D01*
X88878033Y-26621967D01*
X88882976Y-26627421D01*
X88887360Y-26633332D01*
X88891144Y-26639645D01*
X88894291Y-26646299D01*
X88896771Y-26653229D01*
X88898559Y-26660368D01*
X88899639Y-26667649D01*
X88900000Y-26675000D01*
X88900000Y-28000000D01*
X88899639Y-28007351D01*
X88898559Y-28014632D01*
X88896771Y-28021771D01*
X88894291Y-28028701D01*
X88891144Y-28035355D01*
X88887360Y-28041668D01*
X88882976Y-28047579D01*
X88878033Y-28053033D01*
X88872579Y-28057976D01*
X88866668Y-28062360D01*
X88860355Y-28066144D01*
X88853701Y-28069291D01*
X88846771Y-28071771D01*
X88839632Y-28073559D01*
X88832351Y-28074639D01*
X88825000Y-28075000D01*
X88675000Y-28075000D01*
X88667649Y-28074639D01*
X88660368Y-28073559D01*
X88653229Y-28071771D01*
X88646299Y-28069291D01*
X88639645Y-28066144D01*
X88633332Y-28062360D01*
X88627421Y-28057976D01*
X88621967Y-28053033D01*
X88617024Y-28047579D01*
X88612640Y-28041668D01*
X88608856Y-28035355D01*
X88605709Y-28028701D01*
X88603229Y-28021771D01*
X88601441Y-28014632D01*
X88600361Y-28007351D01*
X88600000Y-28000000D01*
X88600000Y-26675000D01*
X88600361Y-26667649D01*
X88601441Y-26660368D01*
X88603229Y-26653229D01*
X88605709Y-26646299D01*
X88608856Y-26639645D01*
X88612640Y-26633332D01*
X88617024Y-26627421D01*
X88621967Y-26621967D01*
X88627421Y-26617024D01*
X88633332Y-26612640D01*
X88639645Y-26608856D01*
X88646299Y-26605709D01*
X88653229Y-26603229D01*
X88660368Y-26601441D01*
X88667649Y-26600361D01*
X88675000Y-26600000D01*
X88825000Y-26600000D01*
X88832351Y-26600361D01*
G37*
G04 #@! TD.AperFunction*
G04 #@! TA.AperFunction,SMDPad,CuDef*
G36*
X89332351Y-26600361D02*
G01*
X89339632Y-26601441D01*
X89346771Y-26603229D01*
X89353701Y-26605709D01*
X89360355Y-26608856D01*
X89366668Y-26612640D01*
X89372579Y-26617024D01*
X89378033Y-26621967D01*
X89382976Y-26627421D01*
X89387360Y-26633332D01*
X89391144Y-26639645D01*
X89394291Y-26646299D01*
X89396771Y-26653229D01*
X89398559Y-26660368D01*
X89399639Y-26667649D01*
X89400000Y-26675000D01*
X89400000Y-28000000D01*
X89399639Y-28007351D01*
X89398559Y-28014632D01*
X89396771Y-28021771D01*
X89394291Y-28028701D01*
X89391144Y-28035355D01*
X89387360Y-28041668D01*
X89382976Y-28047579D01*
X89378033Y-28053033D01*
X89372579Y-28057976D01*
X89366668Y-28062360D01*
X89360355Y-28066144D01*
X89353701Y-28069291D01*
X89346771Y-28071771D01*
X89339632Y-28073559D01*
X89332351Y-28074639D01*
X89325000Y-28075000D01*
X89175000Y-28075000D01*
X89167649Y-28074639D01*
X89160368Y-28073559D01*
X89153229Y-28071771D01*
X89146299Y-28069291D01*
X89139645Y-28066144D01*
X89133332Y-28062360D01*
X89127421Y-28057976D01*
X89121967Y-28053033D01*
X89117024Y-28047579D01*
X89112640Y-28041668D01*
X89108856Y-28035355D01*
X89105709Y-28028701D01*
X89103229Y-28021771D01*
X89101441Y-28014632D01*
X89100361Y-28007351D01*
X89100000Y-28000000D01*
X89100000Y-26675000D01*
X89100361Y-26667649D01*
X89101441Y-26660368D01*
X89103229Y-26653229D01*
X89105709Y-26646299D01*
X89108856Y-26639645D01*
X89112640Y-26633332D01*
X89117024Y-26627421D01*
X89121967Y-26621967D01*
X89127421Y-26617024D01*
X89133332Y-26612640D01*
X89139645Y-26608856D01*
X89146299Y-26605709D01*
X89153229Y-26603229D01*
X89160368Y-26601441D01*
X89167649Y-26600361D01*
X89175000Y-26600000D01*
X89325000Y-26600000D01*
X89332351Y-26600361D01*
G37*
G04 #@! TD.AperFunction*
G04 #@! TA.AperFunction,SMDPad,CuDef*
G36*
X89832351Y-26600361D02*
G01*
X89839632Y-26601441D01*
X89846771Y-26603229D01*
X89853701Y-26605709D01*
X89860355Y-26608856D01*
X89866668Y-26612640D01*
X89872579Y-26617024D01*
X89878033Y-26621967D01*
X89882976Y-26627421D01*
X89887360Y-26633332D01*
X89891144Y-26639645D01*
X89894291Y-26646299D01*
X89896771Y-26653229D01*
X89898559Y-26660368D01*
X89899639Y-26667649D01*
X89900000Y-26675000D01*
X89900000Y-28000000D01*
X89899639Y-28007351D01*
X89898559Y-28014632D01*
X89896771Y-28021771D01*
X89894291Y-28028701D01*
X89891144Y-28035355D01*
X89887360Y-28041668D01*
X89882976Y-28047579D01*
X89878033Y-28053033D01*
X89872579Y-28057976D01*
X89866668Y-28062360D01*
X89860355Y-28066144D01*
X89853701Y-28069291D01*
X89846771Y-28071771D01*
X89839632Y-28073559D01*
X89832351Y-28074639D01*
X89825000Y-28075000D01*
X89675000Y-28075000D01*
X89667649Y-28074639D01*
X89660368Y-28073559D01*
X89653229Y-28071771D01*
X89646299Y-28069291D01*
X89639645Y-28066144D01*
X89633332Y-28062360D01*
X89627421Y-28057976D01*
X89621967Y-28053033D01*
X89617024Y-28047579D01*
X89612640Y-28041668D01*
X89608856Y-28035355D01*
X89605709Y-28028701D01*
X89603229Y-28021771D01*
X89601441Y-28014632D01*
X89600361Y-28007351D01*
X89600000Y-28000000D01*
X89600000Y-26675000D01*
X89600361Y-26667649D01*
X89601441Y-26660368D01*
X89603229Y-26653229D01*
X89605709Y-26646299D01*
X89608856Y-26639645D01*
X89612640Y-26633332D01*
X89617024Y-26627421D01*
X89621967Y-26621967D01*
X89627421Y-26617024D01*
X89633332Y-26612640D01*
X89639645Y-26608856D01*
X89646299Y-26605709D01*
X89653229Y-26603229D01*
X89660368Y-26601441D01*
X89667649Y-26600361D01*
X89675000Y-26600000D01*
X89825000Y-26600000D01*
X89832351Y-26600361D01*
G37*
G04 #@! TD.AperFunction*
G04 #@! TA.AperFunction,SMDPad,CuDef*
G36*
X90332351Y-26600361D02*
G01*
X90339632Y-26601441D01*
X90346771Y-26603229D01*
X90353701Y-26605709D01*
X90360355Y-26608856D01*
X90366668Y-26612640D01*
X90372579Y-26617024D01*
X90378033Y-26621967D01*
X90382976Y-26627421D01*
X90387360Y-26633332D01*
X90391144Y-26639645D01*
X90394291Y-26646299D01*
X90396771Y-26653229D01*
X90398559Y-26660368D01*
X90399639Y-26667649D01*
X90400000Y-26675000D01*
X90400000Y-28000000D01*
X90399639Y-28007351D01*
X90398559Y-28014632D01*
X90396771Y-28021771D01*
X90394291Y-28028701D01*
X90391144Y-28035355D01*
X90387360Y-28041668D01*
X90382976Y-28047579D01*
X90378033Y-28053033D01*
X90372579Y-28057976D01*
X90366668Y-28062360D01*
X90360355Y-28066144D01*
X90353701Y-28069291D01*
X90346771Y-28071771D01*
X90339632Y-28073559D01*
X90332351Y-28074639D01*
X90325000Y-28075000D01*
X90175000Y-28075000D01*
X90167649Y-28074639D01*
X90160368Y-28073559D01*
X90153229Y-28071771D01*
X90146299Y-28069291D01*
X90139645Y-28066144D01*
X90133332Y-28062360D01*
X90127421Y-28057976D01*
X90121967Y-28053033D01*
X90117024Y-28047579D01*
X90112640Y-28041668D01*
X90108856Y-28035355D01*
X90105709Y-28028701D01*
X90103229Y-28021771D01*
X90101441Y-28014632D01*
X90100361Y-28007351D01*
X90100000Y-28000000D01*
X90100000Y-26675000D01*
X90100361Y-26667649D01*
X90101441Y-26660368D01*
X90103229Y-26653229D01*
X90105709Y-26646299D01*
X90108856Y-26639645D01*
X90112640Y-26633332D01*
X90117024Y-26627421D01*
X90121967Y-26621967D01*
X90127421Y-26617024D01*
X90133332Y-26612640D01*
X90139645Y-26608856D01*
X90146299Y-26605709D01*
X90153229Y-26603229D01*
X90160368Y-26601441D01*
X90167649Y-26600361D01*
X90175000Y-26600000D01*
X90325000Y-26600000D01*
X90332351Y-26600361D01*
G37*
G04 #@! TD.AperFunction*
G04 #@! TA.AperFunction,SMDPad,CuDef*
G36*
X90832351Y-26600361D02*
G01*
X90839632Y-26601441D01*
X90846771Y-26603229D01*
X90853701Y-26605709D01*
X90860355Y-26608856D01*
X90866668Y-26612640D01*
X90872579Y-26617024D01*
X90878033Y-26621967D01*
X90882976Y-26627421D01*
X90887360Y-26633332D01*
X90891144Y-26639645D01*
X90894291Y-26646299D01*
X90896771Y-26653229D01*
X90898559Y-26660368D01*
X90899639Y-26667649D01*
X90900000Y-26675000D01*
X90900000Y-28000000D01*
X90899639Y-28007351D01*
X90898559Y-28014632D01*
X90896771Y-28021771D01*
X90894291Y-28028701D01*
X90891144Y-28035355D01*
X90887360Y-28041668D01*
X90882976Y-28047579D01*
X90878033Y-28053033D01*
X90872579Y-28057976D01*
X90866668Y-28062360D01*
X90860355Y-28066144D01*
X90853701Y-28069291D01*
X90846771Y-28071771D01*
X90839632Y-28073559D01*
X90832351Y-28074639D01*
X90825000Y-28075000D01*
X90675000Y-28075000D01*
X90667649Y-28074639D01*
X90660368Y-28073559D01*
X90653229Y-28071771D01*
X90646299Y-28069291D01*
X90639645Y-28066144D01*
X90633332Y-28062360D01*
X90627421Y-28057976D01*
X90621967Y-28053033D01*
X90617024Y-28047579D01*
X90612640Y-28041668D01*
X90608856Y-28035355D01*
X90605709Y-28028701D01*
X90603229Y-28021771D01*
X90601441Y-28014632D01*
X90600361Y-28007351D01*
X90600000Y-28000000D01*
X90600000Y-26675000D01*
X90600361Y-26667649D01*
X90601441Y-26660368D01*
X90603229Y-26653229D01*
X90605709Y-26646299D01*
X90608856Y-26639645D01*
X90612640Y-26633332D01*
X90617024Y-26627421D01*
X90621967Y-26621967D01*
X90627421Y-26617024D01*
X90633332Y-26612640D01*
X90639645Y-26608856D01*
X90646299Y-26605709D01*
X90653229Y-26603229D01*
X90660368Y-26601441D01*
X90667649Y-26600361D01*
X90675000Y-26600000D01*
X90825000Y-26600000D01*
X90832351Y-26600361D01*
G37*
G04 #@! TD.AperFunction*
G04 #@! TA.AperFunction,SMDPad,CuDef*
G36*
X91332351Y-26600361D02*
G01*
X91339632Y-26601441D01*
X91346771Y-26603229D01*
X91353701Y-26605709D01*
X91360355Y-26608856D01*
X91366668Y-26612640D01*
X91372579Y-26617024D01*
X91378033Y-26621967D01*
X91382976Y-26627421D01*
X91387360Y-26633332D01*
X91391144Y-26639645D01*
X91394291Y-26646299D01*
X91396771Y-26653229D01*
X91398559Y-26660368D01*
X91399639Y-26667649D01*
X91400000Y-26675000D01*
X91400000Y-28000000D01*
X91399639Y-28007351D01*
X91398559Y-28014632D01*
X91396771Y-28021771D01*
X91394291Y-28028701D01*
X91391144Y-28035355D01*
X91387360Y-28041668D01*
X91382976Y-28047579D01*
X91378033Y-28053033D01*
X91372579Y-28057976D01*
X91366668Y-28062360D01*
X91360355Y-28066144D01*
X91353701Y-28069291D01*
X91346771Y-28071771D01*
X91339632Y-28073559D01*
X91332351Y-28074639D01*
X91325000Y-28075000D01*
X91175000Y-28075000D01*
X91167649Y-28074639D01*
X91160368Y-28073559D01*
X91153229Y-28071771D01*
X91146299Y-28069291D01*
X91139645Y-28066144D01*
X91133332Y-28062360D01*
X91127421Y-28057976D01*
X91121967Y-28053033D01*
X91117024Y-28047579D01*
X91112640Y-28041668D01*
X91108856Y-28035355D01*
X91105709Y-28028701D01*
X91103229Y-28021771D01*
X91101441Y-28014632D01*
X91100361Y-28007351D01*
X91100000Y-28000000D01*
X91100000Y-26675000D01*
X91100361Y-26667649D01*
X91101441Y-26660368D01*
X91103229Y-26653229D01*
X91105709Y-26646299D01*
X91108856Y-26639645D01*
X91112640Y-26633332D01*
X91117024Y-26627421D01*
X91121967Y-26621967D01*
X91127421Y-26617024D01*
X91133332Y-26612640D01*
X91139645Y-26608856D01*
X91146299Y-26605709D01*
X91153229Y-26603229D01*
X91160368Y-26601441D01*
X91167649Y-26600361D01*
X91175000Y-26600000D01*
X91325000Y-26600000D01*
X91332351Y-26600361D01*
G37*
G04 #@! TD.AperFunction*
G04 #@! TA.AperFunction,SMDPad,CuDef*
G36*
X91832351Y-26600361D02*
G01*
X91839632Y-26601441D01*
X91846771Y-26603229D01*
X91853701Y-26605709D01*
X91860355Y-26608856D01*
X91866668Y-26612640D01*
X91872579Y-26617024D01*
X91878033Y-26621967D01*
X91882976Y-26627421D01*
X91887360Y-26633332D01*
X91891144Y-26639645D01*
X91894291Y-26646299D01*
X91896771Y-26653229D01*
X91898559Y-26660368D01*
X91899639Y-26667649D01*
X91900000Y-26675000D01*
X91900000Y-28000000D01*
X91899639Y-28007351D01*
X91898559Y-28014632D01*
X91896771Y-28021771D01*
X91894291Y-28028701D01*
X91891144Y-28035355D01*
X91887360Y-28041668D01*
X91882976Y-28047579D01*
X91878033Y-28053033D01*
X91872579Y-28057976D01*
X91866668Y-28062360D01*
X91860355Y-28066144D01*
X91853701Y-28069291D01*
X91846771Y-28071771D01*
X91839632Y-28073559D01*
X91832351Y-28074639D01*
X91825000Y-28075000D01*
X91675000Y-28075000D01*
X91667649Y-28074639D01*
X91660368Y-28073559D01*
X91653229Y-28071771D01*
X91646299Y-28069291D01*
X91639645Y-28066144D01*
X91633332Y-28062360D01*
X91627421Y-28057976D01*
X91621967Y-28053033D01*
X91617024Y-28047579D01*
X91612640Y-28041668D01*
X91608856Y-28035355D01*
X91605709Y-28028701D01*
X91603229Y-28021771D01*
X91601441Y-28014632D01*
X91600361Y-28007351D01*
X91600000Y-28000000D01*
X91600000Y-26675000D01*
X91600361Y-26667649D01*
X91601441Y-26660368D01*
X91603229Y-26653229D01*
X91605709Y-26646299D01*
X91608856Y-26639645D01*
X91612640Y-26633332D01*
X91617024Y-26627421D01*
X91621967Y-26621967D01*
X91627421Y-26617024D01*
X91633332Y-26612640D01*
X91639645Y-26608856D01*
X91646299Y-26605709D01*
X91653229Y-26603229D01*
X91660368Y-26601441D01*
X91667649Y-26600361D01*
X91675000Y-26600000D01*
X91825000Y-26600000D01*
X91832351Y-26600361D01*
G37*
G04 #@! TD.AperFunction*
G04 #@! TA.AperFunction,SMDPad,CuDef*
G36*
X92332351Y-26600361D02*
G01*
X92339632Y-26601441D01*
X92346771Y-26603229D01*
X92353701Y-26605709D01*
X92360355Y-26608856D01*
X92366668Y-26612640D01*
X92372579Y-26617024D01*
X92378033Y-26621967D01*
X92382976Y-26627421D01*
X92387360Y-26633332D01*
X92391144Y-26639645D01*
X92394291Y-26646299D01*
X92396771Y-26653229D01*
X92398559Y-26660368D01*
X92399639Y-26667649D01*
X92400000Y-26675000D01*
X92400000Y-28000000D01*
X92399639Y-28007351D01*
X92398559Y-28014632D01*
X92396771Y-28021771D01*
X92394291Y-28028701D01*
X92391144Y-28035355D01*
X92387360Y-28041668D01*
X92382976Y-28047579D01*
X92378033Y-28053033D01*
X92372579Y-28057976D01*
X92366668Y-28062360D01*
X92360355Y-28066144D01*
X92353701Y-28069291D01*
X92346771Y-28071771D01*
X92339632Y-28073559D01*
X92332351Y-28074639D01*
X92325000Y-28075000D01*
X92175000Y-28075000D01*
X92167649Y-28074639D01*
X92160368Y-28073559D01*
X92153229Y-28071771D01*
X92146299Y-28069291D01*
X92139645Y-28066144D01*
X92133332Y-28062360D01*
X92127421Y-28057976D01*
X92121967Y-28053033D01*
X92117024Y-28047579D01*
X92112640Y-28041668D01*
X92108856Y-28035355D01*
X92105709Y-28028701D01*
X92103229Y-28021771D01*
X92101441Y-28014632D01*
X92100361Y-28007351D01*
X92100000Y-28000000D01*
X92100000Y-26675000D01*
X92100361Y-26667649D01*
X92101441Y-26660368D01*
X92103229Y-26653229D01*
X92105709Y-26646299D01*
X92108856Y-26639645D01*
X92112640Y-26633332D01*
X92117024Y-26627421D01*
X92121967Y-26621967D01*
X92127421Y-26617024D01*
X92133332Y-26612640D01*
X92139645Y-26608856D01*
X92146299Y-26605709D01*
X92153229Y-26603229D01*
X92160368Y-26601441D01*
X92167649Y-26600361D01*
X92175000Y-26600000D01*
X92325000Y-26600000D01*
X92332351Y-26600361D01*
G37*
G04 #@! TD.AperFunction*
G04 #@! TA.AperFunction,SMDPad,CuDef*
G36*
X92832351Y-26600361D02*
G01*
X92839632Y-26601441D01*
X92846771Y-26603229D01*
X92853701Y-26605709D01*
X92860355Y-26608856D01*
X92866668Y-26612640D01*
X92872579Y-26617024D01*
X92878033Y-26621967D01*
X92882976Y-26627421D01*
X92887360Y-26633332D01*
X92891144Y-26639645D01*
X92894291Y-26646299D01*
X92896771Y-26653229D01*
X92898559Y-26660368D01*
X92899639Y-26667649D01*
X92900000Y-26675000D01*
X92900000Y-28000000D01*
X92899639Y-28007351D01*
X92898559Y-28014632D01*
X92896771Y-28021771D01*
X92894291Y-28028701D01*
X92891144Y-28035355D01*
X92887360Y-28041668D01*
X92882976Y-28047579D01*
X92878033Y-28053033D01*
X92872579Y-28057976D01*
X92866668Y-28062360D01*
X92860355Y-28066144D01*
X92853701Y-28069291D01*
X92846771Y-28071771D01*
X92839632Y-28073559D01*
X92832351Y-28074639D01*
X92825000Y-28075000D01*
X92675000Y-28075000D01*
X92667649Y-28074639D01*
X92660368Y-28073559D01*
X92653229Y-28071771D01*
X92646299Y-28069291D01*
X92639645Y-28066144D01*
X92633332Y-28062360D01*
X92627421Y-28057976D01*
X92621967Y-28053033D01*
X92617024Y-28047579D01*
X92612640Y-28041668D01*
X92608856Y-28035355D01*
X92605709Y-28028701D01*
X92603229Y-28021771D01*
X92601441Y-28014632D01*
X92600361Y-28007351D01*
X92600000Y-28000000D01*
X92600000Y-26675000D01*
X92600361Y-26667649D01*
X92601441Y-26660368D01*
X92603229Y-26653229D01*
X92605709Y-26646299D01*
X92608856Y-26639645D01*
X92612640Y-26633332D01*
X92617024Y-26627421D01*
X92621967Y-26621967D01*
X92627421Y-26617024D01*
X92633332Y-26612640D01*
X92639645Y-26608856D01*
X92646299Y-26605709D01*
X92653229Y-26603229D01*
X92660368Y-26601441D01*
X92667649Y-26600361D01*
X92675000Y-26600000D01*
X92825000Y-26600000D01*
X92832351Y-26600361D01*
G37*
G04 #@! TD.AperFunction*
G04 #@! TA.AperFunction,SMDPad,CuDef*
G36*
X94832351Y-28600361D02*
G01*
X94839632Y-28601441D01*
X94846771Y-28603229D01*
X94853701Y-28605709D01*
X94860355Y-28608856D01*
X94866668Y-28612640D01*
X94872579Y-28617024D01*
X94878033Y-28621967D01*
X94882976Y-28627421D01*
X94887360Y-28633332D01*
X94891144Y-28639645D01*
X94894291Y-28646299D01*
X94896771Y-28653229D01*
X94898559Y-28660368D01*
X94899639Y-28667649D01*
X94900000Y-28675000D01*
X94900000Y-28825000D01*
X94899639Y-28832351D01*
X94898559Y-28839632D01*
X94896771Y-28846771D01*
X94894291Y-28853701D01*
X94891144Y-28860355D01*
X94887360Y-28866668D01*
X94882976Y-28872579D01*
X94878033Y-28878033D01*
X94872579Y-28882976D01*
X94866668Y-28887360D01*
X94860355Y-28891144D01*
X94853701Y-28894291D01*
X94846771Y-28896771D01*
X94839632Y-28898559D01*
X94832351Y-28899639D01*
X94825000Y-28900000D01*
X93500000Y-28900000D01*
X93492649Y-28899639D01*
X93485368Y-28898559D01*
X93478229Y-28896771D01*
X93471299Y-28894291D01*
X93464645Y-28891144D01*
X93458332Y-28887360D01*
X93452421Y-28882976D01*
X93446967Y-28878033D01*
X93442024Y-28872579D01*
X93437640Y-28866668D01*
X93433856Y-28860355D01*
X93430709Y-28853701D01*
X93428229Y-28846771D01*
X93426441Y-28839632D01*
X93425361Y-28832351D01*
X93425000Y-28825000D01*
X93425000Y-28675000D01*
X93425361Y-28667649D01*
X93426441Y-28660368D01*
X93428229Y-28653229D01*
X93430709Y-28646299D01*
X93433856Y-28639645D01*
X93437640Y-28633332D01*
X93442024Y-28627421D01*
X93446967Y-28621967D01*
X93452421Y-28617024D01*
X93458332Y-28612640D01*
X93464645Y-28608856D01*
X93471299Y-28605709D01*
X93478229Y-28603229D01*
X93485368Y-28601441D01*
X93492649Y-28600361D01*
X93500000Y-28600000D01*
X94825000Y-28600000D01*
X94832351Y-28600361D01*
G37*
G04 #@! TD.AperFunction*
G04 #@! TA.AperFunction,SMDPad,CuDef*
G36*
X94832351Y-29100361D02*
G01*
X94839632Y-29101441D01*
X94846771Y-29103229D01*
X94853701Y-29105709D01*
X94860355Y-29108856D01*
X94866668Y-29112640D01*
X94872579Y-29117024D01*
X94878033Y-29121967D01*
X94882976Y-29127421D01*
X94887360Y-29133332D01*
X94891144Y-29139645D01*
X94894291Y-29146299D01*
X94896771Y-29153229D01*
X94898559Y-29160368D01*
X94899639Y-29167649D01*
X94900000Y-29175000D01*
X94900000Y-29325000D01*
X94899639Y-29332351D01*
X94898559Y-29339632D01*
X94896771Y-29346771D01*
X94894291Y-29353701D01*
X94891144Y-29360355D01*
X94887360Y-29366668D01*
X94882976Y-29372579D01*
X94878033Y-29378033D01*
X94872579Y-29382976D01*
X94866668Y-29387360D01*
X94860355Y-29391144D01*
X94853701Y-29394291D01*
X94846771Y-29396771D01*
X94839632Y-29398559D01*
X94832351Y-29399639D01*
X94825000Y-29400000D01*
X93500000Y-29400000D01*
X93492649Y-29399639D01*
X93485368Y-29398559D01*
X93478229Y-29396771D01*
X93471299Y-29394291D01*
X93464645Y-29391144D01*
X93458332Y-29387360D01*
X93452421Y-29382976D01*
X93446967Y-29378033D01*
X93442024Y-29372579D01*
X93437640Y-29366668D01*
X93433856Y-29360355D01*
X93430709Y-29353701D01*
X93428229Y-29346771D01*
X93426441Y-29339632D01*
X93425361Y-29332351D01*
X93425000Y-29325000D01*
X93425000Y-29175000D01*
X93425361Y-29167649D01*
X93426441Y-29160368D01*
X93428229Y-29153229D01*
X93430709Y-29146299D01*
X93433856Y-29139645D01*
X93437640Y-29133332D01*
X93442024Y-29127421D01*
X93446967Y-29121967D01*
X93452421Y-29117024D01*
X93458332Y-29112640D01*
X93464645Y-29108856D01*
X93471299Y-29105709D01*
X93478229Y-29103229D01*
X93485368Y-29101441D01*
X93492649Y-29100361D01*
X93500000Y-29100000D01*
X94825000Y-29100000D01*
X94832351Y-29100361D01*
G37*
G04 #@! TD.AperFunction*
G04 #@! TA.AperFunction,SMDPad,CuDef*
G36*
X94832351Y-29600361D02*
G01*
X94839632Y-29601441D01*
X94846771Y-29603229D01*
X94853701Y-29605709D01*
X94860355Y-29608856D01*
X94866668Y-29612640D01*
X94872579Y-29617024D01*
X94878033Y-29621967D01*
X94882976Y-29627421D01*
X94887360Y-29633332D01*
X94891144Y-29639645D01*
X94894291Y-29646299D01*
X94896771Y-29653229D01*
X94898559Y-29660368D01*
X94899639Y-29667649D01*
X94900000Y-29675000D01*
X94900000Y-29825000D01*
X94899639Y-29832351D01*
X94898559Y-29839632D01*
X94896771Y-29846771D01*
X94894291Y-29853701D01*
X94891144Y-29860355D01*
X94887360Y-29866668D01*
X94882976Y-29872579D01*
X94878033Y-29878033D01*
X94872579Y-29882976D01*
X94866668Y-29887360D01*
X94860355Y-29891144D01*
X94853701Y-29894291D01*
X94846771Y-29896771D01*
X94839632Y-29898559D01*
X94832351Y-29899639D01*
X94825000Y-29900000D01*
X93500000Y-29900000D01*
X93492649Y-29899639D01*
X93485368Y-29898559D01*
X93478229Y-29896771D01*
X93471299Y-29894291D01*
X93464645Y-29891144D01*
X93458332Y-29887360D01*
X93452421Y-29882976D01*
X93446967Y-29878033D01*
X93442024Y-29872579D01*
X93437640Y-29866668D01*
X93433856Y-29860355D01*
X93430709Y-29853701D01*
X93428229Y-29846771D01*
X93426441Y-29839632D01*
X93425361Y-29832351D01*
X93425000Y-29825000D01*
X93425000Y-29675000D01*
X93425361Y-29667649D01*
X93426441Y-29660368D01*
X93428229Y-29653229D01*
X93430709Y-29646299D01*
X93433856Y-29639645D01*
X93437640Y-29633332D01*
X93442024Y-29627421D01*
X93446967Y-29621967D01*
X93452421Y-29617024D01*
X93458332Y-29612640D01*
X93464645Y-29608856D01*
X93471299Y-29605709D01*
X93478229Y-29603229D01*
X93485368Y-29601441D01*
X93492649Y-29600361D01*
X93500000Y-29600000D01*
X94825000Y-29600000D01*
X94832351Y-29600361D01*
G37*
G04 #@! TD.AperFunction*
G04 #@! TA.AperFunction,SMDPad,CuDef*
G36*
X94832351Y-30100361D02*
G01*
X94839632Y-30101441D01*
X94846771Y-30103229D01*
X94853701Y-30105709D01*
X94860355Y-30108856D01*
X94866668Y-30112640D01*
X94872579Y-30117024D01*
X94878033Y-30121967D01*
X94882976Y-30127421D01*
X94887360Y-30133332D01*
X94891144Y-30139645D01*
X94894291Y-30146299D01*
X94896771Y-30153229D01*
X94898559Y-30160368D01*
X94899639Y-30167649D01*
X94900000Y-30175000D01*
X94900000Y-30325000D01*
X94899639Y-30332351D01*
X94898559Y-30339632D01*
X94896771Y-30346771D01*
X94894291Y-30353701D01*
X94891144Y-30360355D01*
X94887360Y-30366668D01*
X94882976Y-30372579D01*
X94878033Y-30378033D01*
X94872579Y-30382976D01*
X94866668Y-30387360D01*
X94860355Y-30391144D01*
X94853701Y-30394291D01*
X94846771Y-30396771D01*
X94839632Y-30398559D01*
X94832351Y-30399639D01*
X94825000Y-30400000D01*
X93500000Y-30400000D01*
X93492649Y-30399639D01*
X93485368Y-30398559D01*
X93478229Y-30396771D01*
X93471299Y-30394291D01*
X93464645Y-30391144D01*
X93458332Y-30387360D01*
X93452421Y-30382976D01*
X93446967Y-30378033D01*
X93442024Y-30372579D01*
X93437640Y-30366668D01*
X93433856Y-30360355D01*
X93430709Y-30353701D01*
X93428229Y-30346771D01*
X93426441Y-30339632D01*
X93425361Y-30332351D01*
X93425000Y-30325000D01*
X93425000Y-30175000D01*
X93425361Y-30167649D01*
X93426441Y-30160368D01*
X93428229Y-30153229D01*
X93430709Y-30146299D01*
X93433856Y-30139645D01*
X93437640Y-30133332D01*
X93442024Y-30127421D01*
X93446967Y-30121967D01*
X93452421Y-30117024D01*
X93458332Y-30112640D01*
X93464645Y-30108856D01*
X93471299Y-30105709D01*
X93478229Y-30103229D01*
X93485368Y-30101441D01*
X93492649Y-30100361D01*
X93500000Y-30100000D01*
X94825000Y-30100000D01*
X94832351Y-30100361D01*
G37*
G04 #@! TD.AperFunction*
G04 #@! TA.AperFunction,SMDPad,CuDef*
G36*
X94832351Y-30600361D02*
G01*
X94839632Y-30601441D01*
X94846771Y-30603229D01*
X94853701Y-30605709D01*
X94860355Y-30608856D01*
X94866668Y-30612640D01*
X94872579Y-30617024D01*
X94878033Y-30621967D01*
X94882976Y-30627421D01*
X94887360Y-30633332D01*
X94891144Y-30639645D01*
X94894291Y-30646299D01*
X94896771Y-30653229D01*
X94898559Y-30660368D01*
X94899639Y-30667649D01*
X94900000Y-30675000D01*
X94900000Y-30825000D01*
X94899639Y-30832351D01*
X94898559Y-30839632D01*
X94896771Y-30846771D01*
X94894291Y-30853701D01*
X94891144Y-30860355D01*
X94887360Y-30866668D01*
X94882976Y-30872579D01*
X94878033Y-30878033D01*
X94872579Y-30882976D01*
X94866668Y-30887360D01*
X94860355Y-30891144D01*
X94853701Y-30894291D01*
X94846771Y-30896771D01*
X94839632Y-30898559D01*
X94832351Y-30899639D01*
X94825000Y-30900000D01*
X93500000Y-30900000D01*
X93492649Y-30899639D01*
X93485368Y-30898559D01*
X93478229Y-30896771D01*
X93471299Y-30894291D01*
X93464645Y-30891144D01*
X93458332Y-30887360D01*
X93452421Y-30882976D01*
X93446967Y-30878033D01*
X93442024Y-30872579D01*
X93437640Y-30866668D01*
X93433856Y-30860355D01*
X93430709Y-30853701D01*
X93428229Y-30846771D01*
X93426441Y-30839632D01*
X93425361Y-30832351D01*
X93425000Y-30825000D01*
X93425000Y-30675000D01*
X93425361Y-30667649D01*
X93426441Y-30660368D01*
X93428229Y-30653229D01*
X93430709Y-30646299D01*
X93433856Y-30639645D01*
X93437640Y-30633332D01*
X93442024Y-30627421D01*
X93446967Y-30621967D01*
X93452421Y-30617024D01*
X93458332Y-30612640D01*
X93464645Y-30608856D01*
X93471299Y-30605709D01*
X93478229Y-30603229D01*
X93485368Y-30601441D01*
X93492649Y-30600361D01*
X93500000Y-30600000D01*
X94825000Y-30600000D01*
X94832351Y-30600361D01*
G37*
G04 #@! TD.AperFunction*
G04 #@! TA.AperFunction,SMDPad,CuDef*
G36*
X94832351Y-31100361D02*
G01*
X94839632Y-31101441D01*
X94846771Y-31103229D01*
X94853701Y-31105709D01*
X94860355Y-31108856D01*
X94866668Y-31112640D01*
X94872579Y-31117024D01*
X94878033Y-31121967D01*
X94882976Y-31127421D01*
X94887360Y-31133332D01*
X94891144Y-31139645D01*
X94894291Y-31146299D01*
X94896771Y-31153229D01*
X94898559Y-31160368D01*
X94899639Y-31167649D01*
X94900000Y-31175000D01*
X94900000Y-31325000D01*
X94899639Y-31332351D01*
X94898559Y-31339632D01*
X94896771Y-31346771D01*
X94894291Y-31353701D01*
X94891144Y-31360355D01*
X94887360Y-31366668D01*
X94882976Y-31372579D01*
X94878033Y-31378033D01*
X94872579Y-31382976D01*
X94866668Y-31387360D01*
X94860355Y-31391144D01*
X94853701Y-31394291D01*
X94846771Y-31396771D01*
X94839632Y-31398559D01*
X94832351Y-31399639D01*
X94825000Y-31400000D01*
X93500000Y-31400000D01*
X93492649Y-31399639D01*
X93485368Y-31398559D01*
X93478229Y-31396771D01*
X93471299Y-31394291D01*
X93464645Y-31391144D01*
X93458332Y-31387360D01*
X93452421Y-31382976D01*
X93446967Y-31378033D01*
X93442024Y-31372579D01*
X93437640Y-31366668D01*
X93433856Y-31360355D01*
X93430709Y-31353701D01*
X93428229Y-31346771D01*
X93426441Y-31339632D01*
X93425361Y-31332351D01*
X93425000Y-31325000D01*
X93425000Y-31175000D01*
X93425361Y-31167649D01*
X93426441Y-31160368D01*
X93428229Y-31153229D01*
X93430709Y-31146299D01*
X93433856Y-31139645D01*
X93437640Y-31133332D01*
X93442024Y-31127421D01*
X93446967Y-31121967D01*
X93452421Y-31117024D01*
X93458332Y-31112640D01*
X93464645Y-31108856D01*
X93471299Y-31105709D01*
X93478229Y-31103229D01*
X93485368Y-31101441D01*
X93492649Y-31100361D01*
X93500000Y-31100000D01*
X94825000Y-31100000D01*
X94832351Y-31100361D01*
G37*
G04 #@! TD.AperFunction*
G04 #@! TA.AperFunction,SMDPad,CuDef*
G36*
X94832351Y-31600361D02*
G01*
X94839632Y-31601441D01*
X94846771Y-31603229D01*
X94853701Y-31605709D01*
X94860355Y-31608856D01*
X94866668Y-31612640D01*
X94872579Y-31617024D01*
X94878033Y-31621967D01*
X94882976Y-31627421D01*
X94887360Y-31633332D01*
X94891144Y-31639645D01*
X94894291Y-31646299D01*
X94896771Y-31653229D01*
X94898559Y-31660368D01*
X94899639Y-31667649D01*
X94900000Y-31675000D01*
X94900000Y-31825000D01*
X94899639Y-31832351D01*
X94898559Y-31839632D01*
X94896771Y-31846771D01*
X94894291Y-31853701D01*
X94891144Y-31860355D01*
X94887360Y-31866668D01*
X94882976Y-31872579D01*
X94878033Y-31878033D01*
X94872579Y-31882976D01*
X94866668Y-31887360D01*
X94860355Y-31891144D01*
X94853701Y-31894291D01*
X94846771Y-31896771D01*
X94839632Y-31898559D01*
X94832351Y-31899639D01*
X94825000Y-31900000D01*
X93500000Y-31900000D01*
X93492649Y-31899639D01*
X93485368Y-31898559D01*
X93478229Y-31896771D01*
X93471299Y-31894291D01*
X93464645Y-31891144D01*
X93458332Y-31887360D01*
X93452421Y-31882976D01*
X93446967Y-31878033D01*
X93442024Y-31872579D01*
X93437640Y-31866668D01*
X93433856Y-31860355D01*
X93430709Y-31853701D01*
X93428229Y-31846771D01*
X93426441Y-31839632D01*
X93425361Y-31832351D01*
X93425000Y-31825000D01*
X93425000Y-31675000D01*
X93425361Y-31667649D01*
X93426441Y-31660368D01*
X93428229Y-31653229D01*
X93430709Y-31646299D01*
X93433856Y-31639645D01*
X93437640Y-31633332D01*
X93442024Y-31627421D01*
X93446967Y-31621967D01*
X93452421Y-31617024D01*
X93458332Y-31612640D01*
X93464645Y-31608856D01*
X93471299Y-31605709D01*
X93478229Y-31603229D01*
X93485368Y-31601441D01*
X93492649Y-31600361D01*
X93500000Y-31600000D01*
X94825000Y-31600000D01*
X94832351Y-31600361D01*
G37*
G04 #@! TD.AperFunction*
G04 #@! TA.AperFunction,SMDPad,CuDef*
G36*
X94832351Y-32100361D02*
G01*
X94839632Y-32101441D01*
X94846771Y-32103229D01*
X94853701Y-32105709D01*
X94860355Y-32108856D01*
X94866668Y-32112640D01*
X94872579Y-32117024D01*
X94878033Y-32121967D01*
X94882976Y-32127421D01*
X94887360Y-32133332D01*
X94891144Y-32139645D01*
X94894291Y-32146299D01*
X94896771Y-32153229D01*
X94898559Y-32160368D01*
X94899639Y-32167649D01*
X94900000Y-32175000D01*
X94900000Y-32325000D01*
X94899639Y-32332351D01*
X94898559Y-32339632D01*
X94896771Y-32346771D01*
X94894291Y-32353701D01*
X94891144Y-32360355D01*
X94887360Y-32366668D01*
X94882976Y-32372579D01*
X94878033Y-32378033D01*
X94872579Y-32382976D01*
X94866668Y-32387360D01*
X94860355Y-32391144D01*
X94853701Y-32394291D01*
X94846771Y-32396771D01*
X94839632Y-32398559D01*
X94832351Y-32399639D01*
X94825000Y-32400000D01*
X93500000Y-32400000D01*
X93492649Y-32399639D01*
X93485368Y-32398559D01*
X93478229Y-32396771D01*
X93471299Y-32394291D01*
X93464645Y-32391144D01*
X93458332Y-32387360D01*
X93452421Y-32382976D01*
X93446967Y-32378033D01*
X93442024Y-32372579D01*
X93437640Y-32366668D01*
X93433856Y-32360355D01*
X93430709Y-32353701D01*
X93428229Y-32346771D01*
X93426441Y-32339632D01*
X93425361Y-32332351D01*
X93425000Y-32325000D01*
X93425000Y-32175000D01*
X93425361Y-32167649D01*
X93426441Y-32160368D01*
X93428229Y-32153229D01*
X93430709Y-32146299D01*
X93433856Y-32139645D01*
X93437640Y-32133332D01*
X93442024Y-32127421D01*
X93446967Y-32121967D01*
X93452421Y-32117024D01*
X93458332Y-32112640D01*
X93464645Y-32108856D01*
X93471299Y-32105709D01*
X93478229Y-32103229D01*
X93485368Y-32101441D01*
X93492649Y-32100361D01*
X93500000Y-32100000D01*
X94825000Y-32100000D01*
X94832351Y-32100361D01*
G37*
G04 #@! TD.AperFunction*
G04 #@! TA.AperFunction,SMDPad,CuDef*
G36*
X94832351Y-32600361D02*
G01*
X94839632Y-32601441D01*
X94846771Y-32603229D01*
X94853701Y-32605709D01*
X94860355Y-32608856D01*
X94866668Y-32612640D01*
X94872579Y-32617024D01*
X94878033Y-32621967D01*
X94882976Y-32627421D01*
X94887360Y-32633332D01*
X94891144Y-32639645D01*
X94894291Y-32646299D01*
X94896771Y-32653229D01*
X94898559Y-32660368D01*
X94899639Y-32667649D01*
X94900000Y-32675000D01*
X94900000Y-32825000D01*
X94899639Y-32832351D01*
X94898559Y-32839632D01*
X94896771Y-32846771D01*
X94894291Y-32853701D01*
X94891144Y-32860355D01*
X94887360Y-32866668D01*
X94882976Y-32872579D01*
X94878033Y-32878033D01*
X94872579Y-32882976D01*
X94866668Y-32887360D01*
X94860355Y-32891144D01*
X94853701Y-32894291D01*
X94846771Y-32896771D01*
X94839632Y-32898559D01*
X94832351Y-32899639D01*
X94825000Y-32900000D01*
X93500000Y-32900000D01*
X93492649Y-32899639D01*
X93485368Y-32898559D01*
X93478229Y-32896771D01*
X93471299Y-32894291D01*
X93464645Y-32891144D01*
X93458332Y-32887360D01*
X93452421Y-32882976D01*
X93446967Y-32878033D01*
X93442024Y-32872579D01*
X93437640Y-32866668D01*
X93433856Y-32860355D01*
X93430709Y-32853701D01*
X93428229Y-32846771D01*
X93426441Y-32839632D01*
X93425361Y-32832351D01*
X93425000Y-32825000D01*
X93425000Y-32675000D01*
X93425361Y-32667649D01*
X93426441Y-32660368D01*
X93428229Y-32653229D01*
X93430709Y-32646299D01*
X93433856Y-32639645D01*
X93437640Y-32633332D01*
X93442024Y-32627421D01*
X93446967Y-32621967D01*
X93452421Y-32617024D01*
X93458332Y-32612640D01*
X93464645Y-32608856D01*
X93471299Y-32605709D01*
X93478229Y-32603229D01*
X93485368Y-32601441D01*
X93492649Y-32600361D01*
X93500000Y-32600000D01*
X94825000Y-32600000D01*
X94832351Y-32600361D01*
G37*
G04 #@! TD.AperFunction*
G04 #@! TA.AperFunction,SMDPad,CuDef*
G36*
X94832351Y-33100361D02*
G01*
X94839632Y-33101441D01*
X94846771Y-33103229D01*
X94853701Y-33105709D01*
X94860355Y-33108856D01*
X94866668Y-33112640D01*
X94872579Y-33117024D01*
X94878033Y-33121967D01*
X94882976Y-33127421D01*
X94887360Y-33133332D01*
X94891144Y-33139645D01*
X94894291Y-33146299D01*
X94896771Y-33153229D01*
X94898559Y-33160368D01*
X94899639Y-33167649D01*
X94900000Y-33175000D01*
X94900000Y-33325000D01*
X94899639Y-33332351D01*
X94898559Y-33339632D01*
X94896771Y-33346771D01*
X94894291Y-33353701D01*
X94891144Y-33360355D01*
X94887360Y-33366668D01*
X94882976Y-33372579D01*
X94878033Y-33378033D01*
X94872579Y-33382976D01*
X94866668Y-33387360D01*
X94860355Y-33391144D01*
X94853701Y-33394291D01*
X94846771Y-33396771D01*
X94839632Y-33398559D01*
X94832351Y-33399639D01*
X94825000Y-33400000D01*
X93500000Y-33400000D01*
X93492649Y-33399639D01*
X93485368Y-33398559D01*
X93478229Y-33396771D01*
X93471299Y-33394291D01*
X93464645Y-33391144D01*
X93458332Y-33387360D01*
X93452421Y-33382976D01*
X93446967Y-33378033D01*
X93442024Y-33372579D01*
X93437640Y-33366668D01*
X93433856Y-33360355D01*
X93430709Y-33353701D01*
X93428229Y-33346771D01*
X93426441Y-33339632D01*
X93425361Y-33332351D01*
X93425000Y-33325000D01*
X93425000Y-33175000D01*
X93425361Y-33167649D01*
X93426441Y-33160368D01*
X93428229Y-33153229D01*
X93430709Y-33146299D01*
X93433856Y-33139645D01*
X93437640Y-33133332D01*
X93442024Y-33127421D01*
X93446967Y-33121967D01*
X93452421Y-33117024D01*
X93458332Y-33112640D01*
X93464645Y-33108856D01*
X93471299Y-33105709D01*
X93478229Y-33103229D01*
X93485368Y-33101441D01*
X93492649Y-33100361D01*
X93500000Y-33100000D01*
X94825000Y-33100000D01*
X94832351Y-33100361D01*
G37*
G04 #@! TD.AperFunction*
G04 #@! TA.AperFunction,SMDPad,CuDef*
G36*
X94832351Y-33600361D02*
G01*
X94839632Y-33601441D01*
X94846771Y-33603229D01*
X94853701Y-33605709D01*
X94860355Y-33608856D01*
X94866668Y-33612640D01*
X94872579Y-33617024D01*
X94878033Y-33621967D01*
X94882976Y-33627421D01*
X94887360Y-33633332D01*
X94891144Y-33639645D01*
X94894291Y-33646299D01*
X94896771Y-33653229D01*
X94898559Y-33660368D01*
X94899639Y-33667649D01*
X94900000Y-33675000D01*
X94900000Y-33825000D01*
X94899639Y-33832351D01*
X94898559Y-33839632D01*
X94896771Y-33846771D01*
X94894291Y-33853701D01*
X94891144Y-33860355D01*
X94887360Y-33866668D01*
X94882976Y-33872579D01*
X94878033Y-33878033D01*
X94872579Y-33882976D01*
X94866668Y-33887360D01*
X94860355Y-33891144D01*
X94853701Y-33894291D01*
X94846771Y-33896771D01*
X94839632Y-33898559D01*
X94832351Y-33899639D01*
X94825000Y-33900000D01*
X93500000Y-33900000D01*
X93492649Y-33899639D01*
X93485368Y-33898559D01*
X93478229Y-33896771D01*
X93471299Y-33894291D01*
X93464645Y-33891144D01*
X93458332Y-33887360D01*
X93452421Y-33882976D01*
X93446967Y-33878033D01*
X93442024Y-33872579D01*
X93437640Y-33866668D01*
X93433856Y-33860355D01*
X93430709Y-33853701D01*
X93428229Y-33846771D01*
X93426441Y-33839632D01*
X93425361Y-33832351D01*
X93425000Y-33825000D01*
X93425000Y-33675000D01*
X93425361Y-33667649D01*
X93426441Y-33660368D01*
X93428229Y-33653229D01*
X93430709Y-33646299D01*
X93433856Y-33639645D01*
X93437640Y-33633332D01*
X93442024Y-33627421D01*
X93446967Y-33621967D01*
X93452421Y-33617024D01*
X93458332Y-33612640D01*
X93464645Y-33608856D01*
X93471299Y-33605709D01*
X93478229Y-33603229D01*
X93485368Y-33601441D01*
X93492649Y-33600361D01*
X93500000Y-33600000D01*
X94825000Y-33600000D01*
X94832351Y-33600361D01*
G37*
G04 #@! TD.AperFunction*
G04 #@! TA.AperFunction,SMDPad,CuDef*
G36*
X94832351Y-34100361D02*
G01*
X94839632Y-34101441D01*
X94846771Y-34103229D01*
X94853701Y-34105709D01*
X94860355Y-34108856D01*
X94866668Y-34112640D01*
X94872579Y-34117024D01*
X94878033Y-34121967D01*
X94882976Y-34127421D01*
X94887360Y-34133332D01*
X94891144Y-34139645D01*
X94894291Y-34146299D01*
X94896771Y-34153229D01*
X94898559Y-34160368D01*
X94899639Y-34167649D01*
X94900000Y-34175000D01*
X94900000Y-34325000D01*
X94899639Y-34332351D01*
X94898559Y-34339632D01*
X94896771Y-34346771D01*
X94894291Y-34353701D01*
X94891144Y-34360355D01*
X94887360Y-34366668D01*
X94882976Y-34372579D01*
X94878033Y-34378033D01*
X94872579Y-34382976D01*
X94866668Y-34387360D01*
X94860355Y-34391144D01*
X94853701Y-34394291D01*
X94846771Y-34396771D01*
X94839632Y-34398559D01*
X94832351Y-34399639D01*
X94825000Y-34400000D01*
X93500000Y-34400000D01*
X93492649Y-34399639D01*
X93485368Y-34398559D01*
X93478229Y-34396771D01*
X93471299Y-34394291D01*
X93464645Y-34391144D01*
X93458332Y-34387360D01*
X93452421Y-34382976D01*
X93446967Y-34378033D01*
X93442024Y-34372579D01*
X93437640Y-34366668D01*
X93433856Y-34360355D01*
X93430709Y-34353701D01*
X93428229Y-34346771D01*
X93426441Y-34339632D01*
X93425361Y-34332351D01*
X93425000Y-34325000D01*
X93425000Y-34175000D01*
X93425361Y-34167649D01*
X93426441Y-34160368D01*
X93428229Y-34153229D01*
X93430709Y-34146299D01*
X93433856Y-34139645D01*
X93437640Y-34133332D01*
X93442024Y-34127421D01*
X93446967Y-34121967D01*
X93452421Y-34117024D01*
X93458332Y-34112640D01*
X93464645Y-34108856D01*
X93471299Y-34105709D01*
X93478229Y-34103229D01*
X93485368Y-34101441D01*
X93492649Y-34100361D01*
X93500000Y-34100000D01*
X94825000Y-34100000D01*
X94832351Y-34100361D01*
G37*
G04 #@! TD.AperFunction*
G04 #@! TA.AperFunction,SMDPad,CuDef*
G36*
X102158232Y-27180650D02*
G01*
X102171337Y-27182594D01*
X102184188Y-27185813D01*
X102196662Y-27190276D01*
X102208639Y-27195941D01*
X102220002Y-27202752D01*
X102230643Y-27210644D01*
X102240459Y-27219541D01*
X102249356Y-27229357D01*
X102257248Y-27239998D01*
X102264059Y-27251361D01*
X102269724Y-27263338D01*
X102274187Y-27275812D01*
X102277406Y-27288663D01*
X102279350Y-27301768D01*
X102280000Y-27315000D01*
X102280000Y-27685000D01*
X102279350Y-27698232D01*
X102277406Y-27711337D01*
X102274187Y-27724188D01*
X102269724Y-27736662D01*
X102264059Y-27748639D01*
X102257248Y-27760002D01*
X102249356Y-27770643D01*
X102240459Y-27780459D01*
X102230643Y-27789356D01*
X102220002Y-27797248D01*
X102208639Y-27804059D01*
X102196662Y-27809724D01*
X102184188Y-27814187D01*
X102171337Y-27817406D01*
X102158232Y-27819350D01*
X102145000Y-27820000D01*
X101875000Y-27820000D01*
X101861768Y-27819350D01*
X101848663Y-27817406D01*
X101835812Y-27814187D01*
X101823338Y-27809724D01*
X101811361Y-27804059D01*
X101799998Y-27797248D01*
X101789357Y-27789356D01*
X101779541Y-27780459D01*
X101770644Y-27770643D01*
X101762752Y-27760002D01*
X101755941Y-27748639D01*
X101750276Y-27736662D01*
X101745813Y-27724188D01*
X101742594Y-27711337D01*
X101740650Y-27698232D01*
X101740000Y-27685000D01*
X101740000Y-27315000D01*
X101740650Y-27301768D01*
X101742594Y-27288663D01*
X101745813Y-27275812D01*
X101750276Y-27263338D01*
X101755941Y-27251361D01*
X101762752Y-27239998D01*
X101770644Y-27229357D01*
X101779541Y-27219541D01*
X101789357Y-27210644D01*
X101799998Y-27202752D01*
X101811361Y-27195941D01*
X101823338Y-27190276D01*
X101835812Y-27185813D01*
X101848663Y-27182594D01*
X101861768Y-27180650D01*
X101875000Y-27180000D01*
X102145000Y-27180000D01*
X102158232Y-27180650D01*
G37*
G04 #@! TD.AperFunction*
G04 #@! TA.AperFunction,SMDPad,CuDef*
G36*
X101138232Y-27180650D02*
G01*
X101151337Y-27182594D01*
X101164188Y-27185813D01*
X101176662Y-27190276D01*
X101188639Y-27195941D01*
X101200002Y-27202752D01*
X101210643Y-27210644D01*
X101220459Y-27219541D01*
X101229356Y-27229357D01*
X101237248Y-27239998D01*
X101244059Y-27251361D01*
X101249724Y-27263338D01*
X101254187Y-27275812D01*
X101257406Y-27288663D01*
X101259350Y-27301768D01*
X101260000Y-27315000D01*
X101260000Y-27685000D01*
X101259350Y-27698232D01*
X101257406Y-27711337D01*
X101254187Y-27724188D01*
X101249724Y-27736662D01*
X101244059Y-27748639D01*
X101237248Y-27760002D01*
X101229356Y-27770643D01*
X101220459Y-27780459D01*
X101210643Y-27789356D01*
X101200002Y-27797248D01*
X101188639Y-27804059D01*
X101176662Y-27809724D01*
X101164188Y-27814187D01*
X101151337Y-27817406D01*
X101138232Y-27819350D01*
X101125000Y-27820000D01*
X100855000Y-27820000D01*
X100841768Y-27819350D01*
X100828663Y-27817406D01*
X100815812Y-27814187D01*
X100803338Y-27809724D01*
X100791361Y-27804059D01*
X100779998Y-27797248D01*
X100769357Y-27789356D01*
X100759541Y-27780459D01*
X100750644Y-27770643D01*
X100742752Y-27760002D01*
X100735941Y-27748639D01*
X100730276Y-27736662D01*
X100725813Y-27724188D01*
X100722594Y-27711337D01*
X100720650Y-27698232D01*
X100720000Y-27685000D01*
X100720000Y-27315000D01*
X100720650Y-27301768D01*
X100722594Y-27288663D01*
X100725813Y-27275812D01*
X100730276Y-27263338D01*
X100735941Y-27251361D01*
X100742752Y-27239998D01*
X100750644Y-27229357D01*
X100759541Y-27219541D01*
X100769357Y-27210644D01*
X100779998Y-27202752D01*
X100791361Y-27195941D01*
X100803338Y-27190276D01*
X100815812Y-27185813D01*
X100828663Y-27182594D01*
X100841768Y-27180650D01*
X100855000Y-27180000D01*
X101125000Y-27180000D01*
X101138232Y-27180650D01*
G37*
G04 #@! TD.AperFunction*
G04 #@! TA.AperFunction,SMDPad,CuDef*
G36*
X96948232Y-40470650D02*
G01*
X96961337Y-40472594D01*
X96974188Y-40475813D01*
X96986662Y-40480276D01*
X96998639Y-40485941D01*
X97010002Y-40492752D01*
X97020643Y-40500644D01*
X97030459Y-40509541D01*
X97039356Y-40519357D01*
X97047248Y-40529998D01*
X97054059Y-40541361D01*
X97059724Y-40553338D01*
X97064187Y-40565812D01*
X97067406Y-40578663D01*
X97069350Y-40591768D01*
X97070000Y-40605000D01*
X97070000Y-40875000D01*
X97069350Y-40888232D01*
X97067406Y-40901337D01*
X97064187Y-40914188D01*
X97059724Y-40926662D01*
X97054059Y-40938639D01*
X97047248Y-40950002D01*
X97039356Y-40960643D01*
X97030459Y-40970459D01*
X97020643Y-40979356D01*
X97010002Y-40987248D01*
X96998639Y-40994059D01*
X96986662Y-40999724D01*
X96974188Y-41004187D01*
X96961337Y-41007406D01*
X96948232Y-41009350D01*
X96935000Y-41010000D01*
X96565000Y-41010000D01*
X96551768Y-41009350D01*
X96538663Y-41007406D01*
X96525812Y-41004187D01*
X96513338Y-40999724D01*
X96501361Y-40994059D01*
X96489998Y-40987248D01*
X96479357Y-40979356D01*
X96469541Y-40970459D01*
X96460644Y-40960643D01*
X96452752Y-40950002D01*
X96445941Y-40938639D01*
X96440276Y-40926662D01*
X96435813Y-40914188D01*
X96432594Y-40901337D01*
X96430650Y-40888232D01*
X96430000Y-40875000D01*
X96430000Y-40605000D01*
X96430650Y-40591768D01*
X96432594Y-40578663D01*
X96435813Y-40565812D01*
X96440276Y-40553338D01*
X96445941Y-40541361D01*
X96452752Y-40529998D01*
X96460644Y-40519357D01*
X96469541Y-40509541D01*
X96479357Y-40500644D01*
X96489998Y-40492752D01*
X96501361Y-40485941D01*
X96513338Y-40480276D01*
X96525812Y-40475813D01*
X96538663Y-40472594D01*
X96551768Y-40470650D01*
X96565000Y-40470000D01*
X96935000Y-40470000D01*
X96948232Y-40470650D01*
G37*
G04 #@! TD.AperFunction*
G04 #@! TA.AperFunction,SMDPad,CuDef*
G36*
X96948232Y-41490650D02*
G01*
X96961337Y-41492594D01*
X96974188Y-41495813D01*
X96986662Y-41500276D01*
X96998639Y-41505941D01*
X97010002Y-41512752D01*
X97020643Y-41520644D01*
X97030459Y-41529541D01*
X97039356Y-41539357D01*
X97047248Y-41549998D01*
X97054059Y-41561361D01*
X97059724Y-41573338D01*
X97064187Y-41585812D01*
X97067406Y-41598663D01*
X97069350Y-41611768D01*
X97070000Y-41625000D01*
X97070000Y-41895000D01*
X97069350Y-41908232D01*
X97067406Y-41921337D01*
X97064187Y-41934188D01*
X97059724Y-41946662D01*
X97054059Y-41958639D01*
X97047248Y-41970002D01*
X97039356Y-41980643D01*
X97030459Y-41990459D01*
X97020643Y-41999356D01*
X97010002Y-42007248D01*
X96998639Y-42014059D01*
X96986662Y-42019724D01*
X96974188Y-42024187D01*
X96961337Y-42027406D01*
X96948232Y-42029350D01*
X96935000Y-42030000D01*
X96565000Y-42030000D01*
X96551768Y-42029350D01*
X96538663Y-42027406D01*
X96525812Y-42024187D01*
X96513338Y-42019724D01*
X96501361Y-42014059D01*
X96489998Y-42007248D01*
X96479357Y-41999356D01*
X96469541Y-41990459D01*
X96460644Y-41980643D01*
X96452752Y-41970002D01*
X96445941Y-41958639D01*
X96440276Y-41946662D01*
X96435813Y-41934188D01*
X96432594Y-41921337D01*
X96430650Y-41908232D01*
X96430000Y-41895000D01*
X96430000Y-41625000D01*
X96430650Y-41611768D01*
X96432594Y-41598663D01*
X96435813Y-41585812D01*
X96440276Y-41573338D01*
X96445941Y-41561361D01*
X96452752Y-41549998D01*
X96460644Y-41539357D01*
X96469541Y-41529541D01*
X96479357Y-41520644D01*
X96489998Y-41512752D01*
X96501361Y-41505941D01*
X96513338Y-41500276D01*
X96525812Y-41495813D01*
X96538663Y-41492594D01*
X96551768Y-41490650D01*
X96565000Y-41490000D01*
X96935000Y-41490000D01*
X96948232Y-41490650D01*
G37*
G04 #@! TD.AperFunction*
G04 #@! TA.AperFunction,SMDPad,CuDef*
G36*
X98948232Y-36470650D02*
G01*
X98961337Y-36472594D01*
X98974188Y-36475813D01*
X98986662Y-36480276D01*
X98998639Y-36485941D01*
X99010002Y-36492752D01*
X99020643Y-36500644D01*
X99030459Y-36509541D01*
X99039356Y-36519357D01*
X99047248Y-36529998D01*
X99054059Y-36541361D01*
X99059724Y-36553338D01*
X99064187Y-36565812D01*
X99067406Y-36578663D01*
X99069350Y-36591768D01*
X99070000Y-36605000D01*
X99070000Y-36875000D01*
X99069350Y-36888232D01*
X99067406Y-36901337D01*
X99064187Y-36914188D01*
X99059724Y-36926662D01*
X99054059Y-36938639D01*
X99047248Y-36950002D01*
X99039356Y-36960643D01*
X99030459Y-36970459D01*
X99020643Y-36979356D01*
X99010002Y-36987248D01*
X98998639Y-36994059D01*
X98986662Y-36999724D01*
X98974188Y-37004187D01*
X98961337Y-37007406D01*
X98948232Y-37009350D01*
X98935000Y-37010000D01*
X98565000Y-37010000D01*
X98551768Y-37009350D01*
X98538663Y-37007406D01*
X98525812Y-37004187D01*
X98513338Y-36999724D01*
X98501361Y-36994059D01*
X98489998Y-36987248D01*
X98479357Y-36979356D01*
X98469541Y-36970459D01*
X98460644Y-36960643D01*
X98452752Y-36950002D01*
X98445941Y-36938639D01*
X98440276Y-36926662D01*
X98435813Y-36914188D01*
X98432594Y-36901337D01*
X98430650Y-36888232D01*
X98430000Y-36875000D01*
X98430000Y-36605000D01*
X98430650Y-36591768D01*
X98432594Y-36578663D01*
X98435813Y-36565812D01*
X98440276Y-36553338D01*
X98445941Y-36541361D01*
X98452752Y-36529998D01*
X98460644Y-36519357D01*
X98469541Y-36509541D01*
X98479357Y-36500644D01*
X98489998Y-36492752D01*
X98501361Y-36485941D01*
X98513338Y-36480276D01*
X98525812Y-36475813D01*
X98538663Y-36472594D01*
X98551768Y-36470650D01*
X98565000Y-36470000D01*
X98935000Y-36470000D01*
X98948232Y-36470650D01*
G37*
G04 #@! TD.AperFunction*
G04 #@! TA.AperFunction,SMDPad,CuDef*
G36*
X98948232Y-37490650D02*
G01*
X98961337Y-37492594D01*
X98974188Y-37495813D01*
X98986662Y-37500276D01*
X98998639Y-37505941D01*
X99010002Y-37512752D01*
X99020643Y-37520644D01*
X99030459Y-37529541D01*
X99039356Y-37539357D01*
X99047248Y-37549998D01*
X99054059Y-37561361D01*
X99059724Y-37573338D01*
X99064187Y-37585812D01*
X99067406Y-37598663D01*
X99069350Y-37611768D01*
X99070000Y-37625000D01*
X99070000Y-37895000D01*
X99069350Y-37908232D01*
X99067406Y-37921337D01*
X99064187Y-37934188D01*
X99059724Y-37946662D01*
X99054059Y-37958639D01*
X99047248Y-37970002D01*
X99039356Y-37980643D01*
X99030459Y-37990459D01*
X99020643Y-37999356D01*
X99010002Y-38007248D01*
X98998639Y-38014059D01*
X98986662Y-38019724D01*
X98974188Y-38024187D01*
X98961337Y-38027406D01*
X98948232Y-38029350D01*
X98935000Y-38030000D01*
X98565000Y-38030000D01*
X98551768Y-38029350D01*
X98538663Y-38027406D01*
X98525812Y-38024187D01*
X98513338Y-38019724D01*
X98501361Y-38014059D01*
X98489998Y-38007248D01*
X98479357Y-37999356D01*
X98469541Y-37990459D01*
X98460644Y-37980643D01*
X98452752Y-37970002D01*
X98445941Y-37958639D01*
X98440276Y-37946662D01*
X98435813Y-37934188D01*
X98432594Y-37921337D01*
X98430650Y-37908232D01*
X98430000Y-37895000D01*
X98430000Y-37625000D01*
X98430650Y-37611768D01*
X98432594Y-37598663D01*
X98435813Y-37585812D01*
X98440276Y-37573338D01*
X98445941Y-37561361D01*
X98452752Y-37549998D01*
X98460644Y-37539357D01*
X98469541Y-37529541D01*
X98479357Y-37520644D01*
X98489998Y-37512752D01*
X98501361Y-37505941D01*
X98513338Y-37500276D01*
X98525812Y-37495813D01*
X98538663Y-37492594D01*
X98551768Y-37490650D01*
X98565000Y-37490000D01*
X98935000Y-37490000D01*
X98948232Y-37490650D01*
G37*
G04 #@! TD.AperFunction*
G04 #@! TA.AperFunction,SMDPad,CuDef*
G36*
X100948232Y-28470650D02*
G01*
X100961337Y-28472594D01*
X100974188Y-28475813D01*
X100986662Y-28480276D01*
X100998639Y-28485941D01*
X101010002Y-28492752D01*
X101020643Y-28500644D01*
X101030459Y-28509541D01*
X101039356Y-28519357D01*
X101047248Y-28529998D01*
X101054059Y-28541361D01*
X101059724Y-28553338D01*
X101064187Y-28565812D01*
X101067406Y-28578663D01*
X101069350Y-28591768D01*
X101070000Y-28605000D01*
X101070000Y-28875000D01*
X101069350Y-28888232D01*
X101067406Y-28901337D01*
X101064187Y-28914188D01*
X101059724Y-28926662D01*
X101054059Y-28938639D01*
X101047248Y-28950002D01*
X101039356Y-28960643D01*
X101030459Y-28970459D01*
X101020643Y-28979356D01*
X101010002Y-28987248D01*
X100998639Y-28994059D01*
X100986662Y-28999724D01*
X100974188Y-29004187D01*
X100961337Y-29007406D01*
X100948232Y-29009350D01*
X100935000Y-29010000D01*
X100565000Y-29010000D01*
X100551768Y-29009350D01*
X100538663Y-29007406D01*
X100525812Y-29004187D01*
X100513338Y-28999724D01*
X100501361Y-28994059D01*
X100489998Y-28987248D01*
X100479357Y-28979356D01*
X100469541Y-28970459D01*
X100460644Y-28960643D01*
X100452752Y-28950002D01*
X100445941Y-28938639D01*
X100440276Y-28926662D01*
X100435813Y-28914188D01*
X100432594Y-28901337D01*
X100430650Y-28888232D01*
X100430000Y-28875000D01*
X100430000Y-28605000D01*
X100430650Y-28591768D01*
X100432594Y-28578663D01*
X100435813Y-28565812D01*
X100440276Y-28553338D01*
X100445941Y-28541361D01*
X100452752Y-28529998D01*
X100460644Y-28519357D01*
X100469541Y-28509541D01*
X100479357Y-28500644D01*
X100489998Y-28492752D01*
X100501361Y-28485941D01*
X100513338Y-28480276D01*
X100525812Y-28475813D01*
X100538663Y-28472594D01*
X100551768Y-28470650D01*
X100565000Y-28470000D01*
X100935000Y-28470000D01*
X100948232Y-28470650D01*
G37*
G04 #@! TD.AperFunction*
G04 #@! TA.AperFunction,SMDPad,CuDef*
G36*
X100948232Y-29490650D02*
G01*
X100961337Y-29492594D01*
X100974188Y-29495813D01*
X100986662Y-29500276D01*
X100998639Y-29505941D01*
X101010002Y-29512752D01*
X101020643Y-29520644D01*
X101030459Y-29529541D01*
X101039356Y-29539357D01*
X101047248Y-29549998D01*
X101054059Y-29561361D01*
X101059724Y-29573338D01*
X101064187Y-29585812D01*
X101067406Y-29598663D01*
X101069350Y-29611768D01*
X101070000Y-29625000D01*
X101070000Y-29895000D01*
X101069350Y-29908232D01*
X101067406Y-29921337D01*
X101064187Y-29934188D01*
X101059724Y-29946662D01*
X101054059Y-29958639D01*
X101047248Y-29970002D01*
X101039356Y-29980643D01*
X101030459Y-29990459D01*
X101020643Y-29999356D01*
X101010002Y-30007248D01*
X100998639Y-30014059D01*
X100986662Y-30019724D01*
X100974188Y-30024187D01*
X100961337Y-30027406D01*
X100948232Y-30029350D01*
X100935000Y-30030000D01*
X100565000Y-30030000D01*
X100551768Y-30029350D01*
X100538663Y-30027406D01*
X100525812Y-30024187D01*
X100513338Y-30019724D01*
X100501361Y-30014059D01*
X100489998Y-30007248D01*
X100479357Y-29999356D01*
X100469541Y-29990459D01*
X100460644Y-29980643D01*
X100452752Y-29970002D01*
X100445941Y-29958639D01*
X100440276Y-29946662D01*
X100435813Y-29934188D01*
X100432594Y-29921337D01*
X100430650Y-29908232D01*
X100430000Y-29895000D01*
X100430000Y-29625000D01*
X100430650Y-29611768D01*
X100432594Y-29598663D01*
X100435813Y-29585812D01*
X100440276Y-29573338D01*
X100445941Y-29561361D01*
X100452752Y-29549998D01*
X100460644Y-29539357D01*
X100469541Y-29529541D01*
X100479357Y-29520644D01*
X100489998Y-29512752D01*
X100501361Y-29505941D01*
X100513338Y-29500276D01*
X100525812Y-29495813D01*
X100538663Y-29492594D01*
X100551768Y-29490650D01*
X100565000Y-29490000D01*
X100935000Y-29490000D01*
X100948232Y-29490650D01*
G37*
G04 #@! TD.AperFunction*
G04 #@! TA.AperFunction,SMDPad,CuDef*
G36*
X99638232Y-38680650D02*
G01*
X99651337Y-38682594D01*
X99664188Y-38685813D01*
X99676662Y-38690276D01*
X99688639Y-38695941D01*
X99700002Y-38702752D01*
X99710643Y-38710644D01*
X99720459Y-38719541D01*
X99729356Y-38729357D01*
X99737248Y-38739998D01*
X99744059Y-38751361D01*
X99749724Y-38763338D01*
X99754187Y-38775812D01*
X99757406Y-38788663D01*
X99759350Y-38801768D01*
X99760000Y-38815000D01*
X99760000Y-39185000D01*
X99759350Y-39198232D01*
X99757406Y-39211337D01*
X99754187Y-39224188D01*
X99749724Y-39236662D01*
X99744059Y-39248639D01*
X99737248Y-39260002D01*
X99729356Y-39270643D01*
X99720459Y-39280459D01*
X99710643Y-39289356D01*
X99700002Y-39297248D01*
X99688639Y-39304059D01*
X99676662Y-39309724D01*
X99664188Y-39314187D01*
X99651337Y-39317406D01*
X99638232Y-39319350D01*
X99625000Y-39320000D01*
X99355000Y-39320000D01*
X99341768Y-39319350D01*
X99328663Y-39317406D01*
X99315812Y-39314187D01*
X99303338Y-39309724D01*
X99291361Y-39304059D01*
X99279998Y-39297248D01*
X99269357Y-39289356D01*
X99259541Y-39280459D01*
X99250644Y-39270643D01*
X99242752Y-39260002D01*
X99235941Y-39248639D01*
X99230276Y-39236662D01*
X99225813Y-39224188D01*
X99222594Y-39211337D01*
X99220650Y-39198232D01*
X99220000Y-39185000D01*
X99220000Y-38815000D01*
X99220650Y-38801768D01*
X99222594Y-38788663D01*
X99225813Y-38775812D01*
X99230276Y-38763338D01*
X99235941Y-38751361D01*
X99242752Y-38739998D01*
X99250644Y-38729357D01*
X99259541Y-38719541D01*
X99269357Y-38710644D01*
X99279998Y-38702752D01*
X99291361Y-38695941D01*
X99303338Y-38690276D01*
X99315812Y-38685813D01*
X99328663Y-38682594D01*
X99341768Y-38680650D01*
X99355000Y-38680000D01*
X99625000Y-38680000D01*
X99638232Y-38680650D01*
G37*
G04 #@! TD.AperFunction*
G04 #@! TA.AperFunction,SMDPad,CuDef*
G36*
X100658232Y-38680650D02*
G01*
X100671337Y-38682594D01*
X100684188Y-38685813D01*
X100696662Y-38690276D01*
X100708639Y-38695941D01*
X100720002Y-38702752D01*
X100730643Y-38710644D01*
X100740459Y-38719541D01*
X100749356Y-38729357D01*
X100757248Y-38739998D01*
X100764059Y-38751361D01*
X100769724Y-38763338D01*
X100774187Y-38775812D01*
X100777406Y-38788663D01*
X100779350Y-38801768D01*
X100780000Y-38815000D01*
X100780000Y-39185000D01*
X100779350Y-39198232D01*
X100777406Y-39211337D01*
X100774187Y-39224188D01*
X100769724Y-39236662D01*
X100764059Y-39248639D01*
X100757248Y-39260002D01*
X100749356Y-39270643D01*
X100740459Y-39280459D01*
X100730643Y-39289356D01*
X100720002Y-39297248D01*
X100708639Y-39304059D01*
X100696662Y-39309724D01*
X100684188Y-39314187D01*
X100671337Y-39317406D01*
X100658232Y-39319350D01*
X100645000Y-39320000D01*
X100375000Y-39320000D01*
X100361768Y-39319350D01*
X100348663Y-39317406D01*
X100335812Y-39314187D01*
X100323338Y-39309724D01*
X100311361Y-39304059D01*
X100299998Y-39297248D01*
X100289357Y-39289356D01*
X100279541Y-39280459D01*
X100270644Y-39270643D01*
X100262752Y-39260002D01*
X100255941Y-39248639D01*
X100250276Y-39236662D01*
X100245813Y-39224188D01*
X100242594Y-39211337D01*
X100240650Y-39198232D01*
X100240000Y-39185000D01*
X100240000Y-38815000D01*
X100240650Y-38801768D01*
X100242594Y-38788663D01*
X100245813Y-38775812D01*
X100250276Y-38763338D01*
X100255941Y-38751361D01*
X100262752Y-38739998D01*
X100270644Y-38729357D01*
X100279541Y-38719541D01*
X100289357Y-38710644D01*
X100299998Y-38702752D01*
X100311361Y-38695941D01*
X100323338Y-38690276D01*
X100335812Y-38685813D01*
X100348663Y-38682594D01*
X100361768Y-38680650D01*
X100375000Y-38680000D01*
X100645000Y-38680000D01*
X100658232Y-38680650D01*
G37*
G04 #@! TD.AperFunction*
D13*
X105000000Y-40250000D03*
X105000000Y-27250000D03*
D14*
X78950000Y-37250000D03*
X78950000Y-30250000D03*
D15*
X78950000Y-36650000D03*
X78950000Y-30850000D03*
D16*
X78950000Y-34750000D03*
X78950000Y-32750000D03*
D17*
X81650000Y-36250000D03*
X81650000Y-31250000D03*
D18*
X81650000Y-35050000D03*
X81650000Y-34400000D03*
X81650000Y-33750000D03*
X81650000Y-33100000D03*
X81650000Y-32450000D03*
D19*
X82100000Y-40000000D03*
X84900000Y-40000000D03*
X82350000Y-27000000D03*
X85150000Y-27000000D03*
G04 #@! TA.AperFunction,SMDPad,CuDef*
D10*
G36*
X99863722Y-35440674D02*
G01*
X99877313Y-35442690D01*
X99890640Y-35446028D01*
X99903576Y-35450657D01*
X99915996Y-35456531D01*
X99927780Y-35463594D01*
X99938815Y-35471779D01*
X99948995Y-35481005D01*
X99958221Y-35491185D01*
X99966406Y-35502220D01*
X99973469Y-35514004D01*
X99979343Y-35526424D01*
X99983972Y-35539360D01*
X99987310Y-35552687D01*
X99989326Y-35566278D01*
X99990000Y-35580000D01*
X99990000Y-35920000D01*
X99989326Y-35933722D01*
X99987310Y-35947313D01*
X99983972Y-35960640D01*
X99979343Y-35973576D01*
X99973469Y-35985996D01*
X99966406Y-35997780D01*
X99958221Y-36008815D01*
X99948995Y-36018995D01*
X99938815Y-36028221D01*
X99927780Y-36036406D01*
X99915996Y-36043469D01*
X99903576Y-36049343D01*
X99890640Y-36053972D01*
X99877313Y-36057310D01*
X99863722Y-36059326D01*
X99850000Y-36060000D01*
X99570000Y-36060000D01*
X99556278Y-36059326D01*
X99542687Y-36057310D01*
X99529360Y-36053972D01*
X99516424Y-36049343D01*
X99504004Y-36043469D01*
X99492220Y-36036406D01*
X99481185Y-36028221D01*
X99471005Y-36018995D01*
X99461779Y-36008815D01*
X99453594Y-35997780D01*
X99446531Y-35985996D01*
X99440657Y-35973576D01*
X99436028Y-35960640D01*
X99432690Y-35947313D01*
X99430674Y-35933722D01*
X99430000Y-35920000D01*
X99430000Y-35580000D01*
X99430674Y-35566278D01*
X99432690Y-35552687D01*
X99436028Y-35539360D01*
X99440657Y-35526424D01*
X99446531Y-35514004D01*
X99453594Y-35502220D01*
X99461779Y-35491185D01*
X99471005Y-35481005D01*
X99481185Y-35471779D01*
X99492220Y-35463594D01*
X99504004Y-35456531D01*
X99516424Y-35450657D01*
X99529360Y-35446028D01*
X99542687Y-35442690D01*
X99556278Y-35440674D01*
X99570000Y-35440000D01*
X99850000Y-35440000D01*
X99863722Y-35440674D01*
G37*
G04 #@! TD.AperFunction*
G04 #@! TA.AperFunction,SMDPad,CuDef*
G36*
X98903722Y-35440674D02*
G01*
X98917313Y-35442690D01*
X98930640Y-35446028D01*
X98943576Y-35450657D01*
X98955996Y-35456531D01*
X98967780Y-35463594D01*
X98978815Y-35471779D01*
X98988995Y-35481005D01*
X98998221Y-35491185D01*
X99006406Y-35502220D01*
X99013469Y-35514004D01*
X99019343Y-35526424D01*
X99023972Y-35539360D01*
X99027310Y-35552687D01*
X99029326Y-35566278D01*
X99030000Y-35580000D01*
X99030000Y-35920000D01*
X99029326Y-35933722D01*
X99027310Y-35947313D01*
X99023972Y-35960640D01*
X99019343Y-35973576D01*
X99013469Y-35985996D01*
X99006406Y-35997780D01*
X98998221Y-36008815D01*
X98988995Y-36018995D01*
X98978815Y-36028221D01*
X98967780Y-36036406D01*
X98955996Y-36043469D01*
X98943576Y-36049343D01*
X98930640Y-36053972D01*
X98917313Y-36057310D01*
X98903722Y-36059326D01*
X98890000Y-36060000D01*
X98610000Y-36060000D01*
X98596278Y-36059326D01*
X98582687Y-36057310D01*
X98569360Y-36053972D01*
X98556424Y-36049343D01*
X98544004Y-36043469D01*
X98532220Y-36036406D01*
X98521185Y-36028221D01*
X98511005Y-36018995D01*
X98501779Y-36008815D01*
X98493594Y-35997780D01*
X98486531Y-35985996D01*
X98480657Y-35973576D01*
X98476028Y-35960640D01*
X98472690Y-35947313D01*
X98470674Y-35933722D01*
X98470000Y-35920000D01*
X98470000Y-35580000D01*
X98470674Y-35566278D01*
X98472690Y-35552687D01*
X98476028Y-35539360D01*
X98480657Y-35526424D01*
X98486531Y-35514004D01*
X98493594Y-35502220D01*
X98501779Y-35491185D01*
X98511005Y-35481005D01*
X98521185Y-35471779D01*
X98532220Y-35463594D01*
X98544004Y-35456531D01*
X98556424Y-35450657D01*
X98569360Y-35446028D01*
X98582687Y-35442690D01*
X98596278Y-35440674D01*
X98610000Y-35440000D01*
X98890000Y-35440000D01*
X98903722Y-35440674D01*
G37*
G04 #@! TD.AperFunction*
G04 #@! TA.AperFunction,SMDPad,CuDef*
G36*
X89403722Y-36940674D02*
G01*
X89417313Y-36942690D01*
X89430640Y-36946028D01*
X89443576Y-36950657D01*
X89455996Y-36956531D01*
X89467780Y-36963594D01*
X89478815Y-36971779D01*
X89488995Y-36981005D01*
X89498221Y-36991185D01*
X89506406Y-37002220D01*
X89513469Y-37014004D01*
X89519343Y-37026424D01*
X89523972Y-37039360D01*
X89527310Y-37052687D01*
X89529326Y-37066278D01*
X89530000Y-37080000D01*
X89530000Y-37420000D01*
X89529326Y-37433722D01*
X89527310Y-37447313D01*
X89523972Y-37460640D01*
X89519343Y-37473576D01*
X89513469Y-37485996D01*
X89506406Y-37497780D01*
X89498221Y-37508815D01*
X89488995Y-37518995D01*
X89478815Y-37528221D01*
X89467780Y-37536406D01*
X89455996Y-37543469D01*
X89443576Y-37549343D01*
X89430640Y-37553972D01*
X89417313Y-37557310D01*
X89403722Y-37559326D01*
X89390000Y-37560000D01*
X89110000Y-37560000D01*
X89096278Y-37559326D01*
X89082687Y-37557310D01*
X89069360Y-37553972D01*
X89056424Y-37549343D01*
X89044004Y-37543469D01*
X89032220Y-37536406D01*
X89021185Y-37528221D01*
X89011005Y-37518995D01*
X89001779Y-37508815D01*
X88993594Y-37497780D01*
X88986531Y-37485996D01*
X88980657Y-37473576D01*
X88976028Y-37460640D01*
X88972690Y-37447313D01*
X88970674Y-37433722D01*
X88970000Y-37420000D01*
X88970000Y-37080000D01*
X88970674Y-37066278D01*
X88972690Y-37052687D01*
X88976028Y-37039360D01*
X88980657Y-37026424D01*
X88986531Y-37014004D01*
X88993594Y-37002220D01*
X89001779Y-36991185D01*
X89011005Y-36981005D01*
X89021185Y-36971779D01*
X89032220Y-36963594D01*
X89044004Y-36956531D01*
X89056424Y-36950657D01*
X89069360Y-36946028D01*
X89082687Y-36942690D01*
X89096278Y-36940674D01*
X89110000Y-36940000D01*
X89390000Y-36940000D01*
X89403722Y-36940674D01*
G37*
G04 #@! TD.AperFunction*
G04 #@! TA.AperFunction,SMDPad,CuDef*
G36*
X90363722Y-36940674D02*
G01*
X90377313Y-36942690D01*
X90390640Y-36946028D01*
X90403576Y-36950657D01*
X90415996Y-36956531D01*
X90427780Y-36963594D01*
X90438815Y-36971779D01*
X90448995Y-36981005D01*
X90458221Y-36991185D01*
X90466406Y-37002220D01*
X90473469Y-37014004D01*
X90479343Y-37026424D01*
X90483972Y-37039360D01*
X90487310Y-37052687D01*
X90489326Y-37066278D01*
X90490000Y-37080000D01*
X90490000Y-37420000D01*
X90489326Y-37433722D01*
X90487310Y-37447313D01*
X90483972Y-37460640D01*
X90479343Y-37473576D01*
X90473469Y-37485996D01*
X90466406Y-37497780D01*
X90458221Y-37508815D01*
X90448995Y-37518995D01*
X90438815Y-37528221D01*
X90427780Y-37536406D01*
X90415996Y-37543469D01*
X90403576Y-37549343D01*
X90390640Y-37553972D01*
X90377313Y-37557310D01*
X90363722Y-37559326D01*
X90350000Y-37560000D01*
X90070000Y-37560000D01*
X90056278Y-37559326D01*
X90042687Y-37557310D01*
X90029360Y-37553972D01*
X90016424Y-37549343D01*
X90004004Y-37543469D01*
X89992220Y-37536406D01*
X89981185Y-37528221D01*
X89971005Y-37518995D01*
X89961779Y-37508815D01*
X89953594Y-37497780D01*
X89946531Y-37485996D01*
X89940657Y-37473576D01*
X89936028Y-37460640D01*
X89932690Y-37447313D01*
X89930674Y-37433722D01*
X89930000Y-37420000D01*
X89930000Y-37080000D01*
X89930674Y-37066278D01*
X89932690Y-37052687D01*
X89936028Y-37039360D01*
X89940657Y-37026424D01*
X89946531Y-37014004D01*
X89953594Y-37002220D01*
X89961779Y-36991185D01*
X89971005Y-36981005D01*
X89981185Y-36971779D01*
X89992220Y-36963594D01*
X90004004Y-36956531D01*
X90016424Y-36950657D01*
X90029360Y-36946028D01*
X90042687Y-36942690D01*
X90056278Y-36940674D01*
X90070000Y-36940000D01*
X90350000Y-36940000D01*
X90363722Y-36940674D01*
G37*
G04 #@! TD.AperFunction*
G04 #@! TA.AperFunction,SMDPad,CuDef*
G36*
X97683722Y-37450674D02*
G01*
X97697313Y-37452690D01*
X97710640Y-37456028D01*
X97723576Y-37460657D01*
X97735996Y-37466531D01*
X97747780Y-37473594D01*
X97758815Y-37481779D01*
X97768995Y-37491005D01*
X97778221Y-37501185D01*
X97786406Y-37512220D01*
X97793469Y-37524004D01*
X97799343Y-37536424D01*
X97803972Y-37549360D01*
X97807310Y-37562687D01*
X97809326Y-37576278D01*
X97810000Y-37590000D01*
X97810000Y-37870000D01*
X97809326Y-37883722D01*
X97807310Y-37897313D01*
X97803972Y-37910640D01*
X97799343Y-37923576D01*
X97793469Y-37935996D01*
X97786406Y-37947780D01*
X97778221Y-37958815D01*
X97768995Y-37968995D01*
X97758815Y-37978221D01*
X97747780Y-37986406D01*
X97735996Y-37993469D01*
X97723576Y-37999343D01*
X97710640Y-38003972D01*
X97697313Y-38007310D01*
X97683722Y-38009326D01*
X97670000Y-38010000D01*
X97330000Y-38010000D01*
X97316278Y-38009326D01*
X97302687Y-38007310D01*
X97289360Y-38003972D01*
X97276424Y-37999343D01*
X97264004Y-37993469D01*
X97252220Y-37986406D01*
X97241185Y-37978221D01*
X97231005Y-37968995D01*
X97221779Y-37958815D01*
X97213594Y-37947780D01*
X97206531Y-37935996D01*
X97200657Y-37923576D01*
X97196028Y-37910640D01*
X97192690Y-37897313D01*
X97190674Y-37883722D01*
X97190000Y-37870000D01*
X97190000Y-37590000D01*
X97190674Y-37576278D01*
X97192690Y-37562687D01*
X97196028Y-37549360D01*
X97200657Y-37536424D01*
X97206531Y-37524004D01*
X97213594Y-37512220D01*
X97221779Y-37501185D01*
X97231005Y-37491005D01*
X97241185Y-37481779D01*
X97252220Y-37473594D01*
X97264004Y-37466531D01*
X97276424Y-37460657D01*
X97289360Y-37456028D01*
X97302687Y-37452690D01*
X97316278Y-37450674D01*
X97330000Y-37450000D01*
X97670000Y-37450000D01*
X97683722Y-37450674D01*
G37*
G04 #@! TD.AperFunction*
G04 #@! TA.AperFunction,SMDPad,CuDef*
G36*
X97683722Y-36490674D02*
G01*
X97697313Y-36492690D01*
X97710640Y-36496028D01*
X97723576Y-36500657D01*
X97735996Y-36506531D01*
X97747780Y-36513594D01*
X97758815Y-36521779D01*
X97768995Y-36531005D01*
X97778221Y-36541185D01*
X97786406Y-36552220D01*
X97793469Y-36564004D01*
X97799343Y-36576424D01*
X97803972Y-36589360D01*
X97807310Y-36602687D01*
X97809326Y-36616278D01*
X97810000Y-36630000D01*
X97810000Y-36910000D01*
X97809326Y-36923722D01*
X97807310Y-36937313D01*
X97803972Y-36950640D01*
X97799343Y-36963576D01*
X97793469Y-36975996D01*
X97786406Y-36987780D01*
X97778221Y-36998815D01*
X97768995Y-37008995D01*
X97758815Y-37018221D01*
X97747780Y-37026406D01*
X97735996Y-37033469D01*
X97723576Y-37039343D01*
X97710640Y-37043972D01*
X97697313Y-37047310D01*
X97683722Y-37049326D01*
X97670000Y-37050000D01*
X97330000Y-37050000D01*
X97316278Y-37049326D01*
X97302687Y-37047310D01*
X97289360Y-37043972D01*
X97276424Y-37039343D01*
X97264004Y-37033469D01*
X97252220Y-37026406D01*
X97241185Y-37018221D01*
X97231005Y-37008995D01*
X97221779Y-36998815D01*
X97213594Y-36987780D01*
X97206531Y-36975996D01*
X97200657Y-36963576D01*
X97196028Y-36950640D01*
X97192690Y-36937313D01*
X97190674Y-36923722D01*
X97190000Y-36910000D01*
X97190000Y-36630000D01*
X97190674Y-36616278D01*
X97192690Y-36602687D01*
X97196028Y-36589360D01*
X97200657Y-36576424D01*
X97206531Y-36564004D01*
X97213594Y-36552220D01*
X97221779Y-36541185D01*
X97231005Y-36531005D01*
X97241185Y-36521779D01*
X97252220Y-36513594D01*
X97264004Y-36506531D01*
X97276424Y-36500657D01*
X97289360Y-36496028D01*
X97302687Y-36492690D01*
X97316278Y-36490674D01*
X97330000Y-36490000D01*
X97670000Y-36490000D01*
X97683722Y-36490674D01*
G37*
G04 #@! TD.AperFunction*
G04 #@! TA.AperFunction,SMDPad,CuDef*
G36*
X96183722Y-31740674D02*
G01*
X96197313Y-31742690D01*
X96210640Y-31746028D01*
X96223576Y-31750657D01*
X96235996Y-31756531D01*
X96247780Y-31763594D01*
X96258815Y-31771779D01*
X96268995Y-31781005D01*
X96278221Y-31791185D01*
X96286406Y-31802220D01*
X96293469Y-31814004D01*
X96299343Y-31826424D01*
X96303972Y-31839360D01*
X96307310Y-31852687D01*
X96309326Y-31866278D01*
X96310000Y-31880000D01*
X96310000Y-32160000D01*
X96309326Y-32173722D01*
X96307310Y-32187313D01*
X96303972Y-32200640D01*
X96299343Y-32213576D01*
X96293469Y-32225996D01*
X96286406Y-32237780D01*
X96278221Y-32248815D01*
X96268995Y-32258995D01*
X96258815Y-32268221D01*
X96247780Y-32276406D01*
X96235996Y-32283469D01*
X96223576Y-32289343D01*
X96210640Y-32293972D01*
X96197313Y-32297310D01*
X96183722Y-32299326D01*
X96170000Y-32300000D01*
X95830000Y-32300000D01*
X95816278Y-32299326D01*
X95802687Y-32297310D01*
X95789360Y-32293972D01*
X95776424Y-32289343D01*
X95764004Y-32283469D01*
X95752220Y-32276406D01*
X95741185Y-32268221D01*
X95731005Y-32258995D01*
X95721779Y-32248815D01*
X95713594Y-32237780D01*
X95706531Y-32225996D01*
X95700657Y-32213576D01*
X95696028Y-32200640D01*
X95692690Y-32187313D01*
X95690674Y-32173722D01*
X95690000Y-32160000D01*
X95690000Y-31880000D01*
X95690674Y-31866278D01*
X95692690Y-31852687D01*
X95696028Y-31839360D01*
X95700657Y-31826424D01*
X95706531Y-31814004D01*
X95713594Y-31802220D01*
X95721779Y-31791185D01*
X95731005Y-31781005D01*
X95741185Y-31771779D01*
X95752220Y-31763594D01*
X95764004Y-31756531D01*
X95776424Y-31750657D01*
X95789360Y-31746028D01*
X95802687Y-31742690D01*
X95816278Y-31740674D01*
X95830000Y-31740000D01*
X96170000Y-31740000D01*
X96183722Y-31740674D01*
G37*
G04 #@! TD.AperFunction*
G04 #@! TA.AperFunction,SMDPad,CuDef*
G36*
X96183722Y-32700674D02*
G01*
X96197313Y-32702690D01*
X96210640Y-32706028D01*
X96223576Y-32710657D01*
X96235996Y-32716531D01*
X96247780Y-32723594D01*
X96258815Y-32731779D01*
X96268995Y-32741005D01*
X96278221Y-32751185D01*
X96286406Y-32762220D01*
X96293469Y-32774004D01*
X96299343Y-32786424D01*
X96303972Y-32799360D01*
X96307310Y-32812687D01*
X96309326Y-32826278D01*
X96310000Y-32840000D01*
X96310000Y-33120000D01*
X96309326Y-33133722D01*
X96307310Y-33147313D01*
X96303972Y-33160640D01*
X96299343Y-33173576D01*
X96293469Y-33185996D01*
X96286406Y-33197780D01*
X96278221Y-33208815D01*
X96268995Y-33218995D01*
X96258815Y-33228221D01*
X96247780Y-33236406D01*
X96235996Y-33243469D01*
X96223576Y-33249343D01*
X96210640Y-33253972D01*
X96197313Y-33257310D01*
X96183722Y-33259326D01*
X96170000Y-33260000D01*
X95830000Y-33260000D01*
X95816278Y-33259326D01*
X95802687Y-33257310D01*
X95789360Y-33253972D01*
X95776424Y-33249343D01*
X95764004Y-33243469D01*
X95752220Y-33236406D01*
X95741185Y-33228221D01*
X95731005Y-33218995D01*
X95721779Y-33208815D01*
X95713594Y-33197780D01*
X95706531Y-33185996D01*
X95700657Y-33173576D01*
X95696028Y-33160640D01*
X95692690Y-33147313D01*
X95690674Y-33133722D01*
X95690000Y-33120000D01*
X95690000Y-32840000D01*
X95690674Y-32826278D01*
X95692690Y-32812687D01*
X95696028Y-32799360D01*
X95700657Y-32786424D01*
X95706531Y-32774004D01*
X95713594Y-32762220D01*
X95721779Y-32751185D01*
X95731005Y-32741005D01*
X95741185Y-32731779D01*
X95752220Y-32723594D01*
X95764004Y-32716531D01*
X95776424Y-32710657D01*
X95789360Y-32706028D01*
X95802687Y-32702690D01*
X95816278Y-32700674D01*
X95830000Y-32700000D01*
X96170000Y-32700000D01*
X96183722Y-32700674D01*
G37*
G04 #@! TD.AperFunction*
G04 #@! TA.AperFunction,SMDPad,CuDef*
G36*
X98183722Y-40510674D02*
G01*
X98197313Y-40512690D01*
X98210640Y-40516028D01*
X98223576Y-40520657D01*
X98235996Y-40526531D01*
X98247780Y-40533594D01*
X98258815Y-40541779D01*
X98268995Y-40551005D01*
X98278221Y-40561185D01*
X98286406Y-40572220D01*
X98293469Y-40584004D01*
X98299343Y-40596424D01*
X98303972Y-40609360D01*
X98307310Y-40622687D01*
X98309326Y-40636278D01*
X98310000Y-40650000D01*
X98310000Y-40930000D01*
X98309326Y-40943722D01*
X98307310Y-40957313D01*
X98303972Y-40970640D01*
X98299343Y-40983576D01*
X98293469Y-40995996D01*
X98286406Y-41007780D01*
X98278221Y-41018815D01*
X98268995Y-41028995D01*
X98258815Y-41038221D01*
X98247780Y-41046406D01*
X98235996Y-41053469D01*
X98223576Y-41059343D01*
X98210640Y-41063972D01*
X98197313Y-41067310D01*
X98183722Y-41069326D01*
X98170000Y-41070000D01*
X97830000Y-41070000D01*
X97816278Y-41069326D01*
X97802687Y-41067310D01*
X97789360Y-41063972D01*
X97776424Y-41059343D01*
X97764004Y-41053469D01*
X97752220Y-41046406D01*
X97741185Y-41038221D01*
X97731005Y-41028995D01*
X97721779Y-41018815D01*
X97713594Y-41007780D01*
X97706531Y-40995996D01*
X97700657Y-40983576D01*
X97696028Y-40970640D01*
X97692690Y-40957313D01*
X97690674Y-40943722D01*
X97690000Y-40930000D01*
X97690000Y-40650000D01*
X97690674Y-40636278D01*
X97692690Y-40622687D01*
X97696028Y-40609360D01*
X97700657Y-40596424D01*
X97706531Y-40584004D01*
X97713594Y-40572220D01*
X97721779Y-40561185D01*
X97731005Y-40551005D01*
X97741185Y-40541779D01*
X97752220Y-40533594D01*
X97764004Y-40526531D01*
X97776424Y-40520657D01*
X97789360Y-40516028D01*
X97802687Y-40512690D01*
X97816278Y-40510674D01*
X97830000Y-40510000D01*
X98170000Y-40510000D01*
X98183722Y-40510674D01*
G37*
G04 #@! TD.AperFunction*
G04 #@! TA.AperFunction,SMDPad,CuDef*
G36*
X98183722Y-41470674D02*
G01*
X98197313Y-41472690D01*
X98210640Y-41476028D01*
X98223576Y-41480657D01*
X98235996Y-41486531D01*
X98247780Y-41493594D01*
X98258815Y-41501779D01*
X98268995Y-41511005D01*
X98278221Y-41521185D01*
X98286406Y-41532220D01*
X98293469Y-41544004D01*
X98299343Y-41556424D01*
X98303972Y-41569360D01*
X98307310Y-41582687D01*
X98309326Y-41596278D01*
X98310000Y-41610000D01*
X98310000Y-41890000D01*
X98309326Y-41903722D01*
X98307310Y-41917313D01*
X98303972Y-41930640D01*
X98299343Y-41943576D01*
X98293469Y-41955996D01*
X98286406Y-41967780D01*
X98278221Y-41978815D01*
X98268995Y-41988995D01*
X98258815Y-41998221D01*
X98247780Y-42006406D01*
X98235996Y-42013469D01*
X98223576Y-42019343D01*
X98210640Y-42023972D01*
X98197313Y-42027310D01*
X98183722Y-42029326D01*
X98170000Y-42030000D01*
X97830000Y-42030000D01*
X97816278Y-42029326D01*
X97802687Y-42027310D01*
X97789360Y-42023972D01*
X97776424Y-42019343D01*
X97764004Y-42013469D01*
X97752220Y-42006406D01*
X97741185Y-41998221D01*
X97731005Y-41988995D01*
X97721779Y-41978815D01*
X97713594Y-41967780D01*
X97706531Y-41955996D01*
X97700657Y-41943576D01*
X97696028Y-41930640D01*
X97692690Y-41917313D01*
X97690674Y-41903722D01*
X97690000Y-41890000D01*
X97690000Y-41610000D01*
X97690674Y-41596278D01*
X97692690Y-41582687D01*
X97696028Y-41569360D01*
X97700657Y-41556424D01*
X97706531Y-41544004D01*
X97713594Y-41532220D01*
X97721779Y-41521185D01*
X97731005Y-41511005D01*
X97741185Y-41501779D01*
X97752220Y-41493594D01*
X97764004Y-41486531D01*
X97776424Y-41480657D01*
X97789360Y-41476028D01*
X97802687Y-41472690D01*
X97816278Y-41470674D01*
X97830000Y-41470000D01*
X98170000Y-41470000D01*
X98183722Y-41470674D01*
G37*
G04 #@! TD.AperFunction*
D20*
X109500000Y-31750000D03*
X109500000Y-37500000D03*
D21*
X92500000Y-32750000D03*
X90250020Y-30750000D03*
D20*
X86499996Y-40000000D03*
D21*
X99000000Y-30250000D03*
X91000000Y-38000028D03*
X97310309Y-34560309D03*
X94496738Y-35239109D03*
X87250000Y-32500000D03*
X88750026Y-33500000D03*
X94783718Y-36197058D03*
X87750000Y-33500000D03*
X86240000Y-35240000D03*
X92250000Y-29325000D03*
X88000000Y-28750000D03*
X89250000Y-28750000D03*
X91725000Y-37275000D03*
X93514889Y-36379848D03*
X89750000Y-39249994D03*
X83250000Y-32250000D03*
X84250000Y-31749996D03*
D22*
X98290000Y-40500000D02*
X98000000Y-40790000D01*
X99500000Y-40500000D02*
X98290000Y-40500000D01*
D23*
X100406854Y-35750000D02*
X101055635Y-36398781D01*
X99710000Y-35750000D02*
X100406854Y-35750000D01*
X95770000Y-32250000D02*
X96000000Y-32020000D01*
X94162500Y-32250000D02*
X95770000Y-32250000D01*
X81650000Y-35050000D02*
X81650000Y-36250000D01*
X78950000Y-36650000D02*
X78950000Y-34750000D01*
X78950000Y-30850000D02*
X78950000Y-32750000D01*
X78950000Y-32750000D02*
X78950000Y-34750000D01*
D22*
X110364999Y-35999999D02*
X111600000Y-35999999D01*
X109500000Y-36864998D02*
X110364999Y-35999999D01*
X109500000Y-37500000D02*
X109500000Y-36864998D01*
X110964989Y-35400009D02*
X111600000Y-35400009D01*
X109500000Y-36864998D02*
X110964989Y-35400009D01*
X110881369Y-31500001D02*
X111600000Y-31500001D01*
X110631370Y-31750000D02*
X110881369Y-31500001D01*
X109500000Y-31750000D02*
X110631370Y-31750000D01*
X109500000Y-31750000D02*
X109849999Y-32099999D01*
X110364999Y-32099999D02*
X111600000Y-32099999D01*
X109849999Y-32099999D02*
X110364999Y-32099999D01*
D23*
X93000000Y-32250000D02*
X94162500Y-32250000D01*
X92500000Y-32750000D02*
X93000000Y-32250000D01*
X90250000Y-27337500D02*
X90250000Y-30749980D01*
X90250000Y-30749980D02*
X90250020Y-30750000D01*
X89250000Y-37242374D02*
X89250000Y-37250000D01*
X89750000Y-36742374D02*
X89250000Y-37242374D01*
X89750000Y-35662500D02*
X89750000Y-36742374D01*
X85100000Y-33750000D02*
X85837500Y-33750000D01*
X82795824Y-35050000D02*
X84095824Y-33750000D01*
X81650000Y-35050000D02*
X82795824Y-35050000D01*
X84095824Y-33750000D02*
X85100000Y-33750000D01*
X101055635Y-36398781D02*
X101055635Y-35644365D01*
X101055635Y-35644365D02*
X103275000Y-33425000D01*
X103275000Y-33425000D02*
X104400000Y-33425000D01*
D22*
X97000000Y-39790000D02*
X98000000Y-40790000D01*
X97500000Y-37730000D02*
X97000000Y-38230000D01*
D23*
X89250000Y-37426998D02*
X90860492Y-39037490D01*
X89250000Y-37250000D02*
X89250000Y-37426998D01*
X94450000Y-39587500D02*
X93899990Y-39037490D01*
X93899990Y-39037490D02*
X90860492Y-39037490D01*
X94450000Y-39587500D02*
X94787500Y-39250000D01*
X94450000Y-40250000D02*
X94450000Y-39587500D01*
X94787500Y-39250000D02*
X97000000Y-39250000D01*
D22*
X97000000Y-39250000D02*
X97000000Y-39790000D01*
X97000000Y-38230000D02*
X97000000Y-39250000D01*
D23*
X83015824Y-35270000D02*
X82795824Y-35050000D01*
X84250000Y-35270000D02*
X83015824Y-35270000D01*
D22*
X105674999Y-30799999D02*
X104400000Y-30799999D01*
X105050000Y-30175000D02*
X105674999Y-30799999D01*
X104400000Y-30175000D02*
X105050000Y-30175000D01*
X108000000Y-34985002D02*
X108000000Y-33125000D01*
X108000000Y-33125000D02*
X105674999Y-30799999D01*
X105635001Y-37350001D02*
X108000000Y-34985002D01*
X104374999Y-37350001D02*
X105635001Y-37350001D01*
X97990000Y-41760000D02*
X98000000Y-41750000D01*
X96750000Y-41760000D02*
X97990000Y-41760000D01*
X86637500Y-40687500D02*
X86637500Y-40687500D01*
X104136028Y-37350001D02*
X104400000Y-37350001D01*
X99720209Y-41765820D02*
X104136028Y-37350001D01*
X99068748Y-41765820D02*
X99720209Y-41765820D01*
X99052928Y-41750000D02*
X99068748Y-41765820D01*
X98000000Y-41750000D02*
X99052928Y-41750000D01*
X86637500Y-40687500D02*
X86637500Y-40687500D01*
X86637500Y-40687500D02*
X86637500Y-40687500D01*
X93500000Y-40250000D02*
X93500000Y-41750000D01*
X96750000Y-41760000D02*
X93500000Y-41750000D01*
X87000000Y-40000000D02*
X86499996Y-40000000D01*
X84900000Y-40000000D02*
X87000000Y-40000000D01*
X93500000Y-41750000D02*
X88249996Y-41750000D01*
X88249996Y-41750000D02*
X87299995Y-40799999D01*
X87299995Y-40799999D02*
X86499996Y-40000000D01*
D23*
X95770000Y-32750000D02*
X94162500Y-32750000D01*
X96000000Y-32980000D02*
X95770000Y-32750000D01*
X105435002Y-36675000D02*
X107424990Y-34685012D01*
X104400000Y-36675000D02*
X105435002Y-36675000D01*
X105525000Y-31475000D02*
X104400000Y-31475000D01*
X107424990Y-33374990D02*
X105525000Y-31475000D01*
X104400000Y-34725000D02*
X104400000Y-34075000D01*
X107424990Y-34685012D02*
X107424990Y-33374990D01*
X100770000Y-28740000D02*
X102010000Y-27500000D01*
X100750000Y-28740000D02*
X100770000Y-28740000D01*
X97530000Y-36740000D02*
X97500000Y-36770000D01*
X98750000Y-36740000D02*
X97530000Y-36740000D01*
X99490000Y-37160000D02*
X99490000Y-38680000D01*
X99070000Y-36740000D02*
X99490000Y-37160000D01*
X98750000Y-36740000D02*
X99070000Y-36740000D01*
X98750000Y-35750000D02*
X98750000Y-36740000D01*
X103275000Y-36675000D02*
X104400000Y-36675000D01*
X103175000Y-36675000D02*
X103275000Y-36675000D01*
X98750000Y-35750000D02*
X98750000Y-35742374D01*
X103175000Y-34825000D02*
X103175000Y-36675000D01*
X103275000Y-34725000D02*
X103175000Y-34825000D01*
X104400000Y-34725000D02*
X103275000Y-34725000D01*
X99490000Y-38680000D02*
X99490000Y-39000000D01*
X100430000Y-28740000D02*
X100750000Y-28740000D01*
X100064089Y-29105911D02*
X100430000Y-28740000D01*
X90725010Y-35637510D02*
X90750000Y-35662500D01*
X90725010Y-34834308D02*
X90725010Y-35637510D01*
X90140702Y-34250000D02*
X90725010Y-34834308D01*
X85837500Y-34250000D02*
X90140702Y-34250000D01*
X90140702Y-34250000D02*
X90140702Y-33786296D01*
X93222888Y-31750000D02*
X90750000Y-29277112D01*
X94162500Y-31750000D02*
X93222888Y-31750000D01*
X90750000Y-29277112D02*
X90750000Y-29000000D01*
X90750000Y-29000000D02*
X90750000Y-29140702D01*
X90750000Y-27337500D02*
X90750000Y-29000000D01*
X92176998Y-31750000D02*
X94162500Y-31750000D01*
X90140702Y-33786296D02*
X92176998Y-31750000D01*
X99000000Y-30250000D02*
X99000000Y-30250000D01*
X100064089Y-29185911D02*
X99000000Y-30250000D01*
X100064089Y-29105911D02*
X100064089Y-29185911D01*
X90750000Y-37750028D02*
X91000000Y-38000028D01*
X90750000Y-37677626D02*
X90750000Y-37750028D01*
X90815010Y-37612616D02*
X90750000Y-37677626D01*
X90815010Y-36887384D02*
X90815010Y-37612616D01*
X90750000Y-36822374D02*
X90815010Y-36887384D01*
X90750000Y-35662500D02*
X90750000Y-36822374D01*
X100051541Y-31301541D02*
X99000000Y-30250000D01*
X100750000Y-32250000D02*
X100051541Y-31551541D01*
X101750000Y-32250000D02*
X100750000Y-32250000D01*
X104400000Y-31475000D02*
X102525000Y-31475000D01*
X100051541Y-31551541D02*
X100051541Y-31301541D01*
X102525000Y-31475000D02*
X101750000Y-32250000D01*
X99815010Y-38354990D02*
X99490000Y-38680000D01*
X100395010Y-38354990D02*
X99815010Y-38354990D01*
X103175000Y-35575000D02*
X100395010Y-38354990D01*
X93474972Y-38000028D02*
X93500000Y-37975000D01*
X91000000Y-38000028D02*
X93474972Y-38000028D01*
X97190000Y-36770000D02*
X97500000Y-36770000D01*
X97182490Y-36762490D02*
X97190000Y-36770000D01*
X95237510Y-36762490D02*
X97182490Y-36762490D01*
X94325000Y-37675000D02*
X95237510Y-36762490D01*
X93800000Y-37675000D02*
X94325000Y-37675000D01*
X93500000Y-37975000D02*
X93800000Y-37675000D01*
X90250000Y-37210000D02*
X90210000Y-37250000D01*
X90250000Y-35662500D02*
X90250000Y-37210000D01*
X85150000Y-26200000D02*
X85150000Y-27000000D01*
X85525020Y-25824980D02*
X85150000Y-26200000D01*
X91177092Y-25824980D02*
X85525020Y-25824980D01*
X91750000Y-26397888D02*
X91177092Y-25824980D01*
X91750000Y-27337500D02*
X91750000Y-26397888D01*
D22*
X80524999Y-32539999D02*
X80614998Y-32450000D01*
X80524999Y-37374999D02*
X80524999Y-32539999D01*
X82100000Y-38950000D02*
X80524999Y-37374999D01*
X80614998Y-32450000D02*
X81650000Y-32450000D01*
X82100000Y-40000000D02*
X82100000Y-38950000D01*
X106749999Y-38314999D02*
X110364999Y-34699999D01*
X106749999Y-38500001D02*
X106749999Y-38314999D01*
X105000000Y-40250000D02*
X106749999Y-38500001D01*
X111600000Y-33425000D02*
X111600000Y-32800001D01*
X111600000Y-33425000D02*
X111600000Y-34699999D01*
X110364999Y-34699999D02*
X111600000Y-34699999D01*
X109400000Y-27250000D02*
X111600000Y-29450000D01*
X105000000Y-27250000D02*
X109400000Y-27250000D01*
X111600000Y-37325000D02*
X111600000Y-36700001D01*
X111600000Y-37325000D02*
X112210002Y-37325000D01*
X111625001Y-36700001D02*
X111600000Y-36700001D01*
X111942501Y-37017501D02*
X111625001Y-36700001D01*
X112517501Y-37017501D02*
X111942501Y-37017501D01*
X112210002Y-37325000D02*
X112517501Y-37017501D01*
X112517501Y-37017501D02*
X112975000Y-36560002D01*
X111600000Y-30175000D02*
X111675000Y-30175000D01*
X112250000Y-30175000D02*
X111600000Y-30175000D01*
X112975000Y-30900000D02*
X112250000Y-30175000D01*
X112975000Y-36560002D02*
X112975000Y-30900000D01*
X112874999Y-30799999D02*
X111600000Y-30799999D01*
X112975000Y-30900000D02*
X112874999Y-30799999D01*
X111600000Y-29450000D02*
X111600000Y-30175000D01*
X111600000Y-30175000D02*
X111600000Y-30799991D01*
D23*
X102328427Y-38344416D02*
X102328427Y-37671573D01*
X101672843Y-39000000D02*
X102328427Y-38344416D01*
X100510000Y-39000000D02*
X101672843Y-39000000D01*
X100750000Y-30750000D02*
X101078427Y-31078427D01*
X100750000Y-29760000D02*
X100750000Y-30750000D01*
X98227208Y-38282792D02*
X98750000Y-37760000D01*
X98227208Y-39227208D02*
X98227208Y-38282792D01*
X95565685Y-30250000D02*
X97310309Y-31994624D01*
X94162500Y-30250000D02*
X95565685Y-30250000D01*
X97310309Y-31994624D02*
X97310309Y-33994624D01*
X97310309Y-33994624D02*
X97310309Y-34560309D01*
X100045584Y-27500000D02*
X99522792Y-26977208D01*
X100990000Y-27500000D02*
X100045584Y-27500000D01*
X94900000Y-29750000D02*
X94162500Y-29750000D01*
X95229704Y-29750000D02*
X94900000Y-29750000D01*
X98002496Y-26977208D02*
X95229704Y-29750000D01*
X99522792Y-26977208D02*
X98002496Y-26977208D01*
X106974980Y-34485022D02*
X105435002Y-36025000D01*
X105435002Y-36025000D02*
X104400000Y-36025000D01*
X106974980Y-33574980D02*
X106974980Y-34485022D01*
X105525000Y-32125000D02*
X106974980Y-33574980D01*
X104400000Y-32125000D02*
X105525000Y-32125000D01*
X95298316Y-35475002D02*
X95062423Y-35239109D01*
X104400000Y-32125000D02*
X102511410Y-32125000D01*
X102511410Y-32125000D02*
X99971431Y-34664979D01*
X99971431Y-34664979D02*
X98230984Y-34664979D01*
X98230984Y-34664979D02*
X97420961Y-35475002D01*
X95062423Y-35239109D02*
X94496738Y-35239109D01*
X97420961Y-35475002D02*
X95298316Y-35475002D01*
X87250000Y-31934315D02*
X87250000Y-32500000D01*
X85837500Y-30250000D02*
X86815685Y-30250000D01*
X86815685Y-30250000D02*
X87250000Y-30684315D01*
X87250000Y-30684315D02*
X87250000Y-31934315D01*
X105525000Y-32775000D02*
X106500000Y-33750000D01*
X104400000Y-32775000D02*
X105525000Y-32775000D01*
X105435002Y-35375000D02*
X104400000Y-35375000D01*
X106500000Y-34310002D02*
X105435002Y-35375000D01*
X106500000Y-33750000D02*
X106500000Y-34310002D01*
X85837500Y-28750000D02*
X86823002Y-28750000D01*
X86823002Y-28750000D02*
X88750026Y-30677024D01*
X88750026Y-30677024D02*
X88750026Y-32934315D01*
X88750026Y-32934315D02*
X88750026Y-33500000D01*
X95349403Y-36197058D02*
X94783718Y-36197058D01*
X97607361Y-35925013D02*
X95621448Y-35925013D01*
X100157832Y-35114990D02*
X98417384Y-35114990D01*
X95621448Y-35925013D02*
X95349403Y-36197058D01*
X102497822Y-32775000D02*
X100157832Y-35114990D01*
X98417384Y-35114990D02*
X97607361Y-35925013D01*
X104400000Y-32775000D02*
X102497822Y-32775000D01*
X95890000Y-40740000D02*
X95400000Y-40250000D01*
X96750000Y-40740000D02*
X95890000Y-40740000D01*
X84270000Y-36260000D02*
X84250000Y-36240000D01*
X85250000Y-36260000D02*
X84270000Y-36260000D01*
X87975041Y-30584339D02*
X87975041Y-33274959D01*
X86640702Y-29250000D02*
X87975041Y-30584339D01*
X85837500Y-29250000D02*
X86640702Y-29250000D01*
X87975041Y-33274959D02*
X87750000Y-33500000D01*
X87750000Y-33500000D02*
X87750000Y-33500000D01*
X85250000Y-35240000D02*
X86240000Y-35240000D01*
X86240000Y-35240000D02*
X86240000Y-35240000D01*
X92250000Y-29890685D02*
X92250000Y-29325000D01*
X92250000Y-30140702D02*
X92250000Y-29890685D01*
X93359298Y-31250000D02*
X92250000Y-30140702D01*
X94162500Y-31250000D02*
X93359298Y-31250000D01*
X88725010Y-27362490D02*
X88750000Y-27337500D01*
X88725010Y-28165692D02*
X88725010Y-27362490D01*
X88490692Y-28400010D02*
X88725010Y-28165692D01*
X88099990Y-28400010D02*
X88490692Y-28400010D01*
X88000000Y-28500000D02*
X88099990Y-28400010D01*
X88000000Y-28750000D02*
X88000000Y-28500000D01*
X89250000Y-27337500D02*
X89250000Y-28750000D01*
X91325001Y-36875001D02*
X91725000Y-37275000D01*
X91265020Y-36815020D02*
X91325001Y-36875001D01*
X91265020Y-36415020D02*
X91265020Y-36815020D01*
X91250000Y-36400000D02*
X91265020Y-36415020D01*
X91250000Y-35662500D02*
X91250000Y-36400000D01*
X91750000Y-35662500D02*
X91750000Y-34859298D01*
X91750000Y-34859298D02*
X92009308Y-34599990D01*
X92009308Y-34599990D02*
X92990692Y-34599990D01*
X93514889Y-35814163D02*
X93514889Y-36379848D01*
X93514889Y-35124187D02*
X93514889Y-35814163D01*
X92990692Y-34599990D02*
X93514889Y-35124187D01*
X88549989Y-36982385D02*
X88549989Y-38049983D01*
X88549989Y-38049983D02*
X89750000Y-39249994D01*
X88750000Y-36782374D02*
X88549989Y-36982385D01*
X88750000Y-35662500D02*
X88750000Y-36782374D01*
X82350000Y-27000000D02*
X83150000Y-27000000D01*
X83250000Y-31684315D02*
X83250000Y-32250000D01*
X83250000Y-27100000D02*
X83250000Y-31684315D01*
X83150000Y-27000000D02*
X83250000Y-27100000D01*
X87009308Y-26274990D02*
X86774990Y-26509308D01*
X90990692Y-26274990D02*
X87009308Y-26274990D01*
X84649999Y-31349997D02*
X84250000Y-31749996D01*
X85960001Y-27875001D02*
X85309314Y-27875001D01*
X91250000Y-27337500D02*
X91250000Y-26534298D01*
X84725001Y-31274995D02*
X84649999Y-31349997D01*
X85309314Y-27875001D02*
X84725001Y-28459314D01*
X86774990Y-27060012D02*
X85960001Y-27875001D01*
X86774990Y-26509308D02*
X86774990Y-27060012D01*
X84725001Y-28459314D02*
X84725001Y-31274995D01*
X91250000Y-26534298D02*
X90990692Y-26274990D01*
X81650000Y-33750000D02*
X83459413Y-33750000D01*
X85100000Y-33250000D02*
X85837500Y-33250000D01*
X83959413Y-33250000D02*
X85100000Y-33250000D01*
X83459413Y-33750000D02*
X83959413Y-33250000D01*
X82575000Y-33100000D02*
X81650000Y-33100000D01*
X83473002Y-33100000D02*
X82575000Y-33100000D01*
X85837500Y-32750000D02*
X83823002Y-32750000D01*
X83823002Y-32750000D02*
X83473002Y-33100000D01*
M02*
